<?xml version="1.0" encoding="utf-8"?>
<!-- Generator: Adobe Illustrator 27.0.0, SVG Export Plug-In . SVG Version: 6.00 Build 0)  -->
<svg version="1.1" id="Capa_1" xmlns="http://www.w3.org/2000/svg" xmlns:xlink="http://www.w3.org/1999/xlink" x="0px" y="0px"
	 viewBox="0 0 24 24" style="enable-background:new 0 0 24 24;" xml:space="preserve">
<style type="text/css">
	.st0{fill:none;stroke:#FFFFFF;stroke-width:2;stroke-linecap:round;stroke-linejoin:round;}
</style>
<path class="st0" d="M4,13c0.3,2.5,1.9,4.8,4,6"/>
<path class="st0" d="M20,11c-0.6-4.4-4.7-7.5-9.1-6.9C8,4.5,5.6,6.4,4.5,9"/>
<path class="st0" d="M4,5v4h4"/>
<path class="st0" d="M12,15h2c0.6,0,1,0.4,1,1v1c0,0.6-0.4,1-1,1h-1c-0.6,0-1,0.4-1,1v1c0,0.6,0.4,1,1,1h2"/>
<path class="st0" d="M18,15v2c0,0.6,0.4,1,1,1h1"/>
<path class="st0" d="M21,15v6"/>
</svg>
