<?xml version="1.0" encoding="UTF-8"?> <!-- Generator: Adobe Illustrator 24.0.0, SVG Export Plug-In . SVG Version: 6.00 Build 0) --> <svg xmlns="http://www.w3.org/2000/svg" xmlns:xlink="http://www.w3.org/1999/xlink" version="1.1" id="Layer_1" x="0px" y="0px" viewBox="0 0 400 200" style="enable-background:new 0 0 400 200;" xml:space="preserve"> <style type="text/css"> .st0{fill:#6C757D;} </style> <g> <path class="st0" d="M144.1,143.8c-12.6-1-22.5-9.1-25.1-20.6c-0.5-2.2-0.5-7.7,0-9.9c0.8-3.6,2.1-6.4,4.1-9.4 c4.2-6,10.7-10,18.3-11.3c2.6-0.5,7.5-0.5,10.1-0.1c5.5,0.9,10.9,3.5,14.1,6.9c2.1,2.2,3.3,5.3,2.8,7.7c-0.5,2.7-2.3,4.9-5.3,6.3 c-1.4,0.7-1.6,0.7-3.3,0.7c-2.2,0-3.4-0.4-5.7-1.9c-3.4-2.2-3.8-2.4-4.7-2.8c-1.2-0.4-4.3-0.6-5.7-0.3c-4.1,0.9-7.3,4.8-7.3,8.8 c0,2.4,0.8,4.3,2.6,6.1c2.2,2.3,4.2,3,7.6,2.9c2.4-0.1,3.5-0.5,6.6-2.6c2-1.4,3.3-2,5-2.4c2.4-0.6,5.4,0.4,7.8,2.6 c1.5,1.4,2.2,2.8,2.3,4.9c0.3,4.2-2.3,7.8-8.1,11C155.9,143.1,149.9,144.3,144.1,143.8L144.1,143.8z"></path> <path class="st0" d="M201.4,143.8c-6.3-0.6-11.9-3-16.6-7.3c-3.9-3.6-6.5-8-7.8-13.4c-0.4-1.8-0.5-7.9-0.1-9.7 c1.6-7,5.7-12.9,11.6-16.6c5.9-3.7,12.3-5.2,19-4.2c11.1,1.5,20.2,9.7,22.6,20.3c0.5,2,0.6,6.9,0.2,9.3c-1.6,10-9.6,18.4-20.2,21 C208,143.8,203.9,144.1,201.4,143.8z M206,127c2.5-0.6,5-2.5,6.2-4.5c2.9-5.1,0.2-11.2-5.7-13c-2.5-0.8-5.6-0.4-7.8,1 c-4.2,2.6-5.7,7.4-3.7,11.5c0.7,1.4,2.7,3.4,4.3,4.2C201.3,127.3,203.8,127.6,206,127L206,127z"></path> <path class="st0" d="M359.5,143.9c-4.5-0.4-7-1-10.4-2.6c-7.8-3.7-13.2-10.4-14.9-18.4c-0.5-2.3-0.5-7,0-9.4 c0.9-4.8,3.5-9.3,7.2-13.1c11.7-11.6,31-10.4,41.2,2.6c2.7,3.5,4.5,7.7,5.1,12.4c0.4,2.7,0.4,19.5,0.1,21.1c-0.6,2.6-2.5,5-5,6.2 c-1.3,0.6-1.5,0.6-3.8,0.6c-2.1,0-2.5-0.1-3.5-0.5c-0.6-0.3-1.5-0.8-2-1.2l-0.8-0.8l-1.9,0.9c-3.2,1.5-5.7,2.1-9.3,2.3 C360.8,143.9,359.9,144,359.5,143.9L359.5,143.9z M363.2,127c1.7-0.4,3.4-1.4,4.6-2.6c1.9-1.8,2.7-3.7,2.7-6.3 c0-8.4-10.9-12.3-16.8-6c-1.8,1.8-2.4,3.8-2.3,6.5c0.1,1.5,0.2,1.9,0.8,3.2C354.1,126,358.8,128.1,363.2,127z"></path> <path class="st0" d="M245.5,143.2c-1-0.2-2.9-1.1-3.7-1.9c-1.1-0.9-1.8-2-2.4-3.4l-0.5-1.1l-0.1-27.5c-0.1-30-0.1-29.1,1.1-31 c1.9-3,5.5-4.8,9-4.2c2.8,0.5,5.3,2.3,6.5,4.6l0.6,1.3l0.1,28.2c0.1,31.5,0.1,29.2-1.3,31.4c-0.8,1.2-2.3,2.4-3.8,3.1 c-0.8,0.3-1.5,0.4-3,0.5C246.9,143.2,245.8,143.2,245.5,143.2L245.5,143.2z"></path> <path class="st0" d="M272.1,143.2c-0.3,0-1.1-0.4-1.9-0.7c-1.8-0.8-3.2-2.2-4.1-4l-0.6-1.3v-19.4V98.5l0.7-1.3 c1.1-2.2,3.4-4,5.9-4.6c1.1-0.3,3.4-0.2,4.6,0.1c3,0.8,5.3,3.4,5.9,6.3c0.1,0.6,0.2,7.7,0.2,19.1c0,15.7,0,18.2-0.3,19.2 c-0.6,2.3-2.3,4.2-4.6,5.3c-1.4,0.7-1.6,0.7-3.4,0.7C273.5,143.2,272.4,143.2,272.1,143.2L272.1,143.2z"></path> <path class="st0" d="M305.8,143.1c-2.2-0.5-4.6-2.4-5.7-4.6l-0.6-1.3l-0.1-14l-0.1-14.1h-0.9c-1.9,0-4.2-0.8-5.8-2.1 c-1-0.8-2.2-2.6-2.6-3.8c-0.7-2.1-0.3-5,0.9-6.8c0.7-1.1,2.4-2.5,3.8-3.1c1-0.5,1.6-0.6,2.9-0.7l1.7-0.1v-5.2 c0-2.9,0.1-5.7,0.2-6.4c0.7-4.3,5.3-7.6,9.9-6.8c2.8,0.5,5.3,2.3,6.5,4.6l0.6,1.3l0.1,6.3l0.1,6.2h1.2c2.4,0,4.3,0.8,6.1,2.4 c1.9,1.8,2.7,3.9,2.5,6.5c-0.3,4.3-4.2,7.6-8.9,7.6h-0.8l-0.1,14.1l-0.1,14.1l-0.4,0.9c-1.6,3.3-4.5,5-8.1,5 C307.2,143.2,306.2,143.2,305.8,143.1z"></path> <path class="st0" d="M271.9,88.9c-2.2-0.5-4-1.8-5.3-3.7c-1-1.4-1.4-2.9-1.2-4.7c0.2-3,2-5.5,4.9-6.8c1.4-0.7,1.6-0.7,3.7-0.7 c2.1,0,2.2,0,3.7,0.7c1.9,0.9,3.3,2.3,4.2,4c0.6,1.2,0.6,1.4,0.6,3.3c0,2,0,2.1-0.7,3.3c-1.2,2.3-3.8,4.2-6.3,4.7 C274.1,89.2,273.2,89.2,271.9,88.9z"></path> </g> <g> <path class="st0" d="M28.7,143.8c-2-0.5-3.4-1.7-4.4-3.8c-1-1.9-1.3-3.7-1.3-7.3c0-7.9,3.2-18.3,8.1-26.5 c5.1-8.5,12.5-14.8,21.2-18.2c12.8-4.9,24.9-1.9,36.1,8.8c8.8,8.3,14.1,18.5,16,30.5c0.5,3,0.4,7.7-0.1,9.9 c-0.7,3.2-2.2,5.3-4.2,6.1c-1.1,0.5-3.4,0.6-5,0.3c-1.6-0.3-3-1-4.2-2.1c-1-0.9-1.4-1.4-4.7-6.2c-3-4.4-5.4-6.7-8.9-8.9 c-4.6-2.8-8.7-4.1-13.7-4.1c-4.1,0-6.6,0.5-10.4,2.3c-4.5,2.1-8.9,6.2-12.1,11.5c-2.5,4.1-4.1,5.8-6.2,6.9 C33.1,143.9,30.6,144.3,28.7,143.8L28.7,143.8z M68.1,112.8c3-0.9,5.3-2.5,6.3-4.6c0.8-1.6,0.8-3.5,0-5c-1.1-2.1-3.3-3.7-6.2-4.6 c-1.6-0.5-2-0.5-4.6-0.5c-2.6,0-3,0.1-4.4,0.5c-0.9,0.3-2,0.7-2.5,1c-1.5,0.8-3.1,2.4-3.7,3.7c-0.5,1-0.5,1.3-0.5,2.7 c0.1,1.8,0.5,2.6,1.8,4c1.5,1.5,4.3,2.9,6.8,3.3C63.1,113.5,66.5,113.3,68.1,112.8L68.1,112.8z"></path> <path class="st0" d="M23.5,98.6c-1.8-0.4-5-1.8-7.2-3.4c-4.4-3.1-7-7.4-7.8-12.9c-0.6-4,0.6-7.5,3.2-9.8c2.2-2,4.9-2.7,7.8-2.3 c5.2,0.8,9.6,3.9,12.6,8.9c3.2,5.2,3.9,11.2,1.8,15.3C32.2,97.6,27.8,99.4,23.5,98.6L23.5,98.6z"></path> <path class="st0" d="M97,98.1c-5.7-1.9-7.8-8.1-5.2-15.4c1.8-5,5.4-8.8,10.7-11.2c4.1-1.8,7.3-1.9,10.7-0.4 c3.6,1.7,5.3,4.8,5.1,9.5c-0.1,2.7-0.4,3.9-1.7,6.4C112.5,94.9,103.2,100.2,97,98.1L97,98.1z"></path> <path class="st0" d="M47.2,84.5c-6-1-12.1-7.5-13.9-14.7c-0.5-1.9-0.5-6.7,0-8.5c1.4-5.6,4.6-9.2,9-10.3c1.5-0.4,4-0.4,5.5,0 c2.9,0.7,6.2,3,8.4,5.7c4.2,5.3,5.7,13.5,3.6,19.6c-1.5,4.4-3.8,6.9-7.1,7.9C51.2,84.5,48.6,84.7,47.2,84.5z"></path> <path class="st0" d="M74.8,84.2c-1.7-0.4-3.6-1.5-4.8-2.6c-1.3-1.3-2.3-2.9-3.1-5.4c-2.2-7-1.3-13,2.8-18.9c3.2-4.5,7-6.7,11.6-6.7 c3.1,0,5.5,1.1,7.9,3.5c2.4,2.4,3.6,5.3,4.2,9.8c0.7,5.4-1.6,11.6-5.8,15.7C83.5,83.6,78.9,85.2,74.8,84.2L74.8,84.2z"></path> </g> </svg> 