<?xml version="1.0" encoding="UTF-8"?> <!-- Generator: Adobe Illustrator 24.0.0, SVG Export Plug-In . SVG Version: 6.00 Build 0) --> <svg xmlns="http://www.w3.org/2000/svg" xmlns:xlink="http://www.w3.org/1999/xlink" version="1.1" id="Layer_1" x="0px" y="0px" viewBox="0 0 400 200" style="enable-background:new 0 0 400 200;" xml:space="preserve"> <style type="text/css"> .st0{fill:#FFFFFF;} </style> <g> <path class="st0" d="M117.6,140.6c-3.2,0-5.8-1.1-7.9-3.3c-2.1-2.2-3.2-4.8-3.2-7.8c0-3.1,1.1-5.7,3.2-7.8c2.1-2.2,4.8-3.2,7.9-3.2 c3,0,5.5,1.1,7.7,3.2c2.2,2.2,3.2,4.8,3.2,7.8c0,3-1.1,5.6-3.2,7.8C123.1,139.5,120.6,140.6,117.6,140.6z"></path> <path class="st0" d="M173.9,141.2c-4.6,0-8.8-1.2-12.5-3.5c-3.7-2.4-6.3-5-7.7-8v3.2c0,1.7-1,3.3-2.9,4.8c-1.9,1.4-4.3,2.2-7.1,2.2 c-3.2,0-5.8-0.7-7.8-2.2c-2.1-1.4-3.1-3-3.1-4.8v-94c0-2,1-3.6,3.1-4.9c2.1-1.2,4.7-1.9,7.8-1.9s5.9,0.6,8.1,1.9 c2.2,1.2,3.3,2.9,3.3,4.9v42.5c1.5-2.8,3.9-5.3,7-7.6c3.1-2.3,6.9-3.4,11.3-3.4c4.7,0,9,1.4,12.8,4.1c3.8,2.7,6.9,6.4,9.2,10.9 c2.3,4.6,3.5,9.6,3.5,15.2v10.1c0,5.3-1.2,10.2-3.5,14.9c-2.3,4.7-5.4,8.4-9.1,11.3C182.6,139.8,178.4,141.2,173.9,141.2z M166.3,121.8c1.9,0,3.7-0.5,5.3-1.6c1.6-1.1,2.8-2.4,3.7-4.2c0.9-1.7,1.4-3.5,1.4-5.3v-10.1c0-1.8-0.5-3.6-1.4-5.2 c-0.9-1.6-2.2-3-3.7-4c-1.6-1.1-3.4-1.6-5.4-1.6c-1.7,0-3.4,0.4-5.1,1.3c-1.7,0.9-3.1,2.1-4.2,3.7c-1.1,1.6-1.7,3.5-1.7,5.8v12 c0,0.8,0.5,1.9,1.5,3.4c1,1.5,2.4,2.8,4,4C162.4,121.2,164.2,121.8,166.3,121.8z"></path> <path class="st0" d="M214.9,58c-3.3,0-6-1.1-8.4-3.2c-2.3-2.1-3.5-4.5-3.5-7.2c0-2.8,1.2-5.2,3.5-7.2s5.1-3,8.4-3c3.3,0,6,1,8.3,3 c2.3,2,3.4,4.4,3.4,7.2c0,2.7-1.1,5.1-3.4,7.2C221,56.9,218.2,58,214.9,58z M214.9,139.8c-3.3,0-5.9-0.7-8-2.2 c-2.1-1.4-3.1-3-3.1-4.8V78c0-2,1-3.6,3.1-4.9c2.1-1.2,4.7-1.9,8-1.9c3.1,0,5.7,0.6,7.9,1.9c2.2,1.2,3.3,2.9,3.3,4.9v54.9 c0,1.7-1.1,3.3-3.3,4.8C220.6,139,218,139.8,214.9,139.8z"></path> <path class="st0" d="M236.8,139.8c-2.7,0-4.6-0.8-5.7-2.5c-1.1-1.7-1.7-3.4-1.7-5.3c0-1.8,0.4-3.5,1.2-5c0.8-1.5,1.7-2.9,2.7-4.2 l25.5-33.6h-22c-1.7,0-3.2-0.9-4.5-2.7c-1.2-1.8-1.9-3.9-1.9-6.4c0-2.4,0.6-4.5,1.7-6.3c1.2-1.8,2.7-2.7,4.6-2.7h43.1 c1.8,0,3.4,0.6,4.8,1.8c1.4,1.2,2.1,3,2.1,5.5c0,3.3-1.2,6.5-3.6,9.6l-25.6,33.6H283c1.7,0,3.2,0.9,4.5,2.7 c1.2,1.8,1.9,3.9,1.9,6.4c0,2.4-0.6,4.5-1.7,6.3c-1.2,1.8-2.7,2.7-4.6,2.7H236.8z"></path> </g> </svg> 