<?xml version="1.0" encoding="UTF-8"?> <!-- Generator: Adobe Illustrator 24.0.0, SVG Export Plug-In . SVG Version: 6.00 Build 0) --> <svg xmlns="http://www.w3.org/2000/svg" xmlns:xlink="http://www.w3.org/1999/xlink" version="1.1" id="Layer_1" x="0px" y="0px" viewBox="0 0 400 200" style="enable-background:new 0 0 400 200;" xml:space="preserve"> <style type="text/css"> .st0{fill:#FFFFFF;} </style> <g> <path class="st0" d="M73.6,140.6c-3.2,0-5.8-1.1-7.9-3.3c-2.1-2.2-3.2-4.8-3.2-7.8c0-3.1,1.1-5.7,3.2-7.8c2.1-2.2,4.8-3.2,7.9-3.2 c3,0,5.5,1.1,7.7,3.2c2.2,2.2,3.2,4.8,3.2,7.8c0,3-1.1,5.6-3.2,7.8C79.1,139.5,76.6,140.6,73.6,140.6z"></path> <path class="st0" d="M118.9,141.2c-7.6,0-13.8-1.3-18.6-4c-4.8-2.7-8.4-6.3-10.7-10.9c-2.3-4.6-3.4-9.8-3.4-15.6v-9.8 c0-5.8,1.1-10.9,3.4-15.6c2.3-4.6,5.8-8.3,10.6-10.9c4.8-2.7,10.9-4,18.4-4c4.7,0,8.9,0.6,12.5,1.7c3.6,1.1,6.5,2.6,8.6,4.4 c2.1,1.8,3.2,3.8,3.2,5.9c0,1.3-0.4,2.9-1.1,4.6s-1.7,3.2-3,4.5c-1.3,1.2-2.8,1.9-4.5,1.9c-1.2,0-2.3-0.3-3.4-0.9 c-1.1-0.6-2.5-1.2-4.1-1.7c-1.6-0.6-3.7-0.9-6.3-0.9c-4.3,0-7.4,1-9.2,2.9c-1.8,1.9-2.7,4.7-2.7,8.2v9.8c0,3.6,0.9,6.3,2.7,8.2 c1.8,1.9,4.9,2.9,9.4,2.9c2.6,0,4.7-0.3,6.2-1c1.5-0.7,2.9-1.3,4-1.9c1.1-0.6,2.3-0.9,3.5-0.9c2,0,3.7,0.6,5.2,1.7 c1.4,1.2,2.5,2.6,3.2,4.2c0.7,1.7,1.1,3.2,1.1,4.7c0,2.1-1.1,4.2-3.3,6.1c-2.2,2-5.2,3.6-8.9,4.8S123.6,141.2,118.9,141.2z"></path> <path class="st0" d="M176.3,141.2c-5.9,0-11.3-1.4-16.2-4.2c-4.9-2.8-8.9-6.6-12-11.2c-3-4.7-4.5-9.7-4.5-15v-10.1 c0-5.4,1.5-10.4,4.4-15c2.9-4.6,6.9-8.3,11.9-11.1c5-2.8,10.5-4.2,16.4-4.2c5.9,0,11.3,1.4,16.3,4.1c5,2.7,9,6.4,12,10.9 c3,4.6,4.5,9.6,4.5,15.2v10.1c0,5.3-1.5,10.2-4.5,14.9c-3,4.7-7,8.4-12,11.3C187.5,139.8,182.1,141.2,176.3,141.2z M176.3,121.8 c1.9,0,3.7-0.5,5.3-1.6c1.6-1.1,2.9-2.4,3.8-4.1c1-1.7,1.4-3.5,1.4-5.4v-10.1c0-1.8-0.5-3.6-1.4-5.2c-1-1.6-2.2-3-3.8-4 c-1.6-1.1-3.3-1.6-5.3-1.6c-1.9,0-3.7,0.5-5.3,1.6c-1.6,1.1-2.8,2.4-3.7,4c-0.9,1.6-1.4,3.4-1.4,5.2v10.1c0,1.9,0.5,3.7,1.4,5.4 c0.9,1.7,2.2,3,3.7,4.1C172.6,121.2,174.3,121.8,176.3,121.8z"></path> <path class="st0" d="M224.9,139.8c-3.3,0-5.9-0.7-8-2.2c-2.1-1.4-3.1-3-3.1-4.8V78c0-2,1-3.6,3.1-4.9c2.1-1.2,4.7-1.9,8-1.9 c2.7,0,5,0.6,6.9,1.9c1.9,1.2,2.9,2.9,2.9,4.9v3.3c1.6-2.8,4-5.3,7.2-7.6c3.2-2.3,7.1-3.4,11.8-3.4c3.9,0,7.4,1.3,10.4,4 c3,2.7,5.2,6.1,6.6,10.4c2.5-4.9,5.7-8.5,9.6-10.9c3.9-2.4,7.9-3.5,12-3.5c4.5,0,8.8,1.2,12.7,3.5c4,2.4,7.2,5.8,9.7,10.3 c2.5,4.5,3.7,10,3.7,16.4v32.3c0,1.7-1.1,3.3-3.3,4.8c-2.2,1.4-4.8,2.2-7.9,2.2c-3,0-5.6-0.7-7.8-2.2c-2.2-1.4-3.3-3-3.3-4.8v-32.3 c0-2.4-0.5-4.4-1.4-6c-0.9-1.6-2.1-2.9-3.6-3.7c-1.5-0.8-3-1.2-4.7-1.2c-1.5,0-3,0.4-4.4,1.2c-1.4,0.8-2.5,2-3.5,3.6 c-0.9,1.6-1.4,3.6-1.4,6.1V133c0,2.4-1.2,4.1-3.5,5.2c-2.4,1.1-4.9,1.6-7.7,1.6c-2.6,0-5.1-0.5-7.5-1.6c-2.4-1.1-3.6-2.8-3.6-5.2 v-32.3c0-2.4-0.5-4.4-1.4-6c-1-1.6-2.2-2.9-3.7-3.7c-1.5-0.8-3-1.2-4.7-1.2c-1.5,0-3,0.4-4.4,1.2c-1.4,0.8-2.5,1.9-3.4,3.5 c-0.9,1.6-1.3,3.6-1.3,6.1v32.3c0,1.7-1.1,3.3-3.3,4.8C230.6,139,228,139.8,224.9,139.8z"></path> </g> </svg> 