<?xml version="1.0" encoding="UTF-8"?> <!-- Generator: Adobe Illustrator 24.0.0, SVG Export Plug-In . SVG Version: 6.00 Build 0) --> <svg xmlns="http://www.w3.org/2000/svg" xmlns:xlink="http://www.w3.org/1999/xlink" version="1.1" id="Layer_1" x="0px" y="0px" viewBox="0 0 400 200" style="enable-background:new 0 0 400 200;" xml:space="preserve"> <style type="text/css"> .st0{fill:#6C757D;} .st1{fill:#26515D;} </style> <path class="st0" d="M91.5,119.7c-11-1.3-19.2-5.2-23.9-11.5c-5.3-7.1-7.8-17.4-7.8-32.3c0-14.4,2.3-24.3,7.2-31.6 c3.1-4.6,12.2-13.6,17.7-17.5c4.4-3.1,9.8-4.9,17.7-5.7c4.5-0.5,28.8-0.7,33.5-0.3c12.7,1.1,21.3,5.1,26.3,12 c1.6,2.3,3.9,6.6,3.9,7.6c0,0.5-1.4,2.1-6,6.7c-3.3,3.3-6.2,6.1-6.5,6.2c-1.1,0.3-1.7-0.2-2.7-2.3c-4.1-8.6-10.5-13.1-21.7-14.9 c-6.8-1.1-32.1-1-40.9,0.2c-2.7,0.3-6.5,1.4-8.7,2.4c-1,0.4-1.9,2.7-3.3,7.8c-2.5,9.6-2.6,26.1-0.1,36.2 c3.6,15.1,11.9,21.5,29.3,22.7c4.2,0.3,27.8,0.2,31.5-0.1c4.7-0.4,7.5-1,11.4-2.5c2.1-0.8,2.2-0.9,2.7-2.1c0.4-0.9,1.8-2.6,6.3-7 c5-5,6-5.8,6.7-5.8c1,0,1.8,0.7,1.8,1.5c0,0.8-1,3-2.6,5.7c-3,5.2-12.8,15.2-18.3,18.7c-5.6,3.6-11.4,5.4-20.2,6 C120.2,120.1,94.6,120.1,91.5,119.7L91.5,119.7z"></path> <path class="st0" d="M259.8,119.1c-0.4-0.6-0.5-5-0.5-41.8c0-22.6,0.1-41.3,0.2-41.5c0.1-0.2,2.8-3,6.1-6.3c4.8-4.9,6-5.9,6.6-5.9 c0.4,0,1,0.2,1.3,0.5c0.5,0.5,0.5,3.7,0.5,40.7v40.2h33.9c37.5,0,35.2-0.1,35.2,1.8c0,0.8-0.7,1.6-6,6.9l-6,6h-35.5h-35.5 L259.8,119.1L259.8,119.1z"></path> <path class="st0" d="M68.2,175v-10.7H73c4.2,0,5,0.1,6.4,0.4c5,1.2,7.1,5,6.7,11.4c-0.4,5-2.6,8-6.7,9.1c-1.1,0.3-2.2,0.4-6.3,0.5 l-4.9,0.1V175z M77.9,184.2c1.9-0.4,3.3-1.1,4.3-2.2c1.6-1.7,2.2-3.4,2.4-6.9c0.2-3.7-0.5-6-2.3-7.6c-1.9-1.8-3.5-2.2-8.9-2.2h-3.9 v9.6v9.6H73C75.4,184.5,76.9,184.4,77.9,184.2z"></path> <path class="st0" d="M90.4,175v-10.7h7h7v0.6v0.6H98h-6.3v4.4v4.4h6h6v0.6v0.6h-6h-6v4.6v4.6h6.4h6.4v0.6v0.6h-7.1h-7.1V175z"></path> <path class="st0" d="M216.7,175v-10.7h4.7c5.1,0,6.8,0.2,8.6,1.1c2.1,1,3.7,3.1,4.4,5.8c0.5,2,0.3,6.4-0.3,8.1c-0.9,2.5-2,4-3.8,5 c-2,1.1-3.2,1.4-8.7,1.5l-4.9,0.1V175z M227.7,184c2.4-0.8,4.1-2.6,5-5.3c0.4-1.1,0.4-1.8,0.4-4.2c0-3.6-0.4-4.9-1.8-6.5 c-2-2.1-3.6-2.6-9.2-2.6h-4v9.4c0,5.2,0.1,9.5,0.2,9.6c0.1,0.1,1.9,0.1,4.1,0.1C225.8,184.4,226.6,184.3,227.7,184L227.7,184z"></path> <path class="st0" d="M238.9,175v-10.7h7h7v0.6v0.6h-6.3h-6.3v4.4v4.4h6h6v0.6v0.6h-6h-6v4.6v4.6h6.4h6.4v0.6v0.6H246h-7.1V175z"></path> <path class="st1" d="M790.2,73.1c0-32.5,0-45.9,0.1-29.6c0.1,16.3,0.1,42.9,0,59.2C790.3,119,790.2,105.6,790.2,73.1z"></path> <path class="st0" d="M91.5,119.7c-5.5-0.6-11.1-2.2-15-4.2c-9.5-4.8-14.6-14-16.2-29.5c-0.5-5.1-0.5-15.5,0-20.2 c1.7-14.8,4.4-20.4,14.3-30.2c5.3-5.3,10.1-9.3,13.2-10.8c6.7-3.3,11.6-4.1,28.2-4.4l10.4-0.2v7.5v7.5l-9.8-0.1 c-10.7-0.1-23.3,0.3-28.2,0.9c-2.7,0.3-6.5,1.4-8.7,2.4c-1,0.4-1.9,2.7-3.3,7.8c-1.3,4.9-1.9,10.9-1.9,18.5 c0,14.9,2.7,25.1,8.4,31.6c3.3,3.8,9,6.8,14.8,7.9c4.9,0.9,7.3,1.1,17.6,1.1c5.9,0,10.8,0.1,10.9,0.2c0.2,0.1,0.3,2.8,0.2,7.1 l-0.1,6.9l-2.8,0.2C119.5,120.1,94,120,91.5,119.7L91.5,119.7z"></path> <path class="st0" d="M259.8,119.1c-0.4-0.6-0.5-5-0.5-41.8c0-22.6,0.1-41.3,0.2-41.5c0.1-0.2,2.8-3,6.1-6.3c4.8-4.9,6-5.9,6.6-5.9 c0.4,0,1,0.2,1.3,0.5c0.5,0.5,0.5,3.7,0.5,40.7v40.2h19h19v7.3v7.3h-25.9h-25.9L259.8,119.1z"></path> <path class="st0" d="M68.8,168.7l-0.6-0.1v-2.2v-2.2H73c4.2,0,5,0.1,6.4,0.4c2.4,0.6,3.9,1.6,5.2,3.3l0.5,0.8l-0.9-0.1 c-0.7-0.1-1-0.2-1.5-0.8c-0.6-0.7-2.4-1.9-3.1-2c-0.2,0-0.9-0.2-1.4-0.3c-0.6-0.2-2.4-0.2-4.8-0.2h-3.8l-0.1,1.7l-0.1,1.7 L68.8,168.7L68.8,168.7z"></path> <path class="st0" d="M91,168.7l-0.6-0.1v-2.2v-2.2h7h7v0.5v0.5l-6.3,0l-6.3,0.1l-0.1,1.7l-0.1,1.7L91,168.7L91,168.7z"></path> <path class="st0" d="M239.5,168.7l-0.6-0.1v-2.2v-2.2h7h7v0.5v0.5l-6.3,0l-6.3,0.1l-0.1,1.7l-0.1,1.7L239.5,168.7L239.5,168.7z"></path> <path class="st0" d="M216.7,166.5v-2.2h4.7c5.3,0,6.9,0.2,8.8,1.2c1.2,0.6,3.2,2.5,3,2.8c-0.1,0.1,0,0.2,0.1,0.2 c0.1,0.1-0.2,0.1-0.6,0.1c-0.8,0-1-0.1-1.5-0.7c-0.8-0.9-2.3-1.9-3.1-2.1c-0.2,0-0.8-0.2-1.4-0.3c-0.6-0.2-2.4-0.2-4.8-0.2h-3.8 l-0.1,1.7l-0.1,1.7h-0.6h-0.7L216.7,166.5L216.7,166.5z"></path> <path class="st0" d="M175,119.5c-0.6-0.6-0.6-0.9-0.6-43.6V32.8l6.1-6.2l6.1-6.2h38.8c26.2,0,39,0.1,39.4,0.3 c0.4,0.2,0.5,0.6,0.5,1.4c0,1-0.4,1.4-5.9,7l-5.9,5.9l-32.2,0.1l-32.2,0.1l-0.1,13.9L189.1,63h21.7c24,0,22.9-0.1,22.9,1.8 c0,0.8-0.7,1.6-6,6.9l-6,6h-16.3h-16.3v15.2l0,15.2l-6.1,6C176.5,120.3,176.1,120.6,175,119.5L175,119.5z"></path> <path class="st0" d="M201.7,185.7c-0.9-0.1-2.4-0.3-3.2-0.5l-1.5-0.4l-0.1-1.7l-0.1-1.7l0.9,0.3c2.8,0.9,7.4,1.1,9,0.6 c0.9-0.3,1.7-0.9,2.1-1.5c0.4-0.7,0.3-2.5-0.2-3.1c-0.7-0.9-1-1-4.9-1.1c-3.2-0.1-3.7-0.2-4.6-0.5c-2.1-1-3-2.5-3-5.3 c0-1.4,0.1-1.9,0.4-2.7c1.1-2.5,3.4-3.6,7.8-3.9c2.2-0.1,4.1,0.1,6.6,0.6l1.4,0.3v1.7c0,1.3-0.1,1.7-0.2,1.6c-0.1,0-1-0.3-2-0.5 c-1.4-0.4-2.2-0.4-4.5-0.5c-2.6,0-2.8,0-3.8,0.5c-1.7,0.8-2.4,2.5-1.6,4c0.5,1,1.1,1.1,4,1.1c3.1,0,4.7,0.2,6.1,0.9 c1.9,0.9,2.7,2.5,2.7,5.2c0,3.3-1.6,5.3-4.8,6.1C206.3,185.7,203.9,185.9,201.7,185.7L201.7,185.7z"></path> <path class="st0" d="M279.7,185.7c-2.9-0.3-5.3-1.6-6.7-3.6c-2.5-3.5-2.8-10.1-0.6-13.9c0.6-1,2.1-2.4,3.2-2.9 c1.7-0.8,3.1-1.1,6-1.1c2.2,0,2.9,0.1,4.1,0.4c3.4,1,5.6,3.6,6.2,7.3c0.3,2.1,0.1,6.3-0.4,7.6c-1.1,3.1-2.6,4.6-5.4,5.5 c-1.1,0.3-4.1,0.8-4.8,0.8C281.1,185.8,280.5,185.8,279.7,185.7L279.7,185.7z M284.9,181.8c1.2-0.6,1.9-1.3,2.5-2.7 c0.7-1.5,0.9-3,0.8-5c-0.2-3.2-1.2-5.1-3.3-6.1c-1.2-0.6-1.4-0.6-3.3-0.6c-1.8,0-2.1,0.1-3.2,0.6c-1.4,0.7-2.3,1.6-2.9,3.2 c-0.4,0.9-0.4,1.4-0.4,3.7c0,2.3,0,2.8,0.4,3.8c0.6,1.5,1.8,2.7,3.2,3.3c1,0.4,1.4,0.5,3.2,0.4C283.6,182.3,284.1,182.3,284.9,181.8 L284.9,181.8z"></path> <path class="st0" d="M108.9,175v-10.7h7h7v1.6v1.6h-5.1h-5.1v2.8v2.8h4.9h4.9v1.7v1.7h-4.9h-4.9v4.6v4.6h-1.9h-1.9V175z"></path> <path class="st0" d="M126.5,175v-10.7h7.4h7.4v1.6v1.6h-5.4h-5.4v2.8v2.8h5.2h5.2v1.7v1.7h-5.2h-5.2v3v3h5.4h5.4l0.1,1.6l0.1,1.6 h-7.4h-7.4L126.5,175L126.5,175z"></path> <path class="st0" d="M156.2,182.8c-4.9-7-4.5-6.4-4.5-7.4l0.1-0.9l0.9-0.1c2.1-0.4,4.4-2.1,4.7-3.5c0.2-0.9,0-1.9-0.4-2.4 c-0.7-0.8-1.4-0.9-4.7-0.9h-3.2v9v9h-1.9h-1.9v-10.6v-10.6h5.6c6.1,0,7.2,0.1,8.6,1.1c2,1.4,2.6,5.2,1.1,7.6c-0.6,1-1.9,2.1-3.2,2.9 c-0.5,0.3-0.9,0.6-0.9,0.6s0.2,0.4,0.6,0.8c0.5,0.6,3.6,4.9,5.5,7.5l0.6,0.9h-2.4h-2.4L156.2,182.8L156.2,182.8z"></path> <path class="st0" d="M165.2,175v-10.7h1.9h1.9V175v10.7h-1.9h-1.9V175z"></path> <path class="st0" d="M172.3,184.7c0.2-0.6,0.9-2.1,1.5-3.4c1.7-4,3.8-9,4.4-10.3c0.3-0.7,1.1-2.5,1.7-4l1.1-2.7h2.1 c1.5,0,2.2,0.1,2.2,0.2c0.1,0.1,0.8,1.9,1.8,4.1c1.6,3.8,3.4,7.9,4.6,10.6c0.3,0.8,1,2.4,1.5,3.5c0.5,1.2,1,2.3,1.1,2.5 c0.2,0.4,0.2,0.4-1.9,0.4c-1.3,0-2.1-0.1-2.1-0.2c0-0.1-0.5-1.4-1.1-2.9l-1.1-2.7l-3.6-0.1c-3.3,0-3.6-0.1-3.5-0.4 c0.1-0.2,0.4-0.9,0.6-1.6l0.5-1.3h2.2c1.2,0,2.1-0.1,2.1-0.2c0-0.1-0.6-1.5-1.3-3.2c-0.7-1.7-1.4-3.4-1.6-3.9 c-0.2-0.5-0.4-0.9-0.5-0.9c-0.1,0-0.4,0.5-0.7,1.2c-0.3,0.7-1.4,3.5-2.5,6.3c-1.1,2.7-2.5,6.1-3,7.4l-1,2.4h-2h-2L172.3,184.7 L172.3,184.7z"></path> <path class="st0" d="M257.5,175v-10.7h2h1.9v9.1v9.1h4.2h4.2v1.6v1.6h-6.2h-6.2V175z"></path> <path class="st0" d="M294.2,184.1v-1.6l1-0.1c1.4-0.2,2.8-0.9,3.2-1.6c0.3-0.5,0.3-1.7,0.3-8.5v-7.9h1.9h1.9l-0.1,8.6l-0.1,8.5 l-0.6,1c-0.6,1.2-1.9,2.1-3.3,2.6c-0.7,0.2-3.4,0.7-4.3,0.7C294.3,185.7,294.2,185,294.2,184.1L294.2,184.1z"></path> <path class="st0" d="M305.9,184.6c0.6-1.5,2.5-6,3.1-7.3c0.4-1,0.8-1.8,2.3-5.3c0.4-0.8,1.2-2.9,1.9-4.6l1.3-3.1h2.1h2.1l0.7,1.7 c0.4,0.9,1.4,3.2,2.2,5c0.8,1.8,1.7,3.8,1.9,4.4c0.2,0.6,1.1,2.5,1.8,4.2c0.8,1.7,1.5,3.6,1.8,4.1c0.2,0.5,0.5,1.2,0.6,1.5l0.3,0.5 h-2.1h-2.1l-0.2-0.5c-0.1-0.3-0.6-1.6-1.2-3l-1-2.4h-3.6h-3.6l0.3-0.6c0.2-0.3,0.5-1.1,0.6-1.6l0.3-1l2.3-0.1c2,0,2.2-0.1,2.1-0.4 c-0.1-0.3-1.1-2.7-2.3-5.6c-0.4-0.9-0.7-1.8-0.8-1.9c-0.1-0.4-0.4-0.4-0.5-0.1c-0.1,0.1-0.8,2-1.7,4.2c-0.9,2.2-2.3,5.7-3.2,7.8 c-0.9,2.1-1.7,4.1-1.8,4.5l-0.2,0.6h-2h-2L305.9,184.6L305.9,184.6z"></path> <path class="st0" d="M77.7,155.9c-6-0.9-9.3-4.1-10.2-9.9c-0.5-3.6-0.1-6.7,1.1-9.3c1.3-2.8,3.9-4.6,7.5-5.4 c3.1-0.6,9.2-0.3,11.1,0.6c0.5,0.2,0.5,0.3,0.5,2.2v1.9l-1.4-0.5c-1.9-0.7-5-1-7.3-0.7c-2.3,0.3-3.8,0.9-5.1,2.3 c-1.2,1.2-1.5,1.9-1.9,3.6c-0.7,3.2,0,6.9,1.7,8.9c0.8,0.9,2.5,1.9,4.1,2.2c2.5,0.6,6.5,0.3,8.9-0.6l0.9-0.3v2c0,1.1-0.1,2-0.2,2.1 c-0.1,0.1-1,0.3-2,0.5C83.8,155.9,79.2,156.1,77.7,155.9z"></path> <path class="st0" d="M100.5,155.8c-5.9-1.3-9-5.5-9-12.6c0-6.8,3.1-10.9,9-11.9c6.6-1.1,12,0.9,14.1,5.1c1.2,2.4,1.7,6.3,1.2,9.8 c-0.6,5-2.9,7.9-7.1,9.2C106.7,156,102.5,156.2,100.5,155.8z M107.1,151.8c1.2-0.4,2.6-1.7,3.3-2.9c1.4-2.6,1.5-7.8,0.1-10.5 c-1.3-2.5-3.8-3.7-7.5-3.4c-4.6,0.3-6.9,3.2-6.9,8.6c0,2.9,0.6,5,1.9,6.4c1,1.1,1.7,1.5,3,1.9C102.4,152.3,105.7,152.2,107.1,151.8 L107.1,151.8z"></path> <path class="st0" d="M173.6,155.8c-3.5-0.8-5.5-2.1-7-4.5c-2.6-4.2-2.6-11.7-0.1-15.6c1.4-2.2,3.1-3.4,5.9-4.1 c2-0.6,6.5-0.6,8.6-0.1c3.8,0.9,6.2,3.1,7.4,6.8c0.5,1.5,0.5,1.8,0.5,5.3c0,3.5,0,3.7-0.5,5.3c-1.2,3.6-3.3,5.7-6.8,6.7 C179.7,156,175.4,156.2,173.6,155.8L173.6,155.8z M180.1,151.8c1.2-0.4,2.7-1.8,3.3-2.9c0.8-1.6,1.1-2.8,1.1-5.3 c0-4.3-1.2-6.7-3.9-8.1c-1.1-0.5-1.3-0.5-3.6-0.5c-2.3,0-2.6,0-3.6,0.5c-2,0.9-3.4,2.7-3.9,5.1c-0.3,1.5-0.3,4.9,0.1,6.2 c0.7,2.7,2.3,4.5,4.7,5.2C175.5,152.3,178.8,152.2,180.1,151.8L180.1,151.8z"></path> <path class="st0" d="M253.3,155.9c-7-1.1-10.4-5.3-10.4-12.7c0-6.4,3.1-10.6,8.7-11.8c2.2-0.4,6.9-0.4,9.1,0 c2.7,0.6,2.6,0.4,2.6,2.7v1.9l-1.4-0.5c-1.9-0.7-5-1-7.3-0.7c-3.4,0.4-5.5,1.9-6.6,4.6c-0.4,1-0.4,1.4-0.4,3.8c0,2.3,0,2.8,0.4,3.8 c1.4,3.6,4.1,5.1,8.6,5.1c1.9,0,4.4-0.4,5.8-1l0.9-0.3l-0.1,2l-0.1,2l-1.8,0.5c-1.4,0.3-2.5,0.5-4.7,0.5 C255.2,156,253.7,156,253.3,155.9z"></path> <path class="st0" d="M285.9,155.8c-4.8-1.1-7.2-3.4-8.5-8.1c-0.4-1.4-0.4-2.1-0.4-4.6c0-2.6,0.1-3.2,0.5-4.5c0.9-2.8,2.6-5,4.8-6.1 c3.5-1.8,9.7-1.8,13.3-0.2c2.6,1.2,4,2.8,5.1,5.8c0.6,1.8,0.6,1.9,0.6,5.3c0,3.9-0.2,4.9-1.3,7.2c-1.1,2.4-3.2,4-6.1,4.8 C292.1,156,287.8,156.2,285.9,155.8L285.9,155.8z M291.8,151.9c1.4-0.4,2.9-1.4,3.6-2.4c1-1.5,1.3-2.6,1.4-5c0.2-5-0.9-7.5-3.9-9 c-1.1-0.5-1.3-0.6-3.6-0.6c-2.3,0-2.6,0.1-3.6,0.5c-2.9,1.3-4.2,3.8-4.2,8.1c0,3.9,1.1,6.3,3.4,7.7 C286.6,152.2,289.5,152.5,291.8,151.9z"></path> <path class="st0" d="M120.6,143.5v-12.3h6.3c6.8,0,8.2,0.2,9.7,1.1c1.5,0.9,2.2,2,2.6,4.2c0.4,2.3-0.2,4.2-1.7,5.8 c-0.8,0.9-2.2,1.9-3.2,2.4c-0.4,0.2-0.8,0.4-0.8,0.5c0,0.1,2.7,3.9,6.4,8.9c0.5,0.7,1.1,1.5,1.1,1.6c0.1,0.2-0.5,0.2-2.6,0.2h-2.8 l-1.2-1.8c-0.7-1-2.4-3.4-3.7-5.4c-2.4-3.5-2.5-3.7-2.5-4.6v-1l1.4-0.3c1.9-0.5,2.9-1,4-2c1.1-1.1,1.5-2.4,1.1-3.7 c-0.5-1.8-1.1-2-5.8-2H125v10.4v10.4h-2.2h-2.2L120.6,143.5L120.6,143.5z"></path> <path class="st0" d="M143.5,143.5v-12.3h6.1c3.6,0,6.6,0.1,7.3,0.2c3.1,0.5,4.8,2.3,5.2,5.4c0.3,2.9-0.5,5.4-2.4,7.2 c-1.6,1.5-4.7,2.8-6.7,2.9l-1.1,0.1l-0.1-0.9c-0.1-0.5-0.2-1.3-0.3-1.9c-0.1-0.9-0.1-1,0.2-1c0.2,0,1-0.3,1.9-0.6c2.7-1,4-2.4,4-4.5 c0-1.3-0.5-2.2-1.5-2.8c-0.6-0.3-1.2-0.3-4.2-0.3h-3.6v10.4v10.4h-2.3h-2.3V143.5z"></path> <path class="st0" d="M193.6,143.5v-12.3h6.2c3.7,0,6.7,0.1,7.4,0.2c2.3,0.4,3.8,1.5,4.6,3.3c0.3,0.8,0.4,1.3,0.4,2.8 c0,1.6-0.1,1.9-0.5,2.9c-0.8,1.8-2.2,3.1-5.1,4.7c-0.3,0.2-0.3,0.3,0.3,1.1c0.7,0.9,6.7,9.1,6.9,9.5c0.1,0.2-0.5,0.2-2.6,0.2h-2.8 l-2.7-3.8c-1.5-2.1-3.2-4.5-3.8-5.4c-1-1.4-1.1-1.6-1.1-2.5v-1l1-0.2c3.7-0.8,5.9-2.9,5.6-5.3c-0.1-1.1-0.6-1.8-1.5-2.2 c-0.6-0.3-1.2-0.3-4.3-0.3h-3.7v10.4v10.4h-2.3h-2.3V143.5z"></path> <path class="st0" d="M214.6,155.7c0-0.1,0.2-0.6,3.1-7.4c3.8-9,5.2-12.2,6.7-15.9l0.5-1.1l2.5-0.1c2.2,0,2.5,0,2.6,0.3 c0.1,0.2,1,2.4,2.1,5c1.1,2.6,2.6,5.9,3.2,7.4c2.4,5.6,2.8,6.6,4.3,10c0.4,1,0.8,1.8,0.8,1.9c0,0-1.1,0.1-2.4,0.1h-2.4l-0.5-1.3 c-0.3-0.7-0.9-2.2-1.4-3.3l-0.9-2.1h-4.1c-2.3,0-4.1-0.1-4.1-0.1c0-0.1,0.3-0.9,0.7-1.9l0.7-1.7l2.5-0.1c1.4,0,2.5-0.1,2.5-0.2 s-0.5-1.3-1.1-2.6c-0.6-1.4-1.4-3.4-1.9-4.5c-0.4-1.1-0.9-2.1-1-2.1c-0.1-0.1-0.5,0.6-0.9,1.6c-0.4,1-1.2,3-1.8,4.4 c-2.1,5.1-3.6,8.8-4,9.9c-0.2,0.6-0.7,1.8-1,2.5l-0.6,1.3l-2.2,0.1C215.6,155.8,214.6,155.8,214.6,155.7L214.6,155.7z"></path> <path class="st0" d="M268,143.5v-12.3h2.2h2.2v12.3v12.3h-2.2H268V143.5z"></path> <path class="st0" d="M306,143.5v-12.3h2.3h2.2l6.5,9c3.6,5,6.6,9,6.6,9c0.1,0,0.2-4,0.2-9v-9h2.1h2.1v12.3v12.3h-2.3h-2.3l-6.5-9.2 c-3.6-5-6.6-9.2-6.6-9.2c-0.1,0-0.2,4.1-0.2,9.2v9.2h-2.1H306V143.5z"></path> <path class="st0" d="M175,119.5c-0.6-0.6-0.6-0.9-0.6-43.6V32.8l6.1-6.2l6.1-6.2h12.3h12.3v7.3v7.3l-11,0.1l-11,0.1l-0.1,13.9 L189.1,63h7.3c4,0,9,0.1,11.2,0.2l3.9,0.2l-0.1,7.1l-0.1,7.2h-11.1h-11.1v15.2l0,15.2l-6.1,6C176.5,120.3,176.1,120.6,175,119.5 L175,119.5z"></path> <path class="st0" d="M204.8,164.1c0.3,0,0.9,0,1.2,0c0.3,0,0.1,0.1-0.6,0.1C204.8,164.2,204.5,164.2,204.8,164.1z"></path> <path class="st0" d="M281.1,164.1c0.3,0,0.9,0,1.1,0c0.3,0,0,0.1-0.6,0.1S280.8,164.2,281.1,164.1z"></path> <path class="st0" d="M289.4,128.5v-1.3h4.1h4.1v1.3v1.3h-4.1h-4.1V128.5z"></path> </svg> 