<?xml version="1.0" encoding="utf-8"?>
<!-- Generator: Adobe Illustrator 27.0.0, SVG Export Plug-In . SVG Version: 6.00 Build 0)  -->
<svg version="1.1" id="Capa_1" xmlns="http://www.w3.org/2000/svg" xmlns:xlink="http://www.w3.org/1999/xlink" x="0px" y="0px"
	 viewBox="0 0 24 24" style="enable-background:new 0 0 24 24;" xml:space="preserve">
<style type="text/css">
	.st0{fill:none;stroke:#FFFFFF;stroke-width:2;stroke-linecap:round;stroke-linejoin:round;}
</style>
<path class="st0" d="M5,6c0-0.6,0.4-1,1-1h12c0.6,0,1,0.4,1,1v12c0,0.6-0.4,1-1,1H6c-0.6,0-1-0.4-1-1V6z"/>
<path class="st0" d="M9,9h6v6H9V9z"/>
<path class="st0" d="M3,10h2"/>
<path class="st0" d="M3,14h2"/>
<path class="st0" d="M10,3v2"/>
<path class="st0" d="M14,3v2"/>
<path class="st0" d="M21,10h-2"/>
<path class="st0" d="M21,14h-2"/>
<path class="st0" d="M14,21v-2"/>
<path class="st0" d="M10,21v-2"/>
</svg>
