<svg xmlns="http://www.w3.org/2000/svg" xmlns:xlink="http://www.w3.org/1999/xlink" viewBox="0 0 1251 864"><defs><style>.cls-1{isolation:isolate;}.cls-2{opacity:0.07;fill:url(#Degradado_sin_nombre_26);}.cls-3{mix-blend-mode:multiply;opacity:0.17;fill:url(#Degradado_sin_nombre_66);}.cls-4{fill:#fff;}.cls-11,.cls-12,.cls-16,.cls-5,.cls-9{opacity:0.5;}.cls-5{fill:url(#Degradado_sin_nombre_66-2);}.cls-6{fill:#29485a;}.cls-13,.cls-14,.cls-15,.cls-7{opacity:0.53;}.cls-7{fill:url(#Degradado_sin_nombre_26-2);}.cls-8{fill:#1a1a1a;}.cls-9{fill:url(#Degradado_sin_nombre_47);}.cls-10{fill:#ccc;}.cls-11{fill:url(#Degradado_sin_nombre_66-3);}.cls-12{fill:url(#Degradado_sin_nombre_66-4);}.cls-13{fill:url(#Degradado_sin_nombre_26-3);}.cls-14{fill:url(#Degradado_sin_nombre_26-4);}.cls-15{fill:url(#Degradado_sin_nombre_26-5);}.cls-16{fill:url(#Degradado_sin_nombre_47-2);}.cls-17{fill:#b3b3b3;}.cls-18{fill:#303030;}</style><linearGradient id="Degradado_sin_nombre_26" x1="-2842.13" y1="835.17" x2="-2842.13" y2="833.66" gradientTransform="matrix(709.12, 0, 0, -501.68, 2016047.03, 419016.51)" gradientUnits="userSpaceOnUse"><stop offset="0" stop-color="#1a65bc"/><stop offset="0.3" stop-color="#0f76d2"/><stop offset="0.69" stop-color="#0488e9"/><stop offset="0.94" stop-color="#008ff2"/></linearGradient><linearGradient id="Degradado_sin_nombre_66" x1="-613.92" y1="-511.65" x2="29.44" y2="-511.65" gradientTransform="translate(486.71 724.89) rotate(90)" gradientUnits="userSpaceOnUse"><stop offset="0" stop-color="#ff5a00"/><stop offset="1" stop-color="#ffbe00"/></linearGradient><linearGradient id="Degradado_sin_nombre_66-2" x1="143.89" y1="215.66" x2="463.75" y2="215.66" gradientTransform="matrix(1, 0, 0, 1, 0, 0)" xlink:href="#Degradado_sin_nombre_66"/><linearGradient id="Degradado_sin_nombre_26-2" x1="744.73" y1="602.75" x2="1039.81" y2="602.75" gradientTransform="matrix(1, 0, 0, 1, 0, 0)" xlink:href="#Degradado_sin_nombre_26"/><linearGradient id="Degradado_sin_nombre_47" x1="883.63" y1="425.88" x2="903.79" y2="425.88" gradientUnits="userSpaceOnUse"><stop offset="0" stop-color="#d109c8"/><stop offset="1" stop-color="#f40019"/></linearGradient><linearGradient id="Degradado_sin_nombre_66-3" x1="453.71" y1="411.3" x2="519.24" y2="411.3" gradientTransform="matrix(1, 0, 0, 1, 0, 0)" xlink:href="#Degradado_sin_nombre_66"/><linearGradient id="Degradado_sin_nombre_66-4" x1="714.94" y1="142.52" x2="834.45" y2="142.52" gradientTransform="matrix(1, 0, 0, 1, 0, 0)" xlink:href="#Degradado_sin_nombre_66"/><linearGradient id="Degradado_sin_nombre_26-3" x1="567.87" y1="300.24" x2="600.69" y2="300.24" gradientTransform="matrix(1, 0, 0, 1, 0, 0)" xlink:href="#Degradado_sin_nombre_26"/><linearGradient id="Degradado_sin_nombre_26-4" x1="554.81" y1="358.18" x2="587.64" y2="358.18" gradientTransform="matrix(1, 0, 0, 1, 0, 0)" xlink:href="#Degradado_sin_nombre_26"/><linearGradient id="Degradado_sin_nombre_26-5" x1="557.9" y1="439.49" x2="590.73" y2="439.49" gradientTransform="matrix(1, 0, 0, 1, 0, 0)" xlink:href="#Degradado_sin_nombre_26"/><linearGradient id="Degradado_sin_nombre_47-2" x1="149.32" y1="650.39" x2="259.39" y2="650.39" xlink:href="#Degradado_sin_nombre_47"/></defs><g class="cls-1"><g id="Capa_1" data-name="Capa 1"><path id="Trazado_509" data-name="Trazado 509" class="cls-2" d="M177.69,785.68S45.21,645.82,129.58,481.35s197.58-81.7,192.17-273.16S582.25.37,666.87,55.92,759,147.24,933.7,125.17s256,140.9,198.58,254C1065.2,511.21,1269.53,520,1116,782Z"/><path class="cls-3" d="M1118.06,123.44a6.24,6.24,0,1,1,6.23-6.24A6.24,6.24,0,0,1,1118.06,123.44Zm6.23,22.44a6.24,6.24,0,1,0-6.23,6.23A6.23,6.23,0,0,0,1124.29,145.88Zm0,28.68a6.24,6.24,0,1,0-6.23,6.23A6.23,6.23,0,0,0,1124.29,174.56Zm0,28.67a6.24,6.24,0,1,0-6.23,6.24A6.23,6.23,0,0,0,1124.29,203.23Zm0,28.68a6.24,6.24,0,1,0-6.23,6.24A6.23,6.23,0,0,0,1124.29,231.91Zm0,28.68a6.24,6.24,0,1,0-6.23,6.23A6.24,6.24,0,0,0,1124.29,260.59Zm0,28.68a6.24,6.24,0,1,0-6.23,6.23A6.23,6.23,0,0,0,1124.29,289.27Zm0,28.67a6.24,6.24,0,1,0-6.23,6.24A6.23,6.23,0,0,0,1124.29,317.94Zm0,28.68a6.24,6.24,0,1,0-6.23,6.23A6.23,6.23,0,0,0,1124.29,346.62Zm0,28.68a6.24,6.24,0,1,0-6.23,6.23A6.23,6.23,0,0,0,1124.29,375.3Zm0,28.67a6.24,6.24,0,1,0-6.23,6.24A6.23,6.23,0,0,0,1124.29,404Zm0,28.68a6.24,6.24,0,1,0-6.23,6.24A6.23,6.23,0,0,0,1124.29,432.65Zm0,28.68a6.24,6.24,0,1,0-6.23,6.23A6.24,6.24,0,0,0,1124.29,461.33Zm0,28.68a6.24,6.24,0,1,0-6.23,6.23A6.23,6.23,0,0,0,1124.29,490Zm0,28.67a6.24,6.24,0,1,0-6.23,6.24A6.23,6.23,0,0,0,1124.29,518.68Zm0,28.68a6.24,6.24,0,1,0-6.23,6.23A6.23,6.23,0,0,0,1124.29,547.36Zm0,28.68a6.24,6.24,0,1,0-6.23,6.23A6.23,6.23,0,0,0,1124.29,576Zm0,28.67a6.24,6.24,0,1,0-6.23,6.24A6.23,6.23,0,0,0,1124.29,604.71Zm0,28.68a6.24,6.24,0,1,0-6.23,6.24A6.23,6.23,0,0,0,1124.29,633.39Zm0,28.68a6.24,6.24,0,1,0-6.23,6.23A6.24,6.24,0,0,0,1124.29,662.07Zm0,28.68a6.24,6.24,0,1,0-6.23,6.23A6.23,6.23,0,0,0,1124.29,690.75Zm0,28.67a6.24,6.24,0,1,0-6.23,6.24A6.23,6.23,0,0,0,1124.29,719.42Zm0,28.68a6.24,6.24,0,1,0-6.23,6.23A6.23,6.23,0,0,0,1124.29,748.1Zm-29.92-630.9a6.24,6.24,0,1,0-6.24,6.24A6.24,6.24,0,0,0,1094.37,117.2Zm0,28.68a6.24,6.24,0,1,0-6.24,6.23A6.24,6.24,0,0,0,1094.37,145.88Zm0,28.68a6.24,6.24,0,1,0-6.24,6.23A6.24,6.24,0,0,0,1094.37,174.56Zm0,28.67a6.24,6.24,0,1,0-6.24,6.24A6.24,6.24,0,0,0,1094.37,203.23Zm0,28.68a6.24,6.24,0,1,0-6.24,6.24A6.24,6.24,0,0,0,1094.37,231.91Zm0,28.68a6.24,6.24,0,1,0-6.24,6.23A6.25,6.25,0,0,0,1094.37,260.59Zm0,28.68a6.24,6.24,0,1,0-6.24,6.23A6.24,6.24,0,0,0,1094.37,289.27Zm0,28.67a6.24,6.24,0,1,0-6.24,6.24A6.24,6.24,0,0,0,1094.37,317.94Zm0,28.68a6.24,6.24,0,1,0-6.24,6.23A6.24,6.24,0,0,0,1094.37,346.62Zm0,28.68a6.24,6.24,0,1,0-6.24,6.23A6.24,6.24,0,0,0,1094.37,375.3Zm0,28.67a6.24,6.24,0,1,0-6.24,6.24A6.24,6.24,0,0,0,1094.37,404Zm0,28.68a6.24,6.24,0,1,0-6.24,6.24A6.24,6.24,0,0,0,1094.37,432.65Zm0,28.68a6.24,6.24,0,1,0-6.24,6.23A6.25,6.25,0,0,0,1094.37,461.33Zm0,28.68a6.24,6.24,0,1,0-6.24,6.23A6.24,6.24,0,0,0,1094.37,490Zm0,28.67a6.24,6.24,0,1,0-6.24,6.24A6.24,6.24,0,0,0,1094.37,518.68Zm0,28.68a6.24,6.24,0,1,0-6.24,6.23A6.24,6.24,0,0,0,1094.37,547.36Zm0,28.68a6.24,6.24,0,1,0-6.24,6.23A6.24,6.24,0,0,0,1094.37,576Zm0,28.67a6.24,6.24,0,1,0-6.24,6.24A6.24,6.24,0,0,0,1094.37,604.71Zm0,28.68a6.24,6.24,0,1,0-6.24,6.24A6.24,6.24,0,0,0,1094.37,633.39Zm0,28.68a6.24,6.24,0,1,0-6.24,6.23A6.25,6.25,0,0,0,1094.37,662.07Zm0,28.68a6.24,6.24,0,1,0-6.24,6.23A6.24,6.24,0,0,0,1094.37,690.75Zm0,28.67a6.24,6.24,0,1,0-6.24,6.24A6.24,6.24,0,0,0,1094.37,719.42Zm0,28.68a6.24,6.24,0,1,0-6.24,6.23A6.24,6.24,0,0,0,1094.37,748.1Zm-29.93-630.9a6.24,6.24,0,1,0-6.23,6.24A6.23,6.23,0,0,0,1064.44,117.2Zm0,28.68a6.24,6.24,0,1,0-6.23,6.23A6.23,6.23,0,0,0,1064.44,145.88Zm0,28.68a6.24,6.24,0,1,0-6.23,6.23A6.23,6.23,0,0,0,1064.44,174.56Zm0,28.67a6.24,6.24,0,1,0-6.23,6.24A6.23,6.23,0,0,0,1064.44,203.23Zm0,28.68a6.24,6.24,0,1,0-6.23,6.24A6.23,6.23,0,0,0,1064.44,231.91Zm0,28.68a6.24,6.24,0,1,0-6.23,6.23A6.24,6.24,0,0,0,1064.44,260.59Zm0,28.68a6.24,6.24,0,1,0-6.23,6.23A6.23,6.23,0,0,0,1064.44,289.27Zm0,28.67a6.24,6.24,0,1,0-6.23,6.24A6.23,6.23,0,0,0,1064.44,317.94Zm0,28.68a6.24,6.24,0,1,0-6.23,6.23A6.23,6.23,0,0,0,1064.44,346.62Zm0,28.68a6.24,6.24,0,1,0-6.23,6.23A6.23,6.23,0,0,0,1064.44,375.3Zm0,28.67a6.24,6.24,0,1,0-6.23,6.24A6.23,6.23,0,0,0,1064.44,404Zm0,28.68a6.24,6.24,0,1,0-6.23,6.24A6.23,6.23,0,0,0,1064.44,432.65Zm0,28.68a6.24,6.24,0,1,0-6.23,6.23A6.24,6.24,0,0,0,1064.44,461.33Zm0,28.68a6.24,6.24,0,1,0-6.23,6.23A6.23,6.23,0,0,0,1064.44,490Zm0,28.67a6.24,6.24,0,1,0-6.23,6.24A6.23,6.23,0,0,0,1064.44,518.68Zm0,28.68a6.24,6.24,0,1,0-6.23,6.23A6.23,6.23,0,0,0,1064.44,547.36Zm0,28.68a6.24,6.24,0,1,0-6.23,6.23A6.23,6.23,0,0,0,1064.44,576Zm0,28.67a6.24,6.24,0,1,0-6.23,6.24A6.23,6.23,0,0,0,1064.44,604.71Zm0,28.68a6.24,6.24,0,1,0-6.23,6.24A6.23,6.23,0,0,0,1064.44,633.39Zm0,28.68a6.24,6.24,0,1,0-6.23,6.23A6.24,6.24,0,0,0,1064.44,662.07Zm0,28.68a6.24,6.24,0,1,0-6.23,6.23A6.23,6.23,0,0,0,1064.44,690.75Zm0,28.67a6.24,6.24,0,1,0-6.23,6.24A6.23,6.23,0,0,0,1064.44,719.42Zm0,28.68a6.24,6.24,0,1,0-6.23,6.23A6.23,6.23,0,0,0,1064.44,748.1Zm-29.92-630.9a6.24,6.24,0,1,0-6.24,6.24A6.23,6.23,0,0,0,1034.52,117.2Zm0,28.68a6.24,6.24,0,1,0-6.24,6.23A6.23,6.23,0,0,0,1034.52,145.88Zm0,28.68a6.24,6.24,0,1,0-6.24,6.23A6.24,6.24,0,0,0,1034.52,174.56Zm0,28.67a6.24,6.24,0,1,0-6.24,6.24A6.23,6.23,0,0,0,1034.52,203.23Zm0,28.68a6.24,6.24,0,1,0-6.24,6.24A6.23,6.23,0,0,0,1034.52,231.91Zm0,28.68a6.24,6.24,0,1,0-6.24,6.23A6.24,6.24,0,0,0,1034.52,260.59Zm0,28.68a6.24,6.24,0,1,0-6.24,6.23A6.24,6.24,0,0,0,1034.52,289.27Zm0,28.67a6.24,6.24,0,1,0-6.24,6.24A6.23,6.23,0,0,0,1034.52,317.94Zm0,28.68a6.24,6.24,0,1,0-6.24,6.23A6.23,6.23,0,0,0,1034.52,346.62Zm0,28.68a6.24,6.24,0,1,0-6.24,6.23A6.24,6.24,0,0,0,1034.52,375.3Zm0,28.67a6.24,6.24,0,1,0-6.24,6.24A6.23,6.23,0,0,0,1034.52,404Zm0,28.68a6.24,6.24,0,1,0-6.24,6.24A6.23,6.23,0,0,0,1034.52,432.65Zm0,28.68a6.24,6.24,0,1,0-6.24,6.23A6.24,6.24,0,0,0,1034.52,461.33Zm0,28.68a6.24,6.24,0,1,0-6.24,6.23A6.24,6.24,0,0,0,1034.52,490Zm0,28.67a6.24,6.24,0,1,0-6.24,6.24A6.23,6.23,0,0,0,1034.52,518.68Zm0,28.68a6.24,6.24,0,1,0-6.24,6.23A6.23,6.23,0,0,0,1034.52,547.36Zm0,28.68a6.24,6.24,0,1,0-6.24,6.23A6.24,6.24,0,0,0,1034.52,576Zm0,28.67a6.24,6.24,0,1,0-6.24,6.24A6.23,6.23,0,0,0,1034.52,604.71Zm0,28.68a6.24,6.24,0,1,0-6.24,6.24A6.23,6.23,0,0,0,1034.52,633.39Zm0,28.68a6.24,6.24,0,1,0-6.24,6.23A6.24,6.24,0,0,0,1034.52,662.07Zm0,28.68a6.24,6.24,0,1,0-6.24,6.23A6.24,6.24,0,0,0,1034.52,690.75Zm0,28.67a6.24,6.24,0,1,0-6.24,6.24A6.23,6.23,0,0,0,1034.52,719.42Zm0,28.68a6.24,6.24,0,1,0-6.24,6.23A6.23,6.23,0,0,0,1034.52,748.1Zm-29.93-630.9a6.23,6.23,0,1,0-6.23,6.24A6.23,6.23,0,0,0,1004.59,117.2Zm0,28.68a6.23,6.23,0,1,0-6.23,6.23A6.23,6.23,0,0,0,1004.59,145.88Zm0,28.68a6.23,6.23,0,1,0-6.23,6.23A6.23,6.23,0,0,0,1004.59,174.56Zm0,28.67a6.23,6.23,0,1,0-6.23,6.24A6.23,6.23,0,0,0,1004.59,203.23Zm0,28.68a6.23,6.23,0,1,0-6.23,6.24A6.23,6.23,0,0,0,1004.59,231.91Zm0,28.68a6.23,6.23,0,1,0-6.23,6.23A6.24,6.24,0,0,0,1004.59,260.59Zm0,28.68a6.23,6.23,0,1,0-6.23,6.23A6.23,6.23,0,0,0,1004.59,289.27Zm0,28.67a6.23,6.23,0,1,0-6.23,6.24A6.23,6.23,0,0,0,1004.59,317.94Zm0,28.68a6.23,6.23,0,1,0-6.23,6.23A6.23,6.23,0,0,0,1004.59,346.62Zm0,28.68a6.23,6.23,0,1,0-6.23,6.23A6.23,6.23,0,0,0,1004.59,375.3Zm0,28.67a6.23,6.23,0,1,0-6.23,6.24A6.23,6.23,0,0,0,1004.59,404Zm0,28.68a6.23,6.23,0,1,0-6.23,6.24A6.23,6.23,0,0,0,1004.59,432.65Zm0,28.68a6.23,6.23,0,1,0-6.23,6.23A6.24,6.24,0,0,0,1004.59,461.33Zm0,28.68a6.23,6.23,0,1,0-6.23,6.23A6.23,6.23,0,0,0,1004.59,490Zm0,28.67a6.23,6.23,0,1,0-6.23,6.24A6.23,6.23,0,0,0,1004.59,518.68Zm0,28.68a6.23,6.23,0,1,0-6.23,6.23A6.23,6.23,0,0,0,1004.59,547.36Zm0,28.68a6.23,6.23,0,1,0-6.23,6.23A6.23,6.23,0,0,0,1004.59,576Zm0,28.67a6.23,6.23,0,1,0-6.23,6.24A6.23,6.23,0,0,0,1004.59,604.71Zm0,28.68a6.23,6.23,0,1,0-6.23,6.24A6.23,6.23,0,0,0,1004.59,633.39Zm0,28.68a6.23,6.23,0,1,0-6.23,6.23A6.24,6.24,0,0,0,1004.59,662.07Zm0,28.68a6.23,6.23,0,1,0-6.23,6.23A6.23,6.23,0,0,0,1004.59,690.75Zm0,28.67a6.23,6.23,0,1,0-6.23,6.24A6.23,6.23,0,0,0,1004.59,719.42Zm0,28.68a6.23,6.23,0,1,0-6.23,6.23A6.23,6.23,0,0,0,1004.59,748.1ZM974.67,117.2a6.24,6.24,0,1,0-6.23,6.24A6.23,6.23,0,0,0,974.67,117.2Zm0,28.68a6.24,6.24,0,1,0-6.23,6.23A6.23,6.23,0,0,0,974.67,145.88Zm0,28.68a6.24,6.24,0,1,0-6.23,6.23A6.23,6.23,0,0,0,974.67,174.56Zm0,28.67a6.24,6.24,0,1,0-6.23,6.24A6.23,6.23,0,0,0,974.67,203.23Zm0,28.68a6.24,6.24,0,1,0-6.23,6.24A6.23,6.23,0,0,0,974.67,231.91Zm0,28.68a6.24,6.24,0,1,0-6.23,6.23A6.24,6.24,0,0,0,974.67,260.59Zm0,28.68a6.24,6.24,0,1,0-6.23,6.23A6.23,6.23,0,0,0,974.67,289.27Zm0,28.67a6.24,6.24,0,1,0-6.23,6.24A6.23,6.23,0,0,0,974.67,317.94Zm0,28.68a6.24,6.24,0,1,0-6.23,6.23A6.23,6.23,0,0,0,974.67,346.62Zm0,28.68a6.24,6.24,0,1,0-6.23,6.23A6.23,6.23,0,0,0,974.67,375.3Zm0,28.67a6.24,6.24,0,1,0-6.23,6.24A6.23,6.23,0,0,0,974.67,404Zm0,28.68a6.24,6.24,0,1,0-6.23,6.24A6.23,6.23,0,0,0,974.67,432.65Zm0,28.68a6.24,6.24,0,1,0-6.23,6.23A6.24,6.24,0,0,0,974.67,461.33Zm0,28.68a6.24,6.24,0,1,0-6.23,6.23A6.23,6.23,0,0,0,974.67,490Zm0,28.67a6.24,6.24,0,1,0-6.23,6.24A6.23,6.23,0,0,0,974.67,518.68Zm0,28.68a6.24,6.24,0,1,0-6.23,6.23A6.23,6.23,0,0,0,974.67,547.36Zm0,28.68a6.24,6.24,0,1,0-6.23,6.23A6.23,6.23,0,0,0,974.67,576Zm0,28.67a6.24,6.24,0,1,0-6.23,6.24A6.23,6.23,0,0,0,974.67,604.71Zm0,28.68a6.24,6.24,0,1,0-6.23,6.24A6.23,6.23,0,0,0,974.67,633.39Zm0,28.68a6.24,6.24,0,1,0-6.23,6.23A6.24,6.24,0,0,0,974.67,662.07Zm0,28.68a6.24,6.24,0,1,0-6.23,6.23A6.23,6.23,0,0,0,974.67,690.75Zm0,28.67a6.24,6.24,0,1,0-6.23,6.24A6.23,6.23,0,0,0,974.67,719.42Zm0,28.68a6.24,6.24,0,1,0-6.23,6.23A6.23,6.23,0,0,0,974.67,748.1ZM944.75,117.2a6.24,6.24,0,1,0-6.24,6.24A6.24,6.24,0,0,0,944.75,117.2Zm0,28.68a6.24,6.24,0,1,0-6.24,6.23A6.24,6.24,0,0,0,944.75,145.88Zm0,28.68a6.24,6.24,0,1,0-6.24,6.23A6.24,6.24,0,0,0,944.75,174.56Zm0,28.67a6.24,6.24,0,1,0-6.24,6.24A6.24,6.24,0,0,0,944.75,203.23Zm0,28.68a6.24,6.24,0,1,0-6.24,6.24A6.24,6.24,0,0,0,944.75,231.91Zm0,28.68a6.24,6.24,0,1,0-6.24,6.23A6.25,6.25,0,0,0,944.75,260.59Zm0,28.68a6.24,6.24,0,1,0-6.24,6.23A6.24,6.24,0,0,0,944.75,289.27Zm0,28.67a6.24,6.24,0,1,0-6.24,6.24A6.24,6.24,0,0,0,944.75,317.94Zm0,28.68a6.24,6.24,0,1,0-6.24,6.23A6.24,6.24,0,0,0,944.75,346.62Zm0,28.68a6.24,6.24,0,1,0-6.24,6.23A6.24,6.24,0,0,0,944.75,375.3Zm0,28.67a6.24,6.24,0,1,0-6.24,6.24A6.24,6.24,0,0,0,944.75,404Zm0,28.68a6.24,6.24,0,1,0-6.24,6.24A6.24,6.24,0,0,0,944.75,432.65Zm0,28.68a6.24,6.24,0,1,0-6.24,6.23A6.25,6.25,0,0,0,944.75,461.33Zm0,28.68a6.24,6.24,0,1,0-6.24,6.23A6.24,6.24,0,0,0,944.75,490Zm0,28.67a6.24,6.24,0,1,0-6.24,6.24A6.24,6.24,0,0,0,944.75,518.68Zm0,28.68a6.24,6.24,0,1,0-6.24,6.23A6.24,6.24,0,0,0,944.75,547.36Zm0,28.68a6.24,6.24,0,1,0-6.24,6.23A6.24,6.24,0,0,0,944.75,576Zm0,28.67a6.24,6.24,0,1,0-6.24,6.24A6.24,6.24,0,0,0,944.75,604.71Zm0,28.68a6.24,6.24,0,1,0-6.24,6.24A6.24,6.24,0,0,0,944.75,633.39Zm0,28.68a6.24,6.24,0,1,0-6.24,6.23A6.25,6.25,0,0,0,944.75,662.07Zm0,28.68a6.24,6.24,0,1,0-6.24,6.23A6.24,6.24,0,0,0,944.75,690.75Zm0,28.67a6.24,6.24,0,1,0-6.24,6.24A6.24,6.24,0,0,0,944.75,719.42Zm0,28.68a6.24,6.24,0,1,0-6.24,6.23A6.24,6.24,0,0,0,944.75,748.1ZM914.82,117.2a6.24,6.24,0,1,0-6.23,6.24A6.23,6.23,0,0,0,914.82,117.2Zm0,28.68a6.24,6.24,0,1,0-6.23,6.23A6.23,6.23,0,0,0,914.82,145.88Zm0,28.68a6.24,6.24,0,1,0-6.23,6.23A6.23,6.23,0,0,0,914.82,174.56Zm0,28.67a6.24,6.24,0,1,0-6.23,6.24A6.23,6.23,0,0,0,914.82,203.23Zm0,28.68a6.24,6.24,0,1,0-6.23,6.24A6.23,6.23,0,0,0,914.82,231.91Zm0,28.68a6.24,6.24,0,1,0-6.23,6.23A6.24,6.24,0,0,0,914.82,260.59Zm0,28.68a6.24,6.24,0,1,0-6.23,6.23A6.23,6.23,0,0,0,914.82,289.27Zm0,28.67a6.24,6.24,0,1,0-6.23,6.24A6.23,6.23,0,0,0,914.82,317.94Zm0,28.68a6.24,6.24,0,1,0-6.23,6.23A6.23,6.23,0,0,0,914.82,346.62Zm0,28.68a6.24,6.24,0,1,0-6.23,6.23A6.23,6.23,0,0,0,914.82,375.3Zm0,28.67a6.24,6.24,0,1,0-6.23,6.24A6.23,6.23,0,0,0,914.82,404Zm0,28.68a6.24,6.24,0,1,0-6.23,6.24A6.23,6.23,0,0,0,914.82,432.65Zm0,28.68a6.24,6.24,0,1,0-6.23,6.23A6.24,6.24,0,0,0,914.82,461.33Zm0,28.68a6.24,6.24,0,1,0-6.23,6.23A6.23,6.23,0,0,0,914.82,490Zm0,28.67a6.24,6.24,0,1,0-6.23,6.24A6.23,6.23,0,0,0,914.82,518.68Zm0,28.68a6.24,6.24,0,1,0-6.23,6.23A6.23,6.23,0,0,0,914.82,547.36Zm0,28.68a6.24,6.24,0,1,0-6.23,6.23A6.23,6.23,0,0,0,914.82,576Zm0,28.67a6.24,6.24,0,1,0-6.23,6.24A6.23,6.23,0,0,0,914.82,604.71Zm0,28.68a6.24,6.24,0,1,0-6.23,6.24A6.23,6.23,0,0,0,914.82,633.39Zm0,28.68a6.24,6.24,0,1,0-6.23,6.23A6.24,6.24,0,0,0,914.82,662.07Zm0,28.68a6.24,6.24,0,1,0-6.23,6.23A6.23,6.23,0,0,0,914.82,690.75Zm0,28.67a6.24,6.24,0,1,0-6.23,6.24A6.23,6.23,0,0,0,914.82,719.42Zm0,28.68a6.24,6.24,0,1,0-6.23,6.23A6.23,6.23,0,0,0,914.82,748.1ZM884.9,117.2a6.24,6.24,0,1,0-6.24,6.24A6.23,6.23,0,0,0,884.9,117.2Zm0,28.68a6.24,6.24,0,1,0-6.24,6.23A6.23,6.23,0,0,0,884.9,145.88Zm0,28.68a6.24,6.24,0,1,0-6.24,6.23A6.24,6.24,0,0,0,884.9,174.56Zm0,28.67a6.24,6.24,0,1,0-6.24,6.24A6.23,6.23,0,0,0,884.9,203.23Zm0,28.68a6.24,6.24,0,1,0-6.24,6.24A6.23,6.23,0,0,0,884.9,231.91Zm0,28.68a6.24,6.24,0,1,0-6.24,6.23A6.24,6.24,0,0,0,884.9,260.59Zm0,28.68a6.24,6.24,0,1,0-6.24,6.23A6.24,6.24,0,0,0,884.9,289.27Zm0,28.67a6.24,6.24,0,1,0-6.24,6.24A6.23,6.23,0,0,0,884.9,317.94Zm0,28.68a6.24,6.24,0,1,0-6.24,6.23A6.23,6.23,0,0,0,884.9,346.62Zm0,28.68a6.24,6.24,0,1,0-6.24,6.23A6.24,6.24,0,0,0,884.9,375.3Zm0,28.67a6.24,6.24,0,1,0-6.24,6.24A6.23,6.23,0,0,0,884.9,404Zm0,28.68a6.24,6.24,0,1,0-6.24,6.24A6.23,6.23,0,0,0,884.9,432.65Zm0,28.68a6.24,6.24,0,1,0-6.24,6.23A6.24,6.24,0,0,0,884.9,461.33Zm0,28.68a6.24,6.24,0,1,0-6.24,6.23A6.24,6.24,0,0,0,884.9,490Zm0,28.67a6.24,6.24,0,1,0-6.24,6.24A6.23,6.23,0,0,0,884.9,518.68Zm0,28.68a6.24,6.24,0,1,0-6.24,6.23A6.23,6.23,0,0,0,884.9,547.36Zm0,28.68a6.24,6.24,0,1,0-6.24,6.23A6.24,6.24,0,0,0,884.9,576Zm0,28.67a6.24,6.24,0,1,0-6.24,6.24A6.23,6.23,0,0,0,884.9,604.71Zm0,28.68a6.24,6.24,0,1,0-6.24,6.24A6.23,6.23,0,0,0,884.9,633.39Zm0,28.68a6.24,6.24,0,1,0-6.24,6.23A6.24,6.24,0,0,0,884.9,662.07Zm0,28.68a6.24,6.24,0,1,0-6.24,6.23A6.24,6.24,0,0,0,884.9,690.75Zm0,28.67a6.24,6.24,0,1,0-6.24,6.24A6.23,6.23,0,0,0,884.9,719.42Zm0,28.68a6.24,6.24,0,1,0-6.24,6.23A6.23,6.23,0,0,0,884.9,748.1Z"/><rect class="cls-4" x="259.39" y="220.02" width="682.61" height="473.04" rx="5.52"/><rect class="cls-5" x="143.89" y="87.95" width="319.86" height="255.42" rx="5.52"/><path class="cls-6" d="M838,702.33c-.68-5.68-2.58-9.45-5.3-9.74s-75.5,0-75.5,0a21.09,21.09,0,0,0,3.42-21.19l-38.79-101c-4-10.42-15.69-17.49-28.91-17.49H545.72c-20.52,0-35.12,16.5-28.91,32.67l11.45,29.82,16.47,42.9,10.87,28.31c2.61,6.8,8.52,12.16,16,15.08-.08,0,2.09,9.16,6.89,8.56h255.6A7.7,7.7,0,0,0,838,702.33Z"/><path class="cls-7" d="M852.19,450.41s-26.42,3.8-43.15,19.47-26.78,28.64-36.44,55.17-4.39,28-14.76,49.72-13.11,27-13.11,27l24.84,67.33s2.54,18.81-6.12,23.31l6.7.67s18.38-15.94,24.78-28.84S806.52,637,806.52,637a286.14,286.14,0,0,1-1.28,29c-1.45,12.77-4.88,22.52-11.48,26.53l36.1.47s6.76-.9,8.18,5.55-4,10.86-4,10.86l18.12.76s27.21,9.11,54.88,10.92,38.07-7.44,38.07-7.44l7.54,44.36s28.23,3.45,49.32-1.14a273.34,273.34,0,0,0,37.81-11.19s-24-115-26.32-125.13S999,559.49,996.2,549.53s-8.15-30.13-20.68-52.22-22.2-31.66-31.34-36.26-31.34-16.25-54.92-14.72S852.19,450.41,852.19,450.41Z"/><path class="cls-4" d="M889.26,446.33l-7.11-33.12s9.68.11,12.69-7-2.71-15-8.06-15.72a26.1,26.1,0,0,0-8.79.08L874.32,375c-.85,0-1.63,4.66-1.63,4.66l-32.44,1.08-2-8.47L832,380.55l-7.3.59L828,414.55s3.44,26.46,14.11,26.3,10-.75,10-.75l2.89,13.59s-5.83,30.93,8.48,30,21.68-20.31,23-25.22S889.26,446.33,889.26,446.33Z"/><path class="cls-4" d="M980.71,759.51v4.9S967.62,784.64,965,788.64s-1.64,11.3,4,12.86,11.72-6,15-10.11,8.05-9.46,12.88-9,18.32,1.1,33,7,16.79,8.86,23.24,9a11.39,11.39,0,0,0,10.07-4.76s4.33,1.81,9.81-2.39,1.39-8.25,1.39-8.25,2.89-1.43,1.5-5.51-7.07-6.59-13.68-9.91-15.76-4.26-21.67-8.13a121.71,121.71,0,0,1-11.54-8.83,206.79,206.79,0,0,1-24.14,5.8A209.25,209.25,0,0,1,980.71,759.51Z"/><path class="cls-8" d="M951.14,465.54S947.07,451,936,441.18,904.73,430,904.73,430s-10.18,9.53-16.38,9.29l1.44,7a84,84,0,0,1,27.93,4C931.7,455,951.14,465.54,951.14,465.54Z"/><path class="cls-8" d="M883.63,420.12s12-3.86,17.09-15.72,5-22.5,2.39-33.62-7.42-21.24-17.41-23.27a47.65,47.65,0,0,0-19.29.41,34.3,34.3,0,0,0-22.27-3.09c-12.49,2.58-26.53,12-26.23,36.86l13.53-1,6.55-8.91,1.4,8.7,33.3-.82s2.16-11.86,2.16-11.43-.71,14.32,3.14,22.31c0,0,13-4,16.22,5.81s-2.62,17.4-12.06,16.83,0-.56,0-.56Z"/><path class="cls-9" d="M895.67,412.26s5.87,6,7.57,11.09.1,11.61-14,16.14c-1.47,0-5.63-19.37-5.63-19.37S893,417.36,895.67,412.26Z"/><path class="cls-10" d="M1007.74,596.3s-26.93,7.09-22,36.11,27.86,33.89,37,30.6Z"/><path class="cls-4" d="M633.91,627.79c4.6,8,4.08,16.88-1.16,19.91s-13.22-1-17.82-8.94-4.08-16.88,1.16-19.91S629.31,619.83,633.91,627.79Z"/><path class="cls-8" d="M609.63,710.23S575,731.16,574.09,780h229a235.53,235.53,0,0,0,52.44,6.64c29.23.37,48.33-2,62.71-6.34s22.14-8.9,26.92-19.07a50,50,0,0,0,4.73-19.56l-4.73-28s-17.27,10.26-45.5,6.53-45.85-10.6-45.85-10.6Z"/><path class="cls-8" d="M307,709s-24.2-8.52-22-30.23,14.77-39.58,28.32-53.25,42.2-41.11,70.37-50.78c0,0-3.75,31.77-10,53.85s-14.13,53.8-31.49,71.12S307,709,307,709Z"/><path class="cls-8" d="M283.57,602.67,245.23,428.31s-30.67,45.46-32.17,91.44S245.22,598.06,283.57,602.67Z"/><path class="cls-8" d="M201.58,377H467a27.31,27.31,0,0,0,27.23-27.22V298.58l-49-25c-11.92-6.12-32.07-7.6-44.76-3.29l-36.72,12.46c-12.69,4.31-32.5,2.22-44-4.64l-39.36-23.45s-39.23-28.13-69.7,3.34c-21.68,22.39-36.31,37.15-36.31,37.15v54.61A27.3,27.3,0,0,0,201.58,377Z"/><path class="cls-4" d="M418.57,222a28.16,28.16,0,1,1,28.15-28.15A28.16,28.16,0,0,1,418.57,222Z"/><path class="cls-11" d="M512.11,395.48l-53.36-33a3.3,3.3,0,0,0-5,3l3.07,62.68a3.3,3.3,0,0,0,5,2.68l14.43-8.51a3.31,3.31,0,0,1,4.52,1.17l21,35.58a3.3,3.3,0,0,0,4.52,1.16l11.42-6.73a3.3,3.3,0,0,0,1.16-4.52l-21-35.57a3.3,3.3,0,0,1,1.17-4.52l13.07-7.71A3.3,3.3,0,0,0,512.11,395.48Z"/><rect class="cls-12" x="714.94" y="100.82" width="119.5" height="83.39" rx="2.84"/><path class="cls-4" d="M805.85,106.31c-2.65-4.54-7-4.54-9.64,0L775.84,141.2c-2.66,4.54-.52,8.25,4.73,8.25H821.5c5.26,0,7.39-3.71,4.74-8.25Z"/><path class="cls-13" d="M600.69,300.24a16.41,16.41,0,1,1-16.41-16.42A16.41,16.41,0,0,1,600.69,300.24Z"/><path class="cls-14" d="M587.64,358.18a16.42,16.42,0,1,1-16.42-16.42A16.42,16.42,0,0,1,587.64,358.18Z"/><path class="cls-15" d="M590.73,439.49a16.42,16.42,0,1,1-16.41-16.41A16.41,16.41,0,0,1,590.73,439.49Z"/><path class="cls-16" d="M245.37,703.83s15.36-8.34,13.92-28.68-14.19-33-38.9-51.78S149.32,590,149.32,590s7.75,25.34,11.43,35.78,21.48,55.15,38.52,71S232,715.11,245.37,703.83Z"/><path class="cls-4" d="M844.49,361.66c7.11-13.3,9.59-15.51,20.8-13.74,1.12,0-8.68-5.66-21.15-3.09s-26.53,12-26.23,36.86l13.53-1,6.55-8.91,1.4,8.7,5.38-.13C843.75,378.24,841.19,367.82,844.49,361.66Z"/><path class="cls-8" d="M440.7,378.81H201.58a28.39,28.39,0,0,1-28.36-28.36V148.75a28.39,28.39,0,0,1,28.36-28.35H467a28.39,28.39,0,0,1,28.36,28.35v201.7a28.34,28.34,0,0,1-3.71,14c.26-5,1.44-9.48,1.44-14V148.75A26.12,26.12,0,0,0,467,122.66H201.58a26.12,26.12,0,0,0-26.09,26.09v201.7a26.12,26.12,0,0,0,26.09,26.1H440.7C441.83,378.31,441.32,378.81,440.7,378.81Z"/><path class="cls-8" d="M968.14,782.1H915.85c0-2.26,52.29-2.26,52.29-2.26C969.27,781.59,968.76,782.1,968.14,782.1Z"/><path class="cls-8" d="M805.21,782.1H174.36c0-2.26,630.85-2.26,630.85-2.26C806.35,781.59,805.84,782.1,805.21,782.1Z"/><path class="cls-8" d="M1135,782.1h-59.13c0-2.26,59.13-2.26,59.13-2.26C1136.17,781.59,1135.67,782.1,1135,782.1Z"/><path class="cls-8" d="M844.88,442.31a11.83,11.83,0,0,1-4-.66,14,14,0,0,1-6.27-4.9c-6.51-8.62-7.53-19.43-8.52-29.88l-.26-2.73c-.63-6.39-1.34-22.51-1.35-22.68,2.27.07,3,16.12,3.61,22.45l.26,2.75c1,10.13,1.94,20.61,8.07,28.72a11.85,11.85,0,0,0,5.22,4.14c2.9,1,5.86.37,9-.35.82-.19,1.63-.37,2.44-.52a99.44,99.44,0,0,0,11.87-3c-3.33,3.45-7.42,4.51-11.45,5.27-.78.15-1.57.32-2.36.51A28.59,28.59,0,0,1,844.88,442.31Z"/><path class="cls-8" d="M856,390.49c-.91,0-1.47.42-1.36,3.69.13,3.65,1.14,4.18,1.94,4.05s1.5-1.33,1.16-3.91S857.22,390.55,856,390.49Z"/><path class="cls-8" d="M831.91,392.5c-.91-.07-1.49.36-1.49,3.64,0,3.65,1,4.21,1.8,4.11s1.54-1.28,1.3-3.87S833.11,392.59,831.91,392.5Z"/><path class="cls-8" d="M826.22,387.92c.66-3.53,2.7-4.91,7.35-4.26-4.11,1.68-5.47,2.75-6.52,3.89A1.14,1.14,0,0,1,826.22,387.92Z"/><path class="cls-8" d="M883.49,414.34a12.71,12.71,0,0,1-4.6-.85c2.61-1.43,4.58-1.23,6.5-1.58a10.69,10.69,0,1,0-9.32-18.2c.28-3.43,2.61-4.62,5.17-5.08a13,13,0,1,1,2.25,25.71Z"/><path class="cls-8" d="M887.74,407.34c-.4-.07-9.81-3.69-9.81-3.69-.5-1.74,6.07-10.51,6.07-10.51,1.81,1.37-3.86,8.93-3.86,8.93l8,3.08C888.63,407.07,888.2,407.34,887.74,407.34Z"/><path class="cls-8" d="M863.78,484.8a8.81,8.81,0,0,1-4.27-1c-4.64-2.53-6-9-6.31-10.88a41.46,41.46,0,0,1-.08-9.57q.11-1.45.18-2.94c0-.18.25-5.52.25-5.52l-2.48-14.57c2.24-.39,4.73,14.43,4.73,14.43,0,.25-.23,5.64-.23,5.77-.05,1-.12,2-.19,3a39.08,39.08,0,0,0,.07,9c.26,1.66,1.42,7.21,5.15,9.25a8.09,8.09,0,0,0,6.49.15c13.47-4.85,18.88-22.13,21-35.77-1,20.78-8.79,33.76-20.28,37.9A12.24,12.24,0,0,1,863.78,484.8Z"/><path class="cls-8" d="M849.17,422.86a14.27,14.27,0,0,1-2.2-.18c3-1.84,5-2.25,6.43-3.49,2.38-2.08,2.34-5.81,2.34-5.85,2.27.15,2.32,4.79-.85,7.56A8.41,8.41,0,0,1,849.17,422.86Z"/><path class="cls-8" d="M889.26,447.46c-1.11-.88-8.22-33-8.22-33,2.21-.49,9.32,31.62,9.32,31.62C889.42,447.46,889.34,447.46,889.26,447.46Z"/><path class="cls-8" d="M837.62,415.68c-2.25-3.05-4.94-8.95-3.18-11.15,1.07-1.37,4.1-1.11,6.49-.64l-.88-14.35c2.27-.14,3.24,15.71,3.24,15.71-3.87.56-6.58.34-7.11.73-.5.63.68,4.57,2.45,8C838,415.64,837.79,415.68,837.62,415.68Z"/><path class="cls-8" d="M971.38,803a9.56,9.56,0,0,1-9.16-6.79c-1-4,1.24-7.41,3.23-10.46.44-.67.86-1.32,1.24-2a71.47,71.47,0,0,1,4.53-6.34c3.38-4.44,7.22-9.47,8.52-13.7l.31-4.34c2.26.18,1.9,4.76,1.9,4.76-1.46,4.87-5.43,10.06-8.93,14.65a73.78,73.78,0,0,0-4.38,6.12c-.39.67-.83,1.35-1.29,2-1.82,2.79-3.7,5.68-2.93,8.65a7.32,7.32,0,0,0,8.48,4.92,11,11,0,0,0,5.28-3.43,49.68,49.68,0,0,0,4.08-5.18c1-1.44,2.08-2.91,3.25-4.28,2.94-3.44,6.66-6.88,12.41-6.4,11.9,1,21.77,3.05,30.2,6.17a78,78,0,0,1,8.4,3.94c7.67,4,15.59,8.07,23.25,4.57a4.21,4.21,0,0,0,2-1.5c.7-1.16.2-2.78-.44-3.8-2.22-3.55-5.91-6.08-9.49-8.52a83,83,0,0,0-13.17-7.42,80.64,80.64,0,0,0-15-5.51c6.05-.92,11.43,1.37,16,3.44a84.07,84.07,0,0,1,12.61,7c4.48,3.07,8.55,5.85,11,9.8,1,1.65,1.69,4.14.46,6.18a6.33,6.33,0,0,1-3,2.4c-8.65,4-17.46-.6-25.24-4.63a73.88,73.88,0,0,0-8.15-3.82c-8.23-3-17.92-5-29.61-6-4.63-.47-7.79,2.45-10.47,5.6-1.12,1.3-2.15,2.74-3.15,4.12a49.5,49.5,0,0,1-4.28,5.43,13.14,13.14,0,0,1-6.39,4.07A8.9,8.9,0,0,1,971.38,803Z"/><path class="cls-8" d="M1066.13,794.79a11,11,0,0,1-2.31-.22c.73-2.18,7.38-.87,10.22-6.52a3.84,3.84,0,0,0-.06-3.49c-3-6.58-19.75-15.07-40.84-20.66,18.92,2.66,39.12,11.33,42.91,19.73a6.09,6.09,0,0,1,0,5.44C1073.79,793.61,1069.37,794.79,1066.13,794.79Z"/><path class="cls-8" d="M973.12,760.53a137.52,137.52,0,0,1-20.63-1.35c-18-99.65-40.27-240.81-40.5-242.23,2.46,1.06,24.67,141.45,41.67,240.12,6,.83,45.33,5.53,84.87-12-2.52-12.8-31.46-159-49.25-215.28-2-6.5-20.75-52.64-43-66.21-6.21-3.78-28.66-16.13-57-16.13,28.92-2.26,51.84,10.32,58.17,14.18,22.88,13.94,41.93,60.87,44,67.47,18.55,58.74,49.17,214.85,49.48,216.42C1015.16,758.11,990,760.53,973.12,760.53Z"/><path class="cls-8" d="M1074.61,784.46c-.71-2,.44-3.19.11-5.11-.41-2.36-3-6.14-13-10.74a113.39,113.39,0,0,0-12.9-4.79c-8.65-2.8-16.12-5.21-20.78-12.59,6.14,5.47,12.9,7.66,21.48,10.43a114.49,114.49,0,0,1,13.15,4.89c8.79,4,13.59,8.25,14.26,12.48a5.94,5.94,0,0,1-1.58,5.13A1.15,1.15,0,0,1,1074.61,784.46Z"/><path class="cls-8" d="M655.14,782.1c-.61-21,1.64-41.05,14.49-52.88,12.07-11.1,25.38-17.4,41.91-19.82-15.73,4.59-28.66,10.71-40.37,21.49-12.23,11.26-14.39,30.73-14.9,50.11A1.13,1.13,0,0,1,655.14,782.1Z"/><path class="cls-8" d="M858.78,787.78c-68.79,0-88.64-21.42-89.47-22.37,1.89-1.27,23,21.24,95.39,20.05,73.54-1.29,81.22-19,84-43.91-.7,26.31-8.62,44.85-84,46.17Q861.71,787.78,858.78,787.78Z"/><path class="cls-8" d="M884.2,421.25c16.51-8.11,23.74-29.9,16.83-54-2.45-8.53-6.77-14.4-12.85-17.47-9.88-5-21.25-.83-21.37-.79-2-.53-28.92-12.17-42.77,10.63-6.09,10-5.59,18.2-5.2,20.87l13.38-1.08,4.85-8.73c2.11.36,3.57,9,3.57,9l31.08-1.05,1.85-11c2.26.32,2.86,17.14,5.44,22.48-3.45-1.92-4.3-7.6-4.8-12.62l-.4,2.42c-1.08.94-34.09,2-34.09,2-1.15-.94-2.23-7.32-2.23-7.32L833.91,381c-.9.58-15.9,1.78-15.9,1.78-1.3-1.25-3.87-11.26,4.09-24.38,13.9-22.89,40.63-13.2,44.35-11.73,2.29-.77,13-3.87,22.73,1,6.68,3.36,11.4,9.72,14,18.88,7.25,25.31-.58,48.26-18.63,54.58A1,1,0,0,1,884.2,421.25Z"/><path class="cls-8" d="M864.18,389c-6.64-7.83-13-3.8-13.28-3.62-1.16-1.95,7.13-7.3,14.17,1.79C864.67,388.88,864.42,389,864.18,389Z"/><path class="cls-8" d="M1022.79,663.37c-16.85,3.48-33-8.81-36.81-27.3s5.06-36.3,21.92-39.77Z"/><path class="cls-8" d="M1017,665.1c-15.09,0-28.6-11.66-32.13-28.8A39,39,0,0,1,988.19,610a28.38,28.38,0,0,1,19.48-14.83c-7.24,3.8-13.61,8.66-17.48,15.9a36.84,36.84,0,0,0-3.09,24.75c3.74,18.15,19.32,29.72,35.47,26.42C1021,664.9,1019,665.1,1017,665.1Z"/><path class="cls-8" d="M762.7,694.2c5.74-7.4,7.82-19.87,5.24-26.62l-38.79-101c-3.85-10-15-16.76-27.85-16.76H554.07c-6.8,0-18.19,4.41-23.05,7.45,3.88-5.1,15.85-9.72,23.05-9.72H701.3c13.74,0,25.78,7.32,30,18.22l38.79,101c2.91,7.58.64,21.1-6.64,27.17A1.1,1.1,0,0,1,762.7,694.2Z"/><path class="cls-8" d="M731.74,705.2H584.51c-13.75,0-25.79-7.31-30-18.21l-10.87-28.3c2.12-.81,13,27.49,13,27.49,3.84,10,15,16.76,27.85,16.76H731.74c10.68,0,20.19-4.57,25.45-12.22a19.93,19.93,0,0,0,2.4-18.91l-38.79-101C717,560.76,705.76,554,693,554H545.72c-10.68,0-20.2,4.57-25.46,12.23a20,20,0,0,0-2.39,18.91L529.32,615c-2.12.81-13.57-29-13.57-29a22.12,22.12,0,0,1,2.64-21c5.69-8.28,15.9-13.22,27.33-13.22H693c13.74,0,25.78,7.32,30,18.23l38.79,101a22.14,22.14,0,0,1-2.64,21C753.38,700.27,743.16,705.2,731.74,705.2Z"/><path class="cls-8" d="M634,643.25a12.86,12.86,0,0,1-5.74-1.48,24.34,24.34,0,0,1-12.4-21.48c.24-4.14,2-7.35,4.84-9s6.51-1.57,10.22.31a24.29,24.29,0,0,1,12.4,21.47c-.24,4.15-2,7.36-4.84,9A8.84,8.84,0,0,1,634,643.25Zm-8.81-30.86a6.69,6.69,0,0,0-3.36.85c-2.19,1.28-3.51,3.82-3.71,7.19a22.13,22.13,0,0,0,11.15,19.31c3,1.52,5.88,1.65,8.08.38s3.51-3.82,3.71-7.18a22.06,22.06,0,0,0-11.16-19.31A10.52,10.52,0,0,0,625.18,612.39Z"/><path class="cls-8" d="M830.73,711.41H579.47c-4.86,0-8.49-4.61-8.49-8.75,2.35,3,5,6.4,8.49,6.4H830.73a5.89,5.89,0,0,0,6.13-5.6v-3.62a5.89,5.89,0,0,0-6.13-5.6H757.19c0-2.36,73.54-2.36,73.54-2.36a8.25,8.25,0,0,1,8.49,8v3.62A8.24,8.24,0,0,1,830.73,711.41Z"/><path class="cls-8" d="M574.09,781.14c-1-48.79,36.3-71.66,36.68-71.88.8,2.17-35.41,24.42-35.54,70.74A1.15,1.15,0,0,1,574.09,781.14Z"/><path class="cls-8" d="M911.44,722.42c-2.27,0-4.62-.1-7-.33-21.75-2.06-49-10-51.36-10.72H830.73c0-2.27,22.49-2.27,22.49-2.27.61.13,29,8.61,51.4,10.73a77.89,77.89,0,0,0,40-7.12C945,715.07,930.79,722.41,911.44,722.42Z"/><path class="cls-8" d="M887.74,440.62c8.74-4.59,13.8-8,14.74-12.44,1.51-7-7.76-14.57-7.86-14.65,1.85-1.43,11.88,6.74,10.08,15.12C903.57,434,898,438,888,440.58A.92.92,0,0,1,887.74,440.62Z"/><path class="cls-8" d="M951.76,467.3c-15.43-39.56-47.52-35.94-47.83-35.9.06-2.29,33.91-6.13,48.89,34.38C952,467.27,951.88,467.3,951.76,467.3Z"/><path class="cls-8" d="M744.73,602.11c8.56-16.39,15.36-33.73,21.13-58,21.72-91.49,87.34-95,88-95-.56,2.29-64.49,5.78-85.8,95.51-5.82,24.53-12.73,42.1-22.37,57A1.17,1.17,0,0,1,744.73,602.11Z"/><path class="cls-8" d="M942,431.17c-1.14-1.13-1.14-183.93-1.14-183.93,0-14.38-12-26.09-26.73-26.09H509.9c0-2.26,404.23-2.26,404.23-2.26,16,0,29,12.72,29,28.35V430A1.13,1.13,0,0,1,942,431.17Z"/><path class="cls-8" d="M259.39,412.39c-1.13-1.14-1.13-34.71-1.13-34.71,2.26,0,2.26,33.57,2.26,33.57A1.13,1.13,0,0,1,259.39,412.39Z"/><path class="cls-8" d="M552,694.2H371.91c0-2.27,180.12-2.27,180.12-2.27C553.16,693.69,552.66,694.2,552,694.2Z"/><path class="cls-8" d="M494.21,299.71c-.51-.12-49.5-25.14-49.5-25.14-11.72-6-31.41-7.48-43.88-3.24l-36.72,12.46c-13,4.42-33.14,2.3-45-4.74L279.79,255.6c-.46-.32-38.88-27.22-68.31,3.16-21.44,22.14-36.17,37-36.32,37.15-1.47-1.74,13.26-16.59,34.69-38.73,30.81-31.82,70.77-3.76,71.18-3.47l39.28,23.4c11.3,6.73,30.62,8.76,43.08,4.53l36.72-12.45c13-4.42,33.44-2.91,45.64,3.36l49,25C495,299.49,494.63,299.71,494.21,299.71Z"/><path class="cls-8" d="M400.85,223.08a29.29,29.29,0,1,1,29.28-29.28A29.32,29.32,0,0,1,400.85,223.08Zm0-56.3a27,27,0,1,0,27,27A27.06,27.06,0,0,0,400.85,166.78Z"/><path class="cls-8" d="M792.75,694.2c12.24-7.13,13.71-44.79,12.72-64-3.78-73.4-3.28-92.2.26-114.88-1.27,22.85-1.76,41.56,2,114.76.3,5.86,2.46,57.4-14.58,64A1,1,0,0,1,792.75,694.2Z"/><path class="cls-8" d="M770.08,693.72C795.6,674,805.65,636,805.75,635.57c2.1.95-8.18,39.81-35,58A1.16,1.16,0,0,1,770.08,693.72Z"/><path class="cls-8" d="M812.88,155.74H772c-3,0-5.21-1.06-6.32-3s-.9-4.4.59-7L786.6,110.9c1.5-2.56,3.56-4,5.81-4s4.3,1.41,5.8,4l20.39,34.89c1.49,2.57,1.71,5,.6,7S815.85,155.74,812.88,155.74ZM792.41,109.2c-1.41,0-2.77,1-3.84,2.84L768.2,146.93c-1.07,1.83-1.28,3.49-.59,4.69s2.23,1.85,4.35,1.85h40.92c2.12,0,3.67-.65,4.35-1.85s.47-2.86-.59-4.69L796.25,112C795.18,110.21,793.81,109.2,792.41,109.2Z"/><path class="cls-8" d="M826.93,174.17H748A16.19,16.19,0,0,1,731.87,158V104.68A16.19,16.19,0,0,1,748,88.51h89.42a16.19,16.19,0,0,1,16.17,16.17v43.88c-2.26,0-2.26-43.88-2.26-43.88a13.92,13.92,0,0,0-13.91-13.9H748a13.91,13.91,0,0,0-13.9,13.9V158A13.92,13.92,0,0,0,748,171.9h78.89C828.07,173.66,827.56,174.17,826.93,174.17Z"/><path class="cls-8" d="M301.07,615.33c-.63-.09-46.16-7.49-64.24-45.41-15.33-32.18-7-76.14,24.92-130.66,2.09.33,40.43,174.69,40.43,174.69C301.69,615.2,301.38,615.33,301.07,615.33Zm-38.82-172.4c-30.26,52.66-38.13,95-23.37,126,15.63,32.8,52.48,42.12,60.72,43.82Z"/><path class="cls-8" d="M234.71,704.52c-11.85,0-23.72-7.92-35.45-23.73,19,21.75,36.25,27.27,53.19,15C264.7,687,269.31,676,266.14,663.16c-8.68-35-71.79-73.56-106.81-79.45,1.43,5.21,6.22,22,13.62,41.15a246,246,0,0,1-16.27-42.25c36.47,3.55,102.64,43.65,111.66,80,3.42,13.8-1.48,25.59-14.56,35Q244.27,704.54,234.71,704.52Z"/><path class="cls-8" d="M329.85,720.11a34.17,34.17,0,0,1-15.12-3.83c-14-6.92-20.61-17.53-19.55-31.53,2.88-38,64.09-92.3,99.37-103.51.95,5.8-11.77,113.89-50.91,135.25A28.5,28.5,0,0,1,329.85,720.11ZM393.55,584c-35,12.16-93.34,64.32-96.11,100.95-1,13,5.18,22.85,18.3,29.33,9.5,4.7,18.53,4.77,26.81.25C378,695.15,391.7,598.33,393.55,584Z"/><path class="cls-8" d="M286.66,781.76c-32.09-111.49-91.38-168.12-92-168.67,2.16-1.1,61.9,56,93.07,167.23C286.86,781.74,286.76,781.76,286.66,781.76Z"/><path class="cls-8" d="M301.07,781.76c-1.13-1.18,1.62-74.51,1.62-74.51,2.26.09-.49,73.42-.49,73.42A1.13,1.13,0,0,1,301.07,781.76Z"/><path class="cls-8" d="M302.5,663.68c-1.13-1.1-2.56-49.45-2.56-49.45,2.26-.06,3.69,48.28,3.69,48.28C302.52,663.68,302.51,663.68,302.5,663.68Z"/><path class="cls-8" d="M319.93,782.1c-20-117.76,50.56-175.84,51.27-176.42.72,2.34-68.77,59.65-50.15,175.11C320.05,782.1,320,782.1,319.93,782.1Z"/><path class="cls-8" d="M497.53,448.73c-2.26-.44-3.22-1.17-3.82-2.18l-21-35.58c-3-.76-17.39,7.75-17.39,7.75a4.45,4.45,0,0,1-4.36.08,4.4,4.4,0,0,1-2.32-3.69l-3.07-62.68a4.43,4.43,0,0,1,6.76-4l53.36,33a4.44,4.44,0,0,1-.08,7.59l-13.08,7.71a2.17,2.17,0,0,0-.76,3l21,35.58a4.44,4.44,0,0,1-1.56,6.07l-11.42,6.73A4.53,4.53,0,0,1,497.53,448.73Zm-26.68-41.1a4.44,4.44,0,0,1,3.83,2.19l21,35.58c3,.76,14.38-6,14.38-6a2.18,2.18,0,0,0,.77-3l-21-35.57a4.46,4.46,0,0,1,1.57-6.08l13.08-7.71a2.12,2.12,0,0,0,1.06-1.83,2.15,2.15,0,0,0-1-1.87l-53.36-33a2.13,2.13,0,0,0-2.24,0,2.09,2.09,0,0,0-1.06,2L450.92,415a2.17,2.17,0,0,0,3.27,1.76l14.42-8.51A4.48,4.48,0,0,1,470.85,407.63Z"/><path class="cls-8" d="M779.8,305.18H630.21c0-2.27,149.59-2.27,149.59-2.27C780.93,304.67,780.42,305.18,779.8,305.18Z"/><path class="cls-8" d="M779.8,330.39H630.21c0-2.26,149.59-2.26,149.59-2.26C780.93,329.89,780.42,330.39,779.8,330.39Z"/><path class="cls-8" d="M578.18,334.48a17.55,17.55,0,1,1,17.55-17.54A17.56,17.56,0,0,1,578.18,334.48Zm0-32.82a15.28,15.28,0,1,0,15.29,15.28A15.29,15.29,0,0,0,578.18,301.66Z"/><path class="cls-8" d="M779.8,373.09H630.21c0-2.27,149.59-2.27,149.59-2.27C780.93,372.58,780.42,373.09,779.8,373.09Z"/><path class="cls-8" d="M779.8,398.3H630.21C630.21,396,779.8,396,779.8,396,780.93,397.8,780.42,398.3,779.8,398.3Z"/><path class="cls-8" d="M578.18,402.39a17.55,17.55,0,1,1,17.55-17.55A17.56,17.56,0,0,1,578.18,402.39Zm0-32.83a15.28,15.28,0,1,0,15.29,15.28A15.3,15.3,0,0,0,578.18,369.56Z"/><path class="cls-8" d="M779.8,440.55H630.21c0-2.26,149.59-2.26,149.59-2.26C780.93,440.05,780.42,440.55,779.8,440.55Z"/><path class="cls-8" d="M779.8,465.77H630.21c0-2.27,149.59-2.27,149.59-2.27C780.93,465.26,780.42,465.77,779.8,465.77Z"/><path class="cls-8" d="M578.18,469.86a17.55,17.55,0,1,1,17.55-17.55A17.56,17.56,0,0,1,578.18,469.86Zm0-32.83a15.28,15.28,0,1,0,15.29,15.28A15.29,15.29,0,0,0,578.18,437Z"/><path class="cls-8" d="M479.48,554H361.6c0-2.27,116.74-2.27,116.74-2.27v-42.1c2.27,0,2.27,43.23,2.27,43.23A1.14,1.14,0,0,1,479.48,554Z"/><path class="cls-8" d="M328.07,541.52c-1.13-1.13-1.13-88.39-1.13-88.39C328.07,452,467.78,452,467.78,452c0,2.26-138.57,2.26-138.57,2.26v86.13A1.13,1.13,0,0,1,328.07,541.52Z"/><path class="cls-17" d="M670.88,146.51a2.44,2.44,0,0,1-1.84-1.74l-5.58-20.6a2.41,2.41,0,1,1,4.66-1.27l5.59,20.6a2.43,2.43,0,0,1-2.83,3Z"/><path class="cls-17" d="M657.79,139a2.42,2.42,0,0,1-.14-4.7l20.6-5.6a2.42,2.42,0,0,1,1.27,4.68L658.92,139A2.41,2.41,0,0,1,657.79,139Z"/><path class="cls-17" d="M1009.62,486.61a3.39,3.39,0,0,1-3-1.84l-13.68-26.6a3.39,3.39,0,0,1,6-3.11l13.68,26.61a3.39,3.39,0,0,1-3,4.94Z"/><path class="cls-17" d="M989.48,480.15a3.39,3.39,0,0,1-1.55-6.4l26.59-13.69a3.39,3.39,0,0,1,3.1,6L991,479.78A3.46,3.46,0,0,1,989.48,480.15Z"/><path class="cls-18" d="M1013.88,486.1a3.39,3.39,0,0,1-3-1.84l-13.68-26.61a3.39,3.39,0,0,1,6-3.1l13.68,26.61a3.38,3.38,0,0,1-1.46,4.56A3.35,3.35,0,0,1,1013.88,486.1Z"/><path class="cls-18" d="M993.75,479.64a3.39,3.39,0,0,1-1.56-6.41l26.59-13.68a3.39,3.39,0,1,1,3.11,6l-26.6,13.68A3.28,3.28,0,0,1,993.75,479.64Z"/><path class="cls-17" d="M126,426.65a2.62,2.62,0,0,1-2.33-1.42l-10.57-20.55a2.62,2.62,0,0,1,4.66-2.4l10.56,20.55a2.62,2.62,0,0,1-1.13,3.53A2.55,2.55,0,0,1,126,426.65Z"/><path class="cls-17" d="M110.39,421.66a2.62,2.62,0,0,1-1.2-5l20.54-10.57a2.62,2.62,0,0,1,2.4,4.66l-20.54,10.57A2.56,2.56,0,0,1,110.39,421.66Z"/><path class="cls-18" d="M129.24,426.25a2.6,2.6,0,0,1-2.33-1.42l-10.57-20.55a2.62,2.62,0,0,1,4.66-2.4l10.57,20.56a2.62,2.62,0,0,1-2.33,3.81Z"/><path class="cls-18" d="M113.69,421.26a2.6,2.6,0,0,1-2.33-1.42,2.62,2.62,0,0,1,1.13-3.53L133,405.74a2.62,2.62,0,0,1,2.39,4.66L114.88,421A2.55,2.55,0,0,1,113.69,421.26Z"/></g></g></svg>