<?xml version="1.0" encoding="UTF-8"?> <!-- Generator: Adobe Illustrator 23.0.1, SVG Export Plug-In . SVG Version: 6.00 Build 0) --> <svg xmlns="http://www.w3.org/2000/svg" xmlns:xlink="http://www.w3.org/1999/xlink" version="1.1" id="Layer_1" x="0px" y="0px" viewBox="0 0 200.4 66.5" style="enable-background:new 0 0 200.4 66.5;" xml:space="preserve"> <style type="text/css"> .st0{fill:#FFFFFF;} .st1{fill:#333333;} </style> <title>softac</title> <path class="st0" d="M111.47,11.56c-4.31-2.67-8.22-5.93-11.61-9.7c-0.3-0.34-0.74-0.5-1.19-0.45c-0.45,0.06-0.83,0.35-1.02,0.76 c-1.72,3.59-4.32,6.69-7.56,9c-11.35,3.8-19.08,14.34-19.28,26.31c0.4,15.85,13.54,28.39,29.39,28.05 c15.85,0.34,28.99-12.2,29.39-28.05C129.47,25.92,122.28,15.63,111.47,11.56z"></path> <g> <path class="st1" d="M118.9,33.46c-2.64,0.22-5.11,1.44-6.89,3.4c-0.99,0.8-2.19,1.77-3.69,2.88c-6.76-6.4-10.98-8.95-14.8-8.95 c-8.26,0-12.02,5.54-12.02,10.69c0,5.9,4.78,10.69,10.69,10.69c4.97,0,12.88-6.26,15.84-8.76c1.98,2.47,6.36,7.42,9.54,7.42 c4.14,0,6.68-5.44,6.68-9.35C124.24,34.24,120.5,33.46,118.9,33.46z"></path> <path class="st1" d="M109.39,54.83c0.05,0,0.11,0,0.16,0c0.68,0,1.26-0.5,1.34-1.18c0.17-1.05-0.12-2.12-0.8-2.94 c-0.83-0.86-2.01-1.31-3.21-1.23c-2.56-0.16-5.01,1.07-6.41,3.22c-0.42,0.61-0.27,1.44,0.34,1.86c0.58,0.4,1.38,0.28,1.82-0.28 c0.89-1.46,2.55-2.29,4.26-2.12c0.42-0.05,0.85,0.07,1.19,0.33c0.16,0.25,0.22,0.56,0.16,0.85 C108.13,54.07,108.65,54.74,109.39,54.83C109.39,54.83,109.39,54.83,109.39,54.83z"></path> <path class="st1" d="M109.94,56.56c-2.14,2.14-11,1.81-12.8,0c-0.53-0.51-1.38-0.5-1.89,0.03c-0.5,0.52-0.5,1.34,0,1.86 c2.5,1.69,5.5,2.48,8.51,2.27c2.87,0.22,5.73-0.58,8.07-2.27c0.51-0.53,0.5-1.38-0.03-1.89C111.28,56.06,110.46,56.06,109.94,56.56 L109.94,56.56z"></path> </g> </svg> 