<?xml version="1.0" encoding="UTF-8"?> <!-- Generator: Adobe Illustrator 23.0.1, SVG Export Plug-In . SVG Version: 6.00 Build 0) --> <svg xmlns="http://www.w3.org/2000/svg" xmlns:xlink="http://www.w3.org/1999/xlink" version="1.1" id="Capa_1" x="0px" y="0px" viewBox="0 0 400 200" style="enable-background:new 0 0 400 200;" xml:space="preserve"> <style type="text/css"> .st0{fill:#6C757D;} </style> <path class="st0" d="M286.4,141.4c0-1.8,0.2-1.9,2.2-1.9s2.2,0.1,2.2,1.9s-0.2,1.9-2.2,1.9S286.4,143.2,286.4,141.4z"></path> <path class="st0" d="M293.2,142.2c-0.8-0.9-1.1-2.5-1.1-7c0-7.1,0.6-7.8,6.7-7.8c4.9,0,6.7,1.1,6.7,4.2c0,2.1-0.1,2.2-2.5,2.2 c-2.1,0-2.6-0.3-2.7-1.4c-0.1-0.8-0.6-1.5-1.1-1.5c-0.8,0-1,0.9-1,4.5c0,3.6,0.2,4.5,1,4.5c0.5,0,1-0.6,1.1-1.4 c0.2-1.2,0.6-1.5,2.7-1.5c2.4,0,2.5,0.1,2.5,2.2c0,3.1-1.8,4.2-7.1,4.2C295.2,143.3,294,143,293.2,142.2L293.2,142.2z"></path> <path class="st0" d="M307.9,142.2c-0.8-0.9-1.1-2.5-1.1-7c0-7.1,0.6-7.8,7-7.8s7,0.6,7,7.9c0,7.6-0.4,8-7.1,8 C309.9,143.3,308.7,143,307.9,142.2L307.9,142.2z M314.8,135.3c0-3.5-0.2-4.4-1-4.4c-0.7,0-1,1-1.1,3.8c-0.2,4.2,0.1,5.7,1.3,5.3 C314.5,139.8,314.8,138.3,314.8,135.3L314.8,135.3z"></path> <path class="st0" d="M322.1,135.3v-8h1.5c0.8,0,1.7,0.3,1.8,0.8c0.2,0.6,0.7,0.6,2.2,0.1c1-0.4,4.8-0.8,8.4-0.8 c8.4,0.1,8.5,0.1,8.5,9.3v6.6h-2.9h-2.9v-5.2c0-5.4-0.6-7.4-1.9-6.6c-0.4,0.3-0.7,2.7-0.7,6.2v5.7h-2.9h-2.8l-0.2-5.9 c-0.1-4.8-0.4-5.9-1.1-5.9c-0.8,0-1,1.1-1.1,5.9l-0.2,5.9H325h-2.9V135.3L322.1,135.3z"></path> <path class="st0" d="M345.7,141.4c0-1.8,0.2-1.9,2.2-1.9c2,0,2.2,0.1,2.2,1.9s-0.2,1.9-2.2,1.9C345.9,143.3,345.7,143.2,345.7,141.4 z"></path> <path class="st0" d="M352.6,142.2c-0.8-0.9-1.1-2.5-1.1-7c0-7.2,0.6-7.8,7.4-7.8c5.6,0,6.6,0.8,6.6,5.6v3.3h-4.1 c-4,0-4.1,0.1-4.1,1.5c0,2,1.2,2.8,2.2,1.5c0.5-0.7,1.7-1.1,3.4-1.1c2.3,0,2.6,0.2,2.6,1.5c0,2.7-1.9,3.6-7.1,3.6 C354.5,143.3,353.4,143,352.6,142.2z M360.3,132.3c-0.1-1-0.6-1.5-1.5-1.5c-0.8,0-1.3,0.5-1.5,1.5c-0.2,1.1,0.1,1.4,1.5,1.4 S360.5,133.5,360.3,132.3z"></path> <path class="st0" d="M367.9,142.2c-0.8-0.9-1.1-2.5-1.1-7c0-7.2,0.5-7.8,6.4-7.8c5.2,0,7,1.1,7,4.2c0,2.1-0.1,2.2-2.5,2.2 c-2.1,0-2.6-0.3-2.7-1.4c-0.1-0.8-0.6-1.5-1.1-1.5c-0.8,0-1,0.9-1,4.5c0,3.6,0.2,4.5,1,4.5c0.5,0,1-0.6,1.1-1.4 c0.2-1.2,0.6-1.5,2.7-1.5c2.4,0,2.5,0.1,2.5,2.2c0,3.1-1.8,4.2-7.1,4.2C369.8,143.3,368.6,143,367.9,142.2z"></path> <g> <path class="st0" d="M351.2,117.5c-1.7-0.5-3.9-1.7-5.1-2.9l-2-2V97.5c0-17.4,0.1-17.7,5.3-19.7c2.4-1,4.9-1.1,13.2-1.1 c9.4,0,10.4,0.1,13,1.5c3.3,1.7,4.6,4.3,4.6,9.1v3.2h6.4h6.4v7v7h-6.4h-6.4v3.2c0,8.4-3.3,10.4-16.9,10.7 C357.2,118.4,353.4,118.1,351.2,117.5z M366,109.7c0.8-0.9,1.4-2.4,1.4-3.5v-1.9H362h-5.4v1.8C356.6,111.3,362.5,113.6,366,109.7z M367.3,88.6c0.3-2.2-2.5-4.7-5.3-4.7c-2.7,0-5.4,2.4-5.4,4.8v1.7l5.3-0.2C366.7,90,367.1,89.9,367.3,88.6z"></path> </g> <g> <path class="st0" d="M15.4,118.4c-5-0.6-7.7-2.2-9.3-5c-1-2-1.1-3.9-1-17c0.2-14.6,0.2-14.8,1.7-16.4c2.9-3.1,6.4-3.9,17-3.9 c8.9,0,9.8,0.1,12.8,1.6c4.8,2.4,5.4,4.1,5.4,14.5v8.4H31.5H21l0.1,2.4c0.1,3.6,0.8,5.5,2.1,5.7c1.5,0.3,2.3-0.9,2.3-3.2v-1.8h8.3 H42v3.7c0,4.4-1.5,7.6-4.2,9.2C34.3,118.7,24,119.5,15.4,118.4z M27.4,90.3c0-2.9-1-4.4-3.2-4.4s-2.4,0.3-2.9,3.7l-0.4,2.7h3.3 C27.3,92.3,27.4,92.3,27.4,90.3z"></path> <path class="st0" d="M270,117.5c-7.5-2.4-8.5-4.8-8.5-20.2c0-11-0.1-11.5-1.3-11.5c-1.1,0-1.3-0.4-1.3-4.5c0-4,0.1-4.5,1.3-4.5 c0.8,0,3.1-1.9,5.8-4.8l4.6-4.8h3.4h3.4v4.8v4.8h3.2h3.2v4.5v4.5h-3.2h-3.2v10.8v10.8l1.6,1c0.9,0.6,2.2,0.9,2.9,0.7 c1.3-0.3,1.3-0.1,1.1,4.2l-0.2,4.6l-5.1,0.1C274.9,118.3,271.5,118,270,117.5z"></path> <path class="st0" d="M351.2,117.5c-1.7-0.5-3.9-1.7-5.1-2.9l-2-2V97.5c0-17.4,0.1-17.7,5.3-19.7c2.4-1,4.9-1.1,13.2-1.1 c9.4,0,10.4,0.1,13,1.5c3.3,1.7,4.6,4.3,4.6,9.1v3.2h6.4h6.4v7v7h-6.4h-6.4v3.2c0,8.4-3.3,10.4-16.9,10.7 C357.2,118.4,353.4,118.1,351.2,117.5z M366,109.7c0.8-0.9,1.4-2.4,1.4-3.5v-1.9H362h-5.4v1.8C356.6,111.3,362.5,113.6,366,109.7z M366.7,100.1c-1.3-0.2-1.8-0.6-1.8-1.5c0-0.6-0.4-1.2-0.8-1.3c-0.4,0-1.9-0.1-3.1-0.3c-3.3-0.4-4.5,0.2-4.5,2 c0,1.5,0.1,1.5,5.9,1.5C365.7,100.4,367.6,100.2,366.7,100.1z M367.3,88.6c0.3-2.2-2.5-4.7-5.3-4.7c-2.7,0-5.4,2.4-5.4,4.8v1.7 l5.3-0.2C366.7,90,367.1,89.9,367.3,88.6z"></path> <path class="st0" d="M45.2,89.4V61h8h8v28.4v28.4h-8h-8V89.4z"></path> <path class="st0" d="M287.5,116.4c-0.6-1.1-0.9-6.5-1-20.4l-0.3-19h8h8v20.4v20.4h-7C288.8,117.8,288.3,117.7,287.5,116.4z"></path> <path class="st0" d="M286.4,65.5V61h8h8v4.5v4.5h-8h-8V65.5z"></path> </g> <g> <path class="st0" d="M351.2,117.5c-1.7-0.5-3.9-1.7-5.1-2.9l-2-2V97.5c0-17.4,0.1-17.7,5.3-19.7c2.4-1,4.9-1.1,13.2-1.1 c9.4,0,10.4,0.1,13,1.5c3.3,1.7,4.6,4.3,4.6,9.1v3.2h6.4h6.4v3.4v3.4l-18-0.1L356.9,97l-0.2,1.8l-0.2,1.7h18.2h18.2v1.9v1.9h-6.4 h-6.4v3.2c0,8.4-3.3,10.4-16.9,10.7C357.2,118.4,353.4,118.1,351.2,117.5z M366,109.7c0.8-0.9,1.4-2.4,1.4-3.5v-1.9H362h-5.4v1.8 C356.6,111.3,362.5,113.6,366,109.7z M367.3,88.6c0.3-2.2-2.5-4.7-5.3-4.7c-2.7,0-5.4,2.4-5.4,4.8v1.7l5.3-0.2 C366.7,90,367.1,89.9,367.3,88.6z"></path> </g> <g> <path class="st0" d="M351.2,117.5c-1.7-0.5-3.9-1.7-5.1-2.9l-2-2V97.5c0-17.4,0.1-17.7,5.3-19.7c2.4-1,4.9-1.1,13.2-1.1 c9.4,0,10.4,0.1,13,1.5c3.3,1.7,4.6,4.3,4.6,9.1v3.2h6.4h6.4v3.4v3.4l-18.1-0.3l-18.1-0.3l0.1,6.1c0.1,5.4,0.3,6.3,1.5,7.5 c2.1,2.1,5.7,1.9,7.6-0.4c0.9-1,1.5-2.6,1.5-3.6c0-1.7-0.2-1.9-2.2-1.9c-2,0-2.2-0.1-2.2-1.9v-1.9l14.9,0.1l14.8,0.2l0.2,1.8 l0.2,1.7h-6.4h-6.4v3.2c0,8.4-3.3,10.4-16.9,10.7C357.2,118.4,353.4,118.1,351.2,117.5z M367.3,88.6c0.3-2.2-2.5-4.7-5.3-4.7 c-2.7,0-5.4,2.4-5.4,4.8v1.7l5.3-0.2C366.7,90,367.1,89.9,367.3,88.6z"></path> </g> <g> <path class="st0" d="M351.2,117.5c-1.7-0.5-3.9-1.7-5.1-2.9l-2-2V97.5c0-17.4,0.1-17.7,5.3-19.7c2.4-1,4.9-1.1,13.2-1.1 c9.4,0,10.4,0.1,13,1.5c3.3,1.7,4.6,4.3,4.6,9.1v3.2h6.4h6.4v3.4v3.4l-18.2-0.3l-18.2-0.3v5.8c0,5.1,0.2,5.9,1.5,7.5 c1.1,1.3,2,1.8,3.9,1.8c1.9,0,2.7-0.4,3.9-1.8c0.8-1,1.5-2.3,1.5-3c0-1.1,0.5-1.2,6.4-1.2h6.4v2.6c0,4.4-1.5,6.9-4.9,8.4 c-2.6,1.2-4.5,1.5-12,1.6C357.2,118.4,353.4,118.1,351.2,117.5z M367.3,88.6c0.3-2.2-2.5-4.7-5.3-4.7c-2.7,0-5.4,2.4-5.4,4.8v1.7 l5.3-0.2C366.7,90,367.1,89.9,367.3,88.6z"></path> <path class="st0" d="M312.7,112.9c-6.4-9.6-7.8-14.5-7.8-28.1v-7.8h7.9h7.9l0.3,13.3c0.3,12.4,1,18,2.4,18c1.2,0,2-6.7,2.4-18.6 l0.3-12.6h7.7h7.7l-0.3,11.4l-0.2,11.3l-2.4,5c-1.3,2.8-3.7,6.9-5.3,9.1l-2.9,4h-7.1h-7.1C316.1,117.8,312.7,112.9,312.7,112.9z"></path> <path class="st0" d="M370.8,104.5c-1.9-0.2-2.1-0.4-2.1-2.1v-1.9l11.4,0.1c6.2,0.1,11.7,0.3,12.1,0.4c0.4,0.1,0.8,1,0.8,1.8v1.5 l-9.1,0.1c-5,0-9.6,0.1-10.1,0.2C373.3,104.7,371.9,104.6,370.8,104.5z"></path> </g> <g> <path class="st0" d="M366.3,96.9l-9.8-0.2v-3.1v-3.1l8.1-0.4c4.4-0.2,12.6-0.2,18.2,0l10.1,0.4v3.3v3.3l-8.4-0.1 C379.9,97,371.6,97,366.3,96.9L366.3,96.9z"></path> </g> <g> <path class="st0" d="M368.6,96.9l-7.5-0.2v-3.1v-3.1l3.1-0.3c1.7-0.1,8.9-0.1,15.9,0l12.8,0.2v3.4v3.4l-8.4-0.1 C379.9,97,372.6,97,368.6,96.9z"></path> </g> <g> <path class="st0" d="M370.2,96.9l-5.9-0.2v-3.1c0-2.7,0.2-3.1,1.5-3.3c0.8-0.1,7.2-0.2,14.4-0.1l12.9,0.2v3.4v3.4l-8.4-0.1 C379.9,97,373.4,97,370.2,96.9z"></path> </g> <g> <path class="st0" d="M152.4,110.1V76.9h3.8c2.1,0,3.8,0.2,3.8,0.5c0,0.3,0.5,1.1,1.1,1.9l1.1,1.5l4-2.1c3.8-1.9,4.6-2.1,10-2.1 c6.4,0,7.9,0.6,10.7,4.4c1.3,1.7,1.3,2.6,1.3,16.3s-0.1,14.7-1.3,16.3c-2.3,3.1-4.5,4.3-8.4,4.6c-3.6,0.3-5.2-0.2-10.5-2.9 c-0.3-0.1-0.5,6.1-0.5,13.8v14.1h-7.7h-7.7L152.4,110.1L152.4,110.1z M172.1,106.2c0.5-0.5,0.8-3.4,0.8-8.9c0-8.7-0.4-9.8-3.3-9.4 c-1.5,0.2-1.5,0.4-1.7,8.7c-0.1,4.7,0,9,0.1,9.4C168.4,107.1,171,107.2,172.1,106.2z"></path> <path class="st0" d="M80.6,117.7c-1-0.4-2.6-1.3-3.4-2.1c-3.1-2.8-3.3-3.9-3.3-18.4c0-15.8,0.3-17,5.1-19.5c3.7-1.9,7.7-1.9,12,0.1 l3.3,1.5v-9.2V61h7.7h7.7v26.4c0,14.5,0.2,27.3,0.4,28.4l0.4,2h-4.2c-4.1,0-4.3-0.1-5.2-1.9c-0.6-1-1.1-1.9-1.2-1.9s-2.1,0.9-4.4,2 C90.8,118.1,83.9,118.9,80.6,117.7L80.6,117.7z M94,97.4v-9.3l-1.7-0.2c-2.5-0.3-3.1,1.6-3.1,9.6c0,7.3,0.9,9.6,3.4,9.3 C94,106.6,94,106.4,94,97.4z"></path> <path class="st0" d="M122.4,118c-3.7-0.7-5.8-1.7-7.3-3.5l-1.6-2V97.4V82.2l1.7-2c2.4-2.9,6.6-3.9,15.6-3.9 c9.3,0,13.5,0.8,16.1,3.2l2,1.8l0.2,9.6l0.2,9.6h-10.2h-10.3v3.4c0,4.1,1.1,5.9,3.1,5.3c1-0.3,1.5-1.1,1.8-3l0.4-2.5h7.5h7.6v3.8 c0,8.3-3.3,10.4-16.6,10.6C127.9,118.2,123.3,118.2,122.4,118L122.4,118z M135.2,89.8c0-3.4-0.8-4.6-2.9-4.6 c-2.2,0-3.4,1.7-3.4,4.8v2.8h3.2h3.2V89.8z"></path> <path class="st0" d="M200.3,117.7c-4.1-0.7-7.2-2.5-8.2-4.7c-0.5-1.1-0.8-6.5-0.8-16.3V81.9l2.1-2.1c1.1-1.1,3.3-2.4,4.7-2.7 c7.1-1.9,20.1-1.4,24.9,0.9c3.8,1.9,4.1,2.9,4.1,19.1c0,15.8-0.3,17.3-3.8,19.1C219.3,118.2,208,119,200.3,117.7L200.3,117.7z M211.4,107.8c0.2-0.6,0.4-5.5,0.4-11c0-10.3-0.3-11.5-2.7-11.5c-2,0-2.4,2.2-2.4,11.8c0,5.2,0.3,9.9,0.6,10.6 C208.1,109.1,210.8,109.2,211.4,107.8z"></path> <path class="st0" d="M230.3,97.4V76.9h4.5h4.4l0.7,2.7c1.5,5.9,1.4,5.9,4.5,2.6c2.5-2.6,6.8-5,10.3-5.6l2.4-0.4v9.3v9.3l-3.8-0.4 c-3.5-0.4-3.9-0.3-5.4,1.2c-1.7,1.7-1.7,1.7-1.7,11.9v10.2h-8h-8L230.3,97.4L230.3,97.4z"></path> <path class="st0" d="M379.1,96.9l-11.7-0.1v-3.2v-3.2h12.8h12.8v3.4c0,2.8-0.2,3.4-1.1,3.3C391.2,97,385.5,97,379.1,96.9z"></path> </g> <g> <path class="st0" d="M380.4,96.9L370,96.7v-3.2v-3.2h11.5h11.5v3.4c0,2.8-0.2,3.4-1.1,3.3C391.2,97,386,97,380.4,96.9z"></path> </g> </svg> 