<?xml version="1.0" encoding="UTF-8"?> <!-- Generator: Adobe Illustrator 24.0.0, SVG Export Plug-In . SVG Version: 6.00 Build 0) --> <svg xmlns="http://www.w3.org/2000/svg" xmlns:xlink="http://www.w3.org/1999/xlink" version="1.1" id="Layer_1" x="0px" y="0px" viewBox="0 0 400 200" style="enable-background:new 0 0 400 200;" xml:space="preserve"> <style type="text/css"> .st0{fill:#FF020B;} .st1{fill:#FFF000;} .st2{fill:#FFFFFF;} .st3{fill:#494949;} .st4{fill:#B4B2B1;} .st5{fill:#00B3EE;} .st6{fill:#005CB3;} .st7{fill:#636468;} .st8{fill:#231703;} </style> <g> <path class="st0" d="M56.3,155.7c-15-5.2-24.8-13.4-30-24.8c-2.2-4.8-2.6-9.3-2.6-34.1V68.1l-7.5-4.8l-7.5-4.8V45.4V32h67.5h67.5 v13v13l-7.4,4.9l-7.5,4.9L128.5,98l-0.4,30.4l-4.1,6.7c-5,7.9-15,15.8-25.2,19.9C87.2,159.5,68.1,159.9,56.3,155.7z"></path> </g> <g> <path class="st1" d="M56.3,155.7c-15-5.2-24.8-13.4-30-24.8c-2.2-4.8-2.6-9.3-2.6-34.4c0-16-0.4-29.1-1-29.1 c-0.7,0-0.8-4.4-0.7-9.7l0.5-9.7l-7,0.4l-7,0.5v-8.5V32H76h67.5l-0.3,13.4c-0.1,7.2-0.4,10.9-0.7,8.2c-0.5-5.2-0.7-5.2-6.7-5.2h-6 l-0.1,5.2c-0.1,2.7-0.5,20.7-1.1,40l-0.8,34.9l-4.1,6.7c-5,7.9-15,15.8-25.2,19.9C87.2,159.5,68.1,159.9,56.3,155.7z M97.7,151.9 c10.1-4,22-16,24.8-25.4l1-3.1h-21.1H81v3.4c0,2.5,1.1,4,3.8,5c5,2.2,5.2,2.5,3,3.8c-1.1,0.8-7.4,1.4-13.9,1.4H62.1l0.3-4.6 c0.1-2.5,1.2-5.6,2.2-6.8c2.2-2.6,3.8-2.3-18.3-2.2c-9,0.1-16.6,0.4-16.9,0.8c-0.4,0.4,0.7,3.4,2.6,6.8c5.5,10.5,19,19.5,33.1,22.2 C76.2,155.6,90,154.9,97.7,151.9z M69.8,128.2c0.4-3.4,0.3-3.7-1.6-2.2c-2.6,2.2-3,7.5-0.4,6.7C68.6,132.3,69.7,130.3,69.8,128.2z M79.7,75c2-2.5-0.1-4.6-7.4-7.6c-3.3-1.5-4.1-1.4-5.2,0.5c-1.6,3-4.2,2.9-7.1-0.3c-2.2-2.5-2.2-2.7,1.1-6.4l3.3-4l3.3,3.1 c1.8,1.6,4,3,4.6,3c2.5,0,14.9,7.1,16.9,9.7c1.8,2.3,2.6,2.5,6.5,1c4-1.5,4.8-1.5,6.3,0.7c1.5,1.9,3.8,2.3,12.3,2.3h10.4V64V51 H76.2H27.8v13v13h25.1C73.8,77,78.3,76.6,79.7,75z"></path> </g> <path class="st2" d="M56.3,155.7c-15-5.2-24.8-13.4-30-24.8c-2.2-4.8-2.6-9.3-2.6-34.4c0-16-0.4-29.1-1-29.1c-0.7,0-0.8-4.4-0.7-9.7 l0.5-9.7l-7,0.4c-6.7,0.5-7,0.4-7-2.9v-3.4l66.8,0.4l66.8,0.3V38v-4.8L75.3,33L8.1,32.7L76,32.3l67.8-0.3l-0.3,13.4 c-0.1,7.2-0.4,10.9-0.7,8.2c-0.5-5.2-0.7-5.2-6.7-5.2h-6l-0.1,5.2c-0.1,2.7-0.5,20.7-1.1,40l-0.8,34.9l-4.1,6.7 c-5,7.9-15,15.8-25.2,19.9C87.2,159.5,68.1,159.9,56.3,155.7z M97.7,151.9c10.1-4,22-16,24.8-25.4l1-3.1h-21.1H81v3.4 c0,2.5,1.1,4,3.8,5c5,2.2,5.2,2.5,3,3.8c-1.1,0.8-7.4,1.4-13.9,1.4H62.1l0.3-4.6c0.1-2.5,1.2-5.6,2.2-6.8c2.2-2.6,3.8-2.3-18.3-2.2 c-9,0.1-16.6,0.4-16.9,0.8c-0.4,0.4,0.7,3.4,2.6,6.8c5.5,10.5,19,19.5,33.1,22.2C76.2,155.6,90,154.9,97.7,151.9z M69.8,128.2 c0.4-3.4,0.3-3.7-1.6-2.2c-2.6,2.2-3,7.5-0.4,6.7C68.6,132.3,69.7,130.3,69.8,128.2z M67.8,108.1c-0.4-2.5-1.4-5.6-1.9-6.8 c-1.6-3.1-1.5-8.9,0.1-10c0.8-0.4,1.4-1.8,1.4-2.9c0-1.5-3.4-1.9-19.8-1.9H27.8v13v13h20.5h20.5C68.7,112.5,67.8,108.1,67.8,108.1z M124.7,99.5v-13h-15.8c-9.1,0-15.4,0.5-15,1.2c1.1,1.6-3,19.5-4.8,21.3c-2.9,2.9-0.4,3.4,17.2,3.4h18.4 C124.7,112.4,124.7,99.5,124.7,99.5z M89.1,100.2c1.8-8,0-10.2-6.4-7.9c-2.3,1-4.6,2.5-5,3.5c-0.8,2.2,7.8,12.8,9.1,11.5 C87.3,106.7,88.3,103.6,89.1,100.2z M79.7,75c2-2.5-0.1-4.6-7.4-7.6c-3.3-1.5-4.1-1.4-5.2,0.5c-1.6,3-4.2,2.9-7.1-0.3 c-2.2-2.5-2.2-2.7,1.1-6.4l3.3-4l3.3,3.1c1.8,1.6,4,3,4.6,3c2.5,0,14.9,7.1,16.9,9.7c1.8,2.3,2.6,2.5,6.5,1c4-1.5,4.8-1.5,6.3,0.7 c1.5,1.9,3.8,2.3,12.3,2.3h10.4V64V51H76.2H27.8v13v13h25.1C73.8,77,78.3,76.6,79.7,75z"></path> <path class="st3" d="M257,151.2c0-0.4,0.8-1.5,1.8-2.5s2.9-8.6,4.2-17c2.5-14,3.8-18,5.9-16c1.2,1.2-3.8,29.9-6,33.3 C261.2,151.6,257,153.3,257,151.2L257,151.2z"></path> <path class="st3" d="M154.7,142.9c0-1.2,1-8,2.3-15l2.2-12.7h7.1c5.7,0,7.6,0.7,10.2,3.4c2.6,2.7,3,4.4,2.5,10.2 c-0.4,4-1.8,8-3.3,9.7C170.2,144.7,154.7,147.9,154.7,142.9z M169,140.3c2.9-1.1,6.1-7.6,6.1-12.1c0-6.3-2.3-8.9-7.9-8.9H162 l-1.6,9.5c-1,5.3-1.6,10.2-1.6,10.9C158.8,141.3,165.5,141.5,169,140.3z"></path> <path class="st3" d="M183.3,142.9c0-1.2,1-8,2.3-15l2.2-12.7h8c6.1,0,7.9,0.4,7.9,2c0,1.5-1.6,2-6.8,2c-6.7,0-6.8,0.1-6.8,4.1 c0,3.8,0.4,4.1,4.8,4.1c3.5,0,4.5,0.4,4,2c-0.5,1.2-2.6,2-5.3,2c-3.4,0-4.6,0.7-5.3,3.1c-1.5,5.9-1.1,6.4,5.3,6.4 c4.5,0,6.1,0.5,6.1,2c0,1.6-1.8,2-8.2,2C184.7,145.2,183.3,144.8,183.3,142.9z"></path> <path class="st3" d="M213.9,140.2c0.4-2.9,1.6-9.7,2.5-15c1.1-6.5,2.2-10,3.4-10c1,0,1.8,0.8,1.8,1.8c0,1.9-2.2,15.5-3.4,21.1 c-0.7,2.7-0.3,3,4.8,3c4,0,5.5,0.5,5.5,2c0,1.6-1.8,2-7.6,2h-7.8L213.9,140.2z"></path> <path class="st3" d="M235.6,142.2c-4.4-4.8-5-8.9-2.5-15.5c2.9-7.6,7.8-11.5,14.5-11.5c12.7,0,14.7,18,3.1,27.1 C245.8,146.2,239.1,146,235.6,142.2z M248.8,139.8c1.5-0.8,3.3-3.8,4.1-6.8c3.5-13.1-5.9-19.9-13.6-10c-3.1,4-3.8,13.8-1.1,16.5 C240.2,141.5,245.4,141.7,248.8,139.8z"></path> <path class="st3" d="M269.3,144.5c0-2.5,14.6-29.3,16-29.3c1.9,0,2.5,1.8,4.5,16c1.8,12.8,1.8,14-0.7,14c-1.4,0-2-1.4-2-4.1 c0-3.8-0.3-4.1-5.5-4.1c-4.6,0-5.7,0.5-7.5,4.1C272.3,144.5,269.3,146.7,269.3,144.5z M285.6,131.7c0-0.7-0.4-3.1-1-5.6l-0.8-4.5 l-2.5,4.6c-3.3,6.1-3.1,6.7,0.8,6.7C284.1,132.9,285.6,132.4,285.6,131.7z"></path> <path class="st3" d="M154.7,107.4c0-1.2,1-8,2.3-15l2.2-12.7h7.1c5.7,0,7.6,0.7,10.2,3.4c2.6,2.7,3,4.4,2.5,10.2 c-0.4,4-1.8,8-3.3,9.7C170.2,109.2,154.7,112.5,154.7,107.4z M169,104.8c2.9-1.1,6.1-7.6,6.1-12.1c0-6.3-2.3-8.9-7.9-8.9H162 l-1.6,9.5c-1,5.3-1.6,10.2-1.6,10.9C158.8,105.8,165.5,106.1,169,104.8z"></path> <path class="st3" d="M183.3,107.4c0-1.2,1-8,2.3-15l2.2-12.7h8c6.1,0,7.9,0.4,7.9,2c0,1.5-1.6,2-6.8,2c-6.7,0-6.8,0.1-6.8,4.1 c0,3.8,0.4,4.1,4.8,4.1c3.5,0,4.5,0.4,4,2c-0.5,1.2-2.6,2-5.3,2c-3.4,0-4.6,0.7-5.3,3.1c-1.5,5.9-1.1,6.4,5.3,6.4 c4.5,0,6.1,0.5,6.1,2c0,1.6-1.8,2-8.2,2C184.7,109.7,183.3,109.3,183.3,107.4z"></path> <path class="st3" d="M205.7,104.7c0.4-2.9,1.6-9.7,2.5-15l1.6-10h5.9c8.5,0,11.3,1.9,11.3,7.4c0,6.4-5.2,11.7-11.5,11.7 c-4.6,0-4.9,0.3-5.7,5.5c-0.5,3.5-1.6,5.5-3,5.5C205.3,109.7,205,108.7,205.7,104.7L205.7,104.7z M222.1,92.6c1.5-4,0.8-8.5-1.4-9.3 c-6-2.3-8.6,0.1-8.7,8.5c0,2.5,0.7,3,4.6,3C219.6,94.7,221.5,93.9,222.1,92.6z"></path> <path class="st3" d="M231.5,106.2c-3-3-3.4-4.4-2.7-10.5c0.5-5.7,1.4-7.6,5.6-11.5c7.8-7.1,16.9-5.9,19.8,2.7 c2.5,7.4-1.4,17.3-8,20.7C240.2,110.7,235.6,110.3,231.5,106.2L231.5,106.2z M246.7,102.9c3.5-4,4.4-14.5,1.4-17.7 c-3.3-3.5-7-3.4-10.8,0.4s-5.5,11.6-3.5,16.5c1.1,2.9,2.2,3.5,5.9,3.5C242.5,105.7,245.2,104.6,246.7,102.9z"></path> <path class="st3" d="M258.9,106.1c0.4-2.2,1.4-7.8,2.2-12.7c2.3-14,2-13.6,9.4-13.6c3.5,0,7.1,0.7,8,1.6c2.5,2.5,1.9,8.5-1.1,12.4 c-2.6,3.1-2.7,4.2-1.4,9.3c2.6,9.4-1,9.1-4.1-0.4c-1.2-4.1-2.3-5.2-4.8-5.2c-2.6,0-3.3,1-4,6.1c-0.7,4.2-1.6,6.1-3,6.1 C258.6,109.7,258.3,108.8,258.9,106.1z M275.8,88.7c0.5-4.2-1.4-6.3-6.1-6.3c-2,0-3.1,0.8-3.1,2.5c0,1.2-0.4,3.7-0.8,5.5 c-0.8,3-0.5,3.1,4.4,2.7C274.8,92.7,275.4,92.3,275.8,88.7L275.8,88.7z"></path> <path class="st3" d="M288.3,107.4c0-2.9,2.5-17.3,3.5-21.1c0.5-2-0.1-2.5-3.5-2.5c-2.9,0-4.1-0.5-3.8-1.6c0.4-1.2,4.1-1.9,10.5-2.2 c7.6-0.3,9.8,0,9.4,1.4c-0.4,1-2.5,2-4.6,2.5c-3.8,0.7-4,1.1-6,12.8c-1.2,6.8-2.9,12.4-3.8,12.8C289,109.7,288.3,108.8,288.3,107.4z "></path> <path class="st3" d="M305.3,104.7c0.4-2.9,1.6-9.7,2.5-15c1.1-6.5,2.2-10,3.4-10c2.2,0,2.2,0.1-0.5,16.4 c-1.6,10.1-2.7,13.6-4.2,13.6S304.6,108.7,305.3,104.7z"></path> <path class="st3" d="M320.7,108.8c-1.1-2-4.1-27.8-3.3-28.5c1.9-1.9,3.5,1.5,4.4,9.3c1.8,15.3,2.3,15.4,9,2.2 c6.5-13.2,11.7-17.2,6.1-4.8c-7.5,16.9-11,22.8-13.2,22.8C322.3,109.7,320.9,109.3,320.7,108.8L320.7,108.8z"></path> <path class="st3" d="M342.2,94.7c4.5-9,8.3-15,9.5-15c1.1,0,2,0.4,2,1.1c0,0.5,1,6.8,2,13.9c2.5,16,2.5,15,0.1,15 c-1.2,0-2.2-1.6-2.5-3.7c-0.4-3.4-1.1-3.8-5.9-4.2c-5-0.4-5.6,0-7.1,3.8c-0.8,2.2-2.5,4.1-3.7,4.1 C335.3,109.7,336.5,106.2,342.2,94.7L342.2,94.7z M351.5,92.4c-1.1-7-1.4-7.1-3.8-1.4c-2.6,6.4-2.6,6.4,1.2,6.4 C352,97.5,352.2,97.1,351.5,92.4z"></path> <path class="st3" d="M154.7,72c0-1.2,1-8,2.3-15l2.2-12.7h8c9.8,0,10.5,3,1,4.1c-5.3,0.5-6,1.1-6.4,4.5c-0.4,3.3,0,3.7,3.7,3.7 c2.9,0,4.2,0.7,4.2,2s-1.5,2-4.8,2c-4.4,0-4.8,0.4-5.5,5.2c-0.5,2.7-1.1,5.9-1.4,6.8C157.3,75.1,154.7,74.7,154.7,72z"></path> <path class="st3" d="M175.1,72c0-1.2,1-8,2.3-15l2.2-12.7h8c6.1,0,7.9,0.4,7.9,2c0,1.5-1.6,2-6.8,2c-6.7,0-6.8,0.1-6.8,4.1 c0,3.8,0.4,4.1,4.8,4.1c3.5,0,4.5,0.4,4,2c-0.5,1.2-2.6,2-5.3,2c-3.4,0-4.6,0.7-5.3,3.1c-1.5,5.9-1.1,6.4,5.3,6.4 c4.5,0,6.1,0.5,6.1,2c0,1.6-1.8,2-8.2,2C176.5,74.3,175.1,73.9,175.1,72z"></path> <path class="st3" d="M197,72c0-1.2,1-8,2.3-15l2.2-12.7h7.1c5.7,0,7.6,0.7,10.2,3.4c2.6,2.7,3,4.4,2.5,10.2c-0.4,4-1.8,8-3.3,9.7 C212.5,73.7,197,77,197,72L197,72z M211.3,69.4c2.9-1.1,6.1-7.6,6.1-12.1c0-6.3-2.3-8.9-7.9-8.9h-5.2l-1.6,9.5 c-1,5.3-1.6,10.2-1.6,10.9C201.1,70.3,207.7,70.6,211.3,69.4z"></path> <path class="st3" d="M225.6,72c0-1.2,1-8,2.3-15l2.2-12.7h8c6.1,0,7.9,0.4,7.9,2c0,1.5-1.6,2-6.8,2c-6.7,0-6.8,0.1-6.8,4.1 c0,3.8,0.4,4.1,4.8,4.1c3.5,0,4.5,0.4,4,2c-0.5,1.2-2.6,2-5.3,2c-3.4,0-4.6,0.7-5.3,3.1c-1.5,5.9-1.1,6.4,5.3,6.4 c4.5,0,6.1,0.5,6.1,2c0,1.6-1.8,2-8.2,2C227,74.3,225.6,73.9,225.6,72z"></path> <path class="st3" d="M248,69.2c0.4-2.9,1.6-9.7,2.5-15l1.6-10h7c3.8,0,7.6,0.7,8.6,1.6c2.7,2.7,1.9,8.7-1.6,12.1c-2.5,2.3-3,4-2.2,6 c2.5,6.8,2.7,10.2,0.8,10.2c-1,0-2.6-2.6-3.5-6.1c-1.4-5-2.3-6.1-4.9-6.1s-3.3,1-4.1,6.1c-0.5,4.2-1.5,6.1-2.9,6.1 C247.6,74.3,247.3,73.2,248,69.2z M264.9,53.3c0.5-4.2-1.4-6.3-6-6.3c-2.9,0-4.6,3.1-4.6,8.6c0,2,1,2.5,5.2,2 C263.9,57.2,264.5,56.8,264.9,53.3L264.9,53.3z"></path> <path class="st3" d="M275.4,59.3c4.5-9,8.3-15,9.5-15c1.1,0,2,0.4,2,1.1c0,0.5,1,6.8,2,13.9c2.5,16,2.5,15,0.1,15 c-1.2,0-2.2-1.6-2.5-3.7c-0.4-3.4-1.1-3.8-5.9-4.2c-5-0.4-5.6,0-7.1,3.8c-0.8,2.2-2.5,4.1-3.7,4.1C268.4,74.3,269.7,70.7,275.4,59.3 z M284.7,57c-1.1-7-1.4-7.1-3.8-1.4c-2.6,6.4-2.6,6.4,1.2,6.4C285.2,62,285.3,61.6,284.7,57L284.7,57z"></path> <path class="st3" d="M299.7,71.3c-4.4-4.8-5-8.9-2.5-15.5c3-7.9,7.6-11.5,15.1-11.5c4.5,0,6,0.5,6,2c0,1.8-1,2-4.8,1.2 c-4.1-0.7-5.3-0.3-8.9,3.3c-3.3,3.4-4.1,5.3-4.1,10.1c0,7.4,1.8,9.3,8.5,9.3c5.3,0,7,1.8,3,3.3C307.7,75.1,302.4,74.3,299.7,71.3 L299.7,71.3z"></path> <path class="st3" d="M318.9,72c0.4-1.4,1.4-6.4,2.2-11.3c2.5-15.1,2.9-16.4,4.9-16.4c1.4,0,1.9,1,1.5,2.5c-0.4,1.2-1.1,4.8-1.5,7.8 c-2.5,14.9-3.8,19.8-5.7,19.8C318.9,74.3,318.5,73.5,318.9,72L318.9,72z"></path> <path class="st3" d="M332.4,70.7c-3-3-3.4-4.4-2.7-10.5c0.5-5.7,1.4-7.6,5.6-11.5c7.8-7.1,16.9-5.9,19.8,2.7 c2.5,7.4-1.4,17.3-8,20.7C341.1,75.2,336.5,74.8,332.4,70.7L332.4,70.7z M347.7,67.5c3.5-4,4.4-14.5,1.4-17.7 c-3.3-3.5-7-3.4-10.8,0.4s-5.5,11.6-3.5,16.5c1.1,2.9,2.2,3.5,5.9,3.5C343.5,70.2,346.2,69.1,347.7,67.5z"></path> <path class="st3" d="M359.8,69.2c0.4-2.9,1.6-9.7,2.5-15c2.2-13.6,4.9-13.5,10,0.4c4.1,11.2,5.2,11.2,6.8,0.5c1.4-9,2-10.9,4-10.9 c1.5,0,1.4,3-0.8,14.6c-1.4,8-2.9,14.9-3.1,15.1c-1.4,1.4-3.3-1.8-6.8-10.9c-2-5.5-4.2-10.5-4.8-11c-0.5-0.5-1.6,4.2-2.6,10.6 c-1.4,8.7-2.3,11.6-3.8,11.6C359.4,74.3,359.1,73.2,359.8,69.2z"></path> <path class="st2" d="M344.8,36.9c3.1-2.5,4.9-2.7,4.9-0.8c0,0.8-0.5,1.4-1.2,1.4s-2.5,0.4-3.8,0.8C342.5,39,342.5,38.8,344.8,36.9 L344.8,36.9z"></path> <g> <path class="st4" d="M56.3,155.7c-15-5.2-24.8-13.4-30-24.8c-2.2-4.8-2.6-9.3-2.6-34.4c0-16-0.4-29.1-1-29.1 c-0.7,0-0.8-4.4-0.7-9.7l0.5-9.7l-7,0.4c-6.7,0.5-7,0.4-7-2.9v-3.4l66.8,0.4l66.8,0.3V38v-4.8L75.3,33L8.1,32.7L76,32.3l67.8-0.3 l-0.3,13.4c-0.1,7.2-0.4,10.9-0.7,8.2c-0.5-5.2-0.7-5.2-6.7-5.2h-6l-0.1,5.2c-0.1,2.7-0.5,20.7-1.1,40l-0.8,34.9l-4.1,6.7 c-5,7.9-15,15.8-25.2,19.9C87.2,159.5,68.1,159.9,56.3,155.7z M95.5,152.7c2.7-1.1,5.5-1.6,6.1-1.2c0.7,0.4,1.2,0.1,1.2-0.7 s1-1,2.3-0.5c1.5,0.5,1.9,0.4,1.2-0.7c-0.5-1-0.1-1.6,1.1-1.6c4.5,0,19.5-16.9,18.3-20.7c-0.3-0.8-1.9,1.1-3.7,4.5 c-3.5,6.8-7.8,11.7-11.7,13.8c-1.9,1-1.4,0,1.5-3.1c5.3-5.9,9.4-12,10.6-15.8l1-3.1h-21.1H81v3.4c0,2.5,1.1,4,3.8,5 c5,2.2,5.2,2.5,3,3.8c-1.1,0.8-7.4,1.4-13.9,1.4H62.1l0.3-4.6c0.1-2.5,1.2-5.6,2.2-6.8c2.2-2.6,3.8-2.3-18.3-2.2 c-9,0.1-16.6,0.4-16.9,0.8c-0.4,0.4,0.7,3.4,2.6,6.8c5.5,10.5,19,19.5,33.1,22.2C74.7,155.3,90.3,154.9,95.5,152.7z M37.8,141.4 c-4.4-4.2-8.2-7.6-8.6-7.4c-0.7,0.5,14.6,15.3,15.8,15.3C45.3,149.3,42.2,145.8,37.8,141.4z M69.8,128.2c0.4-3.4,0.3-3.7-1.6-2.2 c-2.6,2.2-3,7.5-0.4,6.7C68.6,132.3,69.7,130.3,69.8,128.2z M67.8,108.1c-0.4-2.5-1.4-5.6-1.9-6.8c-1.6-3.1-1.5-8.9,0.1-10 c0.8-0.4,1.4-1.8,1.4-2.9c0-1.5-3.4-1.9-19.8-1.9H27.8v13v13h20.5h20.5C68.7,112.5,67.8,108.1,67.8,108.1z M124.7,99.5v-13h-15.8 c-9.1,0-15.4,0.5-15,1.2c1.1,1.6-3,19.5-4.8,21.3c-2.9,2.9-0.4,3.4,17.2,3.4h18.4C124.7,112.4,124.7,99.5,124.7,99.5z M89.1,100.2 c1.8-8,0-10.2-6.4-7.9c-2.3,1-4.6,2.5-5,3.5c-0.8,2.2,7.8,12.8,9.1,11.5C87.3,106.7,88.3,103.6,89.1,100.2z M79.7,75 c2-2.5-0.1-4.6-7.4-7.6c-3.3-1.5-4.1-1.4-5.2,0.5c-1.6,3-4.2,2.9-7.1-0.3c-2.2-2.5-2.2-2.7,1.1-6.4l3.3-4l3.3,3.1 c1.8,1.6,4,3,4.6,3c2.5,0,14.9,7.1,16.9,9.7c1.8,2.3,2.6,2.5,6.5,1s4.8-1.5,6.3,0.7c1.5,1.9,3.8,2.3,12.3,2.3h10.4V64V51H76.2H27.8 v13v13h25.1C73.8,77,78.3,76.6,79.7,75z"></path> </g> <g> <path class="st5" d="M61.9,157.6c-2-0.7,1.1-0.8,7.6-0.4c12,0.7,24.3-0.5,23.1-2.5c-0.4-0.5,0.7-0.8,2.3-0.3 c1.9,0.4,2.6,0.1,1.9-0.8c-0.7-1.1-0.3-1.4,1.1-0.8c5.2,2,23.5-13.5,27.6-23.3c1.5-3.7,1.9-13,1.9-43.6V47H76.2H25.1v38.9 c0,32.1,0.4,39.8,2,44.1c2.2,5,13.8,18,16.2,18c0.7,0-1.6-2.6-5-5.9c-11.5-10.5-11.9-12.4-11.9-55.8V48.4h49.8H126v36.7 c0,24.1-0.5,38.2-1.6,41.2c-2.2,6.5-8.5,15.4-13,18.3l-3.8,2.5l4.2-4.6c5.5-6,9.5-12,10.6-15.8l1-3.1H103c-11.3,0-20.6-0.4-20.6-1 c0-0.5,1.4-3,3.1-5.5l3-4.5h18.1h18v-13v-13h-15c-12.5,0-15.5-0.4-17.6-2.3c-4.5-4.5-4.4-6.7,1-9.1c3.8-1.9,4.5-1.9,3.1-0.4 c-1.1,1.4-1.2,2.3-0.1,3c0.7,0.4,1.4,0.4,1.4-0.1c0-0.4,0.8-0.1,1.9,0.7c1.4,1.1,2.2,1.2,2.9,0.1c0.4-0.7,5.6-1.4,11.7-1.4h10.8 v-13v-13H76.2H27.8v13v13.1L54.4,77c14.6-0.1,26.3-0.7,25.9-1.4c-0.4-0.5,0.3-1.9,1.5-2.9c1.8-1.4,2.3-1.4,3.3,0.1 c0.8,1.2,0.7,2.3-0.4,3c-0.8,0.4-1.5,3.4-1.5,6.3c-0.1,4.2-0.5,5.2-1.8,4.1c-1-0.8-1.8-2.6-1.8-4.1S79,79.7,78,80 c-2.6,0.8-8.3,10.1-8.6,13.8c-0.1,1.6-0.7,4.2-1.2,5.7c-0.8,2.2-0.8,2.3,0.4,0.7c1.4-1.8,1.8-1.8,3.3,0.1c0.8,1.1,3.3,3.3,5.5,4.5 c2,1.4,3.7,3.7,3.7,5c0,1.6,0.7,2.2,2,1.8c1.5-0.7,1.6,0,0.8,3.1c-0.7,2-2.2,5.7-3.4,7.9c-2.9,5.5-2.7,7,0.8,9.4 c3,2.2,2.9,2.2-2.7,2.2c-3.1,0-5.7,0.7-5.7,1.4c0,0.8-2.5,1.4-5.3,1.4c-5.3,0-5.5-0.1-5.2-4.8c0.3-2.6,1.1-5.5,2-6.4 c1.4-1.4,1.5-0.8,0.8,2.9c-0.8,4-0.5,4.5,1.6,4c1.9-0.4,2.6-1.6,2.6-4.9c0-2.3,0.7-4.4,1.5-4.4c1.5,0,6.8-6.8,5.7-7.2 c-0.3-0.1-1.8-1.1-3.4-2c-2.6-1.4-3.1-1.4-3.1,0.4c0,1.1,0.7,2,1.6,2c0.8,0,0.1,1.5-1.5,3.3c-3,3.1-4,3.3-21.7,3.4 c-10.2,0.1-18.8,0.5-19.2,1c-0.4,0.4,0.7,3.4,2.6,6.8c5.5,10.4,18.5,19.2,33.1,22.4l5.7,1.2l-7-0.5c-3.8-0.4-9.5-2-12.7-3.5 c-3.3-1.5-6.1-2.5-6.7-2c-0.4,0.4,2.6,2.3,6.7,4.2s5.9,3,4,2.6c-10.8-2.7-22.8-12.5-27.8-22.6c-3.5-7-3.5-7.6-3.5-36.1 c0-16-0.4-29.1-1-29.1c-0.7,0-0.8-4.4-0.7-9.7l0.5-9.7l-7,0.4c-6.7,0.5-7,0.4-7-2.9v-3.4l66.8,0.4l66.8,0.3v-4.8v-4.8L75.3,33 L8.1,32.7L76,32.3l67.8-0.3l-0.3,13.4c-0.1,7.2-0.4,10.9-0.7,8.2c-0.5-5.2-0.7-5.2-6.7-5.2h-6l-0.1,5.2c-0.1,2.7-0.5,20.7-1.1,40 l-0.8,34.9l-4.1,6.7c-5,7.9-15,15.8-25.2,19.9C90.7,158.2,68.5,159.7,61.9,157.6L61.9,157.6z M75.6,129.7c0-1.1-0.5-2.3-1.2-2.9 c-1.6-1-3.3,1.6-2.2,3.4C73.4,132.3,75.6,131.8,75.6,129.7z M67.8,108.1c-0.4-2.5-1.4-5.6-1.9-6.8c-1.6-3.1-1.5-8.9,0.1-10 c0.8-0.4,1.4-1.8,1.4-2.9c0-1.5-3.4-1.9-19.8-1.9H27.8v13v13h20.5h20.5C68.7,112.5,67.8,108.1,67.8,108.1z"></path> </g> <g> <path class="st6" d="M61.9,157.6c-2-0.7,1.1-0.8,7.6-0.4c12,0.7,24.3-0.5,23.1-2.5c-0.4-0.5,0.7-0.8,2.3-0.3 c1.9,0.4,2.6,0.1,1.9-0.8c-0.7-1.1-0.3-1.4,1.1-0.8c5.2,2,23.5-13.5,27.6-23.3c1.5-3.7,1.9-13,1.9-43.6V47H76.2H25.1v38.9 c0,32.1,0.4,39.8,2,44.1c2.2,5,13.8,18,16.2,18c0.7,0-1.6-2.6-5-5.9c-11.5-10.5-11.9-12.4-11.9-55.8V48.4h49.8H126v36.7 c0,24.1-0.5,38.2-1.6,41.2c-2.2,6.5-8.5,15.4-13,18.3c-3.1,2.2-2.9,1.5,1.8-3.8c10.8-12.1,10.8-12.1,11.2-53.2l0.4-36.4H76.3H27.7 l0.4,37.1l0.4,37.2l3.7,6.4c6.1,10.2,18.5,18.5,32.9,21.6l5.7,1.2l-7-0.5c-3.8-0.4-9.5-2-12.7-3.5c-3.3-1.5-6.1-2.5-6.7-2 c-0.4,0.4,2.6,2.3,6.7,4.2s5.9,3,4,2.6c-10.8-2.7-22.8-12.5-27.8-22.6c-3.5-7-3.5-7.6-3.5-36.1c0-16-0.4-29.1-1-29.1 c-0.7,0-0.8-4.4-0.7-9.7l0.5-9.7l-7,0.4c-6.7,0.5-7,0.4-7-2.9v-3.4l66.8,0.4l66.8,0.3v-4.8v-4.8L75.3,33L8.1,32.7L76,32.3l67.8-0.3 l-0.3,13.4c-0.1,7.2-0.4,10.9-0.7,8.2c-0.5-5.2-0.7-5.2-6.7-5.2h-6l-0.1,5.2c-0.1,2.7-0.5,20.7-1.1,40l-0.8,34.9l-4.1,6.7 c-5,7.9-15,15.8-25.2,19.9C90.7,158.2,68.5,159.7,61.9,157.6L61.9,157.6z"></path> <path class="st6" d="M62.3,132.3c0.3-2.6,1.1-5.5,2-6.4c1.4-1.4,1.5-0.8,0.8,2.9c-0.8,4-0.5,4.5,1.6,4c1.9-0.4,2.6-1.6,2.6-4.9 c0-2.3,0.7-4.4,1.5-4.4c1.5,0,6.8-6.8,5.7-7.2c-0.3-0.1-1.8-1.1-3.4-2c-2.6-1.4-3.1-1.4-3.1,0.3c0,1.1,0.7,2.2,1.5,2.5 c0.7,0.3-0.3,1.9-2.5,3.8c-2,1.8-2.9,2.2-1.6,1c2.3-2.6,1.9-6-2.3-23.2c-1.6-6.8,10.4-24.7,14.7-22c0.8,0.5,1.1,0.3,0.7-0.4 c-0.5-0.8,0-2.3,1.2-3.3c1.8-1.4,2.3-1.4,3.3,0.1c0.8,1.2,0.7,2.3-0.4,3c-0.8,0.4-1.5,3.4-1.5,6.3c-0.1,4.2-0.5,5.2-1.8,4.1 c-1-0.8-1.8-2.6-1.8-4.1s-0.7-2.5-1.6-2.2C75.3,81,69.6,90.3,69.3,94c-0.1,1.6-0.7,4.2-1.2,5.7c-0.8,2.2-0.8,2.3,0.4,0.7 c1.4-1.8,1.8-1.8,3.3,0.1c0.8,1.1,3.3,3.3,5.5,4.5c2,1.4,3.7,3.7,3.7,5c0,1.6,0.7,2.2,2,1.8c1.5-0.7,1.6,0,0.8,3.1 c-0.7,2-2.2,5.7-3.4,7.9c-2.9,5.5-2.7,7,0.8,9.4c3,2.2,2.9,2.2-2.7,2.2c-3.1,0-5.7,0.7-5.7,1.4c0,0.8-2.5,1.4-5.3,1.4 C62.2,137,62.1,136.9,62.3,132.3L62.3,132.3z M75.6,129.7c0-1.1-0.5-2.3-1.2-2.9c-1.6-1-3.3,1.6-2.2,3.4 C73.4,132.3,75.6,131.8,75.6,129.7z"></path> </g> <g> <path class="st7" d="M61.9,157.5c-1.9-0.5,1.6-0.7,7.6-0.3c12,0.7,24.3-0.5,23.1-2.5c-0.4-0.5,0.7-0.8,2.3-0.3 c1.9,0.4,2.6,0.1,1.9-0.8c-0.7-1.1-0.3-1.4,1.1-0.8c5.2,2,23.5-13.5,27.6-23.3c1.5-3.7,1.9-13,1.9-43.6V47H76.2H25.1v38.9 c0,32.1,0.4,39.8,2,44.1c2.2,5,13.8,18,16.2,18c0.7,0-1.6-2.6-5-5.9c-11.5-10.5-11.9-12.4-11.9-55.8V48.4h49.8H126v36.7 c0,24.1-0.5,38.2-1.6,41.2c-2.2,6.5-8.5,15.4-13,18.3c-3.1,2.2-2.9,1.5,1.8-3.8c10.8-12.1,10.8-12.1,11.2-53.2l0.4-36.4H76.3H27.7 l0.4,37.1l0.4,37.2l3.7,6.4c6.1,10.2,18.5,18.5,32.9,21.6l5.7,1.2l-7-0.5c-3.8-0.4-9.5-2-12.7-3.5c-3.3-1.5-6.1-2.5-6.7-2 c-0.4,0.4,2.6,2.3,6.7,4.2s5.9,3,4,2.6c-10.8-2.7-22.8-12.5-27.8-22.6c-3.5-7-3.5-7.6-3.5-36.1c0-16-0.4-29.1-1-29.1 c-0.7,0-1-4.9-0.7-10.9l0.5-10.9h53.6H130l-0.7,39.3c-0.4,21.6-1.4,41.1-2,43.5c-3.5,11.5-16.9,22.9-32.5,27.7 C85.9,158.8,68.9,159.7,61.9,157.5L61.9,157.5z"></path> <path class="st7" d="M62.3,132.3c0.3-2.6,1.1-5.5,2-6.4c1.4-1.4,1.5-0.8,0.8,2.9c-0.8,4-0.5,4.5,1.6,4c1.9-0.4,2.6-1.6,2.6-4.9 c0-2.3,0.7-4.4,1.5-4.4c1.5,0,6.8-6.8,5.7-7.2c-0.3-0.1-1.8-1.1-3.4-2c-2.6-1.4-3.1-1.4-3.1,0.3c0,1.1,0.7,2.2,1.5,2.5 c0.7,0.3-0.3,1.9-2.5,3.8c-2,1.8-2.9,2.2-1.6,1c2.2-2.6,1.9-6.1-2.3-23.1c-0.5-2.5,0-5.6,1.4-8.6c3.1-6.5,11.2-14.9,13.2-13.5 c1,0.5,1.2,0.4,0.8-0.4c-0.5-0.8,0-2.3,1.2-3.3c1.8-1.4,2.3-1.4,3.3,0.1c0.8,1.2,0.7,2.3-0.4,3c-0.8,0.4-1.5,3.4-1.5,6.3 c-0.1,4.2-0.5,5.2-1.8,4.1c-1-0.8-1.8-2.6-1.8-4.1s-0.7-2.5-1.6-2.2C75.3,81,69.6,90.3,69.3,94c-0.1,1.6-0.7,4.2-1.2,5.7 c-0.8,2.2-0.8,2.3,0.4,0.7c1.4-1.8,1.8-1.8,3.3,0.1c0.8,1.1,3.3,3.3,5.5,4.5c2,1.4,3.7,3.7,3.7,5c0,1.6,0.7,2.2,2,1.8 c1.5-0.7,1.6,0,0.8,3.1c-0.7,2-2.2,5.7-3.4,7.9c-2.9,5.5-2.7,7,0.8,9.4c3,2.2,2.9,2.2-2.7,2.2c-3.1,0-5.7,0.7-5.7,1.4 c0,0.8-2.5,1.4-5.3,1.4C62.2,137,62.1,136.9,62.3,132.3L62.3,132.3z M75.6,129.7c0-1.1-0.5-2.3-1.2-2.9c-1.6-1-3.3,1.6-2.2,3.4 C73.4,132.3,75.6,131.8,75.6,129.7z"></path> <path class="st7" d="M88.7,101.6c1.1-5.9,1.9-7,1.9-2.6c0,1.8-0.7,4.2-1.4,5.3C88.3,105.8,88.1,105,88.7,101.6z"></path> <path class="st7" d="M89.8,81.6c-0.5-1.5-1.1-3-1.4-3.4s1.8-1.9,4.5-3.1c4.2-2,4.8-2,3.3-0.3c-1.8,2.2-1.6,2.3,1.5,2.7 c2.6,0.3,2.7,3.1,0.1,4c-1.4,0.3-3.5,1.1-4.8,1.6C91.3,83.8,90.3,83.3,89.8,81.6z"></path> </g> <g> <path class="st8" d="M47.6,152.4c-7.5-4-14.7-10.4-18.7-16.6c-2-3.4-3.8-6.8-3.8-7.5c0-0.8,1.8,1.6,4.1,5.5 c4.1,7.4,10.6,13.2,19.8,18c3,1.6,4.9,2.9,4.1,2.9C52.4,154.6,49.9,153.7,47.6,152.4z"></path> <path class="st8" d="M56.6,152.6c-7.9-2.9-14.6-7.2-20.9-13.6c-8.6-9-9.3-12.7-9.3-53.2v-36h49.8H126v35.6c0,24-0.5,37.5-1.6,41.2 c-1.1,3.4-4.5,8.5-9,13.1c-6.7,7-7,7.1-1.9,1.1c10.5-12.5,10.5-12.3,10.9-53.2l0.4-36.4H76.2H27.8V87v35.9l3.5,7.1 c5.6,11.2,19,20.5,33.7,23.3c4.6,1,5,1.2,1.6,1.2C64.5,154.6,59.9,153.7,56.6,152.6L56.6,152.6z"></path> <path class="st8" d="M98.9,154.2c1.4-1.2,9.4-4.9,9.4-4.4c0,0.8-7.5,4.9-9,4.9C98.8,154.8,98.6,154.5,98.9,154.2z"></path> <path class="st8" d="M115.4,143.7c3.4-3.5,7.5-8.7,9.1-11.6c1.5-3,2.7-4.6,2.9-3.8c0,2.9-8.7,14.6-13.6,18.1 C109.8,149.3,110.1,148.8,115.4,143.7z"></path> <path class="st8" d="M62.5,130.9c-0.1-1.9,0.3-3,1-2.6c1.5,0.8,1.6,6,0.3,6C63,134.3,62.5,132.8,62.5,130.9z"></path> <path class="st8" d="M67.4,133.8c0-0.3,1-1.2,2-2.2c1.6-1.4,2-1.4,2,0.5c0,1.2-1,2.2-2,2.2C68.3,134.3,67.4,134,67.4,133.8z"></path> <path class="st8" d="M70.2,126.5c-0.1-1.8,0.4-3.1,1.1-3.1s2.2-1.6,3.5-3.5c2.2-3.3,2.2-3.5-0.3-5.5c-3.3-2.5-4.5-2.3-4.5,0.1 c0,1.1,0.7,2,1.5,2c0.7,0,1,0.7,0.5,1.4c-1.6,2.6-3,0.1-4-7.1c-0.5-3.8-1.6-8.2-2.3-9.5c-1-1.8,0.5-1.1,4.8,1.9 c3.4,2.5,6.1,5.2,6.1,6.1c0.1,1,1.1,1.4,2.2,1c2.5-1,2.6,0,0.7,3.7c-1.9,3.3,0.7,3.5,2.7,0.3c1.1-2,1.2-1.8,0.7,1.5 c-0.3,2.3-1.9,5.3-3.5,6.8c-1.6,1.6-2.6,2-2,1.2c0.5-1,0.5-1.8-0.1-1.8c-1.8,0.1-5.3,3.3-6.3,5.5C70.5,128.8,70.2,128.6,70.2,126.5 z"></path> <path class="st8" d="M64.7,94.5c0-2.7,9.1-16.1,10.9-16.1c0.7,0-0.3,2.3-2,5.2C69.8,89.1,64.7,95.6,64.7,94.5z"></path> <path class="st8" d="M80.6,76.5c-0.8-2.2,0.1-3.5,2.6-3.5c1,0,1.4,1.1,1,2.7C83.3,78.8,81.6,79.2,80.6,76.5z"></path> <path class="st8" d="M22.1,56.6l0.5-10.9h53.7H130L129.9,57c-0.1,8.3-0.4,9.3-0.7,3.7c-0.3-4.1-0.7-8.9-1.1-10.5l-0.7-3.1h-51 c-57.8,0-52.6-1.2-52.6,12.4c0,4.4-0.4,8-1,8C22.1,67.5,21.8,62.6,22.1,56.6z"></path> <path class="st8" d="M142.7,53.8c0-2.6,0.3-3.7,0.7-2.3c0.3,1.2,0.3,3.4,0,4.8C142.9,57.5,142.7,56.4,142.7,53.8z"></path> <path class="st8" d="M142.4,38.8v-5.5L75.3,33L8.1,32.7L76,32.3l67.8-0.3v6.1c0,3.4-0.3,6.1-0.7,6.1 C142.7,44.3,142.4,41.8,142.4,38.8z"></path> </g> </svg> 