<?xml version="1.0" encoding="utf-8"?>
<!-- Generator: Adobe Illustrator 27.0.0, SVG Export Plug-In . SVG Version: 6.00 Build 0)  -->
<svg version="1.1" id="Capa_1" xmlns="http://www.w3.org/2000/svg" xmlns:xlink="http://www.w3.org/1999/xlink" x="0px" y="0px"
	 viewBox="0 0 24 24" style="enable-background:new 0 0 24 24;" xml:space="preserve">
<style type="text/css">
	.st0{fill:none;stroke:#FFFFFF;stroke-width:2;stroke-linecap:round;stroke-linejoin:round;}
</style>
<path class="st0" d="M14,3v4c0,0.6,0.4,1,1,1h4"/>
<path class="st0" d="M17,21H7c-1.1,0-2-0.9-2-2V5c0-1.1,0.9-2,2-2h7l5,5v11C19,20.1,18.1,21,17,21z"/>
<path class="st0" d="M10,16c0,0.6,0.4,1,1,1s1-0.4,1-1c0-0.6-0.4-1-1-1S10,15.4,10,16"/>
<path class="st0" d="M12,16v-5l2,1"/>
</svg>
