<?xml version="1.0" encoding="UTF-8"?> <!-- Generator: Adobe Illustrator 23.0.1, SVG Export Plug-In . SVG Version: 6.00 Build 0) --> <svg xmlns="http://www.w3.org/2000/svg" xmlns:xlink="http://www.w3.org/1999/xlink" version="1.1" id="Capa_1" x="0px" y="0px" viewBox="0 0 400 200" style="enable-background:new 0 0 400 200;" xml:space="preserve"> <style type="text/css"> .st0{fill:#6C757D;} </style> <g> <path class="st0" d="M111.3,181.4c0-0.6,0.8-4.8,1.8-9.3c1-4.5,1.8-8.4,1.8-8.6c0-0.3,0.8-0.5,1.8-0.5h1.8l-0.4,4 c-0.2,2.2-0.5,6.5-0.7,9.5l-0.4,5.6l-2.8,0.2C111.7,182.5,111.3,182.3,111.3,181.4L111.3,181.4z"></path> <path class="st0" d="M141.9,178.7c-1.5-1.6-1.6-4.3-0.6-12.2l0.7-5.2h2c2,0,2.1,0,1.6,2.2c-0.2,1.2-0.5,4.2-0.7,6.6 c-0.4,5,0.3,6.3,3,5.6c2.1-0.5,3.2-2.5,3.8-6.9c1.2-8,1.1-7.6,2.9-7.6c2.1,0,2.1,0,0.9,8.4c-1.5,10.5-1.3,9.8-3.2,9.8 c-1.2,0-1.8-0.3-1.8-0.9c0-0.8-0.3-0.7-1.7,0.3C146.6,180.5,143.5,180.4,141.9,178.7L141.9,178.7z"></path> <path class="st0" d="M175.4,179.1c-2.8-2-3.8-6.8-2.1-11.5c2.1-5.7,7.6-8.6,11.5-6c1,0.7,1.5,0.8,1.6,0.3c0.2-0.8,4.2-0.9,4.2-0.1 c0,0.3-0.4,3.3-0.9,6.8c-0.8,5.6-0.8,6.4,0,7.6c1.1,1.6,0.6,3.9-0.8,3.9c-0.5,0-1.7-0.5-2.5-1.2l-1.5-1.2l-1.9,1.2 C180.5,180.3,177.2,180.4,175.4,179.1L175.4,179.1z M183.7,174.8c1.6-1.5,2.3-7.6,1.1-9c-1.3-1.5-4.3-1.4-5.9,0.3 C174,171.4,178.6,179.7,183.7,174.8z"></path> <path class="st0" d="M231.1,179.1c0-0.6,0.7-6.3,1.6-12.6l1.6-11.6h1.9c2.2,0,2.1-0.3,1,6l-0.3,1.5l2.5-0.8 c5.8-2.1,10.1,2.1,9.1,8.8c-1.1,7.2-8,12.1-12.6,8.9c-1.2-0.8-1.3-0.8-1.3,0c0,0.6-0.6,0.9-1.8,0.9 C231.6,180.1,231.1,179.8,231.1,179.1z M242.1,174.6c4.6-4.2,1.8-11.8-3.7-9.6c-1.9,0.8-2,1-2.4,4.9c-0.3,2.2-0.5,4.2-0.5,4.6 c0,0.9,2.8,2.1,4.1,1.7C240.2,175.9,241.4,175.2,242.1,174.6z"></path> <path class="st0" d="M266.7,178.7c-4.1-4.1-2.8-13.1,2.5-16.7c2.3-1.6,4.7-1.7,7.1-0.5c1,0.5,1.8,0.6,1.8,0.3 c0-0.3,0.9-0.6,2.1-0.6h2.2l-0.4,2.5c-0.9,6.2-1.1,12.2-0.4,13c1,1.2,0.2,3.3-1.1,3.3c-0.6,0-1.8-0.5-2.6-1.2 c-1.5-1.2-1.6-1.2-2.7-0.2c-0.6,0.6-2.5,1.2-4.1,1.4C268.5,180.2,268,180,266.7,178.7L266.7,178.7z M276.1,174.7 c0.2-0.3,0.6-2.1,0.9-4.1c0.5-3.1,0.4-3.8-0.4-4.7c-1.9-2.1-5.5-1.2-7,1.8c-1.8,3.5-0.9,7.4,2.1,8.3 C272.6,176.4,275.5,175.5,276.1,174.7L276.1,174.7z"></path> <path class="st0" d="M285.5,179.6c-1-0.9-0.4-3.2,1.1-3.8c2.4-1.1,4.4,1.6,2.5,3.5C288.3,180.1,286.2,180.3,285.5,179.6z"></path> <path class="st0" d="M120.7,179c0-0.6,2.2-16.9,2.6-19.3l0.4-1.9h5.5c5,0,5.6,0.1,7.2,1.5c2.4,2,2.9,4.8,1.4,8.2 c-1.6,3.6-4,5-8.6,5h-3.6l-0.4,3.5l-0.4,3.5h-2C121.6,179.5,120.7,179.3,120.7,179L120.7,179z M133,167.7c1.4-0.7,2-3.2,1.2-4.7 c-0.5-0.9-1.2-1.2-3.8-1.2c-3.1,0-3.2,0.1-3.5,1.8c-0.8,4.2-0.6,4.6,2.3,4.6C130.7,168.3,132.4,168.1,133,167.7z"></path> <path class="st0" d="M159,178.5c0.2-0.6,0.8-4.7,1.4-9.1l1.1-8.1h1.9c1.3,0,1.9,0.3,1.9,0.8c0,0.6,0.5,0.6,2.2-0.4 c1.5-0.9,2.7-1.1,3.8-0.9l1.5,0.4l-1.2,2.1c-0.8,1.2-1.5,1.9-2,1.8c-1.4-0.5-3.6,0.7-4.5,2.4c-0.5,0.9-1.2,3.9-1.6,6.8l-0.7,5.1 h-2.1C159.1,179.5,158.8,179.3,159,178.5L159,178.5z"></path> <path class="st0" d="M202.5,178.5c0.1-0.6,0.9-5.5,1.6-10.9l1.4-9.9h7.6c7.6,0,7.6,0,7.2,1.4c-0.2,0.7-0.4,1.6-0.4,2.1 c0,0.5-1.5,0.7-5.5,0.7h-5.5l-0.2,2.3l-0.2,2.3h4c4.2,0,4.3,0.1,3.6,2.8c-0.4,1.2-0.7,1.3-4.3,1.3h-4l-0.4,3.4 c-0.6,5.2-0.8,5.4-3.1,5.4C202.6,179.5,202.3,179.3,202.5,178.5L202.5,178.5z"></path> <path class="st0" d="M223.1,170.5l1.2-9l1.9-0.2c2.3-0.2,2.2-0.6,0.7,9.6c-0.6,4.2-1.2,7.8-1.2,8.1c0,0.2-0.9,0.4-1.9,0.4h-1.9 L223.1,170.5z"></path> <path class="st0" d="M252,170.5c0.7-4.9,1.4-9,1.4-9.1c0.1-0.1,0.9-0.2,1.8-0.2c1.4,0,1.8,0.2,1.8,1.4c0.1,1.1,0.1,1.2,0.6,0.3 c0.8-1.2,4.3-2.4,5.9-1.9l1.2,0.4l-1.2,1.8c-0.6,1.1-1.6,1.9-2.2,1.9c-0.6,0.1-1.5,0.1-2.1,0.2c-1.6,0.1-2.8,2.5-3.4,6.6 c-1.2,8.1-1.1,7.6-3.2,7.6h-1.9L252,170.5L252,170.5z"></path> <path class="st0" d="M286.5,170.8c0.2-1.2,0.5-5.1,0.6-8.7c0.5-8.8,0.4-8.5,3.8-8.5h2.8l-2,9.5c-1.1,5.2-2,9.6-2,9.7 c0,0.1-0.8,0.2-1.8,0.2C286.2,173,286.2,172.9,286.5,170.8L286.5,170.8z"></path> <path class="st0" d="M115.4,159.8c-0.6-0.7-0.6-1.2-0.1-2.4c0.9-2,3.8-1.8,4.1,0.2C119.8,160.2,117,161.7,115.4,159.8L115.4,159.8z "></path> <path class="st0" d="M225.2,158c-1.5-1.8,0.8-4.3,3.2-3.5c1.3,0.5,1.2,3-0.2,3.8C226.7,159.1,226.1,159.1,225.2,158L225.2,158z"></path> </g> <g> <path class="st0" d="M138.6,153c-16.2-3.1-28.2-11.9-35.5-26.1c-5.2-10-7.1-19-7.1-32.9c0-13.6,2.2-23.4,7.4-33.3 c11.2-21.3,33.2-31.5,59.5-27.4c11.9,1.8,23.4,7.4,26.2,12.7c2.3,4.5-0.2,11.7-4.9,14.4c-3.4,2-6,1.6-12.9-1.5 c-12.9-5.9-25.6-6.4-35.1-1.4c-7,3.7-13.5,12.5-16,21.6c-1.3,4.6-1.8,20.2-0.9,25.1c2.3,12.2,7.8,20.4,16.6,24.8 c5.5,2.7,9.3,3.4,17.4,3.1c7.6-0.3,12.3-1.5,14.5-3.6c1.4-1.4,1.4-1.6,1.4-11.7v-10.3h-9.6c-10.5,0-12.7-0.4-15.2-2.7 c-3.1-3-3.7-10.6-1.1-14.7c2.3-3.9,2.9-4,23.2-4c17.3,0,18.3,0.1,20.3,1.2c2.8,1.6,4.5,4.4,5,8c0.2,1.7,0.3,11.3,0.2,21.3 c-0.3,21-0.5,22.1-5.2,26.8c-3.6,3.6-12,7.8-19.7,9.7C159.7,153.9,145.8,154.4,138.6,153L138.6,153z"></path> <path class="st0" d="M203.3,151.8c-0.2-0.2-0.4-6.6-0.4-14c0-14.9,0.1-15.3,3.3-14.9c1.4,0.2,2.5,1.5,7.8,10.4l6.2,10.2l0.3-10.2 l0.3-10.2h2.1h2.1l0.2,13.7c0.2,14.9,0.1,15.5-3,15.2c-1.5-0.2-2.3-1.2-8-10.3l-6.2-10.2l-0.3,10.2l-0.3,10.2l-1.8,0.2 C204.5,152.1,203.5,152,203.3,151.8L203.3,151.8z"></path> <path class="st0" d="M235.3,151.1c-6.9-3.4-6.9-16.7,0-20.2c4.8-2.4,10.3-0.9,12.6,3.6c1.5,2.8,1.8,6.4,0.6,7.5 c-0.5,0.5-2.9,0.7-7,0.7c-5.8,0-6.3,0.1-6.3,1.1c0,0.6,0.6,1.8,1.5,2.6c1.7,1.8,4.5,2.1,7.6,0.6c2.6-1.2,4-0.8,3.8,1.3 C247.5,151.7,239.8,153.4,235.3,151.1L235.3,151.1z M244.5,138c0-1.1-3.4-4.1-4.7-4.1s-4.7,2.9-4.7,4.1c0,0.4,1.8,0.6,4.7,0.6 S244.5,138.4,244.5,138z"></path> <path class="st0" d="M257,151.7c-1.8-0.7-2.5-3.6-2.5-10.7v-7h-1.8c-1.6,0-1.8-0.2-1.6-1.6c0.1-1.3,0.5-1.7,1.8-1.8 c1.5-0.2,1.6-0.4,1.8-3.2l0.2-3.1h2.1h2.1l0.2,3.1l0.2,3.1l2.8,0.2c2.5,0.2,2.8,0.3,2.8,1.6c0,1.4-0.2,1.5-2.8,1.6l-2.8,0.2v6.3 c0,7.2,0.4,7.9,3.6,7.3c1.8-0.4,2.2-0.2,2.5,1c0.6,2-1.5,3.5-4.9,3.4C259,152.1,257.4,151.9,257,151.7L257,151.7z"></path> <path class="st0" d="M222.5,115.5c-12.3-2.4-21.4-9-26.6-19.4c-3.6-7.3-5.2-16.7-4.2-26.1c2.4-23.3,19.2-37,43.5-35.6 c7.6,0.5,11.9,1.6,17.9,4.7c8.3,4.3,14.6,12,17.7,21.8c3.1,9.3,2.5,23.5-1.2,32.7c-4.1,10.1-13,18-23.8,21 C240,116.2,228.4,116.6,222.5,115.5z M238.6,97.2c10.9-3.2,15.9-19.2,10.5-33.5c-1.8-4.8-6.2-9.2-10.7-10.5c-7.3-2.1-16-0.1-20,4.6 c-7.7,9.1-7,30.4,1.2,36.7C224.3,97.9,232.3,99.1,238.6,97.2z"></path> <path class="st0" d="M278.4,65.5c-0.2-0.2-0.4-1.6-0.4-3.1c0-4.2-1.5-10.2-3.6-14.6c-2.6-5.6-7.3-10.1-13.6-13.1 c-2.6-1.3-4.9-2.7-4.9-3.1c0-2.1,11.5-0.1,17,3c3.6,2,6.9,6.2,8.2,10.2c1.8,5.5,0.7,20.5-1.5,20.9 C279.2,65.8,278.7,65.7,278.4,65.5L278.4,65.5z"></path> <path class="st0" d="M290.5,64.2c-0.5-0.2-0.8-2-0.8-6.3c0-18-9-30.1-26-34.7c-3.2-0.9-3.9-1.3-3.9-2.2c0-1.1,0.3-1.2,7.5-0.8 c8.3,0.4,13.5,1.5,18,3.7c11,5.5,14.1,17.6,8.8,34.5C292.5,63.4,291.7,64.7,290.5,64.2z"></path> </g> </svg> 