<svg id="Capa_1" data-name="Capa 1" xmlns="http://www.w3.org/2000/svg" xmlns:xlink="http://www.w3.org/1999/xlink" viewBox="0 0 249.84 250.95"><defs><style>.cls-1{fill:url(#Degradado_sin_nombre_34);}.cls-2{fill:url(#Degradado_sin_nombre_34-2);}.cls-3{fill:url(#Degradado_sin_nombre_34-3);}.cls-4{fill:url(#Degradado_sin_nombre_34-4);}.cls-5{fill:url(#Degradado_sin_nombre_34-5);}.cls-6{fill:url(#Degradado_sin_nombre_34-6);}.cls-7{fill:url(#Degradado_sin_nombre_34-7);}.cls-8{fill:url(#Degradado_sin_nombre_34-8);}</style><linearGradient id="Degradado_sin_nombre_34" x1="78.81" y1="16.19" x2="79.23" y2="16.61" gradientUnits="userSpaceOnUse"><stop offset="0" stop-color="#173ef5"/><stop offset="0.97" stop-color="#6014f4"/></linearGradient><linearGradient id="Degradado_sin_nombre_34-2" x1="79.14" y1="12.44" x2="119.58" y2="52.88" xlink:href="#Degradado_sin_nombre_34"/><linearGradient id="Degradado_sin_nombre_34-3" x1="155.85" y1="22.29" x2="176.67" y2="43.12" xlink:href="#Degradado_sin_nombre_34"/><linearGradient id="Degradado_sin_nombre_34-4" x1="82.82" y1="74.23" x2="83.1" y2="74.52" xlink:href="#Degradado_sin_nombre_34"/><linearGradient id="Degradado_sin_nombre_34-5" x1="108.29" y1="32.99" x2="108.59" y2="33.29" xlink:href="#Degradado_sin_nombre_34"/><linearGradient id="Degradado_sin_nombre_34-6" x1="73.34" y1="197.25" x2="73.61" y2="197.52" xlink:href="#Degradado_sin_nombre_34"/><linearGradient id="Degradado_sin_nombre_34-7" x1="52.4" y1="127.11" x2="53.06" y2="127.77" xlink:href="#Degradado_sin_nombre_34"/><linearGradient id="Degradado_sin_nombre_34-8" x1="87.37" y1="92.17" x2="87.75" y2="92.56" xlink:href="#Degradado_sin_nombre_34"/></defs><path class="cls-1" d="M49.29.9a12.69,12.69,0,0,0-5.44,5.68c-.83,1.82-.93,3.73-.93,26.28V57.17l1.23,2.3,1.17,2.26L44.15,64l-1.23,2.31V115l1.27,2.59a10.82,10.82,0,0,0,7.6,5.89,72.79,72.79,0,0,0,10,.54h7.6v3.72c0,5,.74,7.6,2.84,10,3.53,4.12-.19,3.87,51.77,3.87,33.09,0,46.52-.14,47.89-.54a11.26,11.26,0,0,0,6.38-5.54c.68-1.51.93-3.18.93-6.76v-4.71l9.21-.19c8.24-.15,9.37-.3,11.18-1.23,2.65-1.42,5.39-4.51,6-6.86.34-1.18.54-10.34.54-25.44V66.83l-1.28-2.55-1.27-2.55,1.27-2.55,1.28-2.55V33.15c0-16.42-.15-24.07-.59-25.39a13,13,0,0,0-6-6.86C197.68,0,194.44,0,124.29,0,53.8,0,51,.06,49.29.9Zm147.85,8,1.17,1.38v45.1l-1.22,1.17-1.18,1.23H182.68c-8.88,0-13.63.19-14.46.54-2.41,1.12-2.6,5.59-.3,6.81.54.3,6.37.49,14,.49,13.29,0,14.42.15,15.79,1.91.44.59.59,6.38.63,23.24v22.5l-1.42,1.42-1.42,1.42H124.78c-75.29,0-72.84.1-73.72-2.2-.15-.44-.3-10.93-.3-23.34V68.05L52,66.88l1.17-1.23H154.39l1.13-1.08a3.9,3.9,0,0,0-.15-5.73c-1.32-1-1.47-1-51.76-1H53.16L52,56.58l-1.23-1.17V9.92l1.13-1A5.77,5.77,0,0,1,54,7.66c.54-.15,32.7-.2,71.47-.15l70.54,0ZM171.35,128.1c0,3.73-.09,4.22-1.07,4.91s-6.18.78-46,.78h-45l-1-1.27c-.83-1.08-1-2-1-4.91V124h94.12Z"/><path class="cls-2" d="M70.13,22.46a11.34,11.34,0,0,0-.59,20.3c2.06,1.08,2.25,1.08,28.28,1.22,18,.1,27,0,28.73-.39a12.06,12.06,0,0,0,7.6-6c.83-1.57,1-2.64.83-5.54-.2-4.6-1.81-7.15-5.74-9.16l-2.69-1.33H99.34C73.85,21.53,71.94,21.63,70.13,22.46Zm56.12,7.9a3.21,3.21,0,0,1-.34,4.9c-1.27,1-1.52,1-27,.88L73.21,36l-.93-1.17a2.93,2.93,0,0,1,.15-4.32l1-1.12H99.39C124.64,29.38,125.32,29.43,126.25,30.36Z"/><path class="cls-3" d="M156.11,22.91c-3.73,2-5.49,4.6-5.74,8.62-.24,3.73.44,6.18,2.5,8.43,5,5.84,14.81,4.81,18.29-1.91.68-1.32.73-1.32,5.83-1.32,5.59,0,7.21-.44,8-2.3s.64-3-.69-4.32c-1.12-1.17-1.47-1.22-6.86-1.22-4.95,0-5.69-.1-6-.89a11.14,11.14,0,0,0-5.2-5.24A10.44,10.44,0,0,0,156.11,22.91Z"/><path class="cls-4" d="M70.37,80.41a11.28,11.28,0,0,0-6.76,11.22,10.39,10.39,0,0,0,5.73,8.92l2.6,1.38h27.4c29.71,0,28.92,0,32.26-2.75,2.3-2,3.48-4.7,3.48-8.43a10.5,10.5,0,0,0-6-10c-1.72-.88-3.19-.93-29.66-.88C82.38,79.92,71.11,80.11,70.37,80.41Zm55.84,8c1.42,1.27,1.37,3.92,0,4.9-1,.69-4.37.78-27,.78H73.36l-1-1.07c-1.66-1.82-1.17-4.07,1.18-5.1,1.22-.54,6.27-.64,26.57-.54C124,87.47,125.23,87.51,126.21,88.4Z"/><path class="cls-5" d="M156.4,80.7c-4.31,2.26-6.37,6-6,11.08.35,5.69,4.22,9.66,9.71,10,4.85.34,8.77-1.57,10.88-5.3l1.13-2h5.73c5.59,0,5.74,0,6.72-1.27,1.37-1.72,1.27-3.29-.15-5C183.27,87,183,87,177.58,86.73L172,86.49l-1.67-2.21a10.66,10.66,0,0,0-9.26-4.41A12,12,0,0,0,156.4,80.7Z"/><path class="cls-6" d="M82.14,149A11.58,11.58,0,0,0,74,155.36c-.83,1.52-.93,3.19-1.08,16.52l-.2,14.85H40.47v-2.35a6.59,6.59,0,0,0-6.86-7c-2.5,0-3.83,1-11.87,9.17-11.62,11.76-11.62,11.61.54,23.72,7.21,7.26,8.38,8.24,10.15,8.53,4.56.74,8-2.3,8-7.06v-2.5H63.75c18.48,0,23.63-.15,24.91-.64a12.88,12.88,0,0,0,5.88-5.44c1.08-2,1.08-2.25,1.08-24.07,0-21.66,0-22.1-1.08-24A11.47,11.47,0,0,0,82.14,149Zm4.75,8.92c.83.93.88,2.35.88,21.32v20.35l-1.17.93c-1.08.88-2.26.93-25.84.93-17,0-25,.15-25.83.54-1.57.73-2.3,2.4-2.3,5.24v2.31l-4-3.92c-2.15-2.16-4.6-4.76-5.44-5.79l-1.52-1.91L27,192.57l5.34-5.35.29,2.8c.54,4.85-.88,4.56,24.17,4.56,21.13,0,21.72-.05,22.75-1s1.08-1.18,1.08-17.31c0-17.3.09-18.14,2.4-19.26A3,3,0,0,1,86.89,157.91Z"/><path class="cls-7" d="M122.33,149a11.84,11.84,0,0,0-8.77,8.08c-.34,1.43-.54,10.89-.54,28.34,0,25.73,0,26.22,1,27.5a4.2,4.2,0,0,0,5.83.29c1-1,1-1.61,1-27.4V159.33L122,158a3.24,3.24,0,0,1,4.75-.44c.94.83,1,1.91,1.08,36.32l.15,35.44,1,1.08a6.4,6.4,0,0,0,3.73,1.37l2.64.3-5.54,5.34-5.59,5.34-5.39-5.34-5.34-5.34,2.79-.35c3.29-.44,4.56-1.57,4.56-4.11,0-3-1.17-3.63-7.11-3.63s-7.54.59-9.06,3.09a7.05,7.05,0,0,0-.49,6.07c.58,1.48,12.74,14,15.88,16.38a6.12,6.12,0,0,0,4.56,1.42h2.64l8.14-7.7c8.87-8.43,10.34-10.49,9.71-13.72-.69-3.78-3-5.54-7.11-5.54h-2.45V190.65c0-36.42.1-35.29-2.84-38.38A11.63,11.63,0,0,0,122.33,149Z"/><path class="cls-8" d="M162,149a11.6,11.6,0,0,0-8.14,6.37c-.88,1.62-.93,3.19-.93,23.77,0,21.82,0,22.06,1.08,24.07a12.83,12.83,0,0,0,5.88,5.44c1.28.49,6.42.64,24.9.64h23.29v2.5c0,4.76,3.48,7.8,8,7.06,1.76-.29,2.94-1.27,10.19-8.53,12.11-12.11,12.11-12,.45-23.72-8-8.14-9.32-9.17-11.82-9.17a6.58,6.58,0,0,0-6.86,7v2.35H175.86l-.19-14.85c-.15-14.07-.2-14.9-1.23-16.77A11.47,11.47,0,0,0,162,149Zm4.75,8.92c.79.88.89,2.45,1.13,18.09.25,16.32.3,17.11,1.23,17.79s4.12.74,22.6.79c25.05,0,23.62.29,24.16-4.56l.3-2.8,5.34,5.35,5.34,5.34-1.52,1.91c-.83,1-3.28,3.63-5.44,5.79l-4,3.92v-2.31c0-2.84-.73-4.51-2.3-5.24-.79-.39-8.83-.54-25.84-.54-23.57,0-24.75-.05-25.83-.93l-1.18-.93-.14-19.81c-.1-21.08,0-21.57,2.3-22.74A3,3,0,0,1,166.79,157.91Z"/></svg>