<?xml version="1.0" encoding="utf-8"?>
<!-- Generator: Adobe Illustrator 27.0.0, SVG Export Plug-In . SVG Version: 6.00 Build 0)  -->
<svg version="1.1" id="Capa_1" xmlns="http://www.w3.org/2000/svg" xmlns:xlink="http://www.w3.org/1999/xlink" x="0px" y="0px"
	 viewBox="0 0 1200 500" style="enable-background:new 0 0 1200 500;" xml:space="preserve">
<style type="text/css">
	.st0{fill:none;}
	.st1{fill-rule:evenodd;clip-rule:evenodd;fill:#E45865;}
	
		.st2{fill-rule:evenodd;clip-rule:evenodd;fill:url(#path-4_00000026843928953664947370000005033121647999064459_);fill-opacity:0.2;}
	.st3{fill-rule:evenodd;clip-rule:evenodd;fill:url(#path-8_00000130608315201600586240000000814066304923043205_);}
	
		.st4{fill-rule:evenodd;clip-rule:evenodd;fill:url(#path-8_00000011026485967018404100000016689978224837994624_);fill-opacity:0.2;}
	.st5{fill-rule:evenodd;clip-rule:evenodd;fill:#98DEDE;}
	
		.st6{fill-rule:evenodd;clip-rule:evenodd;fill:url(#path-11_00000150824419614318232410000014256064478989831570_);fill-opacity:0.2;}
	.st7{fill:#1C528A;}
	.st8{fill:#FFD4C4;}
	
		.st9{fill-rule:evenodd;clip-rule:evenodd;fill:url(#path-14_00000078025930575607277930000016996423583141560462_);fill-opacity:0.2;}
	
		.st10{fill-rule:evenodd;clip-rule:evenodd;fill:url(#path-23_00000127745182978417811100000005110344954728268432_);fill-opacity:0.2;}
	.st11{fill-rule:evenodd;clip-rule:evenodd;fill:url(#path-26_00000087394936868624323110000014476460517453926325_);}
	
		.st12{fill-rule:evenodd;clip-rule:evenodd;fill:url(#path-26_00000070113386220663563140000005833267193373719218_);fill-opacity:0.2;}
	
		.st13{fill-rule:evenodd;clip-rule:evenodd;fill:url(#path-29_00000155828506028948857220000013573866429317380235_);fill-opacity:0.2;}
	
		.st14{fill-rule:evenodd;clip-rule:evenodd;fill:url(#path-32_00000169518545554498538740000000663409834796542107_);fill-opacity:0.2;}
	
		.st15{fill-rule:evenodd;clip-rule:evenodd;fill:url(#path-38_00000181088746047474388610000009444328705792765568_);fill-opacity:0.2;}
	
		.st16{fill-rule:evenodd;clip-rule:evenodd;fill:url(#path-45_00000137811173665164585030000010192615424362056332_);fill-opacity:0.2;}
	
		.st17{fill-rule:evenodd;clip-rule:evenodd;fill:url(#path-54_00000139267604279639237990000004062247948973193618_);fill-opacity:0.2;}
	
		.st18{fill-rule:evenodd;clip-rule:evenodd;fill:url(#path-63_00000113323776032475510240000009534195058990706341_);fill-opacity:0.2;}
	
		.st19{fill-rule:evenodd;clip-rule:evenodd;fill:url(#path-72_00000145765302501835394390000017769685374563114387_);fill-opacity:0.2;}
	
		.st20{fill-rule:evenodd;clip-rule:evenodd;fill:url(#path-75_00000139263361255370357140000014078961489009432195_);fill-opacity:0.2;}
	.st21{fill-rule:evenodd;clip-rule:evenodd;fill:url(#path-81_00000183939350215799349560000009939573617494812564_);}
	
		.st22{fill-rule:evenodd;clip-rule:evenodd;fill:url(#path-81_00000103266689886423217130000008208353183571924111_);fill-opacity:0.2;}
	.st23{fill-rule:evenodd;clip-rule:evenodd;fill:url(#);fill-opacity:0.2;}
	.st24{fill-rule:evenodd;clip-rule:evenodd;fill:url(#path-100_00000051372253004259063430000001665284306223212971_);}
	
		.st25{fill-rule:evenodd;clip-rule:evenodd;fill:url(#path-100_00000065774435374455884700000011462813995427599248_);fill-opacity:0.2;}
	.st26{fill-rule:evenodd;clip-rule:evenodd;fill:url(#path-109_00000173163202105558989450000012540857712960389534_);}
	
		.st27{fill-rule:evenodd;clip-rule:evenodd;fill:url(#path-109_00000076591658472004587260000006755358647660929933_);fill-opacity:0.2;}
	.st28{fill-rule:evenodd;clip-rule:evenodd;fill:url(#path-112_00000045618357312091592850000000613570719966497185_);}
	
		.st29{fill-rule:evenodd;clip-rule:evenodd;fill:url(#path-112_00000033354025007939420080000002682142795591456417_);fill-opacity:0.2;}
	
		.st30{fill-rule:evenodd;clip-rule:evenodd;fill:url(#path-115_00000028313592702593064450000002421798569729922699_);fill-opacity:0.2;}
	.st31{fill-rule:evenodd;clip-rule:evenodd;fill:url(#path-121_00000040535174488525175150000017301642369659540867_);}
	
		.st32{fill-rule:evenodd;clip-rule:evenodd;fill:url(#path-121_00000003785650608899176420000016598946434432689849_);fill-opacity:0.2;}
	
		.st33{fill-rule:evenodd;clip-rule:evenodd;fill:url(#path-136_00000097485569752796562880000016247659573428091821_);fill-opacity:0.2;}
	
		.st34{fill-rule:evenodd;clip-rule:evenodd;fill:url(#path-142_00000061469496162301555270000005822461546865047956_);fill-opacity:0.2;}
	.st35{fill-rule:evenodd;clip-rule:evenodd;fill:url(#path-151_00000022533156329566234960000016867552805141336214_);}
	
		.st36{fill-rule:evenodd;clip-rule:evenodd;fill:url(#path-151_00000108301583230324203870000012189627550131716505_);fill-opacity:0.2;}
	.st37{fill-rule:evenodd;clip-rule:evenodd;fill:url(#path-154_00000013185348516469341600000006713571604743666317_);}
	
		.st38{fill-rule:evenodd;clip-rule:evenodd;fill:url(#path-154_00000005982830665738972960000004374404096915602337_);fill-opacity:0.2;}
</style>
<pattern  width="258" height="258" patternUnits="userSpaceOnUse" id="pattern-101" viewBox="0 -600 258 258" style="overflow:visible;">
	<g>
		<rect y="-600" class="st0" width="258" height="258"/>
		<g>
			
				<image style="overflow:visible;enable-background:new    ;" width="258" height="258" id="image-102_00000150780523059354863430000002688086805589515905_" xlink:href="805DF538DFE30480.png"  transform="matrix(1 0 0 -1 58 0)">
			</image>
		</g>
	</g>
</pattern>
<pattern  width="258" height="258" patternUnits="userSpaceOnUse" id="pattern-110" viewBox="542 -800 258 258" style="overflow:visible;">
	<g>
		<rect x="542" y="-800" class="st0" width="258" height="258"/>
		<g>
			
				<image style="overflow:visible;enable-background:new    ;" width="258" height="258" id="image-111_00000065794959054306006580000004055086822554923913_" xlink:href="805DF538DFE30481.png"  transform="matrix(1 0 0 -1 0 0)">
			</image>
		</g>
	</g>
</pattern>
<pattern  width="258" height="258" patternUnits="userSpaceOnUse" id="pattern-113" viewBox="942 -800 258 258" style="overflow:visible;">
	<g>
		<rect x="942" y="-800" class="st0" width="258" height="258"/>
		<g>
			
				<image style="overflow:visible;enable-background:new    ;" width="258" height="258" id="image-114_00000162336582826590857760000000132712858338682549_" xlink:href="805DF538DFE30487.png"  transform="matrix(1 0 0 -1 0 0)">
			</image>
		</g>
	</g>
</pattern>
<pattern  width="258" height="258" patternUnits="userSpaceOnUse" id="pattern-116" viewBox="0 -800 258 258" style="overflow:visible;">
	<g>
		<rect y="-800" class="st0" width="258" height="258"/>
		<g>
			
				<image style="overflow:visible;enable-background:new    ;" width="258" height="258" id="image-117_00000121264142341586926910000000358916479496802230_" xlink:href="805DF538DFE30482.png"  transform="matrix(1 0 0 -1 58 0)">
			</image>
		</g>
	</g>
</pattern>
<pattern  width="258" height="258" patternUnits="userSpaceOnUse" id="pattern-12" viewBox="143 -1000 258 258" style="overflow:visible;">
	<g>
		<rect x="143" y="-1000" class="st0" width="258" height="258"/>
		<g>
			
				<image style="overflow:visible;enable-background:new    ;" width="258" height="258" id="image-13_00000132783653837128443770000000012511268253050043_" xlink:href="805DF538DFE30483.png"  transform="matrix(1 0 0 -1 0 0)">
			</image>
		</g>
	</g>
</pattern>
<pattern  width="258" height="258" patternUnits="userSpaceOnUse" id="pattern-122" viewBox="392 -850 258 258" style="overflow:visible;">
	<g>
		<rect x="392" y="-850" class="st0" width="258" height="258"/>
		<g>
			
				<image style="overflow:visible;enable-background:new    ;" width="258" height="258" id="image-123_00000183967315776555663830000015670304516727101573_" xlink:href="805DF538DFE3048E.png"  transform="matrix(1 0 0 -1 0 0)">
			</image>
		</g>
	</g>
</pattern>
<pattern  width="258" height="258" patternUnits="userSpaceOnUse" id="pattern-137" viewBox="1192 -1050 258 258" style="overflow:visible;">
	<g>
		<rect x="1192" y="-1050" class="st0" width="258" height="258"/>
		<g>
			
				<image style="overflow:visible;enable-background:new    ;" width="258" height="258" id="image-138_00000155121296455576992550000015409642245621696426_" xlink:href="805DF538DFE3048F.png"  transform="matrix(1 0 0 -1 0 0)">
			</image>
		</g>
	</g>
</pattern>
<pattern  width="258" height="258" patternUnits="userSpaceOnUse" id="pattern-143" viewBox="592 -850 258 258" style="overflow:visible;">
	<g>
		<rect x="592" y="-850" class="st0" width="258" height="258"/>
		<g>
			
				<image style="overflow:visible;enable-background:new    ;" width="258" height="258" id="image-144_00000145022242914034352650000014356444760411587771_" xlink:href="805DF538DFE30484.png"  transform="matrix(1 0 0 -1 0 0)">
			</image>
		</g>
	</g>
</pattern>
<pattern  width="258" height="258" patternUnits="userSpaceOnUse" id="pattern-15" viewBox="543 -1000 258 258" style="overflow:visible;">
	<g>
		<rect x="543" y="-1000" class="st0" width="258" height="258"/>
		<g>
			
				<image style="overflow:visible;enable-background:new    ;" width="258" height="258" id="image-16_00000037650293080840248020000002265295698341433760_" xlink:href="805DF538DFE30485.png"  transform="matrix(1 0 0 -1 0 0)">
			</image>
		</g>
	</g>
</pattern>
<pattern  width="258" height="258" patternUnits="userSpaceOnUse" id="pattern-152" viewBox="992 -1050 258 258" style="overflow:visible;">
	<g>
		<rect x="992" y="-1050" class="st0" width="258" height="258"/>
		<g>
			
				<image style="overflow:visible;enable-background:new    ;" width="258" height="258" id="image-153_00000174586599457392635430000007735390364562334654_" xlink:href="8D9471385BCFA6DF.png"  transform="matrix(1 0 0 -1 0 0)">
			</image>
		</g>
	</g>
</pattern>
<pattern  width="258" height="258" patternUnits="userSpaceOnUse" id="pattern-155" viewBox="192 -1050 258 258" style="overflow:visible;">
	<g>
		<rect x="192" y="-1050" class="st0" width="258" height="258"/>
		<g>
			
				<image style="overflow:visible;enable-background:new    ;" width="258" height="258" id="image-156_00000090280023339962687670000002581486350947197603_" xlink:href="8D9471385BCFA6DD.png"  transform="matrix(1 0 0 -1 0 0)">
			</image>
		</g>
	</g>
</pattern>
<pattern  width="258" height="258" patternUnits="userSpaceOnUse" id="pattern-24" viewBox="542 -600 258 258" style="overflow:visible;">
	<g>
		<rect x="542" y="-600" class="st0" width="258" height="258"/>
		<g>
			
				<image style="overflow:visible;enable-background:new    ;" width="258" height="258" id="image-25_00000074413960593762374180000018234102588465771953_" xlink:href="8D9471385BCFA6DB.png"  transform="matrix(1 0 0 -1 0 0)">
			</image>
		</g>
	</g>
</pattern>
<pattern  width="258" height="258" patternUnits="userSpaceOnUse" id="pattern-27" viewBox="593 -650 258 258" style="overflow:visible;">
	<g>
		<rect x="593" y="-650" class="st0" width="258" height="258"/>
		<g>
			
				<image style="overflow:visible;enable-background:new    ;" width="258" height="258" id="image-28_00000092458324916849758750000011307933471398359706_" xlink:href="8D9471385BCFA6D5.png"  transform="matrix(1 0 0 -1 0 0)">
			</image>
		</g>
	</g>
</pattern>
<pattern  width="258" height="258" patternUnits="userSpaceOnUse" id="pattern-30" viewBox="1142 -800 258 258" style="overflow:visible;">
	<g>
		<rect x="1142" y="-800" class="st0" width="258" height="258"/>
		<g>
			
				<image style="overflow:visible;enable-background:new    ;" width="258" height="258" id="image-31_00000068665959593711732370000003329941185451189663_" xlink:href="8D9471385BCFA6D7.png"  transform="matrix(1 0 0 -1 0 0)">
			</image>
		</g>
	</g>
</pattern>
<pattern  width="258" height="258" patternUnits="userSpaceOnUse" id="pattern-33" viewBox="793 -650 258 258" style="overflow:visible;">
	<g>
		<rect x="793" y="-650" class="st0" width="258" height="258"/>
		<g>
			
				<image style="overflow:visible;enable-background:new    ;" width="258" height="258" id="image-34_00000018917974667438657880000015768725224960198843_" xlink:href="8D9471385BCFA6CA.png"  transform="matrix(1 0 0 -1 0 0)">
			</image>
		</g>
	</g>
</pattern>
<pattern  width="258" height="258" patternUnits="userSpaceOnUse" id="pattern-39" viewBox="794 -1050 258 258" style="overflow:visible;">
	<g>
		<rect x="794" y="-1050" class="st0" width="258" height="258"/>
		<g>
			
				<image style="overflow:visible;enable-background:new    ;" width="258" height="258" id="image-40_00000160902880555341214480000018355026441782339996_" xlink:href="8D9471385BCFA6CB.png"  transform="matrix(1 0 0 -1 0 0)">
			</image>
		</g>
	</g>
</pattern>
<pattern  width="258" height="258" patternUnits="userSpaceOnUse" id="pattern-46" viewBox="1042 -500 258 258" style="overflow:visible;">
	<g>
		<rect x="1042" y="-500" class="st0" width="258" height="258"/>
		<g>
			
				<image style="overflow:visible;enable-background:new    ;" width="258" height="258" id="image-47_00000053505108204287230910000004802543927393883303_" xlink:href="8D9471385BCFA6CD.png"  transform="matrix(1 0 0 -1 0 0)">
			</image>
		</g>
	</g>
</pattern>
<pattern  width="258" height="258" patternUnits="userSpaceOnUse" id="pattern-5" viewBox="43 -1000 258 258" style="overflow:visible;">
	<g>
		<rect x="43" y="-1000" class="st0" width="258" height="258"/>
		<g>
			
				<image style="overflow:visible;enable-background:new    ;" width="258" height="258" id="image-6_00000088821216706288518730000004540212646919502219_" xlink:href="8D9471385BCFA6CF.png"  transform="matrix(1 0 0 -1 0 0)">
			</image>
		</g>
	</g>
</pattern>
<pattern  width="258" height="258" patternUnits="userSpaceOnUse" id="pattern-55" viewBox="142 -600 258 258" style="overflow:visible;">
	<g>
		<rect x="142" y="-600" class="st0" width="258" height="258"/>
		<g>
			
				<image style="overflow:visible;enable-background:new    ;" width="258" height="258" id="image-56_00000117634527566398671930000016188467294040474010_" xlink:href="8D9471385BCFA6C8.png"  transform="matrix(1 0 0 -1 0 0)">
			</image>
		</g>
	</g>
</pattern>
<pattern  width="258" height="258" patternUnits="userSpaceOnUse" id="pattern-64" viewBox="143 -600 258 258" style="overflow:visible;">
	<g>
		<rect x="143" y="-600" class="st0" width="258" height="258"/>
		<g>
			
				<image style="overflow:visible;enable-background:new    ;" width="258" height="258" id="image-65_00000127765809326563612660000002244189129676573341_" xlink:href="8D9471385BCFA6EE.png"  transform="matrix(1 0 0 -1 0 0)">
			</image>
		</g>
	</g>
</pattern>
<pattern  width="258" height="258" patternUnits="userSpaceOnUse" id="pattern-73" viewBox="742 -800 258 258" style="overflow:visible;">
	<g>
		<rect x="742" y="-800" class="st0" width="258" height="258"/>
		<g>
			
				<image style="overflow:visible;enable-background:new    ;" width="258" height="258" id="image-74_00000039111483745497013610000002862350350879726485_" xlink:href="8D9471385BCFA6ED.png"  transform="matrix(1 0 0 -1 0 0)">
			</image>
		</g>
	</g>
</pattern>
<pattern  width="258" height="258" patternUnits="userSpaceOnUse" id="pattern-76" viewBox="942 -1000 258 258" style="overflow:visible;">
	<g>
		<rect x="942" y="-1000" class="st0" width="258" height="258"/>
		<g>
			
				<image style="overflow:visible;enable-background:new    ;" width="258" height="258" id="image-77_00000139294483081163917090000005633614741622145683_" xlink:href="8D9471385BCFA6EA.png"  transform="matrix(1 0 0 -1 0 0)">
			</image>
		</g>
	</g>
</pattern>
<pattern  width="258" height="258" patternUnits="userSpaceOnUse" id="pattern-82" viewBox="342 -1000 258 258" style="overflow:visible;">
	<g>
		<rect x="342" y="-1000" class="st0" width="258" height="258"/>
		<g>
			
				<image style="overflow:visible;enable-background:new    ;" width="258" height="258" id="image-83_00000024715055923748694210000017876472635938727838_" xlink:href="8D9471385BCFA6E5.png"  transform="matrix(1 0 0 -1 0 0)">
			</image>
		</g>
	</g>
</pattern>
<pattern  width="258" height="258" patternUnits="userSpaceOnUse" id="pattern-9" viewBox="0 -1000 258 258" style="overflow:visible;">
	<g>
		<rect y="-1000" class="st0" width="258" height="258"/>
		<g>
			
				<image style="overflow:visible;enable-background:new    ;" width="258" height="258" id="image-10_00000035500099926226323750000013264110305554501518_" xlink:href="8D9471385BCFA6E6.png"  transform="matrix(1 0 0 -1 157 0)">
			</image>
		</g>
	</g>
</pattern>
<g id="Shape_00000035525784901296909990000005246031924046961319_">
	<g>
		<polygon id="path-4" class="st1" points="225.9,479.2 125.9,579.2 25.9,479.2 125.9,379.2 		"/>
	</g>
	<g>
		
			<pattern  id="path-4_00000179618427251524753520000016642189315035051664_" xlink:href="#pattern-5" patternTransform="matrix(1 0 0 -1 -356 -17293)">
		</pattern>
		
			<polygon id="path-4_00000155864125451174568730000007620264223025640855_" style="fill-rule:evenodd;clip-rule:evenodd;fill:url(#path-4_00000179618427251524753520000016642189315035051664_);fill-opacity:0.2;" points="
			225.9,479.2 125.9,579.2 25.9,479.2 125.9,379.2 		"/>
	</g>
</g>
<g id="Shape_00000029740840812778793520000010106504830819468723_">
	<g>
		
			<linearGradient id="path-8_00000169539640293240374780000006574413976892425117_" gradientUnits="userSpaceOnUse" x1="-0.3803" y1="504.109" x2="0.6121" y2="503.1165" gradientTransform="matrix(200 0 0 -200 -98 101201)">
			<stop  offset="0" style="stop-color:#FEC55F"/>
			<stop  offset="1" style="stop-color:#FCD06D"/>
		</linearGradient>
		
			<polygon id="path-8" style="fill-rule:evenodd;clip-rule:evenodd;fill:url(#path-8_00000169539640293240374780000006574413976892425117_);" points="
			25.9,479.2 -74.1,579.2 -174.1,479.2 -74.1,379.2 		"/>
	</g>
	<g>
		
			<pattern  id="path-8_00000090287762874700391250000014712929285758489224_" xlink:href="#pattern-9" patternTransform="matrix(1 0 0 -1 -556 -17293)">
		</pattern>
		
			<polygon id="path-8_00000026132312142798558990000013196536337325529756_" style="fill-rule:evenodd;clip-rule:evenodd;fill:url(#path-8_00000090287762874700391250000014712929285758489224_);fill-opacity:0.2;" points="
			25.9,479.2 -74.1,579.2 -174.1,479.2 -74.1,379.2 		"/>
	</g>
</g>
<g id="Shape_00000086674697782175397700000016718501562739157667_">
	<g>
		<polygon id="path-11" class="st5" points="125.9,579.2 125.9,379.2 325.9,379.2 		"/>
	</g>
	<g>
		
			<pattern  id="path-11_00000137852974338099340850000003455576048187396495_" xlink:href="#pattern-12" patternTransform="matrix(1 0 0 -1 -256 -17293)">
		</pattern>
		
			<polygon id="path-11_00000091709925747107286140000017327786286091819402_" style="fill-rule:evenodd;clip-rule:evenodd;fill:url(#path-11_00000137852974338099340850000003455576048187396495_);fill-opacity:0.2;" points="
			125.9,579.2 125.9,379.2 325.9,379.2 		"/>
	</g>
</g>
<polygon id="Shape_00000148628498341096364420000015329119023515293077_" class="st7" points="725.9,379.2 925.9,379.2 925.9,579.2 
	725.9,579.2 "/>
<polygon id="Shape_00000119796918893832677740000017927905286931976631_" class="st8" points="525.9,379.2 725.9,379.2 725.9,579.2 
	"/>
<g id="Shape_00000108994455380939756570000014686042605567968152_">
	<g>
		<polygon id="path-14" class="st1" points="725.9,579.2 525.9,579.2 525.9,379.2 		"/>
	</g>
	<g>
		
			<pattern  id="path-14_00000116947483442805750650000012090704086970404752_" xlink:href="#pattern-15" patternTransform="matrix(1 0 0 -1 144 -17293)">
		</pattern>
		
			<polygon id="path-14_00000127741580845586414540000012473736562565573257_" style="fill-rule:evenodd;clip-rule:evenodd;fill:url(#path-14_00000116947483442805750650000012090704086970404752_);fill-opacity:0.2;" points="
			725.9,579.2 525.9,579.2 525.9,379.2 		"/>
	</g>
</g>
<g id="Shape_00000074422626604952571120000009338641292995235768_">
	<g>
		<path id="path-23" class="st1" d="M624.9-20.8c55.2,0,100,44.8,100,100v100h-100c-55.2,0-100-44.8-100-100S569.7-20.8,624.9-20.8z
			"/>
	</g>
	<g>
		
			<pattern  id="path-23_00000058555168358958453450000000175485432864977590_" xlink:href="#pattern-24" patternTransform="matrix(1 0 0 -1 143 -16093)">
		</pattern>
		
			<path id="path-23_00000078029843325816406910000011453930186205916802_" style="fill-rule:evenodd;clip-rule:evenodd;fill:url(#path-23_00000058555168358958453450000000175485432864977590_);fill-opacity:0.2;" d="
			M624.9-20.8c55.2,0,100,44.8,100,100v100h-100c-55.2,0-100-44.8-100-100S569.7-20.8,624.9-20.8z"/>
	</g>
</g>
<g id="Shape_00000106856709250101286680000004173835221974954640_">
	<g>
		
			<linearGradient id="path-26_00000067940037920687759500000004947467512095880861_" gradientUnits="userSpaceOnUse" x1="-1.7606" y1="507.218" x2="-0.7682" y2="506.2255" gradientTransform="matrix(100 0 0 -100 752 50751)">
			<stop  offset="0" style="stop-color:#FEC55F"/>
			<stop  offset="1" style="stop-color:#FCD06D"/>
		</linearGradient>
		
			<path id="path-26" style="fill-rule:evenodd;clip-rule:evenodd;fill:url(#path-26_00000067940037920687759500000004947467512095880861_);" d="
			M625.9,29.2c27.6,0,50,22.4,50,50v50h-50c-27.6,0-50-22.4-50-50S598.3,29.2,625.9,29.2z"/>
	</g>
	<g>
		
			<pattern  id="path-26_00000144319269565063677040000014825867224556414596_" xlink:href="#pattern-27" patternTransform="matrix(1 0 0 -1 194 -16243)">
		</pattern>
		
			<path id="path-26_00000152223485207455063560000014819311241988055424_" style="fill-rule:evenodd;clip-rule:evenodd;fill:url(#path-26_00000144319269565063677040000014825867224556414596_);fill-opacity:0.2;" d="
			M625.9,29.2c27.6,0,50,22.4,50,50v50h-50c-27.6,0-50-22.4-50-50S598.3,29.2,625.9,29.2z"/>
	</g>
</g>
<g id="Shape_00000126285532510159607090000014991577268912258735_" transform="translate(1500.000000, 900.000000) scale(-1, 1) rotate(-270.000000) translate(-1500.000000, -900.000000) ">
	<g>
		<path id="path-29" class="st1" d="M879.2,524.9c55.2,0,100,44.8,100,100v100h-100c-55.2,0-100-44.8-100-100S824,524.9,879.2,524.9
			z"/>
	</g>
	<g>
		
			<pattern  id="path-29_00000033342909200446508720000007704693856746536832_" xlink:href="#pattern-30" patternTransform="matrix(1.836970e-16 1 -1 1.836970e-16 -13825 -2125)">
		</pattern>
		
			<path id="path-29_00000111904461923745398960000011185331938673566605_" style="fill-rule:evenodd;clip-rule:evenodd;fill:url(#path-29_00000033342909200446508720000007704693856746536832_);fill-opacity:0.2;" d="
			M879.2,524.9c55.2,0,100,44.8,100,100v100h-100c-55.2,0-100-44.8-100-100S824,524.9,879.2,524.9z"/>
	</g>
</g>
<path id="Shape_00000011731509823483113970000007684575949247991702_" class="st7" d="M924.9,79.2c0,55.2-44.8,100-100,100h-100
	v-100c0-55.2,44.8-100,100-100S924.9,24,924.9,79.2z"/>
<g id="Shape_00000119834360236445178900000002488125274584135046_">
	<g>
		<path id="path-32" class="st1" d="M875.9,79.2c0,27.6-22.4,50-50,50h-50v-50c0-27.6,22.4-50,50-50S875.9,51.6,875.9,79.2z"/>
	</g>
	<g>
		
			<pattern  id="path-32_00000054236252193536086640000005476273444982197637_" xlink:href="#pattern-33" patternTransform="matrix(1 0 0 -1 394 -16243)">
		</pattern>
		
			<path id="path-32_00000051379899800689987100000000465942568929262997_" style="fill-rule:evenodd;clip-rule:evenodd;fill:url(#path-32_00000054236252193536086640000005476273444982197637_);fill-opacity:0.2;" d="
			M875.9,79.2c0,27.6-22.4,50-50,50h-50v-50c0-27.6,22.4-50,50-50S875.9,51.6,875.9,79.2z"/>
	</g>
</g>
<g id="Shape_00000121278182028618835700000016016019581038776504_">
	<g>
		<path id="path-38" class="st5" d="M876.9,479.2c0,27.6-22.4,50-50,50h-50v-50c0-27.6,22.4-50,50-50S876.9,451.6,876.9,479.2z"/>
	</g>
	<g>
		
			<pattern  id="path-38_00000008857282550948004110000012823792134472883841_" xlink:href="#pattern-39" patternTransform="matrix(1 0 0 -1 395 -17443)">
		</pattern>
		
			<path id="path-38_00000136412283627242825110000006629080568608224645_" style="fill-rule:evenodd;clip-rule:evenodd;fill:url(#path-38_00000008857282550948004110000012823792134472883841_);fill-opacity:0.2;" d="
			M876.9,479.2c0,27.6-22.4,50-50,50h-50v-50c0-27.6,22.4-50,50-50S876.9,451.6,876.9,479.2z"/>
	</g>
</g>
<path id="Shape_00000176734681692302365440000009007583807580156581_" class="st7" d="M1224.9,579.2c55.2,0,100-44.8,100-100v-100
	h-100c-55.2,0-100,44.8-100,100S1169.7,579.2,1224.9,579.2z"/>
<path id="Shape_00000093147746177422670470000004447071164452156810_" class="st7" d="M524.9,179.2c0,110.5-89.5,200-200,200v-400
	C435.4-20.8,524.9,68.7,524.9,179.2z"/>
<g id="Shape_00000135669982903687060900000001418871021472105112_" transform="translate(1400.000000, 700.000000) scale(-1, 1) rotate(-270.000000) translate(-1400.000000, -700.000000) ">
	<g>
		<path id="path-45" class="st1" d="M879.2,424.9c0,110.5-89.5,200-200,200v-400C789.7,224.9,879.2,314.5,879.2,424.9z"/>
	</g>
	<g>
		
			<pattern  id="path-45_00000115499523517835009630000000058834885785422495_" xlink:href="#pattern-46" patternTransform="matrix(1.836970e-16 1 -1 1.836970e-16 -13825 -1525)">
		</pattern>
		
			<path id="path-45_00000039101024395355595730000010625739363038029971_" style="fill-rule:evenodd;clip-rule:evenodd;fill:url(#path-45_00000115499523517835009630000000058834885785422495_);fill-opacity:0.2;" d="
			M879.2,424.9c0,110.5-89.5,200-200,200v-400C789.7,224.9,879.2,314.5,879.2,424.9z"/>
	</g>
</g>
<g id="Shape_00000004531011592646955020000003119661169598054564_">
	<g>
		<polygon id="path-54" class="st5" points="124.9,-20.8 324.9,-20.8 324.9,179.2 124.9,179.2 		"/>
	</g>
	<g>
		
			<pattern  id="path-54_00000096744428851275068370000003827563733483591076_" xlink:href="#pattern-55" patternTransform="matrix(1 0 0 -1 -257 -16093)">
		</pattern>
		
			<polygon id="path-54_00000067194225690139497810000017581272421831143810_" style="fill-rule:evenodd;clip-rule:evenodd;fill:url(#path-54_00000096744428851275068370000003827563733483591076_);fill-opacity:0.2;" points="
			124.9,-20.8 324.9,-20.8 324.9,179.2 124.9,179.2 		"/>
	</g>
</g>
<g id="Shape_00000044146202422439592790000018092722145398853004_">
	<g>
		<polygon id="path-63" class="st1" points="225.9,-20.8 325.9,79.2 225.9,179.2 125.9,79.2 		"/>
	</g>
	<g>
		
			<pattern  id="path-63_00000062169168667308346940000018125365369402167477_" xlink:href="#pattern-64" patternTransform="matrix(1 0 0 -1 -256 -16093)">
		</pattern>
		
			<polygon id="path-63_00000142897923760242576800000009477044659388555698_" style="fill-rule:evenodd;clip-rule:evenodd;fill:url(#path-63_00000062169168667308346940000018125365369402167477_);fill-opacity:0.2;" points="
			225.9,-20.8 325.9,79.2 225.9,179.2 125.9,79.2 		"/>
	</g>
</g>
<polygon id="Shape_00000038385857197325618860000011829051691777008809_" class="st8" points="1225.9,229.2 1275.9,279.2 
	1225.9,329.2 1175.9,279.2 "/>
<g id="Shape_00000150074628490629572550000017374439873001785758_">
	<g>
		<path id="path-72" class="st1" d="M924.9,279.2c0,55.2-44.8,100-100,100h-100v-200h100C880.2,179.2,924.9,224,924.9,279.2z"/>
	</g>
	<g>
		
			<pattern  id="path-72_00000108301663478276014610000003746765904814604187_" xlink:href="#pattern-73" patternTransform="matrix(1 0 0 -1 343 -16693)">
		</pattern>
		
			<path id="path-72_00000023265900634305312440000011698562608125807799_" style="fill-rule:evenodd;clip-rule:evenodd;fill:url(#path-72_00000108301663478276014610000003746765904814604187_);fill-opacity:0.2;" d="
			M924.9,279.2c0,55.2-44.8,100-100,100h-100v-200h100C880.2,179.2,924.9,224,924.9,279.2z"/>
	</g>
</g>
<g id="Shape_00000152961840271258319920000012969138354199271814_" transform="translate(1300.000000, 1100.000000) scale(-1, 1) rotate(-270.000000) translate(-1300.000000, -1100.000000) ">
	<g>
		<path id="path-75" class="st1" d="M779.2,824.9c0,55.2-44.8,100-100,100h-100v-200h100C734.4,724.9,779.2,769.7,779.2,824.9z"/>
	</g>
	<g>
		
			<pattern  id="path-75_00000055680445706133708090000002467464804580128911_" xlink:href="#pattern-76" patternTransform="matrix(1.836970e-16 1 -1 1.836970e-16 -14425 -2325)">
		</pattern>
		
			<path id="path-75_00000132074169327958770310000013416860988563702973_" style="fill-rule:evenodd;clip-rule:evenodd;fill:url(#path-75_00000055680445706133708090000002467464804580128911_);fill-opacity:0.2;" d="
			M779.2,824.9c0,55.2-44.8,100-100,100h-100v-200h100C734.4,724.9,779.2,769.7,779.2,824.9z"/>
	</g>
</g>
<g id="Shape_00000054237127446830648120000011309504468037464504_" transform="translate(700.000000, 1100.000000) rotate(-180.000000) translate(-700.000000, -1100.000000) ">
	<g>
		
			<linearGradient id="path-81_00000068672404813747569110000016071729201043865270_" gradientUnits="userSpaceOnUse" x1="1397.6196" y1="1702.109" x2="1398.6122" y2="1703.1014" gradientTransform="matrix(-200 0 0 200 280399 -338801)">
			<stop  offset="0" style="stop-color:#FEC55F"/>
			<stop  offset="1" style="stop-color:#FCD06D"/>
		</linearGradient>
		
			<path id="path-81" style="fill-rule:evenodd;clip-rule:evenodd;fill:url(#path-81_00000068672404813747569110000016071729201043865270_);" d="
			M975.1,1620.8c55.2,0,100,44.8,100,100v100h-100c-55.2,0-100-44.8-100-100S919.8,1620.8,975.1,1620.8z"/>
	</g>
	<g>
		
			<pattern  id="path-81_00000118376669664120454100000007986863769653305777_" xlink:href="#pattern-82" patternTransform="matrix(-1 0 0 1 -13441 -973)">
		</pattern>
		
			<path id="path-81_00000089534896669914356650000009752951058794062990_" style="fill-rule:evenodd;clip-rule:evenodd;fill:url(#path-81_00000118376669664120454100000007986863769653305777_);fill-opacity:0.2;" d="
			M975.1,1620.8c55.2,0,100,44.8,100,100v100h-100c-55.2,0-100-44.8-100-100S919.8,1620.8,975.1,1620.8z"/>
	</g>
</g>
<g id="Shape_00000026866052969196059650000015320754734165425336_">
	<g>
		
			<linearGradient id="path-100_00000120561327454049655880000008077806758097128613_" gradientUnits="userSpaceOnUse" x1="-0.3803" y1="504.109" x2="0.6121" y2="503.1165" gradientTransform="matrix(200 0 0 -200 1 100801)">
			<stop  offset="0" style="stop-color:#FEC55F"/>
			<stop  offset="1" style="stop-color:#FCD06D"/>
		</linearGradient>
		
			<polygon id="path-100" style="fill-rule:evenodd;clip-rule:evenodd;fill:url(#path-100_00000120561327454049655880000008077806758097128613_);" points="
			-75.1,179.2 -75.1,-20.8 124.9,-20.8 		"/>
	</g>
	<g>
		
			<pattern  id="path-100_00000015327702517522455000000005618852837081234816_" xlink:href="#pattern-101" patternTransform="matrix(1 0 0 -1 -457 -16093)">
		</pattern>
		
			<polygon id="path-100_00000070105606523616077640000006991584855710843555_" style="fill-rule:evenodd;clip-rule:evenodd;fill:url(#path-100_00000015327702517522455000000005618852837081234816_);fill-opacity:0.2;" points="
			-75.1,179.2 -75.1,-20.8 124.9,-20.8 		"/>
	</g>
</g>
<polygon id="Shape_00000176725004156363252020000012360521853091790240_" class="st8" points="524.9,179.2 724.9,179.2 724.9,379.2 
	"/>
<polygon id="Shape_00000048498809858762952970000000910692260682707117_" class="st8" points="924.9,179.2 924.9,379.2 
	1124.9,379.2 "/>
<g id="Shape_00000146476679246038479680000003823406606839232674_" transform="translate(900.000000, 900.000000) rotate(-180.000000) translate(-900.000000, -900.000000) ">
	<g>
		
			<linearGradient id="path-109_00000150093768501081170430000010734419398950844573_" gradientUnits="userSpaceOnUse" x1="1797.3696" y1="1301.859" x2="1798.3622" y2="1302.8514" gradientTransform="matrix(-200 0 0 200 360599 -259001)">
			<stop  offset="0" style="stop-color:#FEC55F"/>
			<stop  offset="1" style="stop-color:#FCD06D"/>
		</linearGradient>
		
			<polygon id="path-109" style="fill-rule:evenodd;clip-rule:evenodd;fill:url(#path-109_00000150093768501081170430000010734419398950844573_);" points="
			1075.1,1420.8 1275.1,1420.8 1275.1,1620.8 		"/>
	</g>
	<g>
		
			<pattern  id="path-109_00000178173261775689339050000013018417496015584431_" xlink:href="#pattern-110" patternTransform="matrix(-1 0 0 1 -12841 -773)">
		</pattern>
		
			<polygon id="path-109_00000055681994988544396000000005659525161260120751_" style="fill-rule:evenodd;clip-rule:evenodd;fill:url(#path-109_00000178173261775689339050000013018417496015584431_);fill-opacity:0.2;" points="
			1075.1,1420.8 1275.1,1420.8 1275.1,1620.8 		"/>
	</g>
</g>
<g id="Shape_00000152259732937991216020000015058043398007805113_" transform="translate(1300.000000, 900.000000) scale(-1, 1) rotate(-90.000000) translate(-1300.000000, -900.000000) ">
	<g>
		
			<linearGradient id="path-112_00000113348676887486900310000000539266203860841893_" gradientUnits="userSpaceOnUse" x1="1700.1304" y1="2195.6411" x2="1701.1228" y2="2196.6335" gradientTransform="matrix(0 200 -200 0 440999 -339001)">
			<stop  offset="0" style="stop-color:#FEC55F"/>
			<stop  offset="1" style="stop-color:#FCD06D"/>
		</linearGradient>
		
			<polygon id="path-112" style="fill-rule:evenodd;clip-rule:evenodd;fill:url(#path-112_00000113348676887486900310000000539266203860841893_);" points="
			1820.8,1075.1 2020.8,1075.1 2020.8,1275.1 		"/>
	</g>
	<g>
		
			<pattern  id="path-112_00000160898252116017850750000009630539369040768900_" xlink:href="#pattern-113" patternTransform="matrix(-6.123234e-17 -1 1 -6.123234e-17 3127 -15541)">
		</pattern>
		
			<polygon id="path-112_00000075856568304112915380000004014596019731949744_" style="fill-rule:evenodd;clip-rule:evenodd;fill:url(#path-112_00000160898252116017850750000009630539369040768900_);fill-opacity:0.2;" points="
			1820.8,1075.1 2020.8,1075.1 2020.8,1275.1 		"/>
	</g>
</g>
<g id="Shape_00000118395332386028597440000008407736015208170889_">
	<g>
		<path id="path-115" class="st1" d="M124.9,379.2c-110.5,0-200-89.5-200-200h400C324.9,289.7,235.4,379.2,124.9,379.2z"/>
	</g>
	<g>
		
			<pattern  id="path-115_00000036969185798307688740000004125350745606248076_" xlink:href="#pattern-116" patternTransform="matrix(1 0 0 -1 -457 -16693)">
		</pattern>
		
			<path id="path-115_00000139264210486804484720000015820873585121925807_" style="fill-rule:evenodd;clip-rule:evenodd;fill:url(#path-115_00000036969185798307688740000004125350745606248076_);fill-opacity:0.2;" d="
			M124.9,379.2c-110.5,0-200-89.5-200-200h400C324.9,289.7,235.4,379.2,124.9,379.2z"/>
	</g>
</g>
<g id="Shape_00000114065383214940990050000009661295098579108006_">
	<g>
		
			<linearGradient id="path-121_00000176732252241444157410000010127511492149172114_" gradientUnits="userSpaceOnUse" x1="-1.7606" y1="507.218" x2="-0.7682" y2="506.2255" gradientTransform="matrix(100 0 0 -100 551 50951)">
			<stop  offset="0" style="stop-color:#FEC55F"/>
			<stop  offset="1" style="stop-color:#FCD06D"/>
		</linearGradient>
		
			<path id="path-121" style="fill-rule:evenodd;clip-rule:evenodd;fill:url(#path-121_00000176732252241444157410000010127511492149172114_);" d="
			M424.9,229.2c27.6,0,50,22.4,50,50v50h-50c-27.6,0-50-22.4-50-50S397.3,229.2,424.9,229.2z"/>
	</g>
	<g>
		
			<pattern  id="path-121_00000148631900699286858240000014338552339141970080_" xlink:href="#pattern-122" patternTransform="matrix(1 0 0 -1 -7 -16843)">
		</pattern>
		
			<path id="path-121_00000085949339946751833690000003651641322844334211_" style="fill-rule:evenodd;clip-rule:evenodd;fill:url(#path-121_00000148631900699286858240000014338552339141970080_);fill-opacity:0.2;" d="
			M424.9,229.2c27.6,0,50,22.4,50,50v50h-50c-27.6,0-50-22.4-50-50S397.3,229.2,424.9,229.2z"/>
	</g>
</g>
<g id="Shape_00000054984759011013013990000013286717566865783432_">
	<g>
		<circle id="path-136" class="st5" cx="1224.9" cy="479.2" r="50"/>
	</g>
	<g>
		
			<pattern  id="path-136_00000048487412806157563060000008648224613290471854_" xlink:href="#pattern-137" patternTransform="matrix(1 0 0 -1 793 -17443)">
		</pattern>
		
			<circle id="path-136_00000107558719846609440030000003570432945100158897_" style="fill-rule:evenodd;clip-rule:evenodd;fill:url(#path-136_00000048487412806157563060000008648224613290471854_);fill-opacity:0.2;" cx="1224.9" cy="479.2" r="50"/>
	</g>
</g>
<g id="Shape_00000170998518361612730910000016042189641768854957_">
	<g>
		<circle id="path-142" class="st1" cx="624.9" cy="279.2" r="50"/>
	</g>
	<g>
		
			<pattern  id="path-142_00000155140016611120758560000004420769675317409460_" xlink:href="#pattern-143" patternTransform="matrix(1 0 0 -1 193 -16843)">
		</pattern>
		
			<circle id="path-142_00000111175152394235764250000006341464555895992753_" style="fill-rule:evenodd;clip-rule:evenodd;fill:url(#path-142_00000155140016611120758560000004420769675317409460_);fill-opacity:0.2;" cx="624.9" cy="279.2" r="50"/>
	</g>
</g>
<g id="Shape_00000102520480763232172030000003024316274228778422_">
	<g>
		
			<linearGradient id="path-151_00000113354156645830657790000008911804853318494627_" gradientUnits="userSpaceOnUse" x1="-1.7606" y1="507.218" x2="-0.7682" y2="506.2255" gradientTransform="matrix(100 0 0 -100 1151 51151)">
			<stop  offset="0" style="stop-color:#FEC55F"/>
			<stop  offset="1" style="stop-color:#FCD06D"/>
		</linearGradient>
		
			<polygon id="path-151" style="fill-rule:evenodd;clip-rule:evenodd;fill:url(#path-151_00000113354156645830657790000008911804853318494627_);" points="
			1024.9,429.2 1074.9,479.2 1024.9,529.2 974.9,479.2 		"/>
	</g>
	<g>
		
			<pattern  id="path-151_00000086653997943622282560000003435304150429279620_" xlink:href="#pattern-152" patternTransform="matrix(1 0 0 -1 593 -17443)">
		</pattern>
		
			<polygon id="path-151_00000176010144689768687240000017968777757523174334_" style="fill-rule:evenodd;clip-rule:evenodd;fill:url(#path-151_00000086653997943622282560000003435304150429279620_);fill-opacity:0.2;" points="
			1024.9,429.2 1074.9,479.2 1024.9,529.2 974.9,479.2 		"/>
	</g>
</g>
<g id="Shape_00000011022352516338196180000008761436401221708209_">
	<g>
		
			<linearGradient id="path-154_00000053543139006896515690000011017953437813974659_" gradientUnits="userSpaceOnUse" x1="-1.7606" y1="507.218" x2="-0.7682" y2="506.2255" gradientTransform="matrix(100 0 0 -100 351 51151)">
			<stop  offset="0" style="stop-color:#FEC55F"/>
			<stop  offset="1" style="stop-color:#FCD06D"/>
		</linearGradient>
		
			<polygon id="path-154" style="fill-rule:evenodd;clip-rule:evenodd;fill:url(#path-154_00000053543139006896515690000011017953437813974659_);" points="
			224.9,429.2 274.9,479.2 224.9,529.2 174.9,479.2 		"/>
	</g>
	<g>
		
			<pattern  id="path-154_00000034069040464597836990000000319586973525748923_" xlink:href="#pattern-155" patternTransform="matrix(1 0 0 -1 -207 -17443)">
		</pattern>
		
			<polygon id="path-154_00000151530786369104892630000015826785882323537305_" style="fill-rule:evenodd;clip-rule:evenodd;fill:url(#path-154_00000034069040464597836990000000319586973525748923_);fill-opacity:0.2;" points="
			224.9,429.2 274.9,479.2 224.9,529.2 174.9,479.2 		"/>
	</g>
</g>
</svg>
