<?xml version="1.0" encoding="utf-8"?>
<!-- Generator: Adobe Illustrator 27.0.0, SVG Export Plug-In . SVG Version: 6.00 Build 0)  -->
<svg version="1.1" id="Capa_1" xmlns="http://www.w3.org/2000/svg" xmlns:xlink="http://www.w3.org/1999/xlink" x="0px" y="0px"
	 viewBox="0 0 1200 500" style="enable-background:new 0 0 1200 500;" xml:space="preserve">
<style type="text/css">
	.st0{fill:none;stroke:#CFCFAF;stroke-width:16.3469;stroke-linejoin:round;}
	.st1{fill:none;stroke:#F6AE9F;stroke-width:16.3469;stroke-linejoin:round;}
	.st2{fill:none;stroke:#89C7AA;stroke-width:16.3469;stroke-linejoin:round;}
	.st3{fill:none;stroke:#05203D;stroke-width:16.3469;}
	.st4{fill:none;stroke:#05203D;stroke-width:16.3469;stroke-linejoin:round;}
</style>
<path class="st0" d="M947.5,129.3c-30.1,0-54.5-26.8-54.5-59.9c0-11.5,2.9-22.2,8-31.4 M984.6,9.4h-37.1c-11.9,0-22.8,4.2-31.8,11.3
	"/>
<path class="st1" d="M1123.8,133.6c11.9,0,21.5-9.5,21.5-21.3s-9.6-21.3-21.5-21.3h-24.3"/>
<path class="st2" d="M1021.1,43.2h98.1c37.3,0,67.6,30.4,67.6,67.8s-30.3,67.8-67.6,67.8h-29.5"/>
<path class="st3" d="M1064.8,252.2h57.4c33,0,60.7,25.8,67.9,60.5"/>
<circle class="st2" cx="1034.7" cy="129.8" r="17.4"/>
<path class="st1" d="M1034.7,178.9c27.7,0,50.1-22.1,50.1-49.3s-22.4-49.3-50.1-49.3c-27.7,0-50.1,22.1-50.1,49.3"/>
<path class="st4" d="M950,48.6c-11.3,0-20.4,9.1-20.4,20.4s9.1,20.4,20.4,20.4c11.3,0,20.4-9.1,20.4-20.4V48.6"/>
<path class="st1" d="M1002.6,179.4h-48c-30.4,0-55,24.6-55,55"/>
<path class="st1" d="M1026.2,285.1c-11.9,0-21.5,9.5-21.5,21.3s9.6,21.3,21.5,21.3c11.9,0,21.5-9.5,21.5-21.3v-21.3"/>
<path class="st2" d="M1081.5,285.1h35.2c23.6,0,42.8,19,42.8,42.5"/>
<path class="st0" d="M831.5,303.4v-31.8c0-9.1,7.3-16.4,16.3-16.4c9,0,16.3,7.4,16.3,16.4v63.6c0,9.1-7.3,16.4-16.3,16.4
	c-9,0-16.3-7.4-16.3-16.4v-7.7"/>
<path class="st2" d="M803.1,255.1v82.7c0,24.7,20.1,44.8,45,44.8c24.8,0,45-20,45-44.8v-19.5"/>
<path class="st1" d="M831.2,158.2c0,3.3,0,53.7,0,74.1"/>
<path class="st2" d="M966.6,279.2v7.2c0,10.1-8.3,18.3-18.5,18.3c-10.2,0-18.5-8.2-18.5-18.3v-6c0-10.1-8.2-18.2-18.3-18.2
	c-10.1,0-18.3,8.2-18.3,18.2v7.3"/>
<path class="st2" d="M830.6,96.6c0,5.4,0,10.9,0,16.3"/>
<path class="st4" d="M830.6,65.5c0,5.4,0,10.9,0,16.3"/>
<path class="st4" d="M1009.9,356.5c0,5.4,0,10.9,0,16.3"/>
<path class="st4" d="M1048.6,356.5c0,5.4,0,10.9,0,16.3"/>
<path class="st4" d="M1087.3,356.5c0,5.4,0,10.9,0,16.3"/>
</svg>
