<?xml version="1.0" encoding="UTF-8"?> <!-- Generator: Adobe Illustrator 24.0.0, SVG Export Plug-In . SVG Version: 6.00 Build 0) --> <svg xmlns="http://www.w3.org/2000/svg" xmlns:xlink="http://www.w3.org/1999/xlink" version="1.1" id="Layer_1" x="0px" y="0px" viewBox="0 0 400 200" style="enable-background:new 0 0 400 200;" xml:space="preserve"> <style type="text/css"> .st0{fill:#FFFFFF;} </style> <g> <path class="st0" d="M91.6,140.6c-3.2,0-5.8-1.1-7.9-3.3c-2.1-2.2-3.2-4.8-3.2-7.8c0-3.1,1.1-5.7,3.2-7.8c2.1-2.2,4.8-3.2,7.9-3.2 c3,0,5.5,1.1,7.7,3.2c2.2,2.2,3.2,4.8,3.2,7.8c0,3-1.1,5.6-3.2,7.8C97.1,139.5,94.6,140.6,91.6,140.6z"></path> <path class="st0" d="M117.8,58c-3.3,0-6-1.1-8.4-3.2c-2.3-2.1-3.5-4.5-3.5-7.2c0-2.8,1.2-5.2,3.5-7.2c2.3-2,5.1-3,8.4-3 c3.3,0,6,1,8.3,3c2.3,2,3.4,4.4,3.4,7.2c0,2.7-1.1,5.1-3.4,7.2C123.8,56.9,121.1,58,117.8,58z M117.8,139.8c-3.3,0-5.9-0.7-8-2.2 c-2.1-1.4-3.1-3-3.1-4.8V78c0-2,1-3.6,3.1-4.9c2.1-1.2,4.7-1.9,8-1.9c3.1,0,5.7,0.6,7.9,1.9c2.2,1.2,3.3,2.9,3.3,4.9v54.9 c0,1.7-1.1,3.3-3.3,4.8C123.5,139,120.9,139.8,117.8,139.8z"></path> <path class="st0" d="M147.3,139.8c-3.3,0-5.9-0.7-8-2.2c-2.1-1.4-3.1-3-3.1-4.8V78c0-2,1-3.6,3.1-4.9c2.1-1.2,4.7-1.9,8-1.9 c2.7,0,5,0.6,6.9,1.9c1.9,1.2,2.9,2.9,2.9,4.9v3.3c1.3-2.8,3.7-5.3,7.1-7.6c3.4-2.3,7.4-3.4,12.2-3.4c4.4,0,8.5,1.4,12.2,4.1 c3.7,2.7,6.7,6.4,8.9,10.9c2.3,4.6,3.4,9.6,3.4,15.2v32.3c0,2.3-1.2,4-3.5,5.2c-2.4,1.2-4.9,1.7-7.7,1.7c-2.6,0-5.1-0.6-7.5-1.7 c-2.4-1.2-3.6-2.9-3.6-5.2v-32.3c0-1.8-0.5-3.6-1.4-5.2c-0.9-1.6-2.2-3-3.7-4c-1.6-1.1-3.3-1.6-5.3-1.6c-1.5,0-3,0.4-4.5,1.3 c-1.5,0.9-2.7,2.1-3.7,3.7c-1,1.6-1.4,3.5-1.4,5.8v32.3c0,1.7-1.1,3.3-3.3,4.8C153,139,150.4,139.8,147.3,139.8z"></path> <path class="st0" d="M218.6,139.8c-3.1,0-5.7-0.6-7.8-1.9c-2.1-1.2-3.2-2.9-3.2-4.9V61c0-5.6,1.2-10.5,3.5-14.9 c2.3-4.4,5.4-7.8,9.2-10.3c3.8-2.5,8.1-3.7,12.7-3.7h10.4c2.8,0,4.9,1,6.3,3c1.4,2,2.1,4.1,2.1,6.4c0,2.4-0.7,4.6-2.1,6.5 c-1.4,1.9-3.5,2.9-6.3,2.9h-5.5c-1.5,0-2.9,0.3-4.1,0.9c-1.2,0.6-2.1,1.4-2.8,2.5c-0.7,1.1-1,2.6-1,4.4v12.7h16.3 c1.8,0,3.2,0.8,4.1,2.5c0.9,1.7,1.4,3.5,1.4,5.4c0,2-0.5,3.8-1.4,5.5c-0.9,1.6-2.3,2.4-4.1,2.4H230V133c0,2-1.1,3.6-3.4,4.9 C224.3,139.1,221.7,139.8,218.6,139.8z"></path> <path class="st0" d="M281.7,141.2c-5.9,0-11.3-1.4-16.2-4.2c-4.9-2.8-8.9-6.6-12-11.2c-3-4.7-4.5-9.7-4.5-15v-10.1 c0-5.4,1.5-10.4,4.4-15c2.9-4.6,6.9-8.3,11.9-11.1c5-2.8,10.5-4.2,16.4-4.2c5.9,0,11.3,1.4,16.3,4.1c5,2.7,9,6.4,12,10.9 c3,4.6,4.5,9.6,4.5,15.2v10.1c0,5.3-1.5,10.2-4.5,14.9c-3,4.7-7,8.4-12,11.3C292.9,139.8,287.5,141.2,281.7,141.2z M281.7,121.8 c1.9,0,3.7-0.5,5.3-1.6c1.6-1.1,2.9-2.4,3.8-4.1c1-1.7,1.4-3.5,1.4-5.4v-10.1c0-1.8-0.5-3.6-1.4-5.2c-1-1.6-2.2-3-3.8-4 c-1.6-1.1-3.3-1.6-5.3-1.6c-1.9,0-3.7,0.5-5.3,1.6c-1.6,1.1-2.8,2.4-3.7,4c-0.9,1.6-1.4,3.4-1.4,5.2v10.1c0,1.9,0.5,3.7,1.4,5.4 c0.9,1.7,2.2,3,3.7,4.1C278,121.2,279.7,121.8,281.7,121.8z"></path> </g> </svg> 