<?xml version="1.0" encoding="UTF-8"?> <!-- Generator: Adobe Illustrator 23.0.1, SVG Export Plug-In . SVG Version: 6.00 Build 0) --> <svg xmlns="http://www.w3.org/2000/svg" xmlns:xlink="http://www.w3.org/1999/xlink" version="1.1" id="Layer_1" x="0px" y="0px" viewBox="0 0 200.4 66.5" style="enable-background:new 0 0 200.4 66.5;" xml:space="preserve"> <style type="text/css"> .st0{fill:#FFFFFF;} </style> <title>softac</title> <g> <path class="st0" d="M64.88,9.23c0-4.8,3.89-8.71,8.7-8.71c4.33,0.01,7.92,3.16,8.59,7.3c4.7-1.1,9.84,0.18,13.5,3.84l0.5,0.5 l-6.42,6.42l-0.5-0.5c-2.08-2.08-5.46-2.08-7.55,0c-2.09,2.09-2.09,5.48-0.01,7.56l1.26,1.26l6.42,6.42l6.8,6.79l-6.42,6.43 l-6.8-6.8l-6.43-6.42l-1.25-1.25c-3.88-3.88-5.08-9.43-3.61-14.34C67.78,16.85,64.88,13.38,64.88,9.23z M83.71,26.14l6.42,6.42 l6.8-6.79l6.42-6.42l1.26-1.25c2.09-2.09,5.46-2.09,7.54-0.01c2.08,2.08,2.08,5.46,0,7.55l-0.49,0.5l6.42,6.42l0.5-0.5 c3.84-3.84,5.06-9.31,3.66-14.19c4.27-0.56,7.56-4.21,7.56-8.63c0-4.81-3.89-8.71-8.7-8.71c-4.4,0-8.04,3.27-8.63,7.51 c-4.9-1.44-10.41-0.22-14.27,3.64l-1.26,1.25l-6.43,6.42L83.71,26.14z M122.39,48.2c1.15-4.73-0.12-9.92-3.82-13.62l-1.26-1.26 l-6.42-6.42l-6.78-6.79l-6.43,6.42l6.78,6.79l6.42,6.42l1.26,1.26c2.09,2.09,2.09,5.47,0.01,7.54c-2.08,2.08-5.47,2.08-7.55,0 l-0.49-0.49l-6.42,6.43l0.49,0.49c3.91,3.91,9.51,5.1,14.45,3.59c0.8,3.98,4.32,6.97,8.53,6.97c4.81,0,8.71-3.9,8.71-8.71 C129.87,52.43,126.62,48.79,122.39,48.2z M110.13,40.51l-6.42-6.42l-6.78,6.79L90.5,47.3l-1.26,1.26 c-2.08,2.08-5.47,2.08-7.56-0.01c-2.08-2.09-2.09-5.46,0-7.55l0.5-0.49l-6.43-6.42l-0.49,0.49c-3.73,3.73-4.99,9.01-3.78,13.77 c-3.84,0.9-6.69,4.35-6.69,8.47c0,4.81,3.9,8.71,8.71,8.71c4.14-0.01,7.6-2.88,8.49-6.75c4.75,1.18,9.98-0.08,13.69-3.79l1.26-1.26 l6.42-6.43L110.13,40.51z"></path> </g> </svg> 