<?xml version="1.0" encoding="UTF-8"?> <!-- Generator: Adobe Illustrator 24.0.0, SVG Export Plug-In . SVG Version: 6.00 Build 0) --> <svg xmlns="http://www.w3.org/2000/svg" xmlns:xlink="http://www.w3.org/1999/xlink" version="1.1" id="Layer_1" x="0px" y="0px" viewBox="0 0 400 200" style="enable-background:new 0 0 400 200;" xml:space="preserve"> <style type="text/css"> .st0{fill:#6C757D;} </style> <g> <path class="st0" d="M110,159.4c-0.8-0.7-1.8-2-2-2.9c-0.4-1.9,1-5,2.5-5.7c1.5-0.6,4.3-0.4,5.4,0.2c1.2,0.8,0.3,1.9-1.2,1.5 c-3.7-1-6.1,1.7-4.1,4.7c1,1.4,1.4,1.6,3.6,1.3c2.9-0.4,4,0.6,1.5,1.5C113.1,161,111.8,160.8,110,159.4z"></path> <path class="st0" d="M122.7,160.1c-0.6-1,4-9.6,5.1-9.6c0.6,0,1.8,1.9,3.2,4.7c2.6,5.6,2.6,5.9,0.7,4.7c-2.2-1.5-5.9-1.6-7.3-0.3 C123.5,160.3,122.9,160.5,122.7,160.1L122.7,160.1z M129.3,156.4c-0.1-0.3-0.4-1.2-0.9-2c-0.8-1.5-0.9-1.5-1.6-0.2 c-1.1,2-0.8,2.7,0.9,2.7C128.6,156.8,129.3,156.6,129.3,156.4z"></path> <path class="st0" d="M144.4,157.3l-3-3.4v3.1c0,2.2-0.3,3-1,3c-0.8,0-1-1-1-4.8c0-5.7,0.6-6.1,3.8-1.9c1.2,1.5,2.4,2.8,2.7,2.9 c0.3,0,0.4-1.3,0.4-2.9c0-2,0.3-2.8,0.8-2.7c0.9,0.3,1.5,8.7,0.6,9.6C147.6,160.5,146.2,159.4,144.4,157.3L144.4,157.3z"></path> <path class="st0" d="M154.5,159.3c1.1-3.4,4.2-8.9,5.1-8.9c1.1,0,5.9,9.3,5.2,10c-0.3,0.3-1-0.1-1.7-0.7c-1.4-1.3-5.2-1.6-6.5-0.5 C154.5,160.8,154.1,160.8,154.5,159.3L154.5,159.3z M161.2,156.1c0-0.4-0.3-1.3-0.7-2c-0.7-1.3-0.8-1.3-1.6,0.2 c-1.2,2.2-1.1,2.5,0.7,2.5C160.5,156.8,161.2,156.5,161.2,156.1z"></path> <path class="st0" d="M171.7,160.1c-0.1-0.1-0.3-2.4-0.3-5c0-3.7,0.2-4.7,1-4.7s1,0.9,1,4.1v4.1h2.9c4.1,0,3.3,1.4-1,1.5 C173.5,160.3,171.8,160.2,171.7,160.1L171.7,160.1z"></path> <path class="st0" d="M193.6,160.2c-0.3-0.2-0.4-2.4-0.4-4.8c0-5.5,1.1-6.4,4-3l1.9,2.2l1.7-2.1c1-1.1,2.2-2,2.9-2 c1,0,1.1,0.6,1,4.8c-0.3,5.6-1.3,6.6-1.8,1.6l-0.3-3.5l-1.7,2.2l-1.7,2.2l-1.3-1.6c-0.7-0.8-1.3-1.7-1.3-2c0-0.3-0.3-0.5-0.6-0.5 c-0.3,0-0.6,1.6-0.6,3.5C195.1,160.4,194.6,161.3,193.6,160.2z"></path> <path class="st0" d="M213.6,159.8c-1.4-0.7-1.6-1.2-1.8-5.2c-0.1-3.3,0-4.3,0.6-4.1c0.5,0.2,1,1.8,1.1,4.1c0.3,3.3,0.5,3.8,1.8,4 c2.4,0.4,3.3-1,3.3-4.7c0-2.6,0.3-3.4,1-3.4c0.8,0,1,0.8,1,3.8c0,3.3-0.2,4-1.7,5.1C217,160.8,215.8,161,213.6,159.8z"></path> <path class="st0" d="M228,160.2c-0.2-0.2-0.4-2.5-0.4-5.1c0-5.6,0.8-6,3.9-1.8c1.2,1.5,2.4,2.9,2.7,2.9c0.3,0,0.4-1.3,0.4-2.9 c0-2,0.3-2.8,0.8-2.7c0.4,0.2,0.8,1.8,1,4.3c0.3,6.3-0.1,6.6-3.7,2.6l-3.1-3.5l-0.1,3C229.5,159.8,228.9,161.1,228,160.2L228,160.2 z"></path> <path class="st0" d="M243.2,160.1c-0.1-0.1-0.3-2.4-0.3-5v-4.7h2.7c3.6,0,5.7,1.2,6.4,3.7c0.4,1.7,0.4,2.4-0.7,3.8 c-1,1.4-2,1.8-4.6,2C245,160.2,243.4,160.3,243.2,160.1L243.2,160.1z M249.3,157.5c0.7-0.7,1.3-1.7,1.3-2.2c0-1.5-1.9-2.9-3.9-2.9 c-1.8,0-1.9,0.1-1.9,2.7c0,1.5,0.2,3,0.4,3.2C246.1,159.1,248,158.7,249.3,157.5z"></path> <path class="st0" d="M267.6,160.2c-0.3-0.4,0.4-2.7,1.6-5.2c2.6-6.1,3.6-6,6.5,0.3c1.3,2.7,2.3,4.9,2.3,5c0,0.6-2.2-0.2-2.4-0.8 c-0.4-1.2-5.9-1-6.8,0.3C268.3,160.5,267.9,160.6,267.6,160.2z M274.2,156.5c0-1.6-2.6-4.6-2.6-3c0,0.3-0.2,1.1-0.4,1.9 c-0.3,1.2-0.1,1.4,1.3,1.4C273.4,156.8,274.2,156.7,274.2,156.5z"></path> <path class="st0" d="M284.4,155.4c0-4,0.2-5,1-5s1,0.9,1,4.1v4.1h2.6c3.8,0,3.1,1.1-1,1.4l-3.5,0.2V155.4z"></path> <path class="st0" d="M258.9,155.2c0-3.8,0.2-4.8,1-4.8c0.8,0,1,1,1,4.8c0,3.8-0.2,4.8-1,4.8C259.1,160,258.9,159.1,258.9,155.2z"></path> <path class="st0" d="M67.4,133.2c0-11-0.1-11.5-1.3-11.5c-1.1,0-1.3-0.4-1.3-2.6c0-2.1,0.2-2.6,1.3-2.6c1.1,0,1.3-0.4,1.3-3.8V109 h3.5h3.5v3.8c0,3.4,0.1,3.8,1.3,3.8c1.1,0,1.3,0.4,1.3,2.6c0,2.1-0.2,2.6-1.3,2.6c-1.2,0-1.3,0.4-1.3,11.5v11.5h-3.5h-3.5V133.2z"></path> <path class="st0" d="M82.5,131.8c-1.7-7.1-3.2-13.5-3.3-14c-0.3-1,0.1-1.1,3.1-1.1h3.4l1.5,8c0.8,4.4,1.7,8,1.9,8 c0.3,0,1.1-3.6,1.9-8l1.5-8h3.4c2.6,0,3.4,0.2,3.3,0.8c-0.2,0.4-1.7,6.7-3.4,14l-3.1,13.3h-3.5h-3.6L82.5,131.8L82.5,131.8z"></path> <path class="st0" d="M252.6,142.4l0.2-2.4h3.2h3.2l0.2,2.4l0.2,2.3H256h-3.6L252.6,142.4L252.6,142.4z"></path> <path class="st0" d="M263.6,142.5l-2.2-2.2v-9c0-10.6,0.5-12.1,4.5-13.7c6.6-2.6,13.6,0.1,14.5,5.6l0.4,2.3h-3.6 c-3.1,0-3.6-0.2-3.6-1.2c0-2.9-4.6-3.4-5.4-0.6c-0.2,0.8-0.4,4.3-0.4,7.7c0,5.4,0.2,6.4,1.3,7.5c0.7,0.7,1.5,1.3,1.8,1.3 c1,0,2.6-1.6,2.8-2.9c0.2-1.1,0.7-1.3,3.4-1.3h3.2l-0.1,2.1c-0.1,2.6-1.8,5.1-3.8,5.9c-0.9,0.4-3.6,0.6-6.1,0.6 C266,144.7,265.7,144.6,263.6,142.5z"></path> <path class="st0" d="M285.6,143.6c-2.7-1.7-3.1-3.4-3.1-13.3V121l1.9-1.8c3.6-3.3,11.2-3.3,14.9,0l2,1.8l0.3,8.2 c0.3,9.7-0.4,12.6-3.3,14.3C295.6,145.1,288.1,145.1,285.6,143.6z M294.5,131.3c0.2-8.1-0.2-9.6-2.5-9.6c-2.6,0-3.1,1.6-3.1,9.3 c0,6.7,0.1,7.3,1.3,8.2c0.9,0.6,1.9,0.8,2.7,0.4C294.2,139.1,294.3,138.6,294.5,131.3L294.5,131.3z"></path> <path class="st0" d="M303.4,130.7l0.2-14h3.1c1.8,0,3.2,0.3,3.2,0.6c0,0.4,0.5,0.3,1.3-0.1c1-0.6,2-0.6,4.7-0.1 c2.5,0.5,4.3,0.5,6.1,0.1c3.8-1,8-0.1,10.5,2l2,1.8l0.2,11.9l0.2,11.9h-3.5h-3.6v-10.8c0-11.7-0.3-12.8-3.5-11.9l-1.6,0.4 l-0.1,10.4c0,5.7-0.1,10.7-0.1,11.2c0.1,0.5-1,0.8-3.4,0.8h-3.4v-10.9c0-10-0.1-10.9-1.2-11.5c-1.7-0.9-2.4-0.8-3.5,0.4 c-0.8,0.8-1,2.8-1,11.5v10.5h-3.3h-3.4L303.4,130.7L303.4,130.7z"></path> </g> <path class="st0" d="M111.3,173.4c0.7-4.9,0.8-5,3.3-5c4,0,3.7,4-0.3,4.3c-1.5,0.1-2,0.5-2,1.4c0,0.6-0.3,1.4-0.7,1.7 C111,176.1,111,175.4,111.3,173.4L111.3,173.4z M115.8,170.6c0-1.9-2.5-1.7-2.7,0.2c-0.2,1.3,0,1.5,1.3,1.3 C115.3,171.9,115.8,171.4,115.8,170.6z"></path> <path class="st0" d="M118.3,172.7c0.6-4.3,0.6-4.3,3.4-4.2c2.3,0.1,2.3,0.1,0.4,0.3c-2.7,0.3-3.5,2.7-1,2.8c1.5,0.1,1.5,0.1,0.3,0.4 c-0.8,0.1-1.7,0.8-2,1.5c-0.7,1.3-0.6,1.5,2.2,2c0.7,0.2,0.2,0.3-1.2,0.4l-2.5,0.1L118.3,172.7z"></path> <path class="st0" d="M124.1,173.4c0.7-4.7,0.9-5,2.8-5c2.4,0,3.4,1.1,2.6,2.7c-0.4,0.7-0.6,1.6-0.4,2c0.1,0.4,0.1,1.3-0.3,2 c-0.4,1.1-0.5,1-0.5-0.4c-0.1-1.5-0.4-1.8-1.7-1.8c-1.1,0-1.6,0.3-1.6,1.2c0,0.7-0.3,1.5-0.7,1.7 C123.8,176.1,123.7,175.4,124.1,173.4z M128.6,170.8c0.4-0.8-1-2-2-1.7c-0.3,0.1-0.7,0.7-0.8,1.3C125.5,171.7,127.8,172,128.6,170.8 z"></path> <path class="st0" d="M131.1,173.1c0.6-4.6,1.8-6,1.3-1.6c-0.2,1.9-0.7,3.8-1.1,4.1C130.8,176.1,130.8,175.4,131.1,173.1z"></path> <path class="st0" d="M134.4,175.6c-0.8-0.8-0.4-4.3,0.6-5.8c1.1-1.6,3.6-1.9,4.7-0.4c0.9,1.1,0.4,4.4-0.7,5.9 C138.2,176,135.1,176.3,134.4,175.6L134.4,175.6z M138,174.3c2.2-2.2,0.5-6.7-1.8-4.8c-1.1,1-1.7,4-0.9,5 C136.3,175.6,136.8,175.6,138,174.3L138,174.3z"></path> <path class="st0" d="M141.2,174.1c0.2-1,0.6-2.7,0.8-3.8c0.3-1.6,0.7-1.9,2.1-1.9c2.2,0,3.3,1.1,3.3,3.3c0,2.4-2,4.3-4.5,4.3 C141,176,140.9,175.9,141.2,174.1z M144.9,174.7c1.5-0.8,1.7-5,0.2-5.6c-1.3-0.5-2,0.3-2.5,3.5C142.1,175.6,142.6,175.9,144.9,174.7 z"></path> <path class="st0" d="M149,172.8c0.3-1.9,0.8-3.8,1.1-4.1c0.4-0.4,0.5,0.5,0.2,2.9c-0.3,1.9-0.8,3.8-1.1,4.1 C148.7,176.1,148.6,175.2,149,172.8z"></path> <path class="st0" d="M152.1,175.2c-0.8-1.3-0.3-4.5,0.8-5.7c0.6-0.6,1.7-1.1,2.4-1.1c1.5,0,3.1,1.4,2.4,2.1 c-0.2,0.3-0.7-0.1-1.1-0.6c-1.6-2.2-4.7,1.5-3.8,4.3c0.5,1.5,1.5,1.5,3,0.1c1-0.9,1.1-0.9,1.1-0.1 C156.9,175.9,153,176.7,152.1,175.2L152.1,175.2z"></path> <path class="st0" d="M159,175.2c-1-1-1-2.7,0.3-5c0.8-1.6,1.3-1.9,3-1.7c1.8,0.2,2,0.4,2.2,2.3C164.9,174.7,161.3,177.5,159,175.2 L159,175.2z M162.6,174.5c1-1.1,1.4-3.9,0.8-4.9c-0.8-1.4-2.8-0.4-3.4,1.7C159,174.7,160.7,176.8,162.6,174.5L162.6,174.5z"></path> <path class="st0" d="M189.7,174.9c0.1-0.6,0.5-2.4,0.7-3.8c0.4-2.6,0.5-2.7,2.6-2.7c2.3,0,3.6,1.4,2.3,2.7c-0.4,0.4-0.5,1.7-0.3,2.8 c0.3,1.4,0.1,2.2-0.4,2.2c-0.4,0-0.7-0.8-0.7-1.7c0-1.3-0.3-1.6-1.4-1.4c-1,0.1-1.5,0.7-1.7,1.7c-0.1,0.8-0.5,1.4-0.8,1.4 C189.7,176,189.6,175.5,189.7,174.9L189.7,174.9z M194.5,170.4c-0.1-0.6-0.8-1.1-1.5-1.1c-0.7,0-1.3,0.5-1.5,1.1 c-0.2,0.8,0.2,1.1,1.5,1.1S194.7,171.3,194.5,170.4z"></path> <path class="st0" d="M196,175.6c1.3-3,3.8-7.2,4.3-7.2c0.3,0,0.8,1.3,1,2.9c0.2,1.7,0.6,3.4,0.8,3.8c0.2,0.5,0,0.9-0.4,0.9 c-0.4,0-0.7-0.4-0.7-1c0-0.6-0.6-1-1.6-1c-0.9,0-1.8,0.4-2,1c-0.3,0.5-0.7,1-1,1C196.1,176,195.9,175.8,196,175.6z M200.3,171.5 c0-0.7-0.1-1.3-0.3-1.3c-0.1,0-0.6,0.6-1,1.3c-0.6,1-0.5,1.3,0.3,1.3C199.9,172.8,200.3,172.2,200.3,171.5z"></path> <path class="st0" d="M203.8,172.7c0.6-4.1,0.7-4.3,2.9-4.3c2.4,0,3.5,1.4,2.9,3.6c-0.6,2.6-2.2,4-4.3,4h-1.9L203.8,172.7 L203.8,172.7z M207.2,174.3c1.5-1.1,1.9-3.4,0.6-4.6c-1.4-1.4-2.2-0.8-2.9,2.1C204.2,175.6,204.7,176.2,207.2,174.3z"></path> <path class="st0" d="M210.8,174.9c0.1-0.6,0.5-2.4,0.7-3.8c0.3-1.5,0.7-2.7,1.1-2.7c0.3,0,0.4,0.5,0.3,1.1c-0.1,0.6-0.5,2.3-0.7,3.8 c-0.3,1.5-0.7,2.7-1.1,2.7C210.7,176,210.6,175.5,210.8,174.9z"></path> <path class="st0" d="M214.4,175c-1-1.1-0.4-5,1-6.1c0.4-0.4,1.7-0.6,2.7-0.5c1.6,0.2,1.8,0.5,2,2.6 C220.3,175.1,216.6,177.7,214.4,175L214.4,175z M218.1,174.5c1.2-1.5,1.1-4.3-0.1-5.2c-1-0.6-1.3-0.4-2.1,0.5 c-0.9,1.3-1.2,4.3-0.4,5C216.1,175.6,217.4,175.4,218.1,174.5L218.1,174.5z"></path> <path class="st0" d="M244.7,172.5c0.4-3.3,0.4-3.6-0.6-3.3c-0.6,0.3-1,0.1-1-0.2c0-0.4,1.3-0.6,3.1-0.6c2.4,0,2.7,0.1,1.6,0.6 c-1,0.4-1.5,1.3-1.8,3.5C245.3,176.9,244.2,176.9,244.7,172.5z"></path> <path class="st0" d="M248.8,175.4c0-0.3,0.3-2,0.7-3.8c0.6-3.1,0.8-3.2,2.9-3.2c1.3,0,2.1,0.2,1.9,0.4c-0.3,0.3-1.1,0.5-1.9,0.5 c-2,0-2.3,2.2-0.3,2.3c1.3,0.1,1.3,0.1,0.2,0.4c-2.9,0.7-2.9,3.2-0.1,3.6c1.8,0.2,1.7,0.3-0.6,0.3 C250.1,175.9,248.8,175.7,248.8,175.4L248.8,175.4z"></path> <path class="st0" d="M254.8,174.6c0.2-0.8,0.6-2.6,0.8-3.8c0.3-1.3,0.7-2.4,1-2.4c0.4,0,0.4,1,0.2,2.4c-0.8,4.1-0.8,4.3,1.1,4.3 c1-0.1,1.7,0.2,1.7,0.4s-1.2,0.5-2.6,0.5C254.7,176,254.5,175.9,254.8,174.6z"></path> <path class="st0" d="M261.2,172.7c0.6-4.2,0.6-4.3,3.3-4.3c1.2,0,2.1,0.3,1.9,0.6c-0.2,0.3-1.1,0.4-2,0.2c-1.3-0.2-1.6,0-1.6,1 c0,0.8,0.5,1.4,1.5,1.6c1.2,0.3,1.1,0.3-0.3,0.4c-1.5,0.1-1.8,0.4-1.8,1.6c0,1.2,0.4,1.7,1.8,1.9c1.3,0.2,1.1,0.3-0.8,0.4l-2.5,0.1 L261.2,172.7L261.2,172.7z"></path> <path class="st0" d="M268.3,173.6c-0.2-1.3-0.6-3.1-0.8-3.8c-0.2-0.8,0-1.5,0.3-1.5c0.4,0,0.9,1.3,1.1,3l0.4,3l1.5-3 c0.8-1.7,1.8-3,2.2-3c0.8,0,0.8,0-1.6,4.3c-1,1.8-2,3.3-2.3,3.3C269,176,268.6,174.9,268.3,173.6L268.3,173.6z"></path> <path class="st0" d="M274.1,173.1c0.6-4.6,1.8-6,1.3-1.6c-0.2,1.9-0.7,3.8-1.1,4.1C273.8,176.1,273.7,175.4,274.1,173.1z"></path> <path class="st0" d="M277,175.2c-1-1.3-0.1-1.9,1-0.7c1.1,1.1,2.4,0.9,2.6-0.6c0.1-0.7-0.4-1.2-1.4-1.5c-3-0.8-1.5-4.4,1.7-4 c0.9,0.1,1.5,0.7,1.7,1.5c0.2,1.2,0.1,1.2-0.7,0.2c-1.1-1.4-2-1.5-3-0.2c-0.6,0.8-0.5,1,0.9,1.6c1,0.3,1.9,1.1,2,1.6 C282.7,175.4,278.7,177.1,277,175.2L277,175.2z"></path> <path class="st0" d="M283.6,173.6c0.7-4.3,1-5.3,1.5-5.3c0.3,0,0.3,1.7-0.1,3.8c-0.3,2.1-0.9,3.8-1.2,3.8 C283.5,176,283.4,174.9,283.6,173.6z"></path> <path class="st0" d="M286.9,175c-1.1-2.9,0.6-6.6,3.1-6.6c2.9,0,4,3.4,1.9,6.3C290.7,176.3,287.5,176.5,286.9,175L286.9,175z M290.6,174.3c1.1-1.1,1.4-4.4,0.4-5c-1.3-0.8-3.2,1-3.2,3.1C287.8,175.5,288.8,176.2,290.6,174.3z"></path> <path class="st0" d="M293.8,174.1c0.2-1,0.6-2.7,0.8-3.8c0.5-2.6,1.3-2.4,2.7,0.8c0.7,1.5,1.3,2.6,1.3,2.4c0.1-0.2,0.3-1.1,0.4-2.2 c0.4-2.5,1.5-3.6,1.5-1.5c0,2.1-1.2,6.3-1.8,6.3c-0.3,0-1.1-1.2-1.9-2.7l-1.3-2.7l-0.5,2.7c-0.3,1.5-0.7,2.7-1.1,2.7 C293.7,176,293.6,175.2,293.8,174.1L293.8,174.1z"></path> <path class="st0" d="M159.4,93.3c0-7.7,0-7.7,2.2-7.7h2.2v-28v-28h-2.1c-2.1,0-2.2-0.2-2.4-7.7L159,14h11.9h11.8v14.6v14.6H193 c5.7,0,10.3,0.3,10.3,0.6c0,1.2,4.4,28.2,4.9,30.4c0.3,1.4,1.5-3.6,3.2-14.2l2.7-16.4l10.2-0.3l10.1-0.3v8.3v8.2h-2.6 c-1.4,0-2.6,0.3-2.6,0.5c0,0.9-7,37.7-7.4,39.3c-0.4,1.3-1.8,1.5-13.3,1.5c-12.7,0-12.9,0-13.3-1.9c-0.2-1.1-1.8-9.6-3.4-18.8 c-4.1-22.3-3.6-20.7-6.5-20.7h-2.5v12.9v12.9h2.6h2.6v7.7v7.7h-14.2h-14.2L159.4,93.3L159.4,93.3z"></path> <path class="st0" d="M101.2,126.8V109h3.5h3.5v17.9v17.9h-3.5h-3.5V126.8z"></path> <path class="st0" d="M113.2,143.7c-1-0.5-2-1.5-2.4-2.2c-0.3-0.6-0.6-5.5-0.6-10.9V121l1.8-1.8c2.1-2.1,7.2-3.2,9.2-2 c0.7,0.4,1.1,0.4,1.1,0.1c0-0.3,1.4-0.6,3.2-0.6h3.1l0.2,14l0.2,14h-7C117.1,144.6,114.4,144.3,113.2,143.7L113.2,143.7z M121.8,138.7c0.3-0.4,0.5-4.1,0.5-8.2c0-6.8-0.1-7.5-1.2-8.2c-1.7-0.9-2.4-0.8-3.5,0.4c-0.8,0.8-1,2.5-1,8.1c0,4,0.3,7.5,0.5,7.9 C118.1,140.2,120.8,140.2,121.8,138.7L121.8,138.7z"></path> <path class="st0" d="M137.4,143.6c-0.8-2.8-6.1-25.3-6.1-26.1c0-0.6,0.9-0.9,3.1-0.9c3.6,0,3.4-0.4,4.9,8c1.3,7.7,1.6,8.8,2,8.5 c0.1-0.2,0.8-3.3,1.5-7c2-10.4,1.5-9.5,5.1-9.5c1.8,0,3.2,0.3,3.2,0.6c0,0.4-1.3,6.1-2.9,12.6c-1.6,6.6-3,12.6-3.2,13.4 c-0.3,1.2-0.8,1.4-3.8,1.4C138.4,144.7,137.6,144.4,137.4,143.6z"></path> <path class="st0" d="M156.3,143.4c-2.6-1.6-3.4-4.3-3.4-12.4c0-7.5,0.8-10.7,2.9-12.4c3.5-2.7,11.4-2.5,14.4,0.6 c1.7,1.7,1.8,2,1.8,7.9v6.1H166H160v2.9c0,2.4,0.3,3,1.4,3.4c2.2,0.8,3.7,0.1,4.1-1.9c0.3-1.7,0.6-1.9,3.4-1.9 c3.1,0,3.1,0.1,3.1,1.9c0,2.7-1.3,5-3.3,6.1C166.1,145.1,158.8,145,156.3,143.4z M165.7,125.9c0-2.1-1.3-4.2-2.6-4.2 c-2,0-3.1,1.4-3.1,3.8v2.6h2.9C165.7,128.1,165.7,128.1,165.7,125.9z"></path> <path class="st0" d="M174,130.7v-14h3.5c2.3,0,3.5,0.3,3.5,0.8c0,0.6,0.2,0.6,0.8,0c0.8-0.8,3.1-1,5.4-0.4c1.2,0.3,1.3,0.6,0.6,2.9 c-0.6,2.5-0.8,2.6-2.8,2.2c-3.8-0.7-4-0.1-4,11.9v10.8h-3.5H174V130.7z"></path> <path class="st0" d="M193.5,143.9c-3.2-1.7-3.5-2.7-3.5-13.1V121l1.8-1.8c2.1-2.1,7.2-3.2,9.2-2c1.1,0.6,1.1,0.4,1.1-3.8v-4.5 l3.4,0.2l3.3,0.2V127v17.7h-7C197.9,144.6,194.2,144.3,193.5,143.9L193.5,143.9z M201.6,138.7c0.3-0.4,0.5-4.1,0.5-8.2 c0-6.8-0.1-7.5-1.2-8.2c-1.7-0.9-2.4-0.8-3.5,0.4c-0.8,0.8-1,2.5-1,8.1c0,4,0.3,7.5,0.5,7.9C197.9,140.2,200.6,140.2,201.6,138.7 L201.6,138.7z"></path> <path class="st0" d="M214.1,143.7c-1-0.5-2-1.5-2.4-2.2c-0.3-0.6-0.6-5.4-0.6-10.7c0-8.6,0.1-9.7,1.3-11.2c1.7-2.2,4.6-2.9,11.6-2.9 l5.6-0.1v14v14h-6.8C217.9,144.6,215.3,144.3,214.1,143.7L214.1,143.7z M222.6,138.7c0.3-0.4,0.5-3.9,0.5-7.9c0-5.6-0.2-7.3-1-8.1 c-1.1-1.2-1.8-1.3-3.5-0.4c-1.1,0.6-1.2,1.4-1.2,8.2c0,4.1,0.3,7.8,0.5,8.2C218.9,140.2,221.6,140.2,222.6,138.7L222.6,138.7z"></path> <path class="st0" d="M234.8,143.4c-2.7-1.7-3.5-4.9-3.2-14.4c0.2-7.2,0.3-7.9,1.7-9.4c1.9-2,5.9-3.2,8.8-2.6l2.1,0.4v-4.2V109h3.2 h3.2v17.9v17.8h-6.9C238,144.6,236.4,144.4,234.8,143.4z M244.1,131.9c0.2-8-0.1-9.4-2.1-9.9c-3.1-0.8-3.5,0.4-3.5,9.1 c0,7.6,0.1,7.9,1.5,8.4c0.9,0.4,1.9,0.3,2.7-0.3C243.8,138.6,243.9,137.7,244.1,131.9z"></path> <path class="st0" d="M111.3,174.3c0.8-5,1.1-5.9,2-5.9c0.9,0,0.9,0.2-0.1,1.3c-0.6,0.6-1,1.6-0.8,2.1c0.1,0.4-0.1,1.7-0.6,2.7 l-0.9,1.9L111.3,174.3z"></path> <path class="st0" d="M118,174.9c0-0.8,0.2-0.9,0.5-0.4c0.3,0.4,1.3,0.8,2.4,1c1.7,0.3,1.7,0.3-0.4,0.4 C118.5,176,118,175.7,118,174.9z"></path> <path class="st0" d="M128.2,174.8c0-0.7-0.2-1.7-0.4-2.2c-0.2-0.6-0.1-1,0.2-1c0.3,0,0.6,1,0.7,2.2c0.1,1.2,0,2.2-0.2,2.2 S128.2,175.4,128.2,174.8z"></path> <path class="st0" d="M141,175.5c0-0.3,0.9-0.4,1.9-0.3c1.1,0.1,1.9,0.4,1.9,0.5c0,0.1-0.8,0.3-1.9,0.3 C141.9,176,141,175.7,141,175.5z"></path> <path class="st0" d="M155.1,174.8c0.8-0.7,1.7-1.1,1.8-1c0.4,0.4-1.3,2.2-2.3,2.2C153.9,176,154.1,175.6,155.1,174.8L155.1,174.8z"></path> <path class="st0" d="M159,174.7c-0.6-1-0.6-1.7,0.3-3.8c0.6-1.4,1.4-2.6,1.9-2.6c0.6,0,0.5,0.4-0.4,1.3c-2.5,2.5-1,7.3,1.6,5.1 c0.6-0.4,1-0.5,1-0.1c0,0.6-1.5,1.4-2.7,1.4C160.1,176,159.4,175.4,159,174.7z"></path> <path class="st0" d="M194.2,172.3c0.1-3.4,0.2-3.8,1-3c0.7,0.7,0.8,1.1,0.1,1.8c-0.4,0.5-0.6,1.4-0.3,1.9c0.2,0.6,0.1,1.5-0.3,2.1 C194.3,175.8,194.1,175,194.2,172.3L194.2,172.3z"></path> <path class="st0" d="M197.2,173.4c1.7-3.4,2.2-4,1.6-1.7c-0.3,1.1-0.1,1.8,0.4,2c0.5,0.3,0.5,0.4-0.1,0.4c-0.5,0.1-1.5,0.5-2,1.1 C196.1,176.1,196.1,175.8,197.2,173.4L197.2,173.4z"></path> <path class="st0" d="M203.5,174.9c0-0.9,0.1-1,0.6-0.3c0.3,0.5,1.1,0.8,1.9,0.5c0.8-0.2,1.2-0.1,1,0.3 C206.3,176.5,203.5,176.1,203.5,174.9z"></path> <path class="st0" d="M214.5,175.2c-1-1-1-2.4-0.1-3.7c0.5-0.8,0.6-0.5,0.5,0.9c-0.3,2.6,1.5,3.6,3.3,2c0.7-0.6,1.1-1.5,1-1.7 c-0.2-0.3,0-0.6,0.3-0.6c1.1,0,0.8,1.1-0.6,2.6C217.4,176.2,215.7,176.4,214.5,175.2z"></path> <path class="st0" d="M250,175.6c0.8-0.1,1.9-0.1,2.6,0c0.6,0.2-0.1,0.3-1.5,0.3C249.7,175.8,249.2,175.7,250,175.6z"></path> <path class="st0" d="M255.3,174.6c0.1-1,0.2-1.1,0.4-0.4c0.1,0.6,1,1.2,2,1.3c1.5,0.3,1.5,0.3-0.3,0.4 C255.5,176,255.2,175.8,255.3,174.6z"></path> <path class="st0" d="M261.2,175.5c0.3-0.5,4.2-0.3,4.2,0.3c0,0.1-1,0.3-2.3,0.3C261.9,176,261,175.7,261.2,175.5L261.2,175.5z"></path> <path class="st0" d="M268.8,174.6c0-0.8,0.1-1.1,0.3-0.6c0.2,0.4,0.6,0.6,0.9,0.4c0.3-0.3,0.4,0.1,0.2,0.6 C269.6,176.4,268.9,176.2,268.8,174.6L268.8,174.6z"></path> <path class="st0" d="M280,175c1.9-1.3,1.8-1.9-0.3-2.7c-1.7-0.6-1.7-0.7-0.2-0.3c0.9,0.2,1.9,0.6,2.2,0.9c0.8,0.8-0.4,2.7-2,3 C278.7,176.1,278.7,175.9,280,175L280,175z"></path> <path class="st0" d="M298.4,175c-0.5-1.3-0.3-1.9,0.7-1.5c0.3,0.1,0.4,0.8,0.1,1.5C298.9,176.2,298.8,176.2,298.4,175L298.4,175z"></path> <path class="st0" d="M142,171.5c0.3-2.7,0.6-3.7,1.1-3.1c0.1,0.1-0.1,1.5-0.6,3.1l-0.9,2.9L142,171.5L142,171.5z"></path> <path class="st0" d="M146.5,172.4c0.2-1.1,0-2.2-0.3-2.4c-0.4-0.2-0.7-0.7-0.7-1.1c0-0.4,0.4-0.3,1.1,0.3c0.8,0.9,0.9,1.4,0.3,3.2 l-0.7,2.1L146.5,172.4z"></path> <path class="st0" d="M149.3,171.5c0.3-1.5,0.7-2.8,1-3.1c0.3-0.3,0.3,0.5,0.1,1.7c-0.2,1.1-0.4,2.6-0.4,3c0,0.5-0.3,0.9-0.6,0.9 C149.1,174.1,149,172.9,149.3,171.5L149.3,171.5z"></path> <path class="st0" d="M131.5,172c-0.1-1,0.3-1.8,0.6-1.8c0.8,0,0.8,0.5,0,2.2C131.5,173.6,131.5,173.6,131.5,172z"></path> <path class="st0" d="M139.3,171.9c0.1-1.1-0.3-2.3-0.9-2.7c-0.8-0.7-0.8-0.8-0.1-0.6c1.6,0.4,2.3,2.2,1.5,3.8 C139.2,173.7,139.2,173.7,139.3,171.9z"></path> <path class="st0" d="M204,171.2c0.1-1.2,0.5-2.4,0.8-2.6c0.3-0.2,0.4,0.2,0.3,0.8c-0.1,0.6-0.3,1.8-0.3,2.6 c-0.1,0.8-0.3,1.4-0.6,1.4C204,173.4,203.9,172.4,204,171.2L204,171.2z"></path> <path class="st0" d="M116,171.9c0.4-0.9,0.4-1.7-0.1-2.6c-0.6-1.1-0.6-1.2,0.4-0.4c1.3,1.1,1.3,1.4,0.1,3 C115.4,173.1,115.4,173.1,116,171.9L116,171.9z"></path> <path class="st0" d="M268,170.9c0-1,0.1-1.9,0.3-1.9c0.1,0,0.4,0.9,0.5,1.9c0.2,1.1,0.1,1.9-0.3,1.9C268.3,172.8,268,172,268,170.9z "></path> <path class="st0" d="M271.6,170.8c0.6-1.3,1.4-2.4,1.7-2.4c0.6,0-0.3,1.7-1.7,3.5C270.7,172.9,270.7,172.7,271.6,170.8L271.6,170.8z "></path> <path class="st0" d="M118.6,170.6c0-0.9,0.2-1.7,0.5-1.9c0.3-0.2,0.4,0.5,0.4,1.5c0,1-0.2,1.9-0.4,1.9 C118.8,172.2,118.6,171.5,118.6,170.6z"></path> <path class="st0" d="M134,171.7c0.1-0.8,2.4-3.7,2.7-3.4c0.2,0.2-0.4,1.1-1.2,2.1S134,172,134,171.7z"></path> <path class="st0" d="M250.1,171.5c-0.7-0.5-0.4-0.6,1-0.3c2.4,0.5,2.9,0.9,1.2,0.9C251.7,172.2,250.6,171.9,250.1,171.5z"></path> <path class="st0" d="M261.6,171c0-0.7,0.3-1.5,0.6-1.7c0.4-0.3,0.6,0.3,0.5,1.2C262.6,172.4,261.6,172.7,261.6,171L261.6,171z"></path> <path class="st0" d="M274.4,171.4c0-0.4,0.3-1.3,0.6-1.8c0.5-0.8,0.6-0.7,0.6,0.4c0,0.8-0.3,1.6-0.6,1.8 C274.7,172,274.4,171.9,274.4,171.4z"></path> <path class="st0" d="M124.6,170.5c0.2-0.6,0.4-1.3,0.4-1.6s0.3-0.6,0.6-0.6c0.4,0,0.4,0.4,0.1,1.2c-0.4,0.6-0.4,1.3-0.3,1.6 c0.2,0.2,0.1,0.4-0.4,0.4C124.6,171.5,124.4,171.1,124.6,170.5z"></path> <path class="st0" d="M208.8,171.1c0.3-0.2,0-1-0.6-1.6c-1.3-1.4-0.7-1.5,0.7-0.1c1.2,1.1,1.3,2.2,0.3,2.2 C208.8,171.5,208.6,171.3,208.8,171.1z"></path> <path class="st0" d="M219.4,170.4c-0.4-1.5-2.3-1.9-3.6-0.6c-0.6,0.6-0.8,0.6-0.8,0c0-0.4,0.8-1,1.7-1.1c1.9-0.4,3.8,1,3.3,2.4 C219.8,171.5,219.6,171.3,219.4,170.4z"></path> <path class="st0" d="M128.3,169.6c-0.5-0.8-0.5-1.3-0.1-1.3c0.4,0,0.8,0.4,1.1,1C129.9,170.8,129.2,171,128.3,169.6z"></path> <path class="st0" d="M163.4,169.6c-0.5-0.8-0.5-1.3-0.1-1.3c0.4,0,0.8,0.4,1.1,1C165,170.8,164.3,171,163.4,169.6z"></path> <path class="st0" d="M291.6,169.7c0-0.3-0.6-0.8-1.4-0.9c-1.4-0.3-1.4-0.3-0.1-0.4c0.8,0,1.7,0.4,2.2,0.9c0.6,0.6,0.6,1,0.1,1 C291.9,170.3,291.6,170,291.6,169.7z"></path> <path class="st0" d="M192.8,84.2c-0.3-0.5-1.4-5.3-2.4-10.8c-2.7-14.5-2.4-13.8-5.3-13.8h-2.5v10.8c0,9-0.2,10.8-1.3,10.8 c-0.9,0-1.3-0.9-1.3-2.6c0-1.5-0.9-3.6-2.4-5.3c-7.1-8.3-8.6-17.8-4.2-26.3c1.3-2.4,3.3-5.4,4.5-6.6c1.5-1.5,2.2-3.1,2.2-5.3 c0-2.1,0.3-3,1.3-3c1,0,1.3,1.2,1.3,5.6v5.6H193c5.7,0,10.3,0.3,10.3,0.5c0,0.9,4.3,28.2,4.7,30.3c0.3,1.4,0.1,1.9-0.9,1.9 c-1.1,0-1.2,0.3-0.4,1.1c0.8,0.9,0.3,1.4-2.4,2.2c-1.8,0.6-4.9,1-6.8,1c-3.2,0-3.5,0.3-3.8,2.4C193.5,84,193.2,84.6,192.8,84.2 L192.8,84.2z"></path> <path class="st0" d="M210.4,67.2c0.9-5.9,2.1-13.5,2.7-17l1.1-6.5l10.2-0.3c5.6-0.1,10.1-0.1,9.9,0.1c-0.3,0.3-11.1,1.3-15.4,1.5 c-0.9,0-0.8,0.5,0.4,2.4c2.4,3.5,2.2,14.9-0.3,19.6c-2.1,3.8-8.4,10.7-10,10.7C208.9,77.7,209.5,73,210.4,67.2L210.4,67.2z"></path> <path class="st0" d="M101.2,127.1v-17.6h3.1h3.1l0.4,7.3c0.3,4,0.4,11.9,0.3,17.6l-0.1,10.2h-3.4h-3.4V127.1z"></path> <path class="st0" d="M115.9,144.2c0-0.3-0.8-0.5-1.7-0.6c-3.4-0.2-4-2-4-12.8c0-9.4,0.1-9.8,1.5-11.3c1.4-1.4,5.2-2.9,7.5-2.9 c0.6,0,1.5,0.4,2,1c0.8,0.7,1,0.8,1,0.1c0-0.6,0.8-0.8,3.2-0.6l3.2,0.3V131v13.6h-6.4C118.8,144.6,115.9,144.4,115.9,144.2z M121.7,139c1-1.8,0.8-15.6-0.1-16.5c-0.4-0.4-1.3-0.8-2.1-0.8c-2.5,0-2.9,1.1-2.9,8.8c0,4,0.3,7.7,0.6,8.3 C118,140.4,120.8,140.5,121.7,139z"></path> <path class="st0" d="M136.1,137.9c-1.7-6.6-2-8-2.7-11.7c-0.2-0.9-0.7-3.1-1.2-4.9c-0.5-1.8-1-3.4-1-3.6c0-0.2,1.4-0.4,3.1-0.4 c3.6,0,3.3-0.5,4.9,7.7c0.6,3,1.1,6.1,1.3,7l0.4,1.6l0.6-1.5c0.4-0.9,0.8-2.6,1-3.8c0.2-1.3,0.8-4.3,1.3-6.8l1-4.5l3.1,0.2 c1.8,0.1,3.2,0.3,3.2,0.4s-0.6,2.6-1.3,5.6c-0.8,2.9-1.5,5.9-1.6,6.6c-0.1,0.7-1,4.3-2,8.2l-1.7,6.8h-3.3h-3.3 C137.9,144.7,136.1,137.9,136.1,137.9z"></path> <path class="st0" d="M157.1,143.9c-3.5-2.1-3.6-2.6-3.4-13.3c0.3-11.7,0.4-12.2,6.3-13.3c4-0.8,7.8-0.1,10.3,1.9 c1.3,1.1,1.5,1.8,1.7,7.7l0.3,6.4h-6.1H160v2.8c0,3.3,1.1,4.5,3.5,3.8c1.1-0.3,1.8-1,2-2.1c0.3-1.5,0.5-1.7,3.5-1.5 c2.8,0.3,3.1,0.4,3.1,1.7c0,0.8-0.3,2.2-0.7,3.1c-0.8,1.6-4.4,4.1-4.4,3.1c0-0.4-0.4-0.7-1-0.7c-0.5,0-1,0.3-1,0.6 C165.1,145,158.6,144.8,157.1,143.9z M165.7,125.9c0-2.4-1.3-4.2-3.1-4.2c-1.7,0-2.6,1.3-2.6,4v2.4h2.9 C165.7,128.1,165.7,128.1,165.7,125.9z"></path> <path class="st0" d="M174,131v-13.7l3.5-0.3c1.9-0.1,3.5,0.1,3.5,0.3s0.6,0.2,1.3-0.3c1.7-0.9,5.7-0.2,5.7,1c0,2-1.4,4-2.6,3.7 c-0.6-0.2-1.9-0.1-2.8,0.1l-1.6,0.4v11.2v11.2h-3.5H174C174,144.7,174,131,174,131z"></path> <path class="st0" d="M195.7,144.1c0-0.3-0.4-0.4-1-0.3c-0.5,0.3-1.7-0.4-2.9-1.5l-1.9-1.9v-9c0-4.9,0.3-9.6,0.6-10.5 c1.1-3.1,8.4-5.3,10.4-3.3c1.2,1.2,1.2,1.3,1.1-4l-0.1-4h3.2h3.2l0.2,17.6l0.2,17.5h-6.5C198.6,144.6,195.7,144.4,195.7,144.1 L195.7,144.1z M201.4,139c0.4-0.8,0.6-4.3,0.5-8.7c-0.2-8.4-0.8-9.5-4-8c-1.7,0.7-1.7,0.8-1.7,8.2c0,7.7,0.2,8.7,1.9,9.3 C200,140.4,200.7,140.2,201.4,139L201.4,139z"></path> <path class="st0" d="M214.3,143.7c-3-1.6-3.3-2.6-3.3-12.8c0-9.3,0.1-9.7,1.5-11.3c2-2.1,6.4-3.4,8.9-2.5c1,0.4,1.7,0.4,1.7,0.3 c0-0.3,1.4-0.3,3.2-0.3l3.2,0.3V131v13.7l-6.8-0.1C218.6,144.6,215.2,144.2,214.3,143.7L214.3,143.7z M222.1,139.2 c0.8-0.8,1-2.6,1-8.6c0-7.6,0-7.7-1.7-8.4c-1.1-0.6-1.9-0.6-2.7-0.1c-0.9,0.5-1.1,2-1.3,8.5c-0.2,8.1,0.2,9.6,2.5,9.6 C220.6,140.2,221.6,139.8,222.1,139.2L222.1,139.2z"></path> <path class="st0" d="M234.9,143.5c-2.6-1.5-3.4-4.8-3.4-12.6c0-7.5,0.8-10.6,2.9-12.3c2-1.6,6.8-2.4,8.6-1.4 c1.2,0.6,1.3,0.5,1.3-3.5v-4.1h3.2h3.2v17.5v17.6h-6.9C238.1,144.6,236.4,144.4,234.9,143.5L234.9,143.5z M243.7,138.7 c0.3-0.4,0.5-3.9,0.5-7.9c0-7.5-0.6-9.1-3.1-9.1c-2.2,0-2.6,1.3-2.6,9.4c0,6.8,0.1,7.9,1.1,8.4C240.8,140.2,243,139.8,243.7,138.7 L243.7,138.7z"></path> <path class="st0" d="M225.7,62.3c0-0.4,0.5-0.9,1.2-0.9c0.7,0,1.5,0.4,1.8,0.9c0.3,0.5-0.3,0.9-1.2,0.9 C226.5,63.1,225.7,62.8,225.7,62.3z"></path> <path class="st0" d="M229.2,58.5c0-0.6,0.9-1.4,2-1.7c2.8-0.8,3.2-0.7,3.2,1c0,1.1-0.8,1.5-2.6,1.7C230,59.7,229.2,59.3,229.2,58.5z "></path> <g> <path class="st0" d="M97.6,174.7c-1.5-1.5-1.6-3.1-0.3-5c1.2-1.7,4.1-1.9,5.6-0.3c1.5,1.7,1.3,4.3-0.3,5.5 C100.6,176.3,99.1,176.3,97.6,174.7L97.6,174.7z"></path> <path class="st0" d="M176.2,175c-2.7-1.9-1.1-6.6,2.3-6.6c1.7,0,4,2.1,4,3.7c0,1.4-2.6,4-3.9,4C178.1,176,177,175.6,176.2,175z"></path> <path class="st0" d="M230.5,175c-2.9-2-1.1-6.6,2.6-6.6c1.8,0,3.6,2,3.6,4c0,1.5-2.2,3.7-3.7,3.7C232.4,176,231.2,175.6,230.5,175 L230.5,175z"></path> </g> </svg> 