<?xml version="1.0" encoding="UTF-8"?> <!-- Generator: Adobe Illustrator 24.0.0, SVG Export Plug-In . SVG Version: 6.00 Build 0) --> <svg xmlns="http://www.w3.org/2000/svg" xmlns:xlink="http://www.w3.org/1999/xlink" version="1.1" id="Layer_1" x="0px" y="0px" viewBox="0 0 400 200" style="enable-background:new 0 0 400 200;" xml:space="preserve"> <style type="text/css"> .st0{fill:#004895;} .st1{fill:#0059A3;} .st2{fill:#A4D1F2;} .st3{fill:#EBECEE;} .st4{fill:#FDFDFD;} .st5{fill:#C0030F;} </style> <g> <path class="st0" d="M60.1,146.2c-14.9-3.2-27.6-13-34-25.9c-3.3-6.7-4.3-10.7-4.7-18.2C20.3,79.7,35.6,60.2,59,54.3 c7-1.7,18.1-1.8,24.5-0.1c8.9,2.4,14.3,5.1,21.1,10.5c6.7,5.3,13.1,15.4,15.5,24.2c1.4,5.1,1.4,17.2-0.1,22.4 c-4.8,17.4-19.5,31.1-37.8,34.9C77.6,147.3,64.8,147.3,60.1,146.2z"></path> </g> <g> <path class="st1" d="M60.1,146.2c-20.9-4.5-36.7-21.6-38.7-41.6c-0.3-3.1-0.2-3.6,0.5-3.3c1.4,0.6,2-0.9,2.4-5.8 c1.2-14.5,10.7-28,24.9-35c1.6-0.8,5.1-2.2,7.8-3.1c4.5-1.6,5.5-1.6,14.1-1.6c8.5,0,9.6,0.1,14.1,1.6c9.4,3.1,13.5,5.6,20.4,12.7 c7.1,7.2,11.3,15.9,12.1,25.7c0.3,4.3,0.4,4.4,2.1,4.7l1.7,0.3l-0.4,3.6c-2.2,20.3-18,37.2-38.9,41.6 C77.6,147.3,64.8,147.3,60.1,146.2z M75,139c2,0,5.3-0.5,7.4-1.1c4.2-1.2,11-4.1,11.3-4.8c0.1-0.2,0.6-0.5,1-0.5 c0.5,0,0.8-0.2,0.8-0.6c0-0.3,0.3-0.6,0.8-0.6c0.5,0,0.9-0.4,1.2-0.9c0.2-0.5,0.6-0.9,1-0.9c0.4,0,2.1-1.4,3.8-3.2 c1.7-1.7,2.9-3.2,2.6-3.2c-0.2,0,0.2-0.4,0.9-0.9c0.7-0.5,1.2-1.1,1-1.4c-0.2-0.2,0.1-0.6,0.6-0.8c0.5-0.2,0.7-0.6,0.5-0.9 c-0.2-0.3-0.1-0.6,0.3-0.6s0.5-0.2,0.3-0.6c-0.2-0.3-0.1-0.6,0.3-0.6s0.5-0.2,0.3-0.6c-0.2-0.3-0.1-0.6,0.3-0.6 c0.3,0,0.5-0.2,0.3-0.6c-0.2-0.3-0.1-0.6,0.3-0.6s0.5-0.2,0.3-0.6c-0.2-0.3-0.1-0.6,0.2-0.6c0.3,0,0.5-0.4,0.3-0.9 c-0.2-0.5-0.1-0.9,0.3-0.9s0.5-0.4,0.3-0.9c-0.2-0.5-0.1-0.9,0.3-0.9s0.5-0.4,0.3-0.9c-0.2-0.5-0.1-0.9,0.3-0.9 c0.5,0,0.6-0.5,0.3-1.4c-0.2-0.9-0.1-1.4,0.3-1.4s0.5-0.7,0.3-1.8c-0.2-1-0.3-4.7-0.5-8.1c-0.1-3.5-0.3-6.2-0.6-6.2 s-0.4-0.4-0.2-0.9c0.2-0.5,0.1-0.9-0.3-0.9s-0.5-0.4-0.3-0.9c0.2-0.5,0.1-0.9-0.2-0.9c-0.3,0-0.5-0.2-0.5-0.4 c0.1-0.3-0.2-1-0.6-1.7c-0.4-0.7-0.5-1.3-0.3-1.3c0.2,0,0.2-0.2-0.2-0.5s-1.2-1.6-2-3C105.3,75.3,97,67.6,91.8,65 c-4.7-2.5-8.8-4-12.4-4.6c-1.7-0.3-11.2-0.4-15.8-0.2c-1.6,0.1-7.7,1.6-8.8,2.2c-0.6,0.2-2.1,0.9-3.5,1.5C50,64.5,49,65,49.2,65.2 c0.1,0.2-0.3,0.6-1,1c-3,1.6-4.1,2.4-5.2,3.6c-0.6,0.7-1.8,1.6-2.5,1.9c-0.7,0.3-1.3,0.7-1.1,1c0.1,0.2-0.9,1.7-2.2,3.2 c-1.4,1.4-2.4,2.8-2.2,2.9c0.2,0.2-0.2,0.5-0.7,0.7c-0.5,0.2-0.7,0.6-0.6,0.9c0.2,0.3,0,0.5-0.3,0.5s-0.5,0.3-0.3,0.6 c0.2,0.3,0.1,0.6-0.3,0.6s-0.5,0.3-0.3,0.6c0.2,0.3,0.1,0.6-0.3,0.6c-0.3,0-0.5,0.3-0.3,0.6c0.2,0.3,0.1,0.6-0.2,0.6 c-0.3,0-0.5,0.4-0.3,0.9c0.2,0.5,0.1,0.9-0.1,0.9c-0.3,0-0.6,0.7-0.6,1.6c0,0.9-0.3,1.7-0.7,1.8c-0.3,0.1-0.5,0.5-0.3,0.7 c0.2,0.3,0.1,0.9-0.2,1.3c-0.3,0.4-0.6,3.9-0.7,7.7c-0.2,6.4-0.1,7.4,1.4,11.8c0.9,2.6,1.9,5,2.2,5.2c0.3,0.2,0.4,0.5,0.1,0.5 c-0.3,0-0.1,0.5,0.3,1c0.5,0.5,1.3,1.9,1.9,3s3.1,4.1,5.7,6.6c5.1,5.1,11.1,8.6,17.3,10.4c1.9,0.5,3.9,1.1,4.3,1.3 c0.5,0.2,2.5,0.2,4.4,0.2c2.3-0.1,3.7,0.2,4,0.6c0.3,0.6,0.5,0.6,0.7,0.1C71.4,139.3,72.7,139,75,139L75,139z"></path> <path class="st1" d="M48.9,124.1c0-5.1,0-5.2,1.4-5.2c1,0,1.4-0.3,1.4-1.2c0-0.6-0.4-1.2-0.9-1.2c-0.6,0-0.9-0.6-0.9-1.8 c-0.1-1.8-0.1-1.8-0.5-0.5c-0.2,0.8-0.5,1-0.5,0.5c-0.1-0.5-0.6-1.4-1.2-2.1c-1.7-1.8-2.7-4.2-3.5-8.6c-0.6-3.5-0.6-5,0-8.3 c0.7-4.4,2.1-7.8,3.7-9c0.5-0.5,0.9-1.2,1-1.7c0.1-0.5,0.2-0.3,0.5,0.5c0.4,1.3,0.5,1.2,0.5-0.7c0.1-1.6,0.3-2.2,0.9-2.2 c0.5,0,0.9-0.2,0.9-0.6c0-0.3-0.6-0.6-1.4-0.6c-1.4,0-1.4-0.1-1.6-5.2l-0.2-5.2h7.9h7.8l0.4,3.9c0.5,4.9,0.7,5.8,0.8,2.4l0.1-2.6 l2.8-0.3c4.3-0.5,11.5,0.9,15.4,2.9c3.3,1.7,9.5,6.9,9.5,7.9c0,0.3,0.5,1,1,1.6c0.9,1,0.9,1.2,0.2,1.6c-0.7,0.5-0.6,0.6,0.4,0.6 c0.7,0,1.7,0.4,2.1,0.9c0.6,0.5,0.9,0.6,0.9,0.2s0.3-0.3,0.9,0.2c0.7,0.7,0.9,2,0.7,5.9l-0.2,5.1l-1.7,0.3 c-1.3,0.2-1.8,0.6-1.9,1.7c-0.1,0.8-0.5,2.3-0.7,3.3c-0.3,1-0.8,3.2-1.1,4.9c-0.5,3-2.6,13.9-3.2,16.4c-0.3,1.3-0.5,1.3-8.9,1.3 h-8.6l-0.3-1.4c-0.2-0.8-0.4-2.1-0.6-2.9c-0.3-1.7-2-2-2-0.2c0,0.6-0.2,1-0.6,0.8c-0.3-0.2-0.6-1.4-0.6-2.8c0-1.3-0.3-2.9-0.7-3.4 c-0.6-0.8-0.7,0-0.6,4.5l0.2,5.5h-9.5h-9.6L48.9,124.1L48.9,124.1z M71.5,121.7c-0.2-0.6-0.7-1.2-1.1-1.2c-1.2,0-1,1.6,0.2,1.9 c0.5,0.2,1,0.3,1.1,0.3C71.8,122.8,71.7,122.4,71.5,121.7L71.5,121.7z"></path> <path class="st1" d="M95.3,109.1c0.6-4.5,1.1-6.4,1.7-6.2c0.9,0.3,0.3,4.5-0.9,6.8l-1.1,2L95.3,109.1z"></path> </g> <g> <path class="st2" d="M173.1,121.2c-0.7-0.6-1.6-1.8-1.8-2.6c-0.4-1.7,0.9-4.5,2.2-5.1c1.4-0.5,3.9-0.4,4.8,0.2 c1.1,0.7,0.3,1.7-1.1,1.4c-3.3-0.9-5.5,1.6-3.7,4.3c0.9,1.3,1.3,1.4,3.2,1.2c2.6-0.3,3.6,0.5,1.4,1.3 C175.9,122.6,174.8,122.4,173.1,121.2z"></path> <path class="st2" d="M184.6,121.8c-0.6-0.9,3.6-8.7,4.6-8.7c0.5,0,1.6,1.7,2.9,4.3c2.3,5.1,2.4,5.4,0.6,4.2c-2-1.3-5.3-1.4-6.6-0.2 C185.3,122,184.8,122.2,184.6,121.8L184.6,121.8z M190.5,118.5c-0.1-0.3-0.4-1.1-0.8-1.8c-0.7-1.4-0.8-1.4-1.4-0.2 c-1,1.8-0.7,2.4,0.8,2.4C189.9,118.9,190.5,118.7,190.5,118.5z"></path> <path class="st2" d="M204.2,119.3l-2.7-3.1v2.8c0,2-0.2,2.7-0.9,2.7c-0.7,0-0.9-0.9-0.9-4.3c0-5.2,0.6-5.5,3.5-1.7 c1.1,1.4,2.2,2.5,2.5,2.6c0.2,0,0.4-1.2,0.4-2.6c0-1.8,0.2-2.5,0.7-2.4c0.8,0.3,1.3,7.8,0.5,8.6C207,122.2,205.7,121.2,204.2,119.3 L204.2,119.3z"></path> <path class="st2" d="M213.3,121.1c1-3.1,3.8-8,4.6-8c1,0,5.4,8.3,4.7,9c-0.2,0.2-0.9-0.1-1.6-0.6c-1.3-1.2-4.7-1.4-5.9-0.5 C213.3,122.5,212.9,122.5,213.3,121.1L213.3,121.1z M219.3,118.2c0-0.3-0.3-1.2-0.6-1.8c-0.6-1.2-0.7-1.2-1.4,0.2 c-1.1,2-1,2.2,0.6,2.2C218.7,118.9,219.3,118.6,219.3,118.2z"></path> <path class="st2" d="M228.8,121.8c-0.1-0.1-0.2-2.1-0.2-4.5c0-3.3,0.2-4.2,0.9-4.2s0.9,0.8,0.9,3.7v3.7h2.6c3.7,0,3,1.3-0.9,1.4 C230.4,122,228.9,121.9,228.8,121.8L228.8,121.8z"></path> <path class="st2" d="M248.5,121.9c-0.2-0.2-0.4-2.1-0.4-4.3c0-5,1-5.8,3.6-2.7l1.7,2l1.6-1.9c0.9-1,2-1.8,2.6-1.8 c0.9,0,1,0.5,0.9,4.3c-0.2,5.1-1.2,6-1.6,1.4l-0.3-3.2l-1.6,2l-1.6,2l-1.2-1.4c-0.6-0.7-1.2-1.6-1.2-1.8c0-0.3-0.2-0.5-0.6-0.5 c-0.3,0-0.6,1.4-0.6,3.2C249.8,122.1,249.4,122.9,248.5,121.9z"></path> <path class="st2" d="M266.5,121.6c-1.3-0.6-1.4-1.1-1.6-4.7c-0.1-3,0-3.9,0.6-3.7c0.5,0.2,0.9,1.6,1,3.7c0.2,3,0.5,3.4,1.6,3.6 c2.2,0.3,3-0.9,3-4.3c0-2.4,0.2-3.1,0.9-3.1c0.7,0,0.9,0.7,0.9,3.4c0,3-0.2,3.6-1.5,4.6C269.6,122.5,268.6,122.6,266.5,121.6z"></path> <path class="st2" d="M279.6,121.9c-0.2-0.2-0.3-2.2-0.3-4.6c0-5.1,0.7-5.4,3.5-1.6c1.1,1.4,2.1,2.6,2.4,2.6c0.2,0,0.4-1.2,0.4-2.6 c0-1.8,0.2-2.5,0.7-2.4c0.4,0.2,0.7,1.6,0.9,3.9c0.3,5.7-0.1,6-3.3,2.3l-2.8-3.2l-0.1,2.7C280.9,121.5,280.4,122.7,279.6,121.9 L279.6,121.9z"></path> <path class="st2" d="M293.3,121.8c-0.1-0.1-0.2-2.1-0.2-4.5v-4.2h2.5c3.3,0,5.1,1.1,5.8,3.3c0.4,1.6,0.3,2.2-0.6,3.5 c-0.9,1.3-1.8,1.6-4.1,1.8C294.9,121.9,293.4,122,293.3,121.8L293.3,121.8z M298.8,119.4c0.6-0.6,1.2-1.5,1.2-2 c0-1.4-1.7-2.6-3.5-2.6c-1.6,0-1.7,0.1-1.7,2.5c0,1.4,0.2,2.7,0.4,2.9C295.9,120.9,297.6,120.6,298.8,119.4z"></path> <path class="st2" d="M315.3,121.9c-0.2-0.3,0.4-2.5,1.4-4.7c2.4-5.5,3.2-5.4,5.9,0.3c1.2,2.4,2.1,4.4,2.1,4.5c0,0.5-2-0.2-2.2-0.7 c-0.3-1.1-5.4-0.9-6.2,0.3C315.9,122.2,315.5,122.3,315.3,121.9z M321.2,118.6c0-1.4-2.3-4.1-2.3-2.7c0,0.2-0.2,1-0.3,1.7 c-0.3,1.1-0.1,1.3,1.2,1.3C320.6,118.9,321.2,118.8,321.2,118.6z"></path> <path class="st2" d="M330.5,117.6c0-3.6,0.2-4.5,0.9-4.5c0.7,0,0.9,0.8,0.9,3.7v3.7h2.3c3.5,0,2.8,1-0.9,1.3l-3.2,0.2V117.6z"></path> <path class="st2" d="M307.4,117.4c0-3.5,0.2-4.3,0.9-4.3c0.7,0,0.9,0.9,0.9,4.3s-0.2,4.3-0.9,4.3 C307.6,121.7,307.4,120.9,307.4,117.4z"></path> <path class="st2" d="M134.7,97.6c0-10-0.1-10.4-1.2-10.4c-1,0-1.2-0.4-1.2-2.3c0-1.9,0.2-2.3,1.2-2.3c1,0,1.2-0.4,1.2-3.5v-3.5h3.2 h3.2v3.5c0,3.1,0.1,3.5,1.2,3.5c1,0,1.2,0.4,1.2,2.3c0,1.9-0.2,2.3-1.2,2.3c-1.1,0-1.2,0.4-1.2,10.4v10.4h-3.2h-3.2V97.6z"></path> <path class="st2" d="M148.3,96.3c-1.5-6.4-2.9-12.1-3-12.7c-0.3-0.9,0.1-1,2.8-1h3.1l1.4,7.2c0.7,4,1.6,7.2,1.7,7.2 c0.2,0,1-3.2,1.7-7.2l1.3-7.2h3.1c2.3,0,3.1,0.2,2.9,0.7c-0.2,0.3-1.6,6-3.1,12.6l-2.8,12h-3.2H151L148.3,96.3L148.3,96.3z"></path> <path class="st2" d="M301.8,105.9l0.2-2.1h2.9h2.9l0.2,2.1l0.2,2.1h-3.2h-3.2L301.8,105.9L301.8,105.9z"></path> <path class="st2" d="M311.7,106l-2-2v-8.1c0-9.6,0.5-10.9,4-12.4c6-2.4,12.3,0.1,13.1,5.1l0.3,2.1h-3.3c-2.8,0-3.2-0.2-3.2-1.1 c0-2.6-4.1-3.1-4.8-0.5c-0.2,0.7-0.3,3.9-0.3,7c0,4.8,0.2,5.8,1.2,6.7c0.6,0.6,1.4,1.2,1.6,1.2c0.9,0,2.3-1.4,2.5-2.6 c0.2-1,0.6-1.2,3.1-1.2h2.9l-0.1,1.9c-0.1,2.4-1.6,4.6-3.5,5.3c-0.8,0.3-3.3,0.6-5.5,0.6C313.9,107.9,313.5,107.8,311.7,106z"></path> <path class="st2" d="M331.5,107c-2.4-1.5-2.8-3.1-2.8-12v-8.4l1.7-1.6c3.2-3,10.1-3,13.4,0l1.8,1.6l0.2,7.4 c0.2,8.8-0.3,11.3-3,12.9C340.5,108.3,333.8,108.3,331.5,107z M339.6,95.8c0.2-7.3-0.2-8.6-2.2-8.6c-2.3,0-2.8,1.4-2.8,8.3 c0,6,0.1,6.6,1.2,7.4c0.8,0.5,1.7,0.7,2.5,0.4C339.3,102.9,339.4,102.5,339.6,95.8L339.6,95.8z"></path> <path class="st2" d="M347.6,95.3l0.2-12.7h2.8c1.6,0,2.9,0.3,2.9,0.6c0,0.3,0.5,0.3,1.2-0.1c0.9-0.6,1.8-0.6,4.2-0.1 c2.2,0.5,3.9,0.5,5.5,0.1c3.4-0.9,7.3-0.1,9.4,1.8l1.8,1.6l0.2,10.7l0.2,10.7h-3.2h-3.2v-9.7c0-10.6-0.3-11.5-3.2-10.8l-1.4,0.3 l-0.1,9.4c0,5.1-0.1,9.7-0.1,10.1c0.1,0.5-0.9,0.7-3.1,0.7h-3.1v-9.8c0-9-0.1-9.8-1.1-10.4c-1.6-0.8-2.1-0.7-3.2,0.3 c-0.7,0.7-0.9,2.5-0.9,10.4v9.4h-3h-3.1L347.6,95.3L347.6,95.3z"></path> </g> <path class="st3" d="M48.9,124.1c0-5.1,0-5.2,1.4-5.2h1.4v-18.7V81.4h-1.4c-1.4,0-1.4-0.1-1.6-5.2l-0.2-5.2h7.9h7.9v9.8v9.8h6.9 c3.8,0,6.9,0.2,6.9,0.4c0,0.8,2.9,18.9,3.3,20.3c0.2,0.9,1-2.4,2.1-9.5l1.8-10.9l6.8-0.2l6.7-0.2v5.5v5.5h-1.7 c-0.9,0-1.7,0.2-1.7,0.3c0,0.6-4.7,25.2-5,26.3c-0.3,0.9-1.2,1-8.9,1c-8.5,0-8.6,0-8.9-1.3c-0.1-0.7-1.2-6.4-2.3-12.6 c-2.8-14.9-2.4-13.8-4.4-13.8h-1.7v8.6v8.6h1.7h1.7v5.2v5.2h-9.5h-9.5L48.9,124.1L48.9,124.1z"></path> <path class="st3" d="M165.2,91.8V75.7h3.2h3.2v16.1v16.1h-3.2h-3.2V91.8z"></path> <path class="st3" d="M176,107c-0.9-0.5-1.8-1.3-2.2-2c-0.3-0.6-0.6-5-0.6-9.8v-8.8l1.6-1.6c1.9-1.9,6.5-2.9,8.3-1.8 c0.6,0.4,1,0.4,1,0.1c0-0.3,1.3-0.6,2.9-0.6h2.8l0.2,12.7l0.2,12.6h-6.3C179.5,107.9,177.1,107.6,176,107L176,107z M183.7,102.5 c0.2-0.3,0.5-3.7,0.5-7.4c0-6.1-0.1-6.8-1.1-7.4c-1.6-0.8-2.1-0.7-3.2,0.3c-0.7,0.7-0.9,2.2-0.9,7.3c0,3.6,0.2,6.7,0.5,7.1 C180.4,103.9,182.8,103.9,183.7,102.5L183.7,102.5z"></path> <path class="st3" d="M197.8,107c-0.7-2.5-5.5-22.9-5.5-23.5c0-0.6,0.8-0.8,2.8-0.8c3.3,0,3.1-0.4,4.4,7.2c1.2,6.9,1.4,7.9,1.8,7.7 c0.1-0.2,0.7-3,1.4-6.3c1.8-9.4,1.3-8.6,4.6-8.6c1.6,0,2.9,0.3,2.9,0.6c0,0.3-1.2,5.5-2.6,11.4c-1.4,5.9-2.7,11.3-2.9,12.1 c-0.3,1.1-0.7,1.3-3.5,1.3C198.8,107.9,198,107.7,197.8,107z"></path> <path class="st3" d="M214.9,106.8c-2.4-1.4-3.1-3.9-3.1-11.2c0-6.8,0.7-9.6,2.6-11.2c3.2-2.5,10.2-2.2,13,0.5 c1.6,1.6,1.6,1.8,1.6,7.1v5.5h-5.5h-5.5v2.6c0,2.2,0.2,2.7,1.3,3.1c2,0.7,3.3,0.1,3.7-1.7c0.3-1.6,0.5-1.7,3.1-1.7 c2.8,0,2.8,0.1,2.8,1.7c0,2.4-1.2,4.5-2.9,5.5C223.8,108.3,217.1,108.2,214.9,106.8z M223.4,91c0-1.9-1.2-3.8-2.4-3.8 c-1.8,0-2.8,1.3-2.8,3.5V93h2.6C223.4,93,223.4,93,223.4,91z"></path> <path class="st3" d="M230.8,95.3V82.6h3.2c2.1,0,3.2,0.2,3.2,0.7c0,0.5,0.2,0.5,0.7,0c0.7-0.7,2.8-0.9,4.8-0.3 c1.1,0.3,1.2,0.5,0.6,2.6c-0.6,2.2-0.7,2.3-2.5,2c-3.4-0.6-3.6-0.1-3.6,10.7v9.7H234h-3.2V95.3z"></path> <path class="st3" d="M248.4,107.2c-2.9-1.6-3.2-2.5-3.2-11.9v-8.9l1.6-1.6c1.9-1.9,6.5-2.9,8.3-1.8c1,0.6,1,0.4,1-3.4v-4.1l3.1,0.2 l3,0.2v15.9v15.9h-6.3C252.4,107.9,249,107.6,248.4,107.2L248.4,107.2z M255.7,102.5c0.2-0.3,0.5-3.7,0.5-7.4c0-6.1-0.1-6.8-1.1-7.4 c-1.6-0.8-2.1-0.7-3.2,0.3c-0.7,0.7-0.9,2.2-0.9,7.3c0,3.6,0.2,6.7,0.5,7.1C252.4,103.9,254.8,103.9,255.7,102.5L255.7,102.5z"></path> <path class="st3" d="M267,107c-0.9-0.5-1.8-1.3-2.2-2c-0.3-0.6-0.6-4.9-0.6-9.7c0-7.8,0.1-8.8,1.2-10.1c1.5-2,4.1-2.6,10.5-2.6 l5-0.1v12.7v12.6h-6.2C270.5,107.9,268.1,107.6,267,107L267,107z M274.7,102.5c0.2-0.3,0.5-3.5,0.5-7.1c0-5.1-0.2-6.6-0.9-7.3 c-1-1.1-1.6-1.2-3.2-0.3c-1,0.6-1.1,1.3-1.1,7.4c0,3.7,0.2,7,0.5,7.4C271.4,103.9,273.8,103.9,274.7,102.5L274.7,102.5z"></path> <path class="st3" d="M285.7,106.8c-2.5-1.6-3.2-4.4-2.9-13c0.2-6.5,0.3-7.1,1.6-8.5c1.7-1.8,5.3-2.9,7.9-2.4l1.9,0.3v-3.8v-3.7h2.9 h2.9v16.1v16.1h-6.2C288.6,107.9,287.2,107.7,285.7,106.8z M294.1,96.4c0.2-7.3-0.1-8.5-1.9-8.9c-2.8-0.7-3.2,0.4-3.2,8.2 c0,6.9,0.1,7.1,1.3,7.6c0.8,0.3,1.7,0.3,2.4-0.2C293.8,102.4,293.9,101.6,294.1,96.4z"></path> <path class="st4" d="M71.2,118c-0.2-0.3-0.9-3.6-1.6-7.2c-1.8-9.7-1.6-9.2-3.5-9.2h-1.7v7.2c0,6-0.1,7.2-0.9,7.2 c-0.6,0-0.9-0.6-0.9-1.7c0-1-0.6-2.4-1.6-3.6c-4.7-5.5-5.8-11.9-2.8-17.6c0.9-1.6,2.2-3.6,3-4.4c1-1,1.4-2.1,1.4-3.5 c0-1.4,0.2-2,0.9-2c0.7,0,0.9,0.8,0.9,3.7v3.7h6.9c3.8,0,6.9,0.2,6.9,0.3c0,0.6,2.9,18.9,3.2,20.3c0.2,0.9,0.1,1.3-0.6,1.3 c-0.7,0-0.8,0.2-0.3,0.7c0.5,0.6,0.2,0.9-1.6,1.4c-1.2,0.4-3.3,0.7-4.5,0.7c-2.1,0-2.4,0.2-2.5,1.6C71.7,117.9,71.5,118.3,71.2,118 L71.2,118z"></path> <path class="st4" d="M83,106.7c0.6-3.9,1.4-9,1.8-11.4l0.7-4.3l6.9-0.2c3.7-0.1,6.7-0.1,6.6,0.1c-0.2,0.2-7.4,0.9-10.3,1 c-0.6,0-0.5,0.3,0.3,1.6c1.6,2.4,1.5,10-0.2,13.1c-1.4,2.5-5.6,7.1-6.7,7.1C82,113.7,82.4,110.5,83,106.7L83,106.7z"></path> <path class="st0" d="M165.2,92.1V76.3h2.8h2.8l0.4,6.6c0.2,3.6,0.3,10.8,0.3,15.8l-0.1,9.2h-3.1h-3.1V92.1z"></path> <path class="st0" d="M178.5,107.5c0-0.2-0.7-0.5-1.6-0.5c-3.1-0.2-3.6-1.8-3.6-11.6c0-8.5,0.1-8.9,1.4-10.2c1.3-1.3,4.7-2.6,6.8-2.6 c0.5,0,1.4,0.4,1.8,0.9c0.7,0.6,0.9,0.7,0.9,0.1c0-0.5,0.7-0.7,2.9-0.6l2.9,0.2v12.3v12.3h-5.8C181,107.9,178.5,107.7,178.5,107.5z M183.6,102.8c0.9-1.6,0.7-14-0.1-14.9c-0.4-0.4-1.2-0.7-1.9-0.7c-2.2,0-2.6,1-2.6,7.9c0,3.6,0.2,7,0.5,7.5 C180.3,104.1,182.9,104.1,183.6,102.8z"></path> <path class="st0" d="M196.7,101.8c-1.5-5.9-1.8-7.2-2.5-10.5c-0.2-0.8-0.6-2.8-1.1-4.4c-0.5-1.6-0.9-3.1-0.9-3.3s1.3-0.3,2.8-0.3 c3.2,0,3-0.5,4.4,6.9c0.5,2.7,1,5.5,1.2,6.3l0.3,1.4l0.5-1.4c0.3-0.8,0.7-2.4,0.9-3.5c0.2-1.2,0.7-3.9,1.2-6.1l0.9-4l2.8,0.2 c1.6,0.1,2.9,0.3,2.9,0.4c0,0.1-0.5,2.4-1.2,5c-0.7,2.6-1.3,5.3-1.4,5.9s-0.9,3.9-1.8,7.4l-1.5,6.2h-3h-2.9 C198.3,107.9,196.7,101.8,196.7,101.8z"></path> <path class="st0" d="M215.6,107.2c-3.2-1.9-3.3-2.3-3.1-12c0.2-10.5,0.4-11,5.6-12c3.6-0.7,7-0.1,9.3,1.7c1.2,1,1.3,1.6,1.5,6.9 l0.2,5.8h-5.5h-5.5v2.5c0,2.9,1,4,3.2,3.5c1-0.2,1.6-0.9,1.8-1.9c0.3-1.4,0.5-1.5,3.2-1.3c2.5,0.2,2.8,0.3,2.8,1.6 c0,0.7-0.3,2-0.6,2.8c-0.7,1.4-4,3.7-4,2.8c0-0.3-0.4-0.6-0.9-0.6c-0.5,0-0.9,0.3-0.9,0.6C222.8,108.2,217,108,215.6,107.2z M223.4,91c0-2.1-1.2-3.8-2.8-3.8c-1.6,0-2.4,1.2-2.4,3.6V93h2.6C223.4,93,223.4,93,223.4,91z"></path> <path class="st0" d="M230.8,95.6V83.3l3.2-0.2c1.7-0.1,3.2,0.1,3.2,0.3s0.5,0.2,1.2-0.2c1.6-0.8,5.1-0.2,5.1,0.9 c0,1.8-1.3,3.6-2.4,3.3c-0.6-0.2-1.7-0.1-2.5,0.1l-1.4,0.3v10.1v10.1H234h-3.2C230.8,107.9,230.8,95.6,230.8,95.6z"></path> <path class="st0" d="M250.4,107.4c0-0.3-0.4-0.4-0.9-0.2c-0.5,0.2-1.6-0.4-2.6-1.4l-1.7-1.7v-8.1c0-4.4,0.2-8.7,0.6-9.5 c1-2.8,7.5-4.8,9.4-2.9c1.1,1.1,1.1,1.2,1-3.6l-0.1-3.6h2.9h2.9l0.2,15.8l0.2,15.8h-5.9C253.1,107.9,250.4,107.6,250.4,107.4 L250.4,107.4z M255.6,102.7c0.3-0.7,0.5-3.9,0.5-7.8c-0.2-7.5-0.7-8.6-3.6-7.3c-1.5,0.6-1.5,0.7-1.5,7.4c0,6.9,0.2,7.8,1.7,8.4 S255,103.9,255.6,102.7L255.6,102.7z"></path> <path class="st0" d="M267.2,107.1c-2.7-1.4-2.9-2.4-3-11.6c0-8.4,0.1-8.8,1.4-10.2c1.8-1.9,5.8-3.1,8-2.2c0.9,0.3,1.6,0.4,1.6,0.2 c0-0.2,1.3-0.3,2.9-0.2l2.9,0.2v12.3v12.3l-6.2-0.1C271,107.8,268,107.5,267.2,107.1L267.2,107.1z M274.3,103 c0.7-0.7,0.9-2.3,0.9-7.8c0-6.9,0-6.9-1.5-7.5c-1-0.5-1.7-0.5-2.4-0.1c-0.8,0.5-1,1.8-1.2,7.7c-0.2,7.3,0.2,8.6,2.2,8.6 C272.9,103.9,273.8,103.5,274.3,103L274.3,103z"></path> <path class="st0" d="M285.8,106.8c-2.3-1.4-3.1-4.3-3.1-11.3c0-6.7,0.7-9.6,2.6-11.1c1.8-1.4,6.2-2.1,7.8-1.3 c1.1,0.6,1.2,0.5,1.2-3.2v-3.7h2.9h2.9V92v15.8h-6.2C288.7,107.9,287.1,107.6,285.8,106.8L285.8,106.8z M293.7,102.5 c0.2-0.3,0.5-3.5,0.5-7.1c0-6.7-0.5-8.2-2.8-8.2c-2,0-2.4,1.2-2.4,8.5c0,6.1,0.1,7.1,1,7.6C291.1,103.9,293.1,103.5,293.7,102.5 L293.7,102.5z"></path> <path class="st4" d="M93.2,103.3c0-0.3,0.3-0.6,0.8-0.6c0.5,0,1,0.3,1.2,0.6c0.2,0.3-0.2,0.6-0.8,0.6 C93.8,103.9,93.2,103.7,93.2,103.3z"></path> <path class="st4" d="M95.5,100.8c0-0.4,0.6-0.9,1.3-1.2c1.9-0.5,2.1-0.5,2.1,0.7c0,0.7-0.5,1-1.7,1.2 C96.1,101.6,95.5,101.4,95.5,100.8z"></path> <g> <path class="st5" d="M60.1,146.2c-20.9-4.5-36.7-21.6-38.7-41.6l-0.3-3.6l2,1c1.9,0.9,2.1,1.2,2.7,5c3.6,21.7,25,37.9,48.1,36.4 c22.6-1.4,39.8-16.8,43.2-38.4c0.3-2,0.7-2.4,4-3.9c0.7-0.3-0.1,6.1-1.2,10.5c-4.3,16.8-19.5,30.8-37.7,34.7 C77.6,147.3,64.8,147.3,60.1,146.2L60.1,146.2z"></path> </g> </svg> 