<?xml version="1.0" encoding="utf-8"?>
<!-- Generator: Adobe Illustrator 27.0.0, SVG Export Plug-In . SVG Version: 6.00 Build 0)  -->
<svg version="1.1" id="Capa_1" xmlns="http://www.w3.org/2000/svg" xmlns:xlink="http://www.w3.org/1999/xlink" x="0px" y="0px"
	 viewBox="0 0 2500 710" style="enable-background:new 0 0 2500 710;" xml:space="preserve">
<style type="text/css">
	.st0{fill:#F39000;}
	.st1{fill:#FFFFFF;}
	.st2{fill:#0B314C;}
</style>
<path class="st0" d="M620.2,172.2c-0.8,0-1.6-0.1-2.3-0.2l-232.3-35.2c-11.7-1.8-21.1-13.7-21.1-26.5V16.8c0-10,5.7-16.8,14.1-16.8
	c1.8,0,3.7,0.3,5.6,0.9l233.2,76.7c10,3.3,18.4,16.1,18.4,28v48C635.8,164.2,629.1,172.2,620.2,172.2 M383.6,322.3
	c-10.7,0-19.1-9.3-19.1-21.1v-93.5c0-11.8,8.4-21.1,19.1-21.1c0.5,0,1.1,0,1.6,0.1l232.1,20.6c10.2,0.9,18.5,11.3,18.5,23.2v48
	c0,11.9-8.3,22.3-18.5,23.2l-232.1,20.6C384.7,322.2,384.1,322.3,383.6,322.3 M378.6,508.7c-8.5,0-14.2-6.7-14.2-16.7v-93.5
	c0-12.9,9.5-24.8,21.1-26.5l232.3-35.2c0.8-0.1,1.6-0.2,2.3-0.2c8.9,0,15.6,8,15.6,18.6v48c0,12.1-8.2,24.6-18.4,28l-233.2,76.7
	C382.4,508.4,380.5,508.7,378.6,508.7"/>
<path class="st1" d="M15.9,203.2c-9.2,0-15.9-7.8-15.9-18.6v-7.8c0-12.9,9-28,19.6-33.1l293-140.1c2.4-1.1,4.6-1.7,6.8-1.7
	c6.8,0,11.2,5.9,11.2,15v93.5c0,12.9-9.2,25.5-20.6,28L19.8,202.7C18.5,203,17.2,203.2,15.9,203.2 M312.7,321.5
	c-0.7,0-1.5-0.1-2.3-0.1L20.7,284.2C9.3,282.8,0,271.2,0,258.4v-7.9c0-12.8,9.3-24.4,20.7-25.9l289.7-37.1c0.8-0.1,1.6-0.2,2.3-0.2
	c10.2,0,17.9,8.7,17.9,20.3v93.5c0,5.7-1.9,10.9-5.3,14.6C322.1,319.4,317.5,321.5,312.7,321.5 M319.4,507c-2.1,0-4.4-0.6-6.7-1.7
	l-293-140.1C9,360.1,0,345,0,332.1v-7.9c0-10.8,6.7-18.6,15.9-18.6c1.3,0,2.6,0.1,3.9,0.4L310,370.5c11.3,2.5,20.6,15.1,20.6,28V492
	c0,4.6-1.1,8.5-3.3,11.2C325.4,505.7,322.5,507.1,319.4,507 M827.8,95.5h62.4v313.9h-62.4V95.5z M990.2,323.4
	c4.4,31.6,20.4,47.2,52,47.2c25.2,0,44.4-5.6,56-11.6l14,38.8c-16.8,8.4-40.8,15.6-77.2,15.6c-66,0-104-43.6-104-112.4
	c0-67.6,35.2-111.2,97.2-111.2c62.4,0,94,42.4,91.2,115.2L990.2,323.4L990.2,323.4z M1025.8,226.6c-25.6,0-41.6,22-39.6,66.4
	l75.2-11.2C1061.4,243.4,1048.5,226.6,1025.8,226.6 M1237.3,413.4c-62.4,0-94.4-23.2-94.4-68c0-55.6,55.6-72,120.4-78v-10
	c0-22.4-15.2-28.8-38-28.8c-20.8,0-42,6.8-56,13.2l-13.6-35.6c15.2-6.4,43.2-16.4,81.2-16.4c48.8,0,84.8,20.4,84.8,78.8v128.8
	C1303.7,407,1274.5,413.4,1237.3,413.4 M1263.3,296.2c-37.6,3.6-62,12.4-62,46.8c0,25.2,14.4,36,39.2,36c9.2,0,17.2-1.6,22.8-4.4
	L1263.3,296.2L1263.3,296.2L1263.3,296.2z M1419.3,413c-26.4,0-50-6.8-63.2-15.6l16-39.6c8,6.4,22.8,12.4,38.4,12.4
	c16,0,26.8-10,26.8-23.6c0-14.4-7.6-22.4-27.6-30.4c-39.6-15.6-48.4-37.6-48.4-60c0-36.8,28.8-66.4,72-66.4c26.8,0,45.2,5.2,62,15.6
	L1480,241c-6.4-5.2-18.8-11.2-32.8-11.2c-16.4,0-24.8,10-24.8,22.4c0,14.4,10.8,22.4,27.6,29.6c41.6,17.6,51.2,38,51.2,63.2
	C1501.2,382.6,1470.4,413,1419.3,413 M1591.2,323.4c4.4,31.6,20.4,47.2,52,47.2c25.2,0,44.4-5.6,56-11.6l14,38.8
	c-16.8,8.4-40.8,15.6-77.2,15.6c-66,0-104-43.6-104-112.4c0-67.6,35.2-111.2,97.2-111.2c62.4,0,94,42.4,91.2,115.2L1591.2,323.4
	L1591.2,323.4z M1626.8,226.6c-25.6,0-41.6,22-39.6,66.4l75.2-11.2C1662.4,243.4,1649.6,226.6,1626.8,226.6 M1985.5,409.4h-57.6
	l-30.8-116.8c-3.6-14.4-4.4-29.6-4.4-29.6h-0.4c0,0-0.8,15.2-4.8,29.6l-31.6,116.8h-57.2l-59.2-215.5h62l26,124.4
	c3.6,17.6,4,31.2,4,31.2h0.8c0,0,0.4-13.2,5.2-31.2l32.8-124.4h51.2l30.8,124.4c3.6,15.2,5.2,31.2,5.2,31.2h0.8c0,0,0.4-16,4-31.6
	l27.6-124h54.8L1985.5,409.4L1985.5,409.4z M2122.7,323.4c4.4,31.6,20.4,47.2,52,47.2c25.2,0,44.4-5.6,56-11.6l14,38.8
	c-16.8,8.4-40.8,15.6-77.2,15.6c-66,0-104-43.6-104-112.4c0-67.6,35.2-111.2,97.2-111.2c62.4,0,94,42.4,91.2,115.2L2122.7,323.4
	L2122.7,323.4z M2158.2,226.6c-25.6,0-41.6,22-39.6,66.4l75.2-11.2C2193.8,243.4,2181,226.6,2158.2,226.6 M2369.4,413.4
	c-37.2,0-63.6-6.8-78-16V95.5h62.4V199c10-4.8,21.2-8,40-8c50.8,0,86,40.8,86,104.4C2479.7,371,2440.2,413.4,2369.4,413.4
	 M2376.2,226.6c-10,0-16.4,1.6-22.4,4.8v141.2c4.8,2,11.6,3.2,19.2,3.2c31.6,0,45.2-28,45.2-76.4
	C2418.2,257.4,2409.4,226.6,2376.2,226.6 M2264.8,679.9c-91.3-2.2-174.1-3.3-255-3.3c-426.9,0-554.2,21.8-555.5,22.1
	c-2,0.5-3.8,1.8-4.9,3.5c-1.1,1.8-1.4-0.6-0.9,1.4c0.9,3.6-0.5,6,3.1,6c0.6,0,1.3-0.1,1.8-0.2c1.3-0.3,132.5-21.7,555.7-21.7
	c80.9,0,168.3,1.1,259.8,3.4c4.3,0,3.3,1,3.5-3.2C2272.5,683.6,2269.1,680,2264.8,679.9"/>
<path class="st1" d="M1451.7,709.9c-2.8,0-2.9-1.4-3-3.4c-0.1-0.8-0.1-1.8-0.4-2.8c-0.1-0.3-0.1-0.6-0.2-0.7c-0.1-0.2-0.1-0.3,0-0.4
	l0.1-0.1h0.2l0.1,0.1c0,0,0.1,0.1,0.1,0.1c0.1,0,0.3,0,0.6-0.6c1.1-1.8,2.9-3.1,5-3.6c0.9-0.2,125.7-22.1,555.5-22.1
	c79,0,162.4,1.1,255,3.3c4.5,0.1,8,3.8,7.9,8.3c0,0.8,0,1.3,0,1.8c0,0.8,0,1.3-0.2,1.5c-0.2,0.2-0.4,0.2-0.7,0.2c-0.2,0-0.4,0-0.7,0
	c-0.5,0-1.2-0.1-2-0.1c-91.4-2.2-178.8-3.4-259.8-3.4c-423.4,0-554.7,21.5-555.6,21.7C1452.9,709.8,1452.3,709.9,1451.7,709.9
	 M1448.6,703.2c0.1,0.2,0.1,0.3,0.1,0.5c0.2,1,0.3,2,0.4,2.8c0.1,2,0.2,3,2.6,3c0.6,0,1.2-0.1,1.8-0.2
	c0.9-0.2,132.3-21.7,555.8-21.7c81,0,168.4,1.1,259.8,3.4c0.9,0,1.6,0,2.1,0.1c0.6,0.1,1,0.1,1.1,0c0.1-0.1,0.1-0.5,0.1-1.2
	c0-0.5,0-1.1,0-1.8c0.1-4.2-3.2-7.7-7.4-7.8c-92.6-2.2-176-3.3-255-3.3c-429.8,0-554.5,21.9-555.4,22.1c-2,0.5-3.7,1.7-4.7,3.4
	C1449.3,702.9,1449,703.2,1448.6,703.2L1448.6,703.2L1448.6,703.2L1448.6,703.2z M1303.8,577.1c0-0.6,0.9-2.4,2.7-5.7
	c2.1-3.3,3-5.4,3-6.3c-4.2,0-15.2,11.3-33.4,34c-18.2,22.4-28.3,33.7-31,33.7c-3.6,0-8.7-3.3-8.7-6.9c0,0.3,2.7-4.2,7.8-12.8
	c10.4-18.2,15.8-36.1,15.8-53.7c0-3.3-0.9-11.3-0.9-14.6c0-2.1,1.8-3.9,5.1-5.1c5.1,2.4,7.7,8.7,7.7,18.8c0,11.6-4.2,26.3-12.2,44.5
	l7.5-9.6c5.4-6.9,8.1-9.8,8.1-9.6c7.1-8.6,14.4-17,21.8-25.4c11.9-13.1,20.3-19.7,24.8-19.7c2.7,0,7.2,6,7.2,9.2
	c0,2.7-4.5,13.1-13.4,31.4c-1.2,2.7-3,3.9-5.7,3.9C1305.9,583.3,1303.8,581.2,1303.8,577.1"/>
<path class="st1" d="M1245,633.3c-3.8,0-8.7-3.3-9.1-6.8h0l0-0.3V626h0.4l-0.3-0.3c0.5-0.5,5.9-9.7,7.7-12.7
	c10.5-18.2,15.7-36.2,15.7-53.5c0-1.6-0.2-4.5-0.4-7.3c-0.2-2.8-0.5-5.7-0.5-7.3c0-2.3,1.9-4.2,5.4-5.5l0.2-0.1l0.2,0.1
	c5.3,2.5,8,9,8,19.2c0,10.7-3.5,24.3-10.9,41.4l5.3-6.8c4.4-5.6,7.1-8.9,8.1-9.6c7.1-8.6,14.4-17,21.8-25.4
	c12-13.2,20.4-19.9,25.1-19.9c3.1,0,7.6,6.4,7.6,9.7c0,2.8-4.4,13.1-13.5,31.5c-1.3,2.8-3.2,4.1-6.1,4.1c-4.2,0-6.4-2.3-6.4-6.7
	c0-0.7,0.7-2.1,2.7-5.9c2-3.2,2.7-4.8,2.9-5.5c-4.3,0.9-15.3,12.3-32.6,33.8C1256.5,623.8,1247.7,633.3,1245,633.3 M1236.8,626.2
	c0.1,3.2,4.7,6.3,8.2,6.3c3,0,18-17.9,30.7-33.6c18.7-23.3,29.5-34.2,33.8-34.2h0.5v0.4c0,1.1-1.1,3.4-3.1,6.5
	c-0.8,1.5-2.6,4.8-2.6,5.4c0,3.9,1.8,5.8,5.5,5.8c2.5,0,4.2-1.1,5.3-3.6c8.9-18.1,13.4-28.5,13.4-31.2c0-3.1-4.3-8.8-6.7-8.8
	c-3,0-9.7,3.4-24.4,19.5c-7.4,8.3-14.7,16.8-21.8,25.4l-0.8,0.9v-0.2c-1,1.1-3.3,3.8-7.3,8.8l-9.7,12.4l1.5-3.3
	c8.2-18.5,12.2-33,12.2-44.3c0-9.8-2.5-15.9-7.3-18.3c-3,1.1-4.6,2.7-4.6,4.6c0,1.6,0.2,4.5,0.5,7.3c0.2,2.8,0.5,5.7,0.5,7.3
	c0,17.4-5.4,35.6-15.9,53.9C1239,622.7,1237.4,625.4,1236.8,626.2 M1399.9,614.4c-14,8.1-29.2,12.2-45.4,12.2
	c-2.4,0-5.7-1.5-10.1-4.2c-6.3-4.5-9.6-10.8-9.6-18.8c0-9.8,5.7-22.7,17.3-38.5c11.7-15.8,21.5-23.9,29.3-23.9
	c11.9,0,21.8,6.6,21.8,18.2c0,7.8-6,15.5-17.9,23.6c-11,7.5-20.9,11-29,11h-2.7c-0.9-0.3-1.8-0.3-2.4-0.3c-0.9,0-1.8,1.8-3,5.1
	c-1.2,3.3-1.8,5.7-1.8,7.2c0,4.2,2.1,6.9,6.3,8.1c1.5,0.3,5.4,0.6,11,0.6c2.1,0,6-0.9,11.6-2.7c5.7-2.1,9.2-3.6,11.3-4.8
	c7.8-4.5,12.2-6.8,13.1-6.8c3.3,0,6.9,4.5,6.9,8.1C1406.7,609.6,1404.3,611.7,1399.9,614.4 M1385.2,553.8c-3.3,0-8.4,3.6-15.2,11
	c-6.9,7.5-10.7,12.8-11.6,16.1h5.4c3.3,0,8.7-3,16.7-8.9c8.1-6,11.9-10.4,11.9-13.1C1392.4,556.5,1387.9,553.8,1385.2,553.8"/>
<path class="st1" d="M1354.5,627.1c-2.3,0-5.4-1.3-10.4-4.3c-6.5-4.6-9.8-11.1-9.8-19.2c0-10,5.9-23.1,17.4-38.8
	c11.7-16,21.7-24.1,29.6-24.1c13.3,0,22.2,7.5,22.2,18.7c0,7.9-5.9,15.7-18.1,23.9c-10.8,7.3-20.9,11.1-29.2,11.1l-2.8,0
	c-0.8-0.3-1.7-0.3-2.2-0.3c-0.8,0-2.1,3.6-2.6,4.8c-1.2,3.2-1.8,5.6-1.8,7c0,4,2,6.5,6,7.6c1.3,0.3,5,0.6,10.9,0.6
	c2,0,5.9-0.9,11.5-2.7c5.8-2.1,9.3-3.6,11.3-4.7c10.6-6.1,12.7-6.9,13.3-6.9c3.7,0,7.3,4.9,7.3,8.5c0,1.4-2.4,3.5-7.1,6.4
	C1385.9,622.9,1370.6,627.1,1354.5,627.1 M1381.4,541.7c-7.6,0-17.3,8-28.9,23.7c-11.4,15.5-17.2,28.4-17.2,38.2
	c0,7.8,3.1,14,9.4,18.4c4.7,2.8,7.8,4.1,9.9,4.1c15.9,0,31.1-4.1,45.1-12.2c6.2-3.7,6.6-5.2,6.6-5.6c0-3.5-3.5-7.6-6.4-7.6
	c-0.7,0-5.1,2.3-12.9,6.8c-2,1.2-5.6,2.6-11.4,4.8c-5.7,1.8-9.7,2.7-11.8,2.7c-6,0-9.8-0.3-11.1-0.6c-4.4-1.3-6.6-4.1-6.6-8.5
	c0-1.6,0.6-4,1.8-7.3c1.5-4,2.3-5.4,3.4-5.4c0.6,0,1.5,0,2.5,0.3h2.6c8.2,0,18.1-3.8,28.7-11c11.9-8,17.7-15.6,17.7-23.2
	C1402.7,547.2,1392,541.7,1381.4,541.7 M1363.8,581.4h-6l0.1-0.6c0.9-3.4,4.8-8.7,11.7-16.3c6.8-7.4,12-11.2,15.6-11.2
	c2.8,0,7.6,2.7,7.6,5.5c0,3.7-6.6,9.4-12.1,13.5C1372.3,578.6,1367.1,581.4,1363.8,581.4 M1359,580.5h4.8c3,0,8.3-2.8,16.4-8.9
	c10.2-7.6,11.8-11.2,11.8-12.8c0-2-4.2-4.6-6.7-4.6c-2.2,0-6.6,1.9-14.9,10.9C1364,572.1,1360.1,577.3,1359,580.5 M1481,480.7
	l-52.8,132.5c1.2,0,4.2-1.5,5.4-1.5c2.4,0,3.6,0.9,3.6,2.7c0,0.6,0,1.2-0.3,1.8c0,6-7.5,12.5-13.4,12.5c-5.1,0-7.7-3.6-7.7-10.8
	c0-8.1,4.2-21.8,12.2-41.2c9-21.8,18.3-43.5,27.8-65.1l8.9-20.9c4.8-11,7.8-16.7,9.2-17c1.5-0.3,2.7-0.6,3.6-0.6
	c2.1,0,3.3,0.9,3.6,2.7L1481,480.7L1481,480.7z"/>
<path class="st1" d="M1423.4,629.1c-3.7,0-8.2-1.9-8.2-11.2c0-7.9,4-21.5,12.3-41.3c9-21.8,18.3-43.5,27.8-65.1l8.9-20.9
	c6.4-14.8,8.4-17,9.6-17.3l0.9-0.2c1.2-0.2,2-0.4,2.8-0.4c2.9,0,3.8,1.7,4,3.1v4.9l0,0.1l-52.6,131.8c0.5-0.1,1.2-0.4,1.8-0.6
	c1.1-0.4,2.2-0.8,2.8-0.8c3.3,0,4,1.7,4,3.1c0,0.6,0,1.2-0.3,1.9C1437.2,622.3,1429.9,629.1,1423.4,629.1 M1477.5,473.7
	c-0.9,0.1-1.8,0.2-2.6,0.4l-0.9,0.2c-1.2,0.2-4.2,5.9-8.9,16.7l-8.9,20.9c-10.7,24.5-20.3,47-27.8,65.1c-8.2,19.8-12.2,33.2-12.2,41
	c0,6.8,2.5,10.3,7.3,10.3c5.9,0,13-6.6,13-12.1l0-0.2c0.3-0.5,0.3-1,0.3-1.6c0-0.9-0.3-2.2-3.1-2.2c-0.5,0-1.6,0.4-2.5,0.7
	c-1.1,0.4-2.2,0.8-2.8,0.8h-0.7l0.2-0.6l52.8-132.4v-4.7C1480.3,474.4,1479.4,473.7,1477.5,473.7 M1491.8,565.1
	c0.3,4.8-1.5,11.6-5.4,20.9c-3.1,6.7-5.9,13.6-8.4,20.6c-0.9,5.4-3,12.5-5.7,21.5c-0.9,1.8-2.4,2.7-4.8,2.7c-3.9,0.3-6-2.1-6.3-7.2
	c-0.3-4.8,6-23.9,18.8-57c0.9-2.1,2.4-3.9,4.5-6c2.1,0,4.2,1.2,6.9,3.6C1491.8,564.5,1491.8,564.8,1491.8,565.1 M1500.4,538.9
	c-1.8,4.5-3.6,6.9-5.7,7.2c-2.7,0-7.5-5.1-7.7-8.3c-0.3-5.1,3.6-15.2,8-15.2c4.8-0.3,7.5,2.1,7.8,6.8
	C1502.8,531.7,1501.9,535,1500.4,538.9"/>
<path class="st1" d="M1467,631.3c-3.7,0-5.8-2.6-6.1-7.6c-0.3-4.9,6-24.2,18.8-57.2c0.8-1.9,2.1-3.7,4.6-6.1l0.1-0.1h0.2
	c2.1,0,4.3,1.1,7.2,3.7c0.4,0.5,0.4,0.9,0.4,1.2c0.3,4.8-1.5,11.7-5.4,21.1c-3.1,6.7-5.9,13.6-8.3,20.6c-0.9,5.3-3,12.6-5.7,21.5
	c-1,2-2.7,3-5.2,3C1467.4,631.3,1467.2,631.3,1467,631.3 M1484.8,561.1c-2.3,2.3-3.5,3.9-4.3,5.7c-15.9,41-19,53.5-18.8,56.8
	c0.3,4.8,2.2,7,5.8,6.7c2.2,0,3.6-0.7,4.4-2.4c2.6-8.8,4.7-16,5.6-21.3c2.5-7,5.3-13.9,8.4-20.7c3.9-9.2,5.6-16,5.3-20.7
	c0-0.3,0-0.4-0.2-0.6C1488.5,562.2,1486.6,561.2,1484.8,561.1 M1494.8,546.5L1494.8,546.5c-3,0-7.9-5.2-8.2-8.8
	c-0.2-3.8,1.8-10.6,4.9-13.8c1.2-1.2,2.4-1.9,3.6-1.9c0.3,0,0.5,0,0.8,0c4.5,0,7.1,2.6,7.4,7.3c0,2.3-0.8,5.5-2.4,9.7
	C1498.9,543.9,1497.1,546.2,1494.8,546.5L1494.8,546.5L1494.8,546.5z M1495.8,522.9l-0.8,0c-1,0-2,0.5-2.9,1.6
	c-2.9,3.1-4.9,9.6-4.7,13.2c0.3,2.9,4.8,7.9,7.3,7.9c1.8-0.3,3.5-2.5,5.3-6.9c1.6-4.1,2.3-7.2,2.3-9.4
	C1502.1,525.1,1499.9,522.9,1495.8,522.9 M1597.4,618.2c0,3.9-5.4,7.8-9.8,7.8c-9,0-17-8.3-23.9-25.4l-14.3,12.5
	c-2.7,1.5-6.9,3.6-12.8,6c-6,2.4-10.2,3.6-12.2,3.6c-12.2,0-18.2-7.2-18.2-21.5c0-11,5.7-24.2,17.3-39.7
	c12.2-16.7,23.9-25.1,34.6-25.1c8.9,0,13.1,6.3,12.8,19.1v3.6c4.2-5.7,7.2-8.4,9.3-8.4c1.5,0,3.9,1.2,7.5,3.9
	c-0.3,1.8-2.4,8.1-6,19.1c-2.7,7.5-4.2,14-4.2,19.4c0,3.9,0.6,8.1,1.8,12.8c1.8,6.3,3.9,9.3,6.6,9.3c0.3,0,3.3-0.6,9-1.5
	C1596.5,615.6,1597.4,617.1,1597.4,618.2 M1549.1,596.5c10.4-10.2,16.1-18.5,16.7-25.4c-2.4,0.3-3.6,0.6-3.3,0.6
	c-3.9,0-5.7-2.7-5.7-8.4c0-3.3,1.5-10.4,1.8-13.1c-8.1,2.1-17,9.8-26.6,22.7c-9.6,12.8-14.3,23.3-14.3,31.9c0,2.4,3.3,6.9,5.4,6.9
	C1530,611.7,1538.6,606.6,1549.1,596.5"/>
<path class="st1" d="M1587.6,626.5c-9.2,0-17.2-8.4-24.1-25.1l-13.9,12.1c-2.5,1.4-6.8,3.6-13,6c-5.9,2.4-10.2,3.6-12.4,3.6
	c-12.4,0-18.7-7.4-18.7-21.9c0-11.3,5.7-24.4,17.4-40c12.3-16.7,24-25.2,35-25.2c3.8,0,6.8,1.1,9,3.3c3.1,3.2,4.5,8.5,4.3,16.2v2.2
	c3.9-5.1,6.7-7.5,8.8-7.5c1.7,0,4.1,1.3,7.7,4l0.2,0.2l0,0.3c-0.3,1.5-1.7,6-4.4,14.3l-1.6,4.9c-2.8,7.7-4.2,14.1-4.2,19.3
	c0,3.8,0.6,7.9,1.8,12.7c1.7,6,3.7,8.9,6.1,8.9c0.1,0,0.8-0.1,1.7-0.3c2.4-0.4,4.8-0.8,7.2-1.2l0.2,0l0.2,0.2
	c1.9,1.9,2.8,3.5,2.8,4.8C1597.9,622.6,1592.1,626.5,1587.6,626.5 M1563.9,599.9l0.2,0.6c6.7,16.7,14.6,25.1,23.5,25.1
	c4.5,0,9.4-3.8,9.4-7.3c0-1-0.8-2.4-2.4-4c-3.2,0.5-5.5,0.9-6.9,1.2c-1.3,0.2-1.7,0.3-1.9,0.3c-2.9,0-5.1-3-7-9.6
	c-1.2-4.9-1.8-9.1-1.8-13c0-5.2,1.4-11.8,4.2-19.6l1.6-4.9c2.4-7.5,3.9-12.1,4.3-13.9c-3.2-2.4-5.6-3.6-7-3.6
	c-1.9,0-4.8,2.7-8.9,8.2l-0.8,1.1v-4.9c0.2-7.5-1.2-12.6-4.1-15.6c-2-2-4.7-3-8.3-3c-10.6,0-22.2,8.4-34.3,24.9
	c-11.6,15.4-17.2,28.3-17.2,39.4c0,14.2,5.8,21,17.8,21c2.1,0,6.3-1.3,12.1-3.6c6.1-2.4,10.3-4.6,12.8-5.9L1563.9,599.9z
	 M1523.1,612.1c-2.4,0-5.8-4.7-5.8-7.3c0-8.6,4.7-19.2,14.4-32.2c9.7-13.1,18.7-20.8,26.8-22.8l0.6-0.2l-0.1,0.6
	c-0.2,1.4-0.4,2.7-0.6,4.1c-0.5,3.1-1.2,6.9-1.2,9c0,5.4,1.6,7.8,5.1,7.9c0.4-0.2,1.3-0.3,3.4-0.6l0.5-0.1l-0.1,0.5
	c-0.6,6.8-6.1,15.2-16.9,25.7C1538.9,607,1530.1,612.1,1523.1,612.1 M1558.1,550.8c-7.7,2.3-16.3,9.8-25.7,22.3
	c-9.6,12.9-14.2,23.2-14.2,31.7c0,2.3,3.2,6.4,4.9,6.4c6.7,0,15.3-5.1,25.6-15.1c10.3-10,15.7-18,16.5-24.5
	c-0.9,0.1-1.8,0.3-2.6,0.5l-0.2-0.4v0.5l-0.4,0c-3.8-0.2-5.7-3.1-5.7-8.8c0-2.2,0.6-6.1,1.2-9.2
	C1557.8,552.9,1558,551.7,1558.1,550.8 M1669.6,615.3c-14,12.5-25.4,18.8-34,18.8c-7.5,0-11.4-3.9-11.4-11.6c0-2.4,0.9-5.4,3-9.2
	c2.1-3.9,3.9-6,6-6c2.1,0,3,1.5,3,4.8c0,2.4-1.5,8.7-1.5,11c0,0.3,0,0.6,0.3,0.9c7.2-1.5,16.4-7.5,28.1-18.5
	c10.7-10.2,16.1-18.5,16.1-25.1c0-9.3-6.9-19.1-15.5-19.1c-7.2,0-14.9,3.6-23.6,10.4c-7.5,6.3-12.2,11.6-14,16.1
	c-2.7,6.3-7.8,20.6-15.8,43c-0.3,1.5-5.4,3.3-7.5,3.3c-2.4,0-3.6-1.8-3.6-5.4c0-0.3,1.2-3.3,3.3-9.2c2.4-6.3,3.6-9.6,3.9-9.9
	c5.1-15.2,10.4-31.6,16.4-48.9c14-40.6,22.7-70.4,26-89.8c0.9-1.5,1.8-2.1,3.3-2.1c5.1,0,7.5,3,7.5,8.7c0,3.3-3.6,17.3-11,41.5
	c-5.7,18.8-10.2,32.8-13.4,42.1c9.9-7.5,19.1-11.3,27.8-11.3c8.1,0,14.9,3.6,20,10.7c5.1,6.9,7.8,14.6,7.8,23.3
	C1690.5,592.3,1683.7,602.7,1669.6,615.3"/>
<path class="st1" d="M1635.6,634.5c-7.7,0-11.8-4.2-11.8-12.1c0-2.6,1-5.7,3-9.5c2.4-4.4,4.2-6.2,6.4-6.2c3.1,0,3.4,3,3.4,5.2
	c0,1.2-0.4,3.3-0.8,5.6c-0.4,2.1-0.7,4.3-0.7,5.5c0,0.2,0,0.3,0.1,0.4c7.1-1.6,16.4-7.8,27.5-18.3c10.6-10,16-18.3,16-24.7
	c0-8.8-6.4-18.7-15.1-18.7c-6.9,0-14.5,3.4-23.3,10.4c-7.6,6.4-12.2,11.6-13.9,15.9c-2.3,5.3-6.3,16.6-12.5,33.6l-3.4,9.3
	c-0.4,1.8-5.9,3.6-7.9,3.6c-2.7,0-4-2-4-5.8c0-0.2,0.1-0.6,0.9-2.8c0.6-1.5,1.4-3.7,2.4-6.6l1.4-3.7c1.6-4.3,2.2-5.7,2.5-6.2
	c1.3-3.9,2.6-7.9,4-11.9c3.9-11.9,8-24.1,12.4-37c14.2-41.1,22.7-70.4,26-89.8l0.1-0.2c1-1.6,2.1-2.3,3.7-2.3c5.3,0,7.9,3.1,7.9,9.1
	c0,3.6-4.1,19.2-11.1,41.6c-5.4,17.8-9.7,31.5-12.9,40.7c9.6-7,18.6-10.6,26.8-10.6c8.3,0,15.3,3.8,20.4,10.9c5.2,7,7.8,15,7.8,23.5
	c0,8.9-6.9,19.3-21,32C1655.9,628.2,1644.4,634.5,1635.6,634.5 M1633.2,607.7c-1.8,0-3.4,1.7-5.6,5.7c-2,3.7-2.9,6.6-2.9,9
	c0,7.4,3.7,11.2,10.9,11.2c8.5,0,19.8-6.3,33.7-18.7c14-12.5,20.7-22.7,20.7-31.3c0-8.4-2.6-16.1-7.7-23c-4.9-7-11.6-10.6-19.6-10.6
	c-8.4,0-17.6,3.8-27.5,11.3l-1.2,0.9l0.5-1.4c3.3-9.2,7.8-23.4,13.4-42.1c6.9-22.4,11-37.8,11-41.3c0-5.5-2.3-8.2-7-8.2
	c-1.3,0-2,0.5-2.8,1.8c-3.3,19.4-11.8,48.8-26,89.8c-4.4,12.9-8.5,25.1-12.4,37c-1.4,4.1-2.7,8.1-4,12l-0.1,0.2
	c-0.2,0.3-1.1,2.7-2.4,6l-1.4,3.7c-1,2.9-1.8,5.1-2.4,6.6c-0.5,1.3-0.9,2.3-0.9,2.5c0,4.9,2.4,4.9,3.1,4.9c2.1,0,6.8-1.8,7-2.9
	l3.4-9.4c6.1-17,10.2-28.3,12.5-33.7c1.8-4.4,6.4-9.8,14.1-16.3c9-7.1,16.8-10.6,23.9-10.6c9.1,0,16,10.3,16,19.5
	c0,6.7-5.5,15.2-16.3,25.4c-11.4,10.8-20.9,17.1-28.3,18.6l-0.2,0.1l-0.2-0.2c-0.4-0.4-0.4-0.9-0.4-1.2c0-1.2,0.3-3.4,0.7-5.6
	c0.4-2.1,0.7-4.3,0.7-5.4C1635.8,608.2,1634.5,607.7,1633.2,607.7 M1764.8,480.7L1712,613.2c1.2,0,4.2-1.5,5.4-1.5
	c2.4,0,3.6,0.9,3.6,2.7c0,0.6,0,1.2-0.3,1.8c0,6-7.5,12.5-13.4,12.5c-5.1,0-7.8-3.6-7.8-10.8c0-8.1,4.2-21.8,12.2-41.2
	c6.9-16.7,16.1-38.5,27.8-65.1l8.9-20.9c4.8-11,7.8-16.7,9.3-17c1.5-0.3,2.7-0.6,3.6-0.6c2.1,0,3.3,0.9,3.6,2.7L1764.8,480.7
	L1764.8,480.7z"/>
<path class="st1" d="M1707.2,629.1c-3.7,0-8.2-1.9-8.2-11.2c0-7.9,4-21.5,12.3-41.3c9-21.8,18.3-43.5,27.8-65.1l8.9-20.9
	c6.4-14.8,8.4-17,9.6-17.3l0.9-0.2c1.2-0.2,2-0.4,2.8-0.4c2.9,0,3.8,1.7,4,3.1l0,4.9l0,0.1l-52.6,131.8c0.5-0.1,1.2-0.4,1.8-0.6
	c1.1-0.4,2.1-0.8,2.8-0.8c3.3,0,4.1,1.7,4.1,3.1c0,0.6,0,1.2-0.3,1.9C1721,622.3,1713.7,629.1,1707.2,629.1 M1761.3,473.7
	c-0.7,0-1.6,0.2-2.6,0.4l-0.9,0.2c-1.2,0.2-4.2,5.9-8.9,16.7l-9,20.9c-9.5,21.6-18.7,43.3-27.7,65.1c-8.2,19.8-12.2,33.2-12.2,41
	c0,6.8,2.5,10.3,7.3,10.3c5.9,0,13-6.6,13-12.1l0-0.2c0.3-0.5,0.3-1,0.3-1.6c0-0.9-0.3-2.2-3.1-2.2c-0.5,0-1.6,0.4-2.5,0.7
	c-1.1,0.4-2.2,0.8-2.8,0.8h-0.7l0.2-0.6l52.8-132.4v-4.7C1764.1,474.4,1763.1,473.7,1761.3,473.7 M1810.2,614.4
	c-14,8.1-29.2,12.2-45.4,12.2c-2.4,0-5.7-1.5-10.2-4.2c-6.3-4.5-9.5-10.8-9.5-18.8c0-9.8,5.7-22.7,17.3-38.5
	c11.6-15.8,21.5-23.9,29.2-23.9c11.9,0,21.8,6.6,21.8,18.2c0,7.8-6,15.5-17.9,23.6c-11,7.5-20.9,11-28.9,11h-2.7
	c-0.9-0.3-1.8-0.3-2.4-0.3c-0.9,0-1.8,1.8-3,5.1c-1.2,3.3-1.8,5.7-1.8,7.2c0,4.2,2.1,6.9,6.3,8.1c1.5,0.3,5.4,0.6,11,0.6
	c2.1,0,6-0.9,11.6-2.7c5.7-2.1,9.2-3.6,11.4-4.8c7.7-4.5,12.2-6.8,13.1-6.8c3.3,0,6.9,4.5,6.9,8.1
	C1817.1,609.6,1814.7,611.7,1810.2,614.4 M1795.6,553.8c-3.3,0-8.3,3.6-15.2,11c-6.9,7.5-10.8,12.8-11.6,16.1h5.4
	c3.3,0,8.7-3,16.7-8.9c8.1-6,11.9-10.4,11.9-13.1C1802.7,556.5,1798.3,553.8,1795.6,553.8"/>
<path class="st1" d="M1764.8,627.1c-2.3,0-5.4-1.3-10.4-4.3c-6.5-4.6-9.8-11.1-9.8-19.2c0-10,5.9-23.1,17.4-38.8
	c11.7-16,21.7-24.1,29.6-24.1c13.3,0,22.2,7.5,22.2,18.7c0,7.9-5.9,15.7-18.1,23.9c-10.8,7.3-20.9,11.1-29.2,11.1l-2.8,0
	c-0.8-0.3-1.7-0.3-2.3-0.3c-0.8,0-2.1,3.6-2.6,4.8c-1.2,3.2-1.8,5.6-1.8,7c0,4,2,6.5,6,7.6c1.3,0.3,5,0.6,10.9,0.6
	c2,0,5.9-0.9,11.5-2.7c5.8-2.1,9.3-3.6,11.2-4.7c10.6-6.1,12.7-6.9,13.3-6.9c3.7,0,7.3,4.9,7.3,8.5c0,1.4-2.4,3.5-7.1,6.4
	C1796.2,622.9,1780.9,627.1,1764.8,627.1 M1791.7,541.7c-7.6,0-17.3,8-28.9,23.7c-11.4,15.5-17.2,28.4-17.2,38.2
	c0,7.8,3.1,14,9.4,18.4c4.7,2.8,7.8,4.1,9.9,4.1c15.9,0,31.1-4.1,45.1-12.2c6.2-3.7,6.6-5.2,6.6-5.6c0-3.5-3.5-7.6-6.4-7.6
	c-0.7,0-5.1,2.3-12.9,6.8c-2.1,1.2-5.6,2.6-11.4,4.8c-5.7,1.8-9.7,2.7-11.8,2.7c-6,0-9.7-0.3-11.1-0.6c-4.4-1.3-6.6-4.1-6.6-8.5
	c0-1.6,0.6-4,1.8-7.3c1.5-4,2.3-5.4,3.4-5.4c0.6,0,1.5,0,2.5,0.3h2.6c8.2,0,18.1-3.8,28.7-11c11.9-8,17.7-15.6,17.7-23.2
	C1813,547.2,1802.3,541.7,1791.7,541.7 M1774.1,581.4h-6l0.1-0.6c0.9-3.4,4.8-8.7,11.7-16.3c6.8-7.4,12.1-11.2,15.5-11.2
	c2.8,0,7.6,2.7,7.6,5.5c0,3.7-6.6,9.4-12.1,13.5C1782.6,578.6,1777.4,581.4,1774.1,581.4 M1769.3,580.5h4.8c3,0,8.3-2.8,16.4-8.9
	c10.2-7.6,11.8-11.2,11.8-12.8c0-2-4.2-4.6-6.7-4.6c-2.2,0-6.6,1.9-14.9,10.9C1774.3,572.1,1770.5,577.3,1769.3,580.5 M1987.2,615.9
	c-6.3,0-11.4-2.7-14.9-8.1c-3.3-4.8-4.8-10.4-4.8-17.3c0-2.1,1.2-6.3,3.6-12.8c2.7-6.9,3.9-10.7,3.9-11.6l-0.3-0.6
	c-7.2,5.7-12.8,10.7-17.3,15.2l-24.5,27.5c-12.8,13.7-21.2,20.6-25.1,20.6c-4.8,0-7.2-2.7-7.2-7.7c11-27.8,28.4-73.4,51.9-137.6
	c0.9-2.1,2.4-4.5,4.5-7.8c2.1-3.3,3.9-5.1,5.1-5.1c2.4,0,6.9,3.6,6.9,6c-28.4,75.5-44.2,117-47.8,125.1c17-18.2,26.9-28.3,28.9-30.4
	c14.6-14,25.7-20.9,32.5-20.9c4.5,0,7.5,5.7,7.5,10.2c0,1.5-2.1,7.2-6,16.4c-3.9,9.3-5.7,15.5-5.7,18.8c0,6.9,3,10.4,8.7,10.4
	c1.5,0,5.4-0.9,6.9-0.9c3.9,0,5.7,1.5,5.7,4.2C1999.7,613.8,1995.5,615.9,1987.2,615.9"/>
<path class="st1" d="M1907.8,629.1c-5,0-7.6-2.8-7.6-8.2l0-0.2c11.7-29.5,29.7-77,51.9-137.6c0.9-2.1,2.3-4.4,4.5-7.9
	c2.2-3.5,4.1-5.3,5.5-5.3c2.6,0,7.3,3.8,7.3,6.4l0,0.2c-26.9,71.6-41.9,110.9-46.8,122.7c16.3-17.4,25.3-26.7,27.2-28.6
	c14.3-13.8,25.7-21,32.8-21c4.9,0,7.9,6.2,7.9,10.6c0,1.5-2,7-6,16.6c-4.7,11.1-5.6,16.3-5.6,18.6c0,6.6,2.8,10,8.2,10
	c0.7,0,2.1-0.2,3.4-0.4c1.4-0.2,2.7-0.5,3.5-0.5c5.1,0,6.1,2.5,6.1,4.6c0,4.7-4.2,7-13,7c-6.5,0-11.6-2.8-15.3-8.3
	c-3.3-4.7-4.8-10.5-4.8-17.6c0-2.1,1.1-6.2,3.6-13c2.9-7.4,3.8-10.6,3.8-11.4c-6.5,5.2-12.1,10.1-16.8,14.8l-24.5,27.4
	C1920.1,622.4,1911.8,629.1,1907.8,629.1 M1901.1,621c0,4.8,2.3,7.2,6.7,7.2c3.7,0,12.1-6.9,24.7-20.5l24.5-27.4
	c4.8-4.9,10.7-10,17.4-15.3l0.4-0.3l0.6,1.3c0,1.1-1.5,5.7-3.9,11.8c-2.4,6.6-3.6,10.7-3.6,12.7c0,6.9,1.5,12.5,4.7,17.1
	c3.5,5.2,8.4,7.9,14.6,7.9c8.1,0,12.1-2,12.1-6.1c0-2.5-1.7-3.7-5.2-3.7c-0.7,0-2.1,0.2-3.4,0.4c-1.4,0.2-2.7,0.5-3.5,0.5
	c-6,0-9.1-3.8-9.1-10.9c0-3.5,2-10.1,5.7-19c4.9-11.7,5.9-15.3,5.9-16.2c0-4-2.7-9.7-7-9.7c-6.9,0-18.1,7.2-32.2,20.8
	c-2.5,2.5-12.9,13.3-28.9,30.4l-1.8,1.9l1.1-2.4c3.5-7.9,18.7-47.6,47.7-125c-0.1-2.2-4.3-5.4-6.4-5.4c-0.4,0-1.8,0.3-4.7,4.9
	c-2.2,3.5-3.6,5.7-4.4,7.7C1930.8,544,1912.8,591.5,1901.1,621 M2085.3,593.5c-6.3,9.5-13.7,17.3-22.7,23.3
	c-10.2,6.8-20.3,10.2-30.5,10.2c-14.3,0-23.6-12.2-23.6-26.6c0-5.4,1.8-11.9,5.1-19.4c3.9-8.7,8.3-12.8,12.8-12.8
	c3.6,0,7.5,4.5,7.5,8.1l-7.8,13.1c-3.3,6-5.1,10.8-5.1,14c0,4.8,1.5,8.1,4.2,9.5c2.1,0.9,5.7,1.5,10.7,1.5c9.3,0,18.5-4.5,28.1-13.1
	c9.6-8.7,14.3-17.6,14.3-26.9c0-9.8-3.6-14.6-10.7-14.6c-3.6,0-7.8,2.1-12.2,6.6c-4.5,4.2-6.9,8.1-6.9,11.6c0,1.2,2.1,3,2.1,5.1
	c0,2.1-2.4,3-6.9,3c-4.5,0-6.9-3-6.9-8.9c0-6.9,3.3-13.4,9.5-19.7c6.3-6.6,12.8-9.8,19.7-9.8c10.8,0,21.5,9.5,22.4,20
	c1.2,2.4,1.8,5.1,1.8,7.8C2090.4,582.4,2088.6,588.4,2085.3,593.5"/>
<path class="st1" d="M2032.2,627.4c-13.7,0-24-11.6-24-27c0-5.3,1.7-11.9,5.1-19.6c3.8-8.6,8.4-13.1,13.2-13.1
	c3.7,0,7.9,4.5,7.9,8.5v0.1l-0.1,0.1l-7.8,13.1c-3.3,6-5,10.7-5,13.8c0,4.5,1.4,7.7,4,9.2c2.1,0.9,5.9,1.4,10.5,1.4
	c9,0,18.1-4.3,27.8-13c9.4-8.5,14.2-17.5,14.2-26.5c0-9.5-3.4-14.2-10.3-14.2c-3.6,0-7.7,2.2-11.9,6.4c-4.5,4.2-6.7,8-6.7,11.3
	c0,0.4,0.4,1,0.8,1.6c0.6,0.9,1.3,2.1,1.3,3.5c0,3.4-5.5,3.4-7.3,3.4c-3.3,0-7.3-1.6-7.3-9.4c0-6.9,3.3-13.6,9.7-20
	c6.3-6.6,13.1-10,20-10c11,0,21.9,9.7,22.8,20.3c1.2,2.4,1.8,5.1,1.8,7.9c0,7.1-1.7,13.1-5.1,18.5c-6.4,9.8-13.9,17.5-22.8,23.4
	C2052.9,623.9,2042.6,627.4,2032.2,627.4 M2026.6,568.6c-4.4,0-8.7,4.3-12.4,12.6c-3.3,7.6-5,14.1-5,19.2c0,14.9,9.9,26.1,23.1,26.1
	c10.2,0,20.3-3.4,30.2-10.1c8.8-5.9,16.2-13.4,22.6-23.2c3.4-5.2,5-11.1,5-18c0-2.7-0.6-5.3-1.8-7.6l0-0.2
	c-0.9-10.2-11.3-19.6-21.9-19.6c-6.7,0-13.2,3.3-19.4,9.7c-6.2,6.2-9.4,12.8-9.4,19.4c0,5.6,2.2,8.5,6.4,8.5c6.4,0,6.4-1.9,6.4-2.5
	c0-1.1-0.6-2.1-1.2-3c-0.5-0.8-0.9-1.4-0.9-2.1c0-3.7,2.3-7.6,7-12c4.4-4.4,8.7-6.7,12.6-6.7c7.4,0,11.2,5.1,11.2,15.1
	c0,9.3-4.9,18.5-14.5,27.2c-9.8,8.9-19.1,13.2-28.4,13.2c-4.8,0-8.6-0.5-10.9-1.5c-2.9-1.6-4.5-5-4.5-10c0-3.3,1.7-8.1,5.1-14.2
	l7.7-13C2033.5,572.6,2029.7,568.6,2026.6,568.6 M2173.4,546.3l-23.9,3.6c-14.6,2.7-22.1,6.3-22.1,10.8c0,1.5,2.7,3.9,8.1,6.6
	c7.5,3.6,14,8.7,19.7,15.2c6.9,7.5,10.2,14.9,10.2,22.1c0,7.5-3.6,13.7-10.8,19.4c-7.2,5.7-14.6,8.4-22.4,8.4c-1.2,0-4.8-0.9-6-0.9
	c-5.7,0-11.3-1.8-17-5.1c-6.3-3.9-9.3-8.7-9.3-14c0-7.5,8.6-14.3,16.7-14.3c4.5,0,6.9,1.8,6.9,5.7c0,2.7-3.3,6.3-10.1,11
	c4.5,3.3,11.3,5.1,20.6,5.1c8.7,0,19.4-6.9,19.4-15.2c0-9.3-9.6-18.8-28.4-28.9c-8.1-4.2-12.2-10.2-12.2-17.9
	c0-5.7,6.3-10.7,19.1-14.6c10.2-3.3,19.1-5.1,26.9-5.1c9.8,0,14.9,2.4,15.2,7.2L2173.4,546.3L2173.4,546.3z"/>
<path class="st1" d="M2132.2,632.7c-0.6,0-1.8-0.2-3.1-0.5c-1-0.2-1.9-0.4-2.9-0.4c-5.5,0-11.3-1.7-17.2-5.1
	c-6.3-3.9-9.5-8.7-9.5-14.4c0-7.5,8.5-14.8,17.2-14.8c4.8,0,7.3,2.1,7.3,6.1c0,2.8-3.1,6.3-9.8,11c4.5,3.1,11.2,4.6,19.8,4.6
	c8.5,0,19-6.8,19-14.8c0-9-9.2-18.3-28.1-28.6c-8.3-4.3-12.5-10.4-12.5-18.3c0-6,6.7-11.2,19.4-15c10.6-3.4,19.4-5.1,27-5.1
	c10.1,0,15.4,2.6,15.7,7.6l0,0.1l-0.7,1.5l-24.1,3.6c-14.4,2.6-21.7,6.1-21.7,10.3c0,1.1,2,3.3,7.8,6.2c7.6,3.7,14.4,8.9,19.8,15.3
	c6.8,7.4,10.3,14.9,10.3,22.4c0,7.5-3.6,13.9-10.9,19.7C2147.8,629.9,2140.1,632.7,2132.2,632.7 M2116.7,598.4
	c-8.2,0-16.3,6.9-16.3,13.9c0,5.3,3,9.9,9,13.6c5.7,3.3,11.4,5,16.8,5c0.6,0,1.8,0.2,3.1,0.4c1.2,0.2,2.4,0.4,2.9,0.4
	c7.7,0,15.2-2.8,22.1-8.3c7.1-5.6,10.6-11.9,10.6-19c0-7.2-3.4-14.5-10-21.8c-5.6-6.5-12.2-11.6-19.6-15.1c-3.1-1.6-8.3-4.5-8.3-7
	c0-4.8,7.3-8.4,22.5-11.2l23.7-3.5l0.4-0.9c-0.4-4.4-5.3-6.6-14.8-6.6c-7.5,0-16.2,1.6-26.7,5c-12.3,3.7-18.8,8.6-18.8,14.2
	c0,7.5,4,13.4,12,17.5c19.2,10.4,28.6,20,28.6,29.3c0,8.7-10.8,15.7-19.8,15.7c-9.2,0-16.2-1.7-20.9-5.2l-0.5-0.4l0.5-0.4
	c6.7-4.7,10-8.2,10-10.7C2123.1,600.1,2121,598.4,2116.7,598.4 M2229.5,556.8c-7.5,19.4-12.8,36.4-16.4,50.4c0.3,3,0.6,4.5,0.9,4.5
	c0.9,0,3.6-1.8,5.1-1.8c1.5,0,2.1,1.2,2.1,3.6c0,5.1-6.3,11.9-11,11.9c-6,0-8.9-4.5-8.9-13.1c0-6.3,2.1-15.2,6-26.6
	c5.1-14.6,7.8-23.6,8.4-26.9c-6.6-0.6-13.1-1.2-19.7-2.1c-9.3-1.5-13.7-4.8-13.7-9.9c0-2.7,1.8-4.2,5.7-4.2c1.5,0,3.6,0.6,5.7,1.5
	c2.4,0.9,10.4,1.5,24.2,2.1c1.8,0,3-0.6,3.3-1.5l20.9-64.5c2.4-7.5,5.1-12.5,8.1-15.2c4.8,2.1,7.2,4.8,7.2,8.1l-23.3,70.4
	c1.5,0,4.5-1.2,5.7-1.2h12.2c8.7,0,12.8,1.2,12.8,3.6c0,2.1-5.1,4.5-14.9,6.6L2229.5,556.8L2229.5,556.8z"/>
<path class="st1" d="M2210.1,625.9c-6.2,0-9.4-4.6-9.4-13.6c0-6.2,2-14.9,6-26.7c4.4-12.6,7.4-22.3,8.2-26.3
	c-6.3-0.6-12.7-1.2-19.2-2.1c-9.4-1.5-14.1-5-14.1-10.3c0-2.1,1.1-4.6,6.1-4.6c1.5,0,3.5,0.5,5.8,1.5c2.1,0.8,9.3,1.4,24,2.1
	c1.5,0,2.6-0.5,2.8-1.2l20.9-64.5c2.4-7.5,5.2-12.7,8.2-15.4l0.2-0.2l0.3,0.1c4.9,2.2,7.4,5,7.4,8.5l0,0.1l-23.1,69.8
	c0.7-0.1,1.6-0.3,2.4-0.6c1.1-0.3,2-0.6,2.7-0.6h12.2c9.1,0,13.3,1.3,13.3,4c0,3.1-8.3,5.5-15.3,7l-19.8,4.1
	c-6.9,18-12.4,34.9-16.3,50.1c0.3,2.7,0.5,3.7,0.6,4c0.4-0.1,1-0.4,1.6-0.7c1.1-0.5,2.4-1.1,3.3-1.1c2.3,0,2.5,2.3,2.5,4
	C2221.6,618.8,2215,625.9,2210.1,625.9 M2187.7,543.2c-3.5,0-5.2,1.2-5.2,3.7c0,4.9,4.4,8,13.3,9.4c6.5,0.8,13.1,1.5,19.7,2.1
	l0.5,0.1l-0.1,0.5c-0.7,3.7-3.7,13.6-8.4,26.9c-4,11.7-5.9,20.3-5.9,26.4c0,8.4,2.9,12.7,8.5,12.7c4.4,0,10.6-6.7,10.6-11.5
	c0-2.8-0.8-3.1-1.6-3.1c-0.7,0-2,0.6-2.9,1c-1,0.5-1.7,0.8-2.1,0.8c-0.5,0-0.9-0.3-1.3-4.9l0-0.1l0-0.1c3.9-15.3,9.4-32.3,16.4-50.5
	l0.1-0.2l0.2-0.1l20-4.2c10.7-2.3,14.6-4.7,14.6-6.1c0-1.4-2.2-3.1-12.4-3.1h-12.2c-0.5,0-1.5,0.3-2.4,0.5c-1.2,0.3-2.4,0.6-3.3,0.6
	h-0.6l0.2-0.6l23.3-70.4c0-3-2.3-5.5-6.6-7.5c-2.8,2.7-5.4,7.7-7.7,14.8l-20.9,64.5c-0.4,1.1-1.8,1.8-3.7,1.8
	c-15-0.7-22-1.3-24.3-2.1C2191,543.7,2189,543.2,2187.7,543.2 M2289.2,565.1c0.3,4.8-1.5,11.6-5.4,20.9c-3.1,6.7-5.9,13.6-8.3,20.6
	c-0.9,5.4-3,12.5-5.7,21.5c-0.9,1.8-2.4,2.7-4.8,2.7c-3.9,0.3-6-2.1-6.3-7.2c-0.3-4.8,6-23.9,18.8-57c0.9-2.1,2.4-3.9,4.5-6
	c2.1,0,4.2,1.2,6.9,3.6C2289.2,564.5,2289.2,564.8,2289.2,565.1 M2297.8,538.9c-1.8,4.5-3.6,6.9-5.7,7.2c-2.7,0-7.5-5.1-7.7-8.3
	c-0.3-5.1,3.6-15.2,8.1-15.2c4.8-0.3,7.5,2.1,7.7,6.8C2300.2,531.7,2299.3,535,2297.8,538.9"/>
<path class="st1" d="M2264.4,631.3c-3.8,0-5.8-2.6-6.1-7.6c-0.3-4.9,6-24.2,18.8-57.2c0.8-1.9,2.2-3.7,4.6-6.1l0.1-0.1h0.2
	c2.1,0,4.2,1.1,7.2,3.7c0.4,0.5,0.4,0.9,0.4,1.2c0.3,4.8-1.5,11.7-5.4,21.1c-3.1,6.7-5.9,13.6-8.3,20.6c-0.9,5.3-3,12.6-5.7,21.5
	c-1,2-2.7,3-5.2,3C2264.8,631.3,2264.6,631.3,2264.4,631.3 M2282.2,561.1c-2.3,2.3-3.5,3.9-4.3,5.7c-15.9,41-19,53.5-18.8,56.8
	c0.3,4.8,2.2,7,5.8,6.7c2.2,0,3.6-0.7,4.4-2.4c2.6-8.8,4.7-16,5.6-21.3c2.5-7,5.3-13.9,8.4-20.7c3.9-9.2,5.6-16,5.3-20.7
	c0-0.3,0-0.4-0.2-0.6C2285.9,562.2,2284,561.2,2282.2,561.1 M2292.2,546.5L2292.2,546.5c-3,0-7.9-5.2-8.2-8.8
	c-0.2-3.8,1.8-10.6,4.9-13.8c1.2-1.2,2.4-1.9,3.6-1.9c0.2,0,0.5,0,0.8,0c4.5,0,7.1,2.6,7.4,7.3c0,2.3-0.8,5.5-2.4,9.7
	C2296.3,543.9,2294.4,546.2,2292.2,546.5L2292.2,546.5L2292.2,546.5z M2293.2,522.9l-0.8,0c-1,0-2,0.5-2.9,1.6
	c-2.9,3.1-4.9,9.6-4.7,13.2c0.3,2.9,4.8,7.9,7.3,7.9c1.8-0.3,3.5-2.5,5.3-6.9c1.6-4.1,2.3-7.2,2.3-9.4
	C2299.5,525.1,2297.3,522.9,2293.2,522.9 M2390,611.7c-6.3,0-11.4-2.7-14.9-8.3c-3.3-4.8-4.8-10.4-4.8-17.3c0-1.5,1.5-6.3,4.2-13.7
	c3-7.5,4.5-11.6,4.5-12.5c-8.7,6.9-14.9,12.2-18.8,16.4l-24.5,27.8c-12.5,13.4-20.9,20.3-25.1,20.3c-4.8,0-7.2-2.7-7.2-7.8
	c5.4-14,13.7-34.6,25.1-62.1c3.6-8.7,6.6-12.8,9.2-12.8c2.4,0,6.9,3.3,6.9,5.7c0,0.3-6.3,15.5-18.5,45.4l1.5,1.2
	c16.7-17.9,25.7-27.5,27.2-28.7c13.4-12.8,23.9-19.4,30.7-19.4c4.5,0,7.5,5.7,7.5,10.2c0,1.5-2.1,7.2-6,16.4
	c-3.9,9.3-5.7,15.5-5.7,18.8c0,6.9,3,10.4,8.7,10.4c1.5,0,5.4-0.9,6.9-0.9c3.9,0,5.7,1.5,5.7,4.2
	C2402.6,609.3,2398.4,611.7,2390,611.7"/>
<path class="st1" d="M2310.7,624.7c-5,0-7.6-2.8-7.6-8.2l0-0.2c5-13.1,12.7-32.2,25.1-62.1c3.7-8.9,6.8-13.1,9.7-13.1
	c2.7,0,7.3,3.5,7.3,6.1c0,0.3-1.3,3.4-13.5,33.2l-5,12.1l0.9,0.7c17.8-19.1,25.5-27.2,26.9-28.4c13.5-12.9,24-19.5,31-19.5
	c4.9,0,7.9,6.2,7.9,10.6c0,1.5-2,7-6,16.6c-4.6,11.1-5.6,16.3-5.6,18.6c0,6.6,2.8,10,8.2,10c0.7,0,2.1-0.2,3.4-0.4
	c1.4-0.2,2.7-0.5,3.5-0.5c5,0,6.1,2.5,6.1,4.6c0,3.3-2.2,7.3-13,7.3c-6.6,0-11.7-2.9-15.3-8.6c-3.3-4.7-4.8-10.5-4.8-17.6
	c0-1.5,1.3-5.9,4.2-13.9c2.7-6.6,3.8-9.8,4.2-11.2c-8.7,7-14.2,11.8-17.8,15.6l-24.5,27.8C2323.2,618,2314.9,624.7,2310.7,624.7
	 M2303.9,616.6c0,4.8,2.3,7.2,6.7,7.2c3.9,0,12.3-6.8,24.7-20.1l24.5-27.7c3.7-4,9.5-9,18.8-16.5l0.7-0.6v0.9
	c0,0.6-0.5,2.6-4.5,12.7c-2.8,7.6-4.1,12.2-4.1,13.6c0,6.9,1.5,12.5,4.7,17.1c3.4,5.4,8.3,8.2,14.6,8.2c8,0,12.1-2.2,12.1-6.4
	c0-2.5-1.7-3.7-5.2-3.7c-0.7,0-2.1,0.2-3.4,0.5c-1.4,0.2-2.7,0.4-3.5,0.4c-6,0-9.1-3.8-9.1-10.9c0-3.5,2-10.1,5.7-19
	c4.9-11.7,5.9-15.3,5.9-16.2c0-4.1-2.7-9.7-7-9.7c-6.7,0-17.2,6.7-30.4,19.3c-1.5,1.2-11.7,12.1-27.1,28.6l-0.3,0.3l-2.1-1.7
	l5.2-12.7c8.5-20.8,13.2-32.3,13.4-32.9c0-2-4.2-5.1-6.4-5.1c-2.4,0-5.3,4.1-8.8,12.6C2316.7,584.4,2308.9,603.5,2303.9,616.6
	 M2494.8,582.2c-1.2,3.3-3.3,8.3-6.3,14.9l-15.8,29.5c-10.4,20-16.4,31-17.3,32.5c-6.3,10.7-13.1,20.9-20.9,30.4
	c-2.4,3.3-6.9,4.8-13.7,4.8c-8.1,0-14.9-4.8-20.6-14c-5.1-8.4-7.7-16.7-7.7-25.4c0-5.4,1.5-8.1,4.8-8.1c2.7,0,4.8,5.7,6.3,16.7
	c0.3,3.3,2.4,7.5,6.3,12.5c3.9,5.4,7.2,8.1,10.2,8.1c6.9,0,17.6-13.4,31.9-40.3c4.2-7.8,11-21.8,20.9-41.8c-2.7,3-7.2,7.2-13.4,12.2
	c-11.7,7.8-20.3,11.6-26.3,11.6c-7.2,0-12.2-3-15.5-8.7c-2.7-4.8-3.6-10.7-3-17.9c3.9-34.3,23.9-57.6,51-57.6
	c10.5,0,18.8,9.2,18.8,19.7c0,10.2-2.1,15.2-6,15.2c-4.5,0-6.6-2.1-6.6-6.2c0-6.9-0.6-11.7-2.1-14.3c-2.1-1.5-4.5-2.4-7.8-2.4
	c-14.9,0-26.6,14.6-34.9,43.9c-0.3,2.1-0.6,3.9-0.6,6c0,6.3,2.4,9.6,7.2,9.6c8.7,0,23.9-9.9,45.4-29.9l7.2-8.7
	c3.9-4.5,6.6-6.6,8.1-6.6c3.6,0,5.4,2.1,5.4,6L2494.8,582.2L2494.8,582.2z"/>
<path class="st2" d="M2420.8,694.8c-8.1,0-15.2-4.8-21-14.2c-5.3-8.7-7.8-17-7.8-25.6c0-5.7,1.7-8.5,5.2-8.5c3,0,5.2,5.6,6.7,17.1
	c0.3,3.2,2.4,7.4,6.2,12.3c3.8,5.3,7,7.9,9.8,7.9c4.6,0,13.9-7,31.5-40.1c3.7-6.9,9.7-18.9,17.8-35.6l1.7-3.5
	c-2.4,2.4-6,5.7-11.5,10.1c-11.9,7.9-20.5,11.7-26.6,11.7c-7.1,0-12.5-3-15.9-8.9c-2.7-4.8-3.7-10.7-3-18.2
	c1.9-17,7.8-31.5,16.9-41.9c9.2-10.5,21.2-16.1,34.6-16.1c10.4,0,19.2,9.2,19.2,20.2c0,10.4-2.2,15.7-6.4,15.7c-4.7,0-7-2.3-7-6.7
	c0-7-0.6-11.5-2-14c-2.2-1.5-4.5-2.2-7.4-2.2c-14.6,0-26.2,14.6-34.5,43.5l-0.1,0.6c-0.3,1.8-0.5,3.4-0.5,5.2c0,6,2.3,9.1,6.7,9.1
	c8.7,0,23.9-10,45.1-29.7l7.1-8.6c3.9-4.5,6.7-6.7,8.4-6.7c3.8,0,5.8,2.2,5.8,6.4v0.1l-0.1,0.1l-4.8,8.1c-1.3,3.6-3.5,8.9-6.2,14.9
	l-15.8,29.6c-10.2,19.5-16.3,30.9-17.3,32.6c-6.6,11.3-13.4,21.3-20.9,30.5C2432.4,693.2,2427.9,694.8,2420.8,694.8 M2397.2,647.4
	c-1.9,0-4.3,0.8-4.3,7.6c0,8.4,2.5,16.6,7.7,25.1c5.6,9.2,12.4,13.8,20.2,13.8c6.8,0,11.1-1.5,13.4-4.6c7.5-9.2,14.3-19.2,20.9-30.4
	c1-1.6,7.1-13.1,17.3-32.5l15.8-29.6c2.7-5.9,4.9-11.2,6.2-14.9l4.8-8c0-3.6-1.7-5.4-4.9-5.4c-0.8,0-2.9,0.8-7.7,6.4l-7.2,8.6
	c-21.4,19.9-36.8,30-45.7,30c-3.5,0-7.6-1.7-7.6-10c0-1.9,0.2-3.6,0.5-5.3l0.1-0.7c8.4-29.4,20.3-44.2,35.4-44.2
	c3.1,0,5.7,0.8,8,2.5l0.1,0.1c1.5,2.6,2.1,7.3,2.1,14.6c0,4,2,5.8,6.1,5.8c4.6,0,5.5-8,5.5-14.8c0-10.4-8.4-19.2-18.4-19.2
	c-26.8,0-46.7,22.4-50.6,57.2c-0.6,7.3,0.3,13.1,2.9,17.6c3.3,5.7,8.2,8.4,15.1,8.4c5.8,0,14.3-3.8,26-11.6
	c5.7-4.6,10.4-8.9,13.3-12.2l2.2-2.4l-4.5,9.1c-8.2,16.6-14.1,28.7-17.9,35.6c-14.3,26.9-25.2,40.5-32.3,40.5
	c-3.1,0-6.4-2.6-10.5-8.2c-3.9-5.1-6-9.4-6.4-12.8C2401.2,650.2,2398.8,647.4,2397.2,647.4"/>
</svg>
