<?xml version="1.0" encoding="utf-8"?>
<!-- Generator: Adobe Illustrator 27.0.0, SVG Export Plug-In . SVG Version: 6.00 Build 0)  -->
<svg version="1.1" id="Layer_1" xmlns="http://www.w3.org/2000/svg" xmlns:xlink="http://www.w3.org/1999/xlink" x="0px" y="0px"
	 viewBox="0 0 1200 300" style="enable-background:new 0 0 1200 300;" xml:space="preserve">
<style type="text/css">
	.st0{fill:#FFFFFF;}
	.st1{fill:#5E8CDA;}
	.st2{fill:#1596ED;}
	.st3{fill:#F5CD21;}
	.st4{fill:#FDDD75;}
</style>
<path class="st0" d="M329.3,75.7v126.6c0,1.2,0.9,2.2,2.1,2.3c6.7,0.5,14.1,0.5,21.9,0c6.4-0.5,14.1-1.4,23.7-2.8
	c-0.3,1.9-0.5,4-0.5,6.3c0,1.9,0.2,4.3,0.6,6.8h-75.4V75.7c1.4,0.1,3.3,0.3,5.6,0.7c3.3,0.6,6.8,0.6,8.8,0l6.8,0
	C325.4,76.1,327.5,75.8,329.3,75.7z M419.6,82.6c-4,0.6-6.7,0.6-8.6,0h-6.8c-2.4-0.3-4.2-0.5-5.6-0.7v132.9h26.2V82
	C423.3,82.1,421.6,82.3,419.6,82.6z M445.6,81.9c0.3,1.9,0.4,3.8,0.4,5.6c0,2.4-0.1,4.6-0.3,6.4h4.4c12.4-1.6,22.8-2.4,30.8-2.4
	c1.3,0,2.3,1,2.3,2.3v121.1h25.4V93.8c0-1.3,1-2.3,2.3-2.3c5.8,0,14.1,0.5,24.8,1.6c2.7,0.4,5.5,0.6,8.5,0.7c-0.3-1.8-0.3-3.9,0-6.3
	c-0.3-1.9-0.3-3.8,0.1-5.7L445.6,81.9L445.6,81.9z M565.1,81.9v133H637c-0.4-2.4-0.5-4.6-0.5-6.4c0-2.1,0.2-4,0.4-5.8
	c-4.9,0.7-10.3,1.3-16.2,1.7c-6.8,0.5-16.2,0.8-27.9,0.8c-1.3,0-2.3-1-2.3-2.3v-51.4c0-1.3,1-2.3,2.3-2.3h19.2
	c6.4,0.4,11.6,0.7,16.7,1.1l3.8,0.3c-0.1-0.5-0.2-1.1-0.4-1.7l-0.1-9.3c0-0.3,0-0.5,0.1-0.7c0-0.2,0.1-0.4,0.2-0.5
	c-6.8,0.8-13,1.2-20.4,1.2h-19.2c-1.3,0-2.3-1-2.3-2.3V93.8c0-1.3,1-2.3,2.3-2.3c14.2,0,29.1,0.9,44.3,2.8c-0.5-2.1-0.7-4.1-0.7-6
	c0-2.2,0.2-4.4,0.7-6.4H565.1z M745.2,174c-0.6-16.4-13.2-31-37.6-43.3c-18.1-9.3-26.9-18.4-26.9-27.7c0-15,8.8-23.2,25.4-23.8
	c11.3,0,20,6.1,25.9,18c0.6-2.1,1.5-4.8,2.6-8.2c1.4-3.6,2.5-6.6,3.5-9.1c-8.7-5.2-19.2-8.1-31.1-8.6c-30.2,1.6-45.4,15.5-46.4,42.5
	c0,18.2,11.5,32.8,34.2,43.3c19,8.6,28.6,18.5,28.6,29.4c-1.2,15.2-10.3,23.2-27,23.8c-16.6-0.6-26.9-8.4-30.8-23.2h-0.3
	c-1.1,8-2.7,16-5,23.6c10.1,3.8,20.5,6,31.1,6.5C724.6,217.4,743,201.6,745.2,174z M789.1,154.9c-0.4,0-1,0.1-1.5,0.6
	c-0.4,0.4-0.7,1-0.7,1.6v57.8h-26.4V81.8h47.6c27.2,0,40.7,10.4,41.2,31.8c0.2,11.6-3,20.9-9.5,27.5c-9,9.1-24.6,13.7-46.6,13.7
	C792,154.9,790.6,154.9,789.1,154.9z M788.9,148.2c1,0.1,2.1,0.2,3.2,0.2c3.2,0,7-0.6,11.1-1.9c12-3.4,18.6-13.2,19.8-29.1
	c-1.1-18-8.2-28-21.2-29.7h-12.6c-1.2,0-2.2,1-2.2,2.2V146C787,147.1,787.8,148,788.9,148.2z M955.1,81.8v133.1h72
	c-0.3-2.4-0.5-4.6-0.5-6.5c0-2.1,0.1-4.1,0.5-5.9c-5,0.8-10.4,1.4-16.3,1.8c-6.9,0.5-15.9,0.8-27.8,0.8c-1.2,0-2.2-1-2.2-2.2v-51.4
	c0-1.2,1-2.2,2.2-2.2h21.3c8,0.5,15.3,0.9,22,1.4c-0.1-0.5-0.3-1.2-0.4-1.8l-0.1-9.2c0-0.3,0-0.5,0.1-0.7c0.1-0.2,0.2-0.5,0.2-0.7
	c-6.7,0.8-14,1.2-21.8,1.2h-21.3c-1.2,0-2.2-1-2.2-2.2V93.9c0-1.2,1-2.2,2.2-2.2c14.2,0,29.1,0.9,44.4,2.8c-0.5-2.1-0.7-4.2-0.7-6.1
	c0-2.3,0.2-4.5,0.8-6.5L955.1,81.8L955.1,81.8z M1089.4,214.9h-43.8V81.8l56.4,0c38,2.6,57.5,23.1,59.6,62.5
	C1158.9,188.6,1134.7,212.3,1089.4,214.9z M1131.9,144.4c0-36.6-16.4-55.1-48.8-55.1h-9.8c-1.2,0-2.2,1-2.2,2.2v113.8
	c0,1.2,1,2.2,2.2,2.2h8.6c16.6,0,29.2-5.4,37.5-16C1127.7,180.9,1131.9,165.1,1131.9,144.4z M864.1,81.8v133.1h72
	c-0.3-2.4-0.5-4.6-0.5-6.5c0-2.1,0.2-4.1,0.5-5.9c-5,0.8-10.4,1.4-16.3,1.8c-6.9,0.5-16,0.8-27.8,0.8c-1.2,0-2.2-1-2.2-2.2v-51.4
	c0-1.2,1-2.2,2.2-2.2h21.3c8,0.5,15.3,0.9,22,1.4c-0.1-0.5-0.3-1.2-0.4-1.8l-0.1-9.2c0-0.3,0-0.5,0.1-0.7c0.1-0.2,0.1-0.5,0.2-0.7
	c-6.6,0.8-14,1.2-21.8,1.2h-21.3c-1.2,0-2.2-1-2.2-2.2V93.9c0-1.2,1-2.2,2.2-2.2c14.2,0,29.1,0.9,44.4,2.8c-0.5-2.1-0.7-4.2-0.7-6.1
	c0-2.3,0.3-4.5,0.8-6.5L864.1,81.8L864.1,81.8z"/>
<g>
	<g>
		<path class="st1" d="M255.3,145.8l-64-64c-0.3-0.3-0.6-0.4-1-0.4c0,0-0.1,0-0.1,0c-0.4,0-0.8,0.2-1,0.5l-27.3,34.6
			c-0.4,0.6-0.4,1.4,0.1,1.9l29.4,29.4c1.1,1.1,1.6,2.5,1.6,4c0,1.5-0.6,2.9-1.6,3.9l-8.5,8.5c-0.5,0.5-0.6,1.2-0.2,1.8
			c2.1,3.2,5.6,8.4,5.9,9c1.1,2.1,1.4,7.6-1.7,9.9l-66.9,51.3c-0.3,0.3-0.6,0.7-0.6,1.1c0,5.7,0,51.5,0,51.9c0,1,0,1.6,0.8,2
			c0.2,0.1,0.4,0.1,0.6,0.1c0.6,0,0.8-0.2,1.4-0.8l1.1-1.1c1-1,131.8-131.8,131.8-131.8C258.5,154.4,258.5,149.1,255.3,145.8z"/>
		<path class="st2" d="M170.3,8.9L170.3,8.9C170.2,8.9,170.2,8.8,170.3,8.9l-0.1-0.1c-0.3-0.3-0.6-0.5-1-0.5c0,0,0,0-0.1,0
			c-0.4,0-0.7,0.1-1,0.4L34.7,142c-1.6,1.6-2.5,3.7-2.5,5.9c0,2.3,0.9,4.4,2.5,5.9l64,64c0.3,0.3,0.6,0.4,1,0.4c0,0,0.1,0,0.1,0
			c0.4,0,0.8-0.2,1-0.5l27.3-34.6c0.4-0.6,0.4-1.4-0.1-1.9l-29.4-29.4c-1-1-1.6-2.4-1.6-3.9c0-1.5,0.6-2.9,1.6-3.9l8.5-8.5
			c0.5-0.5,0.6-1.2,0.2-1.8l-5.8-8.3c-2.3-3.3-1.6-8.1,1.6-10.5L170,63.5c0.4-0.3,0.6-0.7,0.6-1.1l0-52.6
			C170.5,9.4,170.4,9.1,170.3,8.9z"/>
	</g>
	<path class="st3" d="M182,174.1L108,126l32.7,47c0.7,1.1,0.6,2.9-0.1,4L82,251.3c-1,1.3-1.9,2.8-1.2,4.3c0.4,0.8,1.3,1.4,2.3,1.5
		c1.2,0,2-0.5,3.3-1.4l94.2-72.3C183.4,181.2,183.3,175.9,182,174.1z"/>
	<path class="st4" d="M209.2,44.1c-0.4-0.9-1.4-1.5-2.5-1.5c-0.9,0-1.8,0.4-3.1,1.4l-94.2,72.3c-3,2.3-3.7,6.6-1.5,9.7l74.1,48.1
		c-1.1-1.6-32.4-47-32.7-47.4c-0.7-1-0.6-3,0.1-3.9L208,48.3l0-0.1C209,47,210,45.6,209.2,44.1z"/>
</g>
</svg>
