<?xml version="1.0" encoding="utf-8"?>
<!-- Generator: Adobe Illustrator 27.0.0, SVG Export Plug-In . SVG Version: 6.00 Build 0)  -->
<svg version="1.1" id="Layer_1" xmlns="http://www.w3.org/2000/svg" xmlns:xlink="http://www.w3.org/1999/xlink" x="0px" y="0px"
	 viewBox="0 0 200 200" style="enable-background:new 0 0 200 200;" xml:space="preserve">
<style type="text/css">
	.st0{fill:#FFFFFF;}
	.st1{fill-rule:evenodd;clip-rule:evenodd;fill:#FF9900;}
</style>
<g>
	<path class="st0" d="M55.7,83.6c0,2.4,0.2,4.5,0.7,6c0.5,1.5,1.2,3,2.2,4.9c0.4,0.5,0.5,1.1,0.5,1.6c0,0.6-0.4,1.3-1.2,1.9
		l-4.3,2.8c-0.6,0.4-1.2,0.6-1.7,0.6c-0.6,0-1.3-0.4-1.9-1c-1-1-1.7-2.1-2.4-3.2c-0.6-1.1-1.3-2.4-2.1-3.9
		c-5.3,6.1-11.9,9.1-19.7,9.1c-5.6,0-10.1-1.6-13.4-4.9c-3.3-3.2-5-7.5-5-12.8c0-5.7,1.9-10.3,6.1-13.7c4.1-3.4,9.5-5.2,16.4-5.2
		c2.3,0,4.6,0.2,7.1,0.5c2.4,0.2,5,0.9,7.7,1.5v-4.9c0-5.1-1.1-8.6-3.2-10.7c-2.2-2.1-5.7-3-10.9-3c-2.3,0-4.7,0.2-7.2,0.9
		s-4.9,1.3-7.2,2.3c-1.1,0.5-1.8,0.7-2.3,0.9c-0.5,0.1-0.9,0.2-1.1,0.2c-1,0-1.5-0.6-1.5-2.1v-3.3c0-1.1,0.1-1.8,0.5-2.3
		c0.4-0.5,1-1,1.8-1.5c2.3-1.2,5.1-2.2,8.4-3c3.3-0.9,6.7-1.2,10.5-1.2c7.9,0,13.7,1.8,17.5,5.5c3.6,3.6,5.6,9.1,5.6,16.4v21.6H55.7
		z M28.6,93.7c2.2,0,4.5-0.4,6.9-1.2s4.5-2.3,6.3-4.3c1.1-1.2,1.8-2.7,2.3-4.3c0.4-1.6,0.6-3.5,0.6-5.8v-2.8c-1.9-0.5-4-0.9-6.2-1.1
		c-2.2-0.2-4.3-0.4-6.3-0.4c-4.5,0-7.8,0.9-10,2.7c-2.2,1.8-3.3,4.4-3.3,7.7c0,3.2,0.9,5.5,2.4,7.1C23.2,92.9,25.5,93.7,28.6,93.7z
		 M82.2,101c-1.2,0-1.9-0.2-2.6-0.6c-0.5-0.4-1-1.3-1.5-2.6L62.6,46c-0.4-1.3-0.6-2.2-0.6-2.7c0-1.1,0.5-1.7,1.6-1.7h6.6
		c1.2,0,2.2,0.2,2.6,0.6c0.5,0.4,1,1.3,1.3,2.6l11.2,44.3l10.5-44.3c0.4-1.3,0.7-2.2,1.2-2.6c0.6-0.2,1.6-0.6,2.8-0.6h5.3
		c1.2,0,2.2,0.2,2.7,0.6c0.5,0.4,1,1.3,1.2,2.6l10.6,44.7l11.6-44.7c0.4-1.3,0.9-2.2,1.3-2.6c0.5-0.4,1.5-0.6,2.6-0.6h6.2
		c1.1,0,1.7,0.5,1.7,1.7c0,0.4-0.1,0.6-0.1,1.1c-0.1,0.4-0.2,1-0.5,1.7l-16,51.7c-0.4,1.3-0.9,2.2-1.5,2.6s-1.5,0.6-2.6,0.6h-5.7
		c-1.2,0-2.2-0.2-2.7-0.6c-0.5-0.4-1-1.3-1.2-2.7l-10.3-43L91.9,97.6c-0.4,1.3-0.7,2.2-1.2,2.7c-0.5,0.5-1.5,0.6-2.7,0.6h-5.8V101z
		 M168,102.8c-3.5,0-6.9-0.4-10.3-1.2c-3.3-0.9-6-1.7-7.7-2.7c-1.1-0.6-1.8-1.2-2.1-1.8c-0.2-0.6-0.4-1.2-0.4-1.8v-3.4
		c0-1.5,0.5-2.1,1.6-2.1c0.4,0,0.9,0.1,1.2,0.2s1,0.4,1.7,0.6c2.3,1,4.7,1.8,7.3,2.3c2.7,0.5,5.2,0.9,7.9,0.9c4.3,0,7.5-0.7,9.7-2.2
		c2.3-1.5,3.5-3.6,3.5-6.3c0-1.8-0.6-3.4-1.8-4.6s-3.5-2.4-6.7-3.5l-9.7-3c-4.9-1.6-8.5-3.8-10.7-6.8c-2.2-2.9-3.3-6.2-3.3-9.7
		c0-2.8,0.6-5.2,1.8-7.4s2.8-4,4.9-5.5c1.9-1.6,4.3-2.7,6.9-3.5c2.7-0.9,5.5-1.1,8.4-1.1c1.5,0,3,0.1,4.5,0.2
		c1.6,0.2,2.9,0.5,4.4,0.7c1.3,0.4,2.6,0.6,3.8,1.1c1.2,0.5,2.2,0.9,2.8,1.2c1,0.5,1.6,1.1,1.9,1.7c0.4,0.5,0.6,1.2,0.6,2.2v3.2
		c0,1.5-0.5,2.2-1.6,2.2c-0.5,0-1.5-0.2-2.6-0.9c-3.8-1.9-8-2.8-12.8-2.8c-3.8,0-6.8,0.6-8.9,1.8s-3.2,3.2-3.2,6
		c0,1.8,0.6,3.5,1.9,4.7c1.3,1.2,3.8,2.6,7.3,3.6l9.5,3c4.9,1.6,8.3,3.6,10.3,6.4c2.1,2.8,3,5.8,3,9.4c0,2.9-0.6,5.5-1.7,7.8
		c-1.2,2.3-2.8,4.3-4.9,5.8c-2.1,1.7-4.5,2.9-7.4,3.8C174.6,102.3,171.4,102.8,168,102.8z"/>
	<g>
		<path class="st1" d="M180.7,135.3c-22,16.3-53.9,24.8-81.3,24.8c-38.4,0-73.2-14.2-99.3-37.9c-2.1-1.8-0.2-4.4,2.3-2.9
			c28.3,16.4,63.2,26.4,99.5,26.4c24.4,0,51.2-5.1,75.9-15.4C181.2,128.4,184.3,132.6,180.7,135.3z"/>
		<path class="st1" d="M189.9,124.8c-2.8-3.6-18.6-1.7-25.8-0.9c-2.2,0.2-2.4-1.6-0.5-3c12.5-8.9,33.2-6.3,35.6-3.3
			c2.4,3-0.6,23.7-12.4,33.6c-1.8,1.6-3.5,0.7-2.8-1.2C186.7,143.2,192.7,128.3,189.9,124.8z"/>
	</g>
</g>
</svg>
