<?xml version="1.0" encoding="utf-8"?>
<!-- Generator: Adobe Illustrator 27.0.0, SVG Export Plug-In . SVG Version: 6.00 Build 0)  -->
<svg version="1.1" id="Capa_1" xmlns="http://www.w3.org/2000/svg" xmlns:xlink="http://www.w3.org/1999/xlink" x="0px" y="0px"
	 viewBox="0 0 600 341" style="enable-background:new 0 0 600 341;" xml:space="preserve">
<style type="text/css">
	.st0{fill:#3AA7D2;}
	.st1{fill:#005D99;}
	.st2{fill:#50B2D7;}
</style>
<g>
	<g>
		<g>
			<g>
				<path class="st0" d="M151.1,327.4c-2.7-2.4-3.4-5.7-3.4-8.3c0-1.9,0.6-5.2,3.2-7.7c1.7-1.7,4.2-3,8.6-3c1.1,0,2.7,0.1,4.1,0.3
					c1.1,0.2,2,0.4,2.9,0.4c0.3,0,0.4,0.1,0.4,0.3c0,0.2-0.1,0.6-0.1,1.6c-0.1,0.9-0.1,2.5-0.1,2.9c0,0.4-0.1,0.6-0.3,0.6
					c-0.2,0-0.2-0.2-0.2-0.6c0-1.1-0.4-2.3-1.2-2.9c-1-0.8-3.2-1.6-5.6-1.6c-3.7,0-5.5,1.1-6.5,2.1c-2.1,2-2.5,4.5-2.5,7.3
					c0,5.4,4.1,10.3,10.2,10.3c2.1,0,3.8-0.3,4.9-1.4c0.6-0.6,1-1.9,1-2.4c0.1-0.3,0.1-0.4,0.3-0.4c0.1,0,0.2,0.2,0.2,0.4
					c0,0.2-0.3,2.6-0.6,3.6c-0.2,0.5-0.2,0.6-0.7,0.8c-1.1,0.4-3.3,0.6-5.1,0.6C156.2,330.5,153.3,329.4,151.1,327.4z"/>
				<path class="st0" d="M177.3,323.1c0,2.3,0,4.2,0.1,5.2c0.1,0.7,0.2,1.2,0.9,1.3c0.4,0.1,0.9,0.1,1.1,0.1c0.1,0,0.2,0.1,0.2,0.2
					c0,0.1-0.1,0.2-0.4,0.2c-1.4,0-3-0.1-3.1-0.1c-0.1,0-1.7,0.1-2.4,0.1c-0.3,0-0.4-0.1-0.4-0.2c0-0.1,0.1-0.2,0.2-0.2
					c0.2,0,0.5-0.1,0.8-0.1c0.5-0.1,0.6-0.6,0.6-1.3c0.1-1,0.1-2.9,0.1-5.2v-4.2c0-3.7,0-4.4-0.1-5.2c-0.1-0.8-0.3-1.2-0.8-1.3
					c-0.3-0.1-0.6-0.1-0.8-0.1c-0.1,0-0.2-0.1-0.2-0.2c0-0.1,0.1-0.2,0.4-0.2c0.8,0,2.4,0.1,2.5,0.1c0.1,0,1.7-0.1,2.5-0.1
					c0.3,0,0.4,0.1,0.4,0.2c0,0.1-0.1,0.2-0.2,0.2c-0.2,0-0.3,0-0.6,0.1c-0.7,0.1-0.8,0.5-0.9,1.3c0,0.8,0,1.4,0,5.2V323.1z"/>
				<path class="st0" d="M187.9,318.9c0-3.7,0-4.4-0.1-5.2c-0.1-0.8-0.2-1.2-1-1.3c-0.2,0-0.6-0.1-0.8-0.1c-0.1,0-0.2-0.1-0.2-0.2
					c0-0.1,0.1-0.2,0.4-0.2c1.1,0,2.8,0.1,2.9,0.1c0.3,0,2.3-0.1,3.1-0.1c1.6,0,3.3,0.1,4.6,1c0.6,0.4,1.7,1.6,1.7,3.3
					c0,1.8-0.7,3.5-3,5.5c2,2.5,3.7,4.7,5.2,6.2c1.3,1.4,2.1,1.6,2.8,1.7c0.5,0.1,0.7,0.1,0.9,0.1c0.1,0,0.2,0.1,0.2,0.2
					c0,0.1-0.1,0.2-0.6,0.2h-1.5c-1.4,0-2-0.1-2.6-0.5c-1.1-0.6-2-1.7-3.4-3.5c-1-1.3-2.1-2.8-2.7-3.5c-0.1-0.1-0.2-0.1-0.3-0.1
					l-3.2-0.1c-0.1,0-0.2,0.1-0.2,0.2v0.6c0,2.3,0,4.2,0.1,5.1c0.1,0.7,0.2,1.2,1,1.3c0.3,0.1,0.9,0.1,1.1,0.1
					c0.2,0,0.2,0.1,0.2,0.2c0,0.1-0.1,0.2-0.4,0.2c-1.4,0-2.9-0.1-3-0.1c0,0-1.7,0.1-2.4,0.1c-0.3,0-0.4-0.1-0.4-0.2
					c0-0.1,0.1-0.2,0.2-0.2c0.2,0,0.5-0.1,0.8-0.1c0.5-0.1,0.5-0.6,0.6-1.3c0.1-1,0.1-2.9,0.1-5.2V318.9z M190.1,320.9
					c0,0.1,0.1,0.2,0.2,0.3c0.4,0.2,1.6,0.4,2.7,0.4c0.6,0,1.3,0,1.9-0.4c0.8-0.6,1.5-1.8,1.5-3.7c0-3-1.6-4.7-4.3-4.7
					c-0.7,0-1.5,0.1-1.8,0.1c-0.1,0.1-0.2,0.1-0.2,0.3V320.9z"/>
				<path class="st0" d="M208,318.9c0-3.7,0-4.4-0.1-5.2c-0.1-0.8-0.2-1.2-1-1.3c-0.2,0-0.6-0.1-0.8-0.1c-0.1,0-0.2-0.1-0.2-0.2
					c0-0.1,0.1-0.2,0.4-0.2c1.1,0,2.6,0.1,2.8,0.1c0.2,0,1.8-0.1,2.5-0.1c0.3,0,0.4,0.1,0.4,0.2c0,0.1-0.1,0.2-0.2,0.2
					c-0.2,0-0.3,0-0.6,0.1c-0.6,0.1-0.8,0.5-0.8,1.3c-0.1,0.8-0.1,1.4-0.1,5.2v3.3c0,3.5,0.8,4.9,1.8,5.9c1.2,1.1,2.3,1.3,3.7,1.3
					c1.5,0,3-0.7,3.8-1.7c1.2-1.4,1.4-3.3,1.4-5.8v-3c0-3.7,0-4.4-0.1-5.2c0-0.8-0.2-1.2-1-1.3c-0.2,0-0.6-0.1-0.8-0.1
					c-0.1,0-0.2-0.1-0.2-0.2c0-0.1,0.1-0.2,0.4-0.2c1.1,0,2.5,0.1,2.7,0.1c0.2,0,1.4-0.1,2.1-0.1c0.3,0,0.4,0.1,0.4,0.2
					c0,0.1-0.1,0.2-0.2,0.2c-0.2,0-0.3,0-0.6,0.1c-0.7,0.1-0.8,0.5-0.9,1.3c-0.1,0.8,0,1.4,0,5.2v2.6c0,2.6-0.3,5.5-2.3,7.2
					c-1.8,1.5-3.7,1.7-5.2,1.7c-0.8,0-3.4-0.1-5.1-1.7c-1.2-1.1-2.2-2.8-2.2-6.3V318.9z"/>
				<path class="st0" d="M244,324c0-1.9-0.1-2.2-1.1-2.4c-0.2,0-0.6-0.1-0.8-0.1c-0.1,0-0.2-0.1-0.2-0.2c0-0.2,0.1-0.2,0.4-0.2
					c1.1,0,2.8,0.1,2.9,0.1c0.1,0,1.7-0.1,2.4-0.1c0.3,0,0.4,0,0.4,0.2c0,0.1-0.1,0.2-0.2,0.2c-0.2,0-0.3,0-0.6,0.1
					c-0.7,0.1-0.9,0.5-0.9,1.3c0,0.8,0,1.5,0,2.5v2.7c0,1.1,0,1.1-0.3,1.3c-1.6,0.8-3.8,1.1-5.3,1.1c-1.9,0-5.4-0.2-8.2-2.6
					c-1.5-1.3-3-3.8-3-6.8c0-3.8,1.9-6.5,4.1-7.9c2.2-1.4,4.7-1.5,6.6-1.5c1.6,0,3.3,0.3,3.8,0.4c0.5,0.1,1.4,0.3,2,0.3
					c0.3,0,0.3,0.1,0.3,0.2c0,0.3-0.1,1-0.1,3.4c0,0.4-0.1,0.5-0.3,0.5c-0.1,0-0.2-0.1-0.2-0.4c0-0.3-0.2-1-0.6-1.6
					c-0.6-0.9-2.5-1.9-5.7-1.9c-1.5,0-3.3,0.1-5.2,1.5c-1.4,1.1-2.4,3.2-2.4,6c0,3.4,1.7,5.8,2.6,6.6c2,1.8,4.1,2.5,6.3,2.5
					c0.9,0,2-0.1,2.7-0.5c0.3-0.2,0.5-0.3,0.5-0.7V324z"/>
				<path class="st0" d="M257.8,323.1c0,2.3,0,4.2,0.1,5.2c0.1,0.7,0.2,1.2,0.9,1.3c0.4,0.1,0.9,0.1,1.1,0.1c0.1,0,0.2,0.1,0.2,0.2
					c0,0.1-0.1,0.2-0.4,0.2c-1.4,0-3-0.1-3.1-0.1c-0.1,0-1.7,0.1-2.4,0.1c-0.3,0-0.4-0.1-0.4-0.2c0-0.1,0.1-0.2,0.2-0.2
					c0.2,0,0.5-0.1,0.8-0.1c0.5-0.1,0.6-0.6,0.6-1.3c0.1-1,0.1-2.9,0.1-5.2v-4.2c0-3.7,0-4.4-0.1-5.2c-0.1-0.8-0.3-1.2-0.8-1.3
					c-0.3-0.1-0.6-0.1-0.8-0.1c-0.1,0-0.2-0.1-0.2-0.2c0-0.1,0.1-0.2,0.4-0.2c0.8,0,2.4,0.1,2.5,0.1c0.1,0,1.7-0.1,2.5-0.1
					c0.3,0,0.4,0.1,0.4,0.2c0,0.1-0.1,0.2-0.2,0.2c-0.2,0-0.3,0-0.6,0.1c-0.7,0.1-0.8,0.5-0.9,1.3c0,0.8,0,1.4,0,5.2V323.1z
					 M261,308.2c0.1,0.3,0,0.3-0.1,0.3c-0.1,0-0.4-0.1-0.8,0c-1.4,0.1-3.3,0.8-4.3,1.2c-0.2,0.1-0.4,0.1-0.4,0.1
					c-0.1,0-0.1-0.1-0.1-0.2c0-0.1,0.1-0.1,0.2-0.2c1-0.7,3.6-2.3,3.8-2.4c0.5-0.3,0.6-0.4,0.8-0.4c0.1,0,0.1,0.1,0.3,0.3
					C260.5,307.3,260.7,307.7,261,308.2z"/>
				<path class="st0" d="M274,312.5c0.3-0.8,0.4-0.9,0.6-0.9c0.3,0,0.3,0.3,0.6,0.9c0.5,1,4.4,10.9,5.9,14.5
					c0.9,2.1,1.6,2.4,2.1,2.6c0.4,0.1,0.7,0.1,1,0.1c0.1,0,0.3,0.1,0.3,0.2s-0.3,0.2-0.6,0.2c-0.4,0-2.2,0-3.9-0.1
					c-0.5,0-0.9,0-0.9-0.2c0-0.1,0.1-0.1,0.2-0.2c0.1-0.1,0.4-0.3,0.2-0.6l-2.2-5.5c-0.1-0.1-0.1-0.1-0.2-0.1h-5.7
					c-0.1,0-0.2,0.1-0.3,0.2l-1.4,3.8c-0.2,0.6-0.4,1.2-0.4,1.6c0,0.5,0.4,0.6,0.8,0.6h0.2c0.2,0,0.3,0.1,0.3,0.2
					c0,0.1-0.1,0.2-0.4,0.2c-0.6,0-1.9-0.1-2.2-0.1c-0.3,0-1.5,0.1-2.5,0.1c-0.3,0-0.5-0.1-0.5-0.2c0-0.1,0.1-0.2,0.2-0.2
					c0.2,0,0.5,0,0.7-0.1c1.1-0.1,1.6-1,2.1-2.2L274,312.5z M276.7,322.4c0.1,0,0.1-0.1,0.1-0.2l-2.4-6.6c-0.1-0.4-0.3-0.4-0.4,0
					l-2.3,6.6c0,0.1,0,0.2,0.1,0.2H276.7z"/>
				<path class="st0" d="M303.2,317c0-4.4,0-5.2-0.1-6.1c-0.1-1-0.3-1.4-1.2-1.6c-0.2-0.1-0.7-0.1-1-0.1c-0.1,0-0.2-0.1-0.2-0.2
					c0-0.2,0.1-0.2,0.4-0.2c1.3,0,3,0.1,3.2,0.1c0.6,0,2.3-0.1,3.5-0.1c3.5,0,4.8,1.2,5.2,1.6c0.6,0.6,1.4,1.9,1.4,3.3
					c0,4-2.9,6.7-6.9,6.7c-0.1,0-0.5,0-0.6,0c-0.1,0-0.3-0.1-0.3-0.2c0-0.2,0.2-0.3,0.8-0.3c2.7,0,4.9-2,4.9-4.6
					c0-0.9-0.1-2.8-1.6-4.3c-1.5-1.5-3.2-1.4-3.9-1.4c-0.5,0-1,0.1-1.2,0.2c-0.2,0.1-0.2,0.3-0.2,0.5v11.6c0,2.7,0,4.9,0.1,6.1
					c0.1,0.8,0.3,1.4,1.1,1.5c0.4,0.1,1,0.1,1.3,0.1c0.2,0,0.2,0.1,0.2,0.2c0,0.1-0.1,0.2-0.5,0.2c-1.5,0-3.3-0.1-3.5-0.1
					c-0.1,0-1.9,0.1-2.7,0.1c-0.3,0-0.4-0.1-0.4-0.2c0-0.1,0.1-0.2,0.2-0.2c0.3,0,0.6-0.1,0.8-0.1c0.6-0.1,0.7-0.7,0.8-1.5
					c0.1-1.2,0.1-3.4,0.1-6.1V317z"/>
				<path class="st0" d="M325.2,323.2c0,3.5,0.1,5,0.5,5.4c0.4,0.4,1.4,0.6,3.3,0.6c1.3,0,2.4,0,3-0.7c0.3-0.4,0.5-0.9,0.6-1.4
					c0-0.2,0.1-0.3,0.3-0.3c0.1,0,0.2,0.1,0.2,0.4c0,0.3-0.2,1.7-0.4,2.4c-0.2,0.6-0.3,0.6-1.6,0.6c-1.8,0-3.2,0-4.3-0.1
					c-1.1,0-2-0.1-2.7-0.1c-0.1,0-0.5,0-1,0c-0.5,0-1,0.1-1.4,0.1c-0.3,0-0.4-0.1-0.4-0.2c0-0.1,0.1-0.2,0.2-0.2
					c0.2,0,0.5-0.1,0.8-0.1c0.5-0.1,0.5-0.6,0.6-1.3c0.1-1,0.1-2.9,0.1-5.2v-4.2c0-3.7,0-4.4-0.1-5.2c-0.1-0.8-0.2-1.2-1-1.3
					c-0.2,0-0.6-0.1-0.8-0.1c-0.1,0-0.2-0.1-0.2-0.2c0-0.1,0.1-0.2,0.4-0.2c1.1,0,2.7,0.1,2.8,0.1c0.1,0,2-0.1,2.7-0.1
					c0.3,0,0.4,0.1,0.4,0.2c0,0.1-0.1,0.2-0.2,0.2c-0.2,0-0.5,0-0.8,0.1c-0.7,0.1-0.9,0.5-0.9,1.4c0,0.8,0,1.4,0,5.2V323.2z"/>
				<path class="st0" d="M346,312.5c0.3-0.8,0.4-0.9,0.6-0.9c0.3,0,0.3,0.3,0.6,0.9c0.4,1,4.4,10.9,5.9,14.5
					c0.9,2.1,1.6,2.4,2.1,2.6c0.4,0.1,0.7,0.1,1,0.1c0.1,0,0.3,0.1,0.3,0.2s-0.3,0.2-0.6,0.2c-0.4,0-2.2,0-3.9-0.1
					c-0.5,0-0.9,0-0.9-0.2c0-0.1,0.1-0.1,0.2-0.2c0.1-0.1,0.4-0.3,0.2-0.6l-2.2-5.5c-0.1-0.1-0.1-0.1-0.2-0.1h-5.7
					c-0.1,0-0.2,0.1-0.3,0.2l-1.4,3.8c-0.2,0.6-0.4,1.2-0.4,1.6c0,0.5,0.4,0.6,0.8,0.6h0.2c0.2,0,0.3,0.1,0.3,0.2
					c0,0.1-0.1,0.2-0.4,0.2c-0.6,0-1.9-0.1-2.2-0.1c-0.3,0-1.5,0.1-2.5,0.1c-0.3,0-0.5-0.1-0.5-0.2c0-0.1,0.1-0.2,0.2-0.2
					c0.2,0,0.5,0,0.7-0.1c1.1-0.1,1.6-1,2.1-2.2L346,312.5z M348.7,322.4c0.1,0,0.1-0.1,0.1-0.2l-2.4-6.6c-0.1-0.4-0.3-0.4-0.4,0
					l-2.3,6.6c0,0.1,0,0.2,0.1,0.2H348.7z M350.9,308.2c0.1,0.3,0,0.3-0.1,0.3c-0.1,0-0.4-0.1-0.8,0c-1.4,0.1-3.3,0.8-4.3,1.2
					c-0.2,0.1-0.4,0.1-0.4,0.1s-0.1-0.1-0.1-0.2c0-0.1,0.1-0.1,0.2-0.2c1-0.7,3.6-2.3,3.8-2.4c0.5-0.3,0.6-0.4,0.8-0.4
					c0.1,0,0.1,0.1,0.3,0.3C350.4,307.3,350.6,307.7,350.9,308.2z"/>
				<path class="st0" d="M361.5,329.8c-0.3-0.2-0.4-0.3-0.4-0.9c0-1.2,0.1-2.1,0.1-2.5c0-0.3,0.1-0.4,0.2-0.4s0.2,0.1,0.2,0.3
					c0,0.2,0,0.5,0.1,0.9c0.4,1.7,2.3,2.4,3.9,2.4c2.4,0,3.7-1.4,3.7-3.2c0-1.7-0.9-2.5-3.1-4.2l-1.1-0.8c-2.7-2-3.5-3.5-3.5-5.1
					c0-2.8,2.2-4.5,5.5-4.5c1,0,2,0.1,2.6,0.3c0.5,0.1,0.7,0.1,0.9,0.1s0.3,0,0.3,0.2c0,0.1-0.1,0.9-0.1,2.5c0,0.4,0,0.5-0.2,0.5
					c-0.2,0-0.2-0.1-0.2-0.3c0-0.3-0.2-0.9-0.4-1.2c-0.2-0.3-1-1.2-3.2-1.2c-1.8,0-3.3,0.9-3.3,2.6c0,1.5,0.8,2.4,3.2,4.1l0.7,0.5
					c3,2.1,4.1,3.7,4.1,5.8c0,1.4-0.5,2.9-2.3,4.1c-1,0.7-2.6,0.8-3.9,0.8C364,330.4,362.5,330.2,361.5,329.8z"/>
				<path class="st0" d="M386.1,323.1c0,2.3,0,4.2,0.1,5.2c0.1,0.7,0.2,1.2,1,1.3c0.3,0.1,0.9,0.1,1.1,0.1c0.2,0,0.2,0.1,0.2,0.2
					c0,0.1-0.1,0.2-0.4,0.2c-1.4,0-2.9-0.1-3.1-0.1c-0.1,0-1.8,0.1-2.6,0.1c-0.3,0-0.4-0.1-0.4-0.2c0-0.1,0.1-0.2,0.2-0.2
					c0.2,0,0.5-0.1,0.7-0.1c0.5-0.1,0.6-0.6,0.7-1.3c0.1-1,0.1-2.9,0.1-5.2v-10l-3.6,0.1c-1.5,0-2.1,0.2-2.5,0.8
					c-0.3,0.4-0.3,0.6-0.4,0.8c-0.1,0.2-0.1,0.2-0.3,0.2c-0.1,0-0.2-0.1-0.2-0.2c0-0.3,0.5-2.4,0.5-2.6c0-0.1,0.2-0.5,0.3-0.5
					c0.2,0,0.4,0.2,1.1,0.3c0.7,0.1,1.7,0.1,1.9,0.1h9.3c0.8,0,1.4-0.1,1.8-0.1c0.4-0.1,0.6-0.1,0.7-0.1c0.1,0,0.1,0.1,0.1,0.3
					c0,0.7-0.1,2.4-0.1,2.7c0,0.2-0.1,0.3-0.2,0.3c-0.1,0-0.2-0.1-0.2-0.4l0-0.3c-0.1-0.7-0.6-1.3-3-1.3l-3.1-0.1V323.1z"/>
				<path class="st0" d="M402.7,323.1c0,2.3,0,4.2,0.1,5.2c0.1,0.7,0.2,1.2,0.9,1.3c0.4,0.1,0.9,0.1,1.1,0.1c0.1,0,0.2,0.1,0.2,0.2
					c0,0.1-0.1,0.2-0.4,0.2c-1.4,0-3-0.1-3.1-0.1c-0.1,0-1.7,0.1-2.4,0.1c-0.3,0-0.4-0.1-0.4-0.2c0-0.1,0.1-0.2,0.2-0.2
					c0.2,0,0.5-0.1,0.8-0.1c0.5-0.1,0.6-0.6,0.6-1.3c0.1-1,0.1-2.9,0.1-5.2v-4.2c0-3.7,0-4.4-0.1-5.2c-0.1-0.8-0.3-1.2-0.8-1.3
					c-0.3-0.1-0.6-0.1-0.8-0.1c-0.1,0-0.2-0.1-0.2-0.2c0-0.1,0.1-0.2,0.4-0.2c0.8,0,2.4,0.1,2.5,0.1c0.1,0,1.7-0.1,2.5-0.1
					c0.3,0,0.4,0.1,0.4,0.2c0,0.1-0.1,0.2-0.2,0.2c-0.2,0-0.3,0-0.6,0.1c-0.7,0.1-0.8,0.5-0.9,1.3c0,0.8,0,1.4,0,5.2V323.1z"/>
				<path class="st0" d="M413.5,327.8c-2.4-2.1-3-4.8-3-7.1c0-1.6,0.6-4.4,2.8-6.5c1.5-1.4,3.7-2.6,7.5-2.6c1,0,2.4,0.1,3.6,0.3
					c0.9,0.2,1.7,0.3,2.5,0.4c0.3,0,0.3,0.1,0.3,0.3c0,0.2-0.1,0.5-0.1,1.4c0,0.8,0,2.1-0.1,2.4c0,0.4-0.1,0.5-0.3,0.5
					c-0.2,0-0.2-0.2-0.2-0.5c0-0.9-0.4-1.9-1-2.4c-0.9-0.7-2.7-1.3-4.9-1.3c-3.2,0-4.7,0.8-5.6,1.7c-1.8,1.7-2.2,3.8-2.2,6.2
					c0,4.6,3.6,8.7,8.9,8.7c1.9,0,3.1-0.1,4.1-1.1c0.5-0.5,0.9-1.5,1-2c0.1-0.3,0.1-0.3,0.3-0.3c0.1,0,0.2,0.2,0.2,0.3
					c0,0.2-0.3,2.3-0.6,3.1c-0.1,0.4-0.2,0.5-0.6,0.7c-1,0.4-2.9,0.5-4.5,0.5C417.9,330.4,415.4,329.5,413.5,327.8z"/>
				<path class="st0" d="M440.5,312.5c0.3-0.8,0.4-0.9,0.6-0.9c0.3,0,0.3,0.3,0.6,0.9c0.4,1,4.4,10.9,5.9,14.5
					c0.9,2.1,1.6,2.4,2.1,2.6c0.4,0.1,0.7,0.1,1,0.1c0.1,0,0.3,0.1,0.3,0.2s-0.3,0.2-0.6,0.2c-0.4,0-2.2,0-3.9-0.1
					c-0.5,0-0.9,0-0.9-0.2c0-0.1,0.1-0.1,0.2-0.2c0.1-0.1,0.4-0.3,0.2-0.6l-2.2-5.5c-0.1-0.1-0.1-0.1-0.2-0.1h-5.7
					c-0.1,0-0.2,0.1-0.3,0.2l-1.4,3.8c-0.2,0.6-0.4,1.2-0.4,1.6c0,0.5,0.4,0.6,0.8,0.6h0.2c0.2,0,0.3,0.1,0.3,0.2
					c0,0.1-0.1,0.2-0.4,0.2c-0.6,0-1.9-0.1-2.2-0.1c-0.3,0-1.5,0.1-2.5,0.1c-0.3,0-0.5-0.1-0.5-0.2c0-0.1,0.1-0.2,0.2-0.2
					c0.2,0,0.5,0,0.7-0.1c1.1-0.1,1.6-1,2.1-2.2L440.5,312.5z M443.3,322.4c0.1,0,0.1-0.1,0.1-0.2l-2.4-6.6c-0.1-0.4-0.3-0.4-0.4,0
					l-2.3,6.6c0,0.1,0,0.2,0.1,0.2H443.3z"/>
			</g>
		</g>
	</g>
	<g>
		<g>
			<g>
				<g>
					<path class="st0" d="M156.6,261.5c0.2,0,0.3-0.1,0.3-0.3V260c0-8.9,0-10.5-0.1-12.3c-0.1-1.9-0.6-2.8-2.4-3.2
						c-0.5-0.1-1.4-0.2-1.9-0.2c-0.2,0-0.5-0.1-0.5-0.3c0-0.3,0.3-0.5,0.9-0.5c2.6,0,6.1,0.2,6.4,0.2c0.3,0,3.9-0.2,5.6-0.2
						c0.6,0,0.9,0.1,0.9,0.5c0,0.2-0.2,0.3-0.5,0.3c-0.4,0-0.7,0.1-1.4,0.2c-1.5,0.3-2,1.2-2.1,3.2c-0.1,1.8-0.1,3.4-0.1,12.3v10
						c0,5.5,0,9.9,0.3,12.3c0.2,1.6,0.5,2.9,2.2,3.1c0.8,0.1,2,0.2,2.6,0.2c0.3,0,0.5,0.2,0.5,0.3c0,0.3-0.3,0.5-0.9,0.5
						c-3.1,0-6.7-0.2-7-0.2c-0.3,0-3.9,0.2-5.6,0.2c-0.6,0-0.9-0.1-0.9-0.5c0-0.2,0.1-0.3,0.5-0.3c0.5,0,1.2-0.1,1.7-0.2
						c1.1-0.2,1.4-1.5,1.6-3.1c0.3-2.4,0.3-6.9,0.3-12.3v-6c0-0.2-0.2-0.3-0.3-0.3h-24.1c-0.2,0-0.3,0.1-0.3,0.3v6
						c0,5.5,0,9.9,0.3,12.3c0.2,1.6,0.5,2.9,2.2,3.1c0.8,0.1,2,0.2,2.6,0.2c0.3,0,0.5,0.2,0.5,0.3c0,0.3-0.3,0.5-0.9,0.5
						c-3.1,0-6.7-0.2-7-0.2c-0.3,0-3.9,0.2-5.6,0.2c-0.6,0-0.9-0.1-0.9-0.5c0-0.2,0.1-0.3,0.5-0.3c0.5,0,1.2-0.1,1.7-0.2
						c1.1-0.2,1.4-1.5,1.6-3.1c0.3-2.4,0.3-6.9,0.3-12.3v-10c0-8.9,0-10.5-0.1-12.3c-0.1-1.9-0.6-2.8-2.4-3.2
						c-0.5-0.1-1.4-0.2-1.9-0.2c-0.2,0-0.5-0.1-0.5-0.3c0-0.3,0.3-0.5,0.9-0.5c2.6,0,6.1,0.2,6.4,0.2c0.3,0,3.9-0.2,5.6-0.2
						c0.6,0,0.9,0.1,0.9,0.5c0,0.2-0.2,0.3-0.5,0.3c-0.4,0-0.7,0.1-1.4,0.2c-1.5,0.3-2,1.2-2.1,3.2c-0.1,1.8-0.1,3.4-0.1,12.3v1.2
						c0,0.3,0.2,0.3,0.3,0.3H156.6z"/>
					<path class="st0" d="M178.5,263.9c0-7.4,0-8.8-0.1-10.3c-0.1-1.6-0.5-2.4-2.2-2.7c-0.3-0.1-0.9-0.1-1.4-0.1
						c-0.4,0-0.7-0.2-0.7-0.3c0-0.3,0.3-0.5,0.9-0.5c1.1,0,2.7,0.1,5.9,0.2c0.3,0,13.4,0,14.5-0.1c1.1-0.1,1.8-0.1,2.2-0.3
						c0.3-0.1,0.4-0.2,0.6-0.2c0.1,0,0.2,0.1,0.2,0.4c0,0.3-0.3,1.1-0.5,2.6c-0.1,1-0.1,1.9-0.2,3c0,0.5-0.1,0.9-0.4,0.9
						c-0.3,0-0.4-0.2-0.4-0.6c-0.1-0.9-0.2-1.4-0.4-1.8c-0.3-1.1-0.9-1.5-3.7-1.7c-0.7-0.1-9.4-0.1-9.5-0.1c-0.2,0-0.3,0.1-0.3,0.5
						v12.9c0,0.3,0.1,0.6,0.3,0.6c0.7,0,9.5-0.1,10.7-0.2c1.3-0.1,2.2-0.2,2.6-0.9c0.2-0.3,0.4-0.5,0.6-0.5c0.1,0,0.2,0.1,0.2,0.3
						c0,0.3-0.2,1.4-0.4,3c-0.2,1.6-0.2,2.7-0.2,3.5c-0.1,0.5-0.2,0.6-0.4,0.6c-0.3,0-0.3-0.3-0.3-0.7c0-0.3-0.1-0.9-0.2-1.4
						c-0.2-0.7-0.6-1.5-2.7-1.7c-1.3-0.1-8.9-0.2-9.8-0.2c-0.3,0-0.4,0.2-0.4,0.4v4.1c0,1.8-0.1,6.8,0,7.7c0.1,2.1,0.4,3.2,1.6,3.7
						c0.9,0.4,2.2,0.5,4.1,0.5c1.1,0,5.9,0.1,7.3-0.3c1.7-0.5,2.1-1.6,2.6-3.7c0.1-0.6,0.3-0.8,0.5-0.8c0.3,0,0.3,0.5,0.3,0.9
						c0,0.4-0.5,4-0.6,4.9c-0.2,1.1-0.6,1.2-2.5,1.2c-3.7,0-8.3-0.1-10.3-0.1c-2-0.1-4.6-0.2-6.7-0.2c-1.3,0-2.4,0.2-3.7,0.2
						c-0.5,0-0.8-0.1-0.8-0.4c0-0.2,0.2-0.4,0.5-0.4c0.3,0,0.7-0.1,1.1-0.2c1-0.2,1.7-1,1.8-4.5c0.1-1.9,0.1-4.3,0.1-8.6V263.9z"/>
					<path class="st0" d="M209.4,251.5c0-1.8,0.2-2.3,0.6-2.3c0.4,0,1.4,1.1,1.8,1.5c0.5,0.6,8.4,8.6,16.4,16.8
						c4.4,4.3,10.1,10.2,11.6,11.5l-0.6-23.6c-0.1-3.1-0.4-4.1-1.9-4.5c-1-0.2-1.8-0.2-2.2-0.2c-0.6,0-0.7-0.2-0.7-0.5
						c0-0.3,0.5-0.3,1-0.3c2.4,0,4.8,0.2,5.3,0.2c0.6,0,2.3-0.2,4.5-0.2c0.6,0,0.8,0.1,0.8,0.3c0,0.2-0.2,0.4-0.5,0.5
						c-0.3,0.1-0.8,0.1-1.4,0.2c-1.3,0.3-1.7,0.9-1.7,4.3l-0.1,28.5c0,2.8-0.1,3.1-0.5,3.1s-1-0.4-3.7-3c-0.2-0.1-8.1-8-13.1-12.8
						c-5.9-6.1-11.6-12-13-13.5l0.7,22.2c0.1,3.9,0.5,5.4,1.9,5.7c0.9,0.2,1.9,0.2,2.3,0.2s0.7,0.2,0.7,0.4c0,0.3-0.3,0.4-0.9,0.4
						c-3.1,0-5.1-0.2-5.5-0.2s-2.5,0.2-4.9,0.2c-0.5,0-0.9-0.1-0.9-0.4c0-0.2,0.2-0.4,0.8-0.4c0.4,0,1,0,1.8-0.2
						c1.2-0.4,1.5-1.9,1.5-6.1C209.4,252.2,209.5,261,209.4,251.5z"/>
					<path class="st0" d="M257.1,263.9c0-7.5,0-8.9-0.1-10.4c-0.1-1.5-0.5-2.4-2.3-2.7c-0.3-0.1-0.9-0.1-1.4-0.1
						c-0.4,0-0.6-0.1-0.6-0.3c0-0.2,0.2-0.4,0.7-0.4c2.4,0,5.9,0.2,6,0.2c0.5,0,4.4-0.2,6-0.2c3.2,0,6.6,0.3,9.3,2.2
						c1.1,0.8,3.4,3.1,3.4,6.9c0,3.1-1.5,7.1-6,10.7c4.1,5.1,7.6,9.3,10.5,12.3c2.7,2.8,4.4,3.2,6,3.5c0.4,0.1,1.6,0.1,1.8,0.1
						c0.5,0,0.6,0.2,0.6,0.4c0,0.3-0.2,0.4-1,0.4h-4c-2.7,0-3.9-0.2-5.2-0.7c-2.4-1-4.1-3.6-7-7.4c-2.2-2.7-4.5-5.8-5.5-7
						c-0.2-0.2-0.3-0.3-0.7-0.3l-5.9-0.1c-0.2,0-0.3,0.1-0.3,0.3v0.8c0,4.5,0,8.7,0.3,10.7c0.2,1.4,0.3,2.5,2.2,2.7
						c0.6,0.1,1.2,0.1,1.6,0.1c0.5,0,0.7,0.2,0.7,0.3c0,0.3-0.2,0.5-0.8,0.5c-3,0-6.1-0.2-6.4-0.2c-0.9,0-3.4,0.2-4.9,0.2
						c-0.6,0-0.8-0.1-0.8-0.5c0-0.2,0.3-0.3,0.7-0.3c0.4,0,0.8,0,1.2-0.1c1-0.2,1.3-0.8,1.5-2.2c0.3-2,0.2-6.7,0.2-11V263.9z
						 M261.5,267.9c0,0.3,0.1,0.6,0.3,0.7c0.7,0.4,3,0.7,5.1,0.7c1.2,0,2.6-0.1,3.8-0.9c1.7-1.1,2.8-3.6,2.8-7.2
						c0-6.2-3.3-9.6-8.3-9.6c-1.4,0-2.6,0.1-3.3,0.3c-0.2,0.1-0.3,0.2-0.3,0.5V267.9z"/>
					<path class="st0" d="M300.2,274c0-2.7-0.4-3.7-1.2-5.2c-0.3-0.6-6.9-11.4-8.7-13.8c-1.5-2.2-2.1-2.8-2.9-3.5
						c-0.8-0.6-1.5-0.8-2.7-0.9c-0.3,0-0.6-0.2-0.6-0.5c0-0.2,0.2-0.3,0.7-0.3c0.9,0,5.2,0.2,5.3,0.2c0.3,0,2.2-0.2,4.3-0.2
						c0.6,0,0.7,0.2,0.7,0.3c0,0.2-0.2,0.3-0.6,0.5c-0.8,0.2-0.9,0.5-0.9,0.9c0,0.6,0.3,1.1,0.7,1.9c0.7,1.4,8.2,13.5,9.1,14.9
						c0.9-2,7.3-12.4,8.1-13.8c1.1-1.9,1.3-2.4,1.3-3c0-0.7-0.7-0.7-1.3-0.9c-0.5-0.1-0.6-0.2-0.6-0.5c0-0.2,0.1-0.3,0.7-0.3
						c1.4,0,2.6,0.2,3.5,0.2c0.7,0,4-0.2,5-0.2c0.5,0,0.7,0.2,0.7,0.3c0,0.3-0.3,0.5-0.7,0.5c-1.2,0.1-2,0.2-2.8,0.7
						c-0.9,0.6-1.2,1.1-2.1,2.3c-3.3,4.5-8.8,13.8-9.7,15.8c-0.7,1.8-0.6,3-0.6,4.5v4.1c0,0.4,0,2.5,0.1,4.5c0.1,1.4,0.2,2.3,2,2.7
						c0.7,0.2,1.7,0.2,2.1,0.2c0.5,0,0.6,0.2,0.6,0.3c0,0.3-0.2,0.5-0.7,0.5c-2.8,0-6.4-0.2-6.5-0.2c-0.1,0-3.5,0.2-5.1,0.2
						c-0.6,0-0.8-0.2-0.8-0.5c0-0.2,0.2-0.3,0.6-0.3c0.5,0,1-0.1,1.4-0.2c1-0.2,1.4-1.4,1.5-2.7c0.2-2,0.2-4.1,0.2-4.5V274z"/>
				</g>
			</g>
		</g>
		<g>
			<g>
				<g>
					<path class="st1" d="M339,269.7c-0.3,0-0.5,0.2-0.6,0.5l-3.4,10.1c-0.5,1.4-0.8,2.8-0.8,3.8c0,1.1,1.1,1.6,2,1.6
						c0.2,0,0.3,0,0.5,0c0.6,0,0.7,0.1,0.7,0.3c0,0.3-0.5,0.5-1,0.5c-1.4,0-3.6-0.2-4.3-0.2c-0.6,0-3.7,0.2-6.4,0.2
						c-0.7,0-1.1-0.1-1.1-0.5c0-0.2,0.3-0.3,0.8-0.3c0.4,0,0.9-0.1,1.4-0.1c2.6-0.3,3.7-2.5,4.8-5.3l12.9-35.3
						c0.7-1.9,0.9-2.2,1.2-2.2c0.3,0,0.6,0.3,1.2,2c0.9,2.2,9.8,25.6,13.2,34.2c2,5.1,3.7,6,4.9,6.3c0.9,0.3,1.8,0.3,2.2,0.3
						c0.3,0,0.6,0.1,0.6,0.3c0,0.3-0.5,0.5-1.1,0.5c-0.9,0-5,0-8.9-0.1c-1.1-0.1-1.7-0.1-1.7-0.4c0-0.2,0.2-0.3,0.4-0.4
						c0.3-0.1,0.7-0.6,0.3-1.5l-5.3-14c-0.1-0.2-0.2-0.3-0.5-0.3H339z M350.4,267.6c0.3,0,0.3-0.2,0.2-0.4l-5.4-15.3
						c-0.3-0.9-0.6-0.9-0.9,0l-5,15.3c-0.1,0.3,0,0.4,0.2,0.4H350.4z"/>
					<path class="st1" d="M400.9,282.2c0,2.3-0.1,2.3-0.7,2.7c-3.1,1.6-7.7,2.2-10.5,2.2c-3.7,0-10.8-0.3-16.6-5.1
						c-3.1-2.6-6.1-7.3-6.1-13.8c0-7.7,3.9-13.2,8.6-16c4.4-2.6,9.2-2.9,12.7-2.9c3.6,0,6.1,0.5,8.1,0.8c0.9,0.2,3.1,0.5,4.3,0.5
						c0.5,0,0.5,0.2,0.5,0.5c0,0.7-0.4,2.4-0.4,7.4c0,0.8-0.1,1-0.5,1c-0.3,0-0.3-0.3-0.4-0.7c0-0.5-0.2-2.3-1.1-3.5
						c-1.3-1.9-5.4-4-11.8-4c-3.1,0-6.6,0.1-10.5,3c-2.9,2.2-4.8,6.5-4.8,12.2c0,6.8,3.7,11.8,5.2,13.2c3.7,3.6,8,5.3,12.9,5.3
						c1.6,0,4.1-0.3,5.4-1c0.6-0.3,1-0.9,1-1.7V274c0-3.7-0.3-4.5-2.3-4.8c-0.3-0.1-0.9-0.1-1.4-0.1c-0.5,0-0.7-0.2-0.7-0.4
						c0-0.3,0.2-0.4,0.9-0.4c2.3,0,5.6,0.1,5.8,0.1c0.2,0,3.6-0.1,5.1-0.1c0.6,0,0.8,0.1,0.8,0.4c0,0.2-0.2,0.4-0.7,0.4
						c-0.4,0-0.5,0-1,0.1c-1.4,0.2-1.7,1.2-1.8,2.8s-0.1,3.1-0.1,5.1V282.2z"/>
					<path class="st1" d="M416.6,270.6c0,6.9,1.3,9.9,3.5,11.8c2.4,2.2,5.2,2.6,7.5,2.6c3,0,5.6-0.8,7.8-3.3
						c2.3-2.6,2.8-6.9,2.8-11.9v-6c0-7.4,0-8.7-0.1-10.3c-0.1-1.6-0.3-2.5-2.1-2.8c-0.4-0.1-1.1-0.1-1.6-0.1c-0.3,0-0.6-0.2-0.6-0.3
						c0-0.3,0.3-0.5,0.8-0.5c2.4,0,5.3,0.2,5.5,0.2c0.3,0,2.7-0.2,4.3-0.2c0.6,0,0.8,0.1,0.8,0.4c0,0.2-0.2,0.4-0.6,0.4
						c-0.3,0-0.5,0-1,0.1c-1.6,0.2-1.8,1.2-1.9,2.8c-0.1,1.5-0.1,2.8-0.1,10.3v5.1c0,5.1-0.6,11.2-4.6,14.7
						c-3.7,3.1-7.3,3.4-10.4,3.4c-1.6,0-6.9,0-10.6-3.4c-2.4-2.3-4.2-5.7-4.2-12.7v-7c0-7.5,0-8.8-0.2-10.3
						c-0.1-1.5-0.3-2.5-2.1-2.7c-0.3-0.1-1-0.1-1.5-0.1c-0.4,0-0.6-0.2-0.6-0.3c0-0.3,0.2-0.5,0.9-0.5c2.4,0,5.5,0.2,5.9,0.2
						c0.5,0,3.8-0.2,5.3-0.2c0.6,0,0.8,0.1,0.8,0.4c0,0.3-0.4,0.4-0.7,0.4c-0.3,0-0.8,0.1-1.2,0.1c-1.4,0.2-1.6,1.1-1.7,2.7
						c-0.1,1.5-0.1,2.8-0.1,10.3V270.6z"/>
					<path class="st1" d="M455.1,263.9c0-7.5,0-8.9-0.1-10.4c-0.1-1.5-0.5-2.4-1.6-2.6c-0.6-0.1-1-0.1-1.3-0.2
						c-0.4-0.1-0.6-0.2-0.6-0.4c0-0.3,0.2-0.4,0.9-0.4c1.8,0,5,0.2,5.2,0.2c0.2,0,3.5-0.2,5.1-0.2c0.6,0,0.9,0.1,0.9,0.4
						c0,0.2-0.2,0.3-0.6,0.4c-0.3,0.1-0.6,0.1-1,0.1c-1.6,0.2-1.8,1.1-1.9,2.7c-0.1,1.5-0.1,2.8-0.1,10.3v8.5
						c0,4.4-0.1,8.4,0.2,10.4c0.2,1.6,0.5,2.3,1.9,2.6c0.7,0.2,1.9,0.2,2.2,0.2c0.5,0.1,0.6,0.2,0.6,0.4c0,0.2-0.2,0.4-0.8,0.4
						c-2.9,0-6.2-0.2-6.5-0.2c-0.2,0-3.5,0.2-5.1,0.2c-0.5,0-0.9-0.1-0.9-0.4c0-0.2,0.2-0.4,0.7-0.4c0.3,0,0.9-0.1,1.4-0.2
						c1-0.2,1.1-1.4,1.3-2.7c0.3-2,0.3-6.1,0.3-10.3V263.9z"/>
					<path class="st1" d="M475.4,263.9c0-7.5,0-8.9-0.1-10.4c-0.1-1.5-0.5-2.4-2.3-2.7c-0.3-0.1-0.9-0.1-1.4-0.1
						c-0.4,0-0.6-0.1-0.6-0.3c0-0.2,0.2-0.4,0.7-0.4c2.4,0,5.9,0.2,6,0.2c0.5,0,4.4-0.2,6-0.2c3.2,0,6.6,0.3,9.3,2.2
						c1.1,0.8,3.4,3.1,3.4,6.9c0,3.1-1.5,7.1-6,10.7c4.1,5.1,7.6,9.3,10.5,12.3c2.7,2.8,4.4,3.2,6,3.5c0.4,0.1,1.6,0.1,1.8,0.1
						c0.5,0,0.6,0.2,0.6,0.4c0,0.3-0.2,0.4-1,0.4h-4c-2.7,0-3.9-0.2-5.2-0.7c-2.4-1-4.1-3.6-7-7.4c-2.2-2.7-4.5-5.8-5.5-7
						c-0.2-0.2-0.3-0.3-0.7-0.3L480,271c-0.2,0-0.3,0.1-0.3,0.3v0.8c0,4.5,0,8.7,0.3,10.7c0.2,1.4,0.3,2.5,2.2,2.7
						c0.6,0.1,1.2,0.1,1.6,0.1c0.5,0,0.7,0.2,0.7,0.3c0,0.3-0.2,0.5-0.8,0.5c-3,0-6.1-0.2-6.4-0.2c-0.9,0-3.4,0.2-4.9,0.2
						c-0.6,0-0.8-0.1-0.8-0.5c0-0.2,0.3-0.3,0.7-0.3c0.4,0,0.8,0,1.2-0.1c1-0.2,1.3-0.8,1.5-2.2c0.3-2,0.2-6.7,0.2-11V263.9z
						 M479.7,267.9c0,0.3,0.1,0.6,0.3,0.7c0.7,0.4,3,0.7,5.1,0.7c1.2,0,2.6-0.1,3.8-0.9c1.7-1.1,2.8-3.6,2.8-7.2
						c0-6.2-3.3-9.6-8.4-9.6c-1.4,0-2.6,0.1-3.3,0.3c-0.2,0.1-0.3,0.2-0.3,0.5V267.9z"/>
					<path class="st1" d="M515.8,263.9c0-7.5,0-8.9-0.1-10.4c-0.1-1.5-0.5-2.4-2.3-2.7c-0.3-0.1-0.9-0.1-1.4-0.1
						c-0.4,0-0.6-0.1-0.6-0.3c0-0.2,0.2-0.4,0.7-0.4c2.4,0,5.9,0.2,6,0.2c0.5,0,4.4-0.2,6-0.2c3.2,0,6.6,0.3,9.3,2.2
						c1.1,0.8,3.4,3.1,3.4,6.9c0,3.1-1.5,7.1-6,10.7c4.1,5.1,7.6,9.3,10.5,12.3c2.7,2.8,4.4,3.2,6,3.5c0.4,0.1,1.6,0.1,1.8,0.1
						c0.5,0,0.6,0.2,0.6,0.4c0,0.3-0.2,0.4-1,0.4h-4c-2.7,0-3.9-0.2-5.2-0.7c-2.4-1-4.1-3.6-7-7.4c-2.2-2.7-4.5-5.8-5.5-7
						c-0.2-0.2-0.3-0.3-0.7-0.3l-5.8-0.1c-0.2,0-0.3,0.1-0.3,0.3v0.8c0,4.5,0,8.7,0.3,10.7c0.2,1.4,0.3,2.5,2.2,2.7
						c0.6,0.1,1.2,0.1,1.6,0.1c0.5,0,0.7,0.2,0.7,0.3c0,0.3-0.2,0.5-0.8,0.5c-3,0-6.1-0.2-6.4-0.2c-0.9,0-3.4,0.2-4.9,0.2
						c-0.6,0-0.8-0.1-0.8-0.5c0-0.2,0.3-0.3,0.7-0.3c0.4,0,0.8,0,1.2-0.1c1-0.2,1.3-0.8,1.5-2.2c0.3-2,0.2-6.7,0.2-11V263.9z
						 M520.2,267.9c0,0.3,0.1,0.6,0.3,0.7c0.7,0.4,3,0.7,5.1,0.7c1.2,0,2.6-0.1,3.8-0.9c1.7-1.1,2.8-3.6,2.8-7.2
						c0-6.2-3.3-9.6-8.4-9.6c-1.4,0-2.6,0.1-3.3,0.3c-0.2,0.1-0.3,0.2-0.3,0.5V267.9z"/>
					<path class="st1" d="M556.2,263.9c0-7.4,0-8.8-0.1-10.3c-0.1-1.6-0.5-2.4-2.2-2.7c-0.3-0.1-0.9-0.1-1.4-0.1
						c-0.4,0-0.7-0.2-0.7-0.3c0-0.3,0.3-0.5,0.9-0.5c1.1,0,2.7,0.1,5.8,0.2c0.3,0,13.4,0,14.5-0.1s1.8-0.1,2.2-0.3
						c0.3-0.1,0.4-0.2,0.6-0.2c0.1,0,0.2,0.1,0.2,0.4c0,0.3-0.3,1.1-0.5,2.6c-0.1,1-0.1,1.9-0.2,3c0,0.5-0.1,0.9-0.4,0.9
						s-0.4-0.2-0.4-0.6c-0.1-0.9-0.2-1.4-0.4-1.8c-0.3-1.1-0.9-1.5-3.7-1.7c-0.7-0.1-9.4-0.1-9.5-0.1c-0.2,0-0.3,0.1-0.3,0.5v12.9
						c0,0.3,0.1,0.6,0.3,0.6c0.7,0,9.5-0.1,10.7-0.2c1.3-0.1,2.2-0.2,2.6-0.9c0.2-0.3,0.4-0.5,0.6-0.5c0.1,0,0.2,0.1,0.2,0.3
						c0,0.3-0.2,1.4-0.4,3c-0.2,1.6-0.2,2.7-0.2,3.5c-0.1,0.5-0.2,0.6-0.4,0.6c-0.3,0-0.3-0.3-0.3-0.7c0-0.3-0.1-0.9-0.2-1.4
						c-0.2-0.7-0.6-1.5-2.7-1.7c-1.3-0.1-8.9-0.2-9.8-0.2c-0.3,0-0.4,0.2-0.4,0.4v4.1c0,1.8-0.1,6.8,0,7.7c0.1,2.1,0.4,3.2,1.6,3.7
						c0.9,0.4,2.2,0.5,4.1,0.5c1.1,0,5.9,0.1,7.3-0.3c1.7-0.5,2.1-1.6,2.6-3.7c0.1-0.6,0.3-0.8,0.5-0.8c0.3,0,0.3,0.5,0.3,0.9
						c0,0.4-0.5,4-0.6,4.9c-0.2,1.1-0.6,1.2-2.5,1.2c-3.7,0-8.3-0.1-10.3-0.1c-2-0.1-4.6-0.2-6.7-0.2c-1.3,0-2.4,0.2-3.7,0.2
						c-0.5,0-0.8-0.1-0.8-0.4c0-0.2,0.2-0.4,0.5-0.4c0.3,0,0.7-0.1,1.1-0.2c1-0.2,1.7-1,1.8-4.5c0.1-1.9,0.1-4.3,0.1-8.6V263.9z"/>
				</g>
			</g>
		</g>
		<g>
			<g>
				<g>
					<g>
						<path class="st1" d="M22.9,260c0-8.9,0-10.5-0.1-12.3c-0.1-1.9-0.4-2.8-2.3-3.2c-0.5-0.1-1.4-0.2-1.9-0.2
							c-0.4,0-0.6-0.1-0.6-0.3c0-0.3,0.3-0.5,0.9-0.5c2.6,0,6.1,0.2,6.4,0.2c0.7,0,4.3-0.2,7.7-0.2c5.6,0,16-0.5,22.8,6.5
							c2.8,3,5.5,7.7,5.5,14.4c0,7.2-3,12.7-6.1,16c-2.4,2.6-7.6,6.5-17.2,6.5c-2.4,0-5.5-0.2-7.9-0.3c-2.5-0.2-4.4-0.3-4.7-0.3
							c-0.1,0-1.1,0-2.3,0.1c-1.1,0-2.4,0.1-3.3,0.1c-0.6,0-0.9-0.1-0.9-0.5c0-0.2,0.1-0.3,0.6-0.3c0.6-0.1,1.1-0.1,1.6-0.2
							c1.1-0.2,1.4-1.5,1.6-3.1c0.3-2.4,0.3-6.9,0.3-12.3V260z M27.7,266.1c0,6,0.1,11.2,0.1,12.3c0.1,1.4,0.2,3.7,0.6,4.3
							c0.7,1.1,3,2.3,9.7,2.3c5.3,0,10.2-1.9,13.5-5.3c3-2.9,4.5-8.3,4.5-13.6c0-7.2-3.1-11.9-5.5-14.3c-5.3-5.6-11.8-6.4-18.6-6.4
							c-1.1,0-3.2,0.2-3.7,0.4c-0.5,0.2-0.7,0.5-0.7,1.1c-0.1,1.9-0.1,7.7-0.1,12.1V266.1z"/>
						<path class="st1" d="M71.4,263.9c0-7.5,0-8.9-0.1-10.4c-0.1-1.5-0.5-2.4-2.3-2.7c-0.3-0.1-0.9-0.1-1.4-0.1
							c-0.4,0-0.6-0.1-0.6-0.3c0-0.2,0.2-0.4,0.7-0.4c2.4,0,5.9,0.2,6,0.2c0.5,0,4.4-0.2,6-0.2c3.2,0,6.6,0.3,9.3,2.2
							c1.1,0.8,3.4,3.1,3.4,6.9c0,3.1-1.5,7.1-6,10.7c4.1,5.1,7.6,9.3,10.5,12.3c2.7,2.8,4.4,3.2,6,3.5c0.4,0.1,1.6,0.1,1.8,0.1
							c0.5,0,0.6,0.2,0.6,0.4c0,0.3-0.2,0.4-1,0.4h-4c-2.7,0-3.9-0.2-5.2-0.7c-2.4-1-4.1-3.6-7-7.4c-2.2-2.7-4.5-5.8-5.5-7
							c-0.2-0.2-0.3-0.3-0.7-0.3l-5.9-0.1c-0.2,0-0.3,0.1-0.3,0.3v0.8c0,4.5,0,8.7,0.3,10.7c0.2,1.4,0.3,2.5,2.2,2.7
							c0.6,0.1,1.2,0.1,1.6,0.1c0.5,0,0.7,0.2,0.7,0.3c0,0.3-0.2,0.5-0.8,0.5c-3,0-6.1-0.2-6.4-0.2c-0.9,0-3.4,0.2-4.9,0.2
							c-0.6,0-0.8-0.1-0.8-0.5c0-0.2,0.3-0.3,0.7-0.3c0.4,0,0.8,0,1.2-0.1c1-0.2,1.3-0.8,1.5-2.2c0.3-2,0.2-6.7,0.2-11V263.9z
							 M75.8,267.9c0,0.3,0.1,0.6,0.3,0.7c0.7,0.4,3,0.7,5.1,0.7c1.2,0,2.6-0.1,3.8-0.9c1.7-1.1,2.8-3.6,2.8-7.2
							c0-6.2-3.3-9.6-8.3-9.6c-1.4,0-2.6,0.1-3.3,0.3c-0.2,0.1-0.3,0.2-0.3,0.5V267.9z"/>
						<path class="st1" d="M107.8,283.7c0-1.3,1-3,3-3c1.6,0,2.9,1.2,2.9,3c0,1.8-1.2,3.1-3,3.1
							C108.7,286.7,107.8,285.1,107.8,283.7z"/>
					</g>
				</g>
			</g>
		</g>
	</g>
</g>
<g>
	<g>
		<g>
			<g>
				<path class="st1" d="M287.5,81.2c0.5-0.6,1-1.1,1.5-1.6c1.6-2.3,2.9-4.4,4-6.5c-2,0.9-3.8,2.1-5.5,4.2
					c-2.4,2.9-10,10.4-13.3,13.6c0.3-0.3,0.6-0.7,0.9-1c-4,3.8-7.3,6.2-10.3,8.1l-1.9,5.3c4-2.2,8.3-4.9,13.9-10
					c0.2-0.6,0.6-1.2,1.1-1.8C281.6,86.7,284.3,84.6,287.5,81.2z"/>
				<path class="st1" d="M306.6,53.5c0.4-0.4,0.9-0.9,1.3-1.3c2.8-2.8,5.2-4.9,7.4-6.6c-0.4-1.2-0.9-2.4-1.3-3.6
					c-2.6,1.9-5.4,4.4-8.7,7.7c-1.3,1.3-2.4,2.5-3.5,3.7C303.8,52.9,305.3,53,306.6,53.5z"/>
				<path class="st1" d="M276.9,96.1c-5.6,5-9.8,7.2-14.2,9.5c-0.3,0.1-0.5,0.3-0.8,0.4l-1.9,5.2c1.5-0.9,2.9-1.6,4.4-2.4
					c4.3-2.3,8.7-4.7,14.6-9.7c-0.6-0.7-1.1-1.3-1.4-1.7C277.4,96.9,277.1,96.5,276.9,96.1z"/>
				<path class="st1" d="M284,94.4c3.2-3.2,5.6-6,7.6-8.6c-0.1,0.1-0.2,0.2-0.4,0.3c-3.2,2.9-5.7,4.9-8.1,7.9
					c-0.1,0.1,0,0.4,0.3,0.9C283.5,94.9,283.7,94.7,284,94.4C283.9,94.5,284,94.5,284,94.4z"/>
				<path class="st1" d="M295.7,72.1c-0.2,0.4-0.4,0.7-0.6,1.1c-0.5,0.9-0.9,1.7-1.4,2.6c0.1,0,0.1-0.1,0.2-0.1
					c1.2-0.7,2.8-1,4.7-1.2c0.6-1.2,1.3-2.4,2-3.6C298.9,71.3,297.3,71.7,295.7,72.1z"/>
				<path class="st1" d="M310.9,57.2c0,0.1,0.1,0.1,0.1,0.2c0.4-0.4,0.7-0.8,1.1-1.1c1.9-1.9,3.7-3.5,5.3-4.9
					c-0.4-1.2-0.9-2.5-1.3-3.7c-2,1.6-4.2,3.6-6.6,6c-0.3,0.3-0.6,0.6-0.9,0.9C309.6,55.2,310.3,56.1,310.9,57.2z"/>
				<path class="st1" d="M320.4,64.5c0.4-0.4,0.9-0.8,1.3-1.3c-0.4-1.3-0.9-2.5-1.3-3.8c-0.8,0.8-1.7,1.6-2.5,2.4
					c-5,5-8.1,9-10.4,12.6c1.4,0.2,2.6,0.5,3.7,1.1C313.2,72.4,316,68.9,320.4,64.5z"/>
				<path class="st1" d="M285.9,106.4c-0.4-0.3-1-0.8-1.6-1.4c-5.2,4.5-9.2,6.6-13.4,8.8c-4.6,2.4-9.2,4.9-15.6,10.7l-2.8,7.8
					c0.5-0.5,0.9-1,1.4-1.5c3.1-3.1,5.8-5.5,8.3-7.3l1.5-4.2c0.5-1.2,1.1-1.9,2.3-1.9h6c0.2-0.1,0.4-0.2,0.6-0.3
					c4.3-2.3,8.6-4.6,14.4-9.6C286.8,107.1,286.4,106.7,285.9,106.4z"/>
				<path class="st1" d="M292.2,102.7c1.9-1.9,3.5-3.6,4.8-5.2c-0.1-1.2-0.4-2.6-1-4.5c-1.7,2.1-3.7,4.4-6.4,7.1c0,0,0,0,0,0
					c-0.6,0.6-1.2,1.2-1.8,1.8c0.8,1.1,1.5,2.2,2,3.1c0,0,0,0,0,0C290.6,104.3,291.4,103.5,292.2,102.7
					C292.2,102.7,292.2,102.7,292.2,102.7z"/>
				<path class="st1" d="M234.2,177.2c8.5-8.5,11.5-14.1,14.3-19.5c1.3-2.3,2.5-4.6,4.1-7.1l3.8-10.8c-6.1,6.7-8.7,11.5-11.2,16.2
					c-1,1.9-2,3.8-3.2,5.7c-4.2,11.7-9.2,20.2-19.9,21.8c-0.3,0-0.7,0.1-1.1,0.1c-2.2,1.5-4.3,2.7-6.4,3.8c1.8,0,4.3,0,7.2,0
					C225.4,185.2,229.3,182.1,234.2,177.2C234.2,177.2,234.2,177.2,234.2,177.2z"/>
				<path class="st1" d="M326,75.5c-0.5-1.3-0.9-2.6-1.4-3.9c-3.9,4.1-6.6,7.5-8.6,10.6c0.6,1.3,1.2,2.7,1.8,4
					C319.7,83.1,322.1,79.7,326,75.5z"/>
				<path class="st1" d="M311.1,92.3c-1.1,3.5-1.6,5.2-1.1,7.3c1.8-2.6,3.1-5,4.3-7.3c-0.6-1.4-1.3-2.8-1.9-4.1
					c-0.1,0.2-0.2,0.4-0.4,0.7C311.8,90.1,311.5,91.2,311.1,92.3z"/>
				<path class="st1" d="M291.3,114.4c-1.4,1.1-2.7,2.1-4,3h3.9c0-0.2,0-0.4,0-0.6C291.2,115.9,291.2,115.2,291.3,114.4z"/>
				<path class="st1" d="M315.3,111.9c0.1-0.1,0.1-0.2,0.2-0.3c0.3-2.3,0.7-4.8,0.8-6.4c0.1-0.5,0.1-1,0.2-1.4
					c-0.7,1.2-1.5,2.4-2.5,3.7C314.6,108.8,315.1,110.2,315.3,111.9z"/>
				<path class="st1" d="M322.3,101.3c0.3-0.5,0.6-1.1,0.9-1.6c2-3.7,3.8-7.2,7.3-11.5c-0.5-1.3-1-2.7-1.4-4
					c-3.8,4.4-6,8.1-7.8,11.4c0.1,0.3,0.2,0.7,0.3,1.1C321.9,97.9,322.3,99.7,322.3,101.3z"/>
				<path class="st1" d="M246.4,175.6c-1.7,2.2-3.8,4.6-6.6,7.3l0,0c-1.7,1.7-3.3,3.2-4.8,4.5c1.8,0,3.6,0,5.4,0
					c0.6-0.6,1.3-1.3,2-1.9l0,0c2-2,3.7-3.9,5.2-5.6C247,178.8,246.6,177.4,246.4,175.6z"/>
				<path class="st1" d="M254.7,183.7c-0.9,1.2-2,2.4-3.1,3.7c2,0,3.6,0,4.8,0c0.9-1.1,1.8-2.2,2.6-3.3c-0.1,0-0.2-0.1-0.4-0.1
					C258.6,184.1,256.9,184,254.7,183.7z"/>
				<path class="st1" d="M335.1,101.3c-0.5-1.4-1-2.8-1.5-4.3c-2.4,3.4-3.9,6.3-5.5,9.2c-1.9,3.6-3.7,7-7.1,11.2h3.5
					c0.4,0,0.7,0,0.9,0.1c2.6-3.6,4.2-6.6,5.8-9.6C332.5,105.7,333.7,103.6,335.1,101.3z"/>
				<path class="st1" d="M343.5,124.7c-2.2,4-4.7,8.1-9.8,13.6l1.4,3.9c5-5.2,7.8-9.3,10-13C344.6,127.8,344,126.3,343.5,124.7z"/>
				<path class="st1" d="M288.1,98.6c3-3,5.3-5.6,7.2-8c-0.5-1.6-0.8-3.3-1-4.8c-2.1,2.9-4.7,6.2-8.8,10.2c0,0,0,0,0,0
					c-0.3,0.3-0.7,0.7-1,1c0.6,0.9,1.3,2,2.1,3.1C287.1,99.6,287.6,99.1,288.1,98.6C288.1,98.6,288.1,98.6,288.1,98.6z"/>
				<path class="st1" d="M306.6,68.7c-1,0.5-2.1,0.9-3.1,1.2c-1,1.5-1.9,3-2.6,4.4c0.8,0,1.7,0,2.6,0c0.6,0,1.1,0,1.7,0
					c2.3-3.9,5.4-8.2,11.1-13.9c1.1-1.1,2.2-2.2,3.3-3.1c-0.4-1.3-0.9-2.5-1.3-3.7c-1.4,1.3-2.9,2.7-4.5,4.3
					c-0.7,0.7-1.4,1.4-2.1,2.1C311.7,63.1,310,67,306.6,68.7z"/>
				<path class="st1" d="M266.9,109.7c-2.5,1.3-5,2.7-7.9,4.6l-2.2,6.1c4.5-3.6,8.1-5.5,11.8-7.5c4.2-2.3,8.6-4.6,14.3-9.5
					c-0.8-0.9-1.7-1.8-2.4-2.7C275.1,105.3,271,107.5,266.9,109.7z"/>
				<path class="st1" d="M213.6,184.1c-0.7,0-1.3,0.6-1.3,1.3c0,0,0,0.7,0,0.7c0,0.1,0,0.3,0.1,0.4c1.4-0.8,2.9-1.6,4.4-2.6
					C215.5,184,214.3,184.1,213.6,184.1z"/>
				<path class="st1" d="M250.7,137.6l-4.6,12.9c2.5-4.4,5.5-9,12-15.6c0,0,0.1-0.1,0.1-0.1l2.6-7.4c-1.7,1.4-3.4,3.1-5.4,5
					C253.7,134.2,252.1,136,250.7,137.6z"/>
				<path class="st1" d="M314.8,79.5c0.1,0.2,0.2,0.3,0.2,0.5c2-3.1,4.7-6.5,8.8-10.6c-0.5-1.3-0.9-2.6-1.4-3.8
					c-0.2,0.2-0.4,0.3-0.5,0.5c-4.1,4.1-7,7.6-9.1,10.7C313.6,77.5,314.2,78.3,314.8,79.5z"/>
				<path class="st1" d="M293.7,106c0.9-1.6,1.6-2.9,2.2-3.9c-0.7,0.7-1.3,1.4-2.1,2.1c0,0,0,0,0,0.1c-0.7,0.7-1.4,1.3-2,2
					c0.5,0.2,1.1,0.3,1.6,0.4C293.4,106.4,293.5,106.2,293.7,106z"/>
				<path class="st1" d="M288.6,109.1c-4.8,4.1-8.6,6.3-12.4,8.3h7.3c2.4-1.5,4.9-3.4,7.9-5.9C290.3,111,289.4,110.1,288.6,109.1z"
					/>
				<path class="st1" d="M312.9,105.6c1.7-2.4,3.1-4.5,4.2-6.6c-0.1-1.1-0.5-2-1.4-3.7c-0.1-0.2-0.2-0.5-0.3-0.7
					c-1.3,2.4-2.6,4.8-4.4,7.4C311.4,103,312.1,104.1,312.9,105.6z"/>
				<path class="st1" d="M328.2,81.7c-0.5-1.3-0.9-2.6-1.4-3.9c-3.8,4.1-6.2,7.6-8.1,10.7c0.6,1.5,1.1,2.9,1.7,4.5
					C322.3,89.6,324.4,86.1,328.2,81.7z"/>
				<path class="st1" d="M238.3,181.4C238.3,181.4,238.3,181.4,238.3,181.4c3.5-3.5,6.1-6.6,8.1-9.3c0.2-2.8,1-6.3,2.4-10.8l0.1-0.2
					c-2.7,5.1-5.6,10.1-13.2,17.7l0,0c0,0,0,0,0,0c-3.9,3.9-7.2,6.6-10.1,8.6c1.9,0,4,0,6,0C233.7,185.8,235.9,183.8,238.3,181.4
					L238.3,181.4z"/>
				<path class="st1" d="M248.9,181.6c-1.4,1.7-3.1,3.4-5,5.4c0,0,0,0,0,0c-0.1,0.1-0.3,0.3-0.4,0.4c1.8,0,3.5,0,5.1,0
					c1.4-1.5,2.6-2.8,3.7-4.1C251.3,183.1,250.1,182.6,248.9,181.6z"/>
				<path class="st1" d="M318.7,116.9c4.3-5.2,6.5-9.2,8.6-13.2c1.6-3,3.1-5.8,5.5-9.2c-0.5-1.4-1-2.8-1.5-4.1
					c-3.5,4.4-5.4,8-7.3,11.6c-0.9,1.7-1.8,3.3-2.8,5.1c-0.3,1.3-0.6,2.7-1,4.3C320,112.4,319.4,114.5,318.7,116.9z"/>
				<path class="st1" d="M337.6,108.2c-0.5-1.5-1.1-3-1.6-4.5c-1.5,2.3-2.6,4.5-3.7,6.6c-1.6,2.9-3.1,5.7-5.4,9l1.5,4.1
					c3.4-4.3,5.3-7.9,7.1-11.4C336.2,110.7,336.8,109.4,337.6,108.2z"/>
				<path class="st1" d="M340.1,115.2c-0.5-1.5-1.1-3.1-1.6-4.6c-0.7,1.3-1.4,2.5-2.1,3.8c-1.9,3.6-3.8,7.1-7.2,11.4l1.4,4
					c4.6-5.4,6.8-9.6,9-13.7C339.8,115.8,339.9,115.5,340.1,115.2z"/>
				<path class="st1" d="M346,131.8c-2.2,3.7-5,7.6-10.1,12.8l1.4,3.8c0.1-0.1,0.2-0.2,0.3-0.3c0,0,0,0,0.1-0.1
					c4.7-4.7,7.7-8.5,9.9-11.8C347,134.7,346.5,133.2,346,131.8z"/>
				<path class="st1" d="M341,117.7c-0.2,0.3-0.3,0.6-0.5,0.9c-2.3,4.2-4.4,8.2-9,13.6l1.4,3.9c5-5.5,7.6-9.8,9.7-13.8
					C342.1,120.8,341.5,119.2,341,117.7z"/>
				<path class="st1" d="M345.8,156.3C345.8,156.3,345.8,156.3,345.8,156.3c2.6-2.6,4.7-4.9,6.4-7c-0.5-1.3-0.9-2.7-1.5-4.1
					c-1.9,2.5-4.3,5.3-7.5,8.5c0,0,0,0,0,0c-1.1,1.1-2.1,2-3.1,2.9l1.3,3.7C342.9,159.2,344.3,157.8,345.8,156.3z"/>
				<path class="st1" d="M341.8,152.1c3.5-3.5,6.1-6.6,8.1-9.3c-0.5-1.4-1-2.8-1.5-4.2c-2.1,3.1-4.9,6.6-9.3,11c0,0,0,0,0,0
					c-0.4,0.4-0.7,0.7-1,1l1.3,3.8C340.1,153.7,340.9,153,341.8,152.1C341.7,152.2,341.7,152.1,341.8,152.1z"/>
				<path class="st1" d="M347.4,157.8c-1.8,1.8-3.5,3.4-5.1,4.8l1.3,3.7c1.9-1.6,4-3.5,6.3-5.8c0,0,0,0,0.1-0.1
					c1.7-1.7,3.2-3.3,4.5-4.8c-0.4-1.2-0.9-2.6-1.4-4C351.5,153.5,349.7,155.5,347.4,157.8C347.4,157.8,347.4,157.8,347.4,157.8z"/>
				<path class="st1" d="M355.6,166.1L355.6,166.1c-3.6,3.6-6.5,6.1-9.2,8l1.1,3.1c0.1,0.2,0.1,0.3,0.2,0.5c3.1-2.1,6.5-5,10.6-9
					c0,0,0,0,0,0c0.3-0.3,0.5-0.5,0.7-0.8c-0.5-1.2-1-2.4-1.5-3.7l0,0C356.9,164.8,356.3,165.4,355.6,166.1
					C355.7,166.1,355.6,166.1,355.6,166.1z"/>
				<path class="st1" d="M363,175.3c-7,6.8-11.7,9.6-16.5,12.2c2.1,0,4.6,0,7.3,0c3.3-2.1,7-4.9,11.6-9.4
					C364.5,177.3,363.8,176.4,363,175.3z"/>
				<path class="st1" d="M372.5,182.3c-0.1,0.1-0.2,0.2-0.3,0.3l0,0c-1.9,1.9-3.6,3.5-5.2,4.8c1.9,0,3.7,0,5.5,0
					c0.7-0.7,1.5-1.5,2.3-2.2c0,0,0,0,0,0c0.7-0.7,1.3-1.4,2-2C375.1,182.9,373.6,182.6,372.5,182.3z"/>
				<path class="st1" d="M387.4,184.1c-0.3,0-0.6,0-0.9,0c-0.9,1.1-1.8,2.2-2.9,3.4c2.2,0,3.6,0,3.8,0c0.6,0,1.3-0.5,1.3-1.3l0-0.7
					C388.7,184.5,387.9,184.1,387.4,184.1z"/>
				<path class="st1" d="M351.5,162c-2.7,2.7-5,4.7-7.1,6.4l1.3,3.6c2.5-1.9,5.3-4.3,8.4-7.5c0,0,0,0,0,0c0.9-0.9,1.8-1.8,2.6-2.7
					c-0.4-1.1-0.8-2.4-1.4-3.9C354.2,159.2,353,160.5,351.5,162C351.5,161.9,351.5,162,351.5,162z"/>
				<path class="st1" d="M360,170c-0.1,0.1-0.1,0.1-0.2,0.2c0,0,0,0-0.1,0.1c-4.8,4.8-8.5,7.7-11.9,9.8c-0.3,2-1.8,3.3-2.9,3.5
					c-1.5,0.4-3.4,0.5-3.5,0.5c-0.8,0-1.3,0.6-1.3,1.3c0,0,0,0.7,0,0.8c0,0.8,0.7,1.3,1.3,1.3c0.2,0,0.5,0,0.9,0
					c0.2-0.1,0.3-0.2,0.5-0.2c5.3-2.8,10.8-5.8,18.9-13.8C361.2,172.4,360.5,171.3,360,170z"/>
				<path class="st1" d="M367,179.5c-3.7,3.6-6.7,6-9.5,7.9c2,0,4,0,6.1,0c2-1.6,4.2-3.6,6.6-6C369.1,181,368,180.4,367,179.5z"/>
				<path class="st1" d="M379.3,183.5c-0.9,1-1.9,2-3,3.2c0,0,0,0,0,0c-0.2,0.2-0.5,0.5-0.7,0.7c1.9,0,3.6,0,5.1,0
					c1.2-1.2,2.2-2.4,3.2-3.5C382.4,183.9,380.8,183.7,379.3,183.5z"/>
				<path class="st1" d="M301.7,7.3c-0.6-1.3-1.9-1.5-2.4-1.5c-0.5,0-1.9,0.3-2.4,1.7l-1.1,3c0.6-0.3,1.3-0.7,1.9-1
					C299.1,8.8,300.4,8.1,301.7,7.3z"/>
				<path class="st1" d="M295.6,39.7c5.7-5.7,9.9-8.7,13.8-11c-0.4-1.2-0.8-2.4-1.2-3.5c-4.2,2.4-8.9,5.7-15.1,12
					c-6.2,6.2-9.5,10.9-12,15.1l-6.1,17.3c3.2-4.2,5.1-7.7,6.9-11.1C284.7,53,287.5,47.8,295.6,39.7z"/>
				<path class="st1" d="M303.7,12.7c-0.5-1.4-0.9-2.6-1.2-3.5c-0.8,0.4-1.5,0.8-2.3,1.2c-1.7,0.9-3.5,1.9-5.3,3l-2,5.7
					c3.3-2.3,6.1-3.9,9.1-5.4C302.5,13.3,303.1,13,303.7,12.7z"/>
				<path class="st1" d="M304.3,14.5C304.3,14.5,304.3,14.5,304.3,14.5c-3.9,2.1-7.8,4.2-12.8,8.2l-2.5,7.1
					c7-6.7,11.7-9.3,16.6-11.9C305.1,16.7,304.7,15.6,304.3,14.5z"/>
				<path class="st1" d="M271.6,82c8.5-8.5,11.5-14.1,14.4-19.5c2.9-5.4,5.6-10.6,13.7-18.6c4.6-4.6,8.3-7.5,11.6-9.7
					c-0.4-1.2-0.8-2.4-1.3-3.5c-3.7,2.3-7.8,5.5-12.9,10.6c-8.5,8.5-11.5,14.1-14.4,19.5c-2.4,4.5-4.7,8.8-10,14.7l-2.9,8.3
					C270.4,83.2,271,82.6,271.6,82C271.6,82,271.6,82,271.6,82z"/>
				<path class="st1" d="M307.4,23.3c-0.4-1.2-0.8-2.4-1.2-3.5c-4.8,2.6-10,5.9-17.3,13.2c-0.5,0.5-1.1,1.1-1.6,1.6l-3.4,9.6
					c1.9-2.5,4.3-5.3,7.6-8.6C298.2,28.9,302.9,25.8,307.4,23.3z"/>
				<path class="st1" d="M297.4,55.1c1.7-2.1,3.8-4.4,6.4-7.1c3.7-3.7,6.7-6.2,9.5-8.2c-0.4-1.2-0.9-2.4-1.3-3.6
					c-3.1,2.2-6.6,5-10.8,9.2c-8.5,8.5-11.5,14.1-14.4,19.5c-2.9,5.4-5.6,10.6-13.8,18.7c0,0,0,0,0,0c-1.7,1.7-3.3,3.2-4.8,4.5
					l-2.3,6.5c2.8-2.1,6-4.7,9.7-8.4c0,0,0,0,0,0c6.1-6.1,9.4-10.7,11.8-14.8c0.7-1.4,1.4-2.7,2-3.9
					C292.1,62.4,293.3,57.8,297.4,55.1z"/>
			</g>
			<g>
				<path class="st2" d="M276.4,117.4h-4.5c-2.9,1.6-6,3.3-9.6,6.1l-1.4,3.8c5.3-4.5,9.3-6.6,13.4-8.8
					C275.1,118.1,275.7,117.7,276.4,117.4z"/>
				<path class="st2" d="M278.5,122.6c2.8-1.5,5.6-3,8.8-5.2h-3.9c-2,1.3-4,2.3-5.9,3.3c-5.4,2.9-10.9,5.8-19.2,14.1l-1.7,4.9
					c0.9-1,2-2.1,3.1-3.3C267.8,128.3,273,125.5,278.5,122.6z"/>
				<path class="st2" d="M285.8,129c-5.4,2.9-11,5.8-19.4,14.3c-8.4,8.4-11.4,13.9-14.2,19.3c-1.6,3.1-3.2,6-5.7,9.5
					c-0.1,1.3-0.1,2.5,0,3.5c3.7-4.6,5.7-8.4,7.7-12c2.9-5.5,5.7-10.7,13.8-18.8c8.2-8.2,13.4-10.9,18.9-13.9c1.9-1,3.9-2.1,6-3.4
					c-0.2-0.7-0.4-1.4-0.5-2.2C290,126.7,287.9,127.8,285.8,129z"/>
				<path class="st2" d="M294,137.2c-5.4,2.9-11,5.8-19.4,14.3c-8.4,8.4-11.4,13.9-14.2,19.3c-2.1,3.9-4.1,7.7-8.1,12.5
					c0.3,0.1,0.6,0.1,0.8,0.2c0.5,0.1,1.1,0.2,1.6,0.3c3.6-4.6,5.6-8.3,7.6-11.9c2.9-5.5,5.7-10.7,13.8-18.8
					c8.2-8.2,13.4-11,18.9-13.9c0.4-0.2,0.8-0.5,1.3-0.7c-0.2-0.7-0.4-1.4-0.7-2.1C295.1,136.6,294.6,136.9,294,137.2z"/>
				<path class="st2" d="M321.1,117.4h-2.6c-0.5,1.6-1.1,3.3-1.7,4.9C318.5,120.5,319.9,118.9,321.1,117.4z"/>
				<path class="st2" d="M298.4,147.5c-4.3,2.5-9.1,5.7-15.5,12.2c-8.4,8.4-11.4,13.9-14.2,19.3c-1.5,2.7-2.9,5.4-5,8.4h2.6
					c1.7-2.6,3-5,4.3-7.4c2.9-5.5,5.7-10.7,13.9-18.8c5.9-5.9,10.2-8.9,14.2-11.3C298.6,149.1,298.5,148.3,298.4,147.5z"/>
				<path class="st2" d="M322.6,133.1L322.6,133.1c2.7-2.7,4.9-5.1,6.6-7.3l-0.8-2.4c-1.8,2.4-4.2,5.1-7.3,8.2l0,0
					c-4.5,4.5-8.1,7.3-11.3,9.5c-0.3,1-0.5,2-0.8,3C312.9,141.7,317.1,138.6,322.6,133.1z"/>
				<path class="st2" d="M309.1,155.7c0.1,0.3,0.2,0.7,0.2,1c0.7-0.4,1.4-0.8,2.2-1.2c5.4-2.9,10.9-5.8,19.3-14.2l0,0c1-1,2-2,2.9-3
					l-0.8-2.3c-1.1,1.2-2.2,2.4-3.5,3.7l0,0c-8.2,8.2-13.3,10.9-18.8,13.9c-0.5,0.3-1.1,0.6-1.6,0.9
					C308.9,154.9,309,155.3,309.1,155.7L309.1,155.7z"/>
				<path class="st2" d="M297.3,162.3c-1.9,1.6-3.9,3.4-6.2,5.7c-8.4,8.4-11.4,13.9-14.2,19.3c0,0.1-0.1,0.1-0.1,0.2h2.4
					c2.8-5.2,5.7-10.2,13.4-18c1.8-1.8,3.4-3.3,4.9-4.6c-0.1-0.7-0.2-1.4-0.3-2.1C297.3,162.6,297.3,162.4,297.3,162.3z"/>
				<path class="st2" d="M328,172c4.2-2.3,8.6-4.6,14.3-9.5l-0.8-2.2c-5.8,5.2-10.1,7.4-14.5,9.8c-5.4,2.9-11,5.9-19.4,14.3
					c-0.1,0.1-0.1,0.1-0.2,0.2c0.3,1,0.6,2,0.6,2.3c0,0,0,0.1,0,0.1c0.4-0.4,0.7-0.7,1.1-1.1C317.3,177.7,322.5,175,328,172z"/>
				<path class="st2" d="M281.6,124.8c-5.4,2.9-10.9,5.9-19.4,14.3c-4.4,4.4-7.4,8.1-9.5,11.3l-3.9,10.9c0,0.1-0.1,0.2-0.1,0.2
					c0.4-0.7,0.8-1.4,1.1-2.1c2.9-5.5,5.7-10.6,13.9-18.8c8.2-8.2,13.4-11,18.9-13.9c2.8-1.5,5.6-3,8.9-5.3
					c-0.1-0.8-0.2-1.6-0.3-2.4C287.7,121.6,284.7,123.2,281.6,124.8z"/>
				<path class="st2" d="M293.9,130.9c-1.3,0.8-2.6,1.5-4,2.2c-5.4,2.9-10.9,5.8-19.4,14.3c-8.4,8.4-11.4,13.9-14.2,19.3
					c-2.2,4.1-4.3,8.1-8.7,13.3c0.4,0.7,0.9,1.3,1.3,1.7c4.8-5.6,7-9.8,9.2-14c2.9-5.5,5.7-10.7,13.8-18.8
					c8.2-8.2,13.4-10.9,18.9-13.9c1.2-0.6,2.4-1.3,3.6-2c-0.2-0.6-0.4-1.2-0.6-1.9C293.9,131,293.9,131,293.9,130.9z"/>
				<path class="st2" d="M278.8,155.6c-8.4,8.4-11.4,13.9-14.2,19.3c-1.6,3-3.1,5.9-5.6,9.2c0.5,0.2,0.9,0.6,0.9,1.2
					c0,0,0,0.3,0,0.8c0,0.2,0,0.4-0.1,0.5c3.1-4.1,4.9-7.4,6.6-10.7c2.9-5.5,5.7-10.7,13.9-18.8c7.5-7.5,12.5-10.5,17.5-13.2
					c-0.2-0.7-0.3-1.4-0.5-2.1C292.2,144.5,286.8,147.6,278.8,155.6z"/>
				<path class="st2" d="M318.4,129L318.4,129c3.7-3.7,6.4-6.9,8.4-9.7l-0.2-0.5c-0.2-0.7-0.6-1.1-1.2-1.3c-2,2.9-4.7,6.1-8.5,9.9
					l0,0c-1.4,1.4-2.8,2.7-4,3.8c-0.4,1.3-0.8,2.6-1.3,3.9C313.7,133.5,315.9,131.5,318.4,129z"/>
				<path class="st2" d="M297.8,155.7c0.1-0.4,0.2-0.8,0.3-1.2c-3.2,2.2-6.8,5.1-11.1,9.4c-8.4,8.4-11.4,13.9-14.2,19.3
					c-0.8,1.4-1.5,2.8-2.4,4.3h2.5c0.6-1.1,1.2-2.2,1.8-3.3c2.9-5.5,5.7-10.6,13.9-18.8c3.4-3.4,6.3-5.9,8.9-7.8
					C297.5,156.9,297.6,156.3,297.8,155.7L297.8,155.7z"/>
				<path class="st2" d="M308.4,150.9c5.1-2.7,10.5-5.8,18.3-13.7l0,0c1.8-1.8,3.4-3.5,4.8-5.1l-0.8-2.3c-1.5,1.8-3.3,3.7-5.4,5.9
					l0,0c-7.2,7.2-12,10.2-16.8,12.8C308.3,149.3,308.3,150.1,308.4,150.9z"/>
				<path class="st2" d="M309.6,162.7c0,0.1,0,0.2,0,0.4c2.1-1.3,4-2.3,6.1-3.4c5.4-2.9,10.9-5.8,19.3-14.2l0,0
					c0.3-0.3,0.6-0.6,0.9-0.9l-0.8-2.2c-0.5,0.5-1.1,1.1-1.6,1.7l0,0c-8.2,8.2-13.3,10.9-18.8,13.9c-1.6,0.9-3.2,1.7-4.9,2.7
					C309.7,161.2,309.6,162,309.6,162.7z"/>
				<path class="st2" d="M295.2,172.1c-6.4,6.4-9.6,11.1-12.1,15.4h2.5c2.3-3.9,5.4-8.2,11.1-13.9c0.8-0.8,1.6-1.6,2.3-2.3
					c-0.2-0.7-0.4-1.5-0.6-2.3C297.4,169.9,296.3,171,295.2,172.1z"/>
				<path class="st2" d="M319.7,163.8c5.2-2.8,10.5-5.6,18.3-13.2l-0.8-2.2c-8,7.9-13.1,10.7-18.5,13.6c-3.1,1.7-6.3,3.3-10,6.1
					c-0.3,1.2-0.6,2.3-0.9,3.4C312.4,167.7,316,165.8,319.7,163.8z"/>
				<path class="st2" d="M300.2,175.3c-0.3,0.3-0.6,0.6-0.9,0.8c-4.4,4.4-7.3,8-9.5,11.2h2.6c2-2.8,4.6-5.9,8.2-9.6
					c-0.1-0.6-0.2-1.3-0.3-2C300.3,175.7,300.3,175.5,300.2,175.3z"/>
				<path class="st2" d="M344.3,168.3l-0.8-2.1c-4.8,4-8.6,6-12.5,8.1c-5.1,2.7-10.4,5.6-18.2,13.1h3.1c6.7-6.2,11.3-8.7,16.1-11.3
					C335.8,174.2,339.6,172.2,344.3,168.3z"/>
				<path class="st2" d="M299.6,184.4c-0.9,1.1-1.8,2.1-2.6,3h1.9c-0.1-0.1-0.1-0.3-0.1-0.5C298.9,186.6,299.3,185.4,299.6,184.4z"
					/>
				<path class="st2" d="M306.2,180.6c7.5-7.3,12.4-9.9,17.6-12.7c4.7-2.5,9.5-5.1,16.3-11.3l-0.8-2.2c-6.9,6.5-11.6,9-16.5,11.7
					c-4.8,2.6-9.7,5.2-16.6,11.6C306.1,178.8,306.1,179.8,306.2,180.6z"/>
				<path class="st2" d="M347.7,177.7c-3,2-5.6,3.4-8.3,4.9c-2.6,1.4-5.3,2.8-8.3,4.9h3.9c1.8-1.1,3.6-2,5.4-3
					c2.4-1.3,4.8-2.6,7.5-4.3C348,179.4,347.9,178.6,347.7,177.7z"/>
				<path class="st2" d="M346.4,174.1l-0.7-2.1c-3.9,2.9-7.1,4.6-10.4,6.4c-4.1,2.2-8.3,4.4-13.7,9h3.4c4.3-3.4,7.7-5.2,11.3-7.1
					C339.4,178.6,342.6,176.9,346.4,174.1z"/>
			</g>
		</g>
	</g>
</g>
</svg>
