<?xml version="1.0" encoding="UTF-8"?> <svg xmlns="http://www.w3.org/2000/svg" xmlns:xlink="http://www.w3.org/1999/xlink" version="1.1" id="Capa_1" x="0px" y="0px" width="200px" height="52px" viewBox="0 0 1066 300" style="enable-background:new 0 0 1066 300;" xml:space="preserve"> <style type="text/css"> .st0{fill:#fff;} .st1{fill:#22B573;} </style> <path class="st0" d="M50.1,137.5c0.9,20.5,7.1,61.3,41.6,75.7c-0.7-2.7-2.3-5.9-2.9-8.6c-11.5-55.7,1.5-104.9,2.9-109.9 C98,67.3,122.6,47,151.9,47c8,0,17.2,0.4,25.6,2.8c16.4,5.2,39.5,18.3,71.3,43.1C235.4,52,197,22.5,151.7,22.5 c-56.5,0-102.3,45.8-102.3,102.3c0,0.9,0,1.9,0.1,2.8C49.5,131,49.7,134.3,50.1,137.5z"></path> <path class="st0" d="M219.1,83.7c-0.8-0.4-1.7-0.8-2.6-1.2c-3-1.4-6.1-2.6-9.2-3.6c-18.8-8.2-58.2-20.5-86.3,4.2 c2.7,0.6,6.3,0.5,9,1.1c55.1,14.1,93.6,47.3,97.5,50.8c21.8,17.7,29.3,48.7,16.5,75c-3.5,7.2-8,15.3-13.8,21.8 c-11.8,12.4-33.8,27.4-70,45.2c28.1,3.8,56.5-4.3,78.3-21.9c11.2-9.1,20.7-20.7,27.5-34.6c3-6.2,5.3-12.5,7-18.9 C285.3,155.4,263.7,105.5,219.1,83.7z"></path> <path class="st0" d="M181.7,254.4c2.7-1.9,5.3-4,7.8-6.1c16.5-12.1,47-40,39.8-76.7c-1.9,2.1-3.6,5.2-5.5,7.2 c-39.9,40.5-88,57.1-93,58.7c-26.3,9.9-56.9,0.9-73.2-23.5c-4.5-6.7-9.2-14.6-11.9-22.9c-4.8-16.5-6.7-43-3.9-83.2 c-26.4,33.9-29.6,82.2-4.4,119.9c31.4,47,95,59.6,142,28.2C180.2,255.5,180.9,254.9,181.7,254.4z"></path> <path class="st1" d="M107,209.4c0.3,6.3,5.4,11.2,11.8,11.2c2,0,3.8-0.5,5.5-1.3l0.6-0.4l85.5-49.4l0.4-0.2c3.5-2,5.9-5.8,5.9-10.2 c0-3.9-1.9-7.3-4.8-9.5c-0.7-0.6-1.6-1-2.4-1.4l-84-48.5c-0.5-0.3-1-0.6-1.5-0.9c-1.6-0.8-3.3-1.2-5.2-1.2 c-6.1,0-11.1,4.6-11.7,10.6c0,0.4-0.1,0.8-0.1,1.2s0,0.8,0.1,1.2l0,97.6c0,0.2,0,0.4,0,0.5C107,209,107,209.2,107,209.4z"></path> <path class="st0" d="M328.5,120.3c-6.8-2.3-12.3-5.4-16.2-9.4s-5.9-8.8-5.9-14.4c0-5.5,2-10.3,5.9-14.3c4-4,8.8-6,14.4-6 c5.6,0,10.4,2,14.4,5.9c2.2,2.1,3.7,4.5,4.6,7.1l-4.9,1.9c-0.7-2-1.9-3.8-3.5-5.4c-2.9-2.9-6.4-4.3-10.6-4.3 c-4.1,0-7.6,1.5-10.6,4.4c-2.9,2.9-4.4,6.4-4.4,10.6c0,4.1,1.5,7.6,4.4,10.6c2.7,2.7,6.5,5.1,11.3,7.4c7.7,2.5,14.2,6.3,19.4,11.6 c5.6,5.5,8.3,12.2,8.3,20.1c0,7.9-2.8,14.6-8.3,20.2c-5.6,5.6-12.3,8.3-20.1,8.3c-7.8,0-14.6-2.8-20.1-8.4c-4.4-4.4-7.1-9.6-8-15.5 l5.1-1.9c0.6,5.2,2.8,9.8,6.7,13.6c4.5,4.5,10,6.8,16.3,6.8c6.4,0,11.9-2.3,16.4-6.8c4.5-4.5,6.8-10,6.8-16.4 c0-6.4-2.3-11.8-6.8-16.3C339.1,125.8,334.3,122.7,328.5,120.3z"></path> <path class="st0" d="M415.2,77.4v5.4h-42.6v39.9h42.6v5.4h-42.6v39.9h42.6v5.4h-48V77.4H415.2z"></path> <path class="st0" d="M455.1,140.1c-0.5,0-1.1,0.1-1.6,0.1h-16.3v33.3h-5.4V77.4H457c7.3,1,13.6,4.1,18.7,9.2 c6.1,6.1,9.2,13.5,9.2,22.2c0,8.7-3.1,16.1-9.2,22.2c-4.2,4.2-9.1,7-14.6,8.3l22.2,34.2h-6.7L455.1,140.1z M437.1,82.9v51.8h16.3 c7.1,0,13.2-2.5,18.3-7.6c5.1-5.1,7.6-11.2,7.6-18.3c0-7.2-2.5-13.3-7.6-18.3c-5.1-5-11.2-7.6-18.3-7.6H437.1z"></path> <path class="st0" d="M496.2,77.4l30,82.5l30-82.5h5.8l-35.8,98.3l-35.7-98.3H496.2z"></path> <path class="st0" d="M580.7,77.4v96.1h-5.4V77.4H580.7z"></path> <path class="st0" d="M345.7,210.2v21.4h-2.7v-47.7h2.7v23.6h20v-23.6h2.7v47.7h-2.7v-21.4H345.7z"></path> <path class="st0" d="M391.9,199.6c4.5,0,8.4,1.6,11.6,4.8c3.2,3.2,4.8,7.1,4.8,11.6c0,4.5-1.6,8.4-4.8,11.6c-3.2,3.2-7,4.8-11.6,4.8 c-4.5,0-8.4-1.6-11.6-4.8c-3.2-3.2-4.8-7-4.8-11.6c0-4.5,1.6-8.4,4.8-11.6C383.5,201.2,387.4,199.6,391.9,199.6z M382.3,206.5 c-2.6,2.6-4,5.8-4,9.6c0,3.7,1.3,6.9,4,9.5c2.6,2.6,5.8,3.9,9.6,3.9c3.7,0,6.9-1.3,9.6-3.9c2.6-2.6,4-5.8,4-9.5c0-3.7-1.3-6.9-4-9.6 c-2.6-2.6-5.8-4-9.6-4C388.1,202.5,385,203.8,382.3,206.5z"></path> <path class="st0" d="M423.4,216.5c-2.3-1.2-3.9-2.3-4.7-3.2c-1.4-1.4-2.1-3-2.1-4.9c0-1.9,0.7-3.6,2.1-5s3-2.1,4.9-2.1 c1.9,0,3.6,0.6,4.8,1.9c1.2,1.3,1.8,2.7,1.8,4.3v0.1l-2.3,0.9c-0.2-1.5-0.7-2.6-1.4-3.4c-0.7-0.8-1.7-1.1-2.9-1.1 c-1.2,0-2.2,0.4-3.1,1.3c-0.9,0.8-1.3,1.9-1.3,3.1c0,1.2,0.4,2.2,1.3,3.1c0.5,0.5,1.5,1.3,3.2,2.3c2.5,1.4,4.3,2.6,5.4,3.7 c1.7,1.7,2.5,3.7,2.5,6.1c0,2.4-0.8,4.5-2.5,6.2c-1.7,1.7-3.7,2.5-6.1,2.5c-2.4,0-4.4-0.8-6.1-2.5c-1.7-1.7-2.5-3.6-2.5-5.6l2.7-0.7 c0,1.7,0.6,3.2,1.8,4.4c1.2,1.2,2.6,1.8,4.2,1.8c1.6,0,3.1-0.6,4.2-1.8c1.2-1.2,1.8-2.6,1.8-4.3c0-1.6-0.6-3.1-1.8-4.2 C426.6,218.7,425.3,217.7,423.4,216.5z"></path> <path class="st0" d="M443.9,202.3v-12.5h2.7v12.5h6v2.7h-6v26.6h-2.7V205h-6v-2.7H443.9z"></path> <path class="st0" d="M463.5,192.7c0.5,0.5,0.8,1.1,0.8,1.9c0,0.8-0.3,1.4-0.8,1.9c-0.5,0.5-1.2,0.8-1.9,0.8c-0.7,0-1.4-0.3-1.9-0.8 c-0.5-0.5-0.8-1.2-0.8-1.9c0-0.7,0.3-1.4,0.8-1.9c0.5-0.5,1.2-0.8,1.9-0.8C462.3,191.9,463,192.2,463.5,192.7z M462.9,202.3v29.2 h-2.7v-29.2H462.9z"></path> <path class="st0" d="M475.2,208.8v22.7h-2.7v-29.2h2.7v1.9c2.4-2.4,5.3-3.6,8.5-3.6c3.5,0,6.3,1.1,8.4,3.2c2.2,2.2,3.3,4.9,3.3,8.2 v19.6h-2.7v-19.3c0-2.5-0.9-4.6-2.7-6.4c-1.8-1.8-3.9-2.6-6.4-2.6c-2.5,0-4.6,0.9-6.4,2.6C476.3,206.8,475.6,207.8,475.2,208.8z"></path> <path class="st0" d="M533.2,225.7c-0.5,0.6-1,1.3-1.6,1.8c-3.2,3.2-7.1,4.8-11.6,4.8c-4.5,0-8.4-1.6-11.6-4.8 c-3.2-3.2-4.8-7-4.8-11.6c0-4.5,1.6-8.4,4.8-11.6c3.2-3.2,7-4.8,11.6-4.8c4.5,0,8.4,1.6,11.6,4.8c0.6,0.6,1.2,1.3,1.7,2v-4.1h2.7 V225c0,4.4-1.6,8.1-4.7,11.3c-3.2,3.2-7,4.8-11.6,4.8c-4.5,0-8.4-1.6-11.6-4.8c-0.7-0.7-1.2-1.3-1.8-2.1l2.8-1c0.3,0.4,0.6,0.7,1,1 c2.6,2.6,5.8,4,9.6,4c3.7,0,6.9-1.3,9.5-4C531.6,231.8,533,229,533.2,225.7z M533.2,213.2c-0.5-2.6-1.7-4.8-3.7-6.8 c-2.6-2.6-5.8-4-9.6-4c-3.7,0-6.9,1.3-9.6,4c-2.6,2.6-4,5.8-4,9.6c0,3.7,1.3,6.9,4,9.6c2.6,2.6,5.8,4,9.6,4c3.7,0,6.9-1.3,9.6-4 c1.9-1.9,3.2-4.2,3.7-6.7V213.2z"></path> <path class="st0" d="M569.4,183.9v47.7h-2.7v-47.7H569.4z"></path> <path class="st0" d="M581.6,208.8v22.7h-2.7v-29.2h2.7v1.9c2.4-2.4,5.3-3.6,8.5-3.6c3.5,0,6.3,1.1,8.4,3.2s3.3,4.9,3.3,8.2v19.6 h-2.7v-19.3c0-2.5-0.9-4.6-2.7-6.4c-1.8-1.8-3.9-2.6-6.4-2.6c-2.5,0-4.6,0.9-6.4,2.6C582.7,206.8,582,207.8,581.6,208.8z"></path> <path class="st0" d="M615,202.3v-12.5h2.7v12.5h6v2.7h-6v26.6H615V205h-6v-2.7H615z"></path> <path class="st0" d="M636.3,226c2.5,2.3,5.5,3.5,9,3.5c3.7,0,6.9-1.3,9.6-4c0.3-0.3,0.7-0.7,1-1l2.8,1c-0.5,0.7-1.1,1.4-1.8,2.1 c-3.2,3.2-7.1,4.8-11.6,4.8c-4.5,0-8.4-1.6-11.6-4.8c-3.2-3.2-4.8-7.1-4.8-11.6c0-4.5,1.6-8.4,4.8-11.6c3.2-3.2,7-4.8,11.6-4.8 c3.9,0,7.3,1.2,10.2,3.5c0.5,0.4,1,0.8,1.4,1.3c0.2,0.2,0.3,0.4,0.5,0.5l-2,2L636.3,226z M653.4,205.2c-2.3-1.8-5-2.7-8.1-2.7 c-3.7,0-6.9,1.3-9.5,3.9c-2.6,2.6-4,5.8-4,9.5c0,3.1,0.9,5.8,2.7,8.1L653.4,205.2z"></path> <path class="st0" d="M665.8,202.3h2.7v5.3c0.6-0.8,1.2-1.6,1.9-2.3c2.4-2.4,4.8-3.6,7.3-3.7v2.9c-1.7,0.1-3.4,1-5.2,2.8 c-2.5,2.5-3.9,5.6-4,9.1v15.1h-2.7V202.3z"></path> <path class="st0" d="M687,208.8v22.7h-2.7v-29.2h2.7v1.9c2.4-2.4,5.3-3.6,8.5-3.6c3.5,0,6.3,1.1,8.4,3.2c2.2,2.2,3.3,4.9,3.3,8.2 v19.6h-2.7v-19.3c0-2.5-0.9-4.6-2.7-6.4c-1.8-1.8-3.9-2.6-6.4-2.6s-4.6,0.9-6.4,2.6C688.1,206.8,687.4,207.8,687,208.8z"></path> <path class="st0" d="M721.7,226c2.5,2.3,5.5,3.5,9,3.5c3.7,0,6.9-1.3,9.6-4c0.3-0.3,0.7-0.7,1-1l2.8,1c-0.5,0.7-1.1,1.4-1.8,2.1 c-3.2,3.2-7.1,4.8-11.6,4.8c-4.5,0-8.4-1.6-11.6-4.8c-3.2-3.2-4.8-7.1-4.8-11.6c0-4.5,1.6-8.4,4.8-11.6c3.2-3.2,7-4.8,11.6-4.8 c3.9,0,7.3,1.2,10.2,3.5c0.5,0.4,1,0.8,1.4,1.3c0.2,0.2,0.3,0.4,0.5,0.5l-2,2L721.7,226z M738.8,205.2c-2.3-1.8-5-2.7-8.1-2.7 c-3.7,0-6.9,1.3-9.5,3.9c-2.6,2.6-4,5.8-4,9.5c0,3.1,0.9,5.8,2.7,8.1L738.8,205.2z"></path> <path class="st0" d="M755.4,202.3v-12.5h2.7v12.5h6v2.7h-6v26.6h-2.7V205h-6v-2.7H755.4z"></path> <path class="st0" d="M804.1,205.1c-3.4-1.1-6.1-2.7-8-4.6s-2.9-4.3-2.9-7.1c0-2.7,1-5.1,2.9-7.1s4.3-3,7.1-3c2.8,0,5.2,1,7.1,2.9 c1.1,1.1,1.8,2.2,2.3,3.5l-2.4,1c-0.4-1-0.9-1.9-1.8-2.7c-1.4-1.4-3.2-2.1-5.2-2.1s-3.8,0.7-5.2,2.2s-2.2,3.2-2.2,5.3 c0,2,0.7,3.8,2.2,5.2c1.4,1.3,3.2,2.6,5.6,3.7c3.8,1.2,7,3.1,9.6,5.7c2.8,2.7,4.1,6.1,4.1,9.9c0,3.9-1.4,7.2-4.1,10 c-2.8,2.8-6.1,4.1-10,4.1s-7.2-1.4-10-4.2c-2.2-2.2-3.5-4.8-4-7.7l2.5-0.9c0.3,2.6,1.4,4.8,3.3,6.8c2.2,2.2,4.9,3.4,8.1,3.4 c3.2,0,5.9-1.1,8.1-3.4c2.2-2.2,3.4-5,3.4-8.1c0-3.2-1.1-5.9-3.4-8.1C809.4,207.9,807,206.3,804.1,205.1z"></path> <path class="st0" d="M828.9,226c2.5,2.3,5.5,3.5,9,3.5c3.7,0,6.9-1.3,9.6-4c0.3-0.3,0.7-0.7,1-1l2.8,1c-0.5,0.7-1.1,1.4-1.8,2.1 c-3.2,3.2-7.1,4.8-11.6,4.8c-4.5,0-8.4-1.6-11.6-4.8c-3.2-3.2-4.8-7.1-4.8-11.6c0-4.5,1.6-8.4,4.8-11.6c3.2-3.2,7-4.8,11.6-4.8 c3.9,0,7.3,1.2,10.2,3.5c0.5,0.4,1,0.8,1.4,1.3c0.2,0.2,0.3,0.4,0.5,0.5l-2,2L828.9,226z M846,205.2c-2.3-1.8-5-2.7-8.1-2.7 c-3.7,0-6.9,1.3-9.5,3.9c-2.6,2.6-4,5.8-4,9.5c0,3.1,0.9,5.8,2.7,8.1L846,205.2z"></path> <path class="st0" d="M858.4,202.3h2.7v5.3c0.6-0.8,1.2-1.6,1.9-2.3c2.4-2.4,4.8-3.6,7.3-3.7v2.9c-1.7,0.1-3.4,1-5.2,2.8 c-2.5,2.5-3.9,5.6-4,9.1v15.1h-2.7V202.3z"></path> <path class="st0" d="M889.8,226.6l11.3-24.4h3.1l-14.4,30.1l-14.4-30.1h3.1L889.8,226.6z"></path> <path class="st0" d="M914,192.7c0.5,0.5,0.8,1.1,0.8,1.9c0,0.8-0.3,1.4-0.8,1.9c-0.5,0.5-1.2,0.8-1.9,0.8c-0.7,0-1.4-0.3-1.9-0.8 c-0.5-0.5-0.8-1.2-0.8-1.9c0-0.7,0.3-1.4,0.8-1.9c0.5-0.5,1.2-0.8,1.9-0.8C912.8,191.9,913.4,192.2,914,192.7z M913.4,202.3v29.2 h-2.7v-29.2H913.4z"></path> <path class="st0" d="M948,224.5l2.8,1c-0.5,0.7-1.1,1.4-1.8,2.1c-3.2,3.2-7.1,4.8-11.6,4.8c-4.5,0-8.4-1.6-11.6-4.8 c-3.2-3.2-4.8-7.1-4.8-11.6c0-4.5,1.6-8.4,4.8-11.6c3.2-3.2,7-4.8,11.6-4.8c4.5,0,8.4,1.6,11.6,4.8c0.7,0.7,1.2,1.3,1.8,2l-2.8,1 c-0.3-0.4-0.6-0.7-1-1.1c-2.6-2.6-5.8-3.9-9.6-3.9c-3.7,0-6.9,1.3-9.5,3.9c-2.6,2.6-4,5.8-4,9.5s1.3,6.9,4,9.6c2.6,2.6,5.8,4,9.5,4 c3.7,0,6.9-1.3,9.6-4C947.4,225.2,947.7,224.9,948,224.5z"></path> <path class="st0" d="M963.6,226c2.5,2.3,5.5,3.5,9,3.5c3.7,0,6.9-1.3,9.6-4c0.3-0.3,0.7-0.7,1-1l2.8,1c-0.5,0.7-1.1,1.4-1.8,2.1 c-3.2,3.2-7.1,4.8-11.6,4.8c-4.5,0-8.4-1.6-11.6-4.8c-3.2-3.2-4.8-7.1-4.8-11.6c0-4.5,1.6-8.4,4.8-11.6c3.2-3.2,7-4.8,11.6-4.8 c3.9,0,7.3,1.2,10.2,3.5c0.5,0.4,1,0.8,1.4,1.3c0.2,0.2,0.3,0.4,0.5,0.5l-2,2L963.6,226z M980.7,205.2c-2.3-1.8-5-2.7-8.1-2.7 c-3.7,0-6.9,1.3-9.5,3.9c-2.6,2.6-4,5.8-4,9.5c0,3.1,0.9,5.8,2.7,8.1L980.7,205.2z"></path> <path class="st0" d="M1001.1,216.5c-2.3-1.2-3.9-2.3-4.7-3.2c-1.4-1.4-2.1-3-2.1-4.9c0-1.9,0.7-3.6,2.1-5c1.4-1.4,3-2.1,4.9-2.1 c1.9,0,3.6,0.6,4.8,1.9c1.2,1.3,1.8,2.7,1.8,4.3v0.1l-2.3,0.9c-0.2-1.5-0.7-2.6-1.4-3.4c-0.7-0.8-1.7-1.1-2.9-1.1 c-1.2,0-2.2,0.4-3.1,1.3c-0.9,0.8-1.3,1.9-1.3,3.1c0,1.2,0.4,2.2,1.3,3.1c0.5,0.5,1.5,1.3,3.2,2.3c2.5,1.4,4.3,2.6,5.4,3.7 c1.7,1.7,2.5,3.7,2.5,6.1c0,2.4-0.8,4.5-2.5,6.2c-1.7,1.7-3.7,2.5-6.1,2.5s-4.4-0.8-6.1-2.5c-1.7-1.7-2.5-3.6-2.5-5.6l2.7-0.7 c0,1.7,0.6,3.2,1.8,4.4c1.2,1.2,2.6,1.8,4.2,1.8s3.1-0.6,4.2-1.8s1.8-2.6,1.8-4.3c0-1.6-0.6-3.1-1.8-4.2 C1004.3,218.7,1003,217.7,1001.1,216.5z"></path> <path class="st0" d="M899.3,77.4l35,96.1h-13.2l-12.4-34h-25.5l-12.3,34h-13.3l35-96.1H899.3z M904.2,127.1l-8.2-22.5l-8.2,22.5 H904.2z"></path> <polygon class="st0" points="1034.1,77.4 1022.8,77.4 991.7,131.3 960.6,77.4 949.2,77.4 949.2,173.5 961.7,173.5 961.7,104.1 991.7,156 1021.7,104.1 1021.7,155.4 1034.1,150.3 "></polygon> <path class="st0" d="M990.2,170.4c0.4,0.4,0.6,0.8,0.6,1.4c0,0.6-0.2,1-0.6,1.4s-0.9,0.6-1.4,0.6c-0.5,0-1-0.2-1.4-0.6 s-0.6-0.9-0.6-1.4c0-0.5,0.2-1,0.6-1.4s0.9-0.6,1.4-0.6C989.4,169.8,989.9,170,990.2,170.4z"></path> <path class="st0" d="M997.1,163.3v10.3h-2.8v-14.1h2.8v1.6c0.6-1.6,1.8-2.4,3.6-2.4c1.5,0,2.7,0.5,3.6,1.6s1.4,2.4,1.4,4.1v9.1h-2.8 v-9c0-0.8-0.3-1.5-0.9-2.1s-1.3-0.9-2.1-0.9c-0.8,0-1.5,0.3-2.1,0.8C997.4,162.8,997.2,163.1,997.1,163.3z"></path> <path class="st0" d="M1014.2,170.4c0.5,0.4,1.3,0.6,2.6,0.6c1.3,0,2.5-0.5,3.5-1.4c0.1-0.1,0.4-0.4,0.7-0.8l2.8,1 c-0.7,1-1.2,1.6-1.5,1.9c-1.5,1.5-3.4,2.3-5.5,2.3c-2.1,0-4-0.8-5.5-2.3c-1.5-1.5-2.3-3.4-2.3-5.5c0-2.2,0.8-4,2.3-5.5 c1.5-1.5,3.4-2.3,5.5-2.3c1.8,0,3.5,0.6,4.8,1.7c0.2,0.2,0.5,0.4,0.7,0.6c0.1,0.1,0.4,0.4,0.8,0.9l-1.4,1.4L1014.2,170.4z M1018.9,161.7c-0.3-0.2-1-0.4-2.1-0.4c-1.3,0-2.5,0.5-3.4,1.4s-1.4,2.1-1.4,3.5c0,1.1,0.1,1.8,0.4,2.1L1018.9,161.7z"></path> <path class="st0" d="M1028.8,159.5v-5.3h2.8v5.3h2.5v2.8h-2.5v11.2h-2.8v-11.2h-2.5v-2.8H1028.8z"></path> <path class="st0" d="M795.4,90.9v82.6h51.8V161h-39.3v-29.4h39.3v-12.4h-39.3V89.9h39.3V77.4h-14.7 C820.1,81.9,807.7,86.4,795.4,90.9z"></path> <path class="st0" d="M771.9,133.2c6.4-6.4,9.5-14.1,9.5-23.2c0-4.7-0.9-9.1-2.7-13.1c-3.9,1.4-7.9,2.9-11.8,4.3c1.3,2.7,2,5.6,2,8.9 c0,5.6-2,10.4-5.9,14.3c-3.9,3.9-8.7,5.9-14.2,5.9h-11.4v-18.4c-4.1,1.5-8.3,3-12.4,4.5v57.2h12.4v-30.8h11.4l19.2,30.8h15.1 l-21.3-32.9C764.1,140.1,767.5,137.6,771.9,133.2z"></path> <path class="st0" d="M678.1,133.4v40.1h12.5v-44.7C686.4,130.4,682.3,131.9,678.1,133.4z"></path> <path class="st0" d="M636.9,148.3c-0.7,3.3-2.3,6.2-4.8,8.7c-3.4,3.4-7.6,5.2-12.4,5.2s-9-1.7-12.4-5.2c-3-3-4.8-8-5.6-15.1 l-12.1,4.4c1.2,8.2,4.2,14.7,8.9,19.4c5.8,5.9,12.9,8.8,21.2,8.8c8.2,0,15.3-2.9,21.2-8.8c5.9-5.9,8.8-12.9,8.8-21.2 c0-0.3,0-0.5,0-0.8C645.4,145.2,641.1,146.8,636.9,148.3z"></path> <polygon class="st0" points="731.3,86.4 731.3,83.4 736.9,83.4 746.9,77.9 725.9,77.9 725.9,89.3 "></polygon> <polygon class="st0" points="681.8,113.3 687.2,110.4 687.2,83.3 711.6,83.3 711.6,77.9 657.5,77.9 657.5,83.3 681.8,83.3 "></polygon> <path class="st0" d="M622.5,120.8c5.8,2.4,10.6,5.5,14.6,9.5c1.6,1.6,3,3.4,4,5.3l4.7-2.5c-1.3-2.3-2.9-4.4-4.9-6.4 c-5.2-5.2-11.7-9.1-19.4-11.6c-4.8-2.2-8.6-4.7-11.3-7.4c-2.9-2.9-4.4-6.4-4.4-10.6c0-4.2,1.5-7.7,4.4-10.6 c2.9-2.9,6.4-4.4,10.6-4.4c4.1,0,7.6,1.4,10.6,4.3c1.6,1.6,2.8,3.4,3.5,5.4l4.9-1.9c-0.8-2.6-2.4-5-4.6-7.1c-4-4-8.8-5.9-14.4-5.9 c-5.6,0-10.5,2-14.4,6c-4,4-5.9,8.7-5.9,14.3c0,5.6,2,10.5,5.9,14.4C610.2,115.4,615.7,118.5,622.5,120.8z"></path> </svg> 