<?xml version="1.0" encoding="UTF-8"?> <!-- Generator: Adobe Illustrator 24.0.0, SVG Export Plug-In . SVG Version: 6.00 Build 0) --> <svg xmlns="http://www.w3.org/2000/svg" xmlns:xlink="http://www.w3.org/1999/xlink" version="1.1" id="Layer_1" x="0px" y="0px" viewBox="0 0 400 200" style="enable-background:new 0 0 400 200;" xml:space="preserve"> <style type="text/css"> .st0{fill:#05D804;} .st1{fill:#FFFFFF;} .st2{fill:#0032AF;} </style> <g> <path class="st0" d="M15.6,148.2c1.6-3.3,4.8-5.9,8.1-7.1l5.4-1.6l-4.1,2.8c-2.3,1.5-5.9,4.6-8.1,6.9l-4,4.1 C13,153.4,15.6,148.2,15.6,148.2z"></path> <path class="st0" d="M11.4,132.4c-7.4-20.1-9.2-35.9-5.4-48.2l2-6.6l5.6,11.5c4.6,9.1,5.9,10.7,6.3,7.7c0.3-2.5-1.6-7.4-5.4-13 l-6.1-9.1l7.2-7.4c13.3-13.7,24.7-18.3,46.8-18.9L75.6,48L70,54.9c-5.9,7.1-9.7,7.9-8.1,1.6c0.5-2.3,0.3-2.8-1-1.5 c-1,1-2,4.3-2.1,7.2c-0.2,3-1,6.8-1.6,8.6c-1.3,3-1.2,3,2.8,0.3c2.1-1.5,8.1-3.3,12.8-4.3c4.9-1,10-3,11.5-4.3 c2.1-2.5,2.1-2.6-0.8-1.8c-1.8,0.5-6.6,1.5-10.7,2l-7.4,1.2l3.5-3.8c1.8-2.1,5.3-6.1,7.6-8.6l4.1-4.6l5.1,11.5 c2.8,6.3,5.6,13.3,6.3,15.6c0.8,3.6,1.5,4,5.1,2.5c2.1-0.8,8.7-1.5,14.7-1.5c9.2,0,10.5,0.3,10.5,3.1c0,6.8-1.6,8.1-8.2,7.2 c-16-2.1-25.4,15.6-13.8,26.2c2,1.6,6.6,3,12.2,3.3c8.9,0.5,9.1,0.7,9.1,5.4c0,4.9-0.2,4.9-9.9,5.4c-13.8,0.7-19.6-0.7-25.4-6.1 c-4.3-4-5.9-4.6-9.7-3.5c-2.5,0.8-3.6,1.5-2.6,1.5c1,0.2,1.5,1.8,1.2,4c-0.7,3.3-2.8,4.3-15.8,7.6c-19.9,4.9-37.4,8.2-37.4,6.9 c0-1.6,5.4-9.1,8.1-11c2.1-1.6,2-2.1-1-3.6c-2.8-1.6-3.6-1-6.3,4.9l-3,6.9l-2-6.6c-2-6.8-10.7-21.1-10.7-17.6c0,1,2.1,6.6,4.9,12.3 c4.8,10.2,6.4,17.8,3.5,17.8C14.6,139.4,12.8,136.2,11.4,132.4L11.4,132.4z M48.7,90.8c1.8-1.3,2.8-2.8,2.3-3.5 c-1.3-1.3-7.9,2.3-7.9,4.3C43.1,93.9,45.1,93.6,48.7,90.8z M30,75.1c-1-1.6-1.6-6.3-1.6-10c0-6.6-0.2-6.8-2.5-3.8 c-2.8,3.8-3.1,10.5-0.5,16.1c1.3,3.3,2.3,3.8,4,2.5C30.9,78.6,31.1,77.3,30,75.1z M84.3,78.3c4.1-2,6.4-3.8,5.4-4.3 c-3.1-1.2-20.6,4.3-19.4,6.1C71.8,82.6,76.2,82.1,84.3,78.3z M49.9,70c-0.3-1.3-1-5.9-1.5-10.2c-0.5-5.3-1.3-7.2-2.1-5.8 c-3,4.6-1,20.1,2.5,18.9C49.7,72.5,50.2,71.2,49.9,70z"></path> <path class="st0" d="M314.7,121.4c-4.6-4.6-4.8-5.4-4.8-19.8c0-14.8,0-15-4.1-15c-3.6,0-4.1-0.7-4.1-5.8s0.5-5.8,4.1-5.8 c3.5,0,4.1-0.8,4.1-4.8c0-4.1,0.8-4.9,5.4-5.9c2.8-0.7,6.6-1.5,8.2-1.8c2.3-0.8,2.8,0.2,2.8,5.8v6.8h15.5h15.5l4.1,13.7 c2.3,7.4,4.8,15.6,5.4,18.1c0.5,2.5,1.5,4.1,2,3.6c0.5-0.5,3.3-8.4,5.9-17.8l5.1-16.8l8.9-0.5c5.1-0.3,8.6,0.2,8.2,1 c-0.3,1-5.1,12.5-10.5,25.7l-9.9,24h-8.4h-8.4l-9.7-24.2c-7.2-18.1-9.9-23.1-10.2-19.8c-0.5,4-1.2,4.4-7.1,4.4h-6.4v12 c0,12.8,1.5,16,7.7,16c3.3,0,3.8,0.8,3.8,5.8v5.8h-9.2C320.7,126.2,318.9,125.5,314.7,121.4z"></path> </g> <g> <path class="st1" d="M37.4,127.2c-2.6-1.3-7.4-4.4-10.5-7.1c-4.9-4.1-5.8-6.1-6.4-14.2c-1-11.5,0.2-16,5.6-22.6 c7.9-9.4,21.1-13.2,33.6-9.9c7.4,2,16.1,10.9,17.5,17.8c1.2,5.4,1.6,5.6,10.2,2.5c4.8-2,1.5,1.5-3.8,3.8c-4.4,1.8-5.8,3.3-5.8,6.4 v4.1H60.1c-12.7,0-17.1,0.5-15.8,1.8c2.8,2.8,14,3.6,21.1,1.6c3.5-1,6.6-1.5,6.8-1.3c0.2,0.2,0.8,3.8,1.5,7.9l1.2,7.4l-8.6,2 C55.2,130.1,43.6,130,37.4,127.2z M55.3,90.9c-1.3-3.5-5.3-4.6-9.1-2.6c-5.1,2.8-3.6,4.9,3.5,4.9C54.7,93.3,56,92.8,55.3,90.9z"></path> </g> <g> <path class="st2" d="M34.6,122.7c-15.5-8.1-16-32.1-1-43.1c6.1-4.4,21.9-5.8,28.7-2.3c6.9,3.5,10,7.6,12.2,15.6 c3.3,12.7,2.3,13.5-17.5,13.5c-17.6,0-20.3,1.2-13.2,5.8c3,2,7.2,2.6,15.3,2.3l11-0.3l1.2,4.9c1.3,6.4-0.7,7.1-18.3,6.9 C44,126,39,125.2,34.6,122.7z M59.6,93.6c0-0.7-1.2-3-2.6-4.9c-3.1-4.4-10.7-4.8-14.2-0.7c-5.6,6.4-5.3,6.9,5.9,6.9 C54.7,94.9,59.6,94.4,59.6,93.6z"></path> <path class="st2" d="M91,123.2c-9.1-4.9-9.7-7.1-4.4-16.8c3-5.4,4.9-12,5.4-18.4c1.2-11.7,3-12.8,19.6-12.8 c9.2,0,10.5,0.3,10.5,3.1c0,6.8-1.6,8.1-8.2,7.2c-16-2.1-25.4,15.6-13.8,26.2c2,1.6,6.6,3,12.2,3.3c8.9,0.5,9.1,0.7,9.1,5.4v4.9 l-12.3,0.5C99.4,126.2,95.3,125.5,91,123.2z"></path> <path class="st2" d="M137,123.1c-8.2-4.4-12-10.2-12.7-20.3c-1.3-17.1,9.4-27.7,28.3-27.7c18.3,0,28.8,9.4,28.8,25.5 c0,10.2-4.4,17.8-13.2,22.4C160.5,127.2,144.7,127.2,137,123.1z M161.5,112c4.6-5.9,4.6-16.8,0-22.7c-2.8-3.6-4.6-4.4-9.6-4 c-5.1,0.5-6.4,1.5-9.1,6.8c-5.4,11.2,0.2,24.2,10.4,24.2C156.6,116.3,159.2,114.8,161.5,112z"></path> <path class="st2" d="M199.4,125c-5.4-1.3-8.1-9.6-8.1-24.2c0-14,0-14.2-4.1-14.2c-3.6,0-4.1-0.7-4.1-5.8s0.5-5.8,4.1-5.8 c3.5,0,4.1-0.8,4.1-4.8c0-4.1,0.8-4.9,5.4-5.9c2.8-0.7,6.6-1.5,8.2-1.8c2.3-0.8,2.8,0.2,2.8,5.8c0,6.6,0.2,6.8,5.8,6.8 c5.4,0,5.8,0.3,5.8,5.8s-0.3,5.8-5.8,5.8h-5.9l0.5,13.7l0.5,13.5l5.4,0.5c4.8,0.5,5.3,1,5.3,6.3v5.6l-8.6-0.2 C206,125.9,200.9,125.5,199.4,125z"></path> <path class="st2" d="M236.6,123.9c-14.3-6.6-18.9-25.7-9.6-38.7c7.1-9.6,26.5-13.3,36.9-7.2c5.8,3.5,11.4,14.2,11.4,21.6v5.3h-18.9 c-20.3,0-22.6,1.2-15.5,7.6c2.8,2.5,5.9,3.1,16.3,3.1c12.5-0.2,13,0,13.7,4.1c0.5,2.3,0.5,4.4,0,4.9 C268.9,126.5,241.2,126,236.6,123.9L236.6,123.9z M259.3,91.6c-1-4-6.6-8.2-10.9-8.2c-3.1,0-11,6.9-11,9.9c0,1,4.6,1.6,11.4,1.6 C259.5,94.9,260.1,94.7,259.3,91.6L259.3,91.6z"></path> <path class="st2" d="M280.2,89.1v-37h8.2h8.2v37v37h-8.2h-8.2V89.1z"></path> <path class="st2" d="M79.4,96.7c1.3-0.8,4.3-2,6.6-2.5c4-1.2,4-1,1,1.3c-1.8,1.5-4.8,2.6-6.6,2.6C77.5,98,77.4,97.9,79.4,96.7z"></path> </g> </svg> 