<?xml version="1.0" encoding="UTF-8"?> <svg xmlns="http://www.w3.org/2000/svg" xmlns:xlink="http://www.w3.org/1999/xlink" version="1.1" id="Capa_1" x="0px" y="0px" width="200px" height="52px" viewBox="0 0 2000 599" style="enable-background:new 0 0 2000 599;" xml:space="preserve"> <style type="text/css"> .st0{fill:#FFFFFF;} .st1{fill:#514C4C;} </style> <g> <g> <path class="st0" d="M121.9,156.9c-13.8,0-26.7-3.3-38.3-9.7c-12.2-6.8-21.8-16.4-28.7-28.6c-6.6-11.7-10-24.8-10.1-38.9 c0-4.2,0.3-8.6,0.9-12.9c2-15.3,7.6-29.2,16.6-41.5C71,13.4,82.2,4,95.5-2.7c13.2-6.6,27.4-10,42.3-10.2c0.2,0,0.4,0,0.6,0 c9.9,0,19.3,1.7,27.7,5c7.9,3.1,15.3,7.6,22.1,13.4c9.3,7.9,14.7,19.3,14.8,31.3c0,0.1,0,0.1,0,0.2c0,8.8-2.8,17.4-8,24.7 c2,4.8,3,10,3.1,15.4c0,0.1,0,0.2,0,0.3c0,3.6-0.5,6.5-0.9,8.4c0,0.1-0.1,0.3-0.1,0.4l-5.9,28.5c-1.2,5.8-3.4,11.2-6.6,16 c0,0,0,0,0,0c-3.7,5.4-8.7,10.1-14.5,13.4c-14.4,8.3-30.4,12.6-47.6,12.7C122.3,156.9,122.1,156.9,121.9,156.9z"></path> <path class="st0" d="M170.4,155.3c-23.2,0-41.5-18-41.7-40.9c0-0.1,0-0.2,0-0.4c0-2.7,0.3-5.4,0.8-8.3c0-0.2,0.1-0.3,0.1-0.5 l16.9-82.8c0.1-0.3,0.1-0.6,0.2-0.9c1.8-8,5.9-15.4,11.9-21.2c0.1-0.1,0.2-0.2,0.4-0.3c7.8-7.5,18.1-11.7,29-11.9 c0.1,0,38.2-0.3,38.2-0.3c0.2,0,0.3,0,0.5,0c12.1,0,23.2,3.1,33,9.1c9.6,5.9,17.4,14.3,22.5,24.2c4.8,9.3,7.3,19.4,7.4,30.1 c0,4.2-0.3,8.2-0.9,12.1c-1.8,11-6.1,21.1-12.7,29.9l2.3,6.8c0.3,0.9,0.6,1.8,0.8,2.7c0.8,3.3,1.3,6.4,1.3,9.6c0,0.2,0,0.4,0,0.7 c0.1,11.1-4.2,21.5-12,29.4c-7.8,7.9-18.2,12.2-29.4,12.3c0,0-19.7,0.1-19.8,0.1c-5.3,0-10.5-1-15.3-2.8c-4.8,1.9-10.1,3-15.6,3 C188.4,155.1,170.5,155.3,170.4,155.3z"></path> <path class="st0" d="M288.6,155.7c-10.3,0-20.2-1.7-29.3-5.1c-11.9-4.4-22.1-12-29.6-22c-8-10.7-12.3-24.1-12.5-38.7 c0-5.9,0.6-12.1,1.9-18.3l10.1-49.7c0-0.2,0.1-0.3,0.1-0.5c1.9-8.6,6.2-16.3,12.6-22.3c0,0,0,0,0.1-0.1c7.8-7.3,18-11.4,28.7-11.5 l18.4-0.1c5.9,0,11.6,1.2,16.9,3.4c5.4-2.4,11.2-3.6,17.1-3.7c0,0,17.4-0.1,17.5-0.1c10.8,0,21,4,28.7,11.2v0 c8.3,7.7,13.1,18.7,13.2,30.1c0,0.1,0,0.2,0,0.3c0,3-0.3,5.9-0.9,8.7c0,0-10.1,49.8-10.1,49.9c-4.7,22.6-14.7,39.9-29.6,51.5 c-14.4,11.2-32,16.9-52.6,17.1C289.1,155.7,288.9,155.7,288.6,155.7z"></path> <path class="st0" d="M344,154c-23.2,0-41.5-18-41.7-40.9c0-0.1,0-0.2,0-0.4c0-2.7,0.3-5.4,0.8-8.3c0-0.2,0.1-0.3,0.1-0.5 l16.9-82.8c0.1-0.5,0.2-0.9,0.3-1.4c2.2-9.1,7.2-17.1,14.3-23.1c7.6-6.3,17.2-9.8,27-9.9l37.3-0.3c0.2,0,0.3,0,0.5,0 c12.2,0,23.8,3.4,33.5,9.8c9.3,6.1,16.8,14.7,21.6,24.8c0,0,0,0,0,0.1c4.3,8.9,6.5,18.6,6.5,28.7c0,3.5-0.2,7.1-0.8,10.7 c-1.7,11.4-5.9,22-12.5,31.4c-6.6,9.4-15,17-25.1,22.4c-6.3,3.4-13,5.8-19.9,7.2c-4.8,18.9-21.4,32.1-41.2,32.3 C361.9,153.8,344.1,154,344,154z"></path> <path class="st0" d="M463.1,154.3c-13.7,0-26.5-3.2-38-9.5c-12-6.6-21.6-16-28.5-27.8c0,0,0,0,0,0c-6.6-11.5-10.1-24.3-10.2-38.1 c0-5.6,0.5-11.1,1.5-16.4c2.8-15.1,8.9-28.7,18.1-40.6c9-11.6,20.1-20.7,33-27.2c0,0,0,0,0,0c13.1-6.5,27-9.9,41.3-10 c0.2,0,0.4,0,0.7,0c13.8,0,26.6,3.2,38.1,9.5c12.1,6.7,21.7,16.1,28.5,28.1c6.5,11.4,9.8,24.2,9.9,37.9c0,5.4-0.4,10.7-1.4,16 c0,0.1,0,0.2,0,0.3c-2.8,14.9-8.8,28.5-18,40.4c-8.9,11.5-20,20.7-32.8,27.3c-13.1,6.7-27.2,10.1-41.7,10.3 C463.5,154.3,463.3,154.3,463.1,154.3z"></path> <path class="st1" d="M133.5,94.2l3.2-15.7c0.3-1.7,1.3-2.6,3.1-2.6l16.5-0.1c0.6,0,1.1,0.1,1.5,0.4c0.4,0.3,0.7,0.7,0.7,1.4 c0,0.1,0,0.4-0.1,0.8l-5.9,28.6c-0.1,0.6-0.3,1.2-0.6,1.6c-0.3,0.5-0.8,0.8-1.4,1.2c-8.4,4.9-17.8,7.4-28.2,7.5 c-7.2,0.1-13.7-1.5-19.4-4.7c-5.7-3.2-10.2-7.7-13.5-13.5c-3.3-5.8-4.9-12.4-5-19.7c0-2.3,0.2-4.7,0.5-7.2 c1.1-8.7,4.2-16.5,9.3-23.3c5.1-6.9,11.4-12.3,19.1-16.1c7.7-3.9,16-5.9,24.8-5.9c5.1,0,9.6,0.7,13.5,2.2c3.9,1.5,7.5,3.8,11,6.8 c0.6,0.5,0.9,1,0.9,1.5c0,0.5-0.3,1.1-0.8,1.8l-11.4,13.3c-0.7,0.7-1.3,1.1-2.1,1.1c-0.6,0-1.1-0.2-1.5-0.6 c-1.6-1.4-3.5-2.5-5.6-3.3c-2.1-0.8-4.4-1.2-6.9-1.2c-4.5,0-8.6,1.1-12.5,3.2c-3.8,2.1-7.1,4.9-9.6,8.5c-2.6,3.6-4.3,7.5-5.2,11.9 c-0.4,2-0.6,3.9-0.6,5.5c0,3.4,0.8,6.5,2.2,9.3c1.5,2.7,3.5,4.9,6.2,6.4c2.7,1.6,5.8,2.3,9.4,2.3C127.9,95.4,130.8,95,133.5,94.2z "></path> <path class="st1" d="M186.4,28.5c0.6-0.5,1.2-0.8,2.1-0.8l38-0.3c4.8,0,8.9,1,12.5,3.2c3.6,2.2,6.3,5.1,8.2,8.8 c1.9,3.7,2.9,7.7,2.9,12.1c0,1.8-0.1,3.6-0.4,5.2c-0.9,5.4-3.1,10.2-6.6,14.5c-3.5,4.2-7.8,7.5-12.8,9.9l10.5,31.5 c0.1,0.3,0.1,0.6,0.1,0.7c0,0.5-0.2,1-0.5,1.4c-0.4,0.4-0.9,0.6-1.5,0.6l-19.5,0.1c-0.8,0-1.4-0.2-1.8-0.5c-0.4-0.3-0.7-1-1-2 L208,86.2l-11.4,0.1l-5.5,26.7c-0.4,1.7-1.4,2.6-3.1,2.6l-17.7,0.1c-1.4,0-2.2-0.6-2.2-1.7c0-0.2,0-0.5,0.1-0.9l16.9-82.8 C185.5,29.7,185.8,29,186.4,28.5z M200.6,67.3l13.7-0.1c2,0,3.9-0.5,5.7-1.6c1.8-1,3.3-2.4,4.6-4c1.2-1.7,2-3.4,2.4-5.2 c0.2-0.7,0.2-1.5,0.2-2.4c0-2.3-0.7-4.3-2.1-5.9c-1.4-1.6-3.3-2.4-5.8-2.4l-14.4,0.1L200.6,67.3z"></path> <path class="st1" d="M280.2,84.7c0,3.8,1.1,6.6,3.3,8.4c2.2,1.8,5,2.7,8.4,2.7c2.7,0,5.3-0.7,7.7-1.9c2.4-1.3,4.5-3.1,6.3-5.6 c1.8-2.4,3-5.3,3.8-8.7l10.3-50.2c0.2-0.7,0.5-1.4,1.2-1.9c0.6-0.5,1.3-0.8,2.2-0.8l17.3-0.1c0.8,0,1.4,0.2,1.8,0.5 c0.4,0.4,0.6,0.9,0.6,1.5c0,0.2,0,0.5-0.1,0.6l-10.2,49.9c-2.7,13.2-7.8,22.6-15.2,28.3c-7.4,5.7-16.9,8.6-28.6,8.7 c-5.8,0-11.1-0.8-15.9-2.6c-4.8-1.8-8.7-4.7-11.7-8.7c-3-4-4.5-9.1-4.6-15.3c0-3.1,0.3-6.4,1.1-9.9l10.2-49.9 c0.2-0.7,0.5-1.4,1.1-1.9c0.6-0.5,1.2-0.8,1.9-0.8l18.1-0.1c1.4,0,2.1,0.5,2.1,1.5c0,0.4-0.1,0.7-0.2,1.1l-10.3,50.2 C280.4,81.6,280.2,83.2,280.2,84.7z"></path> <path class="st1" d="M360.1,27.1c0.6-0.5,1.2-0.7,2-0.7l37.3-0.3c4.6,0,8.6,1.1,12,3.3c3.4,2.2,5.9,5.2,7.7,8.8 c1.8,3.7,2.6,7.6,2.7,11.9c0,1.5-0.1,3.1-0.3,4.6c-0.8,5.3-2.7,10.2-5.7,14.6c-3,4.4-6.9,7.8-11.5,10.3c-4.6,2.5-9.6,3.8-14.9,3.8 l-18.7,0.1l-5.8,28.1c-0.4,1.7-1.4,2.6-3.2,2.6l-17.6,0.1c-1.4,0-2.2-0.6-2.2-1.7c0-0.2,0-0.5,0.1-0.9L358.9,29 C359.1,28.2,359.5,27.6,360.1,27.1z M374.4,64.8l14-0.1c1.8,0,3.5-0.5,5.1-1.4c1.6-0.9,2.9-2.2,3.9-3.7c1.1-1.5,1.7-3.1,2.1-4.8 c0.2-1,0.2-1.7,0.2-2.2c0-2.1-0.7-3.9-1.9-5.4c-1.3-1.5-3-2.2-5.3-2.2l-14,0.1L374.4,64.8z"></path> <path class="st1" d="M437.4,46.1c5.3-6.9,11.8-12.3,19.5-16.1c7.7-3.8,15.6-5.8,23.9-5.8c7.2-0.1,13.7,1.5,19.3,4.6 s10,7.5,13.2,13s4.7,11.8,4.8,18.7c0,3-0.2,5.9-0.7,8.7c-1.6,8.7-5.1,16.5-10.4,23.4c-5.3,6.9-11.8,12.3-19.5,16.2 s-15.6,5.9-24,5.9c-7.1,0.1-13.6-1.5-19.2-4.6c-5.7-3.1-10.1-7.4-13.3-12.9c-3.2-5.5-4.8-11.7-4.8-18.5c0-3,0.2-6,0.8-8.8 C428.5,60.9,432,53,437.4,46.1z M449.1,75c0,3.5,0.8,6.5,2.3,9.3c1.5,2.7,3.6,4.9,6.4,6.4c2.7,1.5,5.9,2.3,9.6,2.3 c4.3,0,8.3-1.1,12.2-3.2c3.8-2.1,7.1-5,9.8-8.6c2.7-3.6,4.5-7.6,5.3-11.9c0.4-2.1,0.6-3.9,0.6-5.4c0-3.4-0.8-6.5-2.3-9.2 c-1.5-2.7-3.6-4.9-6.4-6.4c-2.7-1.5-5.9-2.3-9.6-2.3c-4.3,0-8.3,1.1-12.2,3.2c-3.8,2.1-7.1,5-9.8,8.6c-2.7,3.6-4.5,7.6-5.3,11.9 C449.2,71.7,449,73.5,449.1,75z"></path> </g> <g> <path class="st0" d="M131.8,393.2c-17.1,0-33.4-2.6-48.3-7.7c-15.8-5.4-29.9-13.5-41.7-24.1C17.6,339.9,4.2,309,3.9,274.7 C3.6,233.6,18.4,196,45.6,169c27-26.8,64.6-41.7,105.9-42.1c22.6-0.2,43.3,4.1,61.5,12.8c20.2,9.6,36.2,24.4,46.5,42.7 c9.3,16.7,5.4,37.7-9.4,49.9l-37.9,31.1l26.4,25.8c14.4,14.1,16,36.7,3.6,52.6c-14.1,18.1-31,31.5-50.4,40 c-17.2,7.5-36.5,11.2-58.8,11.4C132.6,393.2,132.2,393.2,131.8,393.2z M141.9,270.3C141.9,270.3,141.9,270.3,141.9,270.3 L141.9,270.3z M148.4,254.9c-1.9,0.1-2.5,0.6-3.2,1.4c-0.5,0.6-1.9,2.5-2.7,6.1c0.8-0.8,1.7-1.8,2.8-3.2c1.1-1.4,2.2-2.6,3.4-3.8 C148.7,255.3,148.5,255.1,148.4,254.9z"></path> <path class="st0" d="M208.3,388.6c-14.2,0-27.4-7.6-34.4-20c-7.1-12.5-6.9-27.8,0.6-40.1l108.8-179.6c7.1-11.8,19.8-19,33.6-19.1 c0,0,57.5-0.4,57.6-0.4c18.3,0,34.3,12.6,38.5,30.5l42.3,178.5c2.8,11.7,0.1,24.1-7.4,33.6c-7.4,9.5-18.8,15.1-30.8,15.2 c0,0-58.2,0.4-58.3,0.4c-18.5,0-34.6-12.9-38.6-30.9l-9.6,0.1l-5.9,10.8c-6.9,12.6-20.1,20.5-34.5,20.6 C270.1,388.1,208.4,388.6,208.3,388.6z"></path> <path class="st0" d="M426.1,386.9c-11.7,0-22.8-5.2-30.3-14.2c-7.6-9.1-10.7-21-8.6-32.6l33.2-179c3.5-18.6,19.7-32.2,38.6-32.4 l91.6-0.7c0.5,0,1,0,1.5,0c28.1,0,51.1,6.1,68.3,18.3c20.7,14.5,32.1,37,32.3,63.2c0.1,17.3-4.6,33.7-13.8,47.6 c4.3,9.7,6.6,20.5,6.7,31.7c0.2,32.3-14.5,59.6-41.6,77.1c-20.3,13.1-47.3,20.1-78,20.4C526.2,386.2,426.2,386.9,426.1,386.9z"></path> <path class="st0" d="M617,385.5c-11.7,0-22.8-5.2-30.3-14.2c-7.6-9.1-10.7-21-8.6-32.6l33.2-179c3.5-18.6,19.7-32.2,38.6-32.4 c0,0,58.5-0.4,58.6-0.4c11.7,0,22.8,5.2,30.3,14.2c7.6,9.1,10.7,21,8.6,32.6l-15.7,85.1c0,0,30.3-0.2,30.4-0.2 c11.7,0,22.8,5.2,30.4,14.2c7.6,9.1,10.7,21.1,8.5,32.7l-8.8,46.8c-3.5,18.6-19.7,32.1-38.6,32.3 C753.5,384.5,617.1,385.5,617,385.5z"></path> <path class="st0" d="M769.3,384.3c-11.7,0-22.8-5.2-30.3-14.2c-7.6-9.1-10.7-21-8.6-32.6l33.2-179c3.5-18.6,19.7-32.2,38.6-32.4 c0,0,140.7-1.1,140.8-1.1c11.7,0,22.8,5.2,30.4,14.2c7.6,9.1,10.7,21.1,8.5,32.7l-8.5,45.5c-1.8,9.7-7.1,18-14.4,23.8l-6.1,32.7 c6.9,8.9,9.7,20.4,7.6,31.5l-8.6,45.5c-3.5,18.6-19.7,32.1-38.6,32.3C913.3,383.3,769.4,384.3,769.3,384.3z"></path> <path class="st0" d="M993,382.7c-18.5,0-34.6-12.9-38.6-31l-39.9-178.5c-2.6-11.7,0.2-23.9,7.6-33.3c7.4-9.4,18.7-14.9,30.7-14.9 c0,0,60-0.5,60.1-0.5c18.7,0,34.8,13,38.7,31.3l1,4.7l10.1-17.2c7.1-12,19.9-19.4,33.8-19.5c0,0,60-0.5,60.1-0.5 c14.2,0,27.2,7.6,34.3,19.9c7.1,12.4,7,27.6-0.2,39.9l-106.3,179.6c-7.1,11.9-19.9,19.3-33.8,19.4 C1050.6,382.2,993.1,382.7,993,382.7z"></path> <path class="st0" d="M1129,381.6c-11.7,0-22.8-5.2-30.3-14.2c-7.6-9.1-10.7-21-8.6-32.6l33.2-179c3.5-18.6,19.7-32.2,38.6-32.4 c0,0,58.5-0.4,58.6-0.4c11.7,0,22.8,5.2,30.3,14.2c7.6,9.1,10.7,21,8.6,32.6l-33.2,179c-3.5,18.6-19.7,32.2-38.6,32.4 C1187.6,381.2,1129.1,381.6,1129,381.6z"></path> <path class="st0" d="M1282.7,384.6c-36,0-70.4-8.6-94.5-23.6c-17.3-10.8-23.6-32.9-14.5-51.2l22.1-44.6c0.7-1.4,1.5-2.7,2.3-4 c-5.1-10.7-7.8-22.5-7.8-35.3c-0.2-32.3,13.2-60.8,37.9-80.3c22.3-17.7,52.8-27.1,88.3-27.4c33.6-0.3,63.2,6.9,85.7,20.6 c17.2,10.5,23.8,32.3,15.2,50.6l-20.2,43.2c0.7,1.1,1.4,2.1,2.1,3.2c7.4,12.2,11.2,26.2,11.4,41.5c0.2,31.9-13.4,60.3-38.3,79.9 c-22.4,17.6-52.8,27-87.9,27.3C1283.8,384.6,1283.3,384.6,1282.7,384.6z"></path> <path class="st0" d="M1377.6,379.8c-11.7,0-22.8-5.2-30.3-14.2c-7.6-9.1-10.7-21-8.6-32.6l33.2-179c3.5-18.6,19.7-32.2,38.6-32.4 c0,0,58.5-0.4,58.6-0.4c11.7,0,22.8,5.2,30.3,14.2c7.6,9.1,10.7,21,8.6,32.6l-33.2,179c-3.5,18.6-19.7,32.2-38.6,32.4 C1436.2,379.3,1377.7,379.8,1377.6,379.8z"></path> <path class="st0" d="M1560.4,382.5c-17.6,0-34.2-2.7-49.3-8.1c-15.6-5.6-29.4-13.8-41-24.5c-23.3-21.5-36.2-52.1-36.5-85.9 c-0.3-41.2,14.5-78.7,41.8-105.8c15.3-15.2,34-26.6,54.9-33.6c1.2-1.9,2.5-3.7,4.1-5.4l36.7-41.1c7.4-8.3,18.1-13.1,29.2-13.2 c0,0,54.8-0.4,54.9-0.4c16.8,0,31.8,10.6,37.4,26.5c5.6,16,0.4,33.8-13,44.2l-12,9.4c1.7,1.4,3.4,2.9,5,4.4 c23.3,21.5,36.2,52,36.5,85.9c0.3,41.2-14.5,78.7-41.8,105.8c-26.9,26.7-64.4,41.6-105.6,41.9 C1561.2,382.5,1560.8,382.5,1560.4,382.5z M1565,254.5"></path> <path class="st0" d="M1667.7,377.6c-11.7,0-22.8-5.2-30.3-14.2c-7.6-9.1-10.7-21-8.6-32.6l33.2-179c3.5-18.6,19.7-32.2,38.6-32.4 c0,0,48.1-0.4,48.2-0.4c13.1,0,25.3,6.5,32.7,17.2c7.1-10.7,19.2-17.6,32.7-17.7c0,0,57-0.4,57.1-0.4c11.7,0,22.8,5.2,30.3,14.2 c7.6,9.1,10.7,21,8.6,32.6l-33.2,179c-3.5,18.6-19.7,32.2-38.6,32.4c0,0-48.1,0.4-48.2,0.4c-13.1,0-25.3-6.5-32.7-17.2 c-7.1,10.7-19.2,17.6-32.7,17.7C1724.8,377.2,1667.8,377.6,1667.7,377.6z"></path> <path class="st0" d="M1925.1,216.1c-10.1,0-19.7-2-28.6-6c-23.3-10.3-38.4-30-42.5-55.4c0,0,0,0,0,0c-0.2-1.4-0.4-2.6-0.5-3.4 l0-0.3c-0.2-1.5-0.3-2.9-0.3-4.4l0-3.4c0-1.7,0.1-3.4,0.3-5.1c0.6-7.3,2.4-14.5,5.3-21.4c5.5-13.2,14.7-24.3,26.5-32.2 c10.9-7.2,23.6-11.4,36.7-12c1.1,0,2.2-0.1,3.2-0.1c10.8,0,21.3,2.4,31.3,7.2c23.8,11.5,39.2,35.1,40.4,61.5 c0.5,12.4-2.1,24.5-7.9,35.8c-5.9,11.5-14.8,21.2-25.9,28.1c-11.1,6.9-23.8,10.6-36.7,10.8 C1925.9,216.1,1925.5,216.1,1925.1,216.1z"></path> <path class="st0" d="M1911,200.1c-10.4,0-20.4-4.1-27.8-11.4c-7.5-7.4-11.7-17.4-11.8-27.9l-0.3-33.6 c-0.1-19.3,13.6-35.8,32.6-39.3l0.2,0c2.3-0.4,4.6-0.6,6.9-0.6c1.4,0,2.9,0,4.3,0c2.6,0,5.3,0,7.9,0c1.1,0,2.1,0,3.2,0 c6.5,0,12.9,1.2,19,3.4c17.7,6.5,29.6,22.3,31.1,41.2c0.3,3.3,0.2,6.5-0.1,9.6c0,0,0.4,0.8,0.4,0.9c0.1,0.2,0.2,0.4,0.3,0.6 c5.7,11.7,5.3,25.6-1.2,36.9c-6.5,11.4-18.2,18.8-31.3,19.9c-0.8,0.1-1.9,0.1-3.3,0.2c0,0-2,0-2,0c-2,0-4.1,0-6.1,0.1 c-0.2,0-0.4,0-0.6,0c-2.1,0-4.3-0.2-6.3-0.5c-2.1,0.3-4.2,0.5-6.3,0.5C1920,200,1911.1,200.1,1911,200.1z"></path> <path class="st1" d="M43.5,274.4C43.1,211.5,87.9,167,151.9,166.5c33.1-0.2,60.3,12.3,73.1,35.2L183.2,236 c-7.5-13.2-18.9-20.8-34.7-20.7c-27.4,0.2-46.5,22.8-46.3,54.8c0.2,20.9,14.3,34.9,35.8,34.7c13.6-0.1,26.6-6.1,38.4-21l34.6,33.7 c-20.8,26.7-46.4,35.9-78.2,36.1C79.2,354,43.9,321.9,43.5,274.4"></path> <path class="st1" d="M352.8,316.7l-65.9,0.5l-17,31.3l-61.5,0.5l108.8-179.6l57.3-0.4l42.3,178.5l-58,0.4L352.8,316.7z M344.3,273.4l-8.7-45.7l-25.1,45.9L344.3,273.4z"></path> <path class="st1" d="M606.2,289c0.3,39.6-36.1,57.2-80.3,57.6l-99.8,0.8l33.2-179l91.6-0.7c41-0.3,62.1,15.1,62.3,42.2 c0.2,20.7-11.6,35.9-30.5,44.4C597.6,260.7,606,272.7,606.2,289 M548.4,287.9c-0.1-7.9-6.8-11.7-14.4-11.6l-37.5,0.3l-5.2,28.1 l37.5-0.3C540.1,304.3,548.5,298.9,548.4,287.9 M508.8,210.1l-5,26.6l29.6-0.2c13.3-0.1,19.2-6,19.1-15.7 c-0.1-7.4-5.8-10.9-15.4-10.9L508.8,210.1z"></path> <polygon class="st1" points="650.2,166.9 708.4,166.4 684,298.7 762,298.1 753.2,344.9 617,345.9 "></polygon> <polygon class="st1" points="851.2,210.8 847.4,231.8 920.5,231.2 912.4,274.7 839.1,275.3 834.9,298.8 921.5,298.1 913,343.7 769.3,344.8 802.5,165.7 943,164.7 934.4,210.2 "></polygon> <polygon class="st1" points="1156.6,163.1 1050.3,342.6 993,343.1 953.1,164.6 1012.9,164.1 1035.2,268.2 1096.8,163.5 "></polygon> <polygon class="st1" points="1162.2,163 1220.5,162.6 1187.3,341.6 1129,342.1 "></polygon> <path class="st1" d="M1209.2,327.4l22.1-44.6c19.3,11.4,39.1,16.3,58.4,16.2c15.1-0.1,22.9-4.3,22.9-10.6 c-0.1-18.9-82.3-7.3-82.7-62.7c-0.3-40.6,32.3-67.4,86.9-67.8c25.7-0.2,48.7,5,64.8,14.8l-20.7,44.1 c-13.9-8.8-30.7-13.1-47.5-12.9c-17,0.1-25.4,6.1-25.3,12.2c0.1,19.7,82.5,6.5,82.9,61.7c0.3,39.8-33.1,66.9-86.9,67.3 C1253.3,345.2,1225.8,337.8,1209.2,327.4"></path> <polygon class="st1" points="1410.9,161.1 1469.1,160.7 1435.9,339.7 1377.6,340.2 "></polygon> <path class="st1" d="M1473.1,263.6c-0.5-63.1,44.6-107.3,108.1-107.8c53.8-0.4,87.9,32.3,88.2,79.3 c0.5,63.1-44.6,107.4-108.1,107.8C1507.5,343.3,1473.5,310.6,1473.1,263.6 M1610.7,239.1c-0.2-20.7-12.8-34.6-34.1-34.5 c-28.6,0.2-45,25.6-44.8,55c0.2,20.7,12.9,34.6,34.1,34.5C1594.6,293.9,1610.9,268.4,1610.7,239.1 M1600.6,104.3l54.6-0.4 l-52.8,41.3l-38.5,0.3L1600.6,104.3z"></path> <polygon class="st1" points="1871.3,157.7 1838.1,336.7 1790.2,337.1 1739.9,254.2 1724.5,337.6 1667.7,338 1700.9,159 1748.8,158.6 1799.1,241.5 1814.5,158.1 "></polygon> <path class="st1" d="M1939.1,115.4c-4.9-2.4-10-3.5-15.5-3.3c-11.5,0.5-23.2,7.3-28.4,19.8c-1.4,3.4-2.2,6.9-2.4,10.5 c0,0.1,0,0.3-0.1,0.4l0,3.4c0.1,0.7,0.2,1.5,0.3,2.2c1.9,12,8.3,20.6,19.4,25.5c4.2,1.8,8.6,2.6,13.1,2.6c11.7-0.2,22.7-7,28-17.4 c2.6-5.1,3.9-10.4,3.6-16.1C1956.7,132,1950.5,120.9,1939.1,115.4 M1925.1,170c-14.1,0.1-25.7-11.4-25.8-25.5 c-0.1-14.1,11.4-25.7,25.5-25.8c14.1-0.1,25.7,11.4,25.8,25.5C1950.8,158.3,1939.3,169.9,1925.1,170"></path> <path class="st1" d="M1936.6,150.8c-0.5-1-1.1-2-1.8-3c-1-1.4-2.2-2.6-3.9-3.1c-0.1,0-0.2-0.1-0.3-0.1c0.2-0.1,0.4-0.1,0.5-0.2 c2.1-0.8,3.8-2,4.9-4c0.9-1.7,1.1-3.6,0.9-5.5c-0.3-3.5-1.9-5.9-5.3-7.1c-1.8-0.7-3.7-1-5.6-1c-5,0-10,0-15,0l-0.2,0l0.3,33.6 l8.7-0.1l-0.1-12.6c1.2,0,2.5-0.1,3.6,0c1.4,0.1,2.5,0.8,3.3,1.9c0.5,0.6,0.9,1.3,1.3,2c1.4,2.7,2.8,5.5,4.1,8.2 c0.2,0.3,0.3,0.4,0.7,0.4c2.8,0,5.5-0.1,8.3-0.1c0.1,0,0.3,0,0.5,0c-0.1-0.2-0.1-0.3-0.2-0.4 C1939.7,156.9,1938.2,153.8,1936.6,150.8 M1928.1,138.7c-0.2,1.5-1.2,2.4-2.7,2.7c-1.9,0.4-3.9,0.2-5.9,0.3l-0.1-8.6 c0,0,0.1,0,0.1,0c1.7,0,3.4,0,5,0c0.2,0,0.3,0,0.5,0.1c2,0.4,2.9,1.3,3.1,3.3C1928.3,137.2,1928.3,138,1928.1,138.7"></path> </g> <g> <g> <g> <path class="st0" d="M375.7,598.8c-24.4,0-43.4-18.7-43.4-42.6c0-3.6,0.4-7,1.2-10.3l5.5-24.4c1.3-5.8,3.6-11.2,6.8-16 c2.4-3.6,5.4-7,8.9-10l31.9-28.5c-15.3-6.5-25.7-21.4-25.7-39.2c0-3.6,0.4-7,1.2-10.4l6.7-29.6c2.4-10.5,8-19.4,16.2-25.8 c8-6.2,17.7-9.5,28.1-9.5h139.7c13.1,0,22.3,5.1,27.6,9.4c10.1,8.1,15.9,20.2,15.9,33.3c0,3.6-0.4,7-1.2,10.3l-5.7,24.7 c0,0.2-0.1,0.4-0.1,0.6c-2.1,8.4-6.7,16.2-13.4,22.5c-0.2,0.2-0.5,0.4-0.7,0.7l-33.9,30.4c15.6,6.4,26.4,21.4,26.4,39.4 c0,3.5-0.4,6.9-1.1,10.1l-6.6,29.4c-2.2,10.5-8,19.7-16.2,26.1c-7.9,6.1-17.6,9.4-28,9.4H375.7z"></path> <path class="st0" d="M668,598.7c-19,0-34.9-10.6-41.9-26.9h-9.9l-1.4,2.3c-8.9,15.5-24.7,24.7-42.4,24.7h-36.7 c-8.5,0-16.3-2.1-23.2-6.3c-12.5-7.6-19.9-20.8-19.9-35.4c0-8.3,2.5-16.4,7.3-24l99.9-157c4.4-7.1,10.2-12.7,17.1-16.8 c7.5-4.4,16.1-6.7,25-6.7H671c22.5,0,40.9,15.4,44.9,37.5l29.5,156.5c0.6,2.9,0.9,6,0.9,9.1c0,13.1-5.7,25.3-15.7,33.4 c-5.5,4.5-14.9,9.8-28.3,9.8H668z"></path> <path class="st0" d="M888.4,598.7c-8.8,0-17.1-2.4-24.1-6.8c-5.6,3.5-13.7,6.8-24.4,6.8h-29.5c-8.9,0-17.2-2.4-24.2-6.8 c-7.1,4.4-15.4,6.8-24.3,6.8H728c-12.1,0-20.8-4.2-25.9-7.8c-11.4-7.9-18.3-21-18.3-35c0-5.3,0.9-10.5,2.8-15.4l52.8-156.1 c3-8.9,8.3-16.6,15.3-22.2c8.1-6.4,18-9.8,28.7-9.8h40.4c15.6,0,29.5,7.7,37.1,20.5c0,0,0.1,0.2,0.2,0.3 c2.6-3.8,5.2-6.9,8.2-9.6l0,0c8-7.2,18.7-11.2,30-11.2h42.9c12.1,0,23.1,4.5,31.2,12.6c8,8.1,12.4,19,12.4,30.7 c0,1.3-0.1,2.5-0.2,3.8l-0.1,1.3c0,0.2,0,0.4-0.1,0.7l-17.6,157c-1.4,12.7-7.7,23.8-17.8,31.3c0,0,0,0-0.1,0 c-7.9,5.8-17.5,8.9-27.7,8.9H888.4z"></path> <path class="st0" d="M1041.7,601c-20.8,0-40.1-4.6-57.2-13.6c-17.8-9.4-31.9-22.6-41.9-39.3c-10.1-16.7-15.2-35.5-15.2-55.7 c0-8.5,0.9-16.8,2.6-24.8c4.7-23.2,14.7-44.1,29.7-62.2c14.6-17.5,32.5-31.3,53.2-40.9c20.7-9.6,42.5-14.5,64.9-14.5 c21,0,40.3,4.6,57.4,13.6c17.8,9.5,31.9,22.8,41.9,39.8c9.9,16.7,14.9,35.4,14.9,55.7c0,8.2-0.8,16.3-2.4,24.3 c0,0.1,0,0.1,0,0.2c-4.7,22.9-14.7,43.7-29.7,61.8c-14.5,17.5-32.3,31.3-53,41C1086.3,596,1064.3,601,1041.7,601z M1064.5,471.5 c-0.4,0.2-0.8,0.3-1.2,0.5c-2.8,1.4-5.1,3.3-7,5.7c-0.5,0.6-0.9,1.1-1.2,1.7c0.4-0.2,0.8-0.3,1.2-0.5c2.8-1.4,5.1-3.3,7-5.7 C1063.8,472.7,1064.2,472.1,1064.5,471.5z"></path> <path class="st0" d="M1264.8,598.7c-14.5,0-24.2-5.9-29.8-10.9l0,0c-0.5-0.4-0.9-0.9-1.4-1.3c-8.2,7.7-19.3,12.2-31.5,12.2 h-35.6c-12.8,0-21.8-4.8-27.1-8.8c-10.7-8.1-16.8-20.5-16.8-34c0-3.2,0.4-6.3,1.1-9.9c0-0.2,0.1-0.3,0.1-0.5l35.3-157.1 c0.1-0.3,0.1-0.6,0.2-0.8c2.2-8.9,7-17,13.9-23.3c0,0,0,0,0,0c8.4-7.6,19.3-11.8,30.8-11.8h76.5c16.7,0,32,4,45.2,11.9 c13.3,7.9,23.8,18.7,31,32.1c7,12.9,10.5,27,10.5,41.9c0,5.9-0.5,11.7-1.5,17.1c-3.2,17.5-11,33.2-23,46.6 c-2.5,2.8-5.2,5.5-8,8.1l10.7,31.3c0.3,0.9,0.6,1.8,0.8,2.7c0.7,2.5,1.6,6.5,1.6,11.5c0,12-4.8,23.1-13.5,31.4c0,0,0,0-0.1,0.1 c-8.1,7.6-18.8,11.8-30.2,11.8H1264.8z"></path> <path class="st0" d="M1449.1,598.7c-19,0-34.9-10.6-41.9-26.9h-9.9l-1.4,2.3c-8.9,15.5-24.7,24.7-42.4,24.7h-36.7 c-8.5,0-16.3-2.1-23.2-6.3c-12.5-7.6-19.9-20.8-19.9-35.4c0-8.3,2.5-16.4,7.3-24l99.9-157c4.4-7.1,10.2-12.7,17.1-16.8 c7.5-4.4,16.1-6.7,25-6.7h29.1c22.5,0,40.9,15.4,44.9,37.5l29.5,156.5c0.6,2.9,0.9,6,0.9,9.1c0,13.1-5.7,25.3-15.7,33.4 c-5.5,4.5-14.9,9.8-28.3,9.8H1449.1z"></path> <path class="st1" d="M556.6,395.1c0,0.5,0,1-0.1,1.3l-5.7,24.8c-0.2,1-1,2.1-2.1,3.2l-107,96.2h82.7c2.5,0,3.7,1,3.7,3 c0,0.5,0,1-0.1,1.3l-6.7,29.9c-0.6,2.9-2.4,4.3-5.6,4.3h-140c-2.6,0-3.8-1-3.8-3c0-0.5,0-1,0.1-1.3l5.6-24.7 c0.2-1.1,0.6-2,1.1-2.8c0.5-0.7,1.2-1.5,2.1-2.3l105.5-94.2h-82.1c-2.6,0-3.8-1.1-3.8-3.2c0-0.5,0-1,0.1-1.3l6.8-30 c0.7-3,2.6-4.5,5.7-4.5h139.7C555.3,392,556.6,393,556.6,395.1z"></path> <path class="st1" d="M641.8,392H671c3.4,0,5.4,1.7,6,5l29.6,157.1c0.1,0.3,0.1,0.7,0.1,1.3c0,2.4-1.5,3.6-4.5,3.6H668 c-3.6,0-5.6-1.6-6.1-4.9l-3.3-22h-65l-13,22c-1.8,3.3-4.5,4.9-8.2,4.9h-36.7c-2.3,0-3.5-0.7-3.5-2.1c0-0.7,0.4-1.6,1.1-2.8 l100-157.1C635.3,393.7,638.2,392,641.8,392z M653.1,495.9l-7.7-51.1l-30.3,51.1H653.1z"></path> <path class="st1" d="M768.1,554.1c-0.6,1.7-1.3,3-2.3,3.7c-1,0.8-2.3,1.2-3.9,1.2H728c-3.1,0-4.6-1.1-4.6-3.2 c0-0.6,0.1-1.2,0.4-1.8L776.9,397c0.6-1.7,1.4-3,2.4-3.8c1-0.8,2.4-1.2,4-1.2h40.4c1.6,0,2.6,0.4,3,1.1c0.4,0.7,0.7,2,1,4 l9.8,101l55.2-101c1.2-2,2.1-3.3,2.9-4c0.8-0.7,2-1.1,3.5-1.1h42.9c1.5,0,2.5,0.3,3.2,0.9c0.6,0.6,0.9,1.6,0.9,2.8l-0.1,1.3 l-17.6,157.1c-0.2,1.6-0.8,2.9-1.9,3.7c-1.1,0.8-2.5,1.2-4.3,1.2h-33.9c-1.7,0-2.9-0.4-3.5-1.2c-0.6-0.8-0.8-2.1-0.7-3.7 l10.2-88.2l-47.5,88c-1.2,2.1-2.3,3.5-3.2,4.2c-0.9,0.7-2.1,1-3.8,1h-29.5c-1.7,0-2.9-0.4-3.6-1.1c-0.7-0.7-1-2.1-1.1-4.1 l-7.1-90.2L768.1,554.1z"></path> <path class="st1" d="M990.2,430.7c10.9-13,24-23.2,39.5-30.3c15.5-7.2,31.5-10.8,48.2-10.8c14.6,0,27.5,3,38.8,9 c11.3,6,20.1,14.3,26.4,24.9c6.2,10.6,9.4,22.4,9.4,35.6c0,5.6-0.5,11.1-1.6,16.5c-3.4,16.6-10.5,31.4-21.3,44.4 c-10.8,13-24,23.2-39.4,30.5c-15.5,7.3-31.6,11-48.4,11c-14.4,0-27.3-3-38.6-9c-11.4-6-20.2-14.3-26.5-24.8 c-6.3-10.5-9.5-22.3-9.5-35.3c0-5.8,0.6-11.4,1.7-16.8C972.2,458.7,979.3,443.7,990.2,430.7z M1013.3,485.7 c0,6.6,1.5,12.5,4.5,17.7c3,5.2,7.2,9.3,12.7,12.3c5.5,3,11.9,4.5,19.3,4.5c8.6,0,16.8-2,24.6-6c7.8-4,14.4-9.4,19.8-16.2 c5.5-6.8,9.1-14.3,10.9-22.5c0.8-3.9,1.2-7.3,1.2-10.3c0-6.6-1.5-12.4-4.5-17.6c-3-5.2-7.2-9.3-12.7-12.2 c-5.5-3-11.9-4.5-19.3-4.5c-8.6,0-16.8,2-24.6,6c-7.8,4-14.4,9.4-19.8,16.2c-5.5,6.8-9.1,14.3-10.9,22.5 C1013.7,479.4,1013.3,482.8,1013.3,485.7z"></path> <path class="st1" d="M1199.9,393.5c1.1-1,2.5-1.5,4.2-1.5h76.5c9.6,0,17.9,2.1,25.1,6.3c7.1,4.2,12.6,9.8,16.4,16.9 c3.8,7,5.7,14.7,5.7,23.1c0,3.5-0.3,6.8-0.9,9.8c-1.9,10.3-6.4,19.5-13.6,27.4c-7.2,8-15.8,14.2-25.9,18.6l20.6,60 c0.2,0.6,0.2,1.1,0.2,1.3c0,1-0.4,1.9-1.1,2.6c-0.7,0.7-1.8,1.1-3.1,1.1h-39.2c-1.7,0-2.8-0.3-3.5-0.9c-0.7-0.6-1.3-1.9-1.9-3.7 l-16.7-50.9h-22.9l-11.4,50.6c-0.7,3.3-2.8,4.9-6.2,4.9h-35.6c-2.9,0-4.3-1.1-4.3-3.3c0-0.3,0.1-0.9,0.2-1.6l35.3-157.1 C1198.1,395.7,1198.8,394.5,1199.9,393.5z M1227.9,467.6h27.7c4,0,7.9-1,11.5-2.9c3.6-1.9,6.7-4.4,9.2-7.6 c2.5-3.1,4.2-6.4,4.9-9.8c0.3-1.3,0.5-2.8,0.5-4.6c0-4.5-1.4-8.2-4.2-11.3c-2.8-3.1-6.7-4.6-11.7-4.6h-28.9L1227.9,467.6z"></path> <path class="st1" d="M1423,392h29.1c3.4,0,5.4,1.7,6,5l29.6,157.1c0.1,0.3,0.1,0.7,0.1,1.3c0,2.4-1.5,3.6-4.5,3.6h-34.2 c-3.6,0-5.6-1.6-6.1-4.9l-3.3-22h-65l-13,22c-1.8,3.3-4.5,4.9-8.2,4.9h-36.7c-2.3,0-3.5-0.7-3.5-2.1c0-0.7,0.4-1.6,1.1-2.8 l100-157.1C1416.5,393.7,1419.3,392,1423,392z M1434.3,495.9l-7.7-51.1l-30.3,51.1H1434.3z"></path> </g> </g> </g> </g> </svg> 