<?xml version="1.0" encoding="UTF-8"?> <!-- Generator: Adobe Illustrator 24.0.0, SVG Export Plug-In . SVG Version: 6.00 Build 0) --> <svg xmlns="http://www.w3.org/2000/svg" xmlns:xlink="http://www.w3.org/1999/xlink" version="1.1" id="Layer_1" x="0px" y="0px" viewBox="0 0 400 200" style="enable-background:new 0 0 400 200;" xml:space="preserve"> <style type="text/css"> .st0{fill:#6C757D;} </style> <g> <path class="st0" d="M173.1,164.4c-5-0.9-7.7-2.3-8.8-4.4c-0.5-0.9-0.6-1.5-0.6-3.3c0-1.2,0.1-2.2,0.2-2.3c0.1-0.1,0.8,0.2,1.6,0.7 c2.1,1.3,3.8,1.9,6.5,2.2c6,0.8,10-1,10.9-4.7c0.2-0.6,0.3-2,0.3-3.1v-2l-1.1,0.9c-2.3,1.9-4.6,2.7-7.8,2.7c-6.5,0-11.9-4-13.1-9.7 c-0.7-3.1-0.1-7,1.4-10.1c1.7-3.5,5.6-6.7,9.3-7.8c1.8-0.5,1.7-0.5,4.4-0.7c7-0.4,11.9,2.5,14.1,8.3c0.6,1.6,0.7,2.2,0.8,6.9 c0.3,8.9,0.2,13.9-0.4,15.8c-1.4,5-5.2,8.8-10.3,10.1C179,164.4,174.3,164.7,173.1,164.4L173.1,164.4z M178.7,143.9 c1.7-0.8,2.6-1.7,3.3-3.3c1.2-2.6,1-6.2-0.4-8.4c-1-1.6-2.6-2.5-4.6-2.5c-3.7-0.1-6.4,2-7.3,5.5c-0.8,3.1-0.3,5.6,1.7,7.5 c1.5,1.5,2.4,1.8,4.5,1.9C177.1,144.5,177.8,144.4,178.7,143.9z"></path> <path class="st0" d="M143.1,155c-3.7-0.6-6.8-2.2-9.3-4.9c-3.8-4-5.1-9.4-3.8-15.1c1.1-4.4,3.2-7.4,6.6-9.8 c2.7-1.8,4.2-2.3,7.5-2.5c3.3-0.2,5.5,0.3,8.2,1.5c4.2,2,6.4,5.5,6.5,10.3c0.1,3.8-1.6,5.8-5.2,6.6c-2.8,0.6-8,1.1-11.9,1.1 c-1.8,0-3.3,0.1-3.4,0.2c-0.4,0.6,0.5,2.3,1.8,3.6c1.9,1.9,3.5,2.4,7.1,2.5c3.4,0.1,6.2-0.5,8.4-1.6c1-0.5,1.8-0.8,1.9-0.7 c0.1,0.1,0.2,1,0.2,1.9c0,2.7-1,4.4-3.4,5.6C151.9,154.9,146.5,155.6,143.1,155L143.1,155z M149.2,136.2c1.2-0.3,1.9-1.1,1.9-2.5 c0.1-2.8-2.5-4.6-6.3-4.4c-2.7,0.2-4.8,1.4-5.8,3.5c-0.5,0.9-1,3.4-0.8,3.9C138.3,136.9,147.8,136.5,149.2,136.2L149.2,136.2z"></path> <path class="st0" d="M206,155c-2.4-0.2-5.7-1.3-7.4-2.5c-4.3-2.8-5.2-9.1-2-12.8c2.5-2.8,6.7-4.1,13.4-4.2c1.9,0,3.6-0.1,3.7-0.2 c0.3-0.2,0.3-1.2-0.1-2.5c-0.6-2.4-2.8-3.4-7-3.4c-3.8,0-6.2,0.7-8.9,2.5c-0.7,0.5-1.4,0.9-1.5,0.9s-0.2-1-0.1-2.1 c0.2-3.1,1.3-4.9,4.2-6.3c2.8-1.4,8.6-2,12-1.2c5,1.2,8.5,4.8,9.3,9.6c0.3,1.9,0.4,12.1,0.1,13.6c-0.3,1.7-1.8,4.5-2.9,5.5 C216.2,154.2,210.9,155.5,206,155L206,155z M211.3,148.3c1.9-0.6,2.6-2,2.6-5c0-2.3,0.1-2.3-3-2.3c-4,0-6.7,0.8-7.4,2.3 c-0.5,1-0.4,2.6,0.3,3.6C204.7,148.4,208.6,149.1,211.3,148.3L211.3,148.3z"></path> <path class="st0" d="M81.3,154.2c-1.3-0.5-2.1-1.2-2.7-2.6c-0.5-1-0.5-1.5-0.4-4.3c0.1-1.7,0.2-4.5,0.3-6c0.1-2.7,0.5-7.3,0.7-8.8 c0.1-0.4,0.2-1.3,0.2-2c0.5-4.7,1.7-14.2,1.9-14.7c0.3-0.8,1-0.9,4-0.5c3.2,0.5,5.1,1.2,6.6,2.4c1.7,1.5,2.5,3,4.3,7.9 c2.5,6.9,6.1,16.5,6.5,17.3c0.3,0.7,0.4,0.5,2.2-4.8c1.1-3,2.7-7.6,3.6-10.2c2.3-6.6,4.5-10.8,6.5-12.2c1.5-1.1,5-0.4,7.1,1.4 c2.1,1.8,2.6,3.4,3.1,9.6c1.1,13.4,1.2,14.6,1.4,22l0.2,5.9h-1.2c-2.4,0-4.9-0.5-5.7-1.2c-1.4-1.2-1.5-1.6-2.1-13.1 c-0.6-10.2-0.9-13.3-1.3-13.3c-0.3,0-2.2,5.2-6.7,18.2c-1.8,5.2-3.5,8.7-4.4,9.2c-0.8,0.5-3.8,0.1-5-0.6c-1.4-0.8-2.7-2.5-3.6-4.8 c-1-2.5-3.7-9.8-5.2-14c-1.3-3.7-3-7.8-3.2-8.1c-0.2-0.2-0.8,4.7-1.3,9.6c-0.2,2.2-0.6,10.2-0.8,16.4l-0.1,1.5l-2,0.1 C83.1,154.5,82,154.4,81.3,154.2L81.3,154.2z"></path> <path class="st0" d="M186.7,98c-1.8-0.4-4.3-1.3-5.9-2.1c-2-1-5.5-3.4-6.9-4.7l-1.1-1.1l4.6-0.2c3.7-0.1,5.1-0.3,7.1-0.8 c3.2-0.8,6.7-2.1,16.1-5.9c3.1-1.3,5.8-2.3,6-2.3c0.3-0.1,0.5,0.3,0.7,0.9l0.3,1l2.5-3.5c1.4-1.9,2.6-3.6,2.7-3.7 c0.1-0.2-1.1-0.8-3.4-1.7c-1.9-0.8-3.6-1.4-3.6-1.3c-0.1,0.1,0,0.7,0.1,1.3c0.1,0.7,0.2,1.3,0.2,1.3c-0.2,0.2-8.6,3.3-13.6,5 c-2.7,1-6.3,2.2-8.1,2.9c-1.8,0.7-4.3,1.4-5.6,1.7c-2.5,0.5-9.7,0.9-10.1,0.6c-0.2-0.2-2.1-2.8-3.9-5.3c-0.3-0.5-0.5-0.9-0.5-0.9 c0.1-0.1,1.2-0.4,2.6-0.6c1.4-0.3,5-1.3,8-2.3c3.1-1,6.3-2,7.3-2.2c1-0.3,4-1.2,6.8-2.1c5.7-1.8,10.6-3.3,13.5-4.2 c1.1-0.3,3.9-1.2,6.3-1.9c2.4-0.8,4.5-1.4,4.7-1.4s0.5,0.3,0.6,0.7c0.5,2,0.4,2,1.4,0.7c0.5-0.7,1.7-2.3,2.6-3.6 c1-1.3,1.9-2.5,2-2.7c0.1-0.2-1.2-1.1-3.7-2.7c-2.2-1.4-4-2.4-4-2.3s0,0.8,0.1,1.6c0.2,0.8,0.3,1.5,0.2,1.5c0,0-2.9,0.8-6.3,1.6 c-3.4,0.9-6.4,1.6-6.6,1.6c-0.2,0.1-1.9,0.5-3.8,1c-4,1-5.7,1.6-15.4,4.7c-7.8,2.6-10,3.3-15.6,5.5c-2,0.8-3.6,1.4-3.7,1.4 c-0.3-0.3-3.6-7.9-3.5-8c0.5-0.7,10.1-5.5,15.9-7.7c5.2-2.1,16.6-5.2,24.6-6.8c3.6-0.7,18.8-2.8,21.7-3.1l1.1-0.1l0.4,1.3 c0.2,0.7,0.4,1.3,0.5,1.4c0.1,0.1,0.3-0.2,0.6-0.5c0.9-1,4.1-5.5,4-5.6c-3.4-2.4-4.9-3.5-6.2-4.5c-0.9-0.7-1.7-1.2-1.7-1.1 c-0.1,0.1,0,0.6,0.1,1.1c0.2,0.5,0.3,1.1,0.3,1.2c0,0.2-0.9,0.4-1.9,0.4c-5.9,0.5-10.6,1-13.5,1.3c-1.8,0.2-4,0.4-4.9,0.5 c-10.8,1-24.5,4.7-31.8,8.6c-3.3,1.8-7.9,4.5-9.6,5.8c-0.8,0.6-1.5,1-1.6,1c-0.2,0-1.6-7.1-1.6-8.1c0-1.1,4.1-5.2,7.4-7.5 c4.5-3,8.8-4.8,14.2-5.9c9.2-1.9,18.1-3.6,18.5-3.4c0.3,0.1,0.7,0.6,0.9,1.4c0.2,0.7,0.5,1.3,0.6,1.4c0.1,0.1,0.9-0.7,1.7-1.7 c0.8-1,2-2.4,2.7-3.2c0.7-0.8,1.2-1.5,1.2-1.6c0-0.2-9.5-5.5-10-5.5c-0.2,0-0.2,0.3,0.1,1c0.2,0.6,0.4,1.1,0.4,1.2 c0,0.1-1.2,0.4-2.7,0.6c-4.5,0.8-17.6,3.4-19.6,3.9c-4.6,1.3-8.2,3.6-12.5,8l-3.1,3.2l0.1-2.5c0.2-2.7,1.2-7.2,2.2-9.8 c1.5-3.7,4.8-8,7.9-10.3c2-1.5,5.1-3,8-4c2.2-0.7,2.3-0.7,8.9-0.7c5.6,0,7.2,0.1,10.1,0.6c12.7,2,23.3,6.6,33.1,14.5 c10,8,13.9,14.3,13.9,22.2c0,4.5-1.1,8.2-3.8,13c-3.6,6.5-8.4,11.9-16.9,19c-8.7,7.2-14.8,11.1-20.6,12.9c-1.4,0.5-2.5,0.6-5.3,0.7 C189.3,98.2,187.3,98.1,186.7,98L186.7,98z"></path> </g> <g> <path class="st0" d="M224.2,184.9c-0.2-0.2-0.2-0.7,0-2.1c0.1-1,0.3-2.4,0.4-3c0.1-0.6,0.2-1.6,0.3-2.1c0.4-2.9,0.4-3-0.3-3.8 l-0.6-0.8l0.7-0.4c0.4-0.2,0.9-0.9,1.1-1.5c0.7-1.5,1.5-2.3,2.9-2.8c1-0.4,1.3-0.4,1.8-0.1c0.6,0.3,0.6,0.4,0.3,0.8 c-0.2,0.3-0.7,0.7-1.2,0.8c-0.9,0.3-1.9,1.7-1.6,2.3c0.1,0.3,0.5,0.4,1.2,0.4c1,0,1,0.1,1,0.8s-0.1,0.8-1.2,0.9 c-0.9,0.1-1.2,0.3-1.2,0.6c0,0.2-0.1,0.8-0.1,1.3c-0.1,0.5-0.2,1.5-0.3,2.1c-0.1,0.7-0.2,1.7-0.3,2.1c-0.2,1.8-0.7,3.8-1,4.1 C225.5,184.9,224.6,185.1,224.2,184.9L224.2,184.9z"></path> <path class="st0" d="M127.6,182.3c-1.7-1-2.2-2.1-2-4.3c0.3-3.6,2.8-5.9,6-5.6c1.5,0.2,2.4,0.9,2.6,2.1c0.3,1.8-0.7,2.7-4,3.5 c-1,0.2-1.9,0.5-2.1,0.6c-0.4,0.3-0.2,1.1,0.4,1.7c0.5,0.5,2.6,0.5,3.8,0c0.8-0.3,0.9-0.3,1.4,0.2l0.5,0.5l-0.9,0.6 C131.1,182.9,129,183.2,127.6,182.3L127.6,182.3z M130.1,176.4c1.7-0.5,2.3-1.2,1.7-1.9c-0.4-0.5-1.7-0.5-2.3-0.1 c-0.4,0.3-1.5,1.9-1.5,2.3C128,177,128.3,176.9,130.1,176.4z"></path> <path class="st0" d="M141.1,182.6c-0.9-0.3-2-1.4-2.3-2.6c-0.3-1.1-0.2-3.1,0.3-4.3c1.2-3,5.5-4.5,7.3-2.6c0.6,0.5,0.6,0.7,0.3,1 c-0.3,0.3-0.6,0.4-1.1,0.3c-2.1-0.4-2.3-0.4-2.9,0.1c-0.8,0.6-1.7,2.5-1.7,3.5c0,1.2,0.5,2.3,1.2,2.6c0.4,0.2,1.1,0.1,2-0.1 c0.8-0.2,1.6-0.4,1.8-0.4c0.7,0,0.7,0.7,0,1.4C144.7,182.7,143,183.1,141.1,182.6L141.1,182.6z"></path> <path class="st0" d="M149.9,182.7c-1-0.3-2.1-1.3-2.5-2.5c-1-2.6,0.5-6.2,3-7.4c1.4-0.7,3.5-0.6,4.5,0.2c2.6,1.9,2,6.6-0.9,8.7 C152.9,182.6,151.1,183,149.9,182.7L149.9,182.7z M152.5,180.5c1.1-0.9,2.1-3.3,1.9-4.3c-0.4-1.9-2.4-2.7-3.6-1.5 c-0.7,0.7-1.3,2.6-1.3,4c0,0.8,0.2,1.2,0.6,1.7C150.9,181.3,151.6,181.3,152.5,180.5z"></path> <path class="st0" d="M163.6,182.5c0-0.4,0.5-4.8,0.6-6c0.1-0.4-0.1-1-0.3-1.4c-0.3-0.6-0.5-0.7-1.1-0.6c-1.5,0.2-2.9,2.6-3.2,5.6 c-0.2,2.2-0.5,2.5-1.7,2.4c-1-0.1-1,0.1-0.3-5.2c0.6-4.5,0.7-4.8,1.6-4.7c0.4,0.1,0.8,0.3,0.9,0.6c0.3,0.5,0.3,0.5,1.1,0.1 c0.5-0.2,1-0.5,1.1-0.6c0.1-0.1,0.8-0.3,1.4-0.4c1.2-0.1,1.4-0.1,2.1,0.7c0.8,0.7,0.8,0.9,0.7,2.6c0,1-0.2,2.7-0.4,3.8 c-0.2,1.1-0.3,2.1-0.3,2.3c0,0.2-0.4,0.5-0.9,0.7C163.8,183,163.6,183,163.6,182.5L163.6,182.5z"></path> <path class="st0" d="M170.4,182.7c-0.3-0.1-1.1-0.6-1.7-1.2c-1.3-1.3-1.7-2.7-1.1-4.6c0.7-2.6,2.7-4.4,5-4.5c3-0.1,4.4,1.5,3.3,3.9 c-0.3,0.6-1.8,1.3-4.3,1.8c-1.6,0.4-1.9,0.7-1.4,1.8c0.6,1.3,1.9,1.4,4.1,0.4c0.9-0.4,1-0.4,1.4,0c0.4,0.4,0.4,0.5-0.2,1.1 C174.2,182.5,172.4,183.1,170.4,182.7L170.4,182.7z M172.5,176.3c0.5-0.2,1.1-0.5,1.3-0.8c0.3-0.5,0.3-0.6-0.1-1 c-0.9-0.9-2.5-0.3-3.3,1.1C169.8,177,169.9,177,172.5,176.3L172.5,176.3z"></path> <path class="st0" d="M179,182.5c-3-1.3-3.1-6.2-0.2-8.9c1.5-1.3,3.2-1.6,5-0.8c1.9,0.9,1.2,1.8-1.3,1.6c-1.2-0.1-1.6,0-2,0.3 c-1.1,1-1.8,3.5-1.3,5.1c0.1,0.3,0.5,0.7,0.9,0.9c0.7,0.4,0.9,0.3,1.8-0.1c0.6-0.2,1.2-0.5,1.4-0.7c0.2-0.2,0.5-0.1,0.9,0.3 l0.5,0.5l-0.8,0.7C182.6,182.8,180.5,183.2,179,182.5L179,182.5z"></path> <path class="st0" d="M187,182.3c-0.6-0.6-0.7-0.8-0.7-2.2c0-0.9,0.1-2.5,0.2-3.6c0.2-1.8,0.2-2.1-0.2-2.1c-0.3,0-0.4-0.2-0.4-0.8 c0-0.4,0.2-0.8,0.3-0.8c0.5,0,1.1-0.8,1.4-2c0.4-1.3,0.8-1.6,1.5-1.5c0.6,0.1,0.6,0.2,0.5,1.7l-0.1,1.6h1.1c1.9,0,1.7,1.5-0.3,1.8 c-1.3,0.2-1.5,0.5-1.6,4l-0.1,2.4l1,0.1c0.8,0.1,1,0.3,1.1,0.7c0.1,0.4-0.2,0.6-1,1C188.5,183,187.8,183,187,182.3L187,182.3z"></path> <path class="st0" d="M193.2,182.4c-1.5-0.9-2-3.1-1.3-5.4c0.4-1.4,2.2-3.3,3.8-4.1c2-1,4.8-0.8,5.2,0.2c0.1,0.4-0.1,3.4-0.5,5.6 c-0.1,0.4-0.2,1.1-0.3,1.8c-0.1,0.6-0.2,1.3-0.3,1.6c-0.2,0.6-1.1,0.5-1.8-0.2l-0.6-0.7l-1,0.7C195.4,182.9,194.2,183,193.2,182.4 L193.2,182.4z M196.2,180.3c0.7-0.3,1-0.6,1.7-2.4c0.5-1.2,0.9-2.5,0.9-2.9l0.2-0.8l-1.1,0.1c-1.4,0.2-2.3,0.7-3,1.8 c-0.8,1.2-1,2.7-0.4,3.8C195,180.7,195.1,180.7,196.2,180.3z"></path> <path class="st0" d="M207.3,182.5c-1.5-0.7-2.1-3.3-1.2-5.8c0.5-1.4,2.1-3.1,3.7-3.9c1.4-0.7,3.8-0.7,4.6-0.1 c0.6,0.5,0.6,0.7,0.2,4.7c-0.6,5.2-0.6,5.3-1.7,5.2c-0.7-0.1-0.9-0.2-0.9-0.8c-0.1-0.8-0.3-0.9-1-0.2 C209.9,182.8,208.7,183.1,207.3,182.5L207.3,182.5z M210.9,179.7c1-1,1.4-2.1,1.7-4.2c0.2-1.3,0.2-1.3-0.5-1.3 c-2.3,0-4.3,2.3-4,4.8C208.2,180.9,209.4,181.2,210.9,179.7L210.9,179.7z"></path> <path class="st0" d="M231.3,182.6c-0.3-0.2-0.7-0.7-1-1.2c-0.4-0.9-0.4-2.7,0.2-6.9l0.3-2h1.1h1.1l-0.2,1.7 c-0.1,0.9-0.2,2.3-0.3,3.1c-0.2,2-0.2,2.7,0.2,3.1c0.4,0.5,1,0.5,2-0.1c1.1-0.7,2-2.6,2.2-4.9c0.3-3,0.4-3.2,1.9-3 c0.8,0.1,0.9,0.1,0.7,1.2c-0.1,0.6-0.2,1.6-0.3,2.3c-0.1,0.7-0.2,1.6-0.3,1.9c-0.1,0.4-0.2,1.3-0.2,2.1c-0.1,1.5-0.7,2.6-1.2,2.6 c-0.2,0-0.6-0.3-1-0.7l-0.7-0.7l-1.1,0.7C233.5,182.8,232.1,183,231.3,182.6L231.3,182.6z"></path> <path class="st0" d="M248.2,182.5c-1.3-0.7-1.5-2-0.7-7.4c0.3-2.1,0.4-2.3,1.7-2.6l0.9-0.2l-0.1,1.5c-0.1,0.8-0.2,2.3-0.3,3.2 c-0.2,2.4,0,3.6,0.7,3.6c1.8,0,3.3-2.4,3.7-5.7c0.2-2.1,0.5-2.7,1.2-2.4c0.2,0.1,0.6,0.1,0.9,0.1c0.5,0,0.5,0.1,0.4,1.1 c-0.1,0.6-0.2,1.7-0.3,2.4c-0.1,0.8-0.2,2-0.4,2.7c-0.2,0.8-0.3,1.7-0.3,2.1c0,1-0.8,1.8-1.4,1.5c-0.3-0.1-0.6-0.4-0.8-0.6 c-0.3-0.3-0.5-0.3-1.5,0.2C250.2,182.8,249,182.9,248.2,182.5L248.2,182.5z"></path> <path class="st0" d="M266.2,182.6c-4.3-1.3-4.1-7.5,0.3-9.7c1.6-0.8,3.4-0.7,4.5,0.1c0.8,0.6,1.8,2.4,1.8,3.4 c0,2.1-1.6,4.9-3.3,5.8C268.6,182.7,267.1,182.9,266.2,182.6z M268.2,180.6c0.6-0.2,0.9-0.6,1.4-1.6c1.2-2.5,1.2-2.5,0.3-3.8 c-0.7-1-1-1.2-1.6-1.2c-1.1,0-1.9,1-2.4,2.8c-0.5,1.8-0.4,2.7,0.4,3.5C266.8,180.9,267.1,181,268.2,180.6L268.2,180.6z"></path> <path class="st0" d="M120.5,182.4c0-0.3,0.1-1.8,0.2-2.8c0.1-0.5,0.2-1.4,0.2-2.1c0.1-0.7,0.2-1.7,0.3-2.1c0.1-0.5,0.2-1.4,0.3-2 c0.1-0.6,0.2-1.6,0.3-2.1l0.2-1h-2h-2v-0.9c0-0.6,0.2-0.9,0.4-1c0.2-0.1,2.6-0.2,5.4-0.2h5v0.7c0,1.1-0.4,1.3-2.4,1.3h-1.8l-0.2,1 c-0.1,0.5-0.4,3.2-0.8,5.9c-0.4,2.7-0.7,5.1-0.8,5.2C122.4,182.7,120.5,182.7,120.5,182.4L120.5,182.4z"></path> <path class="st0" d="M215.7,182.3c0-0.4,0.7-6.1,0.9-7.7c0.6-4.6,0.9-6.2,1.2-6.4c0.2-0.2,0.6-0.3,1.2-0.2l0.9,0.2l-0.2,1.7 c-0.1,0.9-0.2,1.9-0.3,2.3c-0.1,0.4-0.3,2.4-0.6,4.6c-0.8,6.6-0.6,5.9-1.9,5.9C216.1,182.6,215.7,182.5,215.7,182.3L215.7,182.3z"></path> <path class="st0" d="M241.3,182l-0.7-0.6l0.4-3.4l0.4-3.3l-0.6-0.7l-0.6-0.7l0.6-0.4c0.4-0.2,0.9-0.9,1.3-1.9 c0.5-1.2,0.9-1.6,1.3-1.8c0.8-0.2,1,0.3,0.9,1.7c-0.2,1.3,0,1.4,1.6,1.6c0.4,0,0.6,0.2,0.6,0.6c0,0.7-0.5,1.1-1.4,1.1 c-0.4,0-0.9,0.1-1.1,0.2c-0.3,0.2-0.6,2.6-0.7,4.9c0,1.1,0.1,1.3,0.5,1.3c1.3,0.2,1.6,0.3,1.6,0.7c0,0.6-0.7,1-2.1,1.1 C242.2,182.6,241.9,182.5,241.3,182L241.3,182z"></path> <path class="st0" d="M257,182.2c0-0.6,1-8.3,1.2-9c0.1-0.4,0.3-0.6,0.8-0.6c0.9,0,1.3,0.4,1.3,1.2c0,0.6,0,0.6,0.9-0.3 c0.9-0.9,1.6-1.2,2.5-1c0.3,0.1,0.4,0.2,0.3,0.5c-0.1,0.2-0.2,0.6-0.2,0.8c0,0.3-0.4,0.6-1.2,0.9c-0.7,0.2-1.4,0.6-1.6,0.8 c-0.6,0.7-1.1,2.2-1.3,4.2c-0.3,2.6-0.4,2.9-1.6,2.9C257.2,182.6,257,182.5,257,182.2L257,182.2z"></path> <path class="st0" d="M270.4,154.9c-9.2-2.5-14.1-10.3-12.2-19.6c0.5-2.3,1.9-5.5,3.3-7.1c1.9-2.2,5.6-4.7,7.5-4.9 c0.3,0,0.7-0.2,0.8-0.3s0.3-0.1,0.3-0.1c0,0.1,0.4,0,0.8-0.1c1.6-0.5,5.7-0.3,7.6,0.3c3.5,1.1,6.8,4,8,7.1c0.6,1.6,0.7,2.2,0.7,4.3 c0,2.2-0.1,2.6-0.6,3.5c-0.7,1.2-1.7,2.1-2.2,2.1c-0.2,0-0.3,0.1-0.3,0.2c0,0.2-3,0.9-6.6,1.6c-1,0.2-3.6,0.3-6.4,0.3l-4.6,0 l0.2,0.6c0.1,0.3,0.2,0.7,0.2,0.8c0.3,1.3,2.7,3.7,3.8,4c0.3,0.1,1.2,0.3,2,0.5c3.5,0.9,8.2,0.3,11.5-1.4c1-0.5,1.5-0.7,1.7-0.5 c0.1,0.1,0.3,0.9,0.3,1.8c0.1,2.8-1.4,4.8-4.4,6.2C278.4,155.7,274.2,156,270.4,154.9L270.4,154.9z M277.2,136.2 c1.7-0.3,2.3-1.2,2.2-3.5c-0.1-1.6-2.8-3.3-5.6-3.4c-1.1-0.1-3.5,0.5-3.5,0.9c0,0.1-0.1,0.2-0.2,0.1c-0.2-0.2-0.7,0.3-2,1.5 c-0.9,0.8-1.6,2.8-1.6,4.3c0,0.7,0.1,0.8,0.7,0.9C267.9,136.9,275.3,136.4,277.2,136.2L277.2,136.2z"></path> <path class="st0" d="M300.5,154.9c-0.4-0.1-1.5-0.3-2.4-0.6c-4.3-1.4-6.2-3.4-7.2-7.7c-0.2-0.8-0.2-20.3-0.1-22.7 c0.2-2,0.3-2.8,0.8-3.5c1-1.6,3.7-3.9,4.4-3.8c0.1,0,0.3,0,0.5,0c0.7-0.2,2,0.1,2.3,0.4c0.2,0.2,0.3,1.7,0.3,3.3 c0,1.6,0.1,3,0.2,3.1c0.1,0.1,2.4,0.1,5.2,0.1c6,0,6,0,6,2c0,2.6-1,4.2-2.9,4.8c-0.6,0.2-2.7,0.3-4.8,0.3l-3.8-0.1l0,6.4 c0.1,8.8,0.1,9.2,1.9,10.5c0.9,0.7,3.3,0.8,6.6,0.4c1.5-0.2,2.5-0.2,2.7-0.1c0.5,0.5,0.5,2.5,0.1,3.7c-0.9,2.4-3.1,3.6-6.9,3.7 C302.2,155,300.9,154.9,300.5,154.9L300.5,154.9z"></path> <path class="st0" d="M232.9,154.7c-0.1-0.1-0.9-0.1-2-0.2c-2.8-0.2-4.7-1.4-5.2-3.2c-0.3-1.2-0.5-12-0.2-15.6 c0.2-3,0.4-3.9,1.4-5.9c1.7-3.4,5.4-6,9.7-6.8c1.4-0.3,5.9-0.4,6.3-0.2c0.1,0.1,0.8,0.2,1.4,0.3c0.6,0.1,2.1,0.6,3.2,1.2 c3.5,1.7,6,4.8,6.8,8.5c0.3,1.5,0.6,16.3,0.3,19.7c-0.2,2.4-0.1,2.3-2.8,2c-2.7-0.3-4.1-1.1-4.9-2.8l-0.7-1.3v-7.1 c0-7.5-0.2-9.5-1.2-11.1c-1.2-2-3.9-2.9-7-2.4c-1.9,0.3-3.6,2.4-4,4.6c-0.3,1.9-0.3,3.3-0.4,11.7c0,7.4-0.1,8.5-0.4,8.5 C233.1,154.7,232.9,154.7,232.9,154.7L232.9,154.7z"></path> <path class="st0" d="M188.9,105.3c-5.4-0.7-11.1-2.8-14.9-5.7c-1.7-1.2-6-5.2-6.6-6c-0.7-1.1,0.2-0.4,2.1,1.3 c10.9,10.4,23.9,11.9,36.4,4.4c3.4-2.1,6.5-4.1,8.7-5.8c0.2-0.1,1.1-0.9,2.1-1.6c4.9-3.7,13.5-11.9,16.7-15.7 c1.4-1.7,3.9-5.1,4.8-6.7c2-3.2,4.5-9.2,4.9-11.7c0.6-3.3,0.7-6.7,0.3-9.3c-0.5-3.9-2.4-8.2-5.3-12.3c-0.8-1.1-3.2-3.8-5.4-6 c-2.2-2.2-3.9-4-3.8-4c0.1,0,1.4,1,2.8,2.2c4.3,3.6,8.7,9.1,10.8,13.4c2.4,5,3.1,11.1,1.9,16.6c-1.3,5.8-4.9,12.9-9.6,18.6 c-4.3,5.2-15,14.9-20.8,18.9c-6.8,4.6-9.3,6-13.4,7.5C196.9,104.9,191.7,105.7,188.9,105.3L188.9,105.3z"></path> </g> <g> <path class="st0" d="M254.6,151.1c0-0.6,0.1-0.9,0.1-0.6c0.1,0.3,0.1,0.8,0,1.1C254.6,151.9,254.6,151.7,254.6,151.1z"></path> <path class="st0" d="M254.6,144.9c0-0.7,0.1-1,0.1-0.6c0.1,0.4,0.1,0.9,0,1.3C254.6,145.9,254.6,145.6,254.6,144.9z"></path> <path class="st0" d="M225.3,141.7c0-1,0.1-1.3,0.1-0.8c0.1,0.5,0.1,1.3,0,1.8C225.3,143,225.3,142.6,225.3,141.7z"></path> <path class="st0" d="M254.6,141.4c0-0.7,0.1-1,0.1-0.6c0.1,0.4,0.1,0.9,0,1.3C254.6,142.4,254.6,142.1,254.6,141.4z"></path> <path class="st0" d="M271.4,142.4c0.2-0.1,0.6-0.1,0.9,0c0.2,0.1,0,0.1-0.5,0.1S271.1,142.4,271.4,142.4z"></path> <path class="st0" d="M298.9,140.3c0-0.6,0.1-0.9,0.1-0.6c0.1,0.3,0.1,0.8,0,1.1C298.9,141.2,298.9,140.9,298.9,140.3z"></path> <path class="st0" d="M298.9,134.5c0-2.1,0.1-3,0.1-1.9c0.1,1.1,0.1,2.8,0,3.9C299,137.5,298.9,136.7,298.9,134.5z"></path> <path class="st0" d="M290.7,134c0-1.9,0-2.6,0.1-1.7c0.1,0.9,0.1,2.4,0,3.4C290.7,136.7,290.7,135.9,290.7,134z"></path> <path class="st0" d="M298.9,120.8c0-1.3,0-1.9,0.1-1.2c0.1,0.7,0.1,1.7,0,2.4C298.9,122.6,298.9,122.1,298.9,120.8z"></path> <path class="st0" d="M188.9,105.3c-5.4-0.7-11.1-2.8-14.9-5.7c-1.7-1.2-6-5.2-6.6-6c-0.7-1.1,0.2-0.4,2.1,1.3 c4.8,4.5,10,7.4,15.5,8.6c2.3,0.5,7,0.6,9.5,0.2c3.2-0.5,10.6-3.1,10.2-3.6c-0.1-0.1,0.1-0.2,0.3-0.1c0.3,0.1,0.4,0.1,0.3-0.2 c-0.1-0.2-0.1-0.3,0-0.3c0.5,0.1,0.9-0.1,1.3-0.5c0.3-0.3,0.9-0.7,1.4-0.9c0.5-0.3,1.2-0.7,1.5-1c0.3-0.3,0.7-0.5,0.9-0.6 c0.5-0.1,3.1-1.9,3-2.1c-0.1-0.1,0.1-0.2,0.3-0.2c0.3,0,0.4-0.1,0.4-0.4c-0.1-0.2,0-0.3,0.1-0.2c0.3,0.3,1.2-0.3,1-0.6 c-0.1-0.1-0.1-0.2,0.1-0.2c0.1,0.1,0.4-0.2,0.7-0.4c0.2-0.3,0.3-0.4,0.2-0.2c-0.1,0.2,0.2,0.1,0.6-0.3c0.8-0.6,1.1-1,0.5-0.6 c-0.2,0.1-0.2,0.1-0.1-0.1c0.1-0.2,0.3-0.3,0.3-0.2c0.2,0.2,2.7-1.8,2.7-2.2c0-0.2,0.2-0.3,0.5-0.4c0.6-0.1,1.2-0.6,1-0.9 c-0.1-0.2,0-0.2,0.1-0.1c0.3,0.2,2.1-1.3,1.9-1.6c-0.1-0.1,0-0.2,0.2-0.2c0.2,0.1,0.3-0.1,0.3-0.3c-0.1-0.2,0-0.3,0.1-0.2 c0.2,0.3,2-1.3,1.9-1.7c-0.1-0.2,0-0.2,0.1-0.1c0.3,0.3,0.9-0.3,0.7-0.6c-0.1-0.1-0.1-0.2,0.1-0.1c0.3,0.2,1.5-1,1.4-1.3 c-0.1-0.1,0.1-0.2,0.3-0.2c0.2,0,0.3-0.2,0.2-0.3c0-0.2,0-0.3,0.1-0.3c0.1,0,0.6-0.3,1.1-0.8c0.5-0.5,0.8-0.8,0.7-0.8 s0.1-0.3,0.5-0.7c0.4-0.4,0.7-0.8,0.7-0.9c0-0.1,0.1-0.2,0.2-0.1c0.3,0.2,1.1-0.7,0.9-1c-0.1-0.1-0.1-0.1,0.1,0 c0.4,0.2,1.4-1.2,1.1-1.5c-0.1-0.1,0-0.1,0.2,0c0.3,0.2,0.4-0.1,0.3-0.7c0-0.1,0.1-0.2,0.2-0.1c0.3,0.2,0.8-0.7,0.6-1 c-0.1-0.1,0-0.1,0.2,0c0.3,0.2,0.4-0.1,0.3-0.7c0-0.1,0.1-0.2,0.2-0.1c0.2,0.2,1.6-1.8,1.6-2.3c0-0.2,0.1-0.3,0.2-0.2 c0.1,0.1,0.4-0.2,0.6-0.7c0.2-0.4,0.3-0.8,0.2-0.8c-0.1,0,0-0.1,0.2-0.3c0.2-0.2,0.6-0.7,0.7-1.2c0.2-0.5,0.6-1.5,1-2.2 s0.7-1.4,0.6-1.4c-0.1-0.1,0-0.2,0.1-0.2s0.4-0.4,0.4-0.8c0.1-0.5,0.5-1.6,0.8-2.6c0.9-2.7,1.2-5,1.2-8.3c0-4.4-0.8-7.6-2.7-11.3 c-2.1-3.9-3.9-6.3-8.2-10.6c-2.2-2.2-3.9-4-3.8-4c0.1,0,1.4,1,2.8,2.2c4.3,3.6,8.7,9.1,10.8,13.4c2.4,5,3.1,11.1,1.9,16.6 c-1.3,5.8-4.9,12.9-9.6,18.6c-4.3,5.2-15,14.9-20.8,18.9c-6.8,4.6-9.3,6-13.4,7.5C196.9,104.9,191.7,105.7,188.9,105.3L188.9,105.3 z"></path> </g> </svg> 