<?xml version="1.0" encoding="UTF-8"?> <!-- Generator: Adobe Illustrator 24.0.0, SVG Export Plug-In . SVG Version: 6.00 Build 0) --> <svg xmlns="http://www.w3.org/2000/svg" xmlns:xlink="http://www.w3.org/1999/xlink" version="1.1" id="Layer_1" x="0px" y="0px" viewBox="0 0 400 200" style="enable-background:new 0 0 400 200;" xml:space="preserve"> <style type="text/css"> .st0{fill:#222222;} .st1{fill:#237126;} .st2{fill:#266B17;} .st3{fill:#176723;} .st4{fill:#2C7B21;} .st5{fill:#5EAD46;} .st6{fill:#FFFFFF;} </style> <path class="st0" d="M54.6,148c-29.5-7.5-42.4-27-32.1-48.5c8.7-18.4,33.1-33.7,63.5-39.9c14.7-2.9,39.5-2,51.4,2 c10.4,3.6,20.1,10.2,25,17.2c4.7,6.7,6,19.2,2.7,27c-7.2,17.2-29.3,33.1-56.1,40.4C96.1,149.8,65.5,150.8,54.6,148z"></path> <g> <path class="st1" d="M56.5,148c-17-3.7-29.2-11.7-34.6-22.5c-6.5-13.2-2-27.7,12.6-41.4C60.6,59.8,113,50.4,144.1,64.6 c14.7,6.8,22.8,17.3,22.8,29.8c0,22.8-29.7,46.4-67.2,53.5C87.4,150.3,67.2,150.3,56.5,148z"></path> </g> <g> <path class="st2" d="M56.5,148c-17-3.7-29.2-11.7-34.6-22.5c-6.5-13.2-2-27.7,12.7-41.3c6.8-6.5,26.7-18.2,32.6-19.4 c1.1-0.1,3-0.7,4-1.1c1.9-0.7,7.3-2,11.2-2.6c1.1-0.1,2.5-0.6,3.1-1c2.6-1.5,33.9-2,42.2-0.6c23.4,3.9,39.3,18.3,39.3,35.2 c0,22.5-30,46.3-67.2,53.2C87.4,150.3,67.2,150.3,56.5,148z M94.3,122.9c0.4-1.5,1.5-3.4,2.5-4.2c1-0.7,1.4-1.9,1-2.5 c-0.4-0.6-0.1-1.1,0.4-1.1c0.6,0,1.1-1.1,1.1-2.5c0-3,0.1-3-7.8-0.1c-6.2,2.2-12.1,6.3-9.2,6.3c0.7,0,1.4,1.4,1.4,3 c0,3.1,1.4,3.9,7.1,3.9C92.6,125.7,93.9,124.8,94.3,122.9z M116.2,118.7c0.5-5.3,0.2-7-1.9-9.3c-1.4-1.6-3.4-3-4.2-3 c-0.9,0-1.6-1.2-1.6-2.7c0-6.1-1.2-0.9-1.9,8c-0.7,10.4,0.6,13.4,6.1,13.4C115.3,125,115.7,124.3,116.2,118.7z M120.3,89.2 c0.7-0.5,1.4-2.7,1.5-4.8c0.2-4.1,0.2-4.1-2.7-2.1c-2.7,1.7-3.2,1.7-6.1-0.1c-1.7-1.2-3.2-2.7-3.2-3.5c0-1-0.4-1-1.2-0.1 c-1.6,1.6,0.5,8,3.4,10.2C114.2,90.3,118.3,90.7,120.3,89.2z M83.6,77.3c0-0.2-2.2-0.7-4.8-1c-2.7-0.2-4.6,0-4.4,0.5 C75,77.8,83.6,78.2,83.6,77.3z"></path> </g> <g> <path class="st3" d="M63.4,149.3c-0.1-0.2-2.6-0.7-5.3-1.1c-9.5-1.5-20.5-6.3-28.2-12.2c-11.3-8.7-13.7-26.1-5.5-40 c4.8-8.2,16.8-18.3,29.3-24.7c6.2-3.2,12.3-6.1,13.4-6.3c1.1-0.1,3-0.7,4-1.1c1.9-0.7,7.3-2,11.2-2.6c1.1-0.1,2.5-0.6,3.1-1 c2.6-1.5,33.9-2,42.2-0.6c23.4,3.9,39.3,18.2,39.3,35.3c0,16.9-19.6,37.4-45.1,47c-4.5,1.6-9.5,3.4-11.1,3.6c-1.6,0.4-4.2,1-6,1.4 c-9.9,2.4-15.7,2.9-27.6,3C69.9,149.8,63.7,149.5,63.4,149.3z M95,123.4c0.6-1.1,0.7-2.1,0.4-2.1c-0.5,0,0.1-0.9,1.1-2 c1.1-1,1.7-2.5,1.4-3.1c-0.5-0.6-0.2-1.1,0.2-1.1c0.6,0,1.1-1.1,1.1-2.5c0-3,0.1-3-7.8-0.1c-6.3,2.4-12.1,6.3-9.1,6.3 c1,0,1.2,1.1,0.7,3c-0.6,2.5-0.2,3.1,2,3.5C90.7,126,93.8,125.4,95,123.4z M116.9,121.3c-0.2-2.7,0-5.1,0.5-5.2 c0.5-0.2,0.6-2.5,0.2-5c-0.5-2.6-1.2-4.4-1.9-4c-2.2,1.4-7.3-1-7.3-3.6c0-5.8-1.2-0.7-1.9,7.7c-0.2,5-1,9.7-1.5,10.4 c-0.4,0.9-0.4,1.1,0.2,0.6c0.6-0.6,1.7,0.1,2.7,1.5c1.1,1.6,3.2,2.5,5.6,2.5C117.3,126.3,117.4,126.2,116.9,121.3z M74.4,119.2 c-1.4-1.4-2.1,0.5-1.1,2.9c0.9,2.2,1,2.2,1.4,0.1C74.9,120.9,74.7,119.6,74.4,119.2z M44.8,108.4c2.7-1,5.3-1.5,5.7-1.1 c0.4,0.5,0.7-1.5,0.7-4.4c0-2.7,0.4-6.1,0.7-7.3s0.2-1.7-0.4-0.9c-0.5,0.6-3.4,1.4-6.2,1.5c-3.1,0-7.7,1.5-11.2,3.4 c-9.1,5.1-9.5,6-1.9,5.3c4.5-0.5,6.5-0.2,6.1,0.7c-0.2,0.7-1.5,1.6-2.9,1.7c-1.2,0.2-2.9,1-3.5,1.6 C30.1,110.7,39.2,110.4,44.8,108.4z M120.3,89.2c0.7-0.5,1.4-2.7,1.5-4.8c0.2-4.1,0.2-4.1-2.7-2.1c-2.7,1.7-3.2,1.7-6.1-0.1 c-1.7-1.2-3.2-2.7-3.2-3.5c0-1-0.4-1-1.2-0.1c-1.6,1.6,0.5,8,3.4,10.2C114.2,90.3,118.3,90.7,120.3,89.2z M83.6,77.3 c0-0.2-2.2-0.7-4.8-1c-2.7-0.2-4.6,0-4.4,0.5C75,77.8,83.6,78.2,83.6,77.3z"></path> </g> <g> <path class="st4" d="M59.3,148.2c-25.5-5-39.4-17.2-39.4-34.4c0-29.1,41.7-55,88.5-55c28.5,0,48.1,8.7,55.5,24.6 c3.5,7.2,3.7,11.6,1.1,20c-7.3,24.1-44,44.4-83.3,45.9C73,149.7,64.8,149.3,59.3,148.2z M70.6,125c1,0,1.7-1,1.9-2.1 c0-1.9,0.2-1.9,1,0.2c1.1,2.7,1.7,0.4,3.4-12.7c0.5-3.6,1.2-6.6,1.6-6.6c0.5,0,1.5,4.6,2.5,10.2c0.9,5.7,1.7,10.4,1.9,10.6 c0.1,0.2,2.7,0.5,5.7,0.7l5.3,0.5l5.3-11.3l5.5-11.3l-0.7,7c-0.7,6.8,0.2,13.3,1.7,11.8c0.4-0.4,1.4,0.4,2.4,1.7 c1,1.5,3.1,2.5,5.1,2.5h3.4l2.9-21.4c3.5-26.5,3.5-25.2,0-22.9c-3.6,2.6-3.7,2.6-7.8-1.2l-3.5-3.2l-3.1,3.2 c-1.7,1.7-5,7.5-7.2,12.8c-2.2,5.3-4.5,9.6-5.1,9.3c-0.5-0.1-1.6-4.6-2.5-9.9c-3-19.3-2.1-17.7-9.2-17.7c-7.8,0-10.6,1.4-12.2,6.5 c-1,3.2-7.6,41.3-7.6,44.1c0,0.4,1.7,0.4,3.9-0.1C67.2,125.4,69.8,125,70.6,125z M44.8,108.4c2.7-1,5.3-1.5,5.7-1.1 c0.4,0.5,0.7-1.5,0.7-4.4c0-2.7,0.4-6.1,0.7-7.3s0.2-1.7-0.4-0.9c-0.5,0.6-3.4,1.4-6.2,1.5c-3.1,0-7.7,1.5-11.2,3.4 c-9.1,5.1-9.5,6-1.9,5.3c4.5-0.5,6.5-0.2,6.1,0.7c-0.2,0.7-1.5,1.6-2.9,1.7c-1.2,0.2-2.9,1-3.5,1.6 C30.1,110.7,39.2,110.4,44.8,108.4z"></path> </g> <g> <path class="st5" d="M63.9,148.7c-16.7-2.4-31.8-9.5-37.7-17.5l-3-4.2l3.4,2.6c2.9,2.2,4.2,2.5,8.8,1.6c4.7-0.9,22-7.1,22-8 c0-0.1-1-2.1-2.1-4.5c-1.7-3.2-2.2-7.2-2.2-16.7c0-11.4,0.2-12.9,3.6-18.7c3-5.1,3.1-5.8,1-3.9c-2.1,1.7-3.7,2.1-8,1.5 c-4.7-0.7-6-0.4-10.7,3.1c-2.9,2.1-7.8,7.5-10.9,11.8c-5.8,8.2-7.2,9.6-5.8,5.8C26.1,91.3,40,78.4,55.3,70.9 c6.3-3,13.2-5.8,15.2-6.3c3.6-0.7,3.6-0.7-1.2,2.9c-2.7,2.1-6.1,5.1-7.5,6.7c-1.4,1.6,0.2,0.6,3.6-2.4c8-6.8,17.2-10.2,28.5-10.3 c6.7-0.1,8.2-0.4,5.8-1.2c-2-0.6,2.9-0.9,13.1-0.6c19,0.5,28.7,3.1,39.2,10.3c10.4,7.3,15.9,16.9,12.2,21.3c-1,1.1-1.6,3.2-1.2,4.5 c0.4,1.9,0.7,2,1.6,0.6c1.4-2.2,1.4,4.6,0,8.1c-0.9,2.2-1,2.2-1.7,0.4c-0.4-1.1-0.5-3.1-0.1-4.2c0.5-1.6,0-1.4-1.5,0.6 c-1.1,1.5-3.1,2.7-4.6,2.7c-2.2,0-2.1-0.2,0.9-2.6c3-2.4,4.8-8.5,2-6.7c-0.7,0.4-1.6-0.1-2.1-1.4c-0.6-1.9-1.1-1.6-3.6,1.4 l-2.9,3.6l-0.7-3.4c-1-4-1.4-4-7.5-1.4c-2.6,1-5.3,1.6-6.2,1.2c-1.1-0.4-1.7,2-2.1,9c-0.7,11.4-3.9,18.7-11.9,28 c-3.2,3.6-4.4,5.3-2.7,4c1.7-1.4,4.2-3.9,5.6-5.5c1.9-2,6-3.7,13.4-5.7c6-1.5,11.3-3.2,11.8-3.7c0.9-1-2.1-0.5-16.3,2.6 c-3.2,0.6-3.4,0.6-2-2.5c0.9-1.7,2.5-3.2,3.7-3.2c1.2,0,2.6-0.6,3.1-1.4c0.5-1,0-1.1-1.9-0.5c-1.4,0.4-2.6,0.2-2.6-0.4 c0-0.6,2.6-1.6,5.7-2.1c3.2-0.4,6.5-1.1,7.5-1.5c1.1-0.4,1.4,0.2,0.9,2c-0.9,3.4,0.9,3.4,5.1,0c1.7-1.4,3.2-2.1,3.2-1.6 s1.5-0.4,3.2-2.1l3.4-3l-1.6,3.1c-8.3,16.2-32.5,31-59.7,36.7C91.2,149,73.4,149.9,63.9,148.7L63.9,148.7z M67,130.3 c-3-3.4-2.6-4,2.2-4c5.2,0,6.1-1.6,7.3-14.1c0.5-4.6,1.5-8.1,2.1-7.7c0.6,0.5,1.1,2,1.1,3.4c0,1.5,0.6,6.2,1.4,10.6l1.4,7.8h6h6 l4.6-10.8c2.6-6.1,4.8-11.2,5.1-11.4c0.4-0.4,0.2,3.2-0.2,8.1c-0.7,8.1-0.6,8.7,2.4,11.6c2.9,2.6,8.7,4,10.2,2.4 c0.4-0.2,1.9-10.2,3.4-21.9c1.5-11.8,3.1-21.4,3.6-21.4s2,2.6,3.2,6c1.6,4.2,2.2,9.1,2.2,17.5c0,10.9,0,11.3,1.6,7.5 c4.6-11.3,2-27.6-6-37.2c-3-3.7-3.7-4-4.4-2.1c-0.6,1.5-2.2,2.1-6.2,2.1c-7.7,0-10.8,3.1-16.3,16.2c-2.5,6.2-4.8,11.1-5.1,10.8 s-1.2-5.5-2.2-11.6c-3.1-18.2-2.2-16.7-9.7-16.7c-7.6,0-11.4,2.1-12.7,7.1c-0.5,2-2.1,11.3-3.7,20.9s-3.4,18.9-3.9,20.9 c-0.6,2.5-0.4,3.4,1,3.4c1,0,2.9,1.1,4.1,2.5c1.2,1.4,2.5,2.5,2.9,2.5C68.8,132.5,68.2,131.5,67,130.3z M55.1,110.6 c-0.6-2.6-1.1-3.7-1.2-2.4c-0.1,3,1.2,8.3,1.9,7.7C56.1,115.7,55.7,113.2,55.1,110.6z"></path> <path class="st5" d="M137,101.5c0-2.4,3.7-4.1,7.1-3.2l3.5,0.9l-3.1,1.6C141,102.8,137,103.2,137,101.5z"></path> </g> <path class="st6" d="M84.8,140.1c-5.2-1.6-11.7-5.2-15.2-8.6c-4.2-3.9-4.4-5-0.6-4.7c5.8,0.5,6.8-1.1,7.8-12.6 c1-12.1,2.1-10.8,3.6,4l0.9,8.1h7.1h7l4.2-10.6c2.4-5.8,4.4-10.6,4.5-10.6s0,3.9-0.4,8.5c-0.5,8.2-0.4,8.7,3,11.3 c2.2,1.7,4.8,2.6,7.2,2.4l3.9-0.4l2.7-20.5c1.5-11.3,2.7-20.8,2.9-21.1c0-0.4,1,1.1,2.1,3.1c3.1,5.7,3.6,20.1,1,28.1 c-3.2,9.5-13.9,20-23,22.8C96.4,141.3,89.9,141.6,84.8,140.1z"></path> <path class="st6" d="M58.7,113.4c-0.9-3.4-1.4-8.7-0.9-13.1c2.4-26.2,27.9-42.5,49.4-31.5c7.1,3.6,9.5,6.5,5.1,6.5 c-4.7,0-10.9,7.1-15,17.2c-2.2,5.2-4.1,9.7-4.4,9.9c-0.1,0.2-1-4.2-1.7-9.9c-2.9-20-2-18.4-9.1-18.4c-7.7,0-12.8,2.6-14.4,7.5 c-0.7,2-2.4,10.3-3.5,18.4C61.4,119.3,60.8,120.7,58.7,113.4z"></path> <g> <path class="st3" d="M177,117.9c-0.8,0-1.5-0.2-2.2-0.5c-0.7-0.3-1-0.8-1-1.5V91.1c0-1.2,0.3-2,1-2.5c0.7-0.5,1.4-0.7,2.2-0.7 c0.8,0,1.4,0.1,1.9,0.2c0.5,0.1,1,0.4,1.5,0.9c0.5,0.5,1,1.2,1.5,2.2l4.2,7.4l4.2-7.4c0.6-1,1.1-1.7,1.5-2.2 c0.5-0.5,0.9-0.7,1.5-0.9c0.5-0.1,1.2-0.2,2-0.2c0.8,0,1.6,0.2,2.2,0.7c0.7,0.5,1,1.3,1,2.5v24.8c0,0.7-0.3,1.1-1,1.5 c-0.7,0.3-1.4,0.5-2.2,0.5c-0.8,0-1.5-0.2-2.2-0.5c-0.7-0.3-1-0.8-1-1.5v-15.4l-3.9,6.7c-0.3,0.4-0.6,0.7-1,0.9 c-0.4,0.2-0.8,0.3-1.2,0.3c-0.4,0-0.7-0.1-1.1-0.2c-0.4-0.2-0.7-0.5-0.9-0.9l-3.9-7.1v15.8c0,0.7-0.3,1.1-1,1.5 C178.5,117.7,177.8,117.9,177,117.9z"></path> <path class="st3" d="M213.2,118.1c-1.9,0-3.7-0.3-5.3-0.9c-1.6-0.6-2.8-1.7-3.7-3.1c-0.9-1.4-1.4-3.3-1.4-5.7V89.8 c0-0.7,0.3-1.2,1-1.5c0.7-0.3,1.4-0.5,2.2-0.5c0.8,0,1.5,0.2,2.2,0.5c0.7,0.3,1,0.8,1,1.5v18.6c0,1.4,0.3,2.4,1,3.1 c0.7,0.7,1.7,1,2.9,1c1.2,0,2.2-0.3,2.9-1c0.7-0.7,1-1.7,1-3.1V89.8c0-0.7,0.3-1.2,1-1.5c0.7-0.3,1.4-0.5,2.2-0.5 c0.8,0,1.5,0.2,2.2,0.5c0.7,0.3,1,0.8,1,1.5v18.6c0,2.4-0.5,4.2-1.4,5.7c-0.9,1.4-2.2,2.4-3.7,3.1 C216.9,117.8,215.1,118.1,213.2,118.1z"></path> <path class="st3" d="M230.6,117.9c-0.7,0-1.3-0.2-1.9-0.5c-0.6-0.3-0.9-0.8-0.9-1.5V89.8c0-0.7,0.3-1.2,1-1.5 c0.7-0.3,1.4-0.5,2.2-0.5c0.8,0,1.5,0.2,2.2,0.5c0.7,0.3,1,0.8,1,1.5v22.5h9.4c0.6,0,1.1,0.3,1.4,0.9c0.3,0.6,0.5,1.2,0.5,1.9 c0,0.7-0.2,1.3-0.5,1.9c-0.3,0.6-0.8,0.9-1.4,0.9H230.6z"></path> <path class="st3" d="M253,117.9c-0.8,0-1.5-0.2-2.2-0.5c-0.7-0.3-1-0.8-1-1.5V93.6h-5.7c-0.6,0-1.1-0.3-1.4-0.9 c-0.3-0.6-0.5-1.3-0.5-2c0-0.7,0.2-1.3,0.5-1.9c0.3-0.6,0.8-0.9,1.5-0.9h17.7c0.7,0,1.2,0.3,1.5,0.9c0.3,0.6,0.5,1.2,0.5,1.9 c0,0.8-0.2,1.4-0.5,2c-0.3,0.6-0.8,0.9-1.4,0.9h-5.7v22.3c0,0.7-0.3,1.1-1,1.5C254.6,117.7,253.8,117.9,253,117.9z"></path> <path class="st3" d="M269.6,117.9c-0.8,0-1.5-0.2-2.2-0.5c-0.7-0.3-1-0.8-1-1.5V89.8c0-0.7,0.3-1.2,1-1.5c0.7-0.3,1.4-0.5,2.2-0.5 c0.8,0,1.5,0.2,2.2,0.5s1,0.8,1,1.5v26.1c0,0.7-0.3,1.1-1,1.5C271.1,117.7,270.4,117.9,269.6,117.9z"></path> <path class="st3" d="M286.2,118.1c-1.5,0-2.9-0.3-4.1-0.9c-1.3-0.6-2.3-1.5-3-2.7c-0.7-1.2-1.1-2.9-1.1-5V96.4c0-2.1,0.4-3.7,1.1-5 c0.8-1.2,1.8-2.2,3-2.7c1.3-0.6,2.6-0.9,4.1-0.9c1.8,0,3.3,0.3,4.5,0.9c1.2,0.6,2.1,1.4,2.7,2.5c0.6,1,0.9,2.1,0.9,3.2 c0,0.5-0.1,0.9-0.2,1.1c-0.2,0.2-0.4,0.3-0.8,0.3c-0.4,0-0.7-0.1-0.8-0.3c-0.1-0.2-0.2-0.4-0.2-0.6c0-0.5-0.1-1-0.3-1.6 s-0.5-1.2-0.9-1.7c-0.4-0.5-1-1-1.8-1.4c-0.8-0.4-1.8-0.5-3.1-0.5c-2.1,0-3.6,0.5-4.7,1.6c-1.1,1.1-1.6,2.7-1.6,5v13.1 c0,2.3,0.5,3.9,1.6,5c1.1,1.1,2.7,1.6,4.8,1.6c1.3,0,2.3-0.2,3.1-0.5c0.8-0.3,1.3-0.8,1.7-1.3c0.4-0.5,0.6-1.1,0.8-1.7 c0.2-0.6,0.3-1.2,0.3-1.7c0-0.2,0.1-0.5,0.3-0.6c0.2-0.2,0.4-0.2,0.8-0.2c0.4,0,0.6,0.1,0.8,0.3c0.2,0.2,0.2,0.6,0.2,1.1 c0,1.1-0.3,2.2-0.9,3.2c-0.6,1-1.6,1.9-2.8,2.5C289.5,117.8,288,118.1,286.2,118.1z"></path> <path class="st3" d="M298.3,117.9c-0.2,0-0.3,0-0.5-0.1c-0.2-0.1-0.3-0.2-0.4-0.3c-0.1-0.1-0.2-0.3-0.2-0.5c0-0.1,0-0.2,0-0.2 l8.7-28.4c0.1-0.3,0.2-0.5,0.5-0.6c0.2-0.1,0.5-0.2,0.7-0.2s0.5,0.1,0.7,0.2c0.2,0.1,0.4,0.3,0.5,0.6l8.7,28.4c0,0.1,0,0.2,0,0.2 c0,0.1-0.1,0.3-0.2,0.4c-0.1,0.2-0.3,0.3-0.5,0.3c-0.2,0.1-0.4,0.1-0.6,0.1c-0.2,0-0.4,0-0.5-0.1c-0.2-0.1-0.3-0.3-0.3-0.5l-2-6.5 h-11.8l-2,6.5c-0.1,0.2-0.2,0.4-0.3,0.5C298.7,117.8,298.5,117.9,298.3,117.9z M301.8,108.8h10.7l-5.3-17.5L301.8,108.8z"></path> <path class="st3" d="M322.3,117.9c-0.3,0-0.5-0.1-0.7-0.2c-0.2-0.2-0.3-0.4-0.3-0.6V88.7c0-0.3,0.1-0.6,0.3-0.7s0.4-0.2,0.7-0.2 c0.2,0,0.5,0.1,0.7,0.3c0.2,0.2,0.4,0.4,0.6,0.7c0.2,0.3,0.3,0.5,0.4,0.8l11.9,23.4V88.7c0-0.3,0.1-0.5,0.3-0.6 c0.2-0.1,0.4-0.2,0.7-0.2c0.2,0,0.5,0.1,0.7,0.2c0.2,0.1,0.3,0.3,0.3,0.6V117c0,0.3-0.1,0.5-0.3,0.6c-0.2,0.2-0.5,0.2-0.7,0.2 c-0.3,0-0.6-0.2-0.9-0.5c-0.2-0.3-0.5-0.7-0.6-1l-12.1-23.6V117c0,0.3-0.1,0.5-0.3,0.6C322.8,117.8,322.5,117.9,322.3,117.9z"></path> <path class="st3" d="M343.2,117.9c-0.2,0-0.3,0-0.5-0.1c-0.2-0.1-0.3-0.2-0.4-0.3c-0.1-0.1-0.2-0.3-0.2-0.5c0-0.1,0-0.2,0-0.2 l8.7-28.4c0.1-0.3,0.2-0.5,0.5-0.6c0.2-0.1,0.5-0.2,0.7-0.2s0.5,0.1,0.7,0.2c0.2,0.1,0.4,0.3,0.5,0.6l8.7,28.4c0,0.1,0,0.2,0,0.2 c0,0.1-0.1,0.3-0.2,0.4c-0.1,0.2-0.3,0.3-0.5,0.3c-0.2,0.1-0.4,0.1-0.6,0.1c-0.2,0-0.4,0-0.5-0.1c-0.2-0.1-0.3-0.3-0.3-0.5l-2-6.5 H346l-2,6.5c-0.1,0.2-0.2,0.4-0.3,0.5C343.6,117.8,343.4,117.9,343.2,117.9z M346.6,108.8h10.7L352,91.3L346.6,108.8z"></path> <path class="st3" d="M367,117.9c-0.2,0-0.5-0.1-0.7-0.2c-0.2-0.2-0.3-0.4-0.3-0.6V88.7c0-0.3,0.1-0.5,0.3-0.6 c0.2-0.1,0.4-0.2,0.7-0.2c0.2,0,0.5,0.1,0.7,0.2c0.2,0.1,0.3,0.3,0.3,0.6v27.2h12.1c0.2,0,0.4,0.1,0.6,0.3c0.1,0.2,0.2,0.4,0.2,0.7 s-0.1,0.5-0.2,0.7c-0.1,0.2-0.3,0.3-0.6,0.3H367z"></path> </g> </svg> 