<?xml version="1.0" encoding="UTF-8"?> <!-- Generator: Adobe Illustrator 24.0.0, SVG Export Plug-In . SVG Version: 6.00 Build 0) --> <svg xmlns="http://www.w3.org/2000/svg" xmlns:xlink="http://www.w3.org/1999/xlink" version="1.1" id="Layer_1" x="0px" y="0px" viewBox="0 0 400 200" style="enable-background:new 0 0 400 200;" xml:space="preserve"> <style type="text/css"> .st0{fill:#FFFFFF;} </style> <g> <path class="st0" d="M100.6,140.6c-3.2,0-5.8-1.1-7.9-3.3c-2.1-2.2-3.2-4.8-3.2-7.8c0-3.1,1.1-5.7,3.2-7.8c2.1-2.2,4.8-3.2,7.9-3.2 c3,0,5.5,1.1,7.7,3.2c2.2,2.2,3.2,4.8,3.2,7.8c0,3-1.1,5.6-3.2,7.8C106.1,139.5,103.6,140.6,100.6,140.6z"></path> <path class="st0" d="M126.8,139.8c-3.3,0-5.9-0.7-8-2.2c-2.1-1.4-3.1-3-3.1-4.8V78c0-2,1-3.6,3.1-4.9c2.1-1.2,4.7-1.9,8-1.9 c2.7,0,5,0.6,6.9,1.9c1.9,1.2,2.9,2.9,2.9,4.9v3.3c1.3-2.8,3.7-5.3,7.1-7.6c3.4-2.3,7.4-3.4,12.2-3.4c4.4,0,8.5,1.4,12.2,4.1 c3.7,2.7,6.7,6.4,8.9,10.9c2.3,4.6,3.4,9.6,3.4,15.2v32.3c0,2.3-1.2,4-3.5,5.2c-2.4,1.2-4.9,1.7-7.7,1.7c-2.6,0-5.1-0.6-7.5-1.7 c-2.4-1.2-3.6-2.9-3.6-5.2v-32.3c0-1.8-0.5-3.6-1.4-5.2c-0.9-1.6-2.2-3-3.7-4c-1.6-1.1-3.3-1.6-5.3-1.6c-1.5,0-3,0.4-4.5,1.3 c-1.5,0.9-2.7,2.1-3.7,3.7c-1,1.6-1.4,3.5-1.4,5.8v32.3c0,1.7-1.1,3.3-3.3,4.8C132.5,139,129.9,139.8,126.8,139.8z"></path> <path class="st0" d="M220.8,141.2c-7.1,0-13.4-1.3-18.9-3.8c-5.5-2.5-9.8-6.1-12.9-10.7c-3.1-4.6-4.7-9.9-4.7-16v-10.5 c0-5.4,1.5-10.3,4.5-14.8c3-4.5,7-8.1,12-10.9c5-2.7,10.6-4.1,16.7-4.1c5.6,0,10.7,1.2,15.3,3.5c4.7,2.3,8.4,5.5,11.3,9.6 c2.9,4.1,4.3,8.9,4.3,14.3c0,4.3-0.7,7.4-2.1,9.3c-1.4,1.9-3.2,3-5.3,3.5c-2.2,0.4-4.3,0.6-6.6,0.6h-27.8v0.9c0,3.6,1.3,6.4,4,8.6 c2.7,2.2,6.2,3.2,10.7,3.2c3,0,5.5-0.5,7.6-1.4c2.1-0.9,4-1.8,5.6-2.7c1.6-0.9,3.2-1.3,4.8-1.3c1.7,0,3.2,0.6,4.5,1.7 c1.2,1.2,2.2,2.5,2.8,4c0.6,1.5,0.9,2.9,0.9,4c0,1.8-1.1,3.7-3.3,5.8c-2.2,2-5.3,3.7-9.3,5.1C231,140.5,226.3,141.2,220.8,141.2z M206.7,98.6h17.9c1.1,0,1.8-0.2,2.3-0.7c0.5-0.5,0.7-1.4,0.7-2.7c0-1.9-0.5-3.5-1.5-4.8s-2.3-2.3-3.9-2.9 c-1.6-0.6-3.3-0.9-5.1-0.9c-1.7,0-3.4,0.3-5,0.9c-1.6,0.6-2.9,1.6-3.9,2.9s-1.5,2.9-1.5,4.8V98.6z"></path> <path class="st0" d="M280.7,139.8c-9.1,0-16.1-1.9-21-5.8c-4.8-3.9-7.3-10.1-7.3-18.5V48.2c0-2,1.2-3.6,3.6-4.9 c2.4-1.2,4.9-1.9,7.5-1.9c2.8,0,5.4,0.6,7.7,1.9c2.4,1.2,3.5,2.9,3.5,4.9v23h16.3c1.8,0,3.2,0.8,4.1,2.5c0.9,1.7,1.4,3.5,1.4,5.4 c0,2-0.5,3.8-1.4,5.5c-0.9,1.6-2.3,2.4-4.1,2.4h-16.3v28.4c0,2.1,0.4,3.6,1.3,4.4c0.9,0.8,2.4,1.2,4.6,1.2h6.2c3.3,0,5.7,1,7.2,3 c1.5,2,2.3,4.1,2.3,6.4c0,2.4-0.8,4.6-2.3,6.5c-1.5,1.9-3.9,2.9-7.2,2.9H280.7z"></path> </g> </svg> 