<?xml version="1.0" encoding="UTF-8"?> <!-- Generator: Adobe Illustrator 24.0.0, SVG Export Plug-In . SVG Version: 6.00 Build 0) --> <svg xmlns="http://www.w3.org/2000/svg" xmlns:xlink="http://www.w3.org/1999/xlink" version="1.1" id="Layer_1" x="0px" y="0px" viewBox="0 0 400 200" style="enable-background:new 0 0 400 200;" xml:space="preserve"> <style type="text/css"> .st0{fill:#FFFFFF;} </style> <g> <path class="st0" d="M102.6,140.6c-3.2,0-5.8-1.1-7.9-3.3c-2.1-2.2-3.2-4.8-3.2-7.8c0-3.1,1.1-5.7,3.2-7.8c2.1-2.2,4.8-3.2,7.9-3.2 c3,0,5.5,1.1,7.7,3.2c2.2,2.2,3.2,4.8,3.2,7.8c0,3-1.1,5.6-3.2,7.8C108.1,139.5,105.6,140.6,102.6,140.6z"></path> <path class="st0" d="M147.8,141.2c-5.9,0-11.3-1.4-16.2-4.2c-4.9-2.8-8.9-6.6-12-11.2c-3-4.7-4.5-9.7-4.5-15v-10.1 c0-5.4,1.5-10.4,4.4-15c2.9-4.6,6.9-8.3,11.9-11.1c5-2.8,10.5-4.2,16.4-4.2c5.9,0,11.3,1.4,16.3,4.1c5,2.7,9,6.4,12,10.9 c3,4.6,4.5,9.6,4.5,15.2v10.1c0,5.3-1.5,10.2-4.5,14.9c-3,4.7-7,8.4-12,11.3C159.1,139.8,153.7,141.2,147.8,141.2z M147.8,121.8 c1.9,0,3.7-0.5,5.3-1.6c1.6-1.1,2.9-2.4,3.8-4.1c1-1.7,1.4-3.5,1.4-5.4v-10.1c0-1.8-0.5-3.6-1.4-5.2c-1-1.6-2.2-3-3.8-4 c-1.6-1.1-3.3-1.6-5.3-1.6c-1.9,0-3.7,0.5-5.3,1.6c-1.6,1.1-2.8,2.4-3.7,4c-0.9,1.6-1.4,3.4-1.4,5.2v10.1c0,1.9,0.5,3.7,1.4,5.4 c0.9,1.7,2.2,3,3.7,4.1C144.1,121.2,145.9,121.8,147.8,121.8z"></path> <path class="st0" d="M196.3,139.8c-3.2,0-5.8-0.7-7.8-2.2c-2.1-1.4-3.1-3-3.1-4.8V78c0-2,1-3.6,3.1-4.9c2.1-1.2,4.7-1.9,7.8-1.9 c2.8,0,5.1,0.6,7.1,1.9c1.9,1.2,2.9,2.9,2.9,4.9v5.3c1-2.1,2.3-4.2,4.1-6.1c1.8-2,3.8-3.6,6-4.9c2.3-1.3,4.6-1.9,7-1.9h4.2 c2.1,0,4,1,5.5,2.9c1.6,1.9,2.4,4.2,2.4,6.8c0,2.7-0.8,5-2.4,6.9c-1.6,1.9-3.4,2.9-5.5,2.9h-4.2c-2.6,0-5.1,0.9-7.5,2.7 c-2.4,1.8-4.4,4.2-5.9,7.4c-1.5,3.2-2.3,7-2.3,11.4v21.6c0,1.7-1.1,3.3-3.3,4.8C202.2,139,199.5,139.8,196.3,139.8z"></path> <path class="st0" d="M264.6,171c-5.7,0-11-0.8-16.1-2.4c-5-1.6-9.1-4-12.2-7.1c-3.1-3.1-4.6-6.9-4.6-11.3c0-3.5,0.9-6.4,2.7-8.9 c1.8-2.5,4.1-4.5,6.9-6c-1.5-1-2.8-2.2-3.7-3.6c-1-1.4-1.4-3.2-1.4-5.3c0-2.7,0.7-4.9,2.1-6.7c1.4-1.8,3.1-3.4,5.3-5 c-3-2.2-5.3-4.9-6.9-8c-1.6-3.1-2.4-6.6-2.4-10.3v-2.2c0-4.7,1.2-8.8,3.7-12.4c2.4-3.6,5.9-6.3,10.4-8.4c4.5-2,9.6-3,15.5-3 c3.1,0,6,0.3,8.8,0.9c2.8,0.6,5.3,1.5,7.5,2.5c1.7-4.2,3.2-7,4.5-8.2c1.2-1.2,2.5-1.9,3.7-1.9c2.7,0,4.8,0.8,6.3,2.3 c1.5,1.5,2.2,3,2.2,4.3c0,0.8-0.2,1.5-0.6,2.2c-0.4,0.7-1,1.4-1.7,2.1c-0.9,0.8-1.8,1.6-3,2.4c-1.1,0.8-2.2,1.8-3.2,2.8 c1.8,1.9,3.2,4.1,4.1,6.5c0.9,2.4,1.4,5,1.4,7.8v2.2c0,4.6-1.3,8.7-3.8,12.3c-2.5,3.6-6.1,6.5-10.6,8.6c-4.5,2.1-9.7,3.2-15.6,3.2 c-3.2,0-6-0.3-8.6-0.9c-0.2,0.4-0.3,0.7-0.4,1c-0.1,0.3-0.1,0.6-0.1,0.9c0,1.3,1,2.3,3.1,2.9c2.1,0.6,4.7,1.1,7.9,1.4 c3.2,0.4,6.6,0.9,10.3,1.6c3.6,0.7,7.1,1.7,10.3,3.2c3.2,1.4,5.9,3.5,7.9,6.3c2.1,2.7,3.1,6.4,3.1,10.9c0,5.7-1.6,10.2-4.8,13.7 c-3.2,3.5-7.3,6-12.2,7.5C275.1,170.2,270,171,264.6,171z M264.2,156.9c2.9,0,5.5-0.8,7.8-2.4c2.4-1.6,3.5-3.7,3.5-6.4 c0-1.6-0.5-3-1.4-4c-0.9-1.1-2.2-1.9-3.7-2.5c-1.6-0.6-3.4-1.1-5.5-1.4c-2.1-0.3-4.2-0.6-6.4-0.9c-1.9,1-3.4,2.2-4.3,3.7 c-1,1.5-1.4,3.2-1.4,4.9c0,3,1.2,5.2,3.5,6.8C258.7,156.1,261.3,156.9,264.2,156.9z M264,107.4c2.5,0,4.5-1,5.9-3.1 c1.4-2.1,2.2-4.7,2.2-8v-2.2c0-3-0.7-5.5-2.1-7.6c-1.4-2.1-3.4-3.2-6.1-3.2c-2.6,0-4.6,1.1-6,3.2c-1.4,2.1-2.1,4.7-2.1,7.6v2 c0,3.2,0.7,5.8,2.1,8C259.3,106.3,261.3,107.4,264,107.4z"></path> </g> </svg> 