<?xml version="1.0" encoding="UTF-8"?> <!-- Generator: Adobe Illustrator 24.0.0, SVG Export Plug-In . SVG Version: 6.00 Build 0) --> <svg xmlns="http://www.w3.org/2000/svg" xmlns:xlink="http://www.w3.org/1999/xlink" version="1.1" id="Layer_1" x="0px" y="0px" viewBox="0 0 400 200" style="enable-background:new 0 0 400 200;" xml:space="preserve"> <path d="M60.8,176.8c0-0.8,3.7-1.6,13.9-3.3c11.7-1.8,13.5-2.3,11.7-3c-1.3-0.4-2.2-1.1-2.2-1.5c0-0.3-0.4-0.4-0.9-0.1 c-0.5,0.4-0.6,0.2-0.2-0.5c0.5-0.8,0.3-0.9-0.7-0.5c-0.9,0.4-1.2,0.2-0.8-0.4c0.4-0.6,0.2-0.7-0.8-0.4c-0.9,0.4-1.2,0.2-0.8-0.4 c0.4-0.6,0.2-0.7-0.7-0.4c-0.8,0.3-1.3,0.2-1.1-0.5c0.1-0.5-0.5-0.9-1.2-0.9c-0.8,0.1-1.2-0.2-0.9-0.7s0-0.6-0.9-0.3 c-0.7,0.3-1.2,0.2-0.9-0.2c0.4-0.6-8.3-7.9-9.5-7.9c-0.2,0,0.2,0.8,1,1.8c0.9,0.9,0.4,0.7-1-0.5c-1.4-1.3-2.3-2.5-2.2-2.8 c0.2-0.3-0.2-1-0.8-1.6c-0.6-0.5-1.2-0.7-1.2-0.3c0,1.2-4.9-4-8.2-8.7c-4-5.7-5.6-8.7-4.3-7.8c0.7,0.5,0.7,0.2,0-1.3 c-1.3-2.3-2-3.1-1.3-1.3c1,2.7-0.2,1.2-1.7-2.3c-4.6-10.4-7.9-27.9-6.7-35.8c0.2-1.8,0.5-4.5,0.4-6c0-2.1,0.2-2.5,0.8-1.6 c0.6,0.9,0.7,0.3,0.4-2c-0.4-2.4-0.3-2.9,0.4-2c0.7,0.9,0.8,0.5,0.4-1.6c-0.3-1.7-0.2-2.3,0.2-1.7c0.5,0.7,0.9,0,1.6-2.3 c2.7-8.8,10.2-20.8,17.4-27.6l4.1-3.9L61,51c-1.8,2.3-4,5.5-4.9,7.2c-0.9,1.7-2.1,2.8-2.5,2.6c-0.5-0.2-0.5-0.1-0.2,0.4 S53,63.7,52,65.7c-1.2,2.3-2.1,3.4-2.4,2.8c-0.3-0.5-0.2-0.9,0.3-0.9c0.5,0,0.6-0.3,0.4-0.8C50,66.4,50.2,66,50.6,66 c0.5,0,0.6-0.3,0.4-0.8c-0.2-0.4-0.1-0.8,0.4-0.8c0.5,0,0.7-0.3,0.5-0.7c-0.3-0.4,0-0.9,0.5-1.1c0.8-0.3,0.8-0.5,0.1-0.5 c-1.2-0.1-5.8,8.8-8.1,15.6c-2.2,6.4-3.9,16.3-3.9,22.2c0,5.5,1.8,16.3,3.6,21.9c2.8,8.6,12,24.4,13.7,23.4c0.5-0.2,0.2-0.9-0.6-1.6 c-0.8-0.5-1-1.1-0.5-1.1c0.5,0,1.3,0.5,1.9,1.2c2,2.4,1.6,0.4-0.5-2.5c-1.3-1.8-0.6-1.3,1.7,1.3c9.4,10.6,17.8,17.1,29.6,22.8 c8.4,4.1,10.8,4.5,18.5,3.1c2.3-0.5,13.8-2.3,25.3-4c12.5-1.9,21.9-3.7,23-4.4c1-0.6,1.6-0.8,1.3-0.2c-0.4,0.7,0.5,0.8,4,0.4 c5.3-0.7,9.2-3.3,14.1-9.7c1.6-2.2,3.3-4,3.7-4c0.3,0,0.4-0.4,0.2-0.8c-0.2-0.5,0.1-1,0.7-1.3c0.7-0.2,1.1-0.7,0.9-1 c-0.2-0.3,0.2-0.6,0.8-0.6c1.5,0-0.5,2.7-7.6,10.3c-5.2,5.6-5.5,6-3.4,5.6c1.3-0.2,4.9-0.8,7.8-1.3c3.1-0.4,7.6-1.1,10.2-1.6 c2.6-0.5,22.1-3.4,43.4-6.7c84.8-13,75.9-11.7,75.9-10.2c0,0.6-1.3,1.3-3.3,1.6c-1.9,0.3-34.1,5.3-71.7,11.1 c-37.6,5.8-68.8,10.8-69.3,11.3c-0.5,0.4-1.3,0.5-1.6,0.2c-0.4-0.3-0.4-0.2-0.2,0.3c0.3,0.5-0.9,1.9-3.2,3.3 c-17.9,11.5-38.3,14.2-59.8,7.9l-5.3-1.6l-15.3,2.3C60.7,178.3,60.8,178.3,60.8,176.8L60.8,176.8z M130.2,176.3 c3.4-0.5,9.3-1.9,13.1-3.1c8.2-2.7,18.1-8.3,17-9.5c-0.5-0.5-1.6-0.5-2.6-0.2c-1,0.3-2.5,0.5-3.3,0.4c-0.8-0.1-2.7,0.2-4.3,0.8 c-1.6,0.5-3.6,0.9-4.5,0.9c-0.9-0.2-9.5,1-19.2,2.6c-9.7,1.5-18.1,2.7-18.8,2.7c-0.9,0.1-0.9,0.2,0.2,0.9c0.9,0.5,7.2,0.9,15.3,0.9 c13.2,0.2,14.1,0.1,18.9-1.9c2.8-1.1,5.6-1.9,6.2-1.6c0.6,0.2,0.9,0,0.5-0.5c-0.4-0.5-0.1-0.7,0.8-0.3c1.2,0.5,1.2,0.5-0.1,1.2 c-2.3,1.3-22.3,6.1-24.9,6c-2.3-0.2-2.3-0.2,0.6-0.7c2.4-0.5,1.6-0.5-3.9-0.7c-3.8,0-9.8-0.6-13.1-1.3c-5.9-1.1-10.8-0.9-9.4,0.5 c0.9,0.9,10.6,2.3,16.3,2.3c3.6,0,4.2,0.2,2.7,0.7C114.9,177.4,122.8,177.3,130.2,176.3z M94.8,170.2c-0.2-0.4-1.5-0.9-2.7-1.3 c-1.3-0.3-2.2-0.9-2-1.3c0.3-0.4-0.2-0.5-0.9-0.2c-0.8,0.3-1.2,0.2-0.9-0.3c0.5-0.9-4.7-3.6-5.8-2.9c-0.4,0.2-0.6,0.1-0.5-0.3 c0.2-0.5-2-2.2-4.6-3.9s-7.5-5.7-10.8-8.8c-5.9-5.6-7.7-6.7-8.7-5.3c-0.5,0.9,9.9,11.7,10.7,11.2c0.4-0.2,0.9,0.2,1.2,0.8 c0.2,0.7,0.8,1.3,1.3,1.3c0.4,0,2,1,3.6,2.3c4.4,3.5,15.9,9.5,18.4,9.5C94.4,170.9,95.2,170.6,94.8,170.2z M56.4,146.4 c-2.5-3.1-5.2-6.6-5.9-7.6c-2.1-3-0.6-0.1,2.1,3.9c2.3,3.4,7.4,9.4,8,9.4C60.7,152.1,58.8,149.5,56.4,146.4L56.4,146.4z"></path> <path d="M151.6,168.2c0.8-0.7,7-3.6,7-3.2s-5.9,3.5-6.7,3.5C151.6,168.5,151.5,168.4,151.6,168.2z"></path> <path d="M78.3,162.2c-2.7-1.7-3.6-2.9-1.2-1.6c1.7,1,4.5,3.1,4.1,3.2C80.9,163.8,79.6,163,78.3,162.2z"></path> <path d="M71.8,157.6c-2.9-2.4-4.4-3.1-3.4-1.3c0.3,0.5-1.3-0.8-3.4-2.9c-2.3-2.2-3.8-4.1-3.7-4.2c0.2-0.2-0.1-0.9-0.5-1.6 c-0.5-0.7,1.1,0.7,3.7,3.1c2.6,2.3,6.1,5.5,7.8,6.8c1.7,1.4,3,2.5,2.7,2.6C74.7,159.9,73.3,158.9,71.8,157.6L71.8,157.6z M67.9,155 c0-0.2-1.5-1.6-3.3-3.3l-3.4-3.1l3.1,3.4C67.2,155,67.9,155.6,67.9,155L67.9,155z"></path> <path d="M111.5,154.4c-3.7-1.1-8.8-5.6-10.8-9.4c-2.3-4.3-2.1-11,0.2-13.6c2-2.3,7-3.7,10-2.6c7,2.6,8.1,11.9,1.8,16l-2,1.3l2.1,2.2 c1.2,1.3,3,2.3,3.9,2.3c3.9,0,8.9-7,8.9-12.7c0-1.6-2-7.5-4.9-14.4c-2.7-6.4-5.8-13.8-6.9-16.4c-1.5-3.6-2.5-5-4.5-6 c-3.6-1.8-3.7-2-1.7-4.1l1.8-1.9L104.2,80c-6.2-17.8-6.6-21.5-3.1-27.9c4.7-8.5,14.6-11.7,23.5-7.6c9.7,4.5,13.8,17,7.4,22.6 c-4.1,3.7-11.8,2.4-13.9-2.2c-2-4.3-0.9-8.7,2.9-11.9l2-1.8l-2.2-2c-1.2-1.1-3.1-2-4-2c-2.7,0-6.6,4.4-8.1,9.1 c-1.5,4.7-2.1,2.6,7.2,25c5.3,12.9,7,15.6,10.2,16.4c2.3,0.6,2.4,1.7,0.3,2.8c-0.9,0.5-1.6,1.4-1.6,2.1c0,0.7,2.3,8.1,5.1,16.4 c3.2,9.5,5.1,16.4,5.1,18.5c0,3.8-2.3,9.5-4.9,12.2C126.1,154,117.8,156.1,111.5,154.4L111.5,154.4z"></path> <path d="M169.6,148.7c0-0.2,1.2-1.3,2.6-2.6l2.5-2.3l-2.3,2.6C170.2,148.8,169.6,149.4,169.6,148.7z"></path> <path d="M183.5,137.5c1.1-2.3,2.2-4.1,2.3-3.9c0.2,0.2-0.3,1.4-1,2.8c-0.7,1.4-1.1,2.7-0.9,2.9c0.8,0.9,7.4-14.1,9.2-20.9 c1.6-5.8,1.8-8.3,1.7-19.2c-0.1-8.3-0.5-13.8-1.3-16.4c-1.1-3.8-1.1-3.8-0.8,4.9c0.3,7.7-0.5,20.3-2,29.4c-0.3,2.3-0.6,2.7-1.5,2 c-1.4-1.1-1.6,0.9-0.2,2.2c0.6,0.6,0.6,1.5,0.1,3.1c-0.5,1.3-0.9,1.6-0.9,0.9c-0.1-0.8-0.4-1.4-0.9-1.4c-0.4,0-0.5,0.5-0.4,1 c0.4,0.9-5.4,13.8-6.3,13.8c-0.2,0,0.1-1,0.7-2.2c2-3.9,5.1-11.1,4.8-11.1c-0.2,0-1.4,2-2.7,4.5c-1.3,2.4-2.9,5.2-3.5,6 c-0.7,0.9,0.3-1.5,2.3-5.2c4-7.6,6.5-14.5,6.8-18.3c0.1-1.5,0.4-2.5,0.7-2.3c1.8,1.1,1.7-15.7-0.2-22.7c-0.6-2.2-0.5-3.2,0.1-3.9 c0.7-0.6,0.9-0.5,0.5,0.9c-0.3,0.9-0.2,1.9,0.2,2.1c0.3,0.2,0.7,2,0.9,4.1c0.2,5.6,0.9,5.1,0.9-0.9c0-10.8-3.7-23.3-9.6-32.2 c-9.2-13.9-24.3-25.5-40.4-30.9c-3.7-1.3-6.2-2.3-5.5-2.3c2.8,0,12.4,3.4,18.7,6.7c3.7,1.9,5.8,2.7,4.7,1.9c-3.1-2.4-12.1-7-17.8-9 c-2.9-1-4.7-1.9-4.1-1.9c2.5-0.1,14.9,5.2,20.8,8.9c9.2,5.7,19.3,16.2,25.2,26.2c8.8,14.8,12,26.1,12,41.5c-0.2,15.4-3,26.4-9.7,38 C182.9,143,180.5,143.5,183.5,137.5L183.5,137.5z M188.4,121.3c-0.6-0.6-0.9-0.5-0.9,0.3c0,1.6,1,2.7,1.4,1.5 C189.2,122.6,188.9,121.8,188.4,121.3L188.4,121.3z"></path> <path d="M53.1,137.9c-1.5-2.3-0.6-2.7,0.9-0.3c0.7,1.1,1,2,0.7,2C54.4,139.6,53.7,138.9,53.1,137.9L53.1,137.9z"></path> <path d="M51.9,132c-1.1-2.1-2-3.3-2-2.7c0,0.5,0.5,2.1,1.3,3.4c0.7,1.3,0.9,2.1,0.5,1.9c-1-0.6-5-10.7-4.5-11.3 c0.2-0.2,0.4,0.1,0.4,0.7c0,0.9,0.2,0.9,0.9-0.1c0.6-0.9,0.7-0.9,0.3,0.5c-0.5,2,0.4,4.8,1.1,3.5c0.3-0.5,1.5,1.1,2.7,3.4 C55,136.6,54.6,137.1,51.9,132L51.9,132z"></path> <path d="M71.8,133.1c-1.5-0.5-4.1-2.3-5.9-4.1c-3.9-3.9-5-7.8-5-17.4c0-6.7,0.1-6.9,2.3-8.1c3.8-2.2,3.5-7.9-0.5-9.7 c-1.6-0.7-1.7-1.3-1.7-7.7c0-9.5,1.1-13.4,5-17.4c5-5.2,12.4-6.5,19.2-3.4c7.7,3.5,9.5,7.1,9.5,18.8c-0.1,8.3-0.2,8.4-2.4,10.8 c-3,3-3,5.1,0.1,8.1l2.4,2.4l-0.1,8.5c0,8.1-0.2,8.8-2.2,12.2c-1.4,2.2-3.6,4.3-5.6,5.4C82.9,133.8,75.8,134.5,71.8,133.1 L71.8,133.1z M82.3,122.2l2-1.8V98.9V77.4l-2-1.7c-2.6-2.3-6.9-2.3-9-0.2c-0.9,0.9-1.6,2-1.6,2.3c-0.3,4.9,0,41.5,0.4,42.7 C73.2,124,79.1,124.9,82.3,122.2L82.3,122.2z"></path> <path d="M143.7,132.1c0-0.2,0-8.1,0-17.6s0-17.8,0-18.4c0-1.7,1.8-1.4,3.4,0.5c1.3,1.5,1.5,1.6,2.6,0.5c0.7-0.7,1-1.8,0.8-2.4 c-0.7-1.7-8.8-1.8-9.5-0.1c-0.6,1.7-3.7,2.7-5.4,1.8c-1-0.5-1.3-1.4-1.2-3.2c0.2-2.4,0.4-2.5,4.5-2.9l4.2-0.4l0.3-3.1 c0.4-3.8,0.6-4.2,2-2.3c1.3,1.7,3.8,1,3.4-0.9c-0.2-1.1-1.2-1.5-4.4-1.6c-2.5-0.2-4.1,0.1-4.1,0.5c0,1.6-3.1,4-5.3,4 c-2.9,0-4.9-2.2-4.9-5.3c0-3.5,2.3-4.9,8.4-4.9h4.9l-0.2-5.2l-0.2-5.3l4.9-0.2l4.9-0.2L153,85c-0.2,10.9-0.2,24.3-0.1,29.8l0.2,9.9 h4.3c3.6,0,4.7-0.3,6.3-2c1.2-1.1,2-2.8,2-4.1c0-1.9,0.5-2.4,3.9-3.8l3.9-1.6v9.7v9.7h-14.9C150.5,132.5,143.7,132.4,143.7,132.1 L143.7,132.1z"></path> <path d="M206.7,123.7v-8.8l4.9,0.2c2.7,0.2,5.6,0.5,6.5,0.7c3.4,1.1,4.9,8.4,2.7,12.8c-1.3,2.7-4.7,4-10.1,4h-4L206.7,123.7 L206.7,123.7z M217.1,127.3c0.5-0.7,0.9-2.4,0.9-3.8c0-3.4-1.5-5-4.7-5.2l-2.7-0.2l-0.2,4.6c-0.2,2.5-0.1,5.1,0.2,5.6 C211.1,129.7,215.9,129,217.1,127.3L217.1,127.3z"></path> <path d="M224.3,123.8v-8.8h6.3c5.9-0.1,6.3,0.1,6.3,1.6s-0.3,1.6-4.3,1.4c-4.1-0.2-4.3-0.2-4.3,1.7c0,1.7,0.3,1.9,3.9,1.9 c3.4,0,3.9,0.2,3.9,1.6c0,1.3-0.5,1.6-3.9,1.6c-3.8,0-3.9,0-3.9,2.4v2.4l4.3-0.3c4-0.2,4.3-0.2,4.3,1.6c0,1.6-0.3,1.7-6.3,1.7h-6.3 V123.8L224.3,123.8z"></path> <path d="M246.2,123.9v-8.6h2c2,0,2,0.1,2,7.1v7.1l4.3-0.3c4.1-0.3,4.3-0.2,4.3,1.5c0,1.7-0.2,1.8-6.3,1.8h-6.3V123.9z"></path> <path d="M262.8,130.6c-6.1-5.2-2.5-16,5.3-16c5.6,0,8.9,4.8,7.7,11.3C274.7,132.2,267.7,134.7,262.8,130.6L262.8,130.6z M270.8,128.2c1.8-1.9,2.2-4.1,1.3-7c-2.2-6.6-9.5-3.1-8.2,4.1C264.5,129.1,268.3,130.7,270.8,128.2z"></path> <path d="M279.2,131.3c-0.9-0.6-1.7-1.6-1.7-2.3c0-1.6,2.5-1.9,4.1-0.5c2.8,2.3,3.8,0.7,3.8-6.5c0-6.6,0-6.6,2-6.6c2,0,2,0.1,2,7 c0,6-0.2,7.3-1.6,8.6C285.8,132.8,281.7,133,279.2,131.3z"></path> <path d="M293.6,125.3c1.4-4,2.8-7.9,3.1-8.6c0.4-0.9,1.4-1.4,3.1-1.4c2.3,0,2.5,0.2,5.4,8.1c1.6,4.4,2.9,8.2,2.9,8.6 c0,0.3-0.9,0.5-1.9,0.5c-1.4,0-2.1-0.6-2.7-2.3c-0.7-2.1-1.1-2.3-4-2.3s-3.2,0.2-3.6,2.3c-0.4,2-0.9,2.3-2.7,2.3h-2.2L293.6,125.3z M300.7,122c-0.9-3-1.7-2.8-2.5,0.6c-0.5,1.9-0.3,2.1,1.4,2.1C301.5,124.7,301.6,124.6,300.7,122L300.7,122z"></path> <path d="M45.4,119.5c-0.5-1.7-1.1-4.8-1.4-7c-0.2-2.1-0.6-4.9-0.9-6.3c-0.2-1.9-0.2-2,0.4-0.8c0.5,1.1,0.8-0.2,0.8-4.5 c0.1-3.4-0.2-6.1-0.5-6.1c-0.4,0-0.6-1.3-0.6-2.7c0.1-3.1,0.9-3.7,1.5-0.9c0.3,1.4,0.3,1.3,0.5-0.5c0-1.3-0.3-2.9-0.8-3.8 c-0.5-0.9-0.6-1.7-0.4-2c0.2-0.2,0.8,0.4,1.2,1.4l0.8,1.9v-1.8c0.1-1-0.3-2.5-0.8-3.4c-0.5-0.9-0.6-1.8-0.3-2 c0.2-0.2,0.6,0.3,0.9,1.3c0.3,1.4,0.9,0.5,2.3-3.8c3.6-10.6,9.6-20.8,16.5-27.9c2.5-2.6,2.8-2.8,0.9-0.7 c-9.5,11.1-16.5,25.5-19,39.7c-1.3,7.1-2.3,25.4-1.2,21.4c0.5-1.7,0.5-1.3,0.3,2c-0.2,3.1-0.2,3.8,0.4,2.7c0.5-1.2,0.6-0.8,0.4,1.6 c-0.3,2.3-0.2,2.7,0.3,1.6c0.9-1.9,1,0.1,0.2,2.3C46.3,122.3,46.1,122,45.4,119.5L45.4,119.5z"></path> <path d="M266.6,107.4c-7.4-1.6-8.4-13.1-1.4-16.6c2.4-1.2,3.4-1.3,6-0.5c3.8,1,5.6,3.8,5.6,8.6c0,2.6-1.7,7.8-2.6,7.8 c-0.1,0-1.3,0.3-2.5,0.6C270.3,107.7,268,107.7,266.6,107.4L266.6,107.4z M272.6,101.9c0.5-1,1-2.4,1-3.1c0-2.1-1.9-4.9-3.8-5.6 c-2.5-0.9-5.6,2.2-5.6,5.6c0,3.4,3.1,6.5,5.6,5.6C270.9,104.1,272.1,103,272.6,101.9z"></path> <path d="M207.7,106.1c-2-2.2-1.7-4.1,0.6-4.1c1.1,0,2,0.3,2,0.8c0,1.1,2.9,2.4,4.2,1.9c0.7-0.2,1.3-1.2,1.3-2c0-1-1-1.7-3.7-2.5 c-4.6-1.3-6.5-4-5.1-7.1c1.1-2.5,4.4-3.8,7.7-3.2c2.3,0.4,4.9,2.8,4.9,4.5c0,1.2-3.4,0.6-4.9-0.7c-1.2-1-1.8-1.2-2.8-0.5 c-2.3,1.4-1.5,2.9,2.2,3.9c4.8,1.4,5.9,2.9,5.6,7C219.4,107.6,210.3,109,207.7,106.1L207.7,106.1z"></path> <path d="M222.4,98.9c0-8.3,0.1-8.6,1.7-8.6c1.6,0,1.7,0.3,2,8.6l0.2,8.6h-2h-2V98.9z"></path> <path d="M229,98.9v-8.6h2c1.6,0,2.7,1.2,5.6,5.5c2,3.1,3.8,5.5,3.8,5.5c0.1,0,0.2-2.5,0.1-5.5c-0.1-5.2,0-5.5,1.7-5.5 c1.6,0,1.7,0.2,1.7,8.6c0,8.5,0,8.6-1.9,8.6c-1.4,0-2.7-1.2-5.2-5.2l-3.4-5.2l-0.2,5.2c-0.2,5-0.3,5.2-2.1,5.2h-2L229,98.9L229,98.9 z"></path> <path d="M247,98.9v-8.6h5.7c6.1,0,7,0.3,6.3,2c-0.2,0.7-1.6,1.1-4.2,1.1c-3.6,0-3.8,0.2-3.8,2c0,1.8,0.3,2,3.5,2 c3,0,3.5,0.2,3.5,1.6c0,1.3-0.5,1.6-3.5,1.6h-3.5v3.5c0,3.2-0.2,3.5-2,3.5h-2V98.9z"></path> <path d="M279.5,98.9v-8.6h2c1.6,0,2.7,1.2,5.6,5.7l3.8,5.6V96c0-5.4,0.1-5.7,1.8-5.7c1.6,0,1.7,0.2,1.8,8.6v8.6h-2 c-1.6,0-2.7-1.1-5.7-5.7l-3.8-5.6v5.7c0,5.3-0.1,5.6-1.7,5.6C279.5,107.5,279.5,107.3,279.5,98.9z"></path> <path d="M297.5,98.9c0-8.4,0.1-8.6,1.8-8.6c1.6,0,1.7,0.2,1.7,8.6s-0.1,8.6-1.7,8.6C297.5,107.5,297.5,107.3,297.5,98.9z"></path> <path d="M306.1,105.7c-2.7-2.3-3.5-7.7-1.6-11.4c2.4-4.7,8.8-5.8,12.8-2.2c2.3,2.1,2.2,3.7-0.2,3.7c-1.1,0-2-0.4-2-0.8 c0-1.1-3.1-2.2-4.8-1.8c-2.8,0.8-3.9,6.5-1.8,9.5c1.6,2.3,5.8,2.4,6.3,0.2c0.5-1.6,0.9-1.9,2.9-1.1c1.7,0.7,1.6,2.1-0.5,4.1 C314.6,108.2,308.9,108.1,306.1,105.7L306.1,105.7z"></path> <path d="M320.7,106.6c0.2-0.5,1.5-4.5,3-8.6c2.7-7.4,2.8-7.7,5.2-7.7c2.4,0,2.5,0.2,5.6,8.6l3.2,8.6h-2.1c-1.6,0-2.3-0.5-3-2.3 c-0.8-2-1.3-2.3-3.8-2.3c-2.4,0-2.9,0.3-3.6,2.3c-0.6,1.7-1.3,2.3-2.8,2.3C321.2,107.5,320.5,107.1,320.7,106.6z M330.7,99.8 c0-0.3-0.4-1.8-0.9-3.3l-0.9-2.6l-1,2.7c-1.3,3.8-1.3,3.9,0.9,3.9C329.9,100.5,330.7,100.1,330.7,99.8z"></path> <path d="M43.1,100.1c0-2.1,0.2-3,0.3-1.7c0.2,1.2,0.2,2.9,0,3.9C43.2,103.2,43.1,102.3,43.1,100.1z"></path> <path d="M265.3,88.8c-0.9-0.9,0.9-1.6,3.7-1.6c1.9,0,3.1,0.4,3.1,1C272,89,266.2,89.6,265.3,88.8L265.3,88.8z"></path> <path d="M254.5,83.3c-0.2-0.3-2.1-0.5-4.1-0.3c-6.5,0.6-10.1-3.9-8.8-11.1c1.4-7.7,11.8-9.3,15.2-2.3c1.5,3.2,1.5,5.2,0.1,8.5 c-0.8,1.8-0.9,2.9-0.3,3.4c0.9,0.9,0.2,2.5-0.9,2.5C255.2,84,254.7,83.7,254.5,83.3z M249.9,79c-0.6-1.6,1-3,2.3-2 c1.4,1.2,2.3-2.7,1.4-5.4c-0.9-2.6-2.7-3.6-5.2-3.1c-3.8,0.9-4.6,6.6-1.6,10.2C248.3,80.4,250.4,80.6,249.9,79L249.9,79z"></path> <path d="M210.5,82.5c-4.9-2-5.9-10.9-1.9-14.9c4.3-4.3,11.7-2.5,13.5,3.2C224.5,78.8,217.9,85.4,210.5,82.5L210.5,82.5z M216.7,79.1 c0.8-0.5,1.6-2.3,1.9-3.8c1.1-6.9-5.9-9.8-8.4-3.4C208.3,77,212.8,82,216.7,79.1L216.7,79.1z"></path> <path d="M262.3,81.5c-1.9-1.9-2-2.6-2-9.2c0-6.5,0.1-7,1.6-7c1.6,0,1.9,0.9,1.6,7.7c-0.2,4.1,1.6,7.2,4.3,7.2c3.2,0,4.5-3,4.1-9.4 c-0.3-5.2-0.2-5.5,1.5-5.5c1.7,0,1.8,0.2,1.8,7c0,8.8-0.9,10.2-6.8,10.8C264.8,83.4,264.1,83.2,262.3,81.5L262.3,81.5z"></path> <path d="M278.3,74.1v-8.8h6.3c5.7,0,6.3,0.2,6.3,1.6c0,1.7-0.3,1.8-5.2,1.6c-3.1-0.1-3.4,0-3.4,1.9s0.2,2,3.9,2 c3.4,0,3.9,0.2,3.9,1.6c0,1.3-0.5,1.6-3.9,1.6c-3.7,0-3.9,0.2-3.9,2c0,1.9,0.2,2,4.3,2c4,0,4.3,0.2,4.3,1.8c0,1.7-0.2,1.8-6.3,1.7 h-6.3V74.1z"></path> <path d="M295,82.1c-0.9-0.6-1.8-1.8-2-2.7c-0.5-2.2,2.5-2.8,4-0.8c1.5,2.1,5.2,1.8,5.2-0.5c0-1.1-1-1.9-3.8-2.9 c-4.1-1.5-5.2-2.4-5.2-5.1c0-3,2.7-4.9,6.6-4.9c2.9,0,3.8,0.4,5.2,2.2c1.6,1.9,1.6,2.1,0.4,2.3c-0.8,0.2-2.2-0.1-3.1-0.6 c-2.3-1.2-4.6-0.8-4.9,0.9c-0.2,0.9,0.4,1.5,2,1.8c6.3,1.4,8.1,3.4,7,7.8C305.3,83.1,298.4,84.5,295,82.1L295,82.1z"></path> <path d="M314.9,82.7c-1.3-0.3-1.4-1.3-1.4-7.4v-7l-2.7,0.3c-2.4,0.3-2.7,0.1-2.7-1.5c0-1.7,0.2-1.8,7.4-1.8c7.4,0,7.4,0,7.4,1.9 c0,1.6-0.2,1.8-2.7,1.5l-2.7-0.4v7.1c0,3.8-0.2,7.2-0.5,7.4C316.5,82.9,315.6,82.9,314.9,82.7z"></path> <path d="M225.1,73.9v-8.6h5.1c4.1,0,5.4,0.3,6.6,1.6c1.9,1.9,2,4.9,0.4,6.6c-1.1,1.1-1.1,1.5,0.4,4.3c2,4,2,4.8-0.2,4.8 c-1.5,0-2.2-0.7-3.1-3.1c-1-2.7-1.5-3.1-3.7-3.1c-2.4,0-2.5,0.1-2.2,3.1c0.2,2.8,0.1,3.1-1.5,3.1C225.1,82.5,225.1,82.3,225.1,73.9 L225.1,73.9z M232.8,72.6c1.3-0.4,1.7-1,1.6-2.2c-0.3-2.3-5-2.8-5.7-0.5C227.8,72.8,229,73.5,232.8,72.6z"></path> <path d="M324.8,73.9c3.1-8.4,3.3-8.7,5.5-8.4c2,0.2,2.4,0.9,5.2,8.4c1.6,4.5,3.1,8.2,3.1,8.4s-0.9,0.3-2,0.3c-1.4,0-2.2-0.5-2.7-2 c-0.6-1.6-1.3-2-3.9-2c-2.7,0-3.2,0.3-3.6,2c-0.4,1.5-1,2-2.7,2h-2.2L324.8,73.9L324.8,73.9z M332.2,74.9c0-0.4-0.5-1.9-1-3.4 l-1-2.7l-0.9,2.6c-1.3,3.7-1.2,4,1,4C331.4,75.4,332.3,75.2,332.2,74.9z"></path> <path d="M45.7,79.8c-0.8-1.9-0.7-2.2,0.3-1.6c0.6,0.3,0.7-0.1,0.3-1.3c-0.5-1.5-0.4-1.6,0.4-0.9c0.7,0.6,0.7,1.6,0.2,3.1 C46.3,80.9,46.2,81,45.7,79.8L45.7,79.8z"></path> <path d="M186.8,77.7c-0.5-1.4-0.7-2.7-0.5-2.9c0.2-0.2,0.4,0.1,0.4,0.7c0,0.9,0.2,0.9,0.8-0.1c0.6-0.9,0.7-0.5,0.3,1.2 c-0.3,1.8-0.2,2,0.4,1.2c1-1.4,1.2-0.1,0.2,1.4C187.9,80,187.5,79.6,186.8,77.7L186.8,77.7z"></path> <path d="M41.3,78.9c-0.1-1.2,2.3-8.3,2.7-7.9c0.2,0.2-0.4,2.2-1.2,4.5C42,77.9,41.3,79.3,41.3,78.9L41.3,78.9z"></path> <path d="M47.3,75c-0.9-0.9-0.6-2,0.4-1.4c0.6,0.4,0.7,0.2,0.4-0.7c-0.2-0.8-0.2-1.3,0.2-1.3s0.5-0.6,0.2-1.3 c-0.3-1.1-0.2-1.2,0.5-0.5c0.8,0.7,0.7,1.4-0.1,3.4C48.4,74.4,47.7,75.3,47.3,75L47.3,75z"></path> <path d="M184.4,71.5c-0.6-1.5-1.3-2.1-1.6-1.6c-0.6,0.9-3.7-5.3-3.3-6.8c0.2-0.5-0.1-0.9-0.5-0.9c-0.5,0.2-2.2-1.9-3.9-4.5 c-4.3-6.3-16-18.2-17.4-17.8c-0.2,0.1-0.5-0.3-0.5-0.9c0-2.5,14,11.2,20.6,20.1c2.1,2.9,3.2,5.1,2.9,5.9c-0.3,0.9-0.2,1.1,0.4,0.7 c0.9-0.5,5.3,7.1,4.6,7.8C185.6,73.8,185,72.8,184.4,71.5L184.4,71.5z"></path> <path d="M45.2,68.1c0-0.9,2.3-5.2,2.8-5.2c0.2,0-0.2,1.2-0.9,2.6C45.6,68.3,45.2,68.9,45.2,68.1L45.2,68.1z"></path> <path d="M65.2,45.5c0.2-0.5,2.7-3.1,5.6-5.7c2.9-2.5,6-5.4,7-6.3c1-0.9,2-1.5,2.2-1.3c0.2,0.2,0.5,0.1,0.5-0.4 c0-2.2,24-11.3,29.3-11.1c0.9,0-1.3,0.8-5,1.6c-5,1.3-6.3,1.8-5.1,2.3c2.3,0.9,4.2,0.9,2.9,0c-1.4-0.9,4.7-1.6,11.5-1.6l5.2,0.2 l-5.2,0.6c-6.2,0.8-20.4,5.2-19.8,6.1c0.2,0.4-1.3,1.1-3.2,1.6c-4.4,1.3-11,5.2-16.7,9.9c-3,2.4-3.6,2.8-2.1,1.2 c2.4-2.6,3.4-5.2,1.8-4.6c-0.5,0.2-0.9,0.8-0.9,1.4c-0.1,0.6-0.5,1-1,0.9c-0.5-0.2-0.9,0.1-0.9,0.4c0,0.4-1.4,1.8-3.1,3.2 C66.1,45.4,65,46.1,65.2,45.5L65.2,45.5z M82.6,34c3.1-1.9,7.9-4.5,10.6-5.7c2.7-1.3,3.8-2,2.4-1.7c-1.3,0.3-3,0.5-3.8,0.5 c-0.8,0-1.2,0.3-0.9,0.8c0.4,0.6,0.1,0.7-0.8,0.4c-0.9-0.4-1.2-0.2-0.8,0.4c0.4,0.6,0.2,0.7-0.7,0.4c-0.8-0.2-1.3-0.2-1.3,0.3 c0,0.5-0.3,0.5-0.8,0.3c-0.4-0.2-0.8-0.2-0.8,0.2c0,0.5-1.5,1.6-3.3,2.5c-4.5,2.3-7.2,4.5-7.4,6.1c-0.2,1.2-0.1,1.2,0.7,0.2 C76.5,38,79.4,35.9,82.6,34z"></path> <path d="M154.9,38c0.1-0.3-0.7-1.4-1.8-2.4l-2-1.7l2.6,1.7c1.4,0.9,2.3,2,2.1,2.4C155.2,38.8,154.6,38.9,154.9,38z"></path> <path d="M113.5,27.2c0.7-0.2,2-0.2,2.7,0c0.7,0.2,0.1,0.4-1.4,0.4C113.3,27.5,112.7,27.4,113.5,27.2z"></path> <path d="M133.6,26.2c-4.1-1.4-4.1-2.5,0.2-2.3c1.6,0,1.6,0.1,0.2,0.6c-1.3,0.5-1.3,0.7,0.9,1.2c1.4,0.3,2.7,0.9,3,1.3 c0.3,0.4,0.4,0.7,0.2,0.6C138,27.5,136,26.9,133.6,26.2z"></path> <path d="M123,23.8c-2.7-0.5-2.4-0.5,2.3-0.6c3.8-0.1,5.1,0.1,4.3,0.6C128.4,24.7,127.6,24.7,123,23.8z"></path> <path d="M115.3,20.1c1.4-0.2,3.9-0.2,5.5,0c1.6,0.2,0.5,0.3-2.5,0.3C115.3,20.4,114,20.3,115.3,20.1z"></path> </svg> 