<?xml version="1.0" encoding="UTF-8"?> <!-- Generator: Adobe Illustrator 23.0.1, SVG Export Plug-In . SVG Version: 6.00 Build 0) --> <svg xmlns="http://www.w3.org/2000/svg" xmlns:xlink="http://www.w3.org/1999/xlink" version="1.1" id="Layer_1" x="0px" y="0px" viewBox="0 0 200.4 66.5" style="enable-background:new 0 0 200.4 66.5;" xml:space="preserve"> <style type="text/css"> .st0{fill:#525353;} .st1{fill:#FFFFFF;} .st2{fill:#BCBEBF;} .st3{fill:#DDDDDD;} .st4{fill:#EFEDEE;} .st5{fill:#E0E0E0;} .st6{fill:#E2DEDC;} .st7{fill:#919494;} </style> <title>softac</title> <g> <path class="st0" d="M126.24,56.05c-2.08,1.8-4.37,3.38-6.81,4.69c-0.71,0.39-1.44,0.75-2.19,1.09c-4.75,2.17-10.03,3.38-15.6,3.38 c-5.56,0-10.85-1.21-15.6-3.38c-0.74-0.34-1.47-0.7-2.19-1.09c-2.44-1.31-4.73-2.89-6.81-4.69c6.14-6.58,14.89-10.69,24.6-10.69 C111.35,45.36,120.1,49.48,126.24,56.05z"></path> <path d="M120.52,60.14c-0.79,0.46-1.6,0.89-2.42,1.29c-4.97,2.42-10.56,3.78-16.46,3.78c-5.91,0-11.49-1.36-16.46-3.79 c-0.82-0.4-1.63-0.83-2.41-1.29c5.14-4.76,11.71-7.62,18.88-7.62C108.81,52.51,115.39,55.37,120.52,60.14z"></path> <g> <polygon class="st1" points="93.37,46.45 89.11,46.45 85.72,57.05 89.98,57.05 "></polygon> <polygon class="st1" points="109.92,46.45 114.18,46.45 117.57,57.05 113.31,57.05 "></polygon> </g> <path class="st0" d="M128.16,27.85c0,0.1,0,0.2,0,0.29c-0.04,4.11-1.02,7.99-2.73,11.45c-1.73,3.5-4.2,6.56-7.22,8.98 c-4.55,3.65-10.32,5.83-16.61,5.83c-11.31,0-20.96-7.06-24.79-17.02c-1.14-2.96-1.77-6.18-1.77-9.54 c0-14.67,11.89-26.56,26.56-26.56c9.92,0,18.57,5.44,23.13,13.5c0.88,1.55,1.61,3.21,2.16,4.94 C127.72,22.29,128.16,25.01,128.16,27.85z"></path> <g> <path class="st1" d="M118.7,47.87l-0.49,0.71c-4.55,3.65-10.32,5.83-16.61,5.83c-11.31,0-20.96-7.06-24.79-17.02 c0.22-3.32,1.15-6.46,2.64-9.25c3.87-7.25,11.51-12.18,20.3-12.18c3.74,0,7.35,1.37,10.72,3.52l1.38,2.98l1.42,3.68L118.7,47.87z"></path> <path class="st1" d="M128.16,27.85c0,0.1,0,0.2,0,0.29c-0.04,4.11-1.02,7.99-2.73,11.45l-4.01-2.68l-5.25-8.78l-2.21-3.7 c0.56-4.45,4.07-8.59,7.59-8.59c0.19,0,0.38,0.02,0.56,0.05c0.9,0.16,1.8,0.7,2.66,1.45c0.76,0.66,1.48,1.48,2.14,2.37 C127.72,22.29,128.16,25.01,128.16,27.85z"></path> </g> <path d="M114.2,23.19c0,0,0.56-9.97,5.96-10.66c5.39-0.69,7.21,11.79,7.21,11.79L114.2,23.19z"></path> <path class="st2" d="M124.76,17.36v10.78h-8.59l-2.21-3.7c0.56-4.45,4.07-8.59,7.59-8.59C122.61,15.85,123.72,16.45,124.76,17.36z"></path> <path class="st3" d="M113.85,51.42c8.31-1.16,16.55-9.91,16.55-9.91c-3.13-4.41-9.11-13.55-16.59-19.61h0 c-0.67-0.55-1.36-1.07-2.05-1.56c-0.43-0.3-0.86-0.59-1.29-0.87c-0.05,2.38-0.19,5.86-0.51,8.66c-0.01,0.09-0.02,0.17-0.03,0.25 c-0.43,3.52-3.47,9.68-5.02,13.2v0c-0.55,1.25-0.92,2.16-0.92,2.51c0,1.34-0.75,7.44,8.11,7.44c0.11,0,0.22,0,0.34,0 C112.9,51.53,113.38,51.49,113.85,51.42"></path> <path d="M110.46,19.48c-4.66-9.2-13.18-8.68-16.89-7.32c-4.95,1.82-8.84,6.52-8.53,10.78"></path> <path class="st2" d="M103.4,16.39c2.44,0.56,4.8,1.65,7.06,3.09c-0.02,1.19-0.07,2.66-0.16,4.18c-0.08,1.52-0.2,3.09-0.36,4.49 h-6.22H79.45c3.87-7.25,11.51-12.18,20.3-12.18C100.98,15.96,102.2,16.11,103.4,16.39"></path> <path d="M106.49,43.19C102.81,42.43,95.63,38,95.63,38s5.02,6.77,11.79,8.69L106.49,43.19z"></path> <path d="M120.95,38.76l-7.1,12.66l-1.42,0.12c-0.11,0-0.22,0-0.34,0c-8.86,0-8.11-6.1-8.11-7.44c0-0.35,0.36-1.26,0.92-2.51v0 c1.43-3.15,10.1-9.48,10.44-16.1C115.69,18.86,120.95,38.76,120.95,38.76z"></path> <path class="st4" d="M130.4,41.51L130.4,41.51L130.4,41.51c-0.26,0.27-8.37,8.77-16.55,9.91c-2.93-2.25-3.91-4.4-3.39-7.07 c0.34-1.75,1.31-3.72,2.8-6.1c3.76-6.02,3.09-12.04,0.55-16.35h0C121.29,27.97,127.26,37.1,130.4,41.51z"></path> <path class="st5" d="M130.39,41.52L130.39,41.52c-0.26,0.27-8.37,8.76-16.54,9.9c-2.93-2.25-3.91-4.4-3.39-7.07h0 C123.46,46.24,130.22,41.64,130.39,41.52z"></path> <g> <path class="st6" d="M110.46,19.48c-0.03,1.19-0.07,2.66-0.16,4.18c-0.08,1.52-0.2,3.09-0.36,4.49h-6.22l-0.33-3.59v-8.16 C105.84,16.95,108.2,18.04,110.46,19.48z"></path> <path class="st6" d="M128.16,27.85c0,0.1,0,0.2,0,0.29h-6.06V15.91c0.9,0.16,1.8,0.7,2.66,1.45c0.76,0.66,1.48,1.48,2.14,2.37 C127.72,22.29,128.16,25.01,128.16,27.85z"></path> </g> <polygon class="st7" points="106.32,27.39 103.32,17.94 100.99,25.48 91.28,28.14 104.24,30.9 "></polygon> <circle cx="103.4" cy="28.14" r="3.59"></circle> <polygon class="st7" points="124.76,21.25 123.36,27.41 126.17,27.45 "></polygon> <ellipse cx="124.76" cy="28.14" rx="1.46" ry="2.62"></ellipse> <ellipse class="st1" cx="124.76" cy="26.78" rx="0.57" ry="1.02"></ellipse> <circle class="st6" cx="103.4" cy="26.39" r="1.27"></circle> <path class="st1" d="M118.1,57.05v4.38c-4.97,2.42-10.56,3.78-16.46,3.78c-5.91,0-11.49-1.36-16.46-3.79v-4.37L118.1,57.05 L118.1,57.05z"></path> <path class="st1" d="M118.1,57.05v4.38c-4.97,2.42-10.56,3.78-16.46,3.78v-8.16H118.1z"></path> <path class="st5" d="M119.43,60.74c-0.71,0.39-1.44,0.75-2.19,1.09l-0.32-4.1H86.37l-0.32,4.1c-0.74-0.34-1.47-0.7-2.19-1.09 l0.42-4.77h34.73L119.43,60.74z"></path> </g> </svg> 