<?xml version="1.0" encoding="UTF-8"?> <!-- Generator: Adobe Illustrator 24.0.0, SVG Export Plug-In . SVG Version: 6.00 Build 0) --> <svg xmlns="http://www.w3.org/2000/svg" xmlns:xlink="http://www.w3.org/1999/xlink" version="1.1" id="Layer_1" x="0px" y="0px" viewBox="0 0 400 200" style="enable-background:new 0 0 400 200;" xml:space="preserve"> <style type="text/css"> .st0{fill:#98BF16;} .st1{fill:#90BF2F;} .st2{fill:#959697;} .st3{fill:#88898B;} .st4{fill:#808182;} .st5{fill:#5C6351;} </style> <path class="st0" d="M227.5,123.7v-17.5l0.8-0.3c3.6-1.3,12.1-2,15.5-1.3c4.7,1,7,3.2,8,7.8c0.6,2.7,0.6,8.9-0.1,11.4 c-0.9,3.5-2.3,5.6-4.7,6.9c-2.6,1.4-6.8,1.7-10.1,0.7c-0.7-0.2-1.3-0.3-1.4-0.2c-0.1,0.1-0.2,2.4-0.2,5.1v4.9h-3.9h-3.9L227.5,123.7 L227.5,123.7z M241.9,125.1c1.9-0.8,2.7-3.2,2.5-8c-0.2-4.7-1.1-5.9-4.3-6.1c-0.8-0.1-2.2,0.1-3,0.2l-1.5,0.3v6.2 c0,5.8,0,6.3,0.5,6.8c0.3,0.3,0.8,0.6,1.3,0.8C238.5,125.6,240.8,125.5,241.9,125.1z"></path> <path class="st0" d="M207,131.7c-2.2-0.5-4.5-1.7-5.8-3.1c-2.1-2.3-3.3-6.4-3.2-11c0.2-7.4,2.6-11.4,7.9-12.8 c1.4-0.4,2.5-0.5,5.1-0.4c3.9,0.1,5.6,0.4,7.1,1.5c2.9,1.9,3.8,4.4,4,10.5l0.2,4.1h-8.1h-8.1l0.1,1.1c0.4,3.1,2.1,4,6.8,3.8 c1.4-0.1,3.4-0.3,4.4-0.5c1-0.2,1.8-0.3,1.8-0.3c0,0,0.3,1.4,0.6,3l0.6,3l-0.6,0.2C217.3,131.8,209.8,132.3,207,131.7L207,131.7z M215.2,113.7c-0.4-2.8-1.4-3.5-4.6-3.3c-2.7,0.1-3.8,1-4.2,3.4l-0.2,0.9h4.6h4.6L215.2,113.7L215.2,113.7z"></path> <path class="st0" d="M266.4,131.9c-2.7-0.4-5.3-1.7-6.5-3.4c-1.9-2.6-2.6-5-2.6-10.4c0-5.7,0.7-8.2,3-10.7c2-2.1,4.8-3,9.7-3.1 c7.8,0,11.4,2.6,12.5,9c0.4,2.1,0.3,7.7-0.1,9.9c-0.4,1.9-1.4,4.3-2.4,5.4c-0.9,1-2.7,2.1-4.3,2.7 C273.7,131.9,268.8,132.2,266.4,131.9L266.4,131.9z M273.2,124.9c1-0.9,1.3-2.4,1.4-5.7c0.1-3.2-0.2-6-0.8-7.1 c-0.6-1.1-1.8-1.6-4.3-1.6c-2.3,0-3,0.4-3.8,2c-0.5,0.9-0.5,1.5-0.5,5.5c0,4.2,0.1,4.6,0.6,5.8c0.8,1.6,1.6,2,4.4,1.9 C272.3,125.6,272.5,125.6,273.2,124.9L273.2,124.9z"></path> <path class="st0" d="M316,131.8c-3.1-0.6-4.7-2.2-5.5-5.4c-0.3-1.2-0.4-3.3-0.4-8.1v-6.5H308h-2.1v-3.4V105h2.1h2.1v-2v-2l3.9-1.5 l3.8-1.5l0.1,3.5l0.1,3.5h4.1h4.2v3.4v3.4h-4.2H318v5.1c0,5.7,0.2,6.9,1.1,7.7c0.6,0.5,1,0.6,2.5,0.6c1,0,2.3-0.1,2.9-0.3 c0.6-0.1,1.2-0.2,1.2-0.1c0.1,0.1,0.4,1.4,0.7,3c0.5,2.2,0.5,2.9,0.3,3.1C325.5,131.7,318.6,132.3,316,131.8L316,131.8z"></path> <path class="st0" d="M339.3,131.8c-3.3-0.6-5.9-2.2-7.5-4.7c-1.6-2.5-2.2-6-1.9-11c0.3-4.6,1.2-7.1,3.5-9.2c2.1-1.9,4.9-2.7,9-2.7 c8.7,0.1,11.3,2.9,11.6,12.4c0.1,1.7,0.1,3.2,0,3.4c-0.1,0.3-1.7,0.3-8.1,0.3h-8l0.2,1.3c0.4,3.4,2.8,4.2,9.4,3.4 c1.9-0.2,3.5-0.4,3.6-0.3c0.2,0.3,1.1,5.6,0.9,5.8C351,131.5,342.1,132.3,339.3,131.8z M347,114.4c0-1-0.6-2.8-1.2-3.3 c-0.5-0.5-0.9-0.6-2.8-0.7c-1.8-0.1-2.4,0-3.1,0.4c-0.9,0.5-1.6,1.6-1.9,3l-0.2,0.8h4.6C345.2,114.6,347,114.5,347,114.4L347,114.4z "></path> <path class="st0" d="M162.8,113.4V95.4h10.5c6,0,11,0.1,11.8,0.3c4.3,0.8,6.7,3.4,7.3,8.1c0.9,6.6-1.9,11.3-7.4,12.1l-1.2,0.2 l1.1,0.7c0.6,0.4,1.5,1.2,2.1,1.9c1.4,1.7,4.5,6.2,6.6,9.8l1.8,3l-5.2-0.1l-5.2-0.1l-1.7-2.8c-2.9-4.8-4.1-6.5-5.7-8.1 c-1.7-1.7-2.5-2-5.2-1.8l-1.4,0.1L171,125l-0.1,6.4h-4h-4V113.4L162.8,113.4z M181.8,111.3c0.9-0.6,1.3-1.6,1.4-3.7 c0.1-1.6,0-2.1-0.4-3.1c-0.8-1.8-1.4-1.9-7.1-1.9l-4.7,0.1l-0.1,4.3c-0.1,3.1,0,4.3,0.3,4.6C171.7,112.1,180.9,111.9,181.8,111.3 L181.8,111.3z"></path> <path class="st0" d="M288.4,118.2V105h3.9h3.9v0.8c0,0.9,0.3,1,0.9,0.2c1-1.1,2.6-1.6,5.5-1.7l2.7-0.1v3.8v3.7l-1.4-0.2 c-2.7-0.4-5.9,0.2-6.9,1.2c-0.6,0.6-0.6,0.6-0.7,9.6l-0.1,8.9h-3.9h-3.9L288.4,118.2L288.4,118.2z"></path> <path class="st0" d="M78.7,152c-2.8-0.2-5.9-0.6-9-1.3c-1.5-0.3-2.6-0.6-6.4-1.7c-0.3-0.1-0.6-0.2-0.7-0.3l-0.2-0.2l1.5-0.8 c5.1-2.6,9.9-6.2,15.1-11.4c7.7-7.7,14.7-17.9,18.9-27.5c0.6-1.3,1.6-3.9,1.9-4.8c0.1-0.4,0.2-0.6,0.3-0.6c0.1,0,0.2,0.1,1.1,1.7 c0.8,1.4,2.4,4.5,3,6c0.1,0.2,0.3,0.6,0.4,0.9c0.1,0.3,0.2,0.6,0.2,0.7c0,0.1,0,0.2,0.1,0.2c0.1,0.1,1,2.6,1.6,4.3 c1.5,4.5,3,11.4,3.6,16.1c0.3,2.1,0.4,5.7,0.2,7.1c-0.2,1.3-0.5,2.5-1,3.3c-0.8,1.6-3.1,3.3-6.3,4.6c-4.2,1.7-10.9,3.2-17.2,3.8 C84.4,152,80.2,152.1,78.7,152L78.7,152z"></path> <path class="st0" d="M53.6,144.1c-1-0.6-1.8-1.2-1.8-1.2c0,0-0.2-0.1-0.3-0.3c-0.2-0.2-0.4-0.3-0.4-0.3c-0.1,0-0.1-0.1-0.2-0.1 c0-0.1-0.1-0.1-0.2-0.1c-0.1,0-0.2-0.1-0.2-0.1c0-0.1-0.1-0.1-0.2-0.1c-0.1,0-0.2-0.1-0.2-0.2s-0.2-0.2-0.2-0.2s-0.2-0.1-0.2-0.2 c-0.1-0.1-0.2-0.2-0.3-0.2c-0.1,0-0.2-0.1-0.2-0.2c-0.1-0.1-0.2-0.2-0.2-0.2c-0.1,0-0.2-0.1-0.3-0.3c-0.1-0.2-0.3-0.3-0.3-0.3 c-0.1,0-0.2-0.1-0.3-0.3c-0.1-0.2-0.3-0.3-0.3-0.3c-0.1,0-0.3-0.2-0.6-0.5c-0.3-0.3-0.5-0.5-0.6-0.5c-0.1,0-2.5-2.4-2.5-2.5 c0-0.1-0.3-0.4-0.7-0.8c-0.2-0.2-0.4-0.4-0.4-0.4c0-0.1-0.5-0.7-0.9-1.1c-0.1-0.1-0.3-0.4-0.5-0.6c-0.2-0.3-0.4-0.5-0.4-0.5 c0,0-0.3-0.3-0.5-0.7c-0.3-0.3-0.5-0.6-0.5-0.7c0,0-0.4-0.6-0.9-1.2c-5.2-7.2-8.7-15.6-9.8-23.5c-0.1-0.7-0.2-1.3-0.2-1.4 c0,0,0.5,0.3,1.1,0.8c6.4,4.8,13.8,8.4,21,10.4c6.3,1.7,13.5,2.5,20.8,2.3c1.5,0,3-0.1,3.2-0.1c0.2,0,0.7-0.1,1.2-0.1 c2.4-0.2,6.2-0.6,9.4-1.1c1-0.2,1.8-0.3,1.9-0.3c0,0,0,0.2,0.1,0.3c0.1,0.6-2.1,4.6-4,7.3c-2.8,4-7.2,8.6-11.6,12.1 c-4.4,3.5-9.1,6.2-13.2,7.6c-1.3,0.4-3,0.9-3.3,0.9C55.4,145.3,54.6,144.8,53.6,144.1L53.6,144.1z"></path> <path class="st0" d="M114.9,139.5c-0.4-0.4-0.5-1-0.5-3.5c0-3.5-0.2-6.1-0.8-9.5c-1.5-9-5.1-18.6-10.6-27.7c-1-1.7-3.1-4.8-4.1-6.3 c-1-1.4-2.8-3.8-3.1-4.2c-0.1-0.2-0.3-0.4-0.5-0.6c-0.3-0.4-0.7-0.9-0.8-0.9c0,0-0.2-0.2-0.3-0.4c-0.3-0.4-0.3-0.3,1.1-0.5 c3.5-0.5,7.7-0.5,11.4,0c8.2,1,16.6,4.3,24.1,9.3c1.9,1.3,2.9,2,3.1,2.3c0.2,0.3,0.2,1.7,0,4.1c-0.7,11-3.5,19.5-9.2,27.8 c-1.8,2.6-5.1,6.3-7.9,8.7C115.2,139.9,115.3,139.8,114.9,139.5L114.9,139.5z"></path> <path class="st0" d="M67.2,114.1c-0.2,0-0.5-0.1-0.8-0.2c-0.3-0.1-0.9-0.1-1.3-0.1c-0.4,0-1.5-0.1-2.4-0.2c-10.5-1-17.5-3.4-26-8.9 c-0.7-0.4-1.3-0.8-1.4-0.9c-0.1-0.1-0.3-0.2-0.4-0.3c-0.1-0.1-0.3-0.2-0.3-0.2c0,0-0.2-0.1-0.4-0.3c-0.2-0.2-0.4-0.3-0.4-0.3 c-0.1,0-0.1-0.1-0.2-0.1c0-0.1-0.1-0.1-0.2-0.1c-0.1,0-0.2-0.1-0.3-0.2c-0.1-0.1-0.2-0.2-0.3-0.2c-0.1,0-0.3-0.2-0.4-0.4 c-0.2-0.2-0.3-0.4-0.4-0.4c-0.1,0-0.8-0.6-0.7-0.7c0,0-0.1-0.2-0.3-0.5c-0.8-0.9-1.5-2.1-1.8-3.2c-0.2-0.7-0.2-0.9-0.2-2.7 c0-2.2,0.2-3.3,0.8-5.9c1.9-7.5,7-17.7,11.4-22.7c1.4-1.6,3.7-3.9,6.2-6.2l1.4-1.3l0.1,0.3c0.1,0.2,0.1,0.6,0,1.4 c-0.1,1.5-0.1,6.5,0,8.2c0.6,6.9,2,13.2,4.6,19.9c0.3,0.7,0.6,1.5,0.7,1.8c0.1,0.3,0.2,0.5,0.2,0.6c0,0.1,0.1,0.2,0.1,0.3 c0.1,0.1,0.2,0.5,0.4,0.8c0.6,1.4,2.7,5.4,3.4,6.8c2.6,4.6,6,9.4,9.4,13.6c0.5,0.6,0.9,1.2,1,1.3C68.9,113.8,68.1,114.2,67.2,114.1 L67.2,114.1z"></path> <path class="st0" d="M62.4,95c-5.2-9.3-8-17.2-8.7-25.3c-0.2-1.7-0.2-5.3,0-7.1c0.2-2.4,0.7-5.3,1.3-7.5c0.3-1,0.3-1,0.6-1.2 c6.1-3.5,12.5-5.7,19-6.6c2.4-0.3,3.6-0.4,6.6-0.4c2.3,0,3.3,0,4.9,0.2c3.5,0.4,6.7,1,10,1.9c1.7,0.5,4.8,1.5,4.9,1.6 c0.1,0.1-0.1,0.5-0.4,0.6c-0.5,0.2-2.9,1.4-4,2c-6.8,3.9-14,10.6-20.5,19.2c-0.6,0.8-1.3,1.8-2.1,2.9c-2.6,3.8-4.7,7.3-6.7,11.3 c-1.7,3.3-3,6.4-3.9,9.2c-0.1,0.2-0.2,0.4-0.3,0.5C63.1,96.2,62.8,95.8,62.4,95z"></path> <path class="st0" d="M132.5,90c-0.3-0.2-1.5-0.8-2.8-1.5c-8.8-4.4-17.5-6.9-27.7-7.8c-2.7-0.2-10.4-0.2-13.4,0 c-3.7,0.3-7.1,0.7-10.5,1.3c-1.9,0.3-2,0.3-2.2,0.1c-0.1-0.1-0.1-0.3,0.3-1.2c1.4-3.6,3.5-6.9,6.7-10.8c1.3-1.5,4.7-4.9,6.3-6.3 c5.9-5,12.1-8.5,17.2-9.6l1.1-0.2l1.1,0.7c4.3,2.5,8.5,6.1,11.8,10c0.6,0.6,1.1,1.3,1.3,1.5c0.5,0.6,2.5,3.3,3.3,4.4 c1.3,2,2.5,4,3.7,6.3c0.6,1.3,1.3,2.5,1.4,2.8c0.1,0.3,0.2,0.6,0.3,0.7c0.3,0.6,1.5,3.9,2,5.6c0.3,0.9,0.7,3,0.9,4 c0.1,0.3,0,0.3-0.2,0.3C133,90.3,132.7,90.2,132.5,90z"></path> <g> <path class="st1" d="M30.6,97.6c-0.5-1.1-0.5-1.5-0.5-3.6c0-1.7,0-2.1,0.3-3.3c1-5.4,3.6-11.7,7.2-18c1.9-3.3,3.6-5.7,5.7-7.9 c2.1-2.3,5-5,5.4-5.2c0,0,0.1,1.8,0.1,4c0,3.4,0.1,4.3,0.2,5.8c0.2,1.8,0.5,3.9,0.9,5.5c0.2,1,0.3,1.7,0.1,1c0-0.2-0.1-0.4-0.2-0.4 c0,0-0.3,0.1-0.5,0.3c-0.2,0.2-0.4,0.3-0.4,0.3c0,0-0.2,0.1-0.4,0.2c-0.2,0.1-0.3,0.2-0.4,0.2c0,0-0.2,0.1-0.3,0.2 c-0.3,0.2-2.8,1.6-3.8,2.1c-0.2,0.1-0.3,0.2-0.3,0.4c0,0.2-0.1,0.3-0.9,0.8c-1.6,1-3.2,2.4-5.2,4.4c-1.1,1.1-2,2.1-2,2.1 c0,0.1,0.1,0.1,0.1,0.1c0.1,0,0.2,0.1,0.3,0.2c0.1,0.1,0.1,0.2-0.3,0.6c-1,1-1.9,1.4-2.4,1.3c-0.3-0.1-1.1-0.8-1.1-1 c0-0.1,0-0.2-0.1-0.2c0,0-0.1-0.1-0.1-0.2c-0.1-0.2,0-0.2,0.2-0.4c0.6-0.3,0.6-0.3,0.4-1c-0.1-0.3-0.1-0.8-0.1-0.9 c0-0.2,0-0.3-0.1-0.2c-0.2,0.2-1.5,4.5-1.6,5.7c0,0.2-0.1,0.4-0.1,0.6s-0.1,0.4-0.1,0.5c0,0.2-0.1,0.6-0.1,0.9 c-0.2,1.6-0.1,3.8,0.4,5C30.9,98.1,30.8,98.2,30.6,97.6L30.6,97.6z"></path> <path class="st1" d="M32.3,92.4c-0.4-0.3-0.6-0.9-0.8-1.6c-0.1-0.6-0.1-0.7,0.7-0.9c0.6-0.2,1.3-0.2,1.9,0c0.7,0.2,0.7,0.3,0.2,1.3 C33.7,92.6,33,93,32.3,92.4L32.3,92.4z"></path> <path class="st1" d="M129,87.1c-2.7-1.4-5.6-2.5-8.9-3.6c-0.8-0.3-1.5-0.5-1.4-0.5c0,0,0.2,0,0.4,0.1c1.2,0.3,1.2,0.4,0.6-0.4 c-0.3-0.4-0.9-1.2-1.3-1.8c-0.7-1-0.8-1.2-0.7-1.4c0-0.2,0-0.4-0.1-0.4c0,0-0.2-0.3-0.5-0.6c-0.2-0.3-0.4-0.6-0.5-0.7 c-0.1-0.1-0.6-0.7-1.1-1.3c-0.5-0.6-1-1.2-1.1-1.3c-0.2-0.2-0.2-0.5-0.1-0.5c0.1,0,0.1,0,0.1-0.1c0-0.1-2.1-2.2-2.9-2.9 c-0.6-0.5-1.6-1.4-2.1-1.9c-0.4-0.3-0.5-0.5-0.4-0.5c0.1,0,0.2,0,0.2-0.1c0-0.1-0.9-0.8-1.9-1.6c-0.7-0.5-3.7-2.5-3.8-2.5 c0,0-0.2-0.1-0.2-0.2c-0.2-0.2-0.2-0.2,0.2-0.2c0.3,0,0.3-0.1-0.8-0.7c-0.6-0.4-1.5-0.9-2-1.1c-0.5-0.2-0.9-0.5-1-0.5 c-0.1-0.2,0.6-0.1,1,0.1c0.4,0.2,0.7,0.2,0.4,0c-0.3-0.2-1.8-0.8-2.3-1c-0.7-0.2-1.7-0.4-2.9-0.4c-1-0.1-1-0.1,0.7-0.1 c1.4,0,1.7,0,1.7-0.1c0-0.1-0.3-0.2-1-0.2c-0.6-0.1-1.2-0.1-1.3-0.1c-0.3,0-0.3,0-0.1-0.2c0.4-0.4,2.3-1.6,4-2.5 c1.1-0.6,3.3-1.6,3.4-1.6c0,0,0,0.1,0,0.1s0,0.1,0.1,0.1c0.1,0,0.1,0.1,0.1,0.2s0,0.2,0.1,0.2c0.1,0,0.1,0.1,0.1,0.1 c0,0.1,0,0.1,0.1,0.1c0.1,0,0.1,0.1,0.1,0.1s0,0.1,0.1,0.1c0.1,0,0.1,0.1,0.1,0.1s0.1,0.1,0.1,0.1s0.1,0.1,0.1,0.2 c0,0.2,0.5,0.7,0.6,0.6c0,0,0.2-0.1,0.4-0.1c0.2,0,0.4-0.1,0.5-0.1c0.1-0.1,0.4-0.1,0.6-0.1c0.2,0,0.7-0.1,1-0.2 c0.8-0.3,3.3-0.3,4.5,0c0.4,0.1,0.9,0.2,1.1,0.2c0.5,0,1.2,0.3,1.7,0.7c2,1.5,5.1,4.4,7,6.6c3.8,4.4,7.3,10.1,9.3,15.3 c1,2.4,2,5.6,2,6c0,0.1,0,0.1,0,0.1c0,0-0.2-0.6-0.4-1.2l-0.4-1.1l-0.3,0.4c-0.5,0.6-1,1-1.7,1.4c-0.3,0.2-0.6,0.3-0.7,0.4 c-0.1,0.1,0.2,0.3,1,0.7C131.2,88.1,130.7,87.9,129,87.1L129,87.1z M101.5,62.8c-0.2-0.2-0.4-0.2-0.4-0.1c0,0,0.5,0.3,0.6,0.3 C101.7,63,101.6,62.9,101.5,62.8z"></path> <path class="st1" d="M54.3,68.2c0-0.2,0-0.3,0-0.2c0,0.1,0,0.3,0,0.4C54.3,68.5,54.3,68.4,54.3,68.2z"></path> <path class="st1" d="M54.8,68c0-0.2,0-0.7-0.1-1.2c-0.1-0.9,0.1-3.6,0.3-5.5c0.2-1.4,0.6-3.5,1.1-5.4c0.4-1.7,0.5-1.8,0.5-0.9 c0,0.8,0.2,1.7,0.5,1.9c0.1,0.1,0.2,0.2,0.2,0.3c0,0.1,0.1,0.1,0.1,0.1c0.1,0,0.2,0.1,0.2,0.1c0,0.1,0.1,0.1,0.2,0.1 c0.1,0,0.3,0.1,0.5,0.2c0.3,0.2,0.4,0.2,1.8,0.2c1.3,0,1.7,0,2.3-0.2c0.4-0.1,1.1-0.3,1.4-0.3c0.3-0.1,0.7-0.2,0.9-0.3 c0.2-0.1,0.6-0.2,0.9-0.3c0.3-0.1,0.8-0.2,1.1-0.3c0.5-0.2,0.8-0.2,2-0.6c1-0.3,3.2-0.8,4.3-1c1.3-0.2,5.3-0.2,6.5,0 c1.1,0.2,2.6,0.6,4.4,1.1c2.3,0.7,3.2,0.9,4.3,1c1.2,0.1,1.2,0-0.2,1.4c-1.2,1.1-1.7,1.5-1.6,1.3c0,0-0.1-0.1-0.4-0.2 c-1-0.3-3.7-1.2-3.7-1.3c0-0.1,0.3-0.1,1.2,0.2c1,0.3,2.4,0.7,2.5,0.7c0.1,0-4-1.4-4.9-1.6c-0.9-0.3-2.5-0.6-2.9-0.6 c-0.4,0-0.9-0.1-0.9-0.2c0,0,0.3-0.1,0.7-0.1c0.6,0,0.6,0,0.4-0.1c-0.3-0.2-3.8-0.1-4.1,0c-0.2,0.1-0.1,0.1,0.5,0.1 c0.9,0,1,0.2,0.2,0.2c-0.9,0.1-2.5,0.3-3.3,0.5c-1.3,0.3-3.7,1.1-4.1,1.3c-0.3,0.2,0.1,0.1,0.7-0.1c0.6-0.2,1.5-0.5,1.7-0.5 c0.1,0,0.1,0,0.1,0.1c0,0-0.4,0.2-0.8,0.3c-0.5,0.2-0.9,0.3-1.1,0.4c-0.2,0.1-0.5,0.2-0.7,0.3c-0.5,0.2-1.9,0.8-2.7,1.1 c-0.6,0.3-0.7,0.4-0.4,0.4c0.1,0,0.2,0,0.2,0.1c0,0-0.8,0.4-1.7,0.8c-0.9,0.4-1.6,0.8-1.6,0.8s0.3-0.1,0.5-0.2 c0.4-0.2,0.9-0.2,0.8,0c0,0.1-1.1,0.5-2.3,1.1s-2.3,1-2.3,1.1c-0.1,0.1,0,0.1,0.4,0.2l0.5,0L58.8,65c-1.2,0.6-1.7,0.9-2.4,1.5 C55.4,67.3,55,67.7,54.8,68v0.3V68L54.8,68z M61.1,62.8c0.2-0.1,0.3-0.2,0.2-0.2c0,0-0.2,0.1-0.4,0.2c-0.2,0.1-0.3,0.2-0.2,0.2 C60.8,63,61,62.9,61.1,62.8z M67.5,59.2c0.1-0.1,0.2-0.1,0.1-0.1c-0.1,0-0.2,0.1-0.4,0.1s-0.2,0.1-0.1,0.1 C67.1,59.4,67.3,59.3,67.5,59.2z"></path> <path class="st1" d="M54.3,63.6c0-0.2,0-0.3,0-0.2c0,0.1,0,0.2,0,0.3C54.3,63.9,54.3,63.8,54.3,63.6z"></path> <path class="st1" d="M45.1,62.2c0.2-0.2,0.3-0.3,0.4-0.3C45.5,61.9,45.3,62.1,45.1,62.2c-0.1,0.2-0.2,0.3-0.3,0.3 C44.8,62.6,44.9,62.4,45.1,62.2z"></path> <path class="st1" d="M85,46.9c0.1,0,0.2,0,0.3,0c0.1,0,0,0-0.2,0S84.9,46.9,85,46.9z"></path> <path class="st1" d="M81.4,46.8c0.4,0,1,0,1.4,0c0.4,0,0.1,0-0.7,0C81.3,46.8,81,46.8,81.4,46.8z"></path> </g> <g> <path class="st2" d="M78.2,167.4c-7.3-0.5-14.2-2-20.7-4.6c-4.3-1.7-8.8-4.1-12.5-6.5c-0.7-0.5-1.3-0.8-1.3-0.8c0,0-0.1,0-0.1-0.1 c0,0,0-0.1-0.1-0.1c-0.1,0-0.2-0.1-0.3-0.2c-0.1-0.1-0.3-0.2-0.4-0.2c-0.1,0-0.1,0-0.1-0.1c0-0.1-0.1-0.1-0.2-0.2 c-0.1,0-0.3-0.2-0.4-0.3c-0.2-0.2-0.3-0.3-0.4-0.3c-0.1,0-0.1-0.1-0.2-0.1c0-0.1-0.1-0.1-0.2-0.1c-0.1,0-0.2-0.1-0.2-0.1 c0-0.1-0.1-0.1-0.2-0.1c-0.1,0-0.2-0.1-0.2-0.2c-0.1-0.1-0.2-0.2-0.2-0.2c-0.1,0-0.2-0.1-0.2-0.2c-0.1-0.1-0.2-0.2-0.3-0.2 s-0.2-0.1-0.2-0.2c-0.1-0.1-0.2-0.2-0.2-0.2c-0.1,0-0.2-0.1-0.3-0.2c-0.1-0.1-0.2-0.2-0.3-0.2c-0.1,0-0.2-0.1-0.3-0.3 c-0.1-0.2-0.3-0.3-0.3-0.3c-0.1,0-0.2-0.1-0.3-0.3c-0.1-0.2-0.3-0.3-0.3-0.3c-0.1,0-0.3-0.2-0.5-0.4c-0.2-0.2-0.4-0.4-0.4-0.4 c-0.1,0-4-3.9-4-4.1c0,0-0.2-0.3-0.5-0.5c-0.3-0.2-0.5-0.5-0.5-0.5s-0.2-0.2-0.3-0.4s-0.3-0.3-0.3-0.4c0,0-0.1-0.1-0.2-0.2 c-0.1-0.1-0.6-0.6-1.1-1.3c-5.9-7.4-10.1-15.3-12.8-24.2c-0.7-2.3-1.5-5.9-1.8-8.2c-0.1-0.6-0.2-1.2-0.2-1.3 c-0.2-1.2-0.6-5.4-0.7-8.2c0-1.8,0.1-5.6,0.2-7c0-0.2,0.1-0.7,0.1-1.2c0.2-2.7,0.9-7,1.7-10.3c0.8-3.2,2.2-7.2,3.7-10.6 c0.9-2.1,2.9-5.9,4-7.6c2.8-4.4,5.6-8.2,8.7-11.4c0.4-0.4,0.9-1,1.1-1.2c1.6-1.7,4.9-4.5,7.5-6.5c0.8-0.6,4.5-3.1,5.3-3.5 c2.9-1.7,5.4-3,7.8-4.1c0.5-0.2,0.9-0.4,1-0.5c4.5-2,11.1-3.9,16.7-4.7c11.5-1.6,23.9-0.3,34.1,3.8c3.1,1.2,7.6,3.4,9.1,4.4 c0.2,0.1,0.4,0.2,0.4,0.2c0,0,0.6,0.4,1.4,0.8c3.1,1.9,6.4,4.3,9.2,6.7c1.7,1.5,5.2,4.9,6.4,6.2c0.3,0.4,0.8,0.9,0.9,1 c0.6,0.6,2.8,3.4,3.4,4.3c5.1,7.1,8.9,15.2,10.9,23.2c2.7,10.7,2.6,22.6,0,33.2c-1.7,6.8-4.7,13.6-8.5,19.8 c-0.4,0.7-0.9,1.4-0.9,1.5c-0.1,0.1-0.3,0.5-0.5,0.8c-0.2,0.3-0.5,0.7-0.6,0.8c-0.1,0.1-0.6,0.8-1,1.4c-6.2,8.3-14.3,15-23.6,19.8 c-8.3,4.3-16.6,6.6-26.1,7.2C85.6,167.4,79.4,167.4,78.2,167.4L78.2,167.4z M86.2,155.7c5.1-0.3,10.5-1.4,14.9-3 c1.4-0.5,2.8-1,3.1-1.2c0.1,0,0.6-0.3,1.1-0.5c10.3-4.5,19.3-12.3,25.1-21.9c4.5-7.4,7.3-15.7,8.1-23.9c0.1-0.6,0.1-1.4,0.2-1.7 c0.2-1.5,0.1-8.1-0.1-9.6c0-0.2-0.1-0.6-0.1-0.9c0-0.5-0.2-1.8-0.4-2.9c0-0.2-0.1-0.6-0.2-1c-0.1-0.4-0.2-0.9-0.2-1 c-0.3-1.6-1.1-4.7-1.7-6.5c-1.9-5.6-4.6-10.9-8.1-15.5c-0.9-1.2-2.7-3.4-2.8-3.4c-0.1,0-0.1,0,0-0.1c0,0-0.1-0.2-0.3-0.4 c-0.2-0.2-0.4-0.4-0.4-0.4c0,0-0.3-0.3-0.6-0.6c-0.4-0.3-0.7-0.6-0.7-0.7c0-0.1-1.1-1.2-1.2-1.2c-0.1,0-0.4-0.3-0.8-0.7 c-0.3-0.4-0.7-0.7-0.8-0.7c-0.1,0-0.3-0.2-0.4-0.4c-0.2-0.2-0.3-0.4-0.4-0.4c-0.1,0-0.2-0.1-0.3-0.3c-0.1-0.2-0.3-0.3-0.3-0.3 s-0.2-0.1-0.2-0.2s-0.2-0.2-0.2-0.2c-0.1,0-0.2-0.1-0.3-0.2c-0.1-0.1-0.2-0.2-0.3-0.2c-0.1,0-0.1,0-0.1-0.1c0-0.1-0.1-0.1-0.2-0.2 c-0.1,0-0.3-0.2-0.5-0.4c-0.2-0.2-0.4-0.3-0.4-0.3s-0.2-0.1-0.4-0.3c-0.2-0.2-0.4-0.3-0.5-0.4c-0.1-0.1-0.3-0.2-0.5-0.3 c-0.1-0.1-0.3-0.3-0.5-0.3c-0.2-0.1-0.3-0.2-0.3-0.2c0,0-0.1-0.1-0.1-0.1c-0.1,0-0.1,0-0.1-0.1c0,0-0.1-0.1-0.3-0.2 c-0.2-0.1-0.3-0.2-0.4-0.3c-0.2-0.2-2.9-1.8-4.2-2.5c-8.6-4.6-18.4-6.9-28.3-6.7c-8.1,0.2-15.4,1.9-22.6,5.1 c-6.2,2.8-11.5,6.5-16.3,11.3c-2.1,2.1-4.8,5.2-5.9,6.9c-0.1,0.1-0.6,0.8-1.1,1.6c-5.3,7.7-8.4,16.5-9.3,26.1 c-0.2,2-0.2,8.9,0,10.8c0.8,7.7,2.7,13.8,6.1,20.5c2.7,5.2,5.8,9.5,9.9,13.6c3.4,3.4,6.5,5.8,10.3,8.2c7.2,4.4,15.4,7.2,23.2,8 c0.3,0,0.9,0.1,1.4,0.1c0.5,0.1,1.8,0.1,3,0.2c1.2,0,2.1,0.1,2.1,0.1C82.1,155.8,84.9,155.7,86.2,155.7L86.2,155.7z"></path> <path class="st2" d="M79.5,152c-2.8-0.2-5.9-0.6-9-1.3c-1.5-0.3-2.6-0.6-6.4-1.7c-0.3-0.1-0.5-0.2-0.6-0.3c-0.1-0.1-0.1-0.2,0-0.1 c8.6,2.4,12.6,3.1,18.6,3.1c4.4,0,8.2-0.4,13.4-1.5c6.5-1.4,11.1-3.3,13.3-5.5c1.2-1.2,1.8-2.6,2.1-4.9c0.2-1.2,0.1-5.1-0.2-7 c-0.4-2.9-1.2-7-2.1-10.8c-0.2-0.7-0.3-1.3-0.3-1.3c0,0,0.8,3.2,1.3,5.4c1.1,5.1,1.6,8.4,1.6,11.6c0,2.6-0.3,4.4-1.1,6 c-0.8,1.6-3.1,3.3-6.3,4.6c-4.2,1.7-10.9,3.2-17.2,3.8C85.1,152,81,152.1,79.5,152L79.5,152z"></path> <path class="st2" d="M54.3,144.1c-1-0.6-1.8-1.2-1.8-1.2c0,0-0.2-0.1-0.3-0.3c-0.2-0.2-0.4-0.3-0.4-0.3c-0.1,0-0.1-0.1-0.2-0.1 c0-0.1-0.1-0.1-0.2-0.1c-0.1,0-0.2-0.1-0.2-0.1c0-0.1-0.1-0.1-0.2-0.1c-0.1,0-0.2-0.1-0.2-0.2s-0.2-0.2-0.2-0.2 c-0.1,0-0.2-0.1-0.2-0.2c-0.1-0.1-0.2-0.2-0.3-0.2s-0.2-0.1-0.2-0.2c-0.1-0.1-0.2-0.2-0.2-0.2s-0.2-0.1-0.3-0.3 c-0.1-0.2-0.3-0.3-0.3-0.3c-0.1,0-0.2-0.1-0.3-0.3c-0.1-0.2-0.3-0.3-0.3-0.3c-0.1,0-0.3-0.2-0.6-0.5c-0.3-0.3-0.5-0.5-0.6-0.5 s-0.7-0.6-1.4-1.3c-0.7-0.7-1.2-1.3-1.2-1.3c0,0,0.7,0.6,1.5,1.4c2.6,2.6,5.2,4.7,8.1,6.5c1.8,1.2,1.8,1.2,2.5,1 c2.5-0.5,6.1-2,9.1-3.7c4.2-2.4,7.9-5.3,11.8-9.1c4.7-4.6,8.1-9.1,10.3-13.7c0.3-0.6,0.6-1.1,0.6-1.1c0.2,0,0,0.5-0.6,1.8 c-2.3,4.6-5.5,8.9-10.1,13.4c-5.8,5.7-12.3,10-18.1,12c-1.3,0.4-3,0.9-3.3,0.9C56.2,145.3,55.3,144.8,54.3,144.1L54.3,144.1z"></path> <path class="st2" d="M115.8,139.6c-0.1,0-0.1-0.1-0.1-0.1c0-0.1,0-0.1,0.1,0c0.3,0.2,5.3-4.7,7.2-7c7.6-9.1,11.5-19.8,11.9-32.8 c0.1-2.2,0.2-2.7,0.2-0.7c0,3.3-0.5,7.9-1.2,11.4c-1.4,7.1-3.9,13-8.1,19.1c-1.8,2.6-5.1,6.3-7.9,8.7 C116.1,139.8,116.1,139.7,115.8,139.6z"></path> <path class="st2" d="M43.9,135.2c-0.2-0.2-0.3-0.3-0.3-0.3c0.1,0,0.2,0.2,0.4,0.3C44.4,135.6,44.4,135.6,43.9,135.2z"></path> <path class="st2" d="M68,114.1c-0.2,0-0.5-0.1-0.8-0.2c-0.3-0.1-0.9-0.1-1.3-0.1c-0.4,0-1.5-0.1-2.4-0.2c-10.5-1-17.5-3.4-26-8.9 c-0.7-0.4-1.3-0.8-1.4-0.9c-0.1-0.1-0.3-0.2-0.4-0.3c-0.1-0.1-0.3-0.2-0.3-0.2c0,0-0.2-0.1-0.4-0.3c-0.2-0.2-0.4-0.3-0.4-0.3 c-0.1,0-0.1-0.1-0.2-0.1c0-0.1-0.1-0.1-0.2-0.1c-0.1,0-0.2-0.1-0.3-0.2s-0.2-0.2-0.3-0.2c-0.1,0-0.3-0.2-0.4-0.4s-0.3-0.4-0.4-0.4 c-0.1,0-0.3-0.2-0.4-0.3c-0.6-0.6-0.2-0.3,0.8,0.5c1.6,1.4,3.3,2.5,6.5,4.5c2.3,1.4,5.1,2.8,7,3.6c2.4,1,5.6,2,8,2.5 c0.4,0.1,0.9,0.2,1.1,0.3c2,0.5,7.7,1.2,9.9,1.3c0.5,0,1.3,0.1,1.7,0.2c1,0.2,1.3,0.1,1.8-0.3c0.4-0.4,0.4-0.4,0.4-0.1 c0,0.3-0.5,0.8-0.7,0.8c-0.1,0-0.3,0-0.4,0C68.3,114.2,68.1,114.1,68,114.1L68,114.1z"></path> <path class="st2" d="M64.2,95c1.8-5.4,5.1-11.9,9.1-17.9c7.4-11.2,16.3-20,24.9-24.7c1.3-0.7,3.5-1.7,3.6-1.6 c0.1,0.1-0.1,0.4-0.4,0.5c-0.5,0.2-2.9,1.4-4,2c-6.8,3.9-14,10.6-20.5,19.2c-0.6,0.8-1.3,1.8-2.1,2.9c-2.6,3.8-4.7,7.3-6.7,11.3 c-1.7,3.3-3,6.4-3.9,9.2C64.2,96,64,96.2,64,96.2C63.8,96.2,63.9,96,64.2,95L64.2,95z"></path> <path class="st2" d="M133.2,90c-0.3-0.2-1.5-0.8-2.8-1.5c-8.8-4.4-17.5-6.9-27.7-7.8c-2.7-0.2-10.4-0.2-13.4,0 c-3.7,0.3-7.1,0.7-10.5,1.3c-1.7,0.3-2,0.3-2.1,0.2c-0.2-0.2,0.3-0.3,3.2-0.7c10.7-1.7,20.3-1.8,29.4-0.2 c8.3,1.4,16.5,4.3,23.7,8.4c0.5,0.3,0.9,0.4,0.9,0.4c0-0.1-0.2-1.7-0.5-2.9c-0.1-0.5-0.2-1-0.2-1c0.1-0.1,0.9,3.7,0.9,4.1 C134.1,90.4,133.6,90.2,133.2,90z"></path> <path class="st2" d="M51.1,78.6c-1.5-6-2-11.1-1.8-17.1c0.1-2.4,0.2-3.2,0.3-2.9c0,0.1,0,0.7,0,1.3c-0.1,1.5-0.1,6.5,0,8.2 c0.3,4,0.9,7.4,1.8,11.1c0.2,0.8,0.4,1.5,0.3,1.5C51.7,80.7,51.4,79.8,51.1,78.6L51.1,78.6z"></path> </g> <path class="st3" d="M79.5,152c-4.4-0.3-8.6-1.1-14.2-2.7c-1.3-0.4-1.7-0.5-1.6-0.6c0,0,0.7,0.2,1.6,0.4c6.8,1.9,11.3,2.6,16.8,2.6 c4.4,0,8.2-0.4,13.4-1.5c6.5-1.4,11.1-3.3,13.3-5.5c1.2-1.2,1.8-2.6,2.1-4.9c0.2-1.2,0.1-5.1-0.2-7c-0.4-2.9-1.2-7-2.1-10.8 c-0.2-0.7-0.3-1.3-0.3-1.3c0,0,0.8,3.2,1.3,5.4c1.1,5.1,1.6,8.4,1.6,11.6c0,2.6-0.3,4.5-1,5.9c-0.4,0.7-1.9,2.3-2.8,2.9 c-4,2.6-12.1,4.8-20.7,5.6C85.1,152,81,152.1,79.5,152z"></path> <path class="st3" d="M64.1,95.4c0.1-0.4,0.4-1.3,0.8-2.1c2-5.2,4.9-10.8,8.4-16.2c7.8-11.9,17.3-21,26.3-25.4c1.7-0.8,2-1,2-0.8 c0,0.2-0.2,0.3-1.9,1.1c-8.5,4.2-17.1,12.3-24.8,23.2c-4.6,6.6-8.6,14.2-10.6,20.2C64.2,95.8,64.1,96,64,96 C63.9,96,63.9,95.9,64.1,95.4z"></path> <path class="st4" d="M283,89.9c-5.8-0.9-8.8-4.5-9.5-11.2c-0.3-3.3-0.1-7.4,0.6-9.6c0.9-3,2.5-5.1,4.8-6.3c3.2-1.7,10-1.7,13.1-0.1 c3.2,1.6,4.6,4.8,4.9,10.8l0.2,3.2l-9.1,0.1l-9.1,0.1l0,1.6c0,2,0.8,4.4,1.6,5.3c1.4,1.4,2.7,1.8,6,1.8c2.9,0,6.1-0.4,7.1-0.9 c0.3-0.1,0.5-0.2,0.6-0.1c0.1,0.1,0.3,1,0.6,2.2c0.3,1.4,0.4,2,0.2,2.1C291.2,89.8,285.8,90.3,283,89.9L283,89.9z M291.9,71.4 c-0.5-3.7-1.4-5-3.9-5.5c-2.2-0.4-4.5-0.2-6.1,0.6c-1.8,0.9-2.6,2.3-3.1,5.3l-0.2,1h6.7h6.7L291.9,71.4L291.9,71.4z"></path> <path class="st4" d="M162.3,70.7V52l9.5,0c11.5,0.1,13.1,0.3,15.3,2.4c1.5,1.4,2.3,2.8,2.8,5.1c1.1,4.1,0.5,9.7-1.3,12.6 c-0.9,1.4-2.8,3-4.3,3.5c-1.8,0.7-3.4,0.8-10.5,0.8h-6.1v6.4v6.4H165h-2.7V70.7z M181.5,71.2c2.1-1,3.3-3.7,3.1-7.5 c-0.1-3.3-1.1-5.5-2.9-6.4c-0.9-0.5-1.6-0.5-7.4-0.5h-6.4v7.5v7.5h6.3C179.8,71.7,180.4,71.7,181.5,71.2L181.5,71.2z"></path> <path class="st4" d="M196.2,75.8V62.3h2.5h2.5v0.9v0.9l1.2-0.9c1.4-1.1,4.2-1.8,6.8-1.7l1.8,0.1l0.1,2.5l0.1,2.4l-1.5-0.1 c-3.6-0.3-7.6,0.8-8.2,2.3c-0.1,0.4-0.2,5-0.2,10.6v10h-2.5h-2.5V75.8L196.2,75.8z"></path> <path class="st4" d="M215.3,75.8V62.3h2.6h2.6v13.5v13.5h-2.6h-2.6V75.8z"></path> <path class="st4" d="M228.1,76.5V63.7l1.3-0.4c2.3-0.8,6.2-1.5,9.1-1.7c3.2-0.2,5.8,0.3,7.4,1.3c0.8,0.4,1,0.5,1.6,0.2 c1.1-0.5,5.4-1.4,7.6-1.5c2.6-0.2,5.6,0.2,7.2,1c2.4,1.1,3.9,3.8,4.3,7.7c0.1,1.2,0.2,5.9,0.3,10.6l0.1,8.5h-2.5h-2.5v-6.8 c0-7.8-0.3-12.4-0.9-13.8c-0.5-1.2-1.5-1.9-2.9-2.3c-1.3-0.4-6-0.2-7.8,0.3c-1.4,0.3-1.3,0.1-0.7,2.6c0.2,0.7,0.3,5.3,0.4,10.6 l0.2,9.4h-2.7h-2.6v-9c0-11-0.2-12.3-2.4-13.5c-1-0.6-5.8-0.7-7.9-0.3l-1.4,0.3v11.2v11.2h-2.5h-2.5L228.1,76.5L228.1,76.5z"></path> <path class="st4" d="M303.2,75.8V62.3h2.5h2.5v1v0.9l0.6-0.5c1.4-1.3,4.2-2.2,7.1-2.2c2.5,0,2.5-0.1,2.5,2.6v2.3l-2.8,0 c-3.4,0-5.4,0.5-6.5,1.7l-0.8,0.8l-0.1,10.2l-0.1,10.2h-2.5h-2.5V75.8z"></path> <path class="st4" d="M215.5,56.5c-0.4-0.4-0.5-0.9-0.5-2.2c0-2.3,0.4-2.8,2.8-2.8c2.1,0,2.8,0.4,3,1.8c0.2,1.3-0.2,3-0.8,3.4 c-0.3,0.2-1.2,0.3-2.2,0.3C216.4,57,216,56.9,215.5,56.5z"></path> <path class="st4" d="M79.5,152c-3.8-0.3-7.9-1-12.3-2.1c-2.3-0.6-3.2-0.9-3.2-1c0-0.1,0-0.1,1.5,0.3c6.7,1.9,11.2,2.6,16.6,2.6 c4.4,0,8.2-0.4,13.4-1.5c6.5-1.4,11.1-3.3,13.3-5.5c1.2-1.2,1.8-2.6,2.1-4.9c0.2-1.2,0.1-5.1-0.2-7c-0.4-2.9-1.2-7-2.1-10.8 c-0.2-0.7-0.3-1.3-0.3-1.3c0,0,0.8,3.2,1.3,5.4c1.1,5.1,1.6,8.4,1.6,11.6c0,2.6-0.3,4.5-1,5.9c-0.4,0.7-1.9,2.3-2.8,2.9 c-4,2.6-12.1,4.8-20.7,5.6C85.1,152,81,152.1,79.5,152z"></path> <path class="st4" d="M54.7,144.4c-1.5-1-2.9-2-2.9-2.1c0,0,0.2,0.1,0.5,0.3c0.7,0.5,3,2,3.4,2.2c0.3,0.2,0.4,0.2,0.9,0.1 c2.5-0.5,6.1-2,9.1-3.7c4.2-2.4,7.9-5.3,11.8-9.1c4.6-4.6,8-9.1,10.3-13.7c0.4-0.8,0.5-1,0.6-1c0.2,0.2-1.8,4-3.4,6.3 c-2,2.9-4.1,5.4-7.1,8.4c-5.8,5.8-12.4,10.2-18.3,12.2c-1.2,0.4-2.9,0.9-3.3,0.9C56.2,145.3,55.5,144.9,54.7,144.4L54.7,144.4z"></path> <path class="st4" d="M115.9,139.6c0-0.1,0.1-0.2,0.3-0.4c1.9-1.6,5.3-4.9,6.8-6.7c7.6-9.1,11.5-19.8,11.9-32.8c0-1.2,0.1-2,0.1-2 c0.2,0.3,0,4-0.3,7c-1.2,12.3-5.8,22.4-13.9,30.7c-2.1,2.1-4.5,4.4-4.7,4.4C116,139.7,116,139.6,115.9,139.6L115.9,139.6z"></path> <path class="st4" d="M26.7,112.2c0-0.1,0.1-0.1,0.1-0.1c0.1,0,0.2,0.1,0.2,0.1c0,0.1,0,0.1-0.1,0.1 C26.8,112.3,26.7,112.2,26.7,112.2z"></path> <path class="st4" d="M26.4,110.9c-0.5-2.7-0.9-5.1-1-7.7c-0.1-1.3-0.1-1.7,0-1.7c0.2,0,0.1-0.6,0-0.6c-0.1,0-0.1-0.5-0.2-1.7 c0-1.5,0-1.7,0.1-1.7c0.1,0,0.2-0.1,0.2-0.7c0-0.4,0-0.7-0.1-0.7c0,0-0.1-0.2-0.1-0.4c0-0.3,0-0.4,0.1-0.4s0.1-0.1,0.1-0.4 c0-0.2,0-0.4-0.1-0.4c0,0-0.1-0.1-0.1-0.2c0-0.2,0.1-0.2,0.1-0.2c0.1,0,0.1-0.1,0.1-0.3c0-0.2,0-0.3-0.1-0.3c0,0-0.1-0.1-0.1-0.2 c0-0.2,0.1-0.2,0.1-0.2c0.1,0,0.1-0.1,0.1-0.3c0-0.2,0-0.3-0.1-0.3c0,0-0.1-0.1-0.1-0.1s0.1-0.1,0.1-0.1c0.1,0,0.1-0.1,0.1-0.2 c0-0.1,0-0.2-0.1-0.2c0,0-0.1-0.1-0.1-0.2c0-0.1,0.1-0.2,0.1-0.2s0.1-0.1,0.1-0.2c0-0.1,0-0.2-0.1-0.2c0,0-0.1-0.1-0.1-0.1 s0.1-0.1,0.1-0.1c0.1,0,0.1-0.1,0.1-0.2c0-0.1,0-0.2-0.1-0.2c0,0-0.1-0.1-0.1-0.1S25.9,90,26,90c0.1,0,0.1-0.1,0.1-0.1 s0-0.1-0.1-0.1c0,0-0.1-0.1-0.1-0.1s0.1-0.1,0.1-0.1c0.1,0,0.1-0.1,0.1-0.1c0-0.1,0-0.1-0.1-0.1c0,0-0.1-0.1-0.1-0.1 c0-0.1,0.1-0.1,0.1-0.1s0.1-0.1,0.1-0.1c0-0.1,0-0.1-0.1-0.1c0,0-0.1-0.1-0.1-0.1s0.1-0.1,0.1-0.1s0.1,0,0.1-0.1c0,0,0-0.1-0.1-0.1 c0,0-0.1-0.1-0.1-0.1s0.1-0.1,0.1-0.1c0.1,0,0.1,0,0.1-0.1c0,0,0-0.1-0.1-0.1c0,0-0.1-0.1-0.1-0.1c0-0.1,0.1-0.1,0.1-0.1 c0.1,0,0.1,0,0.1-0.1c0,0,0-0.1-0.1-0.1c0,0-0.1,0-0.1-0.1c0,0,0.1-0.1,0.1-0.1c0.1,0,0.1-0.1,0.1-0.1c0-0.1,0-0.1-0.1-0.1 c0,0-0.1,0-0.1-0.1c0,0,0.1-0.1,0.1-0.1s0.1,0,0.1-0.1c0,0,0-0.1-0.1-0.1c0,0-0.1,0-0.1-0.1c0,0,0.1-0.1,0.1-0.1 c0.1,0,0.1,0,0.1-0.1c0,0,0-0.1-0.1-0.1c0,0-0.1-0.1-0.1-0.1s0.1-0.1,0.1-0.1c0.1,0,0.1,0,0.1-0.1c0,0,0-0.1-0.1-0.1 c0,0-0.1,0-0.1-0.1c0,0,0.1-0.1,0.1-0.1c0.1,0,0.1,0,0.1-0.1c0,0,0-0.1-0.1-0.1c0,0-0.1,0-0.1-0.1c0,0,0.1-0.1,0.1-0.1 s0.1,0,0.1-0.1c0,0,0-0.1-0.1-0.1c-0.2,0-0.1-0.2,0.1-0.2c0.1,0,0.1,0,0-0.1c-0.2-0.1-0.2-0.3,0-0.3c0.1,0,0.1,0,0-0.1 c-0.2-0.1-0.2-0.2,0-0.2c0.1,0,0.1,0,0.1-0.1c0,0,0-0.1-0.1-0.1c-0.2,0-0.1-0.2,0.1-0.2c0.1,0,0.1,0,0-0.1c-0.2-0.1-0.2-0.2,0-0.2 c0.1,0,0.1,0,0.1-0.1c0,0,0-0.1-0.1-0.1c0,0-0.1,0-0.1-0.1c0,0,0.1-0.1,0.2-0.1c0.1,0,0.1,0,0-0.1c-0.2-0.1,0-0.9,0.3-0.9 c0.1,0,0.1,0,0-0.1c-0.2-0.1-0.2-0.2,0-0.2c0.1,0,0.1,0,0-0.1c-0.2-0.1-0.2-0.2,0-0.2c0.1,0,0.1,0,0-0.1c-0.2-0.1-0.2-0.2,0-0.2 c0.1,0,0.1,0,0-0.1c-0.2-0.1-0.2-0.2,0-0.2c0.1,0,0.1,0,0-0.1c-0.1-0.1-0.1-0.3,0.3-1.3l0.1-0.2l-0.2,0.2c-0.2,0.3,0.2-0.9,1-2.8 c1.3-3,2.9-6,4.5-8.5c1.2-1.8,3.8-5.2,3.8-5c0,0,0.1,0,0.2-0.1c0.1-0.1,0.2-0.1,0.3-0.1c0.1,0,0.1,0,0.1,0c0,0-0.1-0.1-0.1-0.1 c-0.1,0,0.1-0.3,0.4-0.6c0.4-0.4,0.6-0.6,0.7-0.5c0.2,0.1,0.3-0.1,0.2-0.2c-0.2-0.1,0.6-1,0.9-0.9c0.1,0,0.3-0.1,0.4-0.2 c0.2-0.2,0.2-0.2,0.1-0.3c-0.2-0.1,1.4-1.7,1.7-1.7c0.2,0,0.4-0.1,0.4-0.3c0-0.1,0.1-0.3,0.4-0.5c0.3-0.3,0.5-0.4,0.6-0.4 c0.2,0,0.2,0,0.2-0.1c-0.1-0.2,0.3-0.6,0.4-0.6c0,0,0.2-0.1,0.3-0.3c0.1-0.2,0.3-0.3,0.3-0.3c0.1,0,0.2-0.1,0.3-0.2 c0.1-0.1,0.2-0.2,0.3-0.2c0.1,0,0.2-0.1,0.2-0.2s0.2-0.2,0.2-0.2c0.1,0,0.2-0.1,0.2-0.2c0.1-0.1,0.2-0.2,0.2-0.1c0,0,0.1,0,0.2-0.1 c0.1-0.2,0.2-0.2,0.3-0.1c0.2,0.1,0.2,0.1,0.1-0.1c-0.1-0.2,0-0.2,0.2-0.2c0.2,0,0.2,0,0.2-0.1c0-0.2,0-0.2,0.2-0.1 c0.2,0,0.2,0,0.2-0.1c0-0.1,0-0.2,0-0.2c0.1,0,0.2-0.1,0.2-0.1c0.3-0.3,0.4-0.3,0.5-0.3c0,0,0.1,0,0.1-0.1c0-0.1,0.1-0.1,0.2-0.1 c0.2,0,0.2,0,0.2-0.1c0-0.1,0.3-0.4,0.4-0.4c0.1,0,0.1,0,0.1-0.1c0,0,0.1-0.1,0.1-0.1s0.1,0,0.1-0.1c0,0,0.1-0.1,0.1-0.1 s0.1,0,0.1-0.1c0-0.1,0.3-0.2,0.6-0.4c0.1,0,0.2-0.1,0.2-0.1c0,0,0.1-0.1,0.1-0.1s0.1,0,0.1-0.1c0-0.1,0.1-0.1,0.3,0 c0.3,0,0.3,0,0.2-0.1c0-0.1,0-0.2,0.1-0.2c0.1,0,0.2-0.1,0.3-0.2c0.1-0.1,0.2-0.1,0.4-0.1c0.2,0.1,0.2,0,0.2-0.1 c0-0.1,0-0.2,0.2-0.3c0.2-0.1,0.4-0.2,0.4-0.3c0.1-0.1,0.2-0.1,0.4-0.1c0.2,0,0.3,0,0.2-0.1c-0.1-0.2,0.7-0.7,1-0.6 c0.2,0,0.2,0,0.2-0.1c0-0.1,0.2-0.3,0.9-0.6c0.5-0.3,1-0.5,1.1-0.6s0.3-0.2,0.4-0.2c0.2-0.1,0.5-0.2,0.7-0.3 c0.2-0.1,0.4-0.2,0.5-0.2c0.1,0,0.2-0.1,0.3-0.1c0.1-0.1,0.2-0.1,0.4-0.1c0.1,0,0.2,0,0.2-0.1c0,0,0.1-0.1,0.2-0.1 c0.1,0,0.2,0,0.3-0.1c0.1-0.1,1.1-0.5,1.3-0.5c0.1,0,0.2,0,0.2-0.1c0-0.1,0.3-0.2,0.7-0.2c0.1,0,0.4-0.1,0.7-0.3 c0.5-0.2,0.7-0.3,1.3-0.4c0.4-0.1,0.6-0.2,0.7-0.2c0,0,0.2-0.1,0.5-0.1c0.2,0,0.4-0.1,0.5-0.2c0-0.1,0.1-0.1,0.2,0 c0.1,0,0.2,0,0.2,0c0-0.1,0.2-0.1,0.3-0.1s0.3,0,0.3-0.1c0-0.1,0.1-0.1,0.2-0.1c0.1,0,0.2,0,0.2,0c0-0.1,0.1-0.1,0.2,0s0.2,0,0.2,0 s0.1-0.1,0.2,0c0.1,0,0.2,0,0.2,0c0,0,0.2-0.1,0.4-0.1c0.3,0,0.4,0,0.4-0.1c0-0.1,0.1-0.1,0.2-0.1c0.1,0,0.2,0,0.2-0.1 c0-0.1,0.1-0.1,0.2,0c0.2,0.1,0.2,0.1,0.2,0c0-0.2,0.2-0.2,0.4,0c0.1,0.1,0.1,0.1,0.1,0c0-0.2,0.2-0.2,0.4,0c0.1,0.1,0.1,0.1,0.1,0 c0-0.2,0.2-0.2,0.4,0c0.1,0.1,0.1,0.1,0.1,0c0-0.2,0.3-0.2,0.5,0c0.1,0.1,0.1,0.1,0.1,0c0-0.2,0.3-0.2,0.5,0c0.1,0.1,0.1,0.1,0.1,0 c0-0.2,0.3-0.2,0.5,0c0.1,0.1,0.1,0.1,0.1,0c0-0.2,0.3-0.2,0.4-0.1c0.1,0.1,0.2,0.1,0.2,0c0-0.2,0.3-0.2,0.4,0 c0.1,0.1,0.3,0.1,0.3,0c0-0.2,0.3-0.2,0.4,0c0.1,0.2,0.4,0.1,0.4,0c0-0.2,0.3-0.2,0.6,0c0.2,0.1,0.2,0.1,0.3,0 c0.1-0.2,0.5-0.2,0.6-0.1s0.5,0.1,0.5,0c0-0.2,0.6-0.2,0.7,0c0.1,0.2,0.8,0.1,0.8,0c0-0.1,0.1-0.1,0.5-0.1c0.3,0,0.5,0,0.6,0.1 c0.1,0.1,4,0.1,4,0c0-0.2,1-0.1,1.1,0c0.1,0.2,0.8,0.2,0.8,0c0-0.2,0.7-0.1,0.7,0c0.1,0.2,0.5,0.2,0.5,0s0.6-0.1,0.6,0 c0.1,0.2,0.4,0.2,0.4,0c0,0,0.1-0.1,0.2-0.1c0.2,0,0.2,0.1,0.2,0.1c0,0.1,0.1,0.1,0.2,0.1c0.1,0,0.2,0,0.2-0.1c0,0,0.1-0.1,0.2-0.1 c0.2,0,0.2,0.1,0.2,0.1c0,0.1,0.1,0.1,0.1,0.1s0.1,0,0.1-0.1c0,0,0.1-0.1,0.2-0.1c0.1,0,0.2,0.1,0.2,0.1s0.1,0.1,0.1,0.1 c0.1,0,0.1,0,0.1-0.1c0,0,0.1-0.1,0.2-0.1c0.1,0,0.2,0.1,0.2,0.1s0.1,0.1,0.1,0.1s0.1,0,0.1-0.1c0,0,0.1-0.1,0.2-0.1 c0.1,0,0.2,0.1,0.2,0.1c0,0.1,0,0.1,0.1,0.1c0.1,0,0.1,0,0.1-0.1c0,0,0.1-0.1,0.2-0.1c0.1,0,0.2,0.1,0.2,0.1s0,0.1,0.1,0.1 c0.1,0,0.1,0,0.1-0.1c0-0.2,0.3-0.1,0.4,0.1c0.1,0.1,0.1,0.1,0.1,0c0-0.2,0.4-0.2,0.4,0c0,0.1,0,0.1,0.1,0c0.1-0.2,0.4-0.2,0.4,0 c0,0.1,0,0.1,0.1,0c0.1-0.2,0.4-0.2,0.4,0c0,0.1,0,0.1,0.1,0c0.1-0.2,0.4-0.2,0.4,0c0,0.1,0,0.1,0.1,0c0.1-0.2,0.3-0.2,0.3,0 c0,0.1,0,0.1,0.1,0c0.1-0.2,0.9,0,3.2,0.7c5.5,1.6,11,4.1,15.8,7.3c1.7,1.2,2.4,1.6,2.3,1.8c0,0.1-0.1,0.1-0.1,0 c0-0.1-0.1-0.1-0.2-0.1c0,0-0.1,0-0.1-0.1c0-0.1-0.1-0.2-0.3-0.1c0,0-0.1-0.1-0.1-0.1c0-0.1-0.1-0.1-0.2-0.1c0,0-0.1,0-0.1-0.1 c0-0.1-0.1-0.1-0.1-0.1c0,0-0.1,0-0.2-0.1c-0.1-0.1-0.1-0.2-0.2-0.1c0,0-0.1,0-0.1-0.1c0-0.1-0.1-0.1-0.1-0.1c0,0-0.1,0-0.1-0.1 c0-0.1-0.1-0.1-0.1-0.1c0,0-0.1,0-0.1-0.1c0-0.1-0.1-0.1-0.2-0.1c0,0-0.1,0-0.1,0s0-0.1-0.1,0c-0.1,0-0.1,0-0.2-0.1 c0-0.1-0.1-0.1-0.1-0.1c0,0-0.1,0-0.1-0.1c0-0.1-0.1-0.1-0.1-0.1c0,0-0.1,0-0.1-0.1c0-0.1-0.1-0.1-0.1-0.1c0,0-0.2,0-0.3-0.1 c-0.1-0.1-0.2-0.2-0.3-0.2s-0.2-0.1-0.2-0.1c-0.1-0.1-0.2-0.1-0.2-0.1c-0.1,0-0.2-0.1-0.2-0.1c-0.1-0.1-0.2-0.1-0.2-0.1 c-0.2,0-1.1-0.6-1.1-0.7c0-0.1,0-0.1-0.1,0c0,0-0.8-0.3-1.8-0.8c-7.2-3.6-14.5-5.6-22.8-6.1c-3.4-0.2-5.8-0.1-10.4,0.3 c-0.6,0.1-2.6,0.4-3.8,0.6c-0.6,0.1-1.1,0.2-1.2,0.2c-0.1,0-0.2,0-0.2,0c0,0-0.8,0.2-1.8,0.5c-7.8,2-15.2,5.7-21.5,10.8 c-5,4-9.4,9.1-12.9,14.9C29.7,77,27.3,83.9,26.3,91c-0.4,2.5-0.5,4.1-0.5,7.4c-0.1,4.2,0.1,6.9,0.7,10.4c0.2,1.2,0.2,1.3,0.1,1.3 c-0.1,0-0.1,0,0,0.1c0.2,0,0.3,0.4,0.1,0.4c-0.1,0-0.1,0,0,0.1c0.2,0,0.3,0.4,0.1,0.4c-0.1,0-0.1,0,0,0.1c0.1,0,0.2,0.1,0.2,0.2 c0,0.1,0,0.2-0.1,0.1c-0.1,0-0.1,0-0.1,0.1c0,0.1,0.1,0.1,0.1,0.1c0.2,0,0.2,0.2,0,0.3C26.7,111.9,26.6,111.7,26.4,110.9L26.4,110.9 z M38,63.4c-0.1,0-0.2-0.1-0.2,0c0,0,0,0.1,0.1,0.1C38.1,63.6,38.2,63.5,38,63.4z"></path> <path class="st4" d="M14.4,99.5c0-0.8,0-1.2,0-0.7c0,0.4,0,1.1,0,1.5C14.5,100.6,14.4,100.3,14.4,99.5z"></path> <path class="st4" d="M64,95.7c0.1-0.5,1-2.9,1.6-4.4c1.9-4.7,4.7-9.8,8-14.6c7.7-11.6,17.2-20.6,26-24.9c1.7-0.8,2-1,2-0.8 c0,0.2-0.2,0.3-1.9,1.1c-8.5,4.2-17.1,12.3-24.8,23.2c-4.6,6.6-8.8,14.6-10.6,20.4C64.1,96,63.9,96.1,64,95.7L64,95.7z"></path> <path class="st4" d="M116.7,54.5c-0.1-0.2-0.2-0.2-0.2-0.1c0,0.1,0,0.1-0.2-0.1c-0.1-0.1-0.1-0.2-0.1-0.3c0.1-0.1,0.8,0.5,0.8,0.7 c0,0.1,0,0.1-0.1,0c-0.1-0.1-0.1-0.1-0.1,0C116.9,54.7,116.8,54.6,116.7,54.5z"></path> <g> <path class="st5" d="M79.2,69c0.1-0.2,0.3-0.2,0.3,0C79.5,69,79.4,69.1,79.2,69C79.1,69.1,79.1,69.1,79.2,69L79.2,69z"></path> </g> </svg> 