<?xml version="1.0" encoding="utf-8"?>
<!-- Generator: Adobe Illustrator 27.0.0, SVG Export Plug-In . SVG Version: 6.00 Build 0)  -->
<svg version="1.1" id="Capa_1" xmlns="http://www.w3.org/2000/svg" xmlns:xlink="http://www.w3.org/1999/xlink" x="0px" y="0px"
	 viewBox="0 0 3000 3000" style="enable-background:new 0 0 3000 3000;" xml:space="preserve">
<style type="text/css">
	.st0{fill:#00003E;}
	.st1{fill:#DBFFBB;}
	.st2{fill:#62BE24;}
</style>
<g>
	<g>
		<g>
			<path class="st0" d="M2769.1,823h-342c-23.8,0-43.1-19.3-43.1-43.1V140.3c0-23.8,19.3-43.1,43.1-43.1h342
				c23.8,0,43.1,19.3,43.1,43.1v639.6C2812.2,803.6,2792.9,823,2769.1,823z M2427.1,115c-13.9,0-25.3,11.3-25.3,25.3v639.6
				c0,13.9,11.3,25.3,25.3,25.3h342c13.9,0,25.3-11.3,25.3-25.3V140.3c0-13.9-11.3-25.3-25.3-25.3H2427.1z"/>
		</g>
	</g>
	<g>
		<g>
			<path class="st0" d="M2682.6,749.6c-18.3,0-33.1-14.9-33.1-33.1c0-18.3,14.8-33.1,33.1-33.1c18.3,0,33.1,14.8,33.1,33.1
				C2715.7,734.7,2700.9,749.6,2682.6,749.6z M2682.6,701.2c-8.4,0-15.2,6.8-15.2,15.2s6.8,15.3,15.2,15.3c8.4,0,15.3-6.9,15.3-15.3
				S2691,701.2,2682.6,701.2z"/>
		</g>
	</g>
	<g>
		<g>
			<g>
				<path class="st0" d="M2550.6,209.2c0,7.4-6,13.5-13.5,13.5c-7.4,0-13.5-6-13.5-13.5c0-7.4,6-13.5,13.5-13.5
					C2544.6,195.7,2550.6,201.7,2550.6,209.2z"/>
			</g>
		</g>
		<g>
			<g>
				<path class="st0" d="M2607.6,209.2c0,7.4-6,13.5-13.5,13.5c-7.4,0-13.5-6-13.5-13.5c0-7.4,6-13.5,13.5-13.5
					C2601.5,195.7,2607.6,201.7,2607.6,209.2z"/>
			</g>
		</g>
		<g>
			<g>
				<path class="st0" d="M2664.5,209.2c0,7.4-6,13.5-13.5,13.5s-13.5-6-13.5-13.5c0-7.4,6-13.5,13.5-13.5S2664.5,201.7,2664.5,209.2
					z"/>
			</g>
		</g>
	</g>
	<g>
		<g>
			<g>
				<path class="st0" d="M2688.5,291.4h-180.8c-4.9,0-8.9-4-8.9-8.9c0-4.9,4-8.9,8.9-8.9h180.8c4.9,0,8.9,4,8.9,8.9
					C2697.4,287.4,2693.4,291.4,2688.5,291.4z"/>
			</g>
		</g>
		<g>
			<g>
				<path class="st0" d="M2688.5,361.3h-180.8c-4.9,0-8.9-4-8.9-8.9s4-8.9,8.9-8.9h180.8c4.9,0,8.9,4,8.9,8.9
					S2693.4,361.3,2688.5,361.3z"/>
			</g>
		</g>
		<g>
			<g>
				<path class="st0" d="M2688.5,431.1h-180.8c-4.9,0-8.9-4-8.9-8.9s4-8.9,8.9-8.9h180.8c4.9,0,8.9,4,8.9,8.9
					S2693.4,431.1,2688.5,431.1z"/>
			</g>
		</g>
		<g>
			<g>
				<path class="st0" d="M2688.5,501h-180.8c-4.9,0-8.9-4-8.9-8.9c0-4.9,4-8.9,8.9-8.9h180.8c4.9,0,8.9,4,8.9,8.9
					C2697.4,497,2693.4,501,2688.5,501z"/>
			</g>
		</g>
		<g>
			<g>
				<path class="st0" d="M2688.5,570.9h-180.8c-4.9,0-8.9-4-8.9-8.9c0-4.9,4-8.9,8.9-8.9h180.8c4.9,0,8.9,4,8.9,8.9
					C2697.4,566.9,2693.4,570.9,2688.5,570.9z"/>
			</g>
		</g>
		<g>
			<g>
				<path class="st0" d="M2688.5,640.7h-180.8c-4.9,0-8.9-4-8.9-8.9c0-4.9,4-8.9,8.9-8.9h180.8c4.9,0,8.9,4,8.9,8.9
					C2697.4,636.7,2693.4,640.7,2688.5,640.7z"/>
			</g>
		</g>
	</g>
	<g>
		<g>
			<g>
				<path class="st0" d="M2382.3,754.6h-88.3c-17.5,0-31.7-14.2-31.7-31.7V221.3c0-17.5,14.2-31.7,31.7-31.7h92.6
					c4.9,0,8.9,4,8.9,8.9c0,4.9-4,8.9-8.9,8.9h-92.6c-7.6,0-13.9,6.2-13.9,13.9v501.6c0,7.6,6.2,13.9,13.9,13.9h88.3
					c4.9,0,8.9,4,8.9,8.9C2391.2,750.6,2387.2,754.6,2382.3,754.6z"/>
			</g>
		</g>
		<g>
			<g>
				<path class="st0" d="M2338.1,287.6c0,7.4-6,13.5-13.5,13.5c-7.4,0-13.5-6-13.5-13.5c0-7.4,6-13.5,13.5-13.5
					C2332.1,274.1,2338.1,280.2,2338.1,287.6z"/>
			</g>
		</g>
	</g>
	<g>
		<g>
			<g>
				<path class="st0" d="M2902.3,754.6h-88.4c-4.9,0-8.9-4-8.9-8.9c0-4.9,4-8.9,8.9-8.9h88.4c7.6,0,13.9-6.2,13.9-13.9V221.3
					c0-7.6-6.2-13.9-13.9-13.9h-92.6c-4.9,0-8.9-4-8.9-8.9c0-4.9,4-8.9,8.9-8.9h92.6c17.5,0,31.7,14.2,31.7,31.7v501.6
					C2934,740.3,2919.8,754.6,2902.3,754.6z"/>
			</g>
		</g>
		<g>
			<g>
				<path class="st0" d="M2858.1,287.6c0,7.4,6,13.5,13.5,13.5c7.4,0,13.5-6,13.5-13.5c0-7.4-6-13.5-13.5-13.5
					C2864.1,274.1,2858.1,280.2,2858.1,287.6z"/>
			</g>
		</g>
	</g>
</g>
<g>
	<g>
		<path class="st1" d="M2785.9,1762.5L1717.4,2831c-69.7,69.7-182.8,69.7-252.6,0L396.3,1762.5c-69.7-69.7-69.7-182.8,0-252.6
			L1464.8,441.5c69.7-69.7,182.8-69.7,252.6,0l1068.5,1068.5C2855.6,1579.7,2855.6,1692.8,2785.9,1762.5z"/>
	</g>
</g>
<g>
	<g>
		<g>
			<g>
				<g>
					<path class="st0" d="M1678.7,2235.6c-293,0-604.4-44.8-604.4-127.8v-299.1h17.9v299.1c0,52,240.9,110,586.5,110
						c345.6,0,586.5-58,586.5-110v-299.1h17.9v299.1C2283.1,2190.8,1971.7,2235.6,1678.7,2235.6z"/>
				</g>
			</g>
		</g>
		<g>
			<g>
				<g>
					<path class="st0" d="M1678.7,1936.5c-293,0-604.4-44.8-604.4-127.8c0-21,19.7-40.3,58.6-57.4l7.2,16.4
						c-30.9,13.6-47.9,28.1-47.9,41c0,52,240.9,110,586.5,110c345.6,0,586.5-58,586.5-110c0-13.9-19.5-29.6-54.9-44l6.7-16.5
						c43.8,17.9,66.1,38.2,66.1,60.5C2283.1,1891.6,1971.7,1936.5,1678.7,1936.5z"/>
				</g>
			</g>
		</g>
	</g>
	<g>
		<g>
			<g>
				<g>
					<path class="st0" d="M1678.7,1838.1c-293,0-604.4-44.8-604.4-127.8v-299.1h17.9v299.1c0,52,240.9,110,586.5,110
						c345.6,0,586.5-58,586.5-110v-299.1h17.9v299.1C2283.1,1793.3,1971.7,1838.1,1678.7,1838.1z"/>
				</g>
			</g>
		</g>
		<g>
			<g>
				<g>
					<path class="st0" d="M1678.7,1539c-293,0-604.4-44.8-604.4-127.8c0-17.2,13.2-33.3,39.1-47.8l8.7,15.6
						c-19.6,10.9-29.9,22.1-29.9,32.2c0,52,240.9,110,586.5,110c345.6,0,586.5-58,586.5-110c0-10.4-10.9-21.8-31.5-33l8.5-15.7
						c27.1,14.8,40.8,31.1,40.8,48.7C2283.1,1494.2,1971.7,1539,1678.7,1539z"/>
				</g>
			</g>
		</g>
	</g>
	<g>
		<g>
			<g>
				<path class="st0" d="M1557.1,1727.4c-20.8,0-37.7-16.9-37.7-37.7s16.9-37.7,37.7-37.7c20.8,0,37.7,16.9,37.7,37.7
					S1577.9,1727.4,1557.1,1727.4z M1557.1,1669.9c-10.9,0-19.8,8.9-19.8,19.8s8.9,19.8,19.8,19.8c10.9,0,19.8-8.9,19.8-19.8
					S1568.1,1669.9,1557.1,1669.9z"/>
			</g>
		</g>
		<g>
			<g>
				<path class="st0" d="M1678.7,1727.4c-20.8,0-37.7-16.9-37.7-37.7s16.9-37.7,37.7-37.7c20.8,0,37.7,16.9,37.7,37.7
					S1699.5,1727.4,1678.7,1727.4z M1678.7,1669.9c-10.9,0-19.8,8.9-19.8,19.8s8.9,19.8,19.8,19.8s19.8-8.9,19.8-19.8
					S1689.6,1669.9,1678.7,1669.9z"/>
			</g>
		</g>
	</g>
	<g>
		<g>
			<g>
				<path class="st0" d="M1678.7,2114.4c-20.8,0-37.7-16.9-37.7-37.7c0-20.8,16.9-37.7,37.7-37.7c20.8,0,37.7,16.9,37.7,37.7
					C1716.4,2097.5,1699.5,2114.4,1678.7,2114.4z M1678.7,2056.9c-10.9,0-19.8,8.9-19.8,19.8c0,10.9,8.9,19.8,19.8,19.8
					s19.8-8.9,19.8-19.8C1698.5,2065.7,1689.6,2056.9,1678.7,2056.9z"/>
			</g>
		</g>
		<g>
			<g>
				<path class="st0" d="M1800.3,2114.4c-20.8,0-37.7-16.9-37.7-37.7c0-20.8,16.9-37.7,37.7-37.7c20.8,0,37.7,16.9,37.7,37.7
					C1838,2097.5,1821,2114.4,1800.3,2114.4z M1800.3,2056.9c-10.9,0-19.8,8.9-19.8,19.8c0,10.9,8.9,19.8,19.8,19.8
					c10.9,0,19.8-8.9,19.8-19.8C1820.1,2065.7,1811.2,2056.9,1800.3,2056.9z"/>
			</g>
		</g>
	</g>
	<g>
		<g>
			<g>
				<path class="st0" d="M1678.7,1452c-293,0-604.4-44.8-604.4-127.8V1025h17.9v299.1c0,52,240.9,110,586.5,110
					c345.6,0,586.5-58,586.5-110V1025h17.9v299.1C2283.1,1407.2,1971.7,1452,1678.7,1452z"/>
			</g>
		</g>
	</g>
	<g>
		<g>
			<g>
				<g>
					<g>
						<path class="st0" d="M1678.7,1152.8c-293,0-604.4-44.8-604.4-127.8c0-58.3,153.6-90.1,245.1-103.8l2.7,17.7
							c-169.7,25.5-229.9,62.4-229.9,86.2c0,52,240.9,110,586.5,110c345.6,0,586.5-58,586.5-110c0-24.3-62-61.7-236.7-87.2l2.6-17.7
							c94.1,13.8,252,45.7,252,104.9C2283.1,1108,1971.7,1152.8,1678.7,1152.8z"/>
					</g>
				</g>
			</g>
		</g>
	</g>
	<g>
		<g>
			<g>
				<path class="st0" d="M1557.1,1329.7c-20.8,0-37.7-16.9-37.7-37.7c0-20.8,16.9-37.7,37.7-37.7c20.8,0,37.7,16.9,37.7,37.7
					C1594.8,1312.8,1577.9,1329.7,1557.1,1329.7z M1557.1,1272.2c-10.9,0-19.8,8.9-19.8,19.8c0,10.9,8.9,19.8,19.8,19.8
					c10.9,0,19.8-8.9,19.8-19.8C1577,1281.1,1568.1,1272.2,1557.1,1272.2z"/>
			</g>
		</g>
		<g>
			<g>
				<path class="st0" d="M1800.3,1329.7c-20.8,0-37.7-16.9-37.7-37.7c0-20.8,16.9-37.7,37.7-37.7c20.8,0,37.7,16.9,37.7,37.7
					C1838,1312.8,1821,1329.7,1800.3,1329.7z M1800.3,1272.2c-10.9,0-19.8,8.9-19.8,19.8c0,10.9,8.9,19.8,19.8,19.8
					c10.9,0,19.8-8.9,19.8-19.8C1820.1,1281.1,1811.2,1272.2,1800.3,1272.2z"/>
			</g>
		</g>
	</g>
	<g>
		<g>
			<path class="st0" d="M1678.7,1095.8c-214.9,0-432.4-30.7-432.4-89.5c0-20,23-36.7,70.2-51.1l5.2,17.1
				c-42.5,12.9-57.6,26.1-57.6,34c0,29.9,157.7,71.7,414.5,71.7s414.5-41.7,414.5-71.7c0-8.7-17.3-22.8-65.9-36.5l4.8-17.2
				c53.1,14.9,78.9,32.5,78.9,53.7C2111.1,1065,1893.6,1095.8,1678.7,1095.8z"/>
		</g>
	</g>
	<g>
		<g>
			<g>
				<path class="st0" d="M1671.3,1095.8c-263.5,0-344.2-35.8-347.4-37.3l-5.2-2.4V905h17.9v139.1c21.5,7.5,112.4,33.7,334.8,33.7
					c224.7,0,325.8-26.6,349.6-34V905h17.9v151.4l-5.7,2.2C2029.2,1060.2,1934.5,1095.8,1671.3,1095.8z"/>
			</g>
		</g>
	</g>
	<g>
		<g>
			<g>
				<g>
					<g>
						<path class="st0" d="M1678.7,982.2c-144.7,0-360.1-21.1-360.1-79c0-58,215.3-79,360.1-79c144.7,0,360.1,21.1,360.1,79
							C2038.8,961.1,1823.4,982.2,1678.7,982.2z M1678.7,842c-212,0-342.2,35.6-342.2,61.2c0,25.5,130.2,61.2,342.2,61.2
							s342.2-35.6,342.2-61.2C2020.9,877.6,1890.7,842,1678.7,842z"/>
					</g>
				</g>
			</g>
		</g>
	</g>
	<g>
		<g>
			<path class="st0" d="M1557.1,2137.2c-33.4,0-60.6-27.2-60.6-60.6c0-33.4,27.2-60.6,60.6-60.6c33.4,0,60.5,27.2,60.5,60.6
				C1617.7,2110.1,1590.5,2137.2,1557.1,2137.2z M1557.1,2034c-23.5,0-42.7,19.2-42.7,42.7c0,23.5,19.2,42.7,42.7,42.7
				c23.5,0,42.7-19.2,42.7-42.7C1599.8,2053.1,1580.7,2034,1557.1,2034z"/>
		</g>
	</g>
	<g>
		<g>
			<path class="st0" d="M1800.3,1750.3c-33.4,0-60.6-27.2-60.6-60.5s27.2-60.6,60.6-60.6c33.4,0,60.6,27.2,60.6,60.6
				S1833.6,1750.3,1800.3,1750.3z M1800.3,1647c-23.5,0-42.7,19.1-42.7,42.7c0,23.5,19.2,42.7,42.7,42.7c23.5,0,42.7-19.2,42.7-42.7
				C1843,1666.2,1823.8,1647,1800.3,1647z"/>
		</g>
	</g>
	<g>
		<g>
			<path class="st0" d="M1678.7,1352.6c-33.4,0-60.6-27.2-60.6-60.5c0-33.4,27.2-60.6,60.6-60.6c33.4,0,60.5,27.2,60.5,60.6
				C1739.2,1325.4,1712.1,1352.6,1678.7,1352.6z M1678.7,1249.3c-23.5,0-42.7,19.2-42.7,42.7c0,23.5,19.2,42.7,42.7,42.7
				c23.5,0,42.7-19.2,42.7-42.7C1721.4,1268.5,1702.2,1249.3,1678.7,1249.3z"/>
		</g>
	</g>
</g>
<g>
	<g>
		<g>
			<path class="st0" d="M2552.2,2133.6c-4.9,0-8.9-4-8.9-8.9v-50.3c0-38.7-31.4-70.1-70.1-70.1c-38.6,0-70.1,31.4-70.1,70.1v50.3
				c0,4.9-4,8.9-8.9,8.9c-4.9,0-8.9-4-8.9-8.9v-50.3c0-48.5,39.5-87.9,88-87.9s88,39.5,88,87.9v50.3
				C2561.2,2129.6,2557.2,2133.6,2552.2,2133.6z"/>
		</g>
	</g>
	<g>
		<g>
			<path class="st0" d="M2545.7,2332.8h-148.6c-24.6,0-44.6-20-44.6-44.6v-124c0-24.6,20-44.6,44.6-44.6h148.6
				c24.6,0,44.6,20,44.6,44.6v124C2590.4,2312.8,2570.4,2332.8,2545.7,2332.8z M2397.1,2137.3c-14.8,0-26.8,12-26.8,26.8v124
				c0,14.8,12,26.8,26.8,26.8h148.6c14.8,0,26.8-12,26.8-26.8v-124c0-14.8-12-26.8-26.8-26.8H2397.1z"/>
		</g>
	</g>
	<g>
		<g>
			<path class="st0" d="M2471.4,2254.8c-15.8,0-28.6-12.8-28.6-28.6s12.8-28.6,28.6-28.6c15.8,0,28.6,12.8,28.6,28.6
				S2487.2,2254.8,2471.4,2254.8z M2471.4,2215.4c-5.9,0-10.8,4.8-10.8,10.8c0,5.9,4.8,10.8,10.8,10.8c5.9,0,10.8-4.8,10.8-10.8
				C2482.2,2220.2,2477.3,2215.4,2471.4,2215.4z"/>
		</g>
	</g>
</g>
<g>
	<g>
		<path class="st0" d="M799.7,1725.6h-86.8c-4.9,0-8.9-4-8.9-8.9s4-8.9,8.9-8.9h86.8c4.9,0,8.9,4,8.9,8.9S804.6,1725.6,799.7,1725.6
			z M623.6,1725.6h-89.3c-4.9,0-8.9-4-8.9-8.9s4-8.9,8.9-8.9h89.3c4.9,0,8.9,4,8.9,8.9S628.5,1725.6,623.6,1725.6z M445,1725.6
			h-89.3c-4.9,0-8.9-4-8.9-8.9s4-8.9,8.9-8.9H445c4.9,0,8.9,4,8.9,8.9S449.9,1725.6,445,1725.6z"/>
	</g>
</g>
<g>
	<g>
		<g>
			<path class="st0" d="M2024.2,381.4c-1.8,0-3.6-0.5-5.1-1.6l-69.3-48.4c-4-2.8-5-8.4-2.2-12.4c2.9-4.1,8.4-5,12.4-2.2l69.3,48.4
				c4,2.8,5,8.4,2.2,12.4C2029.8,380.1,2027,381.4,2024.2,381.4z"/>
		</g>
	</g>
	<g>
		<g>
			<path class="st0" d="M1912.2,275.9c-4.9,0-8.9-4-8.9-8.9v-74.5c0-4.9,4-8.9,8.9-8.9c4.9,0,8.9,4,8.9,8.9v74.5
				C1921.2,271.9,1917.2,275.9,1912.2,275.9z"/>
		</g>
	</g>
	<g>
		<g>
			<path class="st0" d="M1800.3,381.4c-2.8,0-5.6-1.3-7.3-3.8c-2.8-4-1.8-9.6,2.2-12.4l69.3-48.4c4-2.8,9.6-1.9,12.4,2.2
				c2.8,4,1.8,9.6-2.2,12.4l-69.3,48.4C1803.8,380.9,1802,381.4,1800.3,381.4z"/>
		</g>
	</g>
</g>
<g>
	<g>
		<g>
			<path class="st0" d="M782.6,1070.8H558.1c-14.8,0-26.8-12-26.8-26.8V814c0-14.8,12-26.8,26.8-26.8h224.5
				c14.8,0,26.8,12,26.8,26.8v230C809.4,1058.8,797.4,1070.8,782.6,1070.8z M558.1,805.1c-4.9,0-8.9,4-8.9,8.9v230
				c0,4.9,4,8.9,8.9,8.9h224.5c4.9,0,8.9-4,8.9-8.9V814c0-4.9-4-8.9-8.9-8.9H558.1z"/>
		</g>
	</g>
	<g>
		<g>
			<path class="st0" d="M669.7,921.4c-24.1,0-43.7-19.6-43.7-43.7c0-24.1,19.6-43.7,43.7-43.7s43.7,19.6,43.7,43.7
				C713.4,901.8,693.8,921.4,669.7,921.4z M669.7,851.9c-14.2,0-25.8,11.6-25.8,25.8c0,14.2,11.6,25.8,25.8,25.8
				c14.3,0,25.8-11.6,25.8-25.8C695.6,863.4,684,851.9,669.7,851.9z"/>
		</g>
	</g>
	<g>
		<g>
			<path class="st0" d="M763.7,979.4h-188c-4.9,0-8.9-4-8.9-8.9c0-4.9,4-8.9,8.9-8.9h188c4.9,0,8.9,4,8.9,8.9
				C772.7,975.4,768.7,979.4,763.7,979.4z"/>
		</g>
	</g>
	<g>
		<g>
			<path class="st0" d="M744.3,1021.6H595.2c-4.9,0-8.9-4-8.9-8.9c0-4.9,4-8.9,8.9-8.9h149.1c4.9,0,8.9,4,8.9,8.9
				C753.2,1017.6,749.2,1021.6,744.3,1021.6z"/>
		</g>
	</g>
	<g>
		<g>
			<path class="st0" d="M834.7,1134.8H506c-24.6,0-44.6-20-44.6-44.6V767.8c0-24.6,20-44.6,44.6-44.6h328.6
				c24.6,0,44.6,20,44.6,44.6v322.3C879.3,1114.8,859.3,1134.8,834.7,1134.8z M506,741c-14.8,0-26.8,12-26.8,26.8v322.3
				c0,14.8,12,26.8,26.8,26.8h328.6c14.8,0,26.8-12,26.8-26.8V767.8c0-14.8-12-26.8-26.8-26.8H506z"/>
		</g>
	</g>
	<g>
		<g>
			<path class="st0" d="M497.9,741c-4.9,0-8.9-4-8.9-8.9v-54.8c0-4.9,4-8.9,8.9-8.9s8.9,4,8.9,8.9v54.8
				C506.8,737,502.8,741,497.9,741z"/>
		</g>
		<g>
			<path class="st0" d="M554.6,741c-4.9,0-8.9-4-8.9-8.9v-54.8c0-4.9,4-8.9,8.9-8.9c4.9,0,8.9,4,8.9,8.9v54.8
				C563.6,737,559.6,741,554.6,741z"/>
		</g>
		<g>
			<path class="st0" d="M611.4,741c-4.9,0-8.9-4-8.9-8.9v-54.8c0-4.9,4-8.9,8.9-8.9c4.9,0,8.9,4,8.9,8.9v54.8
				C620.3,737,616.3,741,611.4,741z"/>
		</g>
		<g>
			<path class="st0" d="M668.1,741c-4.9,0-8.9-4-8.9-8.9v-54.8c0-4.9,4-8.9,8.9-8.9c4.9,0,8.9,4,8.9,8.9v54.8
				C677,737,673,741,668.1,741z"/>
		</g>
		<g>
			<path class="st0" d="M724.8,741c-4.9,0-8.9-4-8.9-8.9v-54.8c0-4.9,4-8.9,8.9-8.9c4.9,0,8.9,4,8.9,8.9v54.8
				C733.8,737,729.8,741,724.8,741z"/>
		</g>
		<g>
			<path class="st0" d="M781.6,741c-4.9,0-8.9-4-8.9-8.9v-54.8c0-4.9,4-8.9,8.9-8.9c4.9,0,8.9,4,8.9,8.9v54.8
				C790.5,737,786.5,741,781.6,741z"/>
		</g>
		<g>
			<path class="st0" d="M838.3,741c-4.9,0-8.9-4-8.9-8.9v-54.8c0-4.9,4-8.9,8.9-8.9c4.9,0,8.9,4,8.9,8.9v54.8
				C847.2,737,843.2,741,838.3,741z"/>
		</g>
	</g>
	<g>
		<g>
			<path class="st0" d="M928.8,764.1H874c-4.9,0-8.9-4-8.9-8.9c0-4.9,4-8.9,8.9-8.9h54.8c4.9,0,8.9,4,8.9,8.9
				C937.7,760.1,933.7,764.1,928.8,764.1z"/>
		</g>
		<g>
			<path class="st0" d="M928.8,820.9H874c-4.9,0-8.9-4-8.9-8.9s4-8.9,8.9-8.9h54.8c4.9,0,8.9,4,8.9,8.9S933.7,820.9,928.8,820.9z"/>
		</g>
		<g>
			<path class="st0" d="M928.8,877.6H874c-4.9,0-8.9-4-8.9-8.9c0-4.9,4-8.9,8.9-8.9h54.8c4.9,0,8.9,4,8.9,8.9
				C937.7,873.6,933.7,877.6,928.8,877.6z"/>
		</g>
		<g>
			<path class="st0" d="M928.8,934.3H874c-4.9,0-8.9-4-8.9-8.9c0-4.9,4-8.9,8.9-8.9h54.8c4.9,0,8.9,4,8.9,8.9
				C937.7,930.3,933.7,934.3,928.8,934.3z"/>
		</g>
		<g>
			<path class="st0" d="M928.8,991.1H874c-4.9,0-8.9-4-8.9-8.9c0-4.9,4-8.9,8.9-8.9h54.8c4.9,0,8.9,4,8.9,8.9
				C937.7,987.1,933.7,991.1,928.8,991.1z"/>
		</g>
		<g>
			<path class="st0" d="M928.8,1047.8H874c-4.9,0-8.9-4-8.9-8.9c0-4.9,4-8.9,8.9-8.9h54.8c4.9,0,8.9,4,8.9,8.9
				C937.7,1043.8,933.7,1047.8,928.8,1047.8z"/>
		</g>
		<g>
			<path class="st0" d="M928.8,1104.5H874c-4.9,0-8.9-4-8.9-8.9s4-8.9,8.9-8.9h54.8c4.9,0,8.9,4,8.9,8.9S933.7,1104.5,928.8,1104.5z
				"/>
		</g>
	</g>
	<g>
		<g>
			<path class="st0" d="M847.4,1189.6c-4.9,0-8.9-4-8.9-8.9v-54.8c0-4.9,4-8.9,8.9-8.9c4.9,0,8.9,4,8.9,8.9v54.8
				C856.3,1185.6,852.4,1189.6,847.4,1189.6z"/>
		</g>
		<g>
			<path class="st0" d="M790.7,1189.6c-4.9,0-8.9-4-8.9-8.9v-54.8c0-4.9,4-8.9,8.9-8.9c4.9,0,8.9,4,8.9,8.9v54.8
				C799.6,1185.6,795.6,1189.6,790.7,1189.6z"/>
		</g>
		<g>
			<path class="st0" d="M733.9,1189.6c-4.9,0-8.9-4-8.9-8.9v-54.8c0-4.9,4-8.9,8.9-8.9c4.9,0,8.9,4,8.9,8.9v54.8
				C742.9,1185.6,738.9,1189.6,733.9,1189.6z"/>
		</g>
		<g>
			<path class="st0" d="M677.2,1189.6c-4.9,0-8.9-4-8.9-8.9v-54.8c0-4.9,4-8.9,8.9-8.9c4.9,0,8.9,4,8.9,8.9v54.8
				C686.1,1185.6,682.1,1189.6,677.2,1189.6z"/>
		</g>
		<g>
			<path class="st0" d="M620.5,1189.6c-4.9,0-8.9-4-8.9-8.9v-54.8c0-4.9,4-8.9,8.9-8.9c4.9,0,8.9,4,8.9,8.9v54.8
				C629.4,1185.6,625.4,1189.6,620.5,1189.6z"/>
		</g>
		<g>
			<path class="st0" d="M563.8,1189.6c-4.9,0-8.9-4-8.9-8.9v-54.8c0-4.9,4-8.9,8.9-8.9s8.9,4,8.9,8.9v54.8
				C572.7,1185.6,568.7,1189.6,563.8,1189.6z"/>
		</g>
		<g>
			<path class="st0" d="M507,1189.6c-4.9,0-8.9-4-8.9-8.9v-54.8c0-4.9,4-8.9,8.9-8.9c4.9,0,8.9,4,8.9,8.9v54.8
				C515.9,1185.6,512,1189.6,507,1189.6z"/>
		</g>
	</g>
	<g>
		<g>
			<path class="st0" d="M470.3,1104.5h-54.8c-4.9,0-8.9-4-8.9-8.9s4-8.9,8.9-8.9h54.8c4.9,0,8.9,4,8.9,8.9
				S475.2,1104.5,470.3,1104.5z"/>
		</g>
		<g>
			<path class="st0" d="M470.3,1047.8h-54.8c-4.9,0-8.9-4-8.9-8.9c0-4.9,4-8.9,8.9-8.9h54.8c4.9,0,8.9,4,8.9,8.9
				C479.2,1043.8,475.2,1047.8,470.3,1047.8z"/>
		</g>
		<g>
			<path class="st0" d="M470.3,991.1h-54.8c-4.9,0-8.9-4-8.9-8.9c0-4.9,4-8.9,8.9-8.9h54.8c4.9,0,8.9,4,8.9,8.9
				C479.2,987.1,475.2,991.1,470.3,991.1z"/>
		</g>
		<g>
			<path class="st0" d="M470.3,934.3h-54.8c-4.9,0-8.9-4-8.9-8.9c0-4.9,4-8.9,8.9-8.9h54.8c4.9,0,8.9,4,8.9,8.9
				C479.2,930.3,475.2,934.3,470.3,934.3z"/>
		</g>
		<g>
			<path class="st0" d="M470.3,877.6h-54.8c-4.9,0-8.9-4-8.9-8.9c0-4.9,4-8.9,8.9-8.9h54.8c4.9,0,8.9,4,8.9,8.9
				C479.2,873.6,475.2,877.6,470.3,877.6z"/>
		</g>
		<g>
			<path class="st0" d="M470.3,820.9h-54.8c-4.9,0-8.9-4-8.9-8.9s4-8.9,8.9-8.9h54.8c4.9,0,8.9,4,8.9,8.9S475.2,820.9,470.3,820.9z"
				/>
		</g>
		<g>
			<path class="st0" d="M470.3,764.1h-54.8c-4.9,0-8.9-4-8.9-8.9c0-4.9,4-8.9,8.9-8.9h54.8c4.9,0,8.9,4,8.9,8.9
				C479.2,760.1,475.2,764.1,470.3,764.1z"/>
		</g>
	</g>
</g>
<g>
	<g>
		<path class="st0" d="M520,1640.3H86.1c-4.9,0-8.9-4-8.9-8.9c0-4.9,4-8.9,8.9-8.9H520c4.9,0,8.9,4,8.9,8.9
			C528.9,1636.3,524.9,1640.3,520,1640.3z"/>
	</g>
</g>
<g>
	<g>
		<path class="st0" d="M1968.7,512.6h-433.8c-4.9,0-8.9-4-8.9-8.9c0-4.9,4-8.9,8.9-8.9h433.8c4.9,0,8.9,4,8.9,8.9
			C1977.6,508.6,1973.6,512.6,1968.7,512.6z"/>
	</g>
</g>
<g>
	<g>
		<path class="st0" d="M2065.6,601.6h-193.9c-4.9,0-8.9-4-8.9-8.9c0-4.9,4-8.9,8.9-8.9h193.9c4.9,0,8.9,4,8.9,8.9
			C2074.6,597.6,2070.6,601.6,2065.6,601.6z"/>
	</g>
</g>
<g>
	<g>
		<g>
			<path class="st0" d="M910.3,2627.6H334.6c-17.5,0-31.7-14.2-31.7-31.7v-81.5c0-2,0.2-3.9,0.6-5.7c2.8-15.1,15.9-26,31.2-26h575.7
				c6.9,0,13.6,2.3,19.2,6.6c6.3,4.8,10.5,11.7,11.9,19.4c0,0,0,0,0,0c0.3,1.9,0.6,3.8,0.6,5.7v81.5
				C942.1,2613.4,927.8,2627.6,910.3,2627.6z M334.6,2500.6c-6.7,0-12.4,4.8-13.6,11.4c-0.2,0.8-0.3,1.6-0.3,2.5v81.5
				c0,7.6,6.2,13.8,13.9,13.8h575.7c7.6,0,13.9-6.2,13.9-13.8v-81.5c0-0.9-0.1-1.7-0.3-2.5c-0.6-3.3-2.5-6.3-5.2-8.4
				c-1.7-1.3-4.6-2.9-8.4-2.9H334.6z M848.7,2581.5c-17.7,0-32-14.4-32-32c0-17.7,14.4-32,32-32c17.7,0,32,14.4,32,32
				C880.7,2567.1,866.4,2581.5,848.7,2581.5z M848.7,2535.3c-7.8,0-14.2,6.4-14.2,14.2s6.4,14.2,14.2,14.2c7.8,0,14.2-6.4,14.2-14.2
				S856.5,2535.3,848.7,2535.3z"/>
		</g>
	</g>
	<g>
		<g>
			<path class="st0" d="M312.3,2519.2c-2.9,0-5.8-1.4-7.4-3.7c-1.7-2.3-2.4-5.3-1.4-8l23.8-71.9c1.6-4.7,6.5-7.3,11.3-5.7
				c4.7,1.6,7.2,6.6,5.7,11.3l-23.2,70.1C320.5,2515.7,316.9,2519.2,312.3,2519.2z"/>
		</g>
	</g>
	<g>
		<g>
			<path class="st0" d="M933.1,2519.2c-3.9,0-7.5-2.6-8.6-6.5l-20.4-71.9c-1.3-4.7,1.4-9.7,6.2-11c4.8-1.4,9.7,1.4,11,6.2l20.4,71.9
				c1.3,4.7-1.4,9.7-6.2,11C934.7,2519.1,933.9,2519.2,933.1,2519.2z"/>
		</g>
	</g>
	<g>
		<g>
			<path class="st0" d="M848.7,2581.5c-17.7,0-32-14.4-32-32c0-17.7,14.4-32,32-32c17.7,0,32,14.4,32,32
				C880.7,2567.1,866.4,2581.5,848.7,2581.5z M848.7,2535.3c-7.8,0-14.2,6.4-14.2,14.2s6.4,14.2,14.2,14.2c7.8,0,14.2-6.4,14.2-14.2
				S856.5,2535.3,848.7,2535.3z"/>
		</g>
	</g>
</g>
<g>
	<g>
		<g>
			<path class="st0" d="M910.3,2445.9H334.6c-17.5,0-31.7-14.2-31.7-31.7v-81.5c0-2,0.2-3.9,0.6-5.7c2.8-15.1,15.9-26,31.2-26h575.7
				c6.9,0,13.6,2.3,19.2,6.6c6.3,4.8,10.5,11.7,11.9,19.4c0,0,0,0,0,0c0.3,1.9,0.6,3.8,0.6,5.7v81.5
				C942.1,2431.7,927.8,2445.9,910.3,2445.9z M334.6,2318.9c-6.7,0-12.4,4.8-13.6,11.3c-0.2,0.8-0.3,1.6-0.3,2.5v81.5
				c0,7.6,6.2,13.9,13.9,13.9h575.7c7.6,0,13.9-6.2,13.9-13.9v-81.5c0-0.9-0.1-1.7-0.3-2.5c-0.6-3.3-2.5-6.3-5.2-8.4
				c-1.7-1.3-4.6-2.9-8.4-2.9H334.6z M848.7,2399.8c-17.7,0-32-14.4-32-32c0-17.7,14.4-32,32-32c17.7,0,32,14.4,32,32
				C880.7,2385.4,866.4,2399.8,848.7,2399.8z M848.7,2353.6c-7.8,0-14.2,6.4-14.2,14.2s6.4,14.2,14.2,14.2c7.8,0,14.2-6.4,14.2-14.2
				S856.5,2353.6,848.7,2353.6z"/>
		</g>
	</g>
	<g>
		<g>
			<path class="st0" d="M933.1,2337.5c-3.9,0-7.5-2.6-8.6-6.5l-63.7-224.4c-1.7-5.9-7.2-10.1-13.3-10.1H408.1
				c-6,0-11.3,3.8-13.2,9.5l-74,223.5c-0.5,4.5-4.1,8-8.7,8c-2.9,0-5.8-1.4-7.4-3.7c-1.7-2.3-2.4-5.3-1.4-8l74.6-225.4
				c4.3-13,16.4-21.7,30.1-21.7h439.4c14.1,0,26.7,9.5,30.5,23.1l63.7,224.4c1.3,4.7-1.4,9.7-6.2,11
				C934.7,2337.4,933.9,2337.5,933.1,2337.5z"/>
		</g>
	</g>
	<g>
		<g>
			<path class="st0" d="M848.7,2399.8c-17.7,0-32-14.4-32-32c0-17.7,14.4-32,32-32c17.7,0,32,14.4,32,32
				C880.7,2385.4,866.4,2399.8,848.7,2399.8z M848.7,2353.6c-7.8,0-14.2,6.4-14.2,14.2s6.4,14.2,14.2,14.2c7.8,0,14.2-6.4,14.2-14.2
				S856.5,2353.6,848.7,2353.6z"/>
		</g>
	</g>
	<g>
		<g>
			<path class="st0" d="M640.3,2252.6c-63.4,0-127.5-17.5-127.5-50.9c0-66.9,255-66.9,255,0C767.7,2235.1,703.6,2252.6,640.3,2252.6
				z M640.3,2168.5c-66.9,0-109.6,19.6-109.6,33.1c0,13.5,42.7,33.1,109.6,33.1c66.9,0,109.6-19.6,109.6-33.1
				C749.9,2188.2,707.2,2168.5,640.3,2168.5z"/>
		</g>
	</g>
</g>
<g>
	<g>
		<path class="st2" d="M990,630.1c-26.7,0-48.5-21.8-48.5-48.5c0-26.7,21.8-48.5,48.5-48.5c26.7,0,48.5,21.8,48.5,48.5
			C1038.5,608.3,1016.7,630.1,990,630.1z M990,550.9c-16.9,0-30.6,13.7-30.6,30.6s13.7,30.6,30.6,30.6c16.9,0,30.6-13.7,30.6-30.6
			S1006.9,550.9,990,550.9z"/>
	</g>
</g>
<g>
	<g>
		<path class="st2" d="M2697.6,2108.5c-26.7,0-48.5-21.8-48.5-48.5c0-26.7,21.7-48.5,48.5-48.5c26.7,0,48.5,21.8,48.5,48.5
			C2746.1,2086.7,2724.3,2108.5,2697.6,2108.5z M2697.6,2029.3c-16.9,0-30.6,13.7-30.6,30.6s13.7,30.6,30.6,30.6
			c16.9,0,30.6-13.7,30.6-30.6S2714.5,2029.3,2697.6,2029.3z"/>
	</g>
</g>
<g>
	<g>
		<g>
			<path class="st2" d="M2477.8,2593.9C2477.8,2593.9,2477.8,2593.9,2477.8,2593.9c-7.2,0-13.9-2.8-18.9-7.8l-36.2-36.2
				c-10.4-10.4-10.4-27.5,0-37.9l36.2-36.2c5-5.1,11.8-7.8,18.9-7.8c0,0,0,0,0,0c7.1,0,13.9,2.8,18.9,7.8l36.2,36.2
				c10.4,10.4,10.4,27.5,0,37.9l-36.2,36.2C2491.7,2591.1,2484.9,2593.9,2477.8,2593.9z M2477.8,2485.8L2477.8,2485.8
				c-2.4,0-4.6,0.9-6.3,2.6l-36.2,36.2c-3.5,3.5-3.5,9.2,0,12.6l36.2,36.2c1.7,1.7,3.9,2.6,6.3,2.6h0c2.4,0,4.6-0.9,6.3-2.6
				l36.2-36.2c3.5-3.5,3.5-9.2,0-12.6l-36.2-36.2C2482.4,2486.7,2480.2,2485.8,2477.8,2485.8z"/>
		</g>
	</g>
	<g>
		<g>
			<path class="st2" d="M2629.8,2593.9c-6.9,0-13.7-2.6-18.9-7.8l-36.2-36.2c-10.4-10.4-10.4-27.5,0-37.9l36.2-36.2
				c10.5-10.5,27.4-10.4,37.9,0l36.2,36.2c10.4,10.4,10.4,27.5,0,37.9l-36.2,36.2C2643.6,2591.3,2636.7,2593.9,2629.8,2593.9z
				 M2629.9,2485.8c-2.3,0-4.6,0.9-6.3,2.6l-36.2,36.2c-3.5,3.5-3.5,9.2,0,12.6l36.2,36.2c3.5,3.5,9.1,3.5,12.6,0l36.2-36.2
				c3.5-3.5,3.5-9.2,0-12.6l-36.2-36.2C2634.4,2486.6,2632.1,2485.8,2629.9,2485.8z"/>
		</g>
	</g>
	<g>
		<g>
			<path class="st2" d="M2781.9,2594.1c-6.9,0-13.7-2.6-18.9-7.8l-36.2-36.2c-10.4-10.4-10.4-27.4,0-37.9l36.2-36.2
				c10.4-10.4,27.5-10.4,37.9,0l36.2,36.2c10.4,10.4,10.4,27.4,0,37.9l-36.2,36.2C2795.6,2591.5,2788.8,2594.1,2781.9,2594.1z
				 M2781.9,2485.9c-2.3,0-4.6,0.9-6.3,2.6l-36.2,36.2c-3.5,3.5-3.5,9.2,0,12.6l36.2,36.2c3.5,3.5,9.1,3.5,12.6,0l36.2-36.2
				c3.5-3.5,3.5-9.1,0-12.6l-36.2-36.2C2786.5,2486.8,2784.2,2485.9,2781.9,2485.9z"/>
		</g>
	</g>
</g>
<g>
	<g>
		<g>
			<path class="st0" d="M708.9,2891.1c-1.8,0-3.6-0.5-5.1-1.6l-55.4-38.7c-4-2.8-5-8.4-2.2-12.4c2.8-4.1,8.4-5,12.4-2.2l55.4,38.7
				c4,2.8,5,8.4,2.2,12.4C714.5,2889.8,711.7,2891.1,708.9,2891.1z"/>
		</g>
	</g>
	<g>
		<g>
			<path class="st0" d="M619.4,2806.7c-4.9,0-8.9-4-8.9-8.9v-59.5c0-4.9,4-8.9,8.9-8.9c4.9,0,8.9,4,8.9,8.9v59.5
				C628.4,2802.7,624.4,2806.7,619.4,2806.7z"/>
		</g>
	</g>
	<g>
		<g>
			<path class="st0" d="M529.9,2891.1c-2.8,0-5.6-1.3-7.3-3.8c-2.8-4-1.8-9.6,2.2-12.4l55.4-38.7c4-2.8,9.6-1.8,12.4,2.2
				c2.8,4,1.8,9.6-2.2,12.4l-55.4,38.7C533.5,2890.6,531.7,2891.1,529.9,2891.1z"/>
		</g>
	</g>
</g>
<g>
	<g>
		<path class="st2" d="M113.5,1340.5c-26.7,0-48.5-21.7-48.5-48.5c0-26.7,21.8-48.5,48.5-48.5c26.7,0,48.5,21.8,48.5,48.5
			C162,1318.8,140.2,1340.5,113.5,1340.5z M113.5,1261.4c-16.9,0-30.6,13.7-30.6,30.6c0,16.9,13.7,30.6,30.6,30.6
			c16.9,0,30.6-13.7,30.6-30.6C144.1,1275.1,130.4,1261.4,113.5,1261.4z"/>
	</g>
</g>
<g>
	<g>
		<path class="st0" d="M1808.8,2414.5h-89.3c-4.9,0-8.9-4-8.9-8.9c0-4.9,4-8.9,8.9-8.9h89.3c4.9,0,8.9,4,8.9,8.9
			C1817.7,2410.5,1813.7,2414.5,1808.8,2414.5z M1630.2,2414.5h-89.3c-4.9,0-8.9-4-8.9-8.9c0-4.9,4-8.9,8.9-8.9h89.3
			c4.9,0,8.9,4,8.9,8.9C1639.1,2410.5,1635.1,2414.5,1630.2,2414.5z M1451.6,2414.5h-89.3c-4.9,0-8.9-4-8.9-8.9c0-4.9,4-8.9,8.9-8.9
			h89.3c4.9,0,8.9,4,8.9,8.9C1460.5,2410.5,1456.5,2414.5,1451.6,2414.5z"/>
	</g>
</g>
<g>
	<g>
		<path class="st2" d="M2836.2,1009.7c-26.7,0-48.5-21.7-48.5-48.5c0-26.7,21.8-48.5,48.5-48.5c26.7,0,48.5,21.8,48.5,48.5
			C2884.7,987.9,2863,1009.7,2836.2,1009.7z M2836.2,930.5c-16.9,0-30.6,13.7-30.6,30.6c0,16.9,13.7,30.6,30.6,30.6
			c16.9,0,30.6-13.7,30.6-30.6C2866.9,944.3,2853.1,930.5,2836.2,930.5z"/>
	</g>
</g>
<g>
	<g>
		<path class="st0" d="M1802.5,2481.6c-2.8,0-5.5-1.3-7.2-3.7c-2.9-4-2-9.6,2-12.5l79.7-57.7l-79.9-62.4c-3.9-3-4.6-8.6-1.6-12.5
			c3.1-3.9,8.7-4.6,12.5-1.6l89.3,69.7c2.2,1.7,3.5,4.4,3.4,7.2c-0.1,2.8-1.4,5.4-3.7,7.1l-89.3,64.6
			C1806.2,2481.1,1804.3,2481.6,1802.5,2481.6z"/>
	</g>
</g>
<g>
	<g>
		<path class="st0" d="M870.4,1414.1c16,0,29,13,29,29c0,16-13,29-29,29c-16,0-29-13-29-29C841.4,1427,854.4,1414.1,870.4,1414.1z"
			/>
	</g>
</g>
<g>
	<g>
		
			<ellipse transform="matrix(0.3808 -0.9247 0.9247 0.3808 569.2968 2923.002)" class="st0" cx="2467" cy="1036.5" rx="29" ry="29"/>
	</g>
</g>
<g>
	<g>
		<circle class="st0" cx="1333.3" cy="2555.2" r="29"/>
	</g>
</g>
<g>
	<g>
		<circle class="st0" cx="2836.2" cy="1331.6" r="29"/>
	</g>
</g>
<g>
	<g>
		<path class="st0" d="M294.8,1414.1c16,0,29,13,29,29c0,16-13,29-29,29c-16,0-29-13-29-29C265.8,1427,278.7,1414.1,294.8,1414.1z"
			/>
	</g>
</g>
<g>
	<g>
		<circle class="st0" cx="1156.9" cy="631.8" r="29"/>
	</g>
</g>
<g>
	<g>
		<circle class="st0" cx="2193.3" cy="2695.9" r="29"/>
	</g>
</g>
<g>
	<g>
		<g>
			<path class="st0" d="M1698.2,2737.2c-1.8,0-3.6-0.5-5.1-1.6l-55.4-38.7c-4-2.8-5-8.4-2.2-12.4c2.8-4.1,8.4-5,12.4-2.2l55.4,38.7
				c4,2.8,5,8.4,2.2,12.4C1703.8,2735.9,1701.1,2737.2,1698.2,2737.2z"/>
		</g>
	</g>
	<g>
		<g>
			<path class="st0" d="M1608.7,2652.8c-4.9,0-8.9-4-8.9-8.9v-59.5c0-4.9,4-8.9,8.9-8.9c4.9,0,8.9,4,8.9,8.9v59.5
				C1617.7,2648.8,1613.7,2652.8,1608.7,2652.8z"/>
		</g>
	</g>
	<g>
		<g>
			<path class="st0" d="M1519.2,2737.2c-2.8,0-5.6-1.3-7.3-3.8c-2.8-4-1.8-9.6,2.2-12.4l55.4-38.7c4-2.8,9.6-1.9,12.4,2.2
				c2.8,4,1.8,9.6-2.2,12.4l-55.4,38.7C1522.8,2736.7,1521,2737.2,1519.2,2737.2z"/>
		</g>
	</g>
</g>
<g>
	<g>
		<path class="st0" d="M1410.4,716.5c-4.9,0-8.9-4-8.9-8.9v-89.3c0-4.9,4-8.9,8.9-8.9c4.9,0,8.9,4,8.9,8.9v89.3
			C1419.3,712.5,1415.3,716.5,1410.4,716.5z M669.7,601.6c-4.9,0-8.9-4-8.9-8.9v-89.3c0-4.9,4-8.9,8.9-8.9c4.9,0,8.9,4,8.9,8.9v89.3
			C678.7,597.6,674.7,601.6,669.7,601.6z M1410.4,537.9c-4.9,0-8.9-4-8.9-8.9v-87.3c-0.1-0.5-0.2-1.1-0.2-1.6c0-4.9,3.8-8.9,8.8-8.9
			h0.3c4.9,0,8.9,4,8.9,8.9v89C1419.3,533.9,1415.3,537.9,1410.4,537.9z M1320.8,448.9h-89.3c-4.9,0-8.9-4-8.9-8.9s4-8.9,8.9-8.9
			h89.3c4.9,0,8.9,4,8.9,8.9S1325.7,448.9,1320.8,448.9z M1142.2,448.9h-89.3c-4.9,0-8.9-4-8.9-8.9s4-8.9,8.9-8.9h89.3
			c4.9,0,8.9,4,8.9,8.9S1147.1,448.9,1142.2,448.9z M963.6,448.9h-89.3c-4.9,0-8.9-4-8.9-8.9s4-8.9,8.9-8.9h89.3
			c4.9,0,8.9,4,8.9,8.9S968.5,448.9,963.6,448.9z M785,448.9h-89.3c-4.9,0-8.9-4-8.9-8.9s4-8.9,8.9-8.9H785c4.9,0,8.9,4,8.9,8.9
			S789.9,448.9,785,448.9z"/>
	</g>
</g>
<g>
	<g>
		<path class="st0" d="M2586.2,1609.8h-89.3c-4.9,0-8.9-4-8.9-8.9c0-4.9,4-8.9,8.9-8.9h89.3c4.9,0,8.9,4,8.9,8.9
			C2595.1,1605.8,2591.1,1609.8,2586.2,1609.8z M2407.6,1609.8h-89.3c-4.9,0-8.9-4-8.9-8.9c0-4.9,4-8.9,8.9-8.9h89.3
			c4.9,0,8.9,4,8.9,8.9C2416.5,1605.8,2412.5,1609.8,2407.6,1609.8z M2615.7,1550.1c-4.9,0-8.9-4-8.9-8.9v-89.3c0-4.9,4-8.9,8.9-8.9
			s8.9,4,8.9,8.9v89.3C2624.7,1546.1,2620.7,1550.1,2615.7,1550.1z M2615.7,1371.5c-4.9,0-8.9-4-8.9-8.9v-89.3c0-4.9,4-8.9,8.9-8.9
			s8.9,4,8.9,8.9v89.3C2624.7,1367.5,2620.7,1371.5,2615.7,1371.5z M2615.7,1192.9c-4.9,0-8.9-4-8.9-8.9v-89.3c0-4.9,4-8.9,8.9-8.9
			s8.9,4,8.9,8.9v89.3C2624.7,1188.9,2620.7,1192.9,2615.7,1192.9z M2615.7,1014.3c-4.9,0-8.9-4-8.9-8.9v-20.6c0-4.9,4-8.9,8.9-8.9
			s8.9,4,8.9,8.9v20.6C2624.7,1010.3,2620.7,1014.3,2615.7,1014.3z"/>
	</g>
</g>
<g>
	<g>
		<path class="st0" d="M622.5,2034c-4.9,0-8.9-4-8.9-8.9V1993c0-4.9,4-8.9,8.9-8.9c4.9,0,8.9,4,8.9,8.9v32.1
			C631.4,2030,627.4,2034,622.5,2034z M622.5,1912.6c-4.9,0-8.9-4-8.9-8.9v-28.9c0-4.9,4-8.9,8.9-8.9h60.4c4.9,0,8.9,4,8.9,8.9
			s-4,8.9-8.9,8.9h-51.5v20C631.4,1908.6,627.4,1912.6,622.5,1912.6z M1040.1,1883.7h-89.3c-4.9,0-8.9-4-8.9-8.9s4-8.9,8.9-8.9h89.3
			c4.9,0,8.9,4,8.9,8.9S1045,1883.7,1040.1,1883.7z M861.5,1883.7h-89.3c-4.9,0-8.9-4-8.9-8.9s4-8.9,8.9-8.9h89.3
			c4.9,0,8.9,4,8.9,8.9S866.4,1883.7,861.5,1883.7z"/>
	</g>
</g>
</svg>
