<?xml version="1.0" encoding="utf-8"?>
<!-- Generator: Adobe Illustrator 27.0.0, SVG Export Plug-In . SVG Version: 6.00 Build 0)  -->
<svg version="1.1" id="Capa_1" xmlns="http://www.w3.org/2000/svg" xmlns:xlink="http://www.w3.org/1999/xlink" x="0px" y="0px"
	 viewBox="0 0 24 24" style="enable-background:new 0 0 24 24;" xml:space="preserve">
<style type="text/css">
	.st0{fill:none;stroke:#FFFFFF;stroke-width:2;stroke-linecap:round;stroke-linejoin:round;}
</style>
<path class="st0" d="M3,7c0-1.7,1.3-3,3-3h12c1.7,0,3,1.3,3,3v2c0,1.7-1.3,3-3,3H6c-1.7,0-3-1.3-3-3V7z"/>
<path class="st0" d="M3,15c0-1.7,1.3-3,3-3h12c1.7,0,3,1.3,3,3v2c0,1.7-1.3,3-3,3H6c-1.7,0-3-1.3-3-3V15z"/>
<path class="st0" d="M7,8L7,8"/>
<path class="st0" d="M7,16L7,16"/>
<path class="st0" d="M11,8h6"/>
<path class="st0" d="M11,16h6"/>
</svg>
