<?xml version="1.0" encoding="UTF-8"?> <!-- Generator: Adobe Illustrator 24.0.0, SVG Export Plug-In . SVG Version: 6.00 Build 0) --> <svg xmlns="http://www.w3.org/2000/svg" xmlns:xlink="http://www.w3.org/1999/xlink" version="1.1" id="Layer_1" x="0px" y="0px" viewBox="0 0 400 200" style="enable-background:new 0 0 400 200;" xml:space="preserve"> <style type="text/css"> .st0{fill:#6C757D;} </style> <path class="st0" d="M157.2,113.4c-1.8-0.5-3.5-1.1-3.7-1.3c-1.2-1.2-1.6-9.7-0.4-10.7c0.7-0.5,1-0.2,2.1,2.3c1.5,3.4,4,5.4,8.3,6.7 c3.7,1.1,6.6,0.3,9.6-2.5c2.1-2,2.2-2.2,2.2-5.3c0-4.5-1.8-6.8-9-11.9c-10.1-7-12.1-9.6-12.1-15.4c0-4.1,1.1-6.8,3.9-9.6 c2.8-2.7,6.4-3.7,11.5-3.2c2.3,0.3,5.5,0.4,7.2,0.4l3-0.1l0.3,5.1c0.4,5.6-0.2,7-1.8,4.7c-0.6-0.8-1.6-2.1-2.2-2.9 c-1.7-2.2-5.1-3.6-8.9-3.6c-3,0-3.3,0.1-5.3,2.1c-1.7,1.7-2.1,2.5-2.1,4.1c0,3.8,1.7,5.8,10.3,12.1c9,6.6,11.4,9.9,11.4,15.7 c0,6-4,11.6-9.7,13.5C168.6,114.7,161.6,114.6,157.2,113.4L157.2,113.4z"></path> <path class="st0" d="M186.5,113.7c0-0.2,0.8-1.1,1.8-2l1.7-1.6V89.3c-0.1-18.7-0.2-21-1-22.6c-0.5-1-1.4-2.1-2-2.4 c-2.3-1.4-1.1-1.7,6.2-1.7c4,0,7.3,0.2,7.3,0.5c0,0.2-0.6,0.9-1.3,1.5c-2.3,1.8-2.7,5.3-2.4,25.7c0.3,19.7,0.4,20.7,3,22.3 c0.7,0.5,1.2,1,1.2,1.3c0,0.2-3.3,0.4-7.3,0.4S186.5,114,186.5,113.7L186.5,113.7z"></path> <path class="st0" d="M208.5,111.5c3.4-2.7,4-4.5,4.6-15.1c0.3-5.2,0.8-13.3,1.1-17.9c0.8-12.6,0.8-12.2-1.4-14.6 c-1-1.1-1.9-2.2-1.9-2.4c0-0.2,1.6-0.3,3.4-0.3h3.5l8.9,18.9c4.8,10.4,9,19.3,9.1,19.8c0.1,0.5,0.5,0.9,0.8,0.8 c0.5-0.2,7.8-16.5,15.5-34.7l2-4.8h3.4c1.8,0,3.4,0.2,3.4,0.4c0,0.3-0.6,1-1.4,1.7c-0.8,0.7-1.6,2-1.8,2.9c-0.3,1,0.2,9.3,1.1,21.2 c1.6,21.3,1.6,21,5.2,23.4c0.9,0.6,1.7,1.4,1.7,1.6c0,0.3-2.9,0.5-7.6,0.5c-8.2,0-8.9-0.3-6.3-2.6l1.3-1.2l-0.8-14.9 c-0.4-8.2-0.9-15-1-15.2c-0.2-0.2-0.5,0.3-0.8,1c-1.8,4.7-13.8,32.4-14.2,32.8c-0.3,0.3-0.7,0.3-1.1-0.1c-0.3-0.3-4.2-8-8.7-17.1 s-8.3-16.6-8.5-16.7c-0.3-0.1-0.5,4.2-0.5,9.5c-0.1,5.3-0.3,11.7-0.4,14.3c-0.4,5.3,0.2,7.3,2.2,8.3c2.9,1.3,1.5,1.8-5.7,1.8h-7.1 L208.5,111.5L208.5,111.5z"></path> <path class="st0" d="M355.9,111.6c-2.7-1.8-6.4-6.8-10.6-14.6c-2.9-5.3-4.2-6.6-7.5-7l-2.6-0.3l0.3,8.8c0.4,9.3,1,11.6,3.1,12.3 c0.6,0.2,1.1,0.7,1.1,1c0,0.5-1.7,0.7-7.6,0.8c-5.7,0-7.6-0.2-7.6-0.7c0-0.4,0.6-1,1.4-1.4c3.2-1.7,3.2-1.6,2.8-22.8 c-0.2-11.8-0.5-20.2-0.9-21.4c-0.3-1.1-1.2-2.4-1.9-2.9c-2.8-1.8-1.7-2.1,9.8-2.3c13-0.2,15.7,0.3,19.3,3.6 c6.1,5.5,5.9,15.7-0.4,21.2c-1.1,1-2.7,2-3.4,2.3c-1.2,0.5-1.4,0.7-1,2.8c0.2,1.2,1.5,4.7,3,7.7c3.2,6.5,7.5,11.1,10.3,11.1 c1.2,0,1.7,0.3,1.7,1c0,1.6-1.1,2.3-4.1,2.3C359,113.3,357.9,113,355.9,111.6L355.9,111.6z M347.7,84.7c3.2-1.6,4.6-4.8,4.4-9.7 c-0.2-4.6-1.9-7.7-5.1-9.2c-2.1-1-9.7-1.5-10.9-0.7c-0.5,0.3-0.7,3.1-0.7,10.8v10.4l5.1-0.3C344.1,85.8,346.3,85.4,347.7,84.7z"></path> <path class="st0" d="M270.9,111.5c5.5-3.5,4.9-2.7,11.7-18.9c2.4-5.8,5.8-13.7,7.4-17.5c3.4-8,3.4-8.6-0.1-12.2 c-1.3-1.4-2.4-2.5-2.4-2.5c0-0.1,2.3,0,5.3,0.2l5.2,0.3l3.2,7.9c16,39.5,16.2,39.9,19,41.6c0.8,0.5,1.5,1,1.5,1.2s-3.4,0.4-7.6,0.4 c-4.2,0-7.6-0.2-7.6-0.5c0-0.3,0.5-1.2,1.1-2.2l1.1-1.8l-1.9-5.4c-1.1-2.9-2.2-6-2.6-7c-1.1-3-1.1-3-9.1-3c-4.1,0-7.7,0.2-7.9,0.4 c-0.3,0.2-2,4-3.7,8.5c-2.9,7.6-3,8.2-2.3,9.3c0.4,0.7,0.8,1.4,0.8,1.6s-2.8,0.3-6.1,0.2C271.1,112.2,270.1,112.1,270.9,111.5 L270.9,111.5z M301.7,88.6c0-0.5-5.6-14.8-6-15.2c-0.3-0.4-6.5,13.6-6.5,14.8c0,0.3,2.4,0.5,6.2,0.5 C298.9,88.9,301.7,88.8,301.7,88.6z"></path> <path class="st0" d="M64.8,173c-16-2.6-28.9-15.4-33.5-33.4c-1.8-7-1.8-18,0-25c2.4-9.5,8.4-19.7,14.8-24.9 c8.3-6.8,20.3-10.4,28.7-8.6l2.9,0.7l2-2l2-2l-3.2-2.9C68.1,65.1,65,49.6,71.1,36.8c0.8-1.8,2.3-4.2,3.2-5.3c2.4-2.9,7.4-6,11.9-7.5 c3.3-1,4.7-1.2,9.2-1c6.1,0.3,9.8,1.6,15.1,5.2c6.5,4.5,13.1,4,17.3-1.1c0.9-1.1,1.4-1.4,1.1-0.7c-0.2,0.6-2.9,8.5-6.1,17.6 c-3.1,9.1-5.9,17-6.1,17.7c-0.3,0.8-0.7-0.7-1.1-4.6c-1.3-11.5-4.9-20.5-10.7-26.2c-3.9-4-6.9-5.2-12.6-5.2 c-7.7,0-12.1,2.9-15.6,10.3c-1.5,3.3-1.7,4.1-1.7,8.7c0,8.5,1.1,10.2,14.8,22.7l4.5,4.1l3.6-0.7c4.4-0.8,15.5-0.4,21.4,0.8 c5.8,1.2,11.2,2.8,16,4.7c2.8,1.1,4.6,1.5,5.5,1.3c1.2-0.3,1.4-0.3,0.9,0.9c-0.2,0.7-0.9,3.4-1.5,6l-1.1,4.7l-3-2.8 c-3.5-3.3-7.8-5.7-13.8-7.7c-3.7-1.2-5.5-1.5-12.2-1.7c-4.7-0.1-8.2,0-8.7,0.3c-0.6,0.4,0.3,1.7,4.9,6.4c6.7,6.8,9.9,11.3,13.2,17.9 c4.3,8.7,6.3,16.7,6.3,25.8c0,2.9,0.2,5.4,0.3,5.4c0.7,0,5.9-3.3,8.2-5.2c1.2-1,3-3,4-4.3c1.8-2.8,1.8-2.9,3,3.3l0.9,4.3l-1.2,1 c-1.8,1.5-8.3,4.7-12.8,6.2l-4,1.4l-1.3,3.2c-2.1,5.1-4.6,9-9,13.6c-7.9,8.3-17.1,13.4-28.8,15.8C80,173.1,69,173.6,64.8,173z M76,167.8c4.7-1,11.6-4.2,15.8-7.2c5.7-4.2,11.1-11.2,13.4-17.4l1-2.7l-2.3-0.4c-3.9-0.6-10.5-2.4-13.2-3.5l-2.5-1.1l-3.6,2.2 c-4.5,2.7-7.9,3.8-13.2,4.2c-6.4,0.4-14.3-2-19-5.8l-1.4-1.1l2.4,1c4.3,1.8,9.3,2.5,13.8,1.8c4.4-0.7,9.3-2.6,12.1-4.8l1.8-1.4 l-2.9-3.1c-5.3-5.8-8-13.6-8.1-23.4c-0.1-6.2,0.5-9.3,2.6-14.6c1.5-3.9,1.5-4-2.2-5.1c-4.1-1.1-11.3-0.5-15.4,1.2 c-21.4,9.2-29,45-14.3,67.4c4.6,7,11.2,12.2,17.7,13.8C62.6,168.8,71.3,168.8,76,167.8L76,167.8z M108.2,132.1 c0.2-1.3,0.4-5.2,0.4-8.6c-0.1-13.2-5.3-25.9-14.9-36.1c-2.7-2.9-3.4-3.4-4.1-2.9c-2,1.6-1.8,2.3,1.2,5.5c5,5.3,8.4,13.9,8.4,21.2 c0,4-1.4,9.9-3.2,13.6c-0.9,1.7-1.5,3.4-1.4,3.6c0.8,1.2,10.3,5.8,12.3,5.9C107.6,134.4,108,133.7,108.2,132.1z M89.5,119.6 c1-2.7,1.3-10.7,0.6-14c-1-4.5-4.4-11.1-5.3-10.2c-0.7,0.7-0.9,12.6-0.2,16.4c0.7,3.9,2.9,9.5,3.7,9.5 C88.6,121.3,89.1,120.5,89.5,119.6L89.5,119.6z"></path> <path class="st0" d="M155.4,134.2c-2.4-1.1-3.7-3.3-3.7-6.5c0-2,0.3-2.8,1.6-4.2c1.4-1.6,1.9-1.7,5.2-2c2.9-0.2,3.6-0.1,3.6,0.5 c0,0.7-0.5,0.8-2.7,0.5c-2.4-0.2-2.8-0.1-4.3,1.4c-2.7,2.8-2,6.9,1.6,9c1.6,0.9,2.1,1,4.1,0.4c2.5-0.7,2.6-0.7,2,0.4 C161.9,135,157.7,135.2,155.4,134.2L155.4,134.2z"></path> <path class="st0" d="M172.5,134.2c-4.2-1.8-5.2-7.5-1.9-10.8c1.2-1.2,2.3-1.7,4.4-1.9c5.2-0.5,8.2,1.9,8.2,6.4 C183.2,133.4,177.8,136.5,172.5,134.2z M179.8,132.7c1.3-1.1,1.5-1.7,1.5-4.3c0-2.4-0.3-3.3-1.3-4.4c-4.1-4.3-11.1-0.1-9.3,5.7 C171.9,133.8,176.6,135.4,179.8,132.7z"></path> <path class="st0" d="M200.8,134.6c-0.3-0.2-2.3-2.6-4.6-5.3c-2.2-2.7-4.2-5-4.5-5.1c-0.3-0.1-0.4,2-0.3,5.1c0.1,3.9,0,5.2-0.5,5.2 c-0.5,0-0.7-1.7-0.7-6.5c0-5.4,0.2-6.5,0.8-6.5c0.4,0,2.7,2.3,5,5.2c2.3,2.8,4.4,5.2,4.7,5.2s0.4-2.3,0.3-5.2 c-0.1-3.2,0.1-5.2,0.4-5.2s0.5,2,0.4,5.3C201.6,134.4,201.5,135.1,200.8,134.6z"></path> <path class="st0" d="M209.7,134.7c-0.5-0.2-1-0.7-1-1.1c0-0.6,0.2-0.7,1-0.2c1.7,0.9,4.3,0.7,5.5-0.5c1.4-1.4,0.9-2.4-2.1-4.2 c-4.7-2.7-5.4-4-3.3-6.1c1.4-1.4,7.1-1.6,7.1-0.3c0,0.6-0.3,0.7-1.4,0.3c-2-0.8-2.7-0.7-4,0.4c-1.7,1.4-0.9,2.6,2.8,4.5 c3.9,2,4.7,3.6,2.5,5.8C215.4,134.6,211.9,135.3,209.7,134.7L209.7,134.7z"></path> <path class="st0" d="M256.7,134.5c-1.9-0.8-2.3-2.3-2.3-7.8c0-4.6,0.1-5.2,1-5.2c0.8,0,0.9,0.5,0.8,5.1c-0.2,4.6-0.1,5.3,0.9,6.2 c0.7,0.7,1.8,1.1,2.8,1.1s2.1-0.5,2.8-1.1c1-1,1.1-1.6,0.9-6.2c-0.2-4.8-0.1-5.1,0.9-5.1s1.1,0.3,0.9,6.5c-0.1,5.1-0.3,6.5-0.9,6.5 c-0.4,0-0.8-0.3-0.9-0.6s-0.8-0.3-1.8,0.3C259.9,135.2,258.5,135.2,256.7,134.5L256.7,134.5z"></path> <path class="st0" d="M276.1,134.2c-2.8-1.2-3.8-2.7-3.8-6c0-2.4,0.3-3.2,1.6-4.6c1.4-1.6,1.9-1.7,5.2-2c2.9-0.2,3.6-0.1,3.6,0.5 c0,0.7-0.5,0.8-2.7,0.5c-2.4-0.2-2.8-0.1-4.4,1.5c-1.5,1.6-1.7,2-1.4,4.2c0.4,4.2,4,6.5,7.6,5.2c1.1-0.4,1.5-0.4,1.5,0.2 C283.2,135.2,279.1,135.5,276.1,134.2z"></path> <path class="st0" d="M307.4,134.4c-7.3-3.4-4.8-12.9,3.4-12.9c2.5,0,3.2,0.2,4.8,1.8c3.3,2.9,2.9,8.1-0.6,10.4 C313.1,134.9,309.3,135.2,307.4,134.4z M314.3,132.4c1.6-1.4,1.8-1.9,1.7-4.2c-0.1-2.2-0.3-2.8-2.1-4.5c-1.7-1.6-2.3-1.8-4-1.5 c-2.8,0.4-4.9,2.9-4.9,5.8c0,1.8,0.3,2.6,1.8,4.1C309.2,134.6,311.8,134.7,314.3,132.4z"></path> <path class="st0" d="M355.9,134.7c-0.5-0.2-1-0.7-1.2-1.1c-0.3-0.7-0.1-0.7,0.6-0.4c3.3,1.4,6.9,0.6,6.6-1.5 c-0.2-1.1-1.6-2.3-5.3-4.3c-2.1-1.1-2.3-3.7-0.5-5c1.6-1.1,6.4-1.2,6.4-0.1c0,0.7-0.3,0.7-1.5,0.3c-2.1-0.7-4.5,0.2-4.5,1.6 c0,1,2.3,3.3,3.4,3.3c0.3,0,1.2,0.5,2.1,1.1c2.1,1.5,2.2,3.9,0.2,5.2C360.9,134.6,357.5,135.2,355.9,134.7L355.9,134.7z"></path> <path class="st0" d="M227.1,128.5l0.2-6l-2.2,0.2c-1.4,0.1-2.2,0-2.1-0.4c0.1-0.3,2.4-0.6,5.2-0.7c4-0.1,4.9,0,4.7,0.6 c-0.2,0.4-1,0.7-2.2,0.5l-1.9-0.2v6c0,5.4-0.1,6-0.9,6C227.1,134.5,227,133.9,227.1,128.5z"></path> <path class="st0" d="M238.9,128v-6.5h2.4c3.5,0,5.1,1,5.3,3.1c0.2,1.4-0.1,1.9-1.2,2.7c-0.8,0.5-1.4,1.1-1.4,1.3s1.1,1.7,2.5,3.2 c2.1,2.4,2.3,2.8,1.4,2.8c-0.7,0-2-1.1-3.5-3.1l-2.4-3l1.7-1.1c1-0.7,1.8-1.6,1.9-2.1c0.2-1.2-1.4-2.6-3.2-2.6h-1.6v6 c0,5.3-0.1,6-0.9,6C239,134.5,238.9,133.9,238.9,128L238.9,128z"></path> <path class="st0" d="M292.3,128.5l0.2-6l-2.2,0.2c-1.6,0.1-2.2,0-2.2-0.5c0-0.5,1.3-0.7,4.9-0.7c3.6,0,4.9,0.2,4.9,0.7 c0,0.5-0.6,0.7-1.9,0.5l-1.9-0.2v6c0,5.4-0.1,6-0.9,6C292.3,134.5,292.2,133.9,292.3,128.5L292.3,128.5z"></path> <path class="st0" d="M324.9,127.9l0.2-6.6l2.9,0.2c1.6,0.2,3.3,0.5,3.7,0.9c1.4,1.1,1.1,3.7-0.5,4.7c-0.8,0.5-1.4,1.1-1.4,1.3 s1.1,1.7,2.5,3.2c2.1,2.3,2.3,2.8,1.4,2.8c-0.7,0-2.1-1.2-3.6-3.1l-2.4-3.2l1.3-0.7c1.1-0.6,2.4-2.2,2.4-3c0-0.8-1.9-2-3.3-2h-1.6v6 c0,5.3-0.1,6-0.9,6C324.9,134.5,324.8,133.9,324.9,127.9L324.9,127.9z"></path> <path class="st0" d="M340.5,128v-6.5h3c2,0,3.2,0.3,3.4,0.7c0.2,0.5-0.4,0.6-2.1,0.4l-2.4-0.2v2.2c0,2.1,0.1,2.2,1.6,2.2 c0.9,0,1.6,0.3,1.6,0.5c0,0.3-0.7,0.5-1.6,0.5c-1.6,0-1.6,0.1-1.6,2.7c0,2.5,0.1,2.7,1.7,3c0.9,0.2,2.3,0.2,3,0 c0.8-0.2,1.3-0.1,1.3,0.3s-1.4,0.6-3.9,0.6h-4L340.5,128L340.5,128z"></path> <path class="st0" d="M102,139.8c-11.8-2.7-18-5.6-22.9-10.7c-6-6.4-8.7-13.9-8.7-24.3c0-6.6,0.6-9.7,3.4-16.4 c1.4-3.5,2.4-4.9,5.9-8.4c7.3-7.4,15.4-10.1,28.5-9.6c9.7,0.4,18.2,2.2,27.2,5.8c2.8,1.1,4.6,1.5,5.5,1.3c1.2-0.3,1.4-0.3,0.9,0.9 c-0.2,0.7-0.9,3.4-1.5,6l-1.1,4.7l-3-2.8c-3.5-3.3-7.8-5.7-13.8-7.7c-3.6-1.2-5.7-1.5-11.8-1.7c-7.1-0.3-7.6-0.2-11.2,1.1 C89,82,84.1,90.4,84.1,103.8c0,10.5,1.7,15.3,7.6,21.6c6.8,7.1,14.6,10.1,25,9.4c8.7-0.5,17.4-5.2,21.7-11.6c1.8-2.8,1.8-2.9,3,3.3 l0.9,4.3l-1.2,1c-2.1,1.7-9.1,5-14.6,6.8c-4.6,1.6-5.9,1.8-12.5,2C108.2,140.8,105.6,140.6,102,139.8L102,139.8z"></path> </svg> 