<?xml version="1.0" encoding="utf-8"?>
<!-- Generator: Adobe Illustrator 27.0.0, SVG Export Plug-In . SVG Version: 6.00 Build 0)  -->
<svg version="1.1" id="Capa_1" xmlns="http://www.w3.org/2000/svg" xmlns:xlink="http://www.w3.org/1999/xlink" x="0px" y="0px"
	 viewBox="0 0 24 24" style="enable-background:new 0 0 24 24;" xml:space="preserve">
<style type="text/css">
	.st0{fill:none;stroke:#FFFFFF;stroke-width:2;stroke-linecap:round;stroke-linejoin:round;}
</style>
<path class="st0" d="M3,4c0-0.6,0.4-1,1-1h2c0.6,0,1,0.4,1,1v2c0,0.6-0.4,1-1,1H4C3.4,7,3,6.6,3,6V4z"/>
<path class="st0" d="M17,4c0-0.6,0.4-1,1-1h2c0.6,0,1,0.4,1,1v2c0,0.6-0.4,1-1,1h-2c-0.6,0-1-0.4-1-1V4z"/>
<path class="st0" d="M17,18c0-0.6,0.4-1,1-1h2c0.6,0,1,0.4,1,1v2c0,0.6-0.4,1-1,1h-2c-0.6,0-1-0.4-1-1V18z"/>
<path class="st0" d="M3,18c0-0.6,0.4-1,1-1h2c0.6,0,1,0.4,1,1v2c0,0.6-0.4,1-1,1H4c-0.6,0-1-0.4-1-1V18z"/>
<path class="st0" d="M5,7v10"/>
<path class="st0" d="M19,7v10"/>
<path class="st0" d="M7,5h10"/>
<path class="st0" d="M7,19h10"/>
</svg>
