<?xml version="1.0" encoding="UTF-8"?> <!-- Generator: Adobe Illustrator 23.0.1, SVG Export Plug-In . SVG Version: 6.00 Build 0) --> <svg xmlns="http://www.w3.org/2000/svg" xmlns:xlink="http://www.w3.org/1999/xlink" version="1.1" id="Layer_1" x="0px" y="0px" viewBox="0 0 200.4 66.5" style="enable-background:new 0 0 200.4 66.5;" xml:space="preserve"> <style type="text/css"> .st0{fill:#FFFFFF;} </style> <title>softac</title> <path class="st0" d="M100.2,1.39c-17.68,0-32.07,14.38-32.07,32.07c0,17.68,14.39,32.07,32.07,32.07s32.07-14.39,32.07-32.07 C132.27,15.77,117.88,1.39,100.2,1.39z M71.37,33.46c0-4.18,0.89-8.14,2.5-11.73l13.76,37.68C78,54.73,71.37,44.87,71.37,33.46 L71.37,33.46z M100.2,62.29c-2.83,0-5.56-0.41-8.14-1.18l8.65-25.13l8.86,24.28c0.06,0.14,0.13,0.27,0.21,0.4 C106.78,61.71,103.56,62.29,100.2,62.29L100.2,62.29z M104.17,19.95L104.17,19.95c1.73-0.09,3.29-0.27,3.29-0.27 c1.55-0.18,1.37-2.47-0.18-2.38c0,0-4.67,0.36-7.68,0.36c-2.83,0-7.59-0.36-7.59-0.36c-1.55-0.09-1.73,2.29-0.18,2.38 c0,0,1.47,0.18,3.02,0.27l4.49,12.31l-6.31,18.92l-10.5-31.22c1.73-0.09,3.3-0.27,3.3-0.27c1.55-0.18,1.37-2.47-0.18-2.38 c0,0-4.67,0.36-7.68,0.36c-0.54,0-1.18-0.01-1.86-0.04C81.27,9.8,90.13,4.63,100.2,4.63c7.5,0,14.34,2.87,19.47,7.56 c-0.13-0.01-0.25-0.02-0.37-0.02c-2.83,0-4.84,2.47-4.84,5.12c0,2.38,1.37,4.38,2.83,6.76c1.1,1.91,2.38,4.38,2.38,7.95 c0,2.47-0.94,5.33-2.2,9.32l-2.87,9.61L104.17,19.95z M125.51,19.63c2.25,4.11,3.53,8.82,3.53,13.84c0,10.64-5.77,19.92-14.34,24.91 l0,0l8.8-25.46c1.64-4.11,2.2-7.39,2.2-10.33C125.7,21.53,125.63,20.54,125.51,19.63L125.51,19.63z"></path> </svg> 